  0
SECTION
  2
HEADER
  9
$ACADVER
  1
AC1012
  9
$DWGCODEPAGE
  3
ansi_932
  9
$INSBASE
 10
0.0
 20
0.0
 30
0.0
  9
$EXTMIN
 10
1.000000000000000E+20
 20
1.000000000000000E+20
 30
1.000000000000000E+20
  9
$EXTMAX
 10
-1.000000000000000E+20
 20
-1.000000000000000E+20
 30
-1.000000000000000E+20
  9
$LIMMIN
 10
0.0
 20
0.0
  9
$LIMMAX
 10
12.0
 20
9.0
  9
$ORTHOMODE
 70
     0
  9
$REGENMODE
 70
     1
  9
$FILLMODE
 70
     1
  9
$QTEXTMODE
 70
     0
  9
$MIRRTEXT
 70
     1
  9
$DRAGMODE
 70
     2
  9
$LTSCALE
 40
1.0
  9
$OSMODE
 70
    37
  9
$ATTMODE
 70
     1
  9
$TEXTSIZE
 40
0.2
  9
$TRACEWID
 40
0.05
  9
$TEXTSTYLE
  7
STANDARD
  9
$CLAYER
  8
0
  9
$CELTYPE
  6
BYLAYER
  9
$CECOLOR
 62
   256
  9
$CELTSCALE
 40
1.0
  9
$DELOBJ
 70
     1
  9
$DISPSILH
 70
     0
  9
$DIMSCALE
 40
1.0
  9
$DIMASZ
 40
0.18
  9
$DIMEXO
 40
0.0625
  9
$DIMDLI
 40
0.38
  9
$DIMRND
 40
0.0
  9
$DIMDLE
 40
0.0
  9
$DIMEXE
 40
0.18
  9
$DIMTP
 40
0.0
  9
$DIMTM
 40
0.0
  9
$DIMTXT
 40
0.18
  9
$DIMCEN
 40
0.09
  9
$DIMTSZ
 40
0.0
  9
$DIMTOL
 70
     0
  9
$DIMLIM
 70
     0
  9
$DIMTIH
 70
     1
  9
$DIMTOH
 70
     1
  9
$DIMSE1
 70
     0
  9
$DIMSE2
 70
     0
  9
$DIMTAD
 70
     0
  9
$DIMZIN
 70
     0
  9
$DIMBLK
  1

  9
$DIMASO
 70
     1
  9
$DIMSHO
 70
     1
  9
$DIMPOST
  1

  9
$DIMAPOST
  1

  9
$DIMALT
 70
     0
  9
$DIMALTD
 70
     2
  9
$DIMALTF
 40
25.4
  9
$DIMLFAC
 40
1.0
  9
$DIMTOFL
 70
     0
  9
$DIMTVP
 40
0.0
  9
$DIMTIX
 70
     0
  9
$DIMSOXD
 70
     0
  9
$DIMSAH
 70
     0
  9
$DIMBLK1
  1

  9
$DIMBLK2
  1

  9
$DIMSTYLE
  2
STANDARD
  9
$DIMCLRD
 70
     0
  9
$DIMCLRE
 70
     0
  9
$DIMCLRT
 70
     0
  9
$DIMTFAC
 40
1.0
  9
$DIMGAP
 40
0.09
  9
$DIMJUST
 70
     0
  9
$DIMSD1
 70
     0
  9
$DIMSD2
 70
     0
  9
$DIMTOLJ
 70
     1
  9
$DIMTZIN
 70
     0
  9
$DIMALTZ
 70
     0
  9
$DIMALTTZ
 70
     0
  9
$DIMFIT
 70
     3
  9
$DIMUPT
 70
     0
  9
$DIMUNIT
 70
     2
  9
$DIMDEC
 70
     4
  9
$DIMTDEC
 70
     4
  9
$DIMALTU
 70
     2
  9
$DIMALTTD
 70
     2
  9
$DIMTXSTY
  7
STANDARD
  9
$DIMAUNIT
 70
     0
  9
$LUNITS
 70
     2
  9
$LUPREC
 70
     4
  9
$SKETCHINC
 40
0.1
  9
$FILLETRAD
 40
0.5
  9
$AUNITS
 70
     0
  9
$AUPREC
 70
     0
  9
$MENU
  1
.
  9
$ELEVATION
 40
0.0
  9
$PELEVATION
 40
0.0
  9
$THICKNESS
 40
0.0
  9
$LIMCHECK
 70
     0
  9
$CHAMFERA
 40
0.5
  9
$CHAMFERB
 40
0.5
  9
$CHAMFERC
 40
1.0
  9
$CHAMFERD
 40
0.0
  9
$SKPOLY
 70
     0
  9
$TDCREATE
 40
2456813.503773148
  9
$TDUPDATE
 40
2456813.50377316
  9
$TDINDWG
 40
0.0000000116
  9
$TDUSRTIMER
 40
0.0000000116
  9
$USRTIMER
 70
     1
  9
$ANGBASE
 50
0.0
  9
$ANGDIR
 70
     0
  9
$PDMODE
 70
     0
  9
$PDSIZE
 40
0.0
  9
$PLINEWID
 40
0.0
  9
$COORDS
 70
     1
  9
$SPLFRAME
 70
     0
  9
$SPLINETYPE
 70
     6
  9
$SPLINESEGS
 70
     8
  9
$ATTDIA
 70
     0
  9
$ATTREQ
 70
     1
  9
$HANDLING
 70
     1
  9
$HANDSEED
  5
F2
  9
$SURFTAB1
 70
     6
  9
$SURFTAB2
 70
     6
  9
$SURFTYPE
 70
     6
  9
$SURFU
 70
     6
  9
$SURFV
 70
     6
  9
$UCSNAME
  2

  9
$UCSORG
 10
0.0
 20
0.0
 30
0.0
  9
$UCSXDIR
 10
1.0
 20
0.0
 30
0.0
  9
$UCSYDIR
 10
0.0
 20
1.0
 30
0.0
  9
$PUCSNAME
  2

  9
$PUCSORG
 10
0.0
 20
0.0
 30
0.0
  9
$PUCSXDIR
 10
1.0
 20
0.0
 30
0.0
  9
$PUCSYDIR
 10
0.0
 20
1.0
 30
0.0
  9
$USERI1
 70
     0
  9
$USERI2
 70
     0
  9
$USERI3
 70
     0
  9
$USERI4
 70
     0
  9
$USERI5
 70
     0
  9
$USERR1
 40
0.0
  9
$USERR2
 40
0.0
  9
$USERR3
 40
0.0
  9
$USERR4
 40
0.0
  9
$USERR5
 40
0.0
  9
$WORLDVIEW
 70
     1
  9
$SHADEDGE
 70
     3
  9
$SHADEDIF
 70
    70
  9
$TILEMODE
 70
     1
  9
$MAXACTVP
 70
    64
  9
$PINSBASE
 10
0.0
 20
0.0
 30
0.0
  9
$PLIMCHECK
 70
     0
  9
$PEXTMIN
 10
1.000000000000000E+20
 20
1.000000000000000E+20
 30
1.000000000000000E+20
  9
$PEXTMAX
 10
-1.000000000000000E+20
 20
-1.000000000000000E+20
 30
-1.000000000000000E+20
  9
$PLIMMIN
 10
0.0
 20
0.0
  9
$PLIMMAX
 10
12.0
 20
9.0
  9
$UNITMODE
 70
     0
  9
$VISRETAIN
 70
     1
  9
$PLINEGEN
 70
     0
  9
$PSLTSCALE
 70
     1
  9
$TREEDEPTH
 70
  3020
  9
$PICKSTYLE
 70
     1
  9
$CMLSTYLE
  2
STANDARD
  9
$CMLJUST
 70
     0
  9
$CMLSCALE
 40
1.0
  9
$SAVEIMAGES
 70
     1
  0
ENDSEC
  0
SECTION
  2
CLASSES
  0
CLASS
  1
ACDBDICTIONARYWDFLT
  2
AcDbDictionaryWithDefault
  3
ObjectDBX Classes
 90
    32768
280
     0
281
     0
  0
CLASS
  1
VISUALSTYLE
  2
AcDbVisualStyle
  3
ObjectDBX Classes
 90
     4095
280
     0
281
     0
  0
CLASS
  1
XRECORD
  2
AcDbXrecord
  3
AutoCAD 2000
 90
    32768
280
     0
281
     0
  0
CLASS
  1
LWPOLYLINE
  2
AcDbPolyline
  3
AutoCAD 2000
 90
    32768
280
     0
281
     1
  0
CLASS
  1
HATCH
  2
AcDbHatch
  3
AutoCAD 2000
 90
    32768
280
     0
281
     1
  0
CLASS
  1
ACDBPLACEHOLDER
  2
AcDbPlaceHolder
  3
ObjectDBX Classes
 90
        0
280
     0
281
     0
  0
CLASS
  1
LAYOUT
  2
AcDbLayout
  3
ObjectDBX Classes
 90
        0
280
     0
281
     0
  0
ENDSEC
  0
SECTION
  2
TABLES
  0
TABLE
  2
VPORT
  5
8
330
0
100
AcDbSymbolTable
 70
     1
  0
VPORT
  5
29
330
8
100
AcDbSymbolTableRecord
100
AcDbViewportTableRecord
  2
*ACTIVE
 70
     0
 10
0.0
 20
0.0
 11
1.0
 21
1.0
 12
0.0
 22
0.0
 13
0.0
 23
0.0
 14
0.5
 24
0.5
 15
0.5
 25
0.5
 16
0.0
 26
0.0
 36
1.0
 17
300.0006630572949
 27
-450.0000471840589
 37
0.0
 40
900.0000943681179
 41
0.6666680702248653
 42
50.0
 43
0.0
 44
0.0
 50
0.0
 51
0.0
 71
     0
 72
   100
 73
     1
 74
     3
 75
     0
 76
     0
 77
     0
 78
     0
  0
ENDTAB
  0
TABLE
  2
LTYPE
  5
5
330
0
100
AcDbSymbolTable
 70
     1
  0
LTYPE
  5
14
330
5
100
AcDbSymbolTableRecord
100
AcDbLinetypeTableRecord
  2
BYBLOCK
 70
     0
  3

 72
    65
 73
     0
 40
0.0
  0
LTYPE
  5
15
330
5
100
AcDbSymbolTableRecord
100
AcDbLinetypeTableRecord
  2
BYLAYER
 70
     0
  3

 72
    65
 73
     0
 40
0.0
  0
LTYPE
  5
16
330
5
100
AcDbSymbolTableRecord
100
AcDbLinetypeTableRecord
  2
CONTINUOUS
 70
     0
  3
Solid line
 72
    65
 73
     0
 40
0.0
  0
ENDTAB
  0
TABLE
  2
LAYER
  5
2
330
0
100
AcDbSymbolTable
 70
     2
  0
LAYER
  5
10
330
2
100
AcDbSymbolTableRecord
100
AcDbLayerTableRecord
  2
0
 70
     0
 62
     7
  6
CONTINUOUS
  0
LAYER
  5
3B
330
2
100
AcDbSymbolTableRecord
100
AcDbLayerTableRecord
  2
CALQUE_1
 70
     0
 62
     7
  6
CONTINUOUS
  0
ENDTAB
  0
TABLE
  2
STYLE
  5
3
330
0
100
AcDbSymbolTable
 70
     1
  0
STYLE
  5
11
330
3
100
AcDbSymbolTableRecord
100
AcDbTextStyleTableRecord
  2
STANDARD
 70
     0
 40
0.0
 41
1.0
 50
0.0
 71
     0
 42
0.2
  3
txt
  4

  0
ENDTAB
  0
TABLE
  2
VIEW
  5
6
330
0
100
AcDbSymbolTable
 70
     0
  0
ENDTAB
  0
TABLE
  2
UCS
  5
7
330
0
100
AcDbSymbolTable
 70
     0
  0
ENDTAB
  0
TABLE
  2
APPID
  5
9
330
0
100
AcDbSymbolTable
 70
     1
  0
APPID
  5
12
330
9
100
AcDbSymbolTableRecord
100
AcDbRegAppTableRecord
  2
ACAD
 70
     0
  0
ENDTAB
  0
TABLE
  2
DIMSTYLE
  5
A
330
0
100
AcDbSymbolTable
 70
     1
  0
DIMSTYLE
105
27
330
A
100
AcDbSymbolTableRecord
100
AcDbDimStyleTableRecord
  2
STANDARD
 70
     0
  3

  4

  5

  6

  7

 40
1.0
 41
0.18
 42
0.0625
 43
0.38
 44
0.18
 45
0.0
 46
0.0
 47
0.0
 48
0.0
140
0.18
141
0.09
142
0.0
143
25.4
144
1.0
145
0.0
146
1.0
147
0.09
 71
     0
 72
     0
 73
     1
 74
     1
 75
     0
 76
     0
 77
     0
 78
     0
170
     0
171
     2
172
     0
173
     0
174
     0
175
     0
176
     0
177
     0
178
     0
270
     2
271
     4
272
     4
273
     2
274
     2
340
11
275
     0
280
     0
281
     0
282
     0
283
     1
284
     0
285
     0
286
     0
287
     3
288
     0
  0
ENDTAB
  0
TABLE
  2
BLOCK_RECORD
  5
1
330
0
100
AcDbSymbolTable
 70
     6
  0
BLOCK_RECORD
  5
1F
330
1
100
AcDbSymbolTableRecord
100
AcDbBlockTableRecord
  2
*MODEL_SPACE
  0
BLOCK_RECORD
  5
1B
330
1
100
AcDbSymbolTableRecord
100
AcDbBlockTableRecord
  2
*PAPER_SPACE
  0
BLOCK_RECORD
  5
3C
330
1
100
AcDbSymbolTableRecord
100
AcDbBlockTableRecord
  2
BLOCK_2
  0
BLOCK_RECORD
  5
5C
330
1
100
AcDbSymbolTableRecord
100
AcDbBlockTableRecord
  2
*U2
  0
BLOCK_RECORD
  5
69
330
1
100
AcDbSymbolTableRecord
100
AcDbBlockTableRecord
  2
*U3
  0
BLOCK_RECORD
  5
AA
330
1
100
AcDbSymbolTableRecord
100
AcDbBlockTableRecord
  2
*U4
  0
BLOCK_RECORD
  5
EB
330
1
100
AcDbSymbolTableRecord
100
AcDbBlockTableRecord
  2
*U5
  0
ENDTAB
  0
ENDSEC
  0
SECTION
  2
BLOCKS
  0
BLOCK
  5
20
330
1F
100
AcDbEntity
  8
0
100
AcDbBlockBegin
  2
*MODEL_SPACE
 70
     0
 71
     0
 10
0.0
 20
0.0
 30
0.0
  3
*MODEL_SPACE
  1

  0
ENDBLK
  5
21
330
1F
100
AcDbEntity
  8
0
100
AcDbBlockEnd
  0
BLOCK
  5
1C
330
1B
100
AcDbEntity
 67
     1
  8
0
100
AcDbBlockBegin
  2
*PAPER_SPACE
 70
     0
 71
     0
 10
0.0
 20
0.0
 30
0.0
  3
*PAPER_SPACE
  1

  0
ENDBLK
  5
1D
330
1B
100
AcDbEntity
 67
     1
  8
0
100
AcDbBlockEnd
  0
BLOCK
  5
3E
330
3C
100
AcDbEntity
  8
0
100
AcDbBlockBegin
  2
BLOCK_2
 70
     0
 71
     0
 10
0.0
 20
0.0
 30
0.0
  3
BLOCK_2
  1

  0
POLYLINE
  5
40
330
3C
100
AcDbEntity
  8
CALQUE_1
100
AcDb2dPolyline
 66
     1
 10
0.0
 20
0.0
 30
0.0
  0
VERTEX
  5
41
330
40
100
AcDbEntity
  8
CALQUE_1
100
AcDbVertex
100
AcDb2dVertex
 10
4.224895635476317
 20
-4.641924719077579
 30
0.0
  0
VERTEX
  5
42
330
40
100
AcDbEntity
  8
CALQUE_1
100
AcDbVertex
100
AcDb2dVertex
 10
4.224895635476317
 20
-0.4364938859337459
 30
0.0
  0
VERTEX
  5
43
330
40
100
AcDbEntity
  8
CALQUE_1
100
AcDbVertex
100
AcDb2dVertex
 10
3.197567484052141
 20
-0.4364938859337459
 30
0.0
  0
VERTEX
  5
44
330
40
100
AcDbEntity
  8
CALQUE_1
100
AcDbVertex
100
AcDb2dVertex
 10
1.861558573514598
 20
-1.252465289906972
 30
0.0
  0
VERTEX
  5
45
330
40
100
AcDbEntity
  8
CALQUE_1
100
AcDbVertex
100
AcDb2dVertex
 10
1.861558573514598
 20
-0.4364938859337459
 30
0.0
  0
VERTEX
  5
46
330
40
100
AcDbEntity
  8
CALQUE_1
100
AcDbVertex
100
AcDb2dVertex
 10
0.3527780104152769
 20
-0.4364938859337459
 30
0.0
  0
VERTEX
  5
47
330
40
100
AcDbEntity
  8
CALQUE_1
100
AcDbVertex
100
AcDb2dVertex
 10
0.3527780104152769
 20
-4.641924719077579
 30
0.0
  0
VERTEX
  5
48
330
40
100
AcDbEntity
  8
CALQUE_1
100
AcDbVertex
100
AcDb2dVertex
 10
1.380106161839452
 20
-4.641924719077579
 30
0.0
  0
VERTEX
  5
49
330
40
100
AcDbEntity
  8
CALQUE_1
100
AcDbVertex
100
AcDb2dVertex
 10
2.716287327264893
 20
-3.825953315104353
 30
0.0
  0
VERTEX
  5
4A
330
40
100
AcDbEntity
  8
CALQUE_1
100
AcDbVertex
100
AcDb2dVertex
 10
2.716287327264893
 20
-4.641924719077579
 30
0.0
  0
VERTEX
  5
4B
330
40
100
AcDbEntity
  8
CALQUE_1
100
AcDbVertex
100
AcDb2dVertex
 10
4.224895635476317
 20
-4.641924719077579
 30
0.0
  0
SEQEND
  5
4C
330
40
100
AcDbEntity
  8
CALQUE_1
  0
INSERT
  5
4D
330
3C
100
AcDbEntity
  8
CALQUE_1
 62
   250
100
AcDbBlockReference
  2
*U2
 10
0.0
 20
0.0
 30
0.0
1001
ACAD
1002
{
1000
R14_HATCH_DATA
1000
4D
1011
1.0
1021
0.0
1031
0.0
1011
0.0
1021
1.0
1031
0.0
1011
0.0
1021
0.0
1031
1.0
1040
0.0
1010
0.0
1020
0.0
1030
1.0
1000
SOLID
1070
     1
1070
     1
1071
        1
1071
        1
1071
       10
1070
     1
1040
4.224895635476317
1040
-4.641924719077579
1040
4.224895635476317
1040
-0.4364938859337464
1070
     1
1040
4.224895635476317
1040
-0.4364938859337459
1040
3.197567484052141
1040
-0.4364938859337459
1070
     1
1040
3.197567484052141
1040
-0.4364938859337459
1040
1.861558573514598
1040
-1.252465289906972
1070
     1
1040
1.861558573514598
1040
-1.252465289906972
1040
1.861558573514598
1040
-0.4364938859337459
1070
     1
1040
1.861558573514598
1040
-0.4364938859337459
1040
0.3527780104152769
1040
-0.4364938859337459
1070
     1
1040
0.3527780104152769
1040
-0.4364938859337459
1040
0.3527780104152769
1040
-4.641924719077579
1070
     1
1040
0.3527780104152769
1040
-4.641924719077579
1040
1.380106161839452
1040
-4.641924719077579
1070
     1
1040
1.380106161839452
1040
-4.641924719077579
1040
2.716287327264893
1040
-3.825953315104353
1070
     1
1040
2.716287327264893
1040
-3.825953315104353
1040
2.716287327264893
1040
-4.641924719077579
1070
     1
1040
2.716287327264893
1040
-4.641924719077579
1040
4.224895635476317
1040
-4.641924719077579
1071
        0
1070
     2
1070
     1
1071
        0
1002
}
  0
SPLINE
  5
4E
330
3C
100
AcDbEntity
  8
CALQUE_1
100
AcDbSpline
210
0.0
220
0.0
230
1.0
 70
    11
 71
     3
 72
   197
 73
   193
 74
     0
 42
0.0000000001
 43
0.0000000001
 40
0.0
 40
0.0
 40
0.0
 40
0.0
 40
1.0
 40
1.0
 40
1.0
 40
2.0
 40
2.0
 40
2.0
 40
3.0
 40
3.0
 40
3.0
 40
4.0
 40
4.0
 40
4.0
 40
5.0
 40
5.0
 40
5.0
 40
6.0
 40
6.0
 40
6.0
 40
7.0
 40
7.0
 40
7.0
 40
8.0
 40
8.0
 40
8.0
 40
9.0
 40
9.0
 40
9.0
 40
10.0
 40
10.0
 40
10.0
 40
11.0
 40
11.0
 40
11.0
 40
12.0
 40
12.0
 40
12.0
 40
13.0
 40
13.0
 40
13.0
 40
14.0
 40
14.0
 40
14.0
 40
15.0
 40
15.0
 40
15.0
 40
16.0
 40
16.0
 40
16.0
 40
17.0
 40
17.0
 40
17.0
 40
18.0
 40
18.0
 40
18.0
 40
19.0
 40
19.0
 40
19.0
 40
20.0
 40
20.0
 40
20.0
 40
21.0
 40
21.0
 40
21.0
 40
22.0
 40
22.0
 40
22.0
 40
23.0
 40
23.0
 40
23.0
 40
24.0
 40
24.0
 40
24.0
 40
25.0
 40
25.0
 40
25.0
 40
26.0
 40
26.0
 40
26.0
 40
27.0
 40
27.0
 40
27.0
 40
28.0
 40
28.0
 40
28.0
 40
29.0
 40
29.0
 40
29.0
 40
30.0
 40
30.0
 40
30.0
 40
31.0
 40
31.0
 40
31.0
 40
32.0
 40
32.0
 40
32.0
 40
33.0
 40
33.0
 40
33.0
 40
34.0
 40
34.0
 40
34.0
 40
35.0
 40
35.0
 40
35.0
 40
36.0
 40
36.0
 40
36.0
 40
37.0
 40
37.0
 40
37.0
 40
38.0
 40
38.0
 40
38.0
 40
39.0
 40
39.0
 40
39.0
 40
40.0
 40
40.0
 40
40.0
 40
41.0
 40
41.0
 40
41.0
 40
42.0
 40
42.0
 40
42.0
 40
43.0
 40
43.0
 40
43.0
 40
44.0
 40
44.0
 40
44.0
 40
45.0
 40
45.0
 40
45.0
 40
46.0
 40
46.0
 40
46.0
 40
47.0
 40
47.0
 40
47.0
 40
48.0
 40
48.0
 40
48.0
 40
49.0
 40
49.0
 40
49.0
 40
50.0
 40
50.0
 40
50.0
 40
51.0
 40
51.0
 40
51.0
 40
52.0
 40
52.0
 40
52.0
 40
53.0
 40
53.0
 40
53.0
 40
54.0
 40
54.0
 40
54.0
 40
55.0
 40
55.0
 40
55.0
 40
56.0
 40
56.0
 40
56.0
 40
57.0
 40
57.0
 40
57.0
 40
58.0
 40
58.0
 40
58.0
 40
59.0
 40
59.0
 40
59.0
 40
60.0
 40
60.0
 40
60.0
 40
61.0
 40
61.0
 40
61.0
 40
62.0
 40
62.0
 40
62.0
 40
63.0
 40
63.0
 40
63.0
 40
64.0
 40
64.0
 40
64.0
 40
64.0
 10
9.316577866855795
 20
-2.539381557393561
 30
0.0
 10
9.316577866855795
 20
-2.614829198292921
 30
0.0
 10
9.32053972927745
 20
-2.689243309864894
 30
0.0
 10
9.327946689457068
 20
-2.762796146997376
 30
0.0
 10
9.335525904524584
 20
-2.836348984129858
 30
0.0
 10
9.346377962462162
 20
-2.908868291934952
 30
0.0
 10
9.3610196279335
 20
-2.98000956063686
 30
0.0
 10
9.375661293404837
 20
-3.050978574450872
 30
0.0
 10
9.393575801746238
 20
-3.12125856871329
 30
0.0
 10
9.4149354078456
 20
-3.189471504320931
 30
0.0
 10
9.436295013944962
 20
-3.258028949704369
 30
0.0
 10
9.460755208026491
 20
-3.325036101096724
 30
0.0
 10
9.488660499865981
 20
-3.390320703610098
 30
0.0
 10
9.516221281929674
 20
-3.45577756101137
 30
0.0
 10
9.546882651975533
 20
-3.519684124421559
 30
0.0
 10
9.580644610003558
 20
-3.581351374289073
 30
0.0
 10
9.614406568031582
 20
-3.643535388820282
 30
0.0
 10
9.650752349378077
 20
-3.703652344696713
 30
0.0
 10
9.69002646381884
 20
-3.762046751694164
 30
0.0
 10
9.729472833147502
 20
-3.820268903803716
 30
0.0
 10
9.771503025794635
 20
-3.876251742370594
 30
0.0
 10
9.815944786872342
 20
-3.930167522282694
 30
0.0
 10
9.860386547950046
 20
-3.984427811970591
 30
0.0
 10
9.90775664212202
 20
-4.036104278340016
 30
0.0
 10
9.956849285172973
 20
-4.085541431166766
 30
0.0
 10
10.00645869288762
 20
-4.134806329105619
 30
0.0
 10
10.05830741414495
 20
-4.182004168389693
 30
0.0
 10
10.11222319405705
 20
-4.226618184355297
 30
0.0
 10
10.16631122885704
 20
-4.271404455208799
 30
0.0
 10
10.22246632231182
 20
-4.313262392968034
 30
0.0
 10
10.28068847442137
 20
-4.352536507408797
 30
0.0
 10
10.33891062653093
 20
-4.391982876737458
 30
0.0
 10
10.39902758240736
 20
-4.428328658083954
 30
0.0
 10
10.46103934205067
 20
-4.462090616111979
 30
0.0
 10
10.52287884680608
 20
-4.495680319252106
 30
0.0
 10
10.58661315532837
 20
-4.526341689297964
 30
0.0
 10
10.65207001272964
 20
-4.554074726249556
 30
0.0
 10
10.71769912501881
 20
-4.581807763201148
 30
0.0
 10
10.78470627641117
 20
-4.606440212170574
 30
0.0
 10
10.85309146690671
 20
-4.627627563382038
 30
0.0
 10
10.92147665740225
 20
-4.648814914593502
 30
0.0
 10
10.99141214188887
 20
-4.667073932710699
 30
0.0
 10
11.06255341059078
 20
-4.681543343294138
 30
0.0
 10
11.13369467929269
 20
-4.696185008765475
 30
0.0
 10
11.20621398709778
 20
-4.707037066703055
 30
0.0
 10
11.27959456934236
 20
-4.714616281770571
 30
0.0
 10
11.35331966136274
 20
-4.722023241950188
 30
0.0
 10
11.42773377293472
 20
-4.725985104371844
 30
0.0
 10
11.50335366872198
 20
-4.725985104371844
 30
0.0
 10
11.57862905473344
 20
-4.725985104371844
 30
0.0
 10
11.65338767608121
 20
-4.722023241950188
 30
0.0
 10
11.72694051321369
 20
-4.714616281770571
 30
0.0
 10
11.80032109545827
 20
-4.707037066703055
 30
0.0
 10
11.87249589348757
 20
-4.696185008765475
 30
0.0
 10
11.94398167196528
 20
-4.681543343294138
 30
0.0
 10
12.01512294066718
 20
-4.667073932710699
 30
0.0
 10
12.08505842515381
 20
-4.648814914593502
 30
0.0
 10
12.15344361564935
 20
-4.627627563382038
 30
0.0
 10
12.22217331592068
 20
-4.606440212170574
 30
0.0
 10
12.28900821242514
 20
-4.581807763201148
 30
0.0
 10
12.35446506982641
 20
-4.554074726249556
 30
0.0
 10
12.41974967233979
 20
-4.526341689297964
 30
0.0
 10
12.48348398086208
 20
-4.495680319252106
 30
0.0
 10
12.54549574050539
 20
-4.462090616111979
 30
0.0
 10
12.6075075001487
 20
-4.428328658083954
 30
0.0
 10
12.66779671091303
 20
-4.391982876737458
 30
0.0
 10
12.72567435324678
 20
-4.352536507408797
 30
0.0
 10
12.78389650535633
 20
-4.313262392968034
 30
0.0
 10
12.84005159881111
 20
-4.271404455208799
 30
0.0
 10
12.89413963361111
 20
-4.226618184355297
 30
0.0
 10
12.94805541352321
 20
-4.182004168389693
 30
0.0
 10
12.99990413478053
 20
-4.134806329105619
 30
0.0
 10
13.04934128760728
 20
-4.085541431166766
 30
0.0
 10
13.09895069532193
 20
-4.036104278340016
 30
0.0
 10
13.14614853460601
 20
-3.984427811970591
 30
0.0
 10
13.19059029568371
 20
-3.930167522282694
 30
0.0
 10
13.23503205676142
 20
-3.876251742370594
 30
0.0
 10
13.27706224940855
 20
-3.820268903803716
 30
0.0
 10
13.31633636384931
 20
-3.762046751694164
 30
0.0
 10
13.35561047829008
 20
-3.703652344696713
 30
0.0
 10
13.39230076941237
 20
-3.643535388820282
 30
0.0
 10
13.4258904725525
 20
-3.581351374289073
 30
0.0
 10
13.45965243058052
 20
-3.519684124421559
 30
0.0
 10
13.49031380062638
 20
-3.45577756101137
 30
0.0
 10
13.51804683757797
 20
-3.390320703610098
 30
0.0
 10
13.54560761964166
 20
-3.325036101096724
 30
0.0
 10
13.57006781372319
 20
-3.258028949704369
 30
0.0
 10
13.59125516493466
 20
-3.189471504320931
 30
0.0
 10
13.61278702592192
 20
-3.12125856871329
 30
0.0
 10
13.63087378915122
 20
-3.050978574450872
 30
0.0
 10
13.64534319973466
 20
-2.98000956063686
 30
0.0
 10
13.65998486520599
 20
-2.908868291934952
 30
0.0
 10
13.67118143291937
 20
-2.836348984129858
 30
0.0
 10
13.67841613821109
 20
-2.762796146997376
 30
0.0
 10
13.6859953532786
 20
-2.689243309864894
 30
0.0
 10
13.68978496081236
 20
-2.614829198292921
 30
0.0
 10
13.68978496081236
 20
-2.539381557393561
 30
0.0
 10
13.68978496081236
 20
-2.463761661606302
 30
0.0
 10
13.6859953532786
 20
-2.389347550034329
 30
0.0
 10
13.67841613821109
 20
-2.315794712901847
 30
0.0
 10
13.67118143291937
 20
-2.242241875769365
 30
0.0
 10
13.65998486520599
 20
-2.169894822852169
 30
0.0
 10
13.64534319973466
 20
-2.098581299262363
 30
0.0
 10
13.63087378915122
 20
-2.027440030560454
 30
0.0
 10
13.61278702592192
 20
-1.95767680096173
 30
0.0
 10
13.59125516493466
 20
-1.88929161046619
 30
0.0
 10
13.57006781372319
 20
-1.820734165082752
 30
0.0
 10
13.54560761964166
 20
-1.753727013690398
 30
0.0
 10
13.51804683757797
 20
-1.688270156289125
 30
0.0
 10
13.49031380062638
 20
-1.622985553775751
 30
0.0
 10
13.45965243058052
 20
-1.559078990365562
 30
0.0
 10
13.4258904725525
 20
-1.49723948561015
 30
0.0
 10
13.39230076941237
 20
-1.435227725966839
 30
0.0
 10
13.35561047829008
 20
-1.37493851520251
 30
0.0
 10
13.31633636384931
 20
-1.316888617980855
 30
0.0
 10
13.27706224940855
 20
-1.258666465871303
 30
0.0
 10
13.23503205676142
 20
-1.202511372416527
 30
0.0
 10
13.19059029568371
 20
-1.148595592504427
 30
0.0
 10
13.14614853460601
 20
-1.09433530281653
 30
0.0
 10
13.09895069532193
 20
-1.042658836447105
 30
0.0
 10
13.04934128760728
 20
-0.9932216836203548
 30
0.0
 10
12.99990413478053
 20
-0.9439567856815027
 30
0.0
 10
12.94805541352321
 20
-0.8967589463974275
 30
0.0
 10
12.89413963361111
 20
-0.8521449304318236
 30
0.0
 10
12.84005159881111
 20
-0.8073586595783216
 30
0.0
 10
12.78389650535633
 20
-0.7655007218190871
 30
0.0
 10
12.72567435324678
 20
-0.7262266073783239
 30
0.0
 10
12.66779671091303
 20
-0.6869524929375607
 30
0.0
 10
12.6075075001487
 20
-0.6504344567031668
 30
0.0
 10
12.54549574050539
 20
-0.6166724986751423
 30
0.0
 10
12.48348398086208
 20
-0.5830827955350157
 30
0.0
 10
12.41974967233979
 20
-0.5524214254891567
 30
0.0
 10
12.35446506982641
 20
-0.5246883885375652
 30
0.0
 10
12.28900821242514
 20
-0.4971276064738717
 30
0.0
 10
12.22217331592068
 20
-0.4724951575044456
 30
0.0
 10
12.15344361564935
 20
-0.4511355514050831
 30
0.0
 10
12.08505842515381
 20
-0.4299482001936187
 30
0.0
 10
12.01512294066718
 20
-0.4118614369643199
 30
0.0
 10
11.94398167196528
 20
-0.3972197714929827
 30
0.0
 10
11.87249589348757
 20
-0.3827503609095436
 30
0.0
 10
11.80032109545827
 20
-0.3717260480840662
 30
0.0
 10
11.72694051321369
 20
-0.3641468330165505
 30
0.0
 10
11.65338767608121
 20
-0.3567398728369328
 30
0.0
 10
11.57862905473344
 20
-0.3527780104152769
 30
0.0
 10
11.50335366872198
 20
-0.3527780104152769
 30
0.0
 10
11.42773377293472
 20
-0.3527780104152769
 30
0.0
 10
11.35331966136274
 20
-0.3567398728369328
 30
0.0
 10
11.27959456934236
 20
-0.3641468330165505
 30
0.0
 10
11.20621398709778
 20
-0.3717260480840662
 30
0.0
 10
11.13369467929269
 20
-0.3827503609095436
 30
0.0
 10
11.06255341059078
 20
-0.3972197714929827
 30
0.0
 10
10.99141214188887
 20
-0.4118614369643199
 30
0.0
 10
10.92147665740225
 20
-0.4299482001936187
 30
0.0
 10
10.85309146690671
 20
-0.4511355514050831
 30
0.0
 10
10.78470627641117
 20
-0.4724951575044456
 30
0.0
 10
10.71769912501881
 20
-0.4971276064738717
 30
0.0
 10
10.65207001272964
 20
-0.5246883885375652
 30
0.0
 10
10.58661315532837
 20
-0.5524214254891567
 30
0.0
 10
10.52287884680608
 20
-0.5830827955350157
 30
0.0
 10
10.46103934205067
 20
-0.6166724986751423
 30
0.0
 10
10.39902758240736
 20
-0.6504344567031668
 30
0.0
 10
10.33891062653093
 20
-0.6869524929375607
 30
0.0
 10
10.28068847442137
 20
-0.7262266073783239
 30
0.0
 10
10.22246632231182
 20
-0.7655007218190871
 30
0.0
 10
10.16631122885704
 20
-0.8073586595783216
 30
0.0
 10
10.11222319405705
 20
-0.8521449304318236
 30
0.0
 10
10.05830741414495
 20
-0.8967589463974275
 30
0.0
 10
10.00645869288762
 20
-0.9439567856815027
 30
0.0
 10
9.956849285172973
 20
-0.9932216836203548
 30
0.0
 10
9.90775664212202
 20
-1.042658836447105
 30
0.0
 10
9.860386547950046
 20
-1.09433530281653
 30
0.0
 10
9.815944786872342
 20
-1.148595592504427
 30
0.0
 10
9.771503025794635
 20
-1.202511372416527
 30
0.0
 10
9.729472833147502
 20
-1.258666465871303
 30
0.0
 10
9.69002646381884
 20
-1.316888617980855
 30
0.0
 10
9.650752349378077
 20
-1.37493851520251
 30
0.0
 10
9.614406568031582
 20
-1.435227725966839
 30
0.0
 10
9.580644610003558
 20
-1.49723948561015
 30
0.0
 10
9.546882651975533
 20
-1.559078990365562
 30
0.0
 10
9.516221281929674
 20
-1.622985553775751
 30
0.0
 10
9.488660499865981
 20
-1.688270156289125
 30
0.0
 10
9.460755208026491
 20
-1.753727013690398
 30
0.0
 10
9.436295013944962
 20
-1.820734165082752
 30
0.0
 10
9.4149354078456
 20
-1.88929161046619
 30
0.0
 10
9.393575801746238
 20
-1.95767680096173
 30
0.0
 10
9.375661293404837
 20
-2.027440030560454
 30
0.0
 10
9.3610196279335
 20
-2.098581299262363
 30
0.0
 10
9.346377962462162
 20
-2.169894822852169
 30
0.0
 10
9.335525904524584
 20
-2.242241875769365
 30
0.0
 10
9.327946689457068
 20
-2.315794712901847
 30
0.0
 10
9.32053972927745
 20
-2.389347550034329
 30
0.0
 10
9.316577866855795
 20
-2.463761661606302
 30
0.0
 10
9.316577866855795
 20
-2.539381557393561
 30
0.0
  0
INSERT
  5
4F
330
3C
100
AcDbEntity
  8
CALQUE_1
 62
   250
100
AcDbBlockReference
  2
*U3
 10
0.0
 20
0.0
 30
0.0
1001
ACAD
1002
{
1000
R14_HATCH_DATA
1000
4F
1011
1.0
1021
0.0
1031
0.0
1011
0.0
1021
1.0
1031
0.0
1011
0.0
1021
0.0
1031
1.0
1040
0.0
1010
0.0
1020
0.0
1030
1.0
1000
SOLID
1070
     1
1070
     1
1071
        1
1071
        1
1071
        1
1070
     4
1070
     3
1070
     0
1070
     1
1071
      197
1071
      193
1040
0.0
1040
0.0
1040
0.0
1040
0.0
1040
1.0
1040
1.0
1040
1.0
1040
2.0
1040
2.0
1040
2.0
1040
3.0
1040
3.0
1040
3.0
1040
4.0
1040
4.0
1040
4.0
1040
5.0
1040
5.0
1040
5.0
1040
6.0
1040
6.0
1040
6.0
1040
7.0
1040
7.0
1040
7.0
1040
8.0
1040
8.0
1040
8.0
1040
9.0
1040
9.0
1040
9.0
1040
10.0
1040
10.0
1040
10.0
1040
11.0
1040
11.0
1040
11.0
1040
12.0
1040
12.0
1040
12.0
1040
13.0
1040
13.0
1040
13.0
1040
14.0
1040
14.0
1040
14.0
1040
15.0
1040
15.0
1040
15.0
1040
16.0
1040
16.0
1040
16.0
1040
17.0
1040
17.0
1040
17.0
1040
18.0
1040
18.0
1040
18.0
1040
19.0
1040
19.0
1040
19.0
1040
20.0
1040
20.0
1040
20.0
1040
21.0
1040
21.0
1040
21.0
1040
22.0
1040
22.0
1040
22.0
1040
23.0
1040
23.0
1040
23.0
1040
24.0
1040
24.0
1040
24.0
1040
25.0
1040
25.0
1040
25.0
1040
26.0
1040
26.0
1040
26.0
1040
27.0
1040
27.0
1040
27.0
1040
28.0
1040
28.0
1040
28.0
1040
29.0
1040
29.0
1040
29.0
1040
30.0
1040
30.0
1040
30.0
1040
31.0
1040
31.0
1040
31.0
1040
32.0
1040
32.0
1040
32.0
1040
33.0
1040
33.0
1040
33.0
1040
34.0
1040
34.0
1040
34.0
1040
35.0
1040
35.0
1040
35.0
1040
36.0
1040
36.0
1040
36.0
1040
37.0
1040
37.0
1040
37.0
1040
38.0
1040
38.0
1040
38.0
1040
39.0
1040
39.0
1040
39.0
1040
40.0
1040
40.0
1040
40.0
1040
41.0
1040
41.0
1040
41.0
1040
42.0
1040
42.0
1040
42.0
1040
43.0
1040
43.0
1040
43.0
1040
44.0
1040
44.0
1040
44.0
1040
45.0
1040
45.0
1040
45.0
1040
46.0
1040
46.0
1040
46.0
1040
47.0
1040
47.0
1040
47.0
1040
48.0
1040
48.0
1040
48.0
1040
49.0
1040
49.0
1040
49.0
1040
50.0
1040
50.0
1040
50.0
1040
51.0
1040
51.0
1040
51.0
1040
52.0
1040
52.0
1040
52.0
1040
53.0
1040
53.0
1040
53.0
1040
54.0
1040
54.0
1040
54.0
1040
55.0
1040
55.0
1040
55.0
1040
56.0
1040
56.0
1040
56.0
1040
57.0
1040
57.0
1040
57.0
1040
58.0
1040
58.0
1040
58.0
1040
59.0
1040
59.0
1040
59.0
1040
60.0
1040
60.0
1040
60.0
1040
61.0
1040
61.0
1040
61.0
1040
62.0
1040
62.0
1040
62.0
1040
63.0
1040
63.0
1040
63.0
1040
64.0
1040
64.0
1040
64.0
1040
64.0
1040
9.316577866855795
1040
-2.539381557393561
1040
9.316577866855795
1040
-2.614829198292921
1040
9.32053972927745
1040
-2.689243309864894
1040
9.327946689457068
1040
-2.762796146997376
1040
9.335525904524584
1040
-2.836348984129858
1040
9.346377962462162
1040
-2.908868291934952
1040
9.3610196279335
1040
-2.98000956063686
1040
9.375661293404837
1040
-3.050978574450872
1040
9.393575801746238
1040
-3.12125856871329
1040
9.4149354078456
1040
-3.189471504320931
1040
9.436295013944962
1040
-3.258028949704369
1040
9.460755208026491
1040
-3.325036101096724
1040
9.488660499865981
1040
-3.390320703610098
1040
9.516221281929674
1040
-3.45577756101137
1040
9.546882651975533
1040
-3.519684124421559
1040
9.580644610003558
1040
-3.581351374289073
1040
9.614406568031582
1040
-3.643535388820282
1040
9.650752349378077
1040
-3.703652344696713
1040
9.69002646381884
1040
-3.762046751694164
1040
9.729472833147502
1040
-3.820268903803716
1040
9.771503025794635
1040
-3.876251742370594
1040
9.815944786872342
1040
-3.930167522282694
1040
9.860386547950046
1040
-3.984427811970591
1040
9.90775664212202
1040
-4.036104278340016
1040
9.956849285172973
1040
-4.085541431166766
1040
10.00645869288762
1040
-4.134806329105619
1040
10.05830741414495
1040
-4.182004168389693
1040
10.11222319405705
1040
-4.226618184355297
1040
10.16631122885704
1040
-4.271404455208799
1040
10.22246632231182
1040
-4.313262392968034
1040
10.28068847442137
1040
-4.352536507408797
1040
10.33891062653093
1040
-4.391982876737458
1040
10.39902758240736
1040
-4.428328658083954
1040
10.46103934205067
1040
-4.462090616111979
1040
10.52287884680608
1040
-4.495680319252106
1040
10.58661315532837
1040
-4.526341689297964
1040
10.65207001272964
1040
-4.554074726249556
1040
10.71769912501881
1040
-4.581807763201148
1040
10.78470627641117
1040
-4.606440212170574
1040
10.85309146690671
1040
-4.627627563382038
1040
10.92147665740225
1040
-4.648814914593502
1040
10.99141214188887
1040
-4.667073932710699
1040
11.06255341059078
1040
-4.681543343294138
1040
11.13369467929269
1040
-4.696185008765475
1040
11.20621398709778
1040
-4.707037066703055
1040
11.27959456934236
1040
-4.714616281770571
1040
11.35331966136274
1040
-4.722023241950188
1040
11.42773377293472
1040
-4.725985104371844
1040
11.50335366872198
1040
-4.725985104371844
1040
11.57862905473344
1040
-4.725985104371844
1040
11.65338767608121
1040
-4.722023241950188
1040
11.72694051321369
1040
-4.714616281770571
1040
11.80032109545827
1040
-4.707037066703055
1040
11.87249589348757
1040
-4.696185008765475
1040
11.94398167196528
1040
-4.681543343294138
1040
12.01512294066718
1040
-4.667073932710699
1040
12.08505842515381
1040
-4.648814914593502
1040
12.15344361564935
1040
-4.627627563382038
1040
12.22217331592068
1040
-4.606440212170574
1040
12.28900821242514
1040
-4.581807763201148
1040
12.35446506982641
1040
-4.554074726249556
1040
12.41974967233979
1040
-4.526341689297964
1040
12.48348398086208
1040
-4.495680319252106
1040
12.54549574050539
1040
-4.462090616111979
1040
12.6075075001487
1040
-4.428328658083954
1040
12.66779671091303
1040
-4.391982876737458
1040
12.72567435324678
1040
-4.352536507408797
1040
12.78389650535633
1040
-4.313262392968034
1040
12.84005159881111
1040
-4.271404455208799
1040
12.89413963361111
1040
-4.226618184355297
1040
12.94805541352321
1040
-4.182004168389693
1040
12.99990413478053
1040
-4.134806329105619
1040
13.04934128760728
1040
-4.085541431166766
1040
13.09895069532193
1040
-4.036104278340016
1040
13.14614853460601
1040
-3.984427811970591
1040
13.19059029568371
1040
-3.930167522282694
1040
13.23503205676142
1040
-3.876251742370594
1040
13.27706224940855
1040
-3.820268903803716
1040
13.31633636384931
1040
-3.762046751694164
1040
13.35561047829008
1040
-3.703652344696713
1040
13.39230076941237
1040
-3.643535388820282
1040
13.4258904725525
1040
-3.581351374289073
1040
13.45965243058052
1040
-3.519684124421559
1040
13.49031380062638
1040
-3.45577756101137
1040
13.51804683757797
1040
-3.390320703610098
1040
13.54560761964166
1040
-3.325036101096724
1040
13.57006781372319
1040
-3.258028949704369
1040
13.59125516493466
1040
-3.189471504320931
1040
13.61278702592192
1040
-3.12125856871329
1040
13.63087378915122
1040
-3.050978574450872
1040
13.64534319973466
1040
-2.98000956063686
1040
13.65998486520599
1040
-2.908868291934952
1040
13.67118143291937
1040
-2.836348984129858
1040
13.67841613821109
1040
-2.762796146997376
1040
13.6859953532786
1040
-2.689243309864894
1040
13.68978496081236
1040
-2.614829198292921
1040
13.68978496081236
1040
-2.539381557393561
1040
13.68978496081236
1040
-2.463761661606302
1040
13.6859953532786
1040
-2.389347550034329
1040
13.67841613821109
1040
-2.315794712901847
1040
13.67118143291937
1040
-2.242241875769365
1040
13.65998486520599
1040
-2.169894822852169
1040
13.64534319973466
1040
-2.098581299262363
1040
13.63087378915122
1040
-2.027440030560454
1040
13.61278702592192
1040
-1.95767680096173
1040
13.59125516493466
1040
-1.88929161046619
1040
13.57006781372319
1040
-1.820734165082752
1040
13.54560761964166
1040
-1.753727013690398
1040
13.51804683757797
1040
-1.688270156289125
1040
13.49031380062638
1040
-1.622985553775751
1040
13.45965243058052
1040
-1.559078990365562
1040
13.4258904725525
1040
-1.49723948561015
1040
13.39230076941237
1040
-1.435227725966839
1040
13.35561047829008
1040
-1.37493851520251
1040
13.31633636384931
1040
-1.316888617980855
1040
13.27706224940855
1040
-1.258666465871303
1040
13.23503205676142
1040
-1.202511372416527
1040
13.19059029568371
1040
-1.148595592504427
1040
13.14614853460601
1040
-1.09433530281653
1040
13.09895069532193
1040
-1.042658836447105
1040
13.04934128760728
1040
-0.9932216836203548
1040
12.99990413478053
1040
-0.9439567856815027
1040
12.94805541352321
1040
-0.8967589463974275
1040
12.89413963361111
1040
-0.8521449304318236
1040
12.84005159881111
1040
-0.8073586595783216
1040
12.78389650535633
1040
-0.7655007218190871
1040
12.72567435324678
1040
-0.7262266073783239
1040
12.66779671091303
1040
-0.6869524929375607
1040
12.6075075001487
1040
-0.6504344567031668
1040
12.54549574050539
1040
-0.6166724986751423
1040
12.48348398086208
1040
-0.5830827955350157
1040
12.41974967233979
1040
-0.5524214254891567
1040
12.35446506982641
1040
-0.5246883885375652
1040
12.28900821242514
1040
-0.4971276064738717
1040
12.22217331592068
1040
-0.4724951575044456
1040
12.15344361564935
1040
-0.4511355514050831
1040
12.08505842515381
1040
-0.4299482001936187
1040
12.01512294066718
1040
-0.4118614369643199
1040
11.94398167196528
1040
-0.3972197714929827
1040
11.87249589348757
1040
-0.3827503609095436
1040
11.80032109545827
1040
-0.3717260480840662
1040
11.72694051321369
1040
-0.3641468330165505
1040
11.65338767608121
1040
-0.3567398728369328
1040
11.57862905473344
1040
-0.3527780104152769
1040
11.50335366872198
1040
-0.3527780104152769
1040
11.42773377293472
1040
-0.3527780104152769
1040
11.35331966136274
1040
-0.3567398728369328
1040
11.27959456934236
1040
-0.3641468330165505
1040
11.20621398709778
1040
-0.3717260480840662
1040
11.13369467929269
1040
-0.3827503609095436
1040
11.06255341059078
1040
-0.3972197714929827
1040
10.99141214188887
1040
-0.4118614369643199
1040
10.92147665740225
1040
-0.4299482001936187
1040
10.85309146690671
1040
-0.4511355514050831
1040
10.78470627641117
1040
-0.4724951575044456
1040
10.71769912501881
1040
-0.4971276064738717
1040
10.65207001272964
1040
-0.5246883885375652
1040
10.58661315532837
1040
-0.5524214254891567
1040
10.52287884680608
1040
-0.5830827955350157
1040
10.46103934205067
1040
-0.6166724986751423
1040
10.39902758240736
1040
-0.6504344567031668
1040
10.33891062653093
1040
-0.6869524929375607
1040
10.28068847442137
1040
-0.7262266073783239
1040
10.22246632231182
1040
-0.7655007218190871
1040
10.16631122885704
1040
-0.8073586595783216
1040
10.11222319405705
1040
-0.8521449304318236
1040
10.05830741414495
1040
-0.8967589463974275
1040
10.00645869288762
1040
-0.9439567856815027
1040
9.956849285172973
1040
-0.9932216836203548
1040
9.90775664212202
1040
-1.042658836447105
1040
9.860386547950046
1040
-1.09433530281653
1040
9.815944786872342
1040
-1.148595592504427
1040
9.771503025794635
1040
-1.202511372416527
1040
9.729472833147502
1040
-1.258666465871303
1040
9.69002646381884
1040
-1.316888617980855
1040
9.650752349378077
1040
-1.37493851520251
1040
9.614406568031582
1040
-1.435227725966839
1040
9.580644610003558
1040
-1.49723948561015
1040
9.546882651975533
1040
-1.559078990365562
1040
9.516221281929674
1040
-1.622985553775751
1040
9.488660499865981
1040
-1.688270156289125
1040
9.460755208026491
1040
-1.753727013690398
1040
9.436295013944962
1040
-1.820734165082752
1040
9.4149354078456
1040
-1.88929161046619
1040
9.393575801746238
1040
-1.95767680096173
1040
9.375661293404837
1040
-2.027440030560454
1040
9.3610196279335
1040
-2.098581299262363
1040
9.346377962462162
1040
-2.169894822852169
1040
9.335525904524584
1040
-2.242241875769365
1040
9.327946689457068
1040
-2.315794712901847
1040
9.32053972927745
1040
-2.389347550034329
1040
9.316577866855795
1040
-2.463761661606302
1040
9.316577866855795
1040
-2.539381557393561
1071
        0
1070
     2
1070
     1
1071
        0
1002
}
  0
SPLINE
  5
50
330
3C
100
AcDbEntity
  8
CALQUE_1
100
AcDbSpline
210
0.0
220
0.0
230
1.0
 70
    11
 71
     3
 72
   197
 73
   193
 74
     0
 42
0.0000000001
 43
0.0000000001
 40
0.0
 40
0.0
 40
0.0
 40
0.0
 40
1.0
 40
1.0
 40
1.0
 40
2.0
 40
2.0
 40
2.0
 40
3.0
 40
3.0
 40
3.0
 40
4.0
 40
4.0
 40
4.0
 40
5.0
 40
5.0
 40
5.0
 40
6.0
 40
6.0
 40
6.0
 40
7.0
 40
7.0
 40
7.0
 40
8.0
 40
8.0
 40
8.0
 40
9.0
 40
9.0
 40
9.0
 40
10.0
 40
10.0
 40
10.0
 40
11.0
 40
11.0
 40
11.0
 40
12.0
 40
12.0
 40
12.0
 40
13.0
 40
13.0
 40
13.0
 40
14.0
 40
14.0
 40
14.0
 40
15.0
 40
15.0
 40
15.0
 40
16.0
 40
16.0
 40
16.0
 40
17.0
 40
17.0
 40
17.0
 40
18.0
 40
18.0
 40
18.0
 40
19.0
 40
19.0
 40
19.0
 40
20.0
 40
20.0
 40
20.0
 40
21.0
 40
21.0
 40
21.0
 40
22.0
 40
22.0
 40
22.0
 40
23.0
 40
23.0
 40
23.0
 40
24.0
 40
24.0
 40
24.0
 40
25.0
 40
25.0
 40
25.0
 40
26.0
 40
26.0
 40
26.0
 40
27.0
 40
27.0
 40
27.0
 40
28.0
 40
28.0
 40
28.0
 40
29.0
 40
29.0
 40
29.0
 40
30.0
 40
30.0
 40
30.0
 40
31.0
 40
31.0
 40
31.0
 40
32.0
 40
32.0
 40
32.0
 40
33.0
 40
33.0
 40
33.0
 40
34.0
 40
34.0
 40
34.0
 40
35.0
 40
35.0
 40
35.0
 40
36.0
 40
36.0
 40
36.0
 40
37.0
 40
37.0
 40
37.0
 40
38.0
 40
38.0
 40
38.0
 40
39.0
 40
39.0
 40
39.0
 40
40.0
 40
40.0
 40
40.0
 40
41.0
 40
41.0
 40
41.0
 40
42.0
 40
42.0
 40
42.0
 40
43.0
 40
43.0
 40
43.0
 40
44.0
 40
44.0
 40
44.0
 40
45.0
 40
45.0
 40
45.0
 40
46.0
 40
46.0
 40
46.0
 40
47.0
 40
47.0
 40
47.0
 40
48.0
 40
48.0
 40
48.0
 40
49.0
 40
49.0
 40
49.0
 40
50.0
 40
50.0
 40
50.0
 40
51.0
 40
51.0
 40
51.0
 40
52.0
 40
52.0
 40
52.0
 40
53.0
 40
53.0
 40
53.0
 40
54.0
 40
54.0
 40
54.0
 40
55.0
 40
55.0
 40
55.0
 40
56.0
 40
56.0
 40
56.0
 40
57.0
 40
57.0
 40
57.0
 40
58.0
 40
58.0
 40
58.0
 40
59.0
 40
59.0
 40
59.0
 40
60.0
 40
60.0
 40
60.0
 40
61.0
 40
61.0
 40
61.0
 40
62.0
 40
62.0
 40
62.0
 40
63.0
 40
63.0
 40
63.0
 40
64.0
 40
64.0
 40
64.0
 40
64.0
 10
4.584391586519619
 20
-2.539381557393561
 30
0.0
 10
4.584391586519619
 20
-2.614829198292921
 30
0.0
 10
4.588181194053377
 20
-2.689243309864894
 30
0.0
 10
4.595415899345096
 20
-2.762796146997376
 30
0.0
 10
4.602995114412612
 20
-2.836348984129858
 30
0.0
 10
4.614019427238089
 20
-2.908868291934952
 30
0.0
 10
4.628661092709427
 20
-2.98000956063686
 30
0.0
 10
4.643130503292865
 20
-3.050978574450872
 30
0.0
 10
4.661217266522164
 20
-3.12125856871329
 30
0.0
 10
4.682576872621527
 20
-3.189471504320931
 30
0.0
 10
4.703764223832992
 20
-3.258028949704369
 30
0.0
 10
4.728568927690316
 20
-3.325036101096724
 30
0.0
 10
4.756129709754009
 20
-3.390320703610098
 30
0.0
 10
4.783862746705601
 20
-3.45577756101137
 30
0.0
 10
4.81452411675146
 20
-3.519684124421559
 30
0.0
 10
4.848286074779484
 20
-3.581351374289073
 30
0.0
 10
4.881703523031713
 20
-3.643535388820282
 30
0.0
 10
4.918221559266106
 20
-3.703652344696713
 30
0.0
 10
4.957667928594768
 20
-3.762046751694164
 30
0.0
 10
4.996942043035531
 20
-3.820268903803716
 30
0.0
 10
5.038972235682664
 20
-3.876251742370594
 30
0.0
 10
5.083586251648268
 20
-3.930167522282694
 30
0.0
 10
5.128028012725974
 20
-3.984427811970591
 30
0.0
 10
5.17505359712215
 20
-4.036104278340016
 30
0.0
 10
5.224663004836799
 20
-4.085541431166766
 30
0.0
 10
5.274100157663549
 20
-4.134806329105619
 30
0.0
 10
5.325948878920872
 20
-4.182004168389693
 30
0.0
 10
5.380036913720871
 20
-4.226618184355297
 30
0.0
 10
5.433780438745073
 20
-4.271404455208799
 30
0.0
 10
5.489935532199849
 20
-4.313262392968034
 30
0.0
 10
5.548329939197299
 20
-4.352536507408797
 30
0.0
 10
5.606379836418954
 20
-4.391982876737458
 30
0.0
 10
5.666669047183284
 20
-4.428328658083954
 30
0.0
 10
5.728508551938695
 20
-4.462090616111979
 30
0.0
 10
5.790692566469904
 20
-4.495680319252106
 30
0.0
 10
5.854254620104297
 20
-4.526341689297964
 30
0.0
 10
5.91971147750557
 20
-4.554074726249556
 30
0.0
 10
5.984996080018943
 20
-4.581807763201148
 30
0.0
 10
6.052003231411298
 20
-4.606440212170574
 30
0.0
 10
6.120732931682634
 20
-4.627627563382038
 30
0.0
 10
6.188945867290276
 20
-4.648814914593502
 30
0.0
 10
6.259053606664795
 20
-4.667073932710699
 30
0.0
 10
6.330194875366704
 20
-4.681543343294138
 30
0.0
 10
6.401336144068614
 20
-4.696185008765475
 30
0.0
 10
6.473855451873707
 20
-4.707037066703055
 30
0.0
 10
6.547236034118291
 20
-4.714616281770571
 30
0.0
 10
6.620788871250773
 20
-4.722023241950188
 30
0.0
 10
6.695375237710643
 20
-4.725985104371844
 30
0.0
 10
6.770822878610004
 20
-4.725985104371844
 30
0.0
 10
6.846270519509366
 20
-4.725985104371844
 30
0.0
 10
6.920856885969236
 20
-4.722023241950188
 30
0.0
 10
6.994409723101718
 20
-4.714616281770571
 30
0.0
 10
7.067790305346302
 20
-4.707037066703055
 30
0.0
 10
7.140309613151396
 20
-4.696185008765475
 30
0.0
 10
7.211450881853304
 20
-4.681543343294138
 30
0.0
 10
7.282764405443111
 20
-4.667073932710699
 30
0.0
 10
7.352527635041835
 20
-4.648814914593502
 30
0.0
 10
7.421085080425273
 20
-4.627627563382038
 30
0.0
 10
7.489470270920813
 20
-4.606440212170574
 30
0.0
 10
7.556477422313168
 20
-4.581807763201148
 30
0.0
 10
7.62193427971444
 20
-4.554074726249556
 30
0.0
 10
7.687391137115712
 20
-4.526341689297964
 30
0.0
 10
7.751125445638003
 20
-4.495680319252106
 30
0.0
 10
7.813137205281313
 20
-4.462090616111979
 30
0.0
 10
7.874976710036726
 20
-4.428328658083954
 30
0.0
 10
7.935265920801055
 20
-4.391982876737458
 30
0.0
 10
7.993488072910607
 20
-4.352536507408797
 30
0.0
 10
8.05171022502016
 20
-4.313262392968034
 30
0.0
 10
8.107693063587037
 20
-4.271404455208799
 30
0.0
 10
8.161781098387037
 20
-4.226618184355297
 30
0.0
 10
8.215696878299136
 20
-4.182004168389693
 30
0.0
 10
8.267373344668561
 20
-4.134806329105619
 30
0.0
 10
8.31698275238321
 20
-4.085541431166766
 30
0.0
 10
8.36641990520996
 20
-4.036104278340016
 30
0.0
 10
8.413617744494035
 20
-3.984427811970591
 30
0.0
 10
8.458059505571741
 20
-3.930167522282694
 30
0.0
 10
8.502673521537345
 20
-3.876251742370594
 30
0.0
 10
8.544703714184477
 20
-3.820268903803716
 30
0.0
 10
8.58397782862524
 20
-3.762046751694164
 30
0.0
 10
8.623424197953902
 20
-3.703652344696713
 30
0.0
 10
8.659769979300398
 20
-3.643535388820282
 30
0.0
 10
8.693531937328423
 20
-3.581351374289073
 30
0.0
 10
8.727293895356448
 20
-3.519684124421559
 30
0.0
 10
8.757955265402307
 20
-3.45577756101137
 30
0.0
 10
8.785516047466
 20
-3.390320703610098
 30
0.0
 10
8.81342133930549
 20
-3.325036101096724
 30
0.0
 10
8.837881533387018
 20
-3.258028949704369
 30
0.0
 10
8.85924113948638
 20
-3.189471504320931
 30
0.0
 10
8.880428490697845
 20
-3.12125856871329
 30
0.0
 10
8.898342999039246
 20
-3.050978574450872
 30
0.0
 10
8.912984664510581
 20
-2.98000956063686
 30
0.0
 10
8.92745407509402
 20
-2.908868291934952
 30
0.0
 10
8.938650642807398
 20
-2.836348984129858
 30
0.0
 10
8.946229857874913
 20
-2.762796146997376
 30
0.0
 10
8.953464563166632
 20
-2.689243309864894
 30
0.0
 10
8.957426425588288
 20
-2.614829198292921
 30
0.0
 10
8.957426425588288
 20
-2.539381557393561
 30
0.0
 10
8.957426425588288
 20
-2.463761661606302
 30
0.0
 10
8.953464563166632
 20
-2.389347550034329
 30
0.0
 10
8.946229857874913
 20
-2.315794712901847
 30
0.0
 10
8.938650642807398
 20
-2.242241875769365
 30
0.0
 10
8.92745407509402
 20
-2.169894822852169
 30
0.0
 10
8.912984664510581
 20
-2.098581299262363
 30
0.0
 10
8.898342999039246
 20
-2.027440030560454
 30
0.0
 10
8.880428490697845
 20
-1.95767680096173
 30
0.0
 10
8.85924113948638
 20
-1.88929161046619
 30
0.0
 10
8.837881533387018
 20
-1.820734165082752
 30
0.0
 10
8.81342133930549
 20
-1.753727013690398
 30
0.0
 10
8.785516047466
 20
-1.688270156289125
 30
0.0
 10
8.757955265402307
 20
-1.622985553775751
 30
0.0
 10
8.727293895356448
 20
-1.559078990365562
 30
0.0
 10
8.693531937328423
 20
-1.49723948561015
 30
0.0
 10
8.659769979300398
 20
-1.435227725966839
 30
0.0
 10
8.623424197953902
 20
-1.37493851520251
 30
0.0
 10
8.58397782862524
 20
-1.316888617980855
 30
0.0
 10
8.544703714184477
 20
-1.258666465871303
 30
0.0
 10
8.502673521537345
 20
-1.202511372416527
 30
0.0
 10
8.458059505571741
 20
-1.148595592504427
 30
0.0
 10
8.413617744494035
 20
-1.09433530281653
 30
0.0
 10
8.36641990520996
 20
-1.042658836447105
 30
0.0
 10
8.31698275238321
 20
-0.9932216836203548
 30
0.0
 10
8.267373344668561
 20
-0.9439567856815027
 30
0.0
 10
8.215696878299136
 20
-0.8967589463974275
 30
0.0
 10
8.161781098387037
 20
-0.8521449304318236
 30
0.0
 10
8.107693063587037
 20
-0.8073586595783216
 30
0.0
 10
8.05171022502016
 20
-0.7655007218190871
 30
0.0
 10
7.993488072910607
 20
-0.7262266073783239
 30
0.0
 10
7.935265920801055
 20
-0.6869524929375607
 30
0.0
 10
7.874976710036726
 20
-0.6504344567031668
 30
0.0
 10
7.813137205281313
 20
-0.6166724986751423
 30
0.0
 10
7.751125445638003
 20
-0.5830827955350157
 30
0.0
 10
7.687391137115712
 20
-0.5524214254891567
 30
0.0
 10
7.62193427971444
 20
-0.5246883885375652
 30
0.0
 10
7.556477422313168
 20
-0.4971276064738717
 30
0.0
 10
7.489470270920813
 20
-0.4724951575044456
 30
0.0
 10
7.421085080425273
 20
-0.4511355514050831
 30
0.0
 10
7.352527635041835
 20
-0.4299482001936187
 30
0.0
 10
7.282764405443111
 20
-0.4118614369643199
 30
0.0
 10
7.211450881853304
 20
-0.3972197714929827
 30
0.0
 10
7.140309613151396
 20
-0.3827503609095436
 30
0.0
 10
7.067790305346302
 20
-0.3717260480840662
 30
0.0
 10
6.994409723101718
 20
-0.3641468330165505
 30
0.0
 10
6.920856885969236
 20
-0.3567398728369328
 30
0.0
 10
6.846270519509366
 20
-0.3527780104152769
 30
0.0
 10
6.770822878610004
 20
-0.3527780104152769
 30
0.0
 10
6.695375237710643
 20
-0.3527780104152769
 30
0.0
 10
6.620788871250773
 20
-0.3567398728369328
 30
0.0
 10
6.547236034118291
 20
-0.3641468330165505
 30
0.0
 10
6.473855451873707
 20
-0.3717260480840662
 30
0.0
 10
6.401336144068614
 20
-0.3827503609095436
 30
0.0
 10
6.330194875366704
 20
-0.3972197714929827
 30
0.0
 10
6.259053606664795
 20
-0.4118614369643199
 30
0.0
 10
6.188945867290276
 20
-0.4299482001936187
 30
0.0
 10
6.120732931682634
 20
-0.4511355514050831
 30
0.0
 10
6.052003231411298
 20
-0.4724951575044456
 30
0.0
 10
5.984996080018943
 20
-0.4971276064738717
 30
0.0
 10
5.91971147750557
 20
-0.5246883885375652
 30
0.0
 10
5.854254620104297
 20
-0.5524214254891567
 30
0.0
 10
5.790692566469904
 20
-0.5830827955350157
 30
0.0
 10
5.728508551938695
 20
-0.6166724986751423
 30
0.0
 10
5.666669047183284
 20
-0.6504344567031668
 30
0.0
 10
5.606379836418954
 20
-0.6869524929375607
 30
0.0
 10
5.548329939197299
 20
-0.7262266073783239
 30
0.0
 10
5.489935532199849
 20
-0.7655007218190871
 30
0.0
 10
5.433780438745073
 20
-0.8073586595783216
 30
0.0
 10
5.380036913720871
 20
-0.8521449304318236
 30
0.0
 10
5.325948878920872
 20
-0.8967589463974275
 30
0.0
 10
5.274100157663549
 20
-0.9439567856815027
 30
0.0
 10
5.224663004836799
 20
-0.9932216836203548
 30
0.0
 10
5.17505359712215
 20
-1.042658836447105
 30
0.0
 10
5.128028012725974
 20
-1.09433530281653
 30
0.0
 10
5.083586251648268
 20
-1.148595592504427
 30
0.0
 10
5.038972235682664
 20
-1.202511372416527
 30
0.0
 10
4.996942043035531
 20
-1.258666465871303
 30
0.0
 10
4.957667928594768
 20
-1.316888617980855
 30
0.0
 10
4.918221559266106
 20
-1.37493851520251
 30
0.0
 10
4.881703523031713
 20
-1.435227725966839
 30
0.0
 10
4.848286074779484
 20
-1.49723948561015
 30
0.0
 10
4.81452411675146
 20
-1.559078990365562
 30
0.0
 10
4.783862746705601
 20
-1.622985553775751
 30
0.0
 10
4.756129709754009
 20
-1.688270156289125
 30
0.0
 10
4.728568927690316
 20
-1.753727013690398
 30
0.0
 10
4.703764223832992
 20
-1.820734165082752
 30
0.0
 10
4.682576872621527
 20
-1.88929161046619
 30
0.0
 10
4.661217266522164
 20
-1.95767680096173
 30
0.0
 10
4.643130503292865
 20
-2.027440030560454
 30
0.0
 10
4.628661092709427
 20
-2.098581299262363
 30
0.0
 10
4.614019427238089
 20
-2.169894822852169
 30
0.0
 10
4.602995114412612
 20
-2.242241875769365
 30
0.0
 10
4.595415899345096
 20
-2.315794712901847
 30
0.0
 10
4.588181194053377
 20
-2.389347550034329
 30
0.0
 10
4.584391586519619
 20
-2.463761661606302
 30
0.0
 10
4.584391586519619
 20
-2.539381557393561
 30
0.0
  0
INSERT
  5
51
330
3C
100
AcDbEntity
  8
CALQUE_1
 62
   250
100
AcDbBlockReference
  2
*U4
 10
0.0
 20
0.0
 30
0.0
1001
ACAD
1002
{
1000
R14_HATCH_DATA
1000
51
1011
1.0
1021
0.0
1031
0.0
1011
0.0
1021
1.0
1031
0.0
1011
0.0
1021
0.0
1031
1.0
1040
0.0
1010
0.0
1020
0.0
1030
1.0
1000
SOLID
1070
     1
1070
     1
1071
        1
1071
        1
1071
        1
1070
     4
1070
     3
1070
     0
1070
     1
1071
      197
1071
      193
1040
0.0
1040
0.0
1040
0.0
1040
0.0
1040
1.0
1040
1.0
1040
1.0
1040
2.0
1040
2.0
1040
2.0
1040
3.0
1040
3.0
1040
3.0
1040
4.0
1040
4.0
1040
4.0
1040
5.0
1040
5.0
1040
5.0
1040
6.0
1040
6.0
1040
6.0
1040
7.0
1040
7.0
1040
7.0
1040
8.0
1040
8.0
1040
8.0
1040
9.0
1040
9.0
1040
9.0
1040
10.0
1040
10.0
1040
10.0
1040
11.0
1040
11.0
1040
11.0
1040
12.0
1040
12.0
1040
12.0
1040
13.0
1040
13.0
1040
13.0
1040
14.0
1040
14.0
1040
14.0
1040
15.0
1040
15.0
1040
15.0
1040
16.0
1040
16.0
1040
16.0
1040
17.0
1040
17.0
1040
17.0
1040
18.0
1040
18.0
1040
18.0
1040
19.0
1040
19.0
1040
19.0
1040
20.0
1040
20.0
1040
20.0
1040
21.0
1040
21.0
1040
21.0
1040
22.0
1040
22.0
1040
22.0
1040
23.0
1040
23.0
1040
23.0
1040
24.0
1040
24.0
1040
24.0
1040
25.0
1040
25.0
1040
25.0
1040
26.0
1040
26.0
1040
26.0
1040
27.0
1040
27.0
1040
27.0
1040
28.0
1040
28.0
1040
28.0
1040
29.0
1040
29.0
1040
29.0
1040
30.0
1040
30.0
1040
30.0
1040
31.0
1040
31.0
1040
31.0
1040
32.0
1040
32.0
1040
32.0
1040
33.0
1040
33.0
1040
33.0
1040
34.0
1040
34.0
1040
34.0
1040
35.0
1040
35.0
1040
35.0
1040
36.0
1040
36.0
1040
36.0
1040
37.0
1040
37.0
1040
37.0
1040
38.0
1040
38.0
1040
38.0
1040
39.0
1040
39.0
1040
39.0
1040
40.0
1040
40.0
1040
40.0
1040
41.0
1040
41.0
1040
41.0
1040
42.0
1040
42.0
1040
42.0
1040
43.0
1040
43.0
1040
43.0
1040
44.0
1040
44.0
1040
44.0
1040
45.0
1040
45.0
1040
45.0
1040
46.0
1040
46.0
1040
46.0
1040
47.0
1040
47.0
1040
47.0
1040
48.0
1040
48.0
1040
48.0
1040
49.0
1040
49.0
1040
49.0
1040
50.0
1040
50.0
1040
50.0
1040
51.0
1040
51.0
1040
51.0
1040
52.0
1040
52.0
1040
52.0
1040
53.0
1040
53.0
1040
53.0
1040
54.0
1040
54.0
1040
54.0
1040
55.0
1040
55.0
1040
55.0
1040
56.0
1040
56.0
1040
56.0
1040
57.0
1040
57.0
1040
57.0
1040
58.0
1040
58.0
1040
58.0
1040
59.0
1040
59.0
1040
59.0
1040
60.0
1040
60.0
1040
60.0
1040
61.0
1040
61.0
1040
61.0
1040
62.0
1040
62.0
1040
62.0
1040
63.0
1040
63.0
1040
63.0
1040
64.0
1040
64.0
1040
64.0
1040
64.0
1040
4.584391586519619
1040
-2.539381557393561
1040
4.584391586519619
1040
-2.614829198292921
1040
4.588181194053377
1040
-2.689243309864894
1040
4.595415899345096
1040
-2.762796146997376
1040
4.602995114412612
1040
-2.836348984129858
1040
4.614019427238089
1040
-2.908868291934952
1040
4.628661092709427
1040
-2.98000956063686
1040
4.643130503292865
1040
-3.050978574450872
1040
4.661217266522164
1040
-3.12125856871329
1040
4.682576872621527
1040
-3.189471504320931
1040
4.703764223832992
1040
-3.258028949704369
1040
4.728568927690316
1040
-3.325036101096724
1040
4.756129709754009
1040
-3.390320703610098
1040
4.783862746705601
1040
-3.45577756101137
1040
4.81452411675146
1040
-3.519684124421559
1040
4.848286074779484
1040
-3.581351374289073
1040
4.881703523031713
1040
-3.643535388820282
1040
4.918221559266106
1040
-3.703652344696713
1040
4.957667928594768
1040
-3.762046751694164
1040
4.996942043035531
1040
-3.820268903803716
1040
5.038972235682664
1040
-3.876251742370594
1040
5.083586251648268
1040
-3.930167522282694
1040
5.128028012725974
1040
-3.984427811970591
1040
5.17505359712215
1040
-4.036104278340016
1040
5.224663004836799
1040
-4.085541431166766
1040
5.274100157663549
1040
-4.134806329105619
1040
5.325948878920872
1040
-4.182004168389693
1040
5.380036913720871
1040
-4.226618184355297
1040
5.433780438745073
1040
-4.271404455208799
1040
5.489935532199849
1040
-4.313262392968034
1040
5.548329939197299
1040
-4.352536507408797
1040
5.606379836418954
1040
-4.391982876737458
1040
5.666669047183284
1040
-4.428328658083954
1040
5.728508551938695
1040
-4.462090616111979
1040
5.790692566469904
1040
-4.495680319252106
1040
5.854254620104297
1040
-4.526341689297964
1040
5.91971147750557
1040
-4.554074726249556
1040
5.984996080018943
1040
-4.581807763201148
1040
6.052003231411298
1040
-4.606440212170574
1040
6.120732931682634
1040
-4.627627563382038
1040
6.188945867290276
1040
-4.648814914593502
1040
6.259053606664795
1040
-4.667073932710699
1040
6.330194875366704
1040
-4.681543343294138
1040
6.401336144068614
1040
-4.696185008765475
1040
6.473855451873707
1040
-4.707037066703055
1040
6.547236034118291
1040
-4.714616281770571
1040
6.620788871250773
1040
-4.722023241950188
1040
6.695375237710643
1040
-4.725985104371844
1040
6.770822878610004
1040
-4.725985104371844
1040
6.846270519509366
1040
-4.725985104371844
1040
6.920856885969236
1040
-4.722023241950188
1040
6.994409723101718
1040
-4.714616281770571
1040
7.067790305346302
1040
-4.707037066703055
1040
7.140309613151396
1040
-4.696185008765475
1040
7.211450881853304
1040
-4.681543343294138
1040
7.282764405443111
1040
-4.667073932710699
1040
7.352527635041835
1040
-4.648814914593502
1040
7.421085080425273
1040
-4.627627563382038
1040
7.489470270920813
1040
-4.606440212170574
1040
7.556477422313168
1040
-4.581807763201148
1040
7.62193427971444
1040
-4.554074726249556
1040
7.687391137115712
1040
-4.526341689297964
1040
7.751125445638003
1040
-4.495680319252106
1040
7.813137205281313
1040
-4.462090616111979
1040
7.874976710036726
1040
-4.428328658083954
1040
7.935265920801055
1040
-4.391982876737458
1040
7.993488072910607
1040
-4.352536507408797
1040
8.05171022502016
1040
-4.313262392968034
1040
8.107693063587037
1040
-4.271404455208799
1040
8.161781098387037
1040
-4.226618184355297
1040
8.215696878299136
1040
-4.182004168389693
1040
8.267373344668561
1040
-4.134806329105619
1040
8.31698275238321
1040
-4.085541431166766
1040
8.36641990520996
1040
-4.036104278340016
1040
8.413617744494035
1040
-3.984427811970591
1040
8.458059505571741
1040
-3.930167522282694
1040
8.502673521537345
1040
-3.876251742370594
1040
8.544703714184477
1040
-3.820268903803716
1040
8.58397782862524
1040
-3.762046751694164
1040
8.623424197953902
1040
-3.703652344696713
1040
8.659769979300398
1040
-3.643535388820282
1040
8.693531937328423
1040
-3.581351374289073
1040
8.727293895356448
1040
-3.519684124421559
1040
8.757955265402307
1040
-3.45577756101137
1040
8.785516047466
1040
-3.390320703610098
1040
8.81342133930549
1040
-3.325036101096724
1040
8.837881533387018
1040
-3.258028949704369
1040
8.85924113948638
1040
-3.189471504320931
1040
8.880428490697845
1040
-3.12125856871329
1040
8.898342999039246
1040
-3.050978574450872
1040
8.912984664510581
1040
-2.98000956063686
1040
8.92745407509402
1040
-2.908868291934952
1040
8.938650642807398
1040
-2.836348984129858
1040
8.946229857874913
1040
-2.762796146997376
1040
8.953464563166632
1040
-2.689243309864894
1040
8.957426425588288
1040
-2.614829198292921
1040
8.957426425588288
1040
-2.539381557393561
1040
8.957426425588288
1040
-2.463761661606302
1040
8.953464563166632
1040
-2.389347550034329
1040
8.946229857874913
1040
-2.315794712901847
1040
8.938650642807398
1040
-2.242241875769365
1040
8.92745407509402
1040
-2.169894822852169
1040
8.912984664510581
1040
-2.098581299262363
1040
8.898342999039246
1040
-2.027440030560454
1040
8.880428490697845
1040
-1.95767680096173
1040
8.85924113948638
1040
-1.88929161046619
1040
8.837881533387018
1040
-1.820734165082752
1040
8.81342133930549
1040
-1.753727013690398
1040
8.785516047466
1040
-1.688270156289125
1040
8.757955265402307
1040
-1.622985553775751
1040
8.727293895356448
1040
-1.559078990365562
1040
8.693531937328423
1040
-1.49723948561015
1040
8.659769979300398
1040
-1.435227725966839
1040
8.623424197953902
1040
-1.37493851520251
1040
8.58397782862524
1040
-1.316888617980855
1040
8.544703714184477
1040
-1.258666465871303
1040
8.502673521537345
1040
-1.202511372416527
1040
8.458059505571741
1040
-1.148595592504427
1040
8.413617744494035
1040
-1.09433530281653
1040
8.36641990520996
1040
-1.042658836447105
1040
8.31698275238321
1040
-0.9932216836203548
1040
8.267373344668561
1040
-0.9439567856815027
1040
8.215696878299136
1040
-0.8967589463974275
1040
8.161781098387037
1040
-0.8521449304318236
1040
8.107693063587037
1040
-0.8073586595783216
1040
8.05171022502016
1040
-0.7655007218190871
1040
7.993488072910607
1040
-0.7262266073783239
1040
7.935265920801055
1040
-0.6869524929375607
1040
7.874976710036726
1040
-0.6504344567031668
1040
7.813137205281313
1040
-0.6166724986751423
1040
7.751125445638003
1040
-0.5830827955350157
1040
7.687391137115712
1040
-0.5524214254891567
1040
7.62193427971444
1040
-0.5246883885375652
1040
7.556477422313168
1040
-0.4971276064738717
1040
7.489470270920813
1040
-0.4724951575044456
1040
7.421085080425273
1040
-0.4511355514050831
1040
7.352527635041835
1040
-0.4299482001936187
1040
7.282764405443111
1040
-0.4118614369643199
1040
7.211450881853304
1040
-0.3972197714929827
1040
7.140309613151396
1040
-0.3827503609095436
1040
7.067790305346302
1040
-0.3717260480840662
1040
6.994409723101718
1040
-0.3641468330165505
1040
6.920856885969236
1040
-0.3567398728369328
1040
6.846270519509366
1040
-0.3527780104152769
1040
6.770822878610004
1040
-0.3527780104152769
1040
6.695375237710643
1040
-0.3527780104152769
1040
6.620788871250773
1040
-0.3567398728369328
1040
6.547236034118291
1040
-0.3641468330165505
1040
6.473855451873707
1040
-0.3717260480840662
1040
6.401336144068614
1040
-0.3827503609095436
1040
6.330194875366704
1040
-0.3972197714929827
1040
6.259053606664795
1040
-0.4118614369643199
1040
6.188945867290276
1040
-0.4299482001936187
1040
6.120732931682634
1040
-0.4511355514050831
1040
6.052003231411298
1040
-0.4724951575044456
1040
5.984996080018943
1040
-0.4971276064738717
1040
5.91971147750557
1040
-0.5246883885375652
1040
5.854254620104297
1040
-0.5524214254891567
1040
5.790692566469904
1040
-0.5830827955350157
1040
5.728508551938695
1040
-0.6166724986751423
1040
5.666669047183284
1040
-0.6504344567031668
1040
5.606379836418954
1040
-0.6869524929375607
1040
5.548329939197299
1040
-0.7262266073783239
1040
5.489935532199849
1040
-0.7655007218190871
1040
5.433780438745073
1040
-0.8073586595783216
1040
5.380036913720871
1040
-0.8521449304318236
1040
5.325948878920872
1040
-0.8967589463974275
1040
5.274100157663549
1040
-0.9439567856815027
1040
5.224663004836799
1040
-0.9932216836203548
1040
5.17505359712215
1040
-1.042658836447105
1040
5.128028012725974
1040
-1.09433530281653
1040
5.083586251648268
1040
-1.148595592504427
1040
5.038972235682664
1040
-1.202511372416527
1040
4.996942043035531
1040
-1.258666465871303
1040
4.957667928594768
1040
-1.316888617980855
1040
4.918221559266106
1040
-1.37493851520251
1040
4.881703523031713
1040
-1.435227725966839
1040
4.848286074779484
1040
-1.49723948561015
1040
4.81452411675146
1040
-1.559078990365562
1040
4.783862746705601
1040
-1.622985553775751
1040
4.756129709754009
1040
-1.688270156289125
1040
4.728568927690316
1040
-1.753727013690398
1040
4.703764223832992
1040
-1.820734165082752
1040
4.682576872621527
1040
-1.88929161046619
1040
4.661217266522164
1040
-1.95767680096173
1040
4.643130503292865
1040
-2.027440030560454
1040
4.628661092709427
1040
-2.098581299262363
1040
4.614019427238089
1040
-2.169894822852169
1040
4.602995114412612
1040
-2.242241875769365
1040
4.595415899345096
1040
-2.315794712901847
1040
4.588181194053377
1040
-2.389347550034329
1040
4.584391586519619
1040
-2.463761661606302
1040
4.584391586519619
1040
-2.539381557393561
1071
        0
1070
     2
1070
     1
1071
        0
1002
}
  0
POLYLINE
  5
52
330
3C
100
AcDbEntity
  8
CALQUE_1
100
AcDb2dPolyline
 66
     1
 10
0.0
 20
0.0
 30
0.0
  0
VERTEX
  5
53
330
52
100
AcDbEntity
  8
CALQUE_1
100
AcDbVertex
100
AcDb2dVertex
 10
15.98525359694223
 20
-1.755794072345175
 30
0.0
  0
VERTEX
  5
54
330
52
100
AcDbEntity
  8
CALQUE_1
100
AcDbVertex
100
AcDb2dVertex
 10
17.92105402714091
 20
-0.436666140821644
 30
0.0
  0
VERTEX
  5
55
330
52
100
AcDbEntity
  8
CALQUE_1
100
AcDbVertex
100
AcDb2dVertex
 10
17.92105402714091
 20
-4.641924719077579
 30
0.0
  0
VERTEX
  5
56
330
52
100
AcDbEntity
  8
CALQUE_1
100
AcDbVertex
100
AcDb2dVertex
 10
14.04893640207987
 20
-4.641924719077579
 30
0.0
  0
VERTEX
  5
57
330
52
100
AcDbEntity
  8
CALQUE_1
100
AcDbVertex
100
AcDb2dVertex
 10
14.04893640207987
 20
-0.436666140821644
 30
0.0
  0
VERTEX
  5
58
330
52
100
AcDbEntity
  8
CALQUE_1
100
AcDbVertex
100
AcDb2dVertex
 10
15.98525359694223
 20
-1.755794072345175
 30
0.0
  0
SEQEND
  5
59
330
52
100
AcDbEntity
  8
CALQUE_1
  0
INSERT
  5
5A
330
3C
100
AcDbEntity
  8
CALQUE_1
 62
   250
100
AcDbBlockReference
  2
*U5
 10
0.0
 20
0.0
 30
0.0
1001
ACAD
1002
{
1000
R14_HATCH_DATA
1000
5A
1011
1.0
1021
0.0
1031
0.0
1011
0.0
1021
1.0
1031
0.0
1011
0.0
1021
0.0
1031
1.0
1040
0.0
1010
0.0
1020
0.0
1030
1.0
1000
SOLID
1070
     1
1070
     1
1071
        1
1071
        1
1071
        5
1070
     1
1040
15.98525359694223
1040
-1.755794072345175
1040
17.92105402714091
1040
-0.4366661408216439
1070
     1
1040
17.92105402714091
1040
-0.436666140821644
1040
17.92105402714091
1040
-4.641924719077579
1070
     1
1040
17.92105402714091
1040
-4.641924719077579
1040
14.04893640207987
1040
-4.641924719077579
1070
     1
1040
14.04893640207987
1040
-4.641924719077579
1040
14.04893640207987
1040
-0.4366661408216439
1070
     1
1040
14.04893640207987
1040
-0.436666140821644
1040
15.98525359694223
1040
-1.755794072345175
1071
        0
1070
     2
1070
     1
1071
        0
1002
}
  0
ENDBLK
  5
3F
330
3C
100
AcDbEntity
  8
0
100
AcDbBlockEnd
  0
BLOCK
  5
67
330
5C
100
AcDbEntity
  8
0
100
AcDbBlockBegin
  2
*U2
 70
     1
 71
     0
 10
0.0
 20
0.0
 30
0.0
  3
*U2
  1

  0
SOLID
  5
5D
330
5C
100
AcDbEntity
  8
CALQUE_1
 62
   250
100
AcDbTrace
 10
-0.3527780104152769
 20
-4.641924719077579
 30
0.0
 11
-0.3527780104152769
 21
-0.4364938859337459
 31
0.0
 12
-1.380106161839452
 22
-4.641924719077579
 32
0.0
 13
-1.380106161839452
 23
-4.641924719077579
 33
0.0
210
0.0
220
0.0
230
-1.0
  0
SOLID
  5
5E
330
5C
100
AcDbEntity
  8
CALQUE_1
 62
   250
100
AcDbTrace
 10
-1.380106161839452
 20
-4.641924719077579
 30
0.0
 11
-0.3527780104152769
 21
-0.4364938859337459
 31
0.0
 12
-1.380106161839452
 22
-0.4364938859337459
 32
0.0
 13
-1.380106161839452
 23
-0.4364938859337459
 33
0.0
210
0.0
220
0.0
230
-1.0
  0
SOLID
  5
5F
330
5C
100
AcDbEntity
  8
CALQUE_1
 62
   250
100
AcDbTrace
 10
-1.380106161839452
 20
-4.641924719077579
 30
0.0
 11
-1.380106161839452
 21
-0.4364938859337459
 31
0.0
 12
-1.861558573514598
 22
-4.347914138427178
 32
0.0
 13
-1.861558573514598
 23
-4.347914138427178
 33
0.0
210
0.0
220
0.0
230
-1.0
  0
SOLID
  5
60
330
5C
100
AcDbEntity
  8
CALQUE_1
 62
   250
100
AcDbTrace
 10
-1.861558573514598
 20
-4.347914138427178
 30
0.0
 11
-1.380106161839452
 21
-0.4364938859337459
 31
0.0
 12
-1.861558573514598
 22
-0.4364938859337459
 32
0.0
 13
-1.861558573514598
 23
-0.4364938859337459
 33
0.0
210
0.0
220
0.0
230
-1.0
  0
SOLID
  5
61
330
5C
100
AcDbEntity
  8
CALQUE_1
 62
   250
100
AcDbTrace
 10
-1.861558573514598
 20
-4.347914138427178
 30
0.0
 11
-1.861558573514598
 21
-1.252465289906972
 31
0.0
 12
-2.716287327264893
 22
-3.825953315104353
 32
0.0
 13
-2.716287327264893
 23
-3.825953315104353
 33
0.0
210
0.0
220
0.0
230
-1.0
  0
SOLID
  5
62
330
5C
100
AcDbEntity
  8
CALQUE_1
 62
   250
100
AcDbTrace
 10
2.716287327264893
 20
-3.825953315104353
 30
0.0
 11
1.861558573514598
 21
-1.252465289906972
 31
0.0
 12
2.716287327264893
 22
-0.7304371689019246
 32
0.0
 13
2.716287327264893
 23
-0.7304371689019246
 33
0.0
  0
SOLID
  5
63
330
5C
100
AcDbEntity
  8
CALQUE_1
 62
   250
100
AcDbTrace
 10
-2.716287327264893
 20
-4.641924719077579
 30
0.0
 11
-2.716287327264893
 21
-0.7304371689019246
 31
0.0
 12
-3.197567484052141
 22
-4.641924719077579
 32
0.0
 13
-3.197567484052141
 23
-4.641924719077579
 33
0.0
210
0.0
220
0.0
230
-1.0
  0
SOLID
  5
64
330
5C
100
AcDbEntity
  8
CALQUE_1
 62
   250
100
AcDbTrace
 10
3.197567484052141
 20
-4.641924719077579
 30
0.0
 11
2.716287327264893
 21
-0.7304371689019246
 31
0.0
 12
3.197567484052141
 22
-0.4364938859337458
 32
0.0
 13
3.197567484052141
 23
-0.4364938859337458
 33
0.0
  0
SOLID
  5
65
330
5C
100
AcDbEntity
  8
CALQUE_1
 62
   250
100
AcDbTrace
 10
-3.197567484052141
 20
-4.641924719077579
 30
0.0
 11
-3.197567484052141
 21
-0.4364938859337459
 31
0.0
 12
-4.224895635476317
 22
-4.641924719077579
 32
0.0
 13
-4.224895635476317
 23
-4.641924719077579
 33
0.0
210
0.0
220
0.0
230
-1.0
  0
SOLID
  5
66
330
5C
100
AcDbEntity
  8
CALQUE_1
 62
   250
100
AcDbTrace
 10
-4.224895635476317
 20
-4.641924719077579
 30
0.0
 11
-3.197567484052141
 21
-0.4364938859337459
 31
0.0
 12
-4.224895635476317
 22
-0.4364938859337459
 32
0.0
 13
-4.224895635476317
 23
-0.4364938859337459
 33
0.0
210
0.0
220
0.0
230
-1.0
  0
ENDBLK
  5
68
330
5C
100
AcDbEntity
  8
0
100
AcDbBlockEnd
  0
BLOCK
  5
A8
330
69
100
AcDbEntity
  8
0
100
AcDbBlockBegin
  2
*U3
 70
     1
 71
     0
 10
0.0
 20
0.0
 30
0.0
  3
*U3
  1

  0
SOLID
  5
6A
330
69
100
AcDbEntity
  8
CALQUE_1
 62
   250
100
AcDbTrace
 10
9.327946689457068
 20
-2.762796146997376
 30
0.0
 11
9.316577866855795
 21
-2.539381557393561
 31
0.0
 12
9.327946689457068
 22
-2.315794712901847
 32
0.0
 13
9.327946689457068
 23
-2.315794712901847
 33
0.0
  0
SOLID
  5
6B
330
69
100
AcDbEntity
  8
CALQUE_1
 62
   250
100
AcDbTrace
 10
9.327946689457068
 20
-2.762796146997376
 30
0.0
 11
9.327946689457068
 21
-2.315794712901847
 31
0.0
 12
9.3610196279335
 22
-2.98000956063686
 32
0.0
 13
9.3610196279335
 23
-2.98000956063686
 33
0.0
  0
SOLID
  5
6C
330
69
100
AcDbEntity
  8
CALQUE_1
 62
   250
100
AcDbTrace
 10
9.3610196279335
 20
-2.98000956063686
 30
0.0
 11
9.327946689457068
 21
-2.315794712901847
 31
0.0
 12
9.3610196279335
 22
-2.098581299262363
 32
0.0
 13
9.3610196279335
 23
-2.098581299262363
 33
0.0
  0
SOLID
  5
6D
330
69
100
AcDbEntity
  8
CALQUE_1
 62
   250
100
AcDbTrace
 10
9.3610196279335
 20
-2.98000956063686
 30
0.0
 11
9.3610196279335
 21
-2.098581299262363
 31
0.0
 12
9.4149354078456
 22
-3.189471504320931
 32
0.0
 13
9.4149354078456
 23
-3.189471504320931
 33
0.0
  0
SOLID
  5
6E
330
69
100
AcDbEntity
  8
CALQUE_1
 62
   250
100
AcDbTrace
 10
9.4149354078456
 20
-3.189471504320931
 30
0.0
 11
9.3610196279335
 21
-2.098581299262363
 31
0.0
 12
9.4149354078456
 22
-1.88929161046619
 32
0.0
 13
9.4149354078456
 23
-1.88929161046619
 33
0.0
  0
SOLID
  5
6F
330
69
100
AcDbEntity
  8
CALQUE_1
 62
   250
100
AcDbTrace
 10
9.4149354078456
 20
-3.189471504320931
 30
0.0
 11
9.4149354078456
 21
-1.88929161046619
 31
0.0
 12
9.488660499865981
 22
-3.390320703610098
 32
0.0
 13
9.488660499865981
 23
-3.390320703610098
 33
0.0
  0
SOLID
  5
70
330
69
100
AcDbEntity
  8
CALQUE_1
 62
   250
100
AcDbTrace
 10
9.488660499865981
 20
-3.390320703610098
 30
0.0
 11
9.4149354078456
 21
-1.88929161046619
 31
0.0
 12
9.488660499865981
 22
-1.688270156289125
 32
0.0
 13
9.488660499865981
 23
-1.688270156289125
 33
0.0
  0
SOLID
  5
71
330
69
100
AcDbEntity
  8
CALQUE_1
 62
   250
100
AcDbTrace
 10
9.488660499865981
 20
-3.390320703610098
 30
0.0
 11
9.488660499865981
 21
-1.688270156289125
 31
0.0
 12
9.580644610003558
 22
-3.581351374289073
 32
0.0
 13
9.580644610003558
 23
-3.581351374289073
 33
0.0
  0
SOLID
  5
72
330
69
100
AcDbEntity
  8
CALQUE_1
 62
   250
100
AcDbTrace
 10
9.580644610003558
 20
-3.581351374289073
 30
0.0
 11
9.488660499865981
 21
-1.688270156289125
 31
0.0
 12
9.580644610003558
 22
-1.49723948561015
 32
0.0
 13
9.580644610003558
 23
-1.49723948561015
 33
0.0
  0
SOLID
  5
73
330
69
100
AcDbEntity
  8
CALQUE_1
 62
   250
100
AcDbTrace
 10
9.580644610003558
 20
-3.581351374289073
 30
0.0
 11
9.580644610003558
 21
-1.49723948561015
 31
0.0
 12
9.69002646381884
 22
-3.762046751694164
 32
0.0
 13
9.69002646381884
 23
-3.762046751694164
 33
0.0
  0
SOLID
  5
74
330
69
100
AcDbEntity
  8
CALQUE_1
 62
   250
100
AcDbTrace
 10
9.69002646381884
 20
-3.762046751694164
 30
0.0
 11
9.580644610003558
 21
-1.49723948561015
 31
0.0
 12
9.69002646381884
 22
-1.316888617980855
 32
0.0
 13
9.69002646381884
 23
-1.316888617980855
 33
0.0
  0
SOLID
  5
75
330
69
100
AcDbEntity
  8
CALQUE_1
 62
   250
100
AcDbTrace
 10
9.69002646381884
 20
-3.762046751694164
 30
0.0
 11
9.69002646381884
 21
-1.316888617980855
 31
0.0
 12
9.815944786872342
 22
-3.930167522282694
 32
0.0
 13
9.815944786872342
 23
-3.930167522282694
 33
0.0
  0
SOLID
  5
76
330
69
100
AcDbEntity
  8
CALQUE_1
 62
   250
100
AcDbTrace
 10
9.815944786872342
 20
-3.930167522282694
 30
0.0
 11
9.69002646381884
 21
-1.316888617980855
 31
0.0
 12
9.815944786872342
 22
-1.148595592504427
 32
0.0
 13
9.815944786872342
 23
-1.148595592504427
 33
0.0
  0
SOLID
  5
77
330
69
100
AcDbEntity
  8
CALQUE_1
 62
   250
100
AcDbTrace
 10
9.815944786872342
 20
-3.930167522282694
 30
0.0
 11
9.815944786872342
 21
-1.148595592504427
 31
0.0
 12
9.956849285172973
 22
-4.085541431166766
 32
0.0
 13
9.956849285172973
 23
-4.085541431166766
 33
0.0
  0
SOLID
  5
78
330
69
100
AcDbEntity
  8
CALQUE_1
 62
   250
100
AcDbTrace
 10
9.956849285172973
 20
-4.085541431166766
 30
0.0
 11
9.815944786872342
 21
-1.148595592504427
 31
0.0
 12
9.956849285172973
 22
-0.9932216836203548
 32
0.0
 13
9.956849285172973
 23
-0.9932216836203548
 33
0.0
  0
SOLID
  5
79
330
69
100
AcDbEntity
  8
CALQUE_1
 62
   250
100
AcDbTrace
 10
9.956849285172973
 20
-4.085541431166766
 30
0.0
 11
9.956849285172973
 21
-0.9932216836203548
 31
0.0
 12
10.11222319405705
 22
-4.226618184355297
 32
0.0
 13
10.11222319405705
 23
-4.226618184355297
 33
0.0
  0
SOLID
  5
7A
330
69
100
AcDbEntity
  8
CALQUE_1
 62
   250
100
AcDbTrace
 10
10.11222319405705
 20
-4.226618184355297
 30
0.0
 11
9.956849285172973
 21
-0.9932216836203548
 31
0.0
 12
10.11222319405705
 22
-0.8521449304318236
 32
0.0
 13
10.11222319405705
 23
-0.8521449304318236
 33
0.0
  0
SOLID
  5
7B
330
69
100
AcDbEntity
  8
CALQUE_1
 62
   250
100
AcDbTrace
 10
10.11222319405705
 20
-4.226618184355297
 30
0.0
 11
10.11222319405705
 21
-0.8521449304318236
 31
0.0
 12
10.28068847442137
 22
-4.352536507408797
 32
0.0
 13
10.28068847442137
 23
-4.352536507408797
 33
0.0
  0
SOLID
  5
7C
330
69
100
AcDbEntity
  8
CALQUE_1
 62
   250
100
AcDbTrace
 10
10.28068847442137
 20
-4.352536507408797
 30
0.0
 11
10.11222319405705
 21
-0.8521449304318236
 31
0.0
 12
10.28068847442137
 22
-0.7262266073783239
 32
0.0
 13
10.28068847442137
 23
-0.7262266073783239
 33
0.0
  0
SOLID
  5
7D
330
69
100
AcDbEntity
  8
CALQUE_1
 62
   250
100
AcDbTrace
 10
10.28068847442137
 20
-4.352536507408797
 30
0.0
 11
10.28068847442137
 21
-0.7262266073783239
 31
0.0
 12
10.46103934205067
 22
-4.462090616111979
 32
0.0
 13
10.46103934205067
 23
-4.462090616111979
 33
0.0
  0
SOLID
  5
7E
330
69
100
AcDbEntity
  8
CALQUE_1
 62
   250
100
AcDbTrace
 10
10.46103934205067
 20
-4.462090616111979
 30
0.0
 11
10.28068847442137
 21
-0.7262266073783239
 31
0.0
 12
10.46103934205067
 22
-0.6166724986751423
 32
0.0
 13
10.46103934205067
 23
-0.6166724986751423
 33
0.0
  0
SOLID
  5
7F
330
69
100
AcDbEntity
  8
CALQUE_1
 62
   250
100
AcDbTrace
 10
10.46103934205067
 20
-4.462090616111979
 30
0.0
 11
10.46103934205067
 21
-0.6166724986751423
 31
0.0
 12
10.65207001272964
 22
-4.554074726249556
 32
0.0
 13
10.65207001272964
 23
-4.554074726249556
 33
0.0
  0
SOLID
  5
80
330
69
100
AcDbEntity
  8
CALQUE_1
 62
   250
100
AcDbTrace
 10
10.65207001272964
 20
-4.554074726249556
 30
0.0
 11
10.46103934205067
 21
-0.6166724986751423
 31
0.0
 12
10.65207001272964
 22
-0.5246883885375652
 32
0.0
 13
10.65207001272964
 23
-0.5246883885375652
 33
0.0
  0
SOLID
  5
81
330
69
100
AcDbEntity
  8
CALQUE_1
 62
   250
100
AcDbTrace
 10
10.65207001272964
 20
-4.554074726249556
 30
0.0
 11
10.65207001272964
 21
-0.5246883885375652
 31
0.0
 12
10.85309146690671
 22
-4.627627563382038
 32
0.0
 13
10.85309146690671
 23
-4.627627563382038
 33
0.0
  0
SOLID
  5
82
330
69
100
AcDbEntity
  8
CALQUE_1
 62
   250
100
AcDbTrace
 10
10.85309146690671
 20
-4.627627563382038
 30
0.0
 11
10.65207001272964
 21
-0.5246883885375652
 31
0.0
 12
10.85309146690671
 22
-0.4511355514050831
 32
0.0
 13
10.85309146690671
 23
-0.4511355514050831
 33
0.0
  0
SOLID
  5
83
330
69
100
AcDbEntity
  8
CALQUE_1
 62
   250
100
AcDbTrace
 10
10.85309146690671
 20
-4.627627563382038
 30
0.0
 11
10.85309146690671
 21
-0.4511355514050831
 31
0.0
 12
11.06255341059078
 22
-4.681543343294138
 32
0.0
 13
11.06255341059078
 23
-4.681543343294138
 33
0.0
  0
SOLID
  5
84
330
69
100
AcDbEntity
  8
CALQUE_1
 62
   250
100
AcDbTrace
 10
11.06255341059078
 20
-4.681543343294138
 30
0.0
 11
10.85309146690671
 21
-0.4511355514050831
 31
0.0
 12
11.06255341059078
 22
-0.3972197714929827
 32
0.0
 13
11.06255341059078
 23
-0.3972197714929827
 33
0.0
  0
SOLID
  5
85
330
69
100
AcDbEntity
  8
CALQUE_1
 62
   250
100
AcDbTrace
 10
11.06255341059078
 20
-4.681543343294138
 30
0.0
 11
11.06255341059078
 21
-0.3972197714929827
 31
0.0
 12
11.27959456934236
 22
-4.714616281770571
 32
0.0
 13
11.27959456934236
 23
-4.714616281770571
 33
0.0
  0
SOLID
  5
86
330
69
100
AcDbEntity
  8
CALQUE_1
 62
   250
100
AcDbTrace
 10
11.27959456934236
 20
-4.714616281770571
 30
0.0
 11
11.06255341059078
 21
-0.3972197714929827
 31
0.0
 12
11.27959456934236
 22
-0.3641468330165505
 32
0.0
 13
11.27959456934236
 23
-0.3641468330165505
 33
0.0
  0
SOLID
  5
87
330
69
100
AcDbEntity
  8
CALQUE_1
 62
   250
100
AcDbTrace
 10
11.27959456934236
 20
-4.714616281770571
 30
0.0
 11
11.27959456934236
 21
-0.3641468330165505
 31
0.0
 12
11.50335366872198
 22
-4.725985104371844
 32
0.0
 13
11.50335366872198
 23
-4.725985104371844
 33
0.0
  0
SOLID
  5
88
330
69
100
AcDbEntity
  8
CALQUE_1
 62
   250
100
AcDbTrace
 10
11.50335366872198
 20
-4.725985104371844
 30
0.0
 11
11.27959456934236
 21
-0.3641468330165505
 31
0.0
 12
11.50335366872198
 22
-0.3527780104152769
 32
0.0
 13
11.50335366872198
 23
-0.3527780104152769
 33
0.0
  0
SOLID
  5
89
330
69
100
AcDbEntity
  8
CALQUE_1
 62
   250
100
AcDbTrace
 10
-11.50335366872198
 20
-4.725985104371844
 30
0.0
 11
-11.50335366872198
 21
-0.3527780104152769
 31
0.0
 12
-11.72694051321369
 22
-4.714616281770571
 32
0.0
 13
-11.72694051321369
 23
-4.714616281770571
 33
0.0
210
0.0
220
0.0
230
-1.0
  0
SOLID
  5
8A
330
69
100
AcDbEntity
  8
CALQUE_1
 62
   250
100
AcDbTrace
 10
-11.72694051321369
 20
-4.714616281770571
 30
0.0
 11
-11.50335366872198
 21
-0.3527780104152769
 31
0.0
 12
-11.72694051321369
 22
-0.3641468330165505
 32
0.0
 13
-11.72694051321369
 23
-0.3641468330165505
 33
0.0
210
0.0
220
0.0
230
-1.0
  0
SOLID
  5
8B
330
69
100
AcDbEntity
  8
CALQUE_1
 62
   250
100
AcDbTrace
 10
-11.72694051321369
 20
-4.714616281770571
 30
0.0
 11
-11.72694051321369
 21
-0.3641468330165505
 31
0.0
 12
-11.94398167196528
 22
-4.681543343294138
 32
0.0
 13
-11.94398167196528
 23
-4.681543343294138
 33
0.0
210
0.0
220
0.0
230
-1.0
  0
SOLID
  5
8C
330
69
100
AcDbEntity
  8
CALQUE_1
 62
   250
100
AcDbTrace
 10
-11.94398167196528
 20
-4.681543343294138
 30
0.0
 11
-11.72694051321369
 21
-0.3641468330165505
 31
0.0
 12
-11.94398167196528
 22
-0.3972197714929827
 32
0.0
 13
-11.94398167196528
 23
-0.3972197714929827
 33
0.0
210
0.0
220
0.0
230
-1.0
  0
SOLID
  5
8D
330
69
100
AcDbEntity
  8
CALQUE_1
 62
   250
100
AcDbTrace
 10
-11.94398167196528
 20
-4.681543343294138
 30
0.0
 11
-11.94398167196528
 21
-0.3972197714929827
 31
0.0
 12
-12.15344361564935
 22
-4.627627563382038
 32
0.0
 13
-12.15344361564935
 23
-4.627627563382038
 33
0.0
210
0.0
220
0.0
230
-1.0
  0
SOLID
  5
8E
330
69
100
AcDbEntity
  8
CALQUE_1
 62
   250
100
AcDbTrace
 10
-12.15344361564935
 20
-4.627627563382038
 30
0.0
 11
-11.94398167196528
 21
-0.3972197714929827
 31
0.0
 12
-12.15344361564935
 22
-0.4511355514050831
 32
0.0
 13
-12.15344361564935
 23
-0.4511355514050831
 33
0.0
210
0.0
220
0.0
230
-1.0
  0
SOLID
  5
8F
330
69
100
AcDbEntity
  8
CALQUE_1
 62
   250
100
AcDbTrace
 10
-12.15344361564935
 20
-4.627627563382038
 30
0.0
 11
-12.15344361564935
 21
-0.4511355514050831
 31
0.0
 12
-12.35446506982641
 22
-4.554074726249556
 32
0.0
 13
-12.35446506982641
 23
-4.554074726249556
 33
0.0
210
0.0
220
0.0
230
-1.0
  0
SOLID
  5
90
330
69
100
AcDbEntity
  8
CALQUE_1
 62
   250
100
AcDbTrace
 10
-12.35446506982641
 20
-4.554074726249556
 30
0.0
 11
-12.15344361564935
 21
-0.4511355514050831
 31
0.0
 12
-12.35446506982641
 22
-0.5246883885375652
 32
0.0
 13
-12.35446506982641
 23
-0.5246883885375652
 33
0.0
210
0.0
220
0.0
230
-1.0
  0
SOLID
  5
91
330
69
100
AcDbEntity
  8
CALQUE_1
 62
   250
100
AcDbTrace
 10
-12.35446506982641
 20
-4.554074726249556
 30
0.0
 11
-12.35446506982641
 21
-0.5246883885375652
 31
0.0
 12
-12.54549574050539
 22
-4.462090616111979
 32
0.0
 13
-12.54549574050539
 23
-4.462090616111979
 33
0.0
210
0.0
220
0.0
230
-1.0
  0
SOLID
  5
92
330
69
100
AcDbEntity
  8
CALQUE_1
 62
   250
100
AcDbTrace
 10
-12.54549574050539
 20
-4.462090616111979
 30
0.0
 11
-12.35446506982641
 21
-0.5246883885375652
 31
0.0
 12
-12.54549574050539
 22
-0.6166724986751423
 32
0.0
 13
-12.54549574050539
 23
-0.6166724986751423
 33
0.0
210
0.0
220
0.0
230
-1.0
  0
SOLID
  5
93
330
69
100
AcDbEntity
  8
CALQUE_1
 62
   250
100
AcDbTrace
 10
-12.54549574050539
 20
-4.462090616111979
 30
0.0
 11
-12.54549574050539
 21
-0.6166724986751423
 31
0.0
 12
-12.72567435324678
 22
-4.352536507408797
 32
0.0
 13
-12.72567435324678
 23
-4.352536507408797
 33
0.0
210
0.0
220
0.0
230
-1.0
  0
SOLID
  5
94
330
69
100
AcDbEntity
  8
CALQUE_1
 62
   250
100
AcDbTrace
 10
-12.72567435324678
 20
-4.352536507408797
 30
0.0
 11
-12.54549574050539
 21
-0.6166724986751423
 31
0.0
 12
-12.72567435324678
 22
-0.7262266073783239
 32
0.0
 13
-12.72567435324678
 23
-0.7262266073783239
 33
0.0
210
0.0
220
0.0
230
-1.0
  0
SOLID
  5
95
330
69
100
AcDbEntity
  8
CALQUE_1
 62
   250
100
AcDbTrace
 10
-12.72567435324678
 20
-4.352536507408797
 30
0.0
 11
-12.72567435324678
 21
-0.7262266073783239
 31
0.0
 12
-12.89413963361111
 22
-4.226618184355297
 32
0.0
 13
-12.89413963361111
 23
-4.226618184355297
 33
0.0
210
0.0
220
0.0
230
-1.0
  0
SOLID
  5
96
330
69
100
AcDbEntity
  8
CALQUE_1
 62
   250
100
AcDbTrace
 10
-12.89413963361111
 20
-4.226618184355297
 30
0.0
 11
-12.72567435324678
 21
-0.7262266073783239
 31
0.0
 12
-12.89413963361111
 22
-0.8521449304318236
 32
0.0
 13
-12.89413963361111
 23
-0.8521449304318236
 33
0.0
210
0.0
220
0.0
230
-1.0
  0
SOLID
  5
97
330
69
100
AcDbEntity
  8
CALQUE_1
 62
   250
100
AcDbTrace
 10
-12.89413963361111
 20
-4.226618184355297
 30
0.0
 11
-12.89413963361111
 21
-0.8521449304318236
 31
0.0
 12
-13.04934128760728
 22
-4.085541431166766
 32
0.0
 13
-13.04934128760728
 23
-4.085541431166766
 33
0.0
210
0.0
220
0.0
230
-1.0
  0
SOLID
  5
98
330
69
100
AcDbEntity
  8
CALQUE_1
 62
   250
100
AcDbTrace
 10
-13.04934128760728
 20
-4.085541431166766
 30
0.0
 11
-12.89413963361111
 21
-0.8521449304318236
 31
0.0
 12
-13.04934128760728
 22
-0.9932216836203548
 32
0.0
 13
-13.04934128760728
 23
-0.9932216836203548
 33
0.0
210
0.0
220
0.0
230
-1.0
  0
SOLID
  5
99
330
69
100
AcDbEntity
  8
CALQUE_1
 62
   250
100
AcDbTrace
 10
-13.04934128760728
 20
-4.085541431166766
 30
0.0
 11
-13.04934128760728
 21
-0.9932216836203548
 31
0.0
 12
-13.19059029568371
 22
-3.930167522282694
 32
0.0
 13
-13.19059029568371
 23
-3.930167522282694
 33
0.0
210
0.0
220
0.0
230
-1.0
  0
SOLID
  5
9A
330
69
100
AcDbEntity
  8
CALQUE_1
 62
   250
100
AcDbTrace
 10
-13.19059029568371
 20
-3.930167522282694
 30
0.0
 11
-13.04934128760728
 21
-0.9932216836203548
 31
0.0
 12
-13.19059029568371
 22
-1.148595592504427
 32
0.0
 13
-13.19059029568371
 23
-1.148595592504427
 33
0.0
210
0.0
220
0.0
230
-1.0
  0
SOLID
  5
9B
330
69
100
AcDbEntity
  8
CALQUE_1
 62
   250
100
AcDbTrace
 10
-13.19059029568371
 20
-3.930167522282694
 30
0.0
 11
-13.19059029568371
 21
-1.148595592504427
 31
0.0
 12
-13.31633636384931
 22
-3.762046751694164
 32
0.0
 13
-13.31633636384931
 23
-3.762046751694164
 33
0.0
210
0.0
220
0.0
230
-1.0
  0
SOLID
  5
9C
330
69
100
AcDbEntity
  8
CALQUE_1
 62
   250
100
AcDbTrace
 10
-13.31633636384931
 20
-3.762046751694164
 30
0.0
 11
-13.19059029568371
 21
-1.148595592504427
 31
0.0
 12
-13.31633636384931
 22
-1.316888617980855
 32
0.0
 13
-13.31633636384931
 23
-1.316888617980855
 33
0.0
210
0.0
220
0.0
230
-1.0
  0
SOLID
  5
9D
330
69
100
AcDbEntity
  8
CALQUE_1
 62
   250
100
AcDbTrace
 10
-13.31633636384931
 20
-3.762046751694164
 30
0.0
 11
-13.31633636384931
 21
-1.316888617980855
 31
0.0
 12
-13.4258904725525
 22
-3.581351374289073
 32
0.0
 13
-13.4258904725525
 23
-3.581351374289073
 33
0.0
210
0.0
220
0.0
230
-1.0
  0
SOLID
  5
9E
330
69
100
AcDbEntity
  8
CALQUE_1
 62
   250
100
AcDbTrace
 10
-13.4258904725525
 20
-3.581351374289073
 30
0.0
 11
-13.31633636384931
 21
-1.316888617980855
 31
0.0
 12
-13.4258904725525
 22
-1.49723948561015
 32
0.0
 13
-13.4258904725525
 23
-1.49723948561015
 33
0.0
210
0.0
220
0.0
230
-1.0
  0
SOLID
  5
9F
330
69
100
AcDbEntity
  8
CALQUE_1
 62
   250
100
AcDbTrace
 10
-13.4258904725525
 20
-3.581351374289073
 30
0.0
 11
-13.4258904725525
 21
-1.49723948561015
 31
0.0
 12
-13.51804683757797
 22
-3.390320703610098
 32
0.0
 13
-13.51804683757797
 23
-3.390320703610098
 33
0.0
210
0.0
220
0.0
230
-1.0
  0
SOLID
  5
A0
330
69
100
AcDbEntity
  8
CALQUE_1
 62
   250
100
AcDbTrace
 10
-13.51804683757797
 20
-3.390320703610098
 30
0.0
 11
-13.4258904725525
 21
-1.49723948561015
 31
0.0
 12
-13.51804683757797
 22
-1.688270156289125
 32
0.0
 13
-13.51804683757797
 23
-1.688270156289125
 33
0.0
210
0.0
220
0.0
230
-1.0
  0
SOLID
  5
A1
330
69
100
AcDbEntity
  8
CALQUE_1
 62
   250
100
AcDbTrace
 10
-13.51804683757797
 20
-3.390320703610098
 30
0.0
 11
-13.51804683757797
 21
-1.688270156289125
 31
0.0
 12
-13.59125516493466
 22
-3.189471504320931
 32
0.0
 13
-13.59125516493466
 23
-3.189471504320931
 33
0.0
210
0.0
220
0.0
230
-1.0
  0
SOLID
  5
A2
330
69
100
AcDbEntity
  8
CALQUE_1
 62
   250
100
AcDbTrace
 10
-13.59125516493466
 20
-3.189471504320931
 30
0.0
 11
-13.51804683757797
 21
-1.688270156289125
 31
0.0
 12
-13.59125516493466
 22
-1.88929161046619
 32
0.0
 13
-13.59125516493466
 23
-1.88929161046619
 33
0.0
210
0.0
220
0.0
230
-1.0
  0
SOLID
  5
A3
330
69
100
AcDbEntity
  8
CALQUE_1
 62
   250
100
AcDbTrace
 10
-13.59125516493466
 20
-3.189471504320931
 30
0.0
 11
-13.59125516493466
 21
-1.88929161046619
 31
0.0
 12
-13.64534319973466
 22
-2.98000956063686
 32
0.0
 13
-13.64534319973466
 23
-2.98000956063686
 33
0.0
210
0.0
220
0.0
230
-1.0
  0
SOLID
  5
A4
330
69
100
AcDbEntity
  8
CALQUE_1
 62
   250
100
AcDbTrace
 10
-13.64534319973466
 20
-2.98000956063686
 30
0.0
 11
-13.59125516493466
 21
-1.88929161046619
 31
0.0
 12
-13.64534319973466
 22
-2.098581299262363
 32
0.0
 13
-13.64534319973466
 23
-2.098581299262363
 33
0.0
210
0.0
220
0.0
230
-1.0
  0
SOLID
  5
A5
330
69
100
AcDbEntity
  8
CALQUE_1
 62
   250
100
AcDbTrace
 10
-13.64534319973466
 20
-2.98000956063686
 30
0.0
 11
-13.64534319973466
 21
-2.098581299262363
 31
0.0
 12
-13.67841613821109
 22
-2.762796146997376
 32
0.0
 13
-13.67841613821109
 23
-2.762796146997376
 33
0.0
210
0.0
220
0.0
230
-1.0
  0
SOLID
  5
A6
330
69
100
AcDbEntity
  8
CALQUE_1
 62
   250
100
AcDbTrace
 10
-13.67841613821109
 20
-2.762796146997376
 30
0.0
 11
-13.64534319973466
 21
-2.098581299262363
 31
0.0
 12
-13.67841613821109
 22
-2.315794712901847
 32
0.0
 13
-13.67841613821109
 23
-2.315794712901847
 33
0.0
210
0.0
220
0.0
230
-1.0
  0
SOLID
  5
A7
330
69
100
AcDbEntity
  8
CALQUE_1
 62
   250
100
AcDbTrace
 10
-13.67841613821109
 20
-2.762796146997376
 30
0.0
 11
-13.67841613821109
 21
-2.315794712901847
 31
0.0
 12
-13.68978496081236
 22
-2.539381557393561
 32
0.0
 13
-13.68978496081236
 23
-2.539381557393561
 33
0.0
210
0.0
220
0.0
230
-1.0
  0
ENDBLK
  5
A9
330
69
100
AcDbEntity
  8
0
100
AcDbBlockEnd
  0
BLOCK
  5
E9
330
AA
100
AcDbEntity
  8
0
100
AcDbBlockBegin
  2
*U4
 70
     1
 71
     0
 10
0.0
 20
0.0
 30
0.0
  3
*U4
  1

  0
SOLID
  5
AB
330
AA
100
AcDbEntity
  8
CALQUE_1
 62
   250
100
AcDbTrace
 10
4.595415899345096
 20
-2.762796146997376
 30
0.0
 11
4.584391586519619
 21
-2.539381557393561
 31
0.0
 12
4.595415899345096
 22
-2.315794712901847
 32
0.0
 13
4.595415899345096
 23
-2.315794712901847
 33
0.0
  0
SOLID
  5
AC
330
AA
100
AcDbEntity
  8
CALQUE_1
 62
   250
100
AcDbTrace
 10
4.595415899345096
 20
-2.762796146997376
 30
0.0
 11
4.595415899345096
 21
-2.315794712901847
 31
0.0
 12
4.628661092709427
 22
-2.98000956063686
 32
0.0
 13
4.628661092709427
 23
-2.98000956063686
 33
0.0
  0
SOLID
  5
AD
330
AA
100
AcDbEntity
  8
CALQUE_1
 62
   250
100
AcDbTrace
 10
4.628661092709427
 20
-2.98000956063686
 30
0.0
 11
4.595415899345096
 21
-2.315794712901847
 31
0.0
 12
4.628661092709427
 22
-2.098581299262363
 32
0.0
 13
4.628661092709427
 23
-2.098581299262363
 33
0.0
  0
SOLID
  5
AE
330
AA
100
AcDbEntity
  8
CALQUE_1
 62
   250
100
AcDbTrace
 10
4.628661092709427
 20
-2.98000956063686
 30
0.0
 11
4.628661092709427
 21
-2.098581299262363
 31
0.0
 12
4.682576872621527
 22
-3.189471504320931
 32
0.0
 13
4.682576872621527
 23
-3.189471504320931
 33
0.0
  0
SOLID
  5
AF
330
AA
100
AcDbEntity
  8
CALQUE_1
 62
   250
100
AcDbTrace
 10
4.682576872621527
 20
-3.189471504320931
 30
0.0
 11
4.628661092709427
 21
-2.098581299262363
 31
0.0
 12
4.682576872621527
 22
-1.88929161046619
 32
0.0
 13
4.682576872621527
 23
-1.88929161046619
 33
0.0
  0
SOLID
  5
B0
330
AA
100
AcDbEntity
  8
CALQUE_1
 62
   250
100
AcDbTrace
 10
4.682576872621527
 20
-3.189471504320931
 30
0.0
 11
4.682576872621527
 21
-1.88929161046619
 31
0.0
 12
4.756129709754009
 22
-3.390320703610098
 32
0.0
 13
4.756129709754009
 23
-3.390320703610098
 33
0.0
  0
SOLID
  5
B1
330
AA
100
AcDbEntity
  8
CALQUE_1
 62
   250
100
AcDbTrace
 10
4.756129709754009
 20
-3.390320703610098
 30
0.0
 11
4.682576872621527
 21
-1.88929161046619
 31
0.0
 12
4.756129709754009
 22
-1.688270156289125
 32
0.0
 13
4.756129709754009
 23
-1.688270156289125
 33
0.0
  0
SOLID
  5
B2
330
AA
100
AcDbEntity
  8
CALQUE_1
 62
   250
100
AcDbTrace
 10
4.756129709754009
 20
-3.390320703610098
 30
0.0
 11
4.756129709754009
 21
-1.688270156289125
 31
0.0
 12
4.848286074779484
 22
-3.581351374289073
 32
0.0
 13
4.848286074779484
 23
-3.581351374289073
 33
0.0
  0
SOLID
  5
B3
330
AA
100
AcDbEntity
  8
CALQUE_1
 62
   250
100
AcDbTrace
 10
4.848286074779484
 20
-3.581351374289073
 30
0.0
 11
4.756129709754009
 21
-1.688270156289125
 31
0.0
 12
4.848286074779484
 22
-1.49723948561015
 32
0.0
 13
4.848286074779484
 23
-1.49723948561015
 33
0.0
  0
SOLID
  5
B4
330
AA
100
AcDbEntity
  8
CALQUE_1
 62
   250
100
AcDbTrace
 10
4.848286074779484
 20
-3.581351374289073
 30
0.0
 11
4.848286074779484
 21
-1.49723948561015
 31
0.0
 12
4.957667928594768
 22
-3.762046751694164
 32
0.0
 13
4.957667928594768
 23
-3.762046751694164
 33
0.0
  0
SOLID
  5
B5
330
AA
100
AcDbEntity
  8
CALQUE_1
 62
   250
100
AcDbTrace
 10
4.957667928594768
 20
-3.762046751694164
 30
0.0
 11
4.848286074779484
 21
-1.49723948561015
 31
0.0
 12
4.957667928594768
 22
-1.316888617980855
 32
0.0
 13
4.957667928594768
 23
-1.316888617980855
 33
0.0
  0
SOLID
  5
B6
330
AA
100
AcDbEntity
  8
CALQUE_1
 62
   250
100
AcDbTrace
 10
4.957667928594768
 20
-3.762046751694164
 30
0.0
 11
4.957667928594768
 21
-1.316888617980855
 31
0.0
 12
5.083586251648268
 22
-3.930167522282694
 32
0.0
 13
5.083586251648268
 23
-3.930167522282694
 33
0.0
  0
SOLID
  5
B7
330
AA
100
AcDbEntity
  8
CALQUE_1
 62
   250
100
AcDbTrace
 10
5.083586251648268
 20
-3.930167522282694
 30
0.0
 11
4.957667928594768
 21
-1.316888617980855
 31
0.0
 12
5.083586251648268
 22
-1.148595592504427
 32
0.0
 13
5.083586251648268
 23
-1.148595592504427
 33
0.0
  0
SOLID
  5
B8
330
AA
100
AcDbEntity
  8
CALQUE_1
 62
   250
100
AcDbTrace
 10
5.083586251648268
 20
-3.930167522282694
 30
0.0
 11
5.083586251648268
 21
-1.148595592504427
 31
0.0
 12
5.224663004836799
 22
-4.085541431166766
 32
0.0
 13
5.224663004836799
 23
-4.085541431166766
 33
0.0
  0
SOLID
  5
B9
330
AA
100
AcDbEntity
  8
CALQUE_1
 62
   250
100
AcDbTrace
 10
5.224663004836799
 20
-4.085541431166766
 30
0.0
 11
5.083586251648268
 21
-1.148595592504427
 31
0.0
 12
5.224663004836799
 22
-0.9932216836203548
 32
0.0
 13
5.224663004836799
 23
-0.9932216836203548
 33
0.0
  0
SOLID
  5
BA
330
AA
100
AcDbEntity
  8
CALQUE_1
 62
   250
100
AcDbTrace
 10
5.224663004836799
 20
-4.085541431166766
 30
0.0
 11
5.224663004836799
 21
-0.9932216836203548
 31
0.0
 12
5.380036913720871
 22
-4.226618184355297
 32
0.0
 13
5.380036913720871
 23
-4.226618184355297
 33
0.0
  0
SOLID
  5
BB
330
AA
100
AcDbEntity
  8
CALQUE_1
 62
   250
100
AcDbTrace
 10
5.380036913720871
 20
-4.226618184355297
 30
0.0
 11
5.224663004836799
 21
-0.9932216836203548
 31
0.0
 12
5.380036913720871
 22
-0.8521449304318236
 32
0.0
 13
5.380036913720871
 23
-0.8521449304318236
 33
0.0
  0
SOLID
  5
BC
330
AA
100
AcDbEntity
  8
CALQUE_1
 62
   250
100
AcDbTrace
 10
5.380036913720871
 20
-4.226618184355297
 30
0.0
 11
5.380036913720871
 21
-0.8521449304318236
 31
0.0
 12
5.548329939197299
 22
-4.352536507408797
 32
0.0
 13
5.548329939197299
 23
-4.352536507408797
 33
0.0
  0
SOLID
  5
BD
330
AA
100
AcDbEntity
  8
CALQUE_1
 62
   250
100
AcDbTrace
 10
5.548329939197299
 20
-4.352536507408797
 30
0.0
 11
5.380036913720871
 21
-0.8521449304318236
 31
0.0
 12
5.548329939197299
 22
-0.7262266073783239
 32
0.0
 13
5.548329939197299
 23
-0.7262266073783239
 33
0.0
  0
SOLID
  5
BE
330
AA
100
AcDbEntity
  8
CALQUE_1
 62
   250
100
AcDbTrace
 10
5.548329939197299
 20
-4.352536507408797
 30
0.0
 11
5.548329939197299
 21
-0.7262266073783239
 31
0.0
 12
5.728508551938695
 22
-4.462090616111979
 32
0.0
 13
5.728508551938695
 23
-4.462090616111979
 33
0.0
  0
SOLID
  5
BF
330
AA
100
AcDbEntity
  8
CALQUE_1
 62
   250
100
AcDbTrace
 10
5.728508551938695
 20
-4.462090616111979
 30
0.0
 11
5.548329939197299
 21
-0.7262266073783239
 31
0.0
 12
5.728508551938695
 22
-0.6166724986751423
 32
0.0
 13
5.728508551938695
 23
-0.6166724986751423
 33
0.0
  0
SOLID
  5
C0
330
AA
100
AcDbEntity
  8
CALQUE_1
 62
   250
100
AcDbTrace
 10
5.728508551938695
 20
-4.462090616111979
 30
0.0
 11
5.728508551938695
 21
-0.6166724986751423
 31
0.0
 12
5.91971147750557
 22
-4.554074726249556
 32
0.0
 13
5.91971147750557
 23
-4.554074726249556
 33
0.0
  0
SOLID
  5
C1
330
AA
100
AcDbEntity
  8
CALQUE_1
 62
   250
100
AcDbTrace
 10
5.91971147750557
 20
-4.554074726249556
 30
0.0
 11
5.728508551938695
 21
-0.6166724986751423
 31
0.0
 12
5.91971147750557
 22
-0.5246883885375652
 32
0.0
 13
5.91971147750557
 23
-0.5246883885375652
 33
0.0
  0
SOLID
  5
C2
330
AA
100
AcDbEntity
  8
CALQUE_1
 62
   250
100
AcDbTrace
 10
5.91971147750557
 20
-4.554074726249556
 30
0.0
 11
5.91971147750557
 21
-0.5246883885375652
 31
0.0
 12
6.120732931682634
 22
-4.627627563382038
 32
0.0
 13
6.120732931682634
 23
-4.627627563382038
 33
0.0
  0
SOLID
  5
C3
330
AA
100
AcDbEntity
  8
CALQUE_1
 62
   250
100
AcDbTrace
 10
6.120732931682634
 20
-4.627627563382038
 30
0.0
 11
5.91971147750557
 21
-0.5246883885375652
 31
0.0
 12
6.120732931682634
 22
-0.4511355514050831
 32
0.0
 13
6.120732931682634
 23
-0.4511355514050831
 33
0.0
  0
SOLID
  5
C4
330
AA
100
AcDbEntity
  8
CALQUE_1
 62
   250
100
AcDbTrace
 10
6.120732931682634
 20
-4.627627563382038
 30
0.0
 11
6.120732931682634
 21
-0.4511355514050831
 31
0.0
 12
6.330194875366704
 22
-4.681543343294138
 32
0.0
 13
6.330194875366704
 23
-4.681543343294138
 33
0.0
  0
SOLID
  5
C5
330
AA
100
AcDbEntity
  8
CALQUE_1
 62
   250
100
AcDbTrace
 10
6.330194875366704
 20
-4.681543343294138
 30
0.0
 11
6.120732931682634
 21
-0.4511355514050831
 31
0.0
 12
6.330194875366704
 22
-0.3972197714929827
 32
0.0
 13
6.330194875366704
 23
-0.3972197714929827
 33
0.0
  0
SOLID
  5
C6
330
AA
100
AcDbEntity
  8
CALQUE_1
 62
   250
100
AcDbTrace
 10
6.330194875366704
 20
-4.681543343294138
 30
0.0
 11
6.330194875366704
 21
-0.3972197714929827
 31
0.0
 12
6.547236034118291
 22
-4.714616281770571
 32
0.0
 13
6.547236034118291
 23
-4.714616281770571
 33
0.0
  0
SOLID
  5
C7
330
AA
100
AcDbEntity
  8
CALQUE_1
 62
   250
100
AcDbTrace
 10
6.547236034118291
 20
-4.714616281770571
 30
0.0
 11
6.330194875366704
 21
-0.3972197714929827
 31
0.0
 12
6.547236034118291
 22
-0.3641468330165505
 32
0.0
 13
6.547236034118291
 23
-0.3641468330165505
 33
0.0
  0
SOLID
  5
C8
330
AA
100
AcDbEntity
  8
CALQUE_1
 62
   250
100
AcDbTrace
 10
6.547236034118291
 20
-4.714616281770571
 30
0.0
 11
6.547236034118291
 21
-0.3641468330165505
 31
0.0
 12
6.770822878610004
 22
-4.725985104371844
 32
0.0
 13
6.770822878610004
 23
-4.725985104371844
 33
0.0
  0
SOLID
  5
C9
330
AA
100
AcDbEntity
  8
CALQUE_1
 62
   250
100
AcDbTrace
 10
6.770822878610004
 20
-4.725985104371844
 30
0.0
 11
6.547236034118291
 21
-0.3641468330165505
 31
0.0
 12
6.770822878610004
 22
-0.3527780104152769
 32
0.0
 13
6.770822878610004
 23
-0.3527780104152769
 33
0.0
  0
SOLID
  5
CA
330
AA
100
AcDbEntity
  8
CALQUE_1
 62
   250
100
AcDbTrace
 10
-6.770822878610004
 20
-4.725985104371844
 30
0.0
 11
-6.770822878610004
 21
-0.3527780104152769
 31
0.0
 12
-6.994409723101718
 22
-4.714616281770571
 32
0.0
 13
-6.994409723101718
 23
-4.714616281770571
 33
0.0
210
0.0
220
0.0
230
-1.0
  0
SOLID
  5
CB
330
AA
100
AcDbEntity
  8
CALQUE_1
 62
   250
100
AcDbTrace
 10
-6.994409723101718
 20
-4.714616281770571
 30
0.0
 11
-6.770822878610004
 21
-0.3527780104152769
 31
0.0
 12
-6.994409723101718
 22
-0.3641468330165505
 32
0.0
 13
-6.994409723101718
 23
-0.3641468330165505
 33
0.0
210
0.0
220
0.0
230
-1.0
  0
SOLID
  5
CC
330
AA
100
AcDbEntity
  8
CALQUE_1
 62
   250
100
AcDbTrace
 10
-6.994409723101718
 20
-4.714616281770571
 30
0.0
 11
-6.994409723101718
 21
-0.3641468330165505
 31
0.0
 12
-7.211450881853304
 22
-4.681543343294138
 32
0.0
 13
-7.211450881853304
 23
-4.681543343294138
 33
0.0
210
0.0
220
0.0
230
-1.0
  0
SOLID
  5
CD
330
AA
100
AcDbEntity
  8
CALQUE_1
 62
   250
100
AcDbTrace
 10
-7.211450881853304
 20
-4.681543343294138
 30
0.0
 11
-6.994409723101718
 21
-0.3641468330165505
 31
0.0
 12
-7.211450881853304
 22
-0.3972197714929827
 32
0.0
 13
-7.211450881853304
 23
-0.3972197714929827
 33
0.0
210
0.0
220
0.0
230
-1.0
  0
SOLID
  5
CE
330
AA
100
AcDbEntity
  8
CALQUE_1
 62
   250
100
AcDbTrace
 10
-7.211450881853304
 20
-4.681543343294138
 30
0.0
 11
-7.211450881853304
 21
-0.3972197714929827
 31
0.0
 12
-7.421085080425273
 22
-4.627627563382038
 32
0.0
 13
-7.421085080425273
 23
-4.627627563382038
 33
0.0
210
0.0
220
0.0
230
-1.0
  0
SOLID
  5
CF
330
AA
100
AcDbEntity
  8
CALQUE_1
 62
   250
100
AcDbTrace
 10
-7.421085080425273
 20
-4.627627563382038
 30
0.0
 11
-7.211450881853304
 21
-0.3972197714929827
 31
0.0
 12
-7.421085080425273
 22
-0.4511355514050831
 32
0.0
 13
-7.421085080425273
 23
-0.4511355514050831
 33
0.0
210
0.0
220
0.0
230
-1.0
  0
SOLID
  5
D0
330
AA
100
AcDbEntity
  8
CALQUE_1
 62
   250
100
AcDbTrace
 10
-7.421085080425273
 20
-4.627627563382038
 30
0.0
 11
-7.421085080425273
 21
-0.4511355514050831
 31
0.0
 12
-7.62193427971444
 22
-4.554074726249556
 32
0.0
 13
-7.62193427971444
 23
-4.554074726249556
 33
0.0
210
0.0
220
0.0
230
-1.0
  0
SOLID
  5
D1
330
AA
100
AcDbEntity
  8
CALQUE_1
 62
   250
100
AcDbTrace
 10
-7.62193427971444
 20
-4.554074726249556
 30
0.0
 11
-7.421085080425273
 21
-0.4511355514050831
 31
0.0
 12
-7.62193427971444
 22
-0.5246883885375652
 32
0.0
 13
-7.62193427971444
 23
-0.5246883885375652
 33
0.0
210
0.0
220
0.0
230
-1.0
  0
SOLID
  5
D2
330
AA
100
AcDbEntity
  8
CALQUE_1
 62
   250
100
AcDbTrace
 10
-7.62193427971444
 20
-4.554074726249556
 30
0.0
 11
-7.62193427971444
 21
-0.5246883885375652
 31
0.0
 12
-7.813137205281313
 22
-4.462090616111979
 32
0.0
 13
-7.813137205281313
 23
-4.462090616111979
 33
0.0
210
0.0
220
0.0
230
-1.0
  0
SOLID
  5
D3
330
AA
100
AcDbEntity
  8
CALQUE_1
 62
   250
100
AcDbTrace
 10
-7.813137205281313
 20
-4.462090616111979
 30
0.0
 11
-7.62193427971444
 21
-0.5246883885375652
 31
0.0
 12
-7.813137205281313
 22
-0.6166724986751423
 32
0.0
 13
-7.813137205281313
 23
-0.6166724986751423
 33
0.0
210
0.0
220
0.0
230
-1.0
  0
SOLID
  5
D4
330
AA
100
AcDbEntity
  8
CALQUE_1
 62
   250
100
AcDbTrace
 10
-7.813137205281313
 20
-4.462090616111979
 30
0.0
 11
-7.813137205281313
 21
-0.6166724986751423
 31
0.0
 12
-7.993488072910607
 22
-4.352536507408797
 32
0.0
 13
-7.993488072910607
 23
-4.352536507408797
 33
0.0
210
0.0
220
0.0
230
-1.0
  0
SOLID
  5
D5
330
AA
100
AcDbEntity
  8
CALQUE_1
 62
   250
100
AcDbTrace
 10
-7.993488072910607
 20
-4.352536507408797
 30
0.0
 11
-7.813137205281313
 21
-0.6166724986751423
 31
0.0
 12
-7.993488072910607
 22
-0.7262266073783239
 32
0.0
 13
-7.993488072910607
 23
-0.7262266073783239
 33
0.0
210
0.0
220
0.0
230
-1.0
  0
SOLID
  5
D6
330
AA
100
AcDbEntity
  8
CALQUE_1
 62
   250
100
AcDbTrace
 10
-7.993488072910607
 20
-4.352536507408797
 30
0.0
 11
-7.993488072910607
 21
-0.7262266073783239
 31
0.0
 12
-8.161781098387037
 22
-4.226618184355297
 32
0.0
 13
-8.161781098387037
 23
-4.226618184355297
 33
0.0
210
0.0
220
0.0
230
-1.0
  0
SOLID
  5
D7
330
AA
100
AcDbEntity
  8
CALQUE_1
 62
   250
100
AcDbTrace
 10
-8.161781098387037
 20
-4.226618184355297
 30
0.0
 11
-7.993488072910607
 21
-0.7262266073783239
 31
0.0
 12
-8.161781098387037
 22
-0.8521449304318236
 32
0.0
 13
-8.161781098387037
 23
-0.8521449304318236
 33
0.0
210
0.0
220
0.0
230
-1.0
  0
SOLID
  5
D8
330
AA
100
AcDbEntity
  8
CALQUE_1
 62
   250
100
AcDbTrace
 10
-8.161781098387037
 20
-4.226618184355297
 30
0.0
 11
-8.161781098387037
 21
-0.8521449304318236
 31
0.0
 12
-8.31698275238321
 22
-4.085541431166766
 32
0.0
 13
-8.31698275238321
 23
-4.085541431166766
 33
0.0
210
0.0
220
0.0
230
-1.0
  0
SOLID
  5
D9
330
AA
100
AcDbEntity
  8
CALQUE_1
 62
   250
100
AcDbTrace
 10
-8.31698275238321
 20
-4.085541431166766
 30
0.0
 11
-8.161781098387037
 21
-0.8521449304318236
 31
0.0
 12
-8.31698275238321
 22
-0.9932216836203548
 32
0.0
 13
-8.31698275238321
 23
-0.9932216836203548
 33
0.0
210
0.0
220
0.0
230
-1.0
  0
SOLID
  5
DA
330
AA
100
AcDbEntity
  8
CALQUE_1
 62
   250
100
AcDbTrace
 10
-8.31698275238321
 20
-4.085541431166766
 30
0.0
 11
-8.31698275238321
 21
-0.9932216836203548
 31
0.0
 12
-8.458059505571741
 22
-3.930167522282694
 32
0.0
 13
-8.458059505571741
 23
-3.930167522282694
 33
0.0
210
0.0
220
0.0
230
-1.0
  0
SOLID
  5
DB
330
AA
100
AcDbEntity
  8
CALQUE_1
 62
   250
100
AcDbTrace
 10
-8.458059505571741
 20
-3.930167522282694
 30
0.0
 11
-8.31698275238321
 21
-0.9932216836203548
 31
0.0
 12
-8.458059505571741
 22
-1.148595592504427
 32
0.0
 13
-8.458059505571741
 23
-1.148595592504427
 33
0.0
210
0.0
220
0.0
230
-1.0
  0
SOLID
  5
DC
330
AA
100
AcDbEntity
  8
CALQUE_1
 62
   250
100
AcDbTrace
 10
-8.458059505571741
 20
-3.930167522282694
 30
0.0
 11
-8.458059505571741
 21
-1.148595592504427
 31
0.0
 12
-8.58397782862524
 22
-3.762046751694164
 32
0.0
 13
-8.58397782862524
 23
-3.762046751694164
 33
0.0
210
0.0
220
0.0
230
-1.0
  0
SOLID
  5
DD
330
AA
100
AcDbEntity
  8
CALQUE_1
 62
   250
100
AcDbTrace
 10
-8.58397782862524
 20
-3.762046751694164
 30
0.0
 11
-8.458059505571741
 21
-1.148595592504427
 31
0.0
 12
-8.58397782862524
 22
-1.316888617980855
 32
0.0
 13
-8.58397782862524
 23
-1.316888617980855
 33
0.0
210
0.0
220
0.0
230
-1.0
  0
SOLID
  5
DE
330
AA
100
AcDbEntity
  8
CALQUE_1
 62
   250
100
AcDbTrace
 10
-8.58397782862524
 20
-3.762046751694164
 30
0.0
 11
-8.58397782862524
 21
-1.316888617980855
 31
0.0
 12
-8.693531937328423
 22
-3.581351374289073
 32
0.0
 13
-8.693531937328423
 23
-3.581351374289073
 33
0.0
210
0.0
220
0.0
230
-1.0
  0
SOLID
  5
DF
330
AA
100
AcDbEntity
  8
CALQUE_1
 62
   250
100
AcDbTrace
 10
-8.693531937328423
 20
-3.581351374289073
 30
0.0
 11
-8.58397782862524
 21
-1.316888617980855
 31
0.0
 12
-8.693531937328423
 22
-1.49723948561015
 32
0.0
 13
-8.693531937328423
 23
-1.49723948561015
 33
0.0
210
0.0
220
0.0
230
-1.0
  0
SOLID
  5
E0
330
AA
100
AcDbEntity
  8
CALQUE_1
 62
   250
100
AcDbTrace
 10
-8.693531937328423
 20
-3.581351374289073
 30
0.0
 11
-8.693531937328423
 21
-1.49723948561015
 31
0.0
 12
-8.785516047466
 22
-3.390320703610098
 32
0.0
 13
-8.785516047466
 23
-3.390320703610098
 33
0.0
210
0.0
220
0.0
230
-1.0
  0
SOLID
  5
E1
330
AA
100
AcDbEntity
  8
CALQUE_1
 62
   250
100
AcDbTrace
 10
-8.785516047466
 20
-3.390320703610098
 30
0.0
 11
-8.693531937328423
 21
-1.49723948561015
 31
0.0
 12
-8.785516047466
 22
-1.688270156289125
 32
0.0
 13
-8.785516047466
 23
-1.688270156289125
 33
0.0
210
0.0
220
0.0
230
-1.0
  0
SOLID
  5
E2
330
AA
100
AcDbEntity
  8
CALQUE_1
 62
   250
100
AcDbTrace
 10
-8.785516047466
 20
-3.390320703610098
 30
0.0
 11
-8.785516047466
 21
-1.688270156289125
 31
0.0
 12
-8.85924113948638
 22
-3.189471504320931
 32
0.0
 13
-8.85924113948638
 23
-3.189471504320931
 33
0.0
210
0.0
220
0.0
230
-1.0
  0
SOLID
  5
E3
330
AA
100
AcDbEntity
  8
CALQUE_1
 62
   250
100
AcDbTrace
 10
-8.85924113948638
 20
-3.189471504320931
 30
0.0
 11
-8.785516047466
 21
-1.688270156289125
 31
0.0
 12
-8.85924113948638
 22
-1.88929161046619
 32
0.0
 13
-8.85924113948638
 23
-1.88929161046619
 33
0.0
210
0.0
220
0.0
230
-1.0
  0
SOLID
  5
E4
330
AA
100
AcDbEntity
  8
CALQUE_1
 62
   250
100
AcDbTrace
 10
-8.85924113948638
 20
-3.189471504320931
 30
0.0
 11
-8.85924113948638
 21
-1.88929161046619
 31
0.0
 12
-8.912984664510581
 22
-2.98000956063686
 32
0.0
 13
-8.912984664510581
 23
-2.98000956063686
 33
0.0
210
0.0
220
0.0
230
-1.0
  0
SOLID
  5
E5
330
AA
100
AcDbEntity
  8
CALQUE_1
 62
   250
100
AcDbTrace
 10
-8.912984664510581
 20
-2.98000956063686
 30
0.0
 11
-8.85924113948638
 21
-1.88929161046619
 31
0.0
 12
-8.912984664510581
 22
-2.098581299262363
 32
0.0
 13
-8.912984664510581
 23
-2.098581299262363
 33
0.0
210
0.0
220
0.0
230
-1.0
  0
SOLID
  5
E6
330
AA
100
AcDbEntity
  8
CALQUE_1
 62
   250
100
AcDbTrace
 10
-8.912984664510581
 20
-2.98000956063686
 30
0.0
 11
-8.912984664510581
 21
-2.098581299262363
 31
0.0
 12
-8.946229857874913
 22
-2.762796146997376
 32
0.0
 13
-8.946229857874913
 23
-2.762796146997376
 33
0.0
210
0.0
220
0.0
230
-1.0
  0
SOLID
  5
E7
330
AA
100
AcDbEntity
  8
CALQUE_1
 62
   250
100
AcDbTrace
 10
-8.946229857874913
 20
-2.762796146997376
 30
0.0
 11
-8.912984664510581
 21
-2.098581299262363
 31
0.0
 12
-8.946229857874913
 22
-2.315794712901847
 32
0.0
 13
-8.946229857874913
 23
-2.315794712901847
 33
0.0
210
0.0
220
0.0
230
-1.0
  0
SOLID
  5
E8
330
AA
100
AcDbEntity
  8
CALQUE_1
 62
   250
100
AcDbTrace
 10
-8.946229857874913
 20
-2.762796146997376
 30
0.0
 11
-8.946229857874913
 21
-2.315794712901847
 31
0.0
 12
-8.957426425588288
 22
-2.539381557393561
 32
0.0
 13
-8.957426425588288
 23
-2.539381557393561
 33
0.0
210
0.0
220
0.0
230
-1.0
  0
ENDBLK
  5
EA
330
AA
100
AcDbEntity
  8
0
100
AcDbBlockEnd
  0
BLOCK
  5
F0
330
EB
100
AcDbEntity
  8
0
100
AcDbBlockBegin
  2
*U5
 70
     1
 71
     0
 10
0.0
 20
0.0
 30
0.0
  3
*U5
  1

  0
SOLID
  5
EC
330
EB
100
AcDbEntity
  8
CALQUE_1
 62
   250
100
AcDbTrace
 10
-14.04893640207987
 20
-4.641924719077579
 30
0.0
 11
-14.04893640207987
 21
-0.436666140821644
 31
0.0
 12
-15.98525359694223
 22
-4.641924719077579
 32
0.0
 13
-15.98525359694223
 23
-4.641924719077579
 33
0.0
210
0.0
220
0.0
230
-1.0
  0
SOLID
  5
ED
330
EB
100
AcDbEntity
  8
CALQUE_1
 62
   250
100
AcDbTrace
 10
-15.98525359694223
 20
-4.641924719077579
 30
0.0
 11
-14.04893640207987
 21
-0.436666140821644
 31
0.0
 12
-15.98525359694223
 22
-1.755794072345175
 32
0.0
 13
-15.98525359694223
 23
-1.755794072345175
 33
0.0
210
0.0
220
0.0
230
-1.0
  0
SOLID
  5
EE
330
EB
100
AcDbEntity
  8
CALQUE_1
 62
   250
100
AcDbTrace
 10
-15.98525359694223
 20
-4.641924719077579
 30
0.0
 11
-15.98525359694223
 21
-1.755794072345175
 31
0.0
 12
-17.92105402714091
 22
-4.641924719077579
 32
0.0
 13
-17.92105402714091
 23
-4.641924719077579
 33
0.0
210
0.0
220
0.0
230
-1.0
  0
SOLID
  5
EF
330
EB
100
AcDbEntity
  8
CALQUE_1
 62
   250
100
AcDbTrace
 10
17.92105402714091
 20
-4.641924719077579
 30
0.0
 11
15.98525359694223
 21
-1.755794072345175
 31
0.0
 12
17.92105402714091
 22
-0.4366661408216439
 32
0.0
 13
17.92105402714091
 23
-0.4366661408216439
 33
0.0
  0
ENDBLK
  5
F1
330
EB
100
AcDbEntity
  8
0
100
AcDbBlockEnd
  0
ENDSEC
  0
SECTION
  2
ENTITIES
  0
INSERT
  5
3D
330
1F
100
AcDbEntity
  8
CALQUE_1
100
AcDbBlockReference
  2
BLOCK_2
 10
0.0
 20
0.0
 30
0.0
  0
ENDSEC
  0
SECTION
  2
OBJECTS
  0
DICTIONARY
  5
C
330
0
100
AcDbDictionary
  3
ACAD_GROUP
350
D
  3
ACAD_LAYOUT
350
1A
  3
ACAD_MLINESTYLE
350
17
  3
ACAD_PLOTSETTINGS
350
19
  3
ACAD_TABLESTYLE
350
5B
  3
ACAD_VISUALSTYLE
350
2A
1001
ACAD
1000
TREAT_AS_HARD
1070
     0
  0
DICTIONARY
  5
D
102
{ACAD_REACTORS
330
C
102
}
330
C
100
AcDbDictionary
1001
ACAD
1000
TREAT_AS_HARD
1070
     0
  0
DICTIONARY
  5
1A
102
{ACAD_REACTORS
330
C
102
}
330
C
100
AcDbDictionary
1001
ACAD
1000
TREAT_AS_HARD
1070
     0
  0
DICTIONARY
  5
17
102
{ACAD_REACTORS
330
C
102
}
330
C
100
AcDbDictionary
  3
STANDARD
350
18
1001
ACAD
1000
TREAT_AS_HARD
1070
     0
  0
DICTIONARY
  5
19
102
{ACAD_REACTORS
330
C
102
}
330
C
100
AcDbDictionary
1001
ACAD
1000
TREAT_AS_HARD
1070
     0
  0
DICTIONARY
  5
5B
102
{ACAD_REACTORS
330
C
102
}
330
C
100
AcDbDictionary
1001
ACAD
1000
TREAT_AS_HARD
1070
     0
  0
DICTIONARY
  5
2A
102
{ACAD_REACTORS
330
C
102
}
330
C
100
AcDbDictionary
  3
2DWIREFRAME
350
2F
  3
3DWIREFRAME
350
30
  3
3D_HIDDEN
350
31
  3
BASIC
350
32
  3
BRIGHTEN
350
36
  3
COLORCHANGE
350
3A
  3
CONCEPTUAL
350
34
  3
DIM
350
35
  3
FACEPATTERN
350
39
  3
FLAT
350
2B
  3
FLATWITHEDGES
350
2C
  3
GOURAUD
350
2D
  3
GOURAUDWITHEDGES
350
2E
  3
LINEPATTERN
350
38
  3
REALISTIC
350
33
  3
THICKEN
350
37
1001
ACAD
1000
TREAT_AS_HARD
1070
     0
  0
MLINESTYLE
  5
18
102
{ACAD_REACTORS
330
17
102
}
330
17
100
AcDbMlineStyle
  2
Standard
 70
     0
  3

 62
   256
 51
90.0
 52
90.0
 71
     2
 49
0.5
 62
   256
  6
BYLAYER
 49
-0.5
 62
   256
  6
BYLAYER
  0
VISUALSTYLE
  5
2F
102
{ACAD_REACTORS
330
2A
102
}
330
2A
100
AcDbVisualStyle
  2
2dWireframe
 70
     4
 71
     0
 72
     2
 73
     0
 90
        0
 40
-0.6
 41
-30.0
 62
     5
 63
     7
 74
     1
 91
        4
 64
     7
 65
   257
 75
     1
175
     1
 42
1.0
 92
        0
 66
   257
 43
1.0
 76
     1
 77
     6
 78
     2
 67
     7
 79
     5
170
     0
171
     0
290
     0
174
     0
 93
        1
 44
0.0
173
     0
291
     0
 45
0.0
1001
ACAD
1000
AcDbSavedByObjectVersion
1070
     0
  0
VISUALSTYLE
  5
30
102
{ACAD_REACTORS
330
2A
102
}
330
2A
100
AcDbVisualStyle
  2
3dWireframe
 70
     5
 71
     0
 72
     2
 73
     0
 90
        0
 40
-0.6
 41
-30.0
 62
     5
 63
     7
 74
     1
 91
        4
 64
     7
 65
   257
 75
     1
175
     1
 42
1.0
 92
        0
 66
   257
 43
1.0
 76
     1
 77
     6
 78
     2
 67
     7
 79
     5
170
     0
171
     0
290
     0
174
     0
 93
        1
 44
0.0
173
     0
291
     0
 45
0.0
1001
ACAD
1000
AcDbSavedByObjectVersion
1070
     0
  0
VISUALSTYLE
  5
31
102
{ACAD_REACTORS
330
2A
102
}
330
2A
100
AcDbVisualStyle
  2
3D Hidden
 70
     6
 71
     1
 72
     2
 73
     2
 90
        0
 40
-0.6
 41
-30.0
 62
     5
 63
     7
 74
     2
 91
        2
 64
     7
 65
   257
 75
     2
175
     1
 42
40.0
 92
        0
 66
   257
 43
1.0
 76
     1
 77
     6
 78
     2
 67
     7
 79
     3
170
     0
171
     0
290
     0
174
     0
 93
        1
 44
0.0
173
     0
291
     0
 45
0.0
1001
ACAD
1000
AcDbSavedByObjectVersion
1070
     0
  0
VISUALSTYLE
  5
32
102
{ACAD_REACTORS
330
2A
102
}
330
2A
100
AcDbVisualStyle
  2
Basic
 70
     7
 71
     1
 72
     0
 73
     1
 90
        0
 40
-0.6
 41
-30.0
 62
     5
 63
     7
 74
     0
 91
        4
 64
     7
 65
   257
 75
     1
175
     1
 42
1.0
 92
        8
 66
     7
 43
1.0
 76
     1
 77
     6
 78
     2
 67
     7
 79
     5
170
     0
171
     0
290
     0
174
     0
 93
        1
 44
0.0
173
     0
291
     1
 45
0.0
1001
ACAD
1000
AcDbSavedByObjectVersion
1070
     0
  0
VISUALSTYLE
  5
36
102
{ACAD_REACTORS
330
2A
102
}
330
2A
100
AcDbVisualStyle
  2
Brighten
 70
    12
 71
     2
 72
     2
 73
     0
 90
        0
 40
-0.6
 41
-30.0
 62
     5
 63
     7
 74
     1
 91
        4
 64
     7
 65
   257
 75
     1
175
     1
 42
1.0
 92
        8
 66
     7
 43
1.0
 76
     1
 77
     6
 78
     2
 67
     7
 79
     5
170
     0
171
     0
290
     0
174
     0
 93
        1
 44
50.0
173
     0
291
     1
 45
0.0
1001
ACAD
1000
AcDbSavedByObjectVersion
1070
     0
  0
VISUALSTYLE
  5
3A
102
{ACAD_REACTORS
330
2A
102
}
330
2A
100
AcDbVisualStyle
  2
ColorChange
 70
    16
 71
     2
 72
     2
 73
     3
 90
        0
 40
-0.6
 41
-30.0
 62
     5
 63
     8
 74
     1
 91
        4
 64
     7
 65
   257
 75
     1
175
     1
 42
1.0
 92
        8
 66
     8
 43
1.0
 76
     1
 77
     6
 78
     2
 67
     7
 79
     5
170
     0
171
     0
290
     0
174
     0
 93
        1
 44
0.0
173
     0
291
     1
 45
0.0
1001
ACAD
1000
AcDbSavedByObjectVersion
1070
     0
  0
VISUALSTYLE
  5
34
102
{ACAD_REACTORS
330
2A
102
}
330
2A
100
AcDbVisualStyle
  2
Conceptual
 70
     9
 71
     3
 72
     2
 73
     0
 90
        0
 40
-0.6
 41
-30.0
 62
     5
 63
     7
 74
     2
 91
        2
 64
     7
 65
   257
 75
     1
175
     1
 42
40.0
 92
        8
 66
     7
 43
1.0
 76
     1
 77
     6
 78
     2
 67
     7
 79
     3
170
     0
171
     0
290
     0
174
     0
 93
        1
 44
0.0
173
     0
291
     0
 45
0.0
1001
ACAD
1000
AcDbSavedByObjectVersion
1070
     0
  0
VISUALSTYLE
  5
35
102
{ACAD_REACTORS
330
2A
102
}
330
2A
100
AcDbVisualStyle
  2
Dim
 70
    11
 71
     2
 72
     2
 73
     0
 90
        0
 40
-0.6
 41
-30.0
 62
     5
 63
     7
 74
     1
 91
        4
 64
     7
 65
   257
 75
     1
175
     1
 42
1.0
 92
        8
 66
     7
 43
1.0
 76
     1
 77
     6
 78
     2
 67
     7
 79
     5
170
     0
171
     0
290
     0
174
     0
 93
        1
 44
-50.0
173
     0
291
     1
 45
0.0
1001
ACAD
1000
AcDbSavedByObjectVersion
1070
     0
  0
VISUALSTYLE
  5
39
102
{ACAD_REACTORS
330
2A
102
}
330
2A
100
AcDbVisualStyle
  2
Facepattern
 70
    15
 71
     2
 72
     2
 73
     0
 90
        0
 40
-0.6
 41
-30.0
 62
     5
 63
     7
 74
     1
 91
        4
 64
     7
 65
   257
 75
     1
175
     1
 42
1.0
 92
        8
 66
     7
 43
1.0
 76
     1
 77
     6
 78
     2
 67
     7
 79
     5
170
     0
171
     0
290
     0
174
     0
 93
        1
 44
0.0
173
     0
291
     1
 45
0.0
1001
ACAD
1000
AcDbSavedByObjectVersion
1070
     0
  0
VISUALSTYLE
  5
2B
102
{ACAD_REACTORS
330
2A
102
}
330
2A
100
AcDbVisualStyle
  2
Flat
 70
     0
 71
     2
 72
     1
 73
     1
 90
        2
 40
-0.6
 41
30.0
 62
     5
 63
     7
 74
     0
 91
        4
 64
     7
 65
   257
 75
     1
175
     1
 42
1.0
 92
        8
 66
     7
 43
1.0
 76
     1
 77
     6
 78
     2
 67
     7
 79
     5
170
     0
171
     0
290
     0
174
     0
 93
       13
 44
0.0
173
     0
291
     1
 45
0.0
1001
ACAD
1000
AcDbSavedByObjectVersion
1070
     0
  0
VISUALSTYLE
  5
2C
102
{ACAD_REACTORS
330
2A
102
}
330
2A
100
AcDbVisualStyle
  2
FlatWithEdges
 70
     1
 71
     2
 72
     1
 73
     1
 90
        2
 40
-0.6
 41
30.0
 62
     5
 63
     7
 74
     1
 91
        4
 64
     7
 65
   257
 75
     1
175
     1
 42
1.0
 92
        0
 66
   257
 43
1.0
 76
     1
 77
     6
 78
     2
 67
     7
 79
     5
170
     0
171
     0
290
     0
174
     0
 93
       13
 44
0.0
173
     0
291
     1
 45
0.0
1001
ACAD
1000
AcDbSavedByObjectVersion
1070
     0
  0
VISUALSTYLE
  5
2D
102
{ACAD_REACTORS
330
2A
102
}
330
2A
100
AcDbVisualStyle
  2
Gouraud
 70
     2
 71
     2
 72
     2
 73
     1
 90
        2
 40
-0.6
 41
30.0
 62
     5
 63
     7
 74
     0
 91
        4
 64
     7
 65
   257
 75
     1
175
     1
 42
1.0
 92
        0
 66
     7
 43
1.0
 76
     1
 77
     6
 78
     2
 67
     7
 79
     5
170
     0
171
     0
290
     0
174
     0
 93
       13
 44
0.0
173
     0
291
     1
 45
0.0
1001
ACAD
1000
AcDbSavedByObjectVersion
1070
     0
  0
VISUALSTYLE
  5
2E
102
{ACAD_REACTORS
330
2A
102
}
330
2A
100
AcDbVisualStyle
  2
GouraudWithEdges
 70
     3
 71
     2
 72
     2
 73
     1
 90
        2
 40
-0.6
 41
30.0
 62
     5
 63
     7
 74
     1
 91
        4
 64
     7
 65
   257
 75
     1
175
     1
 42
1.0
 92
        0
 66
   257
 43
1.0
 76
     1
 77
     6
 78
     2
 67
     7
 79
     5
170
     0
171
     0
290
     0
174
     0
 93
       13
 44
0.0
173
     0
291
     1
 45
0.0
1001
ACAD
1000
AcDbSavedByObjectVersion
1070
     0
  0
VISUALSTYLE
  5
38
102
{ACAD_REACTORS
330
2A
102
}
330
2A
100
AcDbVisualStyle
  2
Linepattern
 70
    14
 71
     2
 72
     2
 73
     0
 90
        0
 40
-0.6
 41
-30.0
 62
     5
 63
     7
 74
     1
 91
        4
 64
     7
 65
   257
 75
     7
175
     7
 42
1.0
 92
        8
 66
     7
 43
1.0
 76
     1
 77
     6
 78
     2
 67
     7
 79
     5
170
     0
171
     0
290
     0
174
     0
 93
        1
 44
0.0
173
     0
291
     1
 45
0.0
1001
ACAD
1000
AcDbSavedByObjectVersion
1070
     0
  0
VISUALSTYLE
  5
33
102
{ACAD_REACTORS
330
2A
102
}
330
2A
100
AcDbVisualStyle
  2
Realistic
 70
     8
 71
     2
 72
     2
 73
     0
 90
        0
 40
-0.6
 41
-30.0
 62
     5
 63
     7
 74
     1
 91
        0
 64
     7
 65
   257
 75
     1
175
     1
 42
1.0
 92
        8
 66
     8
 43
1.0
 76
     1
 77
     6
 78
     2
 67
     7
 79
     5
170
     0
171
     0
290
     0
174
     0
 93
       13
 44
0.0
173
     0
291
     0
 45
0.0
1001
ACAD
1000
AcDbSavedByObjectVersion
1070
     0
  0
VISUALSTYLE
  5
37
102
{ACAD_REACTORS
330
2A
102
}
330
2A
100
AcDbVisualStyle
  2
Thicken
 70
    13
 71
     2
 72
     2
 73
     0
 90
        0
 40
-0.6
 41
-30.0
 62
     5
 63
     7
 74
     1
 91
        4
 64
     7
 65
   257
 75
     1
175
     1
 42
1.0
 92
       12
 66
     7
 43
1.0
 76
     1
 77
     6
 78
     2
 67
     7
 79
     5
170
     0
171
     0
290
     0
174
     0
 93
        1
 44
0.0
173
     0
291
     1
 45
0.0
1001
ACAD
1000
AcDbSavedByObjectVersion
1070
     0
  0
ENDSEC
  0
EOF
