  0
SECTION
  2
HEADER
  9
$ACADVER
  1
AC1014
  9
$HANDSEED
  5
FFFF
  9
$MEASUREMENT
 70
     1
  0
ENDSEC
  0
SECTION
  2
TABLES
  0
TABLE
  2
VPORT
  5
8
330
0
100
AcDbSymbolTable
 70
     4
  0
VPORT
  5
2E
330
8
100
AcDbSymbolTableRecord
100
AcDbViewportTableRecord
  2
*ACTIVE
 70
     0
 10
0.0
 20
0.0
 11
1.0
 21
1.0
 12
210.0
 22
148.5
 13
0.0
 23
0.0
 14
10.0
 24
10.0
 15
10.0
 25
10.0
 16
0.0
 26
0.0
 36
1.0
 17
0.0
 27
0.0
 37
0.0
 40
341.0
 41
1.24
 42
50.0
 43
0.0
 44
0.0
 50
0.0
 51
0.0
 71
     0
 72
   100
 73
     1
 74
     3
 75
     0
 76
     0
 77
     0
 78
     0
  0
ENDTAB
  0
TABLE
  2
LTYPE
  5
5
330
0
100
AcDbSymbolTable
 70
     1
  0
LTYPE
  5
14
330
5
100
AcDbSymbolTableRecord
100
AcDbLinetypeTableRecord
  2
BYBLOCK
 70
     0
  3

 72
    65
 73
     0
 40
0.0
  0
LTYPE
  5
15
330
5
100
AcDbSymbolTableRecord
100
AcDbLinetypeTableRecord
  2
BYLAYER
 70
     0
  3

 72
    65
 73
     0
 40
0.0
  0
LTYPE
  5
16
330
5
100
AcDbSymbolTableRecord
100
AcDbLinetypeTableRecord
  2
CONTINUOUS
 70
     0
  3
Solid line
 72
    65
 73
     0
 40
0.0
  0
ENDTAB
  0
TABLE
  2
LAYER
  5
2
100
AcDbSymbolTable
 70
2
  0
LAYER
  5
50
100
AcDbSymbolTableRecord
100
AcDbLayerTableRecord
  2
0
 70
0
  6
CONTINUOUS
  0
LAYER
  5
51
100
AcDbSymbolTableRecord
100
AcDbLayerTableRecord
  2
CALQUE_1
 70
0
  6
CONTINUOUS
  0
ENDTAB
  0
TABLE
  2
STYLE
  5
3
330
0
100
AcDbSymbolTable
 70
     1
  0
STYLE
  5
11
330
3
100
AcDbSymbolTableRecord
100
AcDbTextStyleTableRecord
  2
STANDARD
 70
     0
 40
0.0
 41
1.0
 50
0.0
 71
     0
 42
2.5
  3
txt
  4

  0
ENDTAB
  0
TABLE
  2
VIEW
  5
6
330
0
100
AcDbSymbolTable
 70
     0
  0
ENDTAB
  0
TABLE
  2
UCS
  5
7
330
0
100
AcDbSymbolTable
 70
     0
  0
ENDTAB
  0
TABLE
  2
APPID
  5
9
330
0
100
AcDbSymbolTable
 70
     2
  0
APPID
  5
12
330
9
100
AcDbSymbolTableRecord
100
AcDbRegAppTableRecord
  2
ACAD
 70
     0
  0
ENDTAB
  0
TABLE
  2
DIMSTYLE
  5
A
330
0
100
AcDbSymbolTable
 70
     1
  0
DIMSTYLE
105
27
330
A
100
AcDbSymbolTableRecord
100
AcDbDimStyleTableRecord
  2
ISO-25
 70
     0
  3

  4

  5

  6

  7

 40
1.0
 41
2.5
 42
0.625
 43
3.75
 44
1.25
 45
0.0
 46
0.0
 47
0.0
 48
0.0
140
2.5
141
2.5
142
0.0
143
0.03937007874016
144
1.0
145
0.0
146
1.0
147
0.625
 71
     0
 72
     0
 73
     0
 74
     0
 75
     0
 76
     0
 77
     1
 78
     8
170
     0
171
     3
172
     1
173
     0
174
     0
175
     0
176
     0
177
     0
178
     0
270
     2
271
     2
272
     2
273
     2
274
     3
340
11
275
     0
280
     0
281
     0
282
     0
283
     0
284
     8
285
     0
286
     0
287
     3
288
     0
  0
ENDTAB
  0
TABLE
  2
BLOCK_RECORD
  5
1
330
0
100
AcDbSymbolTable
 70
     1
  0
BLOCK_RECORD
  5
1F
330
1
100
AcDbSymbolTableRecord
100
AcDbBlockTableRecord
  2
*MODEL_SPACE
  0
BLOCK_RECORD
  5
1B
330
1
100
AcDbSymbolTableRecord
100
AcDbBlockTableRecord
  2
*PAPER_SPACE
  0
ENDTAB
  0
ENDSEC
  0
SECTION
  2
BLOCKS
  0
BLOCK
  5
20
330
1F
100
AcDbEntity
  8
0
100
AcDbBlockBegin
  2
*MODEL_SPACE
 70
     0
 10
0.0
 20
0.0
 30
0.0
  3
*MODEL_SPACE
  1

  0
ENDBLK
  5
21
330
1F
100
AcDbEntity
  8
0
100
AcDbBlockEnd
  0
BLOCK
  5
1C
330
1B
100
AcDbEntity
 67
     1
  8
0
100
AcDbBlockBegin
  2
*PAPER_SPACE
  1

  0
ENDBLK
  5
1D
330
1B
100
AcDbEntity
 67
     1
  8
0
100
AcDbBlockEnd
  0
ENDSEC
  0
SECTION
  2
ENTITIES
  0
LWPOLYLINE
  5
100
100
AcDbEntity
  8
CALQUE_1
 62
7
100
AcDbPolyline
 90
288
 70
1
 10
13.926980
 20
10.543007
 30
0.0
 10
13.838787
 20
10.491757
 30
0.0
 10
13.750591
 20
10.440481
 30
0.0
 10
13.662397
 20
10.389231
 30
0.0
 10
13.574203
 20
10.337981
 30
0.0
 10
13.486007
 20
10.286731
 30
0.0
 10
13.397814
 20
10.235455
 30
0.0
 10
13.309620
 20
10.184205
 30
0.0
 10
13.221424
 20
10.132956
 30
0.0
 10
13.133230
 20
10.081706
 30
0.0
 10
13.045037
 20
10.030430
 30
0.0
 10
12.956841
 20
9.979180
 30
0.0
 10
12.868647
 20
9.927930
 30
0.0
 10
12.780453
 20
9.876680
 30
0.0
 10
12.692257
 20
9.825404
 30
0.0
 10
12.604064
 20
9.774154
 30
0.0
 10
12.515867
 20
9.722904
 30
0.0
 10
12.427674
 20
9.671655
 30
0.0
 10
12.339480
 20
9.620378
 30
0.0
 10
12.251284
 20
9.569129
 30
0.0
 10
12.163091
 20
9.517879
 30
0.0
 10
12.074897
 20
9.466629
 30
0.0
 10
11.986701
 20
9.415353
 30
0.0
 10
11.898507
 20
9.364103
 30
0.0
 10
11.810314
 20
9.312853
 30
0.0
 10
11.722117
 20
9.261603
 30
0.0
 10
11.633924
 20
9.210327
 30
0.0
 10
11.545730
 20
9.159077
 30
0.0
 10
11.457534
 20
9.107828
 30
0.0
 10
11.369341
 20
9.056578
 30
0.0
 10
11.281147
 20
9.005301
 30
0.0
 10
11.192951
 20
8.954052
 30
0.0
 10
11.104757
 20
8.902802
 30
0.0
 10
11.115446
 20
8.884016
 30
0.0
 10
11.126136
 20
8.865231
 30
0.0
 10
11.136825
 20
8.846446
 30
0.0
 10
11.147514
 20
8.827660
 30
0.0
 10
11.158203
 20
8.808875
 30
0.0
 10
11.168892
 20
8.790089
 30
0.0
 10
11.179581
 20
8.771304
 30
0.0
 10
11.190271
 20
8.752519
 30
0.0
 10
11.200960
 20
8.733733
 30
0.0
 10
11.211649
 20
8.714948
 30
0.0
 10
11.222338
 20
8.696162
 30
0.0
 10
11.233027
 20
8.677377
 30
0.0
 10
11.243716
 20
8.658591
 30
0.0
 10
11.254406
 20
8.639806
 30
0.0
 10
11.265095
 20
8.621021
 30
0.0
 10
11.275784
 20
8.602235
 30
0.0
 10
11.286473
 20
8.583450
 30
0.0
 10
11.297162
 20
8.564664
 30
0.0
 10
11.307851
 20
8.545879
 30
0.0
 10
11.318541
 20
8.527094
 30
0.0
 10
11.329230
 20
8.508308
 30
0.0
 10
11.339919
 20
8.489523
 30
0.0
 10
11.350608
 20
8.470737
 30
0.0
 10
11.361297
 20
8.451952
 30
0.0
 10
11.371986
 20
8.433166
 30
0.0
 10
11.382676
 20
8.414381
 30
0.0
 10
11.393365
 20
8.395596
 30
0.0
 10
11.404054
 20
8.376810
 30
0.0
 10
11.414743
 20
8.358025
 30
0.0
 10
11.425432
 20
8.339239
 30
0.0
 10
11.436121
 20
8.320454
 30
0.0
 10
11.446811
 20
8.301669
 30
0.0
 10
11.459220
 20
8.309077
 30
0.0
 10
11.471628
 20
8.316485
 30
0.0
 10
11.484037
 20
8.323894
 30
0.0
 10
11.496446
 20
8.331302
 30
0.0
 10
11.508855
 20
8.338710
 30
0.0
 10
11.521264
 20
8.346119
 30
0.0
 10
11.533673
 20
8.353527
 30
0.0
 10
11.546082
 20
8.360935
 30
0.0
 10
11.558491
 20
8.368344
 30
0.0
 10
11.570900
 20
8.375752
 30
0.0
 10
11.583309
 20
8.383160
 30
0.0
 10
11.595718
 20
8.390569
 30
0.0
 10
11.608127
 20
8.397977
 30
0.0
 10
11.620536
 20
8.405385
 30
0.0
 10
11.632945
 20
8.412794
 30
0.0
 10
11.645354
 20
8.420202
 30
0.0
 10
11.657763
 20
8.427610
 30
0.0
 10
11.670172
 20
8.435019
 30
0.0
 10
11.682581
 20
8.442427
 30
0.0
 10
11.694990
 20
8.449835
 30
0.0
 10
11.707399
 20
8.457244
 30
0.0
 10
11.719808
 20
8.464652
 30
0.0
 10
11.732217
 20
8.472060
 30
0.0
 10
11.744626
 20
8.479469
 30
0.0
 10
11.757035
 20
8.486877
 30
0.0
 10
11.769443
 20
8.494285
 30
0.0
 10
11.781852
 20
8.501694
 30
0.0
 10
11.794261
 20
8.509102
 30
0.0
 10
11.806670
 20
8.516510
 30
0.0
 10
11.819079
 20
8.523919
 30
0.0
 10
11.831488
 20
8.531327
 30
0.0
 10
11.843897
 20
8.538735
 30
0.0
 10
11.997247
 20
8.273464
 30
0.0
 10
12.150597
 20
8.008193
 30
0.0
 10
12.303947
 20
7.742921
 30
0.0
 10
12.457297
 20
7.477650
 30
0.0
 10
12.610647
 20
7.212379
 30
0.0
 10
12.763996
 20
6.947108
 30
0.0
 10
12.917346
 20
6.681836
 30
0.0
 10
13.070696
 20
6.416539
 30
0.0
 10
13.224046
 20
6.151268
 30
0.0
 10
13.377396
 20
5.885996
 30
0.0
 10
13.530746
 20
5.620725
 30
0.0
 10
13.684095
 20
5.355454
 30
0.0
 10
13.837445
 20
5.090183
 30
0.0
 10
13.990795
 20
4.824911
 30
0.0
 10
14.144145
 20
4.559640
 30
0.0
 10
14.297495
 20
4.294369
 30
0.0
 10
14.450845
 20
4.029098
 30
0.0
 10
14.604195
 20
3.763826
 30
0.0
 10
14.757544
 20
3.498555
 30
0.0
 10
14.910894
 20
3.233284
 30
0.0
 10
15.064244
 20
2.968013
 30
0.0
 10
15.217594
 20
2.702741
 30
0.0
 10
15.370944
 20
2.437470
 30
0.0
 10
15.524294
 20
2.172172
 30
0.0
 10
15.677644
 20
1.906901
 30
0.0
 10
15.830993
 20
1.641630
 30
0.0
 10
15.984343
 20
1.376359
 30
0.0
 10
16.137693
 20
1.111087
 30
0.0
 10
16.291043
 20
0.845816
 30
0.0
 10
16.444393
 20
0.580545
 30
0.0
 10
16.597743
 20
0.315274
 30
0.0
 10
16.751093
 20
0.050002
 30
0.0
 10
16.230329
 20
0.050002
 30
0.0
 10
15.709563
 20
0.050002
 30
0.0
 10
15.188799
 20
0.050002
 30
0.0
 10
14.668036
 20
0.050002
 30
0.0
 10
14.147272
 20
0.050002
 30
0.0
 10
13.626506
 20
0.050002
 30
0.0
 10
13.105743
 20
0.050002
 30
0.0
 10
12.584979
 20
0.050002
 30
0.0
 10
12.064216
 20
0.050002
 30
0.0
 10
11.543450
 20
0.050002
 30
0.0
 10
11.022686
 20
0.050002
 30
0.0
 10
10.501923
 20
0.050002
 30
0.0
 10
9.981159
 20
0.050002
 30
0.0
 10
9.460393
 20
0.050002
 30
0.0
 10
8.939629
 20
0.050002
 30
0.0
 10
8.418866
 20
0.050002
 30
0.0
 10
7.898102
 20
0.050002
 30
0.0
 10
7.377336
 20
0.050002
 30
0.0
 10
6.856573
 20
0.050002
 30
0.0
 10
6.335809
 20
0.050002
 30
0.0
 10
5.815044
 20
0.050002
 30
0.0
 10
5.294280
 20
0.050002
 30
0.0
 10
4.773516
 20
0.050002
 30
0.0
 10
4.252752
 20
0.050002
 30
0.0
 10
3.731987
 20
0.050002
 30
0.0
 10
3.211223
 20
0.050002
 30
0.0
 10
2.690459
 20
0.050002
 30
0.0
 10
2.169695
 20
0.050002
 30
0.0
 10
1.648931
 20
0.050002
 30
0.0
 10
1.128166
 20
0.050002
 30
0.0
 10
0.607402
 20
0.050002
 30
0.0
 10
0.086638
 20
0.050002
 30
0.0
 10
0.328758
 20
0.469129
 30
0.0
 10
0.570879
 20
0.888229
 30
0.0
 10
0.812999
 20
1.307355
 30
0.0
 10
1.055120
 20
1.726482
 30
0.0
 10
1.297240
 20
2.145582
 30
0.0
 10
1.539360
 20
2.564708
 30
0.0
 10
1.781481
 20
2.983835
 30
0.0
 10
2.023601
 20
3.402935
 30
0.0
 10
2.265722
 20
3.822061
 30
0.0
 10
2.507842
 20
4.241188
 30
0.0
 10
2.749962
 20
4.660314
 30
0.0
 10
2.992083
 20
5.079414
 30
0.0
 10
3.234203
 20
5.498540
 30
0.0
 10
3.476324
 20
5.917667
 30
0.0
 10
3.718444
 20
6.336767
 30
0.0
 10
3.960565
 20
6.755893
 30
0.0
 10
4.202685
 20
7.175020
 30
0.0
 10
4.444805
 20
7.594120
 30
0.0
 10
4.686926
 20
8.013246
 30
0.0
 10
4.929046
 20
8.432373
 30
0.0
 10
5.171167
 20
8.851473
 30
0.0
 10
5.413287
 20
9.270599
 30
0.0
 10
5.655407
 20
9.689726
 30
0.0
 10
5.897528
 20
10.108826
 30
0.0
 10
6.139647
 20
10.527952
 30
0.0
 10
6.381770
 20
10.947079
 30
0.0
 10
6.623890
 20
11.366205
 30
0.0
 10
6.866011
 20
11.785305
 30
0.0
 10
7.108131
 20
12.204431
 30
0.0
 10
7.350251
 20
12.623558
 30
0.0
 10
7.592371
 20
13.042658
 30
0.0
 10
7.834491
 20
13.461784
 30
0.0
 10
7.876502
 20
13.532878
 30
0.0
 10
7.920113
 20
13.603575
 30
0.0
 10
7.965344
 20
13.673795
 30
0.0
 10
8.012199
 20
13.743380
 30
0.0
 10
8.060700
 20
13.812225
 30
0.0
 10
8.110851
 20
13.880196
 30
0.0
 10
8.162673
 20
13.947163
 30
0.0
 10
8.216171
 20
14.013044
 30
0.0
 10
8.271361
 20
14.077655
 30
0.0
 10
8.328257
 20
14.140917
 30
0.0
 10
8.386870
 20
14.202697
 30
0.0
 10
8.447213
 20
14.262863
 30
0.0
 10
8.509301
 20
14.321310
 30
0.0
 10
8.573142
 20
14.377904
 30
0.0
 10
8.638753
 20
14.432488
 30
0.0
 10
8.706143
 20
14.484981
 30
0.0
 10
8.775329
 20
14.535252
 30
0.0
 10
8.846319
 20
14.583194
 30
0.0
 10
8.919130
 20
14.628623
 30
0.0
 10
8.993769
 20
14.671486
 30
0.0
 10
9.070254
 20
14.711623
 30
0.0
 10
9.148597
 20
14.748929
 30
0.0
 10
9.228808
 20
14.783246
 30
0.0
 10
9.310903
 20
14.814467
 30
0.0
 10
9.394893
 20
14.842513
 30
0.0
 10
9.480790
 20
14.867119
 30
0.0
 10
9.568608
 20
14.888285
 30
0.0
 10
9.658357
 20
14.906013
 30
0.0
 10
9.750054
 20
14.920035
 30
0.0
 10
9.843708
 20
14.930090
 30
0.0
 10
9.939331
 20
14.936175
 30
0.0
 10
10.036941
 20
14.938821
 30
0.0
 10
10.134546
 20
14.936175
 30
0.0
 10
10.230161
 20
14.930090
 30
0.0
 10
10.323797
 20
14.920035
 30
0.0
 10
10.415467
 20
14.906013
 30
0.0
 10
10.505188
 20
14.888285
 30
0.0
 10
10.592966
 20
14.867119
 30
0.0
 10
10.678823
 20
14.842513
 30
0.0
 10
10.762765
 20
14.814520
 30
0.0
 10
10.844809
 20
14.783325
 30
0.0
 10
10.924968
 20
14.749035
 30
0.0
 10
11.003252
 20
14.711782
 30
0.0
 10
11.079677
 20
14.671698
 30
0.0
 10
11.154258
 20
14.628888
 30
0.0
 10
11.227005
 20
14.583485
 30
0.0
 10
11.297932
 20
14.535596
 30
0.0
 10
11.367052
 20
14.485378
 30
0.0
 10
11.434378
 20
14.432938
 30
0.0
 10
11.499923
 20
14.378380
 30
0.0
 10
11.563703
 20
14.321865
 30
0.0
 10
11.625727
 20
14.263498
 30
0.0
 10
11.686012
 20
14.203385
 30
0.0
 10
11.744567
 20
14.141658
 30
0.0
 10
11.801410
 20
14.078449
 30
0.0
 10
11.856552
 20
14.013890
 30
0.0
 10
11.910003
 20
13.948062
 30
0.0
 10
11.961782
 20
13.881149
 30
0.0
 10
12.011897
 20
13.813230
 30
0.0
 10
12.060366
 20
13.744439
 30
0.0
 10
12.107197
 20
13.674906
 30
0.0
 10
12.152409
 20
13.604739
 30
0.0
 10
12.196010
 20
13.534095
 30
0.0
 10
12.238015
 20
13.463054
 30
0.0
 10
12.290810
 20
13.371800
 30
0.0
 10
12.343608
 20
13.280571
 30
0.0
 10
12.396403
 20
13.189316
 30
0.0
 10
12.449200
 20
13.098088
 30
0.0
 10
12.501995
 20
13.006833
 30
0.0
 10
12.554793
 20
12.915605
 30
0.0
 10
12.607588
 20
12.824350
 30
0.0
 10
12.660383
 20
12.733122
 30
0.0
 10
12.713180
 20
12.641867
 30
0.0
 10
12.765975
 20
12.550639
 30
0.0
 10
12.818773
 20
12.459384
 30
0.0
 10
12.871568
 20
12.368156
 30
0.0
 10
12.924366
 20
12.276901
 30
0.0
 10
12.977161
 20
12.185673
 30
0.0
 10
13.029958
 20
12.094418
 30
0.0
 10
13.082753
 20
12.003189
 30
0.0
 10
13.135548
 20
11.911935
 30
0.0
 10
13.188346
 20
11.820706
 30
0.0
 10
13.241141
 20
11.729451
 30
0.0
 10
13.293938
 20
11.638223
 30
0.0
 10
13.346733
 20
11.546968
 30
0.0
 10
13.399531
 20
11.455740
 30
0.0
 10
13.452326
 20
11.364485
 30
0.0
 10
13.505121
 20
11.273257
 30
0.0
 10
13.557918
 20
11.182002
 30
0.0
 10
13.610713
 20
11.090774
 30
0.0
 10
13.663511
 20
10.999519
 30
0.0
 10
13.716306
 20
10.908291
 30
0.0
 10
13.769103
 20
10.817036
 30
0.0
 10
13.821898
 20
10.725808
 30
0.0
 10
13.874696
 20
10.634553
 30
0.0
  0
ENDSEC
  0
SECTION
  2
OBJECTS
  0
DICTIONARY
  5
C
330
0
100
AcDbDictionary
  3
ACAD_GROUP
350
D
  3
ACAD_MLINESTYLE
350
17
  0
DICTIONARY
  5
D
330
C
100
AcDbDictionary
  0
DICTIONARY
  5
1A
330
C
100
AcDbDictionary
  0
DICTIONARY
  5
17
330
C
100
AcDbDictionary
  3
STANDARD
350
18
  0
DICTIONARY
  5
19
330
C
100
AcDbDictionary
  0
ENDSEC
  0
EOF
