G04 #@! TF.GenerationSoftware,KiCad,Pcbnew,(5.0.1-3-g963ef8bb5)*
G04 #@! TF.CreationDate,2018-12-19T14:50:50+01:00*
G04 #@! TF.ProjectId,LuluDaisyBumblebee,4C756C75446169737942756D626C6562,rev?*
G04 #@! TF.SameCoordinates,Original*
G04 #@! TF.FileFunction,Soldermask,Bot*
G04 #@! TF.FilePolarity,Negative*
%FSLAX46Y46*%
G04 Gerber Fmt 4.6, Leading zero omitted, Abs format (unit mm)*
G04 Created by KiCad (PCBNEW (5.0.1-3-g963ef8bb5)) date 2018 December 19, Wednesday 14:50:50*
%MOMM*%
%LPD*%
G01*
G04 APERTURE LIST*
%ADD10C,0.100000*%
G04 APERTURE END LIST*
D10*
G36*
X129568450Y-75057892D02*
X129684369Y-75080949D01*
X129866358Y-75156331D01*
X130030143Y-75265769D01*
X130169431Y-75405057D01*
X130278869Y-75568842D01*
X130354251Y-75750831D01*
X130377308Y-75866750D01*
X130392680Y-75944027D01*
X130392680Y-76141013D01*
X130377308Y-76218290D01*
X130354251Y-76334209D01*
X130278869Y-76516198D01*
X130169431Y-76679983D01*
X130030143Y-76819271D01*
X129866358Y-76928709D01*
X129684369Y-77004091D01*
X129580935Y-77024665D01*
X129510614Y-77038653D01*
X129487165Y-77045766D01*
X129465554Y-77057317D01*
X129446612Y-77072863D01*
X129431066Y-77091805D01*
X129419515Y-77113416D01*
X129412402Y-77136865D01*
X129410000Y-77161251D01*
X129410000Y-77595000D01*
X128210000Y-77595000D01*
X128210000Y-76845000D01*
X128492333Y-76845000D01*
X128516719Y-76842598D01*
X128540168Y-76835485D01*
X128561779Y-76823934D01*
X128580721Y-76808388D01*
X128596267Y-76789446D01*
X128607818Y-76767835D01*
X128614931Y-76744386D01*
X128617333Y-76720000D01*
X128614931Y-76695614D01*
X128607818Y-76672165D01*
X128596272Y-76650565D01*
X128506491Y-76516198D01*
X128431109Y-76334209D01*
X128408052Y-76218290D01*
X128392680Y-76141013D01*
X128392680Y-75944027D01*
X128408052Y-75866750D01*
X128431109Y-75750831D01*
X128506491Y-75568842D01*
X128615929Y-75405057D01*
X128755217Y-75265769D01*
X128919002Y-75156331D01*
X129100991Y-75080949D01*
X129216910Y-75057892D01*
X129294187Y-75042520D01*
X129491173Y-75042520D01*
X129568450Y-75057892D01*
X129568450Y-75057892D01*
G37*
G36*
X126566170Y-75062972D02*
X126682089Y-75086029D01*
X126864078Y-75161411D01*
X127027863Y-75270849D01*
X127167151Y-75410137D01*
X127276589Y-75573922D01*
X127351971Y-75755911D01*
X127375028Y-75871830D01*
X127389390Y-75944027D01*
X127390400Y-75949109D01*
X127390400Y-76146091D01*
X127351971Y-76339289D01*
X127276589Y-76521278D01*
X127190203Y-76650563D01*
X127178657Y-76672164D01*
X127171544Y-76695613D01*
X127169142Y-76720000D01*
X127171544Y-76744386D01*
X127178657Y-76767835D01*
X127190208Y-76789446D01*
X127205753Y-76808388D01*
X127224696Y-76823934D01*
X127246306Y-76835485D01*
X127269755Y-76842598D01*
X127294142Y-76845000D01*
X127510000Y-76845000D01*
X127510000Y-77595000D01*
X126310000Y-77595000D01*
X126310000Y-77153783D01*
X126307598Y-77129397D01*
X126300485Y-77105948D01*
X126288934Y-77084337D01*
X126273388Y-77065395D01*
X126254446Y-77049849D01*
X126232835Y-77038298D01*
X126209389Y-77031186D01*
X126098711Y-77009171D01*
X125916722Y-76933789D01*
X125752937Y-76824351D01*
X125613649Y-76685063D01*
X125504211Y-76521278D01*
X125428829Y-76339289D01*
X125390400Y-76146091D01*
X125390400Y-75949109D01*
X125391411Y-75944027D01*
X125405772Y-75871830D01*
X125428829Y-75755911D01*
X125504211Y-75573922D01*
X125613649Y-75410137D01*
X125752937Y-75270849D01*
X125916722Y-75161411D01*
X126098711Y-75086029D01*
X126214630Y-75062972D01*
X126291907Y-75047600D01*
X126488893Y-75047600D01*
X126566170Y-75062972D01*
X126566170Y-75062972D01*
G37*
G36*
X124447420Y-77193200D02*
X123597420Y-77193200D01*
X123597420Y-76343200D01*
X124447420Y-76343200D01*
X124447420Y-77193200D01*
X124447420Y-77193200D01*
G37*
G36*
X132565650Y-75062972D02*
X132681569Y-75086029D01*
X132863558Y-75161411D01*
X133027343Y-75270849D01*
X133166631Y-75410137D01*
X133276069Y-75573922D01*
X133351451Y-75755911D01*
X133374508Y-75871830D01*
X133388870Y-75944027D01*
X133389880Y-75949109D01*
X133389880Y-76146091D01*
X133351451Y-76339289D01*
X133276069Y-76521278D01*
X133166631Y-76685063D01*
X133027343Y-76824351D01*
X132863558Y-76933789D01*
X132681569Y-77009171D01*
X132570896Y-77031185D01*
X132488373Y-77047600D01*
X132291387Y-77047600D01*
X132208864Y-77031185D01*
X132098191Y-77009171D01*
X131916202Y-76933789D01*
X131752417Y-76824351D01*
X131613129Y-76685063D01*
X131503691Y-76521278D01*
X131428309Y-76339289D01*
X131389880Y-76146091D01*
X131389880Y-75949109D01*
X131390891Y-75944027D01*
X131405252Y-75871830D01*
X131428309Y-75755911D01*
X131503691Y-75573922D01*
X131613129Y-75410137D01*
X131752417Y-75270849D01*
X131916202Y-75161411D01*
X132098191Y-75086029D01*
X132214110Y-75062972D01*
X132291387Y-75047600D01*
X132488373Y-75047600D01*
X132565650Y-75062972D01*
X132565650Y-75062972D01*
G37*
G36*
X135565770Y-75055372D02*
X135681689Y-75078429D01*
X135863678Y-75153811D01*
X136027463Y-75263249D01*
X136166751Y-75402537D01*
X136276189Y-75566322D01*
X136351571Y-75748311D01*
X136353083Y-75755914D01*
X136390000Y-75941507D01*
X136390000Y-76138493D01*
X136388488Y-76146093D01*
X136351571Y-76331689D01*
X136276189Y-76513678D01*
X136166751Y-76677463D01*
X136027463Y-76816751D01*
X135863678Y-76926189D01*
X135681689Y-77001571D01*
X135565770Y-77024628D01*
X135488493Y-77040000D01*
X135291507Y-77040000D01*
X135214230Y-77024628D01*
X135098311Y-77001571D01*
X134916322Y-76926189D01*
X134752537Y-76816751D01*
X134613249Y-76677463D01*
X134503811Y-76513678D01*
X134428429Y-76331689D01*
X134391512Y-76146093D01*
X134390000Y-76138493D01*
X134390000Y-75941507D01*
X134426917Y-75755914D01*
X134428429Y-75748311D01*
X134503811Y-75566322D01*
X134613249Y-75402537D01*
X134752537Y-75263249D01*
X134916322Y-75153811D01*
X135098311Y-75078429D01*
X135214230Y-75055372D01*
X135291507Y-75040000D01*
X135488493Y-75040000D01*
X135565770Y-75055372D01*
X135565770Y-75055372D01*
G37*
G36*
X124447420Y-75193200D02*
X123597420Y-75193200D01*
X123597420Y-74343200D01*
X124447420Y-74343200D01*
X124447420Y-75193200D01*
X124447420Y-75193200D01*
G37*
M02*
