G04 #@! TF.GenerationSoftware,KiCad,Pcbnew,(5.0.1-3-g963ef8bb5)*
G04 #@! TF.CreationDate,2018-12-19T14:50:50+01:00*
G04 #@! TF.ProjectId,LuluDaisyBumblebee,4C756C75446169737942756D626C6562,rev?*
G04 #@! TF.SameCoordinates,Original*
G04 #@! TF.FileFunction,Profile,NP*
%FSLAX46Y46*%
G04 Gerber Fmt 4.6, Leading zero omitted, Abs format (unit mm)*
G04 Created by KiCad (PCBNEW (5.0.1-3-g963ef8bb5)) date 2018 December 19, Wednesday 14:50:50*
%MOMM*%
%LPD*%
G01*
G04 APERTURE LIST*
%ADD10C,0.050000*%
G04 APERTURE END LIST*
D10*
X134948961Y-76327197D02*
X134959712Y-76331405D01*
X134938245Y-76322842D02*
X134948961Y-76327197D01*
X134927574Y-76318337D02*
X134938245Y-76322842D01*
X135366411Y-76409880D02*
X135370000Y-76410000D01*
X135362496Y-76409734D02*
X135366411Y-76409880D01*
X135358260Y-76409559D02*
X135362496Y-76409734D01*
X135353713Y-76409354D02*
X135358260Y-76409559D01*
X134637396Y-76017838D02*
X134637554Y-76037316D01*
X134636999Y-75998487D02*
X134637396Y-76017838D01*
X134636364Y-75979263D02*
X134636999Y-75998487D01*
X134635495Y-75960169D02*
X134636364Y-75979263D01*
X134634394Y-75941205D02*
X134635495Y-75960169D01*
X134633063Y-75922375D02*
X134634394Y-75941205D01*
X134631505Y-75903679D02*
X134633063Y-75922375D01*
X134629724Y-75885119D02*
X134631505Y-75903679D01*
X134627720Y-75866696D02*
X134629724Y-75885119D01*
X134625496Y-75848413D02*
X134627720Y-75866696D01*
X134623056Y-75830271D02*
X134625496Y-75848413D01*
X134620402Y-75812271D02*
X134623056Y-75830271D01*
X134617535Y-75794415D02*
X134620402Y-75812271D01*
X134614460Y-75776705D02*
X134617535Y-75794415D01*
X134611177Y-75759142D02*
X134614460Y-75776705D01*
X134607690Y-75741729D02*
X134611177Y-75759142D01*
X134604002Y-75724466D02*
X134607690Y-75741729D01*
X134600114Y-75707355D02*
X134604002Y-75724466D01*
X134596029Y-75690399D02*
X134600114Y-75707355D01*
X134591750Y-75673597D02*
X134596029Y-75690399D01*
X134587279Y-75656953D02*
X134591750Y-75673597D01*
X134582620Y-75640468D02*
X134587279Y-75656953D01*
X134577773Y-75624143D02*
X134582620Y-75640468D01*
X134572742Y-75607981D02*
X134577773Y-75624143D01*
X134567530Y-75591982D02*
X134572742Y-75607981D01*
X134562138Y-75576148D02*
X134567530Y-75591982D01*
X134556570Y-75560481D02*
X134562138Y-75576148D01*
X134550827Y-75544983D02*
X134556570Y-75560481D01*
X134544913Y-75529655D02*
X134550827Y-75544983D01*
X134538830Y-75514499D02*
X134544913Y-75529655D01*
X134532580Y-75499516D02*
X134538830Y-75514499D01*
X134526166Y-75484709D02*
X134532580Y-75499516D01*
X134519590Y-75470078D02*
X134526166Y-75484709D01*
X134512856Y-75455625D02*
X134519590Y-75470078D01*
X134505965Y-75441353D02*
X134512856Y-75455625D01*
X134498920Y-75427262D02*
X134505965Y-75441353D01*
X134491723Y-75413354D02*
X134498920Y-75427262D01*
X134484377Y-75399631D02*
X134491723Y-75413354D01*
X134476885Y-75386095D02*
X134484377Y-75399631D01*
X134469249Y-75372747D02*
X134476885Y-75386095D01*
X134461471Y-75359588D02*
X134469249Y-75372747D01*
X134453555Y-75346621D02*
X134461471Y-75359588D01*
X134445502Y-75333847D02*
X134453555Y-75346621D01*
X134437315Y-75321268D02*
X134445502Y-75333847D01*
X134428997Y-75308884D02*
X134437315Y-75321268D01*
X134420549Y-75296699D02*
X134428997Y-75308884D01*
X134411976Y-75284713D02*
X134420549Y-75296699D01*
X134403279Y-75272929D02*
X134411976Y-75284713D01*
X134394460Y-75261347D02*
X134403279Y-75272929D01*
X134385522Y-75249970D02*
X134394460Y-75261347D01*
X134376468Y-75238798D02*
X134385522Y-75249970D01*
X134367300Y-75227835D02*
X134376468Y-75238798D01*
X134358021Y-75217080D02*
X134367300Y-75227835D01*
X134348634Y-75206537D02*
X134358021Y-75217080D01*
X134339140Y-75196206D02*
X134348634Y-75206537D01*
X134329542Y-75186089D02*
X134339140Y-75196206D01*
X134319843Y-75176189D02*
X134329542Y-75186089D01*
X134310045Y-75166505D02*
X134319843Y-75176189D01*
X134300151Y-75157041D02*
X134310045Y-75166505D01*
X134290163Y-75147797D02*
X134300151Y-75157041D01*
X134280084Y-75138776D02*
X134290163Y-75147797D01*
X134269917Y-75129979D02*
X134280084Y-75138776D01*
X134259663Y-75121407D02*
X134269917Y-75129979D01*
X134249326Y-75113062D02*
X134259663Y-75121407D01*
X134238907Y-75104947D02*
X134249326Y-75113062D01*
X134228410Y-75097062D02*
X134238907Y-75104947D01*
X134217837Y-75089409D02*
X134228410Y-75097062D01*
X134207191Y-75081989D02*
X134217837Y-75089409D01*
X134196473Y-75074805D02*
X134207191Y-75081989D01*
X134185686Y-75067858D02*
X134196473Y-75074805D01*
X134174834Y-75061150D02*
X134185686Y-75067858D01*
X134163918Y-75054682D02*
X134174834Y-75061150D01*
X134152941Y-75048456D02*
X134163918Y-75054682D01*
X134141906Y-75042473D02*
X134152941Y-75048456D01*
X134130814Y-75036736D02*
X134141906Y-75042473D01*
X134119669Y-75031245D02*
X134130814Y-75036736D01*
X134108474Y-75026003D02*
X134119669Y-75031245D01*
X134097229Y-75021010D02*
X134108474Y-75026003D01*
X134085939Y-75016270D02*
X134097229Y-75021010D01*
X134074606Y-75011782D02*
X134085939Y-75016270D01*
X134063231Y-75007550D02*
X134074606Y-75011782D01*
X134051818Y-75003574D02*
X134063231Y-75007550D01*
X134040369Y-74999856D02*
X134051818Y-75003574D01*
X134028887Y-74996399D02*
X134040369Y-74999856D01*
X134017374Y-74993202D02*
X134028887Y-74996399D01*
X134005833Y-74990269D02*
X134017374Y-74993202D01*
X133994266Y-74987600D02*
X134005833Y-74990269D01*
X133982676Y-74985198D02*
X133994266Y-74987600D01*
X133971064Y-74983063D02*
X133982676Y-74985198D01*
X133959435Y-74981198D02*
X133971064Y-74983063D01*
X133947790Y-74979605D02*
X133959435Y-74981198D01*
X133936131Y-74978284D02*
X133947790Y-74979605D01*
X133924462Y-74977238D02*
X133936131Y-74978284D01*
X133912785Y-74976467D02*
X133924462Y-74977238D01*
X133901101Y-74975975D02*
X133912785Y-74976467D01*
X133889415Y-74975762D02*
X133901101Y-74975975D01*
X133877728Y-74975830D02*
X133889415Y-74975762D01*
X133866043Y-74976177D02*
X133877728Y-74975830D01*
X133854362Y-74976804D02*
X133866043Y-74976177D01*
X133842689Y-74977707D02*
X133854362Y-74976804D01*
X133831024Y-74978886D02*
X133842689Y-74977707D01*
X133819372Y-74980338D02*
X133831024Y-74978886D01*
X133807734Y-74982062D02*
X133819372Y-74980338D01*
X133796113Y-74984056D02*
X133807734Y-74982062D01*
X133784512Y-74986320D02*
X133796113Y-74984056D01*
X133772932Y-74988850D02*
X133784512Y-74986320D01*
X133761378Y-74991645D02*
X133772932Y-74988850D01*
X133749850Y-74994705D02*
X133761378Y-74991645D01*
X133738352Y-74998026D02*
X133749850Y-74994705D01*
X133726886Y-75001608D02*
X133738352Y-74998026D01*
X133715455Y-75005449D02*
X133726886Y-75001608D01*
X133704060Y-75009547D02*
X133715455Y-75005449D01*
X133692706Y-75013901D02*
X133704060Y-75009547D01*
X133681394Y-75018508D02*
X133692706Y-75013901D01*
X133670127Y-75023368D02*
X133681394Y-75018508D01*
X133658906Y-75028479D02*
X133670127Y-75023368D01*
X133647736Y-75033838D02*
X133658906Y-75028479D01*
X133636618Y-75039445D02*
X133647736Y-75033838D01*
X133625555Y-75045297D02*
X133636618Y-75039445D01*
X133614549Y-75051394D02*
X133625555Y-75045297D01*
X133603603Y-75057733D02*
X133614549Y-75051394D01*
X133592720Y-75064312D02*
X133603603Y-75057733D01*
X133581901Y-75071131D02*
X133592720Y-75064312D01*
X133571150Y-75078187D02*
X133581901Y-75071131D01*
X133560469Y-75085480D02*
X133571150Y-75078187D01*
X133549860Y-75093006D02*
X133560469Y-75085480D01*
X133539326Y-75100765D02*
X133549860Y-75093006D01*
X133528870Y-75108755D02*
X133539326Y-75100765D01*
X133518494Y-75116974D02*
X133528870Y-75108755D01*
X133508201Y-75125420D02*
X133518494Y-75116974D01*
X133497992Y-75134093D02*
X133508201Y-75125420D01*
X133487871Y-75142990D02*
X133497992Y-75134093D01*
X133477841Y-75152110D02*
X133487871Y-75142990D01*
X133467903Y-75161451D02*
X133477841Y-75152110D01*
X133458060Y-75171011D02*
X133467903Y-75161451D01*
X133448315Y-75180789D02*
X133458060Y-75171011D01*
X133438670Y-75190783D02*
X133448315Y-75180789D01*
X133429128Y-75200992D02*
X133438670Y-75190783D01*
X133419692Y-75211414D02*
X133429128Y-75200992D01*
X133410363Y-75222046D02*
X133419692Y-75211414D01*
X133401144Y-75232889D02*
X133410363Y-75222046D01*
X133392039Y-75243939D02*
X133401144Y-75232889D01*
X133383048Y-75255195D02*
X133392039Y-75243939D01*
X133374176Y-75266656D02*
X133383048Y-75255195D01*
X133365424Y-75278321D02*
X133374176Y-75266656D01*
X133356795Y-75290186D02*
X133365424Y-75278321D01*
X133348291Y-75302251D02*
X133356795Y-75290186D01*
X133339916Y-75314514D02*
X133348291Y-75302251D01*
X133331670Y-75326974D02*
X133339916Y-75314514D01*
X133323558Y-75339629D02*
X133331670Y-75326974D01*
X133315582Y-75352476D02*
X133323558Y-75339629D01*
X133307743Y-75365515D02*
X133315582Y-75352476D01*
X133300046Y-75378744D02*
X133307743Y-75365515D01*
X133292491Y-75392161D02*
X133300046Y-75378744D01*
X133285082Y-75405765D02*
X133292491Y-75392161D01*
X133277821Y-75419554D02*
X133285082Y-75405765D01*
X133270711Y-75433526D02*
X133277821Y-75419554D01*
X133263754Y-75447679D02*
X133270711Y-75433526D01*
X133256952Y-75462013D02*
X133263754Y-75447679D01*
X133250309Y-75476525D02*
X133256952Y-75462013D01*
X133243827Y-75491214D02*
X133250309Y-75476525D01*
X133237508Y-75506077D02*
X133243827Y-75491214D01*
X133231355Y-75521115D02*
X133237508Y-75506077D01*
X133225370Y-75536324D02*
X133231355Y-75521115D01*
X133219557Y-75551703D02*
X133225370Y-75536324D01*
X133213916Y-75567250D02*
X133219557Y-75551703D01*
X133208451Y-75582965D02*
X133213916Y-75567250D01*
X133203165Y-75598844D02*
X133208451Y-75582965D01*
X133198060Y-75614888D02*
X133203165Y-75598844D01*
X133193138Y-75631093D02*
X133198060Y-75614888D01*
X133188403Y-75647458D02*
X133193138Y-75631093D01*
X133183856Y-75663983D02*
X133188403Y-75647458D01*
X133179499Y-75680664D02*
X133183856Y-75663983D01*
X133175337Y-75697500D02*
X133179499Y-75680664D01*
X133171370Y-75714490D02*
X133175337Y-75697500D01*
X133167603Y-75731633D02*
X133171370Y-75714490D01*
X133164036Y-75748925D02*
X133167603Y-75731633D01*
X133160673Y-75766367D02*
X133164036Y-75748925D01*
X133157516Y-75783956D02*
X133160673Y-75766367D01*
X133154568Y-75801690D02*
X133157516Y-75783956D01*
X133151831Y-75819568D02*
X133154568Y-75801690D01*
X133149308Y-75837588D02*
X133151831Y-75819568D01*
X133147001Y-75855749D02*
X133149308Y-75837588D01*
X133144913Y-75874049D02*
X133147001Y-75855749D01*
X133143046Y-75892486D02*
X133144913Y-75874049D01*
X133141403Y-75911059D02*
X133143046Y-75892486D01*
X133139986Y-75929765D02*
X133141403Y-75911059D01*
X133138799Y-75948605D02*
X133139986Y-75929765D01*
X133137842Y-75967574D02*
X133138799Y-75948605D01*
X133137120Y-75986673D02*
X133137842Y-75967574D01*
X133136634Y-76005900D02*
X133137120Y-75986673D01*
X133136387Y-76025252D02*
X133136634Y-76005900D01*
X133134443Y-76040934D02*
X133136387Y-76025252D01*
X133130238Y-76052385D02*
X133134443Y-76040934D01*
X133125720Y-76063596D02*
X133130238Y-76052385D01*
X133120897Y-76074570D02*
X133125720Y-76063596D01*
X133115777Y-76085311D02*
X133120897Y-76074570D01*
X133110366Y-76095819D02*
X133115777Y-76085311D01*
X133104673Y-76106099D02*
X133110366Y-76095819D01*
X133098705Y-76116153D02*
X133104673Y-76106099D01*
X133092470Y-76125982D02*
X133098705Y-76116153D01*
X133085975Y-76135590D02*
X133092470Y-76125982D01*
X133079228Y-76144980D02*
X133085975Y-76135590D01*
X133072236Y-76154152D02*
X133079228Y-76144980D01*
X133065007Y-76163111D02*
X133072236Y-76154152D01*
X133057549Y-76171859D02*
X133065007Y-76163111D01*
X133049869Y-76180397D02*
X133057549Y-76171859D01*
X133041975Y-76188730D02*
X133049869Y-76180397D01*
X133033874Y-76196859D02*
X133041975Y-76188730D01*
X133025573Y-76204786D02*
X133033874Y-76196859D01*
X133017082Y-76212515D02*
X133025573Y-76204786D01*
X133008406Y-76220047D02*
X133017082Y-76212515D01*
X132999553Y-76227386D02*
X133008406Y-76220047D01*
X132990532Y-76234534D02*
X132999553Y-76227386D01*
X132981350Y-76241493D02*
X132990532Y-76234534D01*
X132972013Y-76248266D02*
X132981350Y-76241493D01*
X132962531Y-76254855D02*
X132972013Y-76248266D01*
X132952910Y-76261263D02*
X132962531Y-76254855D01*
X132943158Y-76267493D02*
X132952910Y-76261263D01*
X132933282Y-76273547D02*
X132943158Y-76267493D01*
X132923291Y-76279427D02*
X132933282Y-76273547D01*
X132913191Y-76285136D02*
X132923291Y-76279427D01*
X132902991Y-76290677D02*
X132913191Y-76285136D01*
X132892697Y-76296051D02*
X132902991Y-76290677D01*
X132882318Y-76301263D02*
X132892697Y-76296051D01*
X132871860Y-76306313D02*
X132882318Y-76301263D01*
X132861333Y-76311205D02*
X132871860Y-76306313D01*
X132850742Y-76315942D02*
X132861333Y-76311205D01*
X132840096Y-76320525D02*
X132850742Y-76315942D01*
X132829402Y-76324957D02*
X132840096Y-76320525D01*
X132818668Y-76329241D02*
X132829402Y-76324957D01*
X132807902Y-76333379D02*
X132818668Y-76329241D01*
X132797110Y-76337374D02*
X132807902Y-76333379D01*
X132786301Y-76341228D02*
X132797110Y-76337374D01*
X132775482Y-76344944D02*
X132786301Y-76341228D01*
X132764661Y-76348525D02*
X132775482Y-76344944D01*
X132753844Y-76351972D02*
X132764661Y-76348525D01*
X132743041Y-76355288D02*
X132753844Y-76351972D01*
X132732258Y-76358477D02*
X132743041Y-76355288D01*
X132721503Y-76361540D02*
X132732258Y-76358477D01*
X132710784Y-76364480D02*
X132721503Y-76361540D01*
X132700107Y-76367299D02*
X132710784Y-76364480D01*
X132689482Y-76370001D02*
X132700107Y-76367299D01*
X132678914Y-76372586D02*
X132689482Y-76370001D01*
X132668413Y-76375059D02*
X132678914Y-76372586D01*
X132657984Y-76377422D02*
X132668413Y-76375059D01*
X132647637Y-76379676D02*
X132657984Y-76377422D01*
X132637378Y-76381826D02*
X132647637Y-76379676D01*
X132627215Y-76383872D02*
X132637378Y-76381826D01*
X132617156Y-76385818D02*
X132627215Y-76383872D01*
X132607208Y-76387666D02*
X132617156Y-76385818D01*
X132597379Y-76389419D02*
X132607208Y-76387666D01*
X132587676Y-76391079D02*
X132597379Y-76389419D01*
X132578107Y-76392649D02*
X132587676Y-76391079D01*
X132568680Y-76394131D02*
X132578107Y-76392649D01*
X132559402Y-76395528D02*
X132568680Y-76394131D01*
X132550280Y-76396842D02*
X132559402Y-76395528D01*
X132541323Y-76398076D02*
X132550280Y-76396842D01*
X132532537Y-76399233D02*
X132541323Y-76398076D01*
X132523931Y-76400314D02*
X132532537Y-76399233D01*
X132515512Y-76401323D02*
X132523931Y-76400314D01*
X132507287Y-76402261D02*
X132515512Y-76401323D01*
X132499264Y-76403132D02*
X132507287Y-76402261D01*
X132491451Y-76403938D02*
X132499264Y-76403132D01*
X132483855Y-76404682D02*
X132491451Y-76403938D01*
X132476484Y-76405365D02*
X132483855Y-76404682D01*
X132469345Y-76405992D02*
X132476484Y-76405365D01*
X132462446Y-76406563D02*
X132469345Y-76405992D01*
X132455795Y-76407081D02*
X132462446Y-76406563D01*
X132449398Y-76407550D02*
X132455795Y-76407081D01*
X132443265Y-76407972D02*
X132449398Y-76407550D01*
X132437401Y-76408348D02*
X132443265Y-76407972D01*
X132431815Y-76408683D02*
X132437401Y-76408348D01*
X132426515Y-76408977D02*
X132431815Y-76408683D01*
X132421508Y-76409234D02*
X132426515Y-76408977D01*
X132416801Y-76409457D02*
X132421508Y-76409234D01*
X132412402Y-76409647D02*
X132416801Y-76409457D01*
X132408318Y-76409808D02*
X132412402Y-76409647D01*
X132404558Y-76409941D02*
X132408318Y-76409808D01*
X132401129Y-76410050D02*
X132404558Y-76409941D01*
X132398038Y-76410136D02*
X132401129Y-76410050D01*
X132395293Y-76410203D02*
X132398038Y-76410136D01*
X132392901Y-76410253D02*
X132395293Y-76410203D01*
X132390870Y-76410288D02*
X132392901Y-76410253D01*
X132389208Y-76410311D02*
X132390870Y-76410288D01*
X132387923Y-76410325D02*
X132389208Y-76410311D01*
X132387020Y-76410332D02*
X132387923Y-76410325D01*
X132386510Y-76410334D02*
X132387020Y-76410332D01*
X132386378Y-76410334D02*
X132386510Y-76410334D01*
X132386088Y-76410333D02*
X132386378Y-76410334D01*
X132385403Y-76410329D02*
X132386088Y-76410333D01*
X132384329Y-76410320D02*
X132385403Y-76410329D01*
X132382876Y-76410302D02*
X132384329Y-76410320D01*
X132381049Y-76410274D02*
X132382876Y-76410302D01*
X132378858Y-76410233D02*
X132381049Y-76410274D01*
X132376309Y-76410176D02*
X132378858Y-76410233D01*
X132373410Y-76410100D02*
X132376309Y-76410176D01*
X132370168Y-76410004D02*
X132373410Y-76410100D01*
X132366592Y-76409885D02*
X132370168Y-76410004D01*
X132362688Y-76409740D02*
X132366592Y-76409885D01*
X132358465Y-76409566D02*
X132362688Y-76409740D01*
X132353929Y-76409362D02*
X132358465Y-76409566D01*
X132349089Y-76409125D02*
X132353929Y-76409362D01*
X132343952Y-76408851D02*
X132349089Y-76409125D01*
X132338525Y-76408539D02*
X132343952Y-76408851D01*
X132332816Y-76408186D02*
X132338525Y-76408539D01*
X132326833Y-76407790D02*
X132332816Y-76408186D01*
X132320583Y-76407348D02*
X132326833Y-76407790D01*
X132314074Y-76406857D02*
X132320583Y-76407348D01*
X132307313Y-76406315D02*
X132314074Y-76406857D01*
X132300308Y-76405720D02*
X132307313Y-76406315D01*
X132293067Y-76405069D02*
X132300308Y-76405720D01*
X132285596Y-76404359D02*
X132293067Y-76405069D01*
X132277904Y-76403588D02*
X132285596Y-76404359D01*
X132269999Y-76402753D02*
X132277904Y-76403588D01*
X132261887Y-76401853D02*
X132269999Y-76402753D01*
X132253576Y-76400883D02*
X132261887Y-76401853D01*
X132245075Y-76399842D02*
X132253576Y-76400883D01*
X132236390Y-76398728D02*
X132245075Y-76399842D01*
X132227528Y-76397537D02*
X132236390Y-76398728D01*
X132218499Y-76396268D02*
X132227528Y-76397537D01*
X132209308Y-76394917D02*
X132218499Y-76396268D01*
X132199965Y-76393483D02*
X132209308Y-76394917D01*
X132190475Y-76391962D02*
X132199965Y-76393483D01*
X132180847Y-76390353D02*
X132190475Y-76391962D01*
X132171089Y-76388652D02*
X132180847Y-76390353D01*
X132161208Y-76386857D02*
X132171089Y-76388652D01*
X132151211Y-76384965D02*
X132161208Y-76386857D01*
X132141106Y-76382975D02*
X132151211Y-76384965D01*
X132130902Y-76380883D02*
X132141106Y-76382975D01*
X132120604Y-76378688D02*
X132130902Y-76380883D01*
X132110221Y-76376385D02*
X132120604Y-76378688D01*
X132099760Y-76373974D02*
X132110221Y-76376385D01*
X132089230Y-76371451D02*
X132099760Y-76373974D01*
X132078637Y-76368814D02*
X132089230Y-76371451D01*
X132067989Y-76366061D02*
X132078637Y-76368814D01*
X132057294Y-76363188D02*
X132067989Y-76366061D01*
X132046558Y-76360194D02*
X132057294Y-76363188D01*
X132035791Y-76357075D02*
X132046558Y-76360194D01*
X132024999Y-76353830D02*
X132035791Y-76357075D01*
X132014190Y-76350456D02*
X132024999Y-76353830D01*
X132003371Y-76346950D02*
X132014190Y-76350456D01*
X131992551Y-76343309D02*
X132003371Y-76346950D01*
X131981736Y-76339532D02*
X131992551Y-76343309D01*
X131970934Y-76335616D02*
X131981736Y-76339532D01*
X131960153Y-76331558D02*
X131970934Y-76335616D01*
X131949400Y-76327355D02*
X131960153Y-76331558D01*
X131938684Y-76323006D02*
X131949400Y-76327355D01*
X131928010Y-76318507D02*
X131938684Y-76323006D01*
X131917388Y-76313856D02*
X131928010Y-76318507D01*
X131906824Y-76309051D02*
X131917388Y-76313856D01*
X131896326Y-76304088D02*
X131906824Y-76309051D01*
X131885902Y-76298967D02*
X131896326Y-76304088D01*
X131875560Y-76293683D02*
X131885902Y-76298967D01*
X131865306Y-76288235D02*
X131875560Y-76293683D01*
X131855148Y-76282619D02*
X131865306Y-76288235D01*
X131845095Y-76276835D02*
X131855148Y-76282619D01*
X131835153Y-76270878D02*
X131845095Y-76276835D01*
X131825330Y-76264746D02*
X131835153Y-76270878D01*
X131815634Y-76258437D02*
X131825330Y-76264746D01*
X131806072Y-76251949D02*
X131815634Y-76258437D01*
X131796652Y-76245278D02*
X131806072Y-76251949D01*
X131787382Y-76238423D02*
X131796652Y-76245278D01*
X131778268Y-76231380D02*
X131787382Y-76238423D01*
X131769319Y-76224148D02*
X131778268Y-76231380D01*
X131760542Y-76216723D02*
X131769319Y-76224148D01*
X131751944Y-76209104D02*
X131760542Y-76216723D01*
X131743534Y-76201287D02*
X131751944Y-76209104D01*
X131735318Y-76193271D02*
X131743534Y-76201287D01*
X131727305Y-76185052D02*
X131735318Y-76193271D01*
X131719502Y-76176628D02*
X131727305Y-76185052D01*
X131711916Y-76167997D02*
X131719502Y-76176628D01*
X131704556Y-76159156D02*
X131711916Y-76167997D01*
X131697428Y-76150102D02*
X131704556Y-76159156D01*
X131690540Y-76140833D02*
X131697428Y-76150102D01*
X131683900Y-76131347D02*
X131690540Y-76140833D01*
X131677515Y-76121641D02*
X131683900Y-76131347D01*
X131671393Y-76111712D02*
X131677515Y-76121641D01*
X131665541Y-76101559D02*
X131671393Y-76111712D01*
X131659968Y-76091177D02*
X131665541Y-76101559D01*
X131654680Y-76080566D02*
X131659968Y-76091177D01*
X131649685Y-76069722D02*
X131654680Y-76080566D01*
X131644991Y-76058642D02*
X131649685Y-76069722D01*
X131640605Y-76047325D02*
X131644991Y-76058642D01*
X131636535Y-76035768D02*
X131640605Y-76047325D01*
X131636391Y-76034969D02*
X131636535Y-76035768D01*
X131636394Y-76033856D02*
X131636391Y-76034969D01*
X131636397Y-76032064D02*
X131636394Y-76033856D01*
X131636402Y-76029660D02*
X131636397Y-76032064D01*
X131636408Y-76026712D02*
X131636402Y-76029660D01*
X131636415Y-76023286D02*
X131636408Y-76026712D01*
X131636423Y-76019451D02*
X131636415Y-76023286D01*
X131636432Y-76015274D02*
X131636423Y-76019451D01*
X131636441Y-76010823D02*
X131636432Y-76015274D01*
X131636450Y-76006164D02*
X131636441Y-76010823D01*
X131636460Y-76001366D02*
X131636450Y-76006164D01*
X131636470Y-75996495D02*
X131636460Y-76001366D01*
X131636480Y-75991620D02*
X131636470Y-75996495D01*
X131636490Y-75986808D02*
X131636480Y-75991620D01*
X131636499Y-75982126D02*
X131636490Y-75986808D01*
X131636508Y-75977641D02*
X131636499Y-75982126D01*
X131636517Y-75973422D02*
X131636508Y-75977641D01*
X131636525Y-75969536D02*
X131636517Y-75973422D01*
X131636532Y-75966049D02*
X131636525Y-75969536D01*
X131636538Y-75963030D02*
X131636532Y-75966049D01*
X131636543Y-75960547D02*
X131636538Y-75963030D01*
X131636547Y-75958666D02*
X131636543Y-75960547D01*
X131636550Y-75957455D02*
X131636547Y-75958666D01*
X131636550Y-75956981D02*
X131636550Y-75957455D01*
X131636551Y-75956657D02*
X131636550Y-75956981D01*
X131636553Y-75955591D02*
X131636551Y-75956657D01*
X131636557Y-75953841D02*
X131636553Y-75955591D01*
X131636562Y-75951475D02*
X131636557Y-75953841D01*
X131636568Y-75948559D02*
X131636562Y-75951475D01*
X131636575Y-75945163D02*
X131636568Y-75948559D01*
X131636582Y-75941352D02*
X131636575Y-75945163D01*
X131636591Y-75937195D02*
X131636582Y-75941352D01*
X131636600Y-75932760D02*
X131636591Y-75937195D01*
X131636609Y-75928112D02*
X131636600Y-75932760D01*
X131636619Y-75923321D02*
X131636609Y-75928112D01*
X131636629Y-75918453D02*
X131636619Y-75923321D01*
X131636639Y-75913576D02*
X131636629Y-75918453D01*
X131636649Y-75908758D02*
X131636639Y-75913576D01*
X131636658Y-75904065D02*
X131636649Y-75908758D01*
X131636668Y-75899566D02*
X131636658Y-75904065D01*
X131636676Y-75895327D02*
X131636668Y-75899566D01*
X131636684Y-75891417D02*
X131636676Y-75895327D01*
X131636691Y-75887903D02*
X131636684Y-75891417D01*
X131636698Y-75884852D02*
X131636691Y-75887903D01*
X131636703Y-75882331D02*
X131636698Y-75884852D01*
X131636707Y-75880409D02*
X131636703Y-75882331D01*
X131636709Y-75879153D02*
X131636707Y-75880409D01*
X131636710Y-75878629D02*
X131636709Y-75879153D01*
X131636711Y-75878343D02*
X131636710Y-75878629D01*
X131636713Y-75877323D02*
X131636711Y-75878343D01*
X131636716Y-75875615D02*
X131636713Y-75877323D01*
X131636721Y-75873287D02*
X131636716Y-75875615D01*
X131636727Y-75870405D02*
X131636721Y-75873287D01*
X131636734Y-75867038D02*
X131636727Y-75870405D01*
X131636742Y-75863252D02*
X131636734Y-75867038D01*
X131636750Y-75859115D02*
X131636742Y-75863252D01*
X131636759Y-75854696D02*
X131636750Y-75859115D01*
X131636769Y-75850060D02*
X131636759Y-75854696D01*
X131636778Y-75845276D02*
X131636769Y-75850060D01*
X131636788Y-75840411D02*
X131636778Y-75845276D01*
X131636798Y-75835533D02*
X131636788Y-75840411D01*
X131636808Y-75830708D02*
X131636798Y-75835533D01*
X131636818Y-75826005D02*
X131636808Y-75830708D01*
X131636827Y-75821492D02*
X131636818Y-75826005D01*
X131636836Y-75817234D02*
X131636827Y-75821492D01*
X131636844Y-75813301D02*
X131636836Y-75817234D01*
X131636851Y-75809759D02*
X131636844Y-75813301D01*
X131636857Y-75806676D02*
X131636851Y-75809759D01*
X131636862Y-75804119D02*
X131636857Y-75806676D01*
X131636866Y-75802156D02*
X131636862Y-75804119D01*
X131636869Y-75800854D02*
X131636866Y-75802156D01*
X131636870Y-75800281D02*
X131636869Y-75800854D01*
X131636871Y-75800025D02*
X131636870Y-75800281D01*
X131636873Y-75799052D02*
X131636871Y-75800025D01*
X131636876Y-75797387D02*
X131636873Y-75799052D01*
X131636881Y-75795096D02*
X131636876Y-75797387D01*
X131636887Y-75792249D02*
X131636881Y-75795096D01*
X131636893Y-75788911D02*
X131636887Y-75792249D01*
X131636901Y-75785150D02*
X131636893Y-75788911D01*
X131636909Y-75781034D02*
X131636901Y-75785150D01*
X131636918Y-75776631D02*
X131636909Y-75781034D01*
X131636928Y-75772007D02*
X131636918Y-75776631D01*
X131636938Y-75767230D02*
X131636928Y-75772007D01*
X131636948Y-75762369D02*
X131636938Y-75767230D01*
X131636957Y-75757489D02*
X131636948Y-75762369D01*
X131636967Y-75752659D02*
X131636957Y-75757489D01*
X131636977Y-75747947D02*
X131636967Y-75752659D01*
X131636986Y-75743418D02*
X131636977Y-75747947D01*
X131636995Y-75739142D02*
X131636986Y-75743418D01*
X131637003Y-75735186D02*
X131636995Y-75739142D01*
X131637010Y-75731616D02*
X131637003Y-75735186D01*
X131637017Y-75728502D02*
X131637010Y-75731616D01*
X131637022Y-75725909D02*
X131637017Y-75728502D01*
X131637026Y-75723905D02*
X131637022Y-75725909D01*
X131637029Y-75722558D02*
X131637026Y-75723905D01*
X131637030Y-75721936D02*
X131637029Y-75722558D01*
X131636944Y-75708181D02*
X131637030Y-75721936D01*
X131636617Y-75688792D02*
X131636944Y-75708181D01*
X131636052Y-75669530D02*
X131636617Y-75688792D01*
X131635252Y-75650397D02*
X131636052Y-75669530D01*
X131634220Y-75631395D02*
X131635252Y-75650397D01*
X131632957Y-75612525D02*
X131634220Y-75631395D01*
X131631466Y-75593789D02*
X131632957Y-75612525D01*
X131629750Y-75575188D02*
X131631466Y-75593789D01*
X131627812Y-75556725D02*
X131629750Y-75575188D01*
X131625654Y-75538400D02*
X131627812Y-75556725D01*
X131623277Y-75520216D02*
X131625654Y-75538400D01*
X131620686Y-75502173D02*
X131623277Y-75520216D01*
X131617882Y-75484275D02*
X131620686Y-75502173D01*
X131614868Y-75466521D02*
X131617882Y-75484275D01*
X131611647Y-75448915D02*
X131614868Y-75466521D01*
X131608220Y-75431457D02*
X131611647Y-75448915D01*
X131604591Y-75414149D02*
X131608220Y-75431457D01*
X131600762Y-75396994D02*
X131604591Y-75414149D01*
X131596735Y-75379991D02*
X131600762Y-75396994D01*
X131592514Y-75363144D02*
X131596735Y-75379991D01*
X131588100Y-75346453D02*
X131592514Y-75363144D01*
X131583496Y-75329920D02*
X131588100Y-75346453D01*
X131578704Y-75313548D02*
X131583496Y-75329920D01*
X131573727Y-75297337D02*
X131578704Y-75313548D01*
X131568568Y-75281289D02*
X131573727Y-75297337D01*
X131563230Y-75265407D02*
X131568568Y-75281289D01*
X131557713Y-75249690D02*
X131563230Y-75265407D01*
X131552022Y-75234142D02*
X131557713Y-75249690D01*
X131546159Y-75218763D02*
X131552022Y-75234142D01*
X131540125Y-75203556D02*
X131546159Y-75218763D01*
X131533925Y-75188522D02*
X131540125Y-75203556D01*
X131527559Y-75173662D02*
X131533925Y-75188522D01*
X131521031Y-75158979D02*
X131527559Y-75173662D01*
X131514343Y-75144473D02*
X131521031Y-75158979D01*
X131507498Y-75130147D02*
X131514343Y-75144473D01*
X131500499Y-75116002D02*
X131507498Y-75130147D01*
X131493347Y-75102040D02*
X131500499Y-75116002D01*
X131486045Y-75088262D02*
X131493347Y-75102040D01*
X131478596Y-75074670D02*
X131486045Y-75088262D01*
X131471002Y-75061266D02*
X131478596Y-75074670D01*
X131463266Y-75048051D02*
X131471002Y-75061266D01*
X131455390Y-75035027D02*
X131463266Y-75048051D01*
X131447378Y-75022196D02*
X131455390Y-75035027D01*
X131439230Y-75009559D02*
X131447378Y-75022196D01*
X131430951Y-74997117D02*
X131439230Y-75009559D01*
X131422541Y-74984873D02*
X131430951Y-74997117D01*
X131414005Y-74972828D02*
X131422541Y-74984873D01*
X131405344Y-74960984D02*
X131414005Y-74972828D01*
X131396561Y-74949342D02*
X131405344Y-74960984D01*
X131387658Y-74937904D02*
X131396561Y-74949342D01*
X131378639Y-74926671D02*
X131387658Y-74937904D01*
X131369504Y-74915646D02*
X131378639Y-74926671D01*
X131360258Y-74904829D02*
X131369504Y-74915646D01*
X131350902Y-74894223D02*
X131360258Y-74904829D01*
X131341439Y-74883829D02*
X131350902Y-74894223D01*
X131331872Y-74873649D02*
X131341439Y-74883829D01*
X131322203Y-74863684D02*
X131331872Y-74873649D01*
X131312434Y-74853936D02*
X131322203Y-74863684D01*
X131302568Y-74844406D02*
X131312434Y-74853936D01*
X131292608Y-74835097D02*
X131302568Y-74844406D01*
X131282556Y-74826010D02*
X131292608Y-74835097D01*
X131272414Y-74817146D02*
X131282556Y-74826010D01*
X131262186Y-74808507D02*
X131272414Y-74817146D01*
X131251873Y-74800095D02*
X131262186Y-74808507D01*
X131241478Y-74791912D02*
X131251873Y-74800095D01*
X131231004Y-74783958D02*
X131241478Y-74791912D01*
X131220453Y-74776236D02*
X131231004Y-74783958D01*
X131209828Y-74768747D02*
X131220453Y-74776236D01*
X131199131Y-74761494D02*
X131209828Y-74768747D01*
X131188365Y-74754476D02*
X131199131Y-74761494D01*
X131177532Y-74747697D02*
X131188365Y-74754476D01*
X131166635Y-74741158D02*
X131177532Y-74747697D01*
X131155675Y-74734860D02*
X131166635Y-74741158D01*
X131144657Y-74728805D02*
X131155675Y-74734860D01*
X131133582Y-74722994D02*
X131144657Y-74728805D01*
X131122453Y-74717430D02*
X131133582Y-74722994D01*
X131111272Y-74712114D02*
X131122453Y-74717430D01*
X131100042Y-74707048D02*
X131111272Y-74712114D01*
X131088765Y-74702232D02*
X131100042Y-74707048D01*
X131077444Y-74697670D02*
X131088765Y-74702232D01*
X131066081Y-74693362D02*
X131077444Y-74697670D01*
X131054679Y-74689310D02*
X131066081Y-74693362D01*
X131043241Y-74685515D02*
X131054679Y-74689310D01*
X131031768Y-74681980D02*
X131043241Y-74685515D01*
X131020264Y-74678706D02*
X131031768Y-74681980D01*
X131008731Y-74675695D02*
X131020264Y-74678706D01*
X130997171Y-74672947D02*
X131008731Y-74675695D01*
X130985588Y-74670466D02*
X130997171Y-74672947D01*
X130973982Y-74668252D02*
X130985588Y-74670466D01*
X130962358Y-74666307D02*
X130973982Y-74668252D01*
X130950717Y-74664633D02*
X130962358Y-74666307D01*
X130939062Y-74663231D02*
X130950717Y-74664633D01*
X130927396Y-74662103D02*
X130939062Y-74663231D01*
X130915721Y-74661251D02*
X130927396Y-74662103D01*
X130904039Y-74660676D02*
X130915721Y-74661251D01*
X130892354Y-74660380D02*
X130904039Y-74660676D01*
X130880667Y-74660365D02*
X130892354Y-74660380D01*
X130868981Y-74660630D02*
X130880667Y-74660365D01*
X130857298Y-74661174D02*
X130868981Y-74660630D01*
X130845622Y-74661995D02*
X130857298Y-74661174D01*
X130833955Y-74663092D02*
X130845622Y-74661995D01*
X130822299Y-74664463D02*
X130833955Y-74663092D01*
X130810656Y-74666107D02*
X130822299Y-74664463D01*
X130799030Y-74668022D02*
X130810656Y-74666107D01*
X130787423Y-74670205D02*
X130799030Y-74668022D01*
X130775836Y-74672657D02*
X130787423Y-74670205D01*
X130764274Y-74675374D02*
X130775836Y-74672657D01*
X130752738Y-74678355D02*
X130764274Y-74675374D01*
X130741231Y-74681599D02*
X130752738Y-74678355D01*
X130729755Y-74685104D02*
X130741231Y-74681599D01*
X130718314Y-74688869D02*
X130729755Y-74685104D01*
X130706908Y-74692891D02*
X130718314Y-74688869D01*
X130695542Y-74697169D02*
X130706908Y-74692891D01*
X130684217Y-74701701D02*
X130695542Y-74697169D01*
X130672936Y-74706486D02*
X130684217Y-74701701D01*
X130661701Y-74711523D02*
X130672936Y-74706486D01*
X130650516Y-74716808D02*
X130661701Y-74711523D01*
X130639382Y-74722342D02*
X130650516Y-74716808D01*
X130628303Y-74728122D02*
X130639382Y-74722342D01*
X130617280Y-74734146D02*
X130628303Y-74728122D01*
X130606316Y-74740414D02*
X130617280Y-74734146D01*
X130595413Y-74746922D02*
X130606316Y-74740414D01*
X130584575Y-74753670D02*
X130595413Y-74746922D01*
X130573804Y-74760656D02*
X130584575Y-74753670D01*
X130563102Y-74767879D02*
X130573804Y-74760656D01*
X130552471Y-74775336D02*
X130563102Y-74767879D01*
X130541915Y-74783026D02*
X130552471Y-74775336D01*
X130531436Y-74790948D02*
X130541915Y-74783026D01*
X130521036Y-74799099D02*
X130531436Y-74790948D01*
X130510717Y-74807478D02*
X130521036Y-74799099D01*
X130500484Y-74816084D02*
X130510717Y-74807478D01*
X130490337Y-74824915D02*
X130500484Y-74816084D01*
X130480279Y-74833969D02*
X130490337Y-74824915D01*
X130470313Y-74843245D02*
X130480279Y-74833969D01*
X130460442Y-74852740D02*
X130470313Y-74843245D01*
X130450668Y-74862454D02*
X130460442Y-74852740D01*
X130440993Y-74872384D02*
X130450668Y-74862454D01*
X130431421Y-74882529D02*
X130440993Y-74872384D01*
X130421952Y-74892888D02*
X130431421Y-74882529D01*
X130412591Y-74903458D02*
X130421952Y-74892888D01*
X130403340Y-74914239D02*
X130412591Y-74903458D01*
X130394200Y-74925227D02*
X130403340Y-74914239D01*
X130385176Y-74936423D02*
X130394200Y-74925227D01*
X130376268Y-74947824D02*
X130385176Y-74936423D01*
X130367480Y-74959428D02*
X130376268Y-74947824D01*
X130358814Y-74971234D02*
X130367480Y-74959428D01*
X130350273Y-74983240D02*
X130358814Y-74971234D01*
X130341859Y-74995445D02*
X130350273Y-74983240D01*
X130333575Y-75007846D02*
X130341859Y-74995445D01*
X130325424Y-75020443D02*
X130333575Y-75007846D01*
X130317407Y-75033234D02*
X130325424Y-75020443D01*
X130309527Y-75046216D02*
X130317407Y-75033234D01*
X130301787Y-75059389D02*
X130309527Y-75046216D01*
X130294190Y-75072751D02*
X130301787Y-75059389D01*
X130286737Y-75086299D02*
X130294190Y-75072751D01*
X130279432Y-75100033D02*
X130286737Y-75086299D01*
X130272277Y-75113951D02*
X130279432Y-75100033D01*
X130265275Y-75128051D02*
X130272277Y-75113951D01*
X130258427Y-75142332D02*
X130265275Y-75128051D01*
X130251737Y-75156791D02*
X130258427Y-75142332D01*
X130245207Y-75171427D02*
X130251737Y-75156791D01*
X130238839Y-75186240D02*
X130245207Y-75171427D01*
X130232637Y-75201225D02*
X130238839Y-75186240D01*
X130226602Y-75216384D02*
X130232637Y-75201225D01*
X130220737Y-75231713D02*
X130226602Y-75216384D01*
X130215045Y-75247210D02*
X130220737Y-75231713D01*
X130209528Y-75262876D02*
X130215045Y-75247210D01*
X130204189Y-75278707D02*
X130209528Y-75262876D01*
X130199029Y-75294702D02*
X130204189Y-75278707D01*
X130194053Y-75310859D02*
X130199029Y-75294702D01*
X130189262Y-75327177D02*
X130194053Y-75310859D01*
X130184659Y-75343654D02*
X130189262Y-75327177D01*
X130180246Y-75360289D02*
X130184659Y-75343654D01*
X130176026Y-75377080D02*
X130180246Y-75360289D01*
X130172001Y-75394025D02*
X130176026Y-75377080D01*
X130168174Y-75411122D02*
X130172001Y-75394025D01*
X130164547Y-75428370D02*
X130168174Y-75411122D01*
X130161124Y-75445768D02*
X130164547Y-75428370D01*
X130157905Y-75463313D02*
X130161124Y-75445768D01*
X130154895Y-75481005D02*
X130157905Y-75463313D01*
X130152095Y-75498840D02*
X130154895Y-75481005D01*
X130149509Y-75516818D02*
X130152095Y-75498840D01*
X130147137Y-75534938D02*
X130149509Y-75516818D01*
X130144984Y-75553197D02*
X130147137Y-75534938D01*
X130143052Y-75571593D02*
X130144984Y-75553197D01*
X130141342Y-75590126D02*
X130143052Y-75571593D01*
X130139858Y-75608793D02*
X130141342Y-75590126D01*
X130138602Y-75627593D02*
X130139858Y-75608793D01*
X130137577Y-75646525D02*
X130138602Y-75627593D01*
X130136785Y-75665585D02*
X130137577Y-75646525D01*
X130136229Y-75684774D02*
X130136785Y-75665585D01*
X130135911Y-75704089D02*
X130136229Y-75684774D01*
X130135830Y-75719934D02*
X130135911Y-75704089D01*
X130135831Y-75720475D02*
X130135830Y-75719934D01*
X130135833Y-75721752D02*
X130135831Y-75720475D01*
X130135837Y-75723698D02*
X130135833Y-75721752D01*
X130135842Y-75726245D02*
X130135837Y-75723698D01*
X130135848Y-75729325D02*
X130135842Y-75726245D01*
X130135854Y-75732869D02*
X130135848Y-75729325D01*
X130135862Y-75736811D02*
X130135854Y-75732869D01*
X130135870Y-75741082D02*
X130135862Y-75736811D01*
X130135878Y-75745614D02*
X130135870Y-75741082D01*
X130135887Y-75750339D02*
X130135878Y-75745614D01*
X130135897Y-75755189D02*
X130135887Y-75750339D01*
X130135906Y-75760098D02*
X130135897Y-75755189D01*
X130135915Y-75764995D02*
X130135906Y-75760098D01*
X130135924Y-75769815D02*
X130135915Y-75764995D01*
X130135933Y-75774488D02*
X130135924Y-75769815D01*
X130135942Y-75778948D02*
X130135933Y-75774488D01*
X130135949Y-75783125D02*
X130135942Y-75778948D01*
X130135957Y-75786952D02*
X130135949Y-75783125D01*
X130135963Y-75790362D02*
X130135957Y-75786952D01*
X130135969Y-75793286D02*
X130135963Y-75790362D01*
X130135973Y-75795657D02*
X130135969Y-75793286D01*
X130135977Y-75797406D02*
X130135973Y-75795657D01*
X130135979Y-75798465D02*
X130135977Y-75797406D01*
X130135979Y-75798780D02*
X130135979Y-75798465D01*
X130135980Y-75799271D02*
X130135979Y-75798780D01*
X130135982Y-75800502D02*
X130135980Y-75799271D01*
X130135986Y-75802407D02*
X130135982Y-75800502D01*
X130135991Y-75804917D02*
X130135986Y-75802407D01*
X130135997Y-75807964D02*
X130135991Y-75804917D01*
X130136003Y-75811481D02*
X130135997Y-75807964D01*
X130136011Y-75815399D02*
X130136003Y-75811481D01*
X130136019Y-75819650D02*
X130136011Y-75815399D01*
X130136027Y-75824167D02*
X130136019Y-75819650D01*
X130136036Y-75828882D02*
X130136027Y-75824167D01*
X130136045Y-75833726D02*
X130136036Y-75828882D01*
X130136055Y-75838633D02*
X130136045Y-75833726D01*
X130136064Y-75843533D02*
X130136055Y-75838633D01*
X130136073Y-75848360D02*
X130136064Y-75843533D01*
X130136082Y-75853045D02*
X130136073Y-75848360D01*
X130136090Y-75857520D02*
X130136082Y-75853045D01*
X130136098Y-75861718D02*
X130136090Y-75857520D01*
X130136106Y-75865570D02*
X130136098Y-75861718D01*
X130136112Y-75869009D02*
X130136106Y-75865570D01*
X130136118Y-75871967D02*
X130136112Y-75869009D01*
X130136122Y-75874375D02*
X130136118Y-75871967D01*
X130136126Y-75876166D02*
X130136122Y-75874375D01*
X130136128Y-75877273D02*
X130136126Y-75876166D01*
X130136128Y-75877629D02*
X130136128Y-75877273D01*
X130136129Y-75878069D02*
X130136128Y-75877629D01*
X130136132Y-75879255D02*
X130136129Y-75878069D01*
X130136135Y-75881119D02*
X130136132Y-75879255D01*
X130136140Y-75883591D02*
X130136135Y-75881119D01*
X130136145Y-75886606D02*
X130136140Y-75883591D01*
X130136152Y-75890094D02*
X130136145Y-75886606D01*
X130136159Y-75893988D02*
X130136152Y-75890094D01*
X130136167Y-75898220D02*
X130136159Y-75893988D01*
X130136176Y-75902722D02*
X130136167Y-75898220D01*
X130136185Y-75907426D02*
X130136176Y-75902722D01*
X130136194Y-75912264D02*
X130136185Y-75907426D01*
X130136203Y-75917168D02*
X130136194Y-75912264D01*
X130136213Y-75922071D02*
X130136203Y-75917168D01*
X130136222Y-75926905D02*
X130136213Y-75922071D01*
X130136231Y-75931601D02*
X130136222Y-75926905D01*
X130136239Y-75936092D02*
X130136231Y-75931601D01*
X130136247Y-75940310D02*
X130136239Y-75936092D01*
X130136255Y-75944186D02*
X130136247Y-75940310D01*
X130136261Y-75947654D02*
X130136255Y-75944186D01*
X130136267Y-75950645D02*
X130136261Y-75947654D01*
X130136271Y-75953091D02*
X130136267Y-75950645D01*
X130136275Y-75954924D02*
X130136271Y-75953091D01*
X130136277Y-75956077D02*
X130136275Y-75954924D01*
X130136278Y-75956481D02*
X130136277Y-75956077D01*
X130136279Y-75956871D02*
X130136278Y-75956481D01*
X130136281Y-75958011D02*
X130136279Y-75956871D01*
X130136284Y-75959833D02*
X130136281Y-75958011D01*
X130136289Y-75962268D02*
X130136284Y-75959833D01*
X130136294Y-75965249D02*
X130136289Y-75962268D01*
X130136301Y-75968709D02*
X130136294Y-75965249D01*
X130136308Y-75972578D02*
X130136301Y-75968709D01*
X130136316Y-75976790D02*
X130136308Y-75972578D01*
X130136325Y-75981277D02*
X130136316Y-75976790D01*
X130136334Y-75985970D02*
X130136325Y-75981277D01*
X130136343Y-75990801D02*
X130136334Y-75985970D01*
X130136352Y-75995704D02*
X130136343Y-75990801D01*
X130136361Y-76000609D02*
X130136352Y-75995704D01*
X130136371Y-76005449D02*
X130136361Y-76000609D01*
X130136380Y-76010156D02*
X130136371Y-76005449D01*
X130136388Y-76014662D02*
X130136380Y-76010156D01*
X130136396Y-76018900D02*
X130136388Y-76014662D01*
X130136403Y-76022800D02*
X130136396Y-76018900D01*
X130136410Y-76026297D02*
X130136403Y-76022800D01*
X130136416Y-76029321D02*
X130136410Y-76026297D01*
X130136421Y-76031804D02*
X130136416Y-76029321D01*
X130136424Y-76033679D02*
X130136421Y-76031804D01*
X130136426Y-76034878D02*
X130136424Y-76033679D01*
X130136427Y-76035333D02*
X130136426Y-76034878D01*
X130132686Y-76046053D02*
X130136427Y-76035333D01*
X130128340Y-76057397D02*
X130132686Y-76046053D01*
X130123684Y-76068502D02*
X130128340Y-76057397D01*
X130118727Y-76079372D02*
X130123684Y-76068502D01*
X130113476Y-76090010D02*
X130118727Y-76079372D01*
X130107938Y-76100416D02*
X130113476Y-76090010D01*
X130102121Y-76110595D02*
X130107938Y-76100416D01*
X130096032Y-76120549D02*
X130102121Y-76110595D01*
X130089680Y-76130280D02*
X130096032Y-76120549D01*
X130083071Y-76139790D02*
X130089680Y-76130280D01*
X130076214Y-76149083D02*
X130083071Y-76139790D01*
X130069115Y-76158160D02*
X130076214Y-76149083D01*
X130061783Y-76167025D02*
X130069115Y-76158160D01*
X130054224Y-76175679D02*
X130061783Y-76167025D01*
X130046447Y-76184126D02*
X130054224Y-76175679D01*
X130038459Y-76192368D02*
X130046447Y-76184126D01*
X130030268Y-76200407D02*
X130038459Y-76192368D01*
X130021881Y-76208245D02*
X130030268Y-76200407D01*
X130013306Y-76215887D02*
X130021881Y-76208245D01*
X130004550Y-76223333D02*
X130013306Y-76215887D01*
X129995621Y-76230586D02*
X130004550Y-76223333D01*
X129986527Y-76237650D02*
X129995621Y-76230586D01*
X129977275Y-76244526D02*
X129986527Y-76237650D01*
X129967872Y-76251217D02*
X129977275Y-76244526D01*
X129958326Y-76257725D02*
X129967872Y-76251217D01*
X129948646Y-76264054D02*
X129958326Y-76257725D01*
X129938837Y-76270205D02*
X129948646Y-76264054D01*
X129928909Y-76276181D02*
X129938837Y-76270205D01*
X129918868Y-76281985D02*
X129928909Y-76276181D01*
X129908722Y-76287619D02*
X129918868Y-76281985D01*
X129898479Y-76293086D02*
X129908722Y-76287619D01*
X129888145Y-76298388D02*
X129898479Y-76293086D01*
X129877730Y-76303527D02*
X129888145Y-76298388D01*
X129867240Y-76308507D02*
X129877730Y-76303527D01*
X129856683Y-76313330D02*
X129867240Y-76308507D01*
X129846066Y-76317997D02*
X129856683Y-76313330D01*
X129835398Y-76322513D02*
X129846066Y-76317997D01*
X129824685Y-76326879D02*
X129835398Y-76322513D01*
X129813935Y-76331098D02*
X129824685Y-76326879D01*
X129803156Y-76335172D02*
X129813935Y-76331098D01*
X129792356Y-76339104D02*
X129803156Y-76335172D01*
X129781541Y-76342897D02*
X129792356Y-76339104D01*
X129770720Y-76346552D02*
X129781541Y-76342897D01*
X129759899Y-76350073D02*
X129770720Y-76346552D01*
X129749088Y-76353462D02*
X129759899Y-76350073D01*
X129738292Y-76356721D02*
X129749088Y-76353462D01*
X129727521Y-76359854D02*
X129738292Y-76356721D01*
X129716780Y-76362862D02*
X129727521Y-76359854D01*
X129706079Y-76365748D02*
X129716780Y-76362862D01*
X129695424Y-76368514D02*
X129706079Y-76365748D01*
X129684823Y-76371164D02*
X129695424Y-76368514D01*
X129674283Y-76373699D02*
X129684823Y-76371164D01*
X129663813Y-76376123D02*
X129674283Y-76373699D01*
X129653420Y-76378437D02*
X129663813Y-76376123D01*
X129643110Y-76380645D02*
X129653420Y-76378437D01*
X129632893Y-76382748D02*
X129643110Y-76380645D01*
X129622775Y-76384749D02*
X129632893Y-76382748D01*
X129612765Y-76386651D02*
X129622775Y-76384749D01*
X129602868Y-76388457D02*
X129612765Y-76386651D01*
X129593094Y-76390168D02*
X129602868Y-76388457D01*
X129583450Y-76391788D02*
X129593094Y-76390168D01*
X129573943Y-76393318D02*
X129583450Y-76391788D01*
X129564581Y-76394762D02*
X129573943Y-76393318D01*
X129555371Y-76396122D02*
X129564581Y-76394762D01*
X129546321Y-76397400D02*
X129555371Y-76396122D01*
X129537439Y-76398600D02*
X129546321Y-76397400D01*
X129528732Y-76399722D02*
X129537439Y-76398600D01*
X129520208Y-76400771D02*
X129528732Y-76399722D01*
X129511874Y-76401748D02*
X129520208Y-76400771D01*
X129503738Y-76402657D02*
X129511874Y-76401748D01*
X129495808Y-76403498D02*
X129503738Y-76402657D01*
X129488090Y-76404276D02*
X129495808Y-76403498D01*
X129480593Y-76404993D02*
X129488090Y-76404276D01*
X129473324Y-76405651D02*
X129480593Y-76404993D01*
X129466291Y-76406252D02*
X129473324Y-76405651D01*
X129459501Y-76406800D02*
X129466291Y-76406252D01*
X129452962Y-76407296D02*
X129459501Y-76406800D01*
X129446682Y-76407743D02*
X129452962Y-76407296D01*
X129440667Y-76408145D02*
X129446682Y-76407743D01*
X129434926Y-76408502D02*
X129440667Y-76408145D01*
X129429466Y-76408818D02*
X129434926Y-76408502D01*
X129424295Y-76409096D02*
X129429466Y-76408818D01*
X129419420Y-76409337D02*
X129424295Y-76409096D01*
X129414849Y-76409545D02*
X129419420Y-76409337D01*
X129410589Y-76409722D02*
X129414849Y-76409545D01*
X129406649Y-76409870D02*
X129410589Y-76409722D01*
X129403035Y-76409992D02*
X129406649Y-76409870D01*
X129399755Y-76410091D02*
X129403035Y-76409992D01*
X129396817Y-76410168D02*
X129399755Y-76410091D01*
X129394228Y-76410227D02*
X129396817Y-76410168D01*
X129391995Y-76410270D02*
X129394228Y-76410227D01*
X129390128Y-76410300D02*
X129391995Y-76410270D01*
X129388632Y-76410318D02*
X129390128Y-76410300D01*
X129387516Y-76410329D02*
X129388632Y-76410318D01*
X129386787Y-76410333D02*
X129387516Y-76410329D01*
X129386452Y-76410334D02*
X129386787Y-76410333D01*
X129386340Y-76410334D02*
X129386452Y-76410334D01*
X129385874Y-76410332D02*
X129386340Y-76410334D01*
X129385015Y-76410326D02*
X129385874Y-76410332D01*
X129383772Y-76410313D02*
X129385015Y-76410326D01*
X129382152Y-76410291D02*
X129383772Y-76410313D01*
X129380162Y-76410258D02*
X129382152Y-76410291D01*
X129377811Y-76410209D02*
X129380162Y-76410258D01*
X129375105Y-76410145D02*
X129377811Y-76410209D01*
X129372053Y-76410060D02*
X129375105Y-76410145D01*
X129368662Y-76409954D02*
X129372053Y-76410060D01*
X129364939Y-76409824D02*
X129368662Y-76409954D01*
X129360892Y-76409666D02*
X129364939Y-76409824D01*
X129356529Y-76409480D02*
X129360892Y-76409666D01*
X129351857Y-76409261D02*
X129356529Y-76409480D01*
X129346884Y-76409008D02*
X129351857Y-76409261D01*
X129341617Y-76408717D02*
X129346884Y-76409008D01*
X129336064Y-76408388D02*
X129341617Y-76408717D01*
X129330232Y-76408016D02*
X129336064Y-76408388D01*
X129324130Y-76407599D02*
X129330232Y-76408016D01*
X129317763Y-76407136D02*
X129324130Y-76407599D01*
X129311142Y-76406623D02*
X129317763Y-76407136D01*
X129304271Y-76406058D02*
X129311142Y-76406623D01*
X129297160Y-76405438D02*
X129304271Y-76406058D01*
X129289816Y-76404761D02*
X129297160Y-76405438D01*
X129282247Y-76404024D02*
X129289816Y-76404761D01*
X129274459Y-76403225D02*
X129282247Y-76404024D01*
X129266461Y-76402361D02*
X129274459Y-76403225D01*
X129258260Y-76401430D02*
X129266461Y-76402361D01*
X129249863Y-76400430D02*
X129258260Y-76401430D01*
X129241279Y-76399356D02*
X129249863Y-76400430D01*
X129232515Y-76398208D02*
X129241279Y-76399356D01*
X129223578Y-76396983D02*
X129232515Y-76398208D01*
X129214476Y-76395678D02*
X129223578Y-76396983D01*
X129205216Y-76394290D02*
X129214476Y-76395678D01*
X129195806Y-76392818D02*
X129205216Y-76394290D01*
X129186255Y-76391258D02*
X129195806Y-76392818D01*
X129176568Y-76389608D02*
X129186255Y-76391258D01*
X129166754Y-76387866D02*
X129176568Y-76389608D01*
X129156821Y-76386028D02*
X129166754Y-76387866D01*
X129146775Y-76384093D02*
X129156821Y-76386028D01*
X129136625Y-76382058D02*
X129146775Y-76384093D01*
X129126378Y-76379920D02*
X129136625Y-76382058D01*
X129116041Y-76377678D02*
X129126378Y-76379920D01*
X129105623Y-76375327D02*
X129116041Y-76377678D01*
X129095130Y-76372867D02*
X129105623Y-76375327D01*
X129084571Y-76370293D02*
X129095130Y-76372867D01*
X129073953Y-76367605D02*
X129084571Y-76370293D01*
X129063283Y-76364799D02*
X129073953Y-76367605D01*
X129052569Y-76361873D02*
X129063283Y-76364799D01*
X129041818Y-76358823D02*
X129052569Y-76361873D01*
X129031039Y-76355649D02*
X129041818Y-76358823D01*
X129020239Y-76352347D02*
X129031039Y-76355649D01*
X129009424Y-76348914D02*
X129020239Y-76352347D01*
X128998604Y-76345349D02*
X129009424Y-76348914D01*
X128987785Y-76341648D02*
X128998604Y-76345349D01*
X128976975Y-76337809D02*
X128987785Y-76341648D01*
X128966182Y-76333830D02*
X128976975Y-76337809D01*
X128955412Y-76329708D02*
X128966182Y-76333830D01*
X128944674Y-76325440D02*
X128955412Y-76329708D01*
X128933976Y-76321025D02*
X128944674Y-76325440D01*
X128923324Y-76316458D02*
X128933976Y-76321025D01*
X128912727Y-76311739D02*
X128923324Y-76316458D01*
X128902192Y-76306865D02*
X128912727Y-76311739D01*
X128891726Y-76301832D02*
X128902192Y-76306865D01*
X128881337Y-76296638D02*
X128891726Y-76301832D01*
X128871033Y-76291282D02*
X128881337Y-76296638D01*
X128860821Y-76285760D02*
X128871033Y-76291282D01*
X128850709Y-76280069D02*
X128860821Y-76285760D01*
X128840704Y-76274208D02*
X128850709Y-76280069D01*
X128830814Y-76268174D02*
X128840704Y-76274208D01*
X128821047Y-76261964D02*
X128830814Y-76268174D01*
X128811410Y-76255576D02*
X128821047Y-76261964D01*
X128801910Y-76249007D02*
X128811410Y-76255576D01*
X128792555Y-76242254D02*
X128801910Y-76249007D01*
X128783353Y-76235316D02*
X128792555Y-76242254D01*
X128774312Y-76228190D02*
X128783353Y-76235316D01*
X128765438Y-76220872D02*
X128774312Y-76228190D01*
X128756740Y-76213361D02*
X128765438Y-76220872D01*
X128748225Y-76205655D02*
X128756740Y-76213361D01*
X128739900Y-76197749D02*
X128748225Y-76205655D01*
X128731774Y-76189643D02*
X128739900Y-76197749D01*
X128723853Y-76181333D02*
X128731774Y-76189643D01*
X128716145Y-76172818D02*
X128723853Y-76181333D01*
X128708659Y-76164094D02*
X128716145Y-76172818D01*
X128701400Y-76155158D02*
X128708659Y-76164094D01*
X128694378Y-76146009D02*
X128701400Y-76155158D01*
X128687599Y-76136644D02*
X128694378Y-76146009D01*
X128681072Y-76127061D02*
X128687599Y-76136644D01*
X128674803Y-76117256D02*
X128681072Y-76127061D01*
X128668800Y-76107228D02*
X128674803Y-76117256D01*
X128663071Y-76096973D02*
X128668800Y-76107228D01*
X128657624Y-76086490D02*
X128663071Y-76096973D01*
X128652465Y-76075775D02*
X128657624Y-76086490D01*
X128647603Y-76064827D02*
X128652465Y-76075775D01*
X128643045Y-76053642D02*
X128647603Y-76064827D01*
X128638799Y-76042219D02*
X128643045Y-76053642D01*
X128636433Y-76035209D02*
X128638799Y-76042219D01*
X128636435Y-76033868D02*
X128636433Y-76035209D01*
X128636441Y-76031167D02*
X128636435Y-76033868D01*
X128636448Y-76027233D02*
X128636441Y-76031167D01*
X128636458Y-76022193D02*
X128636448Y-76027233D01*
X128636470Y-76016177D02*
X128636458Y-76022193D01*
X128636483Y-76009313D02*
X128636470Y-76016177D01*
X128636498Y-76001728D02*
X128636483Y-76009313D01*
X128636514Y-75993550D02*
X128636498Y-76001728D01*
X128636531Y-75984908D02*
X128636514Y-75993550D01*
X128636548Y-75975930D02*
X128636531Y-75984908D01*
X128636566Y-75966744D02*
X128636548Y-75975930D01*
X128636584Y-75957478D02*
X128636566Y-75966744D01*
X128636602Y-75948260D02*
X128636584Y-75957478D01*
X128636619Y-75939217D02*
X128636602Y-75948260D01*
X128636636Y-75930480D02*
X128636619Y-75939217D01*
X128636652Y-75922174D02*
X128636636Y-75930480D01*
X128636667Y-75914429D02*
X128636652Y-75922174D01*
X128636681Y-75907372D02*
X128636667Y-75914429D01*
X128636693Y-75901132D02*
X128636681Y-75907372D01*
X128636704Y-75895837D02*
X128636693Y-75901132D01*
X128636712Y-75891614D02*
X128636704Y-75895837D01*
X128636718Y-75888592D02*
X128636712Y-75891614D01*
X128636721Y-75886900D02*
X128636718Y-75888592D01*
X128636722Y-75886483D02*
X128636721Y-75886900D01*
X128636724Y-75885235D02*
X128636722Y-75886483D01*
X128636729Y-75882618D02*
X128636724Y-75885235D01*
X128636737Y-75878760D02*
X128636729Y-75882618D01*
X128636746Y-75873788D02*
X128636737Y-75878760D01*
X128636758Y-75867832D02*
X128636746Y-75873788D01*
X128636771Y-75861018D02*
X128636758Y-75867832D01*
X128636786Y-75853476D02*
X128636771Y-75861018D01*
X128636802Y-75845333D02*
X128636786Y-75853476D01*
X128636818Y-75836717D02*
X128636802Y-75845333D01*
X128636836Y-75827757D02*
X128636818Y-75836717D01*
X128636854Y-75818580D02*
X128636836Y-75827757D01*
X128636872Y-75809315D02*
X128636854Y-75818580D01*
X128636890Y-75800090D02*
X128636872Y-75809315D01*
X128636907Y-75791033D02*
X128636890Y-75800090D01*
X128636924Y-75782271D02*
X128636907Y-75791033D01*
X128636940Y-75773934D02*
X128636924Y-75782271D01*
X128636955Y-75766148D02*
X128636940Y-75773934D01*
X128636969Y-75759043D02*
X128636955Y-75766148D01*
X128636981Y-75752746D02*
X128636969Y-75759043D01*
X128636992Y-75747386D02*
X128636981Y-75752746D01*
X128637000Y-75743090D02*
X128636992Y-75747386D01*
X128637006Y-75739986D02*
X128637000Y-75743090D01*
X128637010Y-75738204D02*
X128637006Y-75739986D01*
X128637011Y-75737751D02*
X128637010Y-75738204D01*
X128637013Y-75736596D02*
X128637011Y-75737751D01*
X128637018Y-75734064D02*
X128637013Y-75736596D01*
X128637025Y-75730282D02*
X128637018Y-75734064D01*
X128637035Y-75725379D02*
X128637025Y-75730282D01*
X128637046Y-75719482D02*
X128637035Y-75725379D01*
X128637059Y-75712720D02*
X128637046Y-75719482D01*
X128637074Y-75705221D02*
X128637059Y-75712720D01*
X128637090Y-75697114D02*
X128637074Y-75705221D01*
X128637106Y-75688525D02*
X128637090Y-75697114D01*
X128637124Y-75679583D02*
X128637106Y-75688525D01*
X128637141Y-75670416D02*
X128637124Y-75679583D01*
X128637159Y-75661153D02*
X128637141Y-75670416D01*
X128637177Y-75651922D02*
X128637159Y-75661153D01*
X128637195Y-75642849D02*
X128637177Y-75651922D01*
X128637212Y-75634065D02*
X128637195Y-75642849D01*
X128637228Y-75625696D02*
X128637212Y-75634065D01*
X128637243Y-75617871D02*
X128637228Y-75625696D01*
X128637257Y-75610718D02*
X128637243Y-75617871D01*
X128637270Y-75604365D02*
X128637257Y-75610718D01*
X128637280Y-75598939D02*
X128637270Y-75604365D01*
X128637289Y-75594571D02*
X128637280Y-75598939D01*
X128637295Y-75591386D02*
X128637289Y-75594571D01*
X128637298Y-75589514D02*
X128637295Y-75591386D01*
X128637299Y-75589012D02*
X128637298Y-75589514D01*
X128637302Y-75587951D02*
X128637299Y-75589012D01*
X128637306Y-75585504D02*
X128637302Y-75587951D01*
X128637313Y-75581799D02*
X128637306Y-75585504D01*
X128637323Y-75576965D02*
X128637313Y-75581799D01*
X128637334Y-75571129D02*
X128637323Y-75576965D01*
X128637347Y-75564419D02*
X128637334Y-75571129D01*
X128637362Y-75556964D02*
X128637347Y-75564419D01*
X128637377Y-75548892D02*
X128637362Y-75556964D01*
X128637394Y-75540331D02*
X128637377Y-75548892D01*
X128637411Y-75531408D02*
X128637394Y-75540331D01*
X128637429Y-75522252D02*
X128637411Y-75531408D01*
X128637447Y-75512991D02*
X128637429Y-75522252D01*
X128637465Y-75503754D02*
X128637447Y-75512991D01*
X128637483Y-75494667D02*
X128637465Y-75503754D01*
X128637500Y-75485860D02*
X128637483Y-75494667D01*
X128637516Y-75477460D02*
X128637500Y-75485860D01*
X128637531Y-75469596D02*
X128637516Y-75477460D01*
X128637545Y-75462396D02*
X128637531Y-75469596D01*
X128637558Y-75455987D02*
X128637545Y-75462396D01*
X128637568Y-75450498D02*
X128637558Y-75455987D01*
X128637577Y-75446056D02*
X128637568Y-75450498D01*
X128637583Y-75442791D02*
X128637577Y-75446056D01*
X128637587Y-75440830D02*
X128637583Y-75442791D01*
X128637580Y-75437390D02*
X128637587Y-75440830D01*
X128637386Y-75417931D02*
X128637580Y-75437390D01*
X128636953Y-75398598D02*
X128637386Y-75417931D01*
X128636284Y-75379394D02*
X128636953Y-75398598D01*
X128635380Y-75360319D02*
X128636284Y-75379394D01*
X128634245Y-75341375D02*
X128635380Y-75360319D01*
X128632880Y-75322564D02*
X128634245Y-75341375D01*
X128631290Y-75303888D02*
X128632880Y-75322564D01*
X128629475Y-75285348D02*
X128631290Y-75303888D01*
X128627438Y-75266946D02*
X128629475Y-75285348D01*
X128625182Y-75248684D02*
X128627438Y-75266946D01*
X128622710Y-75230562D02*
X128625182Y-75248684D01*
X128620024Y-75212584D02*
X128622710Y-75230562D01*
X128617127Y-75194750D02*
X128620024Y-75212584D01*
X128614020Y-75177061D02*
X128617127Y-75194750D01*
X128610707Y-75159521D02*
X128614020Y-75177061D01*
X128607190Y-75142129D02*
X128610707Y-75159521D01*
X128603472Y-75124889D02*
X128607190Y-75142129D01*
X128599555Y-75107801D02*
X128603472Y-75124889D01*
X128595441Y-75090867D02*
X128599555Y-75107801D01*
X128591134Y-75074089D02*
X128595441Y-75090867D01*
X128586635Y-75057469D02*
X128591134Y-75074089D01*
X128581947Y-75041007D02*
X128586635Y-75057469D01*
X128577073Y-75024706D02*
X128581947Y-75041007D01*
X128572015Y-75008568D02*
X128577073Y-75024706D01*
X128566776Y-74992593D02*
X128572015Y-75008568D01*
X128561358Y-74976784D02*
X128566776Y-74992593D01*
X128555764Y-74961142D02*
X128561358Y-74976784D01*
X128549996Y-74945669D02*
X128555764Y-74961142D01*
X128544056Y-74930366D02*
X128549996Y-74945669D01*
X128537948Y-74915236D02*
X128544056Y-74930366D01*
X128531674Y-74900279D02*
X128537948Y-74915236D01*
X128525236Y-74885497D02*
X128531674Y-74900279D01*
X128518637Y-74870893D02*
X128525236Y-74885497D01*
X128511879Y-74856467D02*
X128518637Y-74870893D01*
X128504965Y-74842221D02*
X128511879Y-74856467D01*
X128497897Y-74828157D02*
X128504965Y-74842221D01*
X128490678Y-74814277D02*
X128497897Y-74828157D01*
X128483310Y-74800582D02*
X128490678Y-74814277D01*
X128475797Y-74787073D02*
X128483310Y-74800582D01*
X128468139Y-74773753D02*
X128475797Y-74787073D01*
X128460341Y-74760623D02*
X128468139Y-74773753D01*
X128452404Y-74747684D02*
X128460341Y-74760623D01*
X128444331Y-74734939D02*
X128452404Y-74747684D01*
X128436125Y-74722388D02*
X128444331Y-74734939D01*
X128427787Y-74710034D02*
X128436125Y-74722388D01*
X128419321Y-74697878D02*
X128427787Y-74710034D01*
X128410729Y-74685922D02*
X128419321Y-74697878D01*
X128402014Y-74674168D02*
X128410729Y-74685922D01*
X128393177Y-74662616D02*
X128402014Y-74674168D01*
X128384222Y-74651269D02*
X128393177Y-74662616D01*
X128375151Y-74640128D02*
X128384222Y-74651269D01*
X128365967Y-74629196D02*
X128375151Y-74640128D01*
X128356671Y-74618473D02*
X128365967Y-74629196D01*
X128347268Y-74607960D02*
X128356671Y-74618473D01*
X128337758Y-74597661D02*
X128347268Y-74607960D01*
X128328145Y-74587576D02*
X128337758Y-74597661D01*
X128318431Y-74577708D02*
X128328145Y-74587576D01*
X128308619Y-74568057D02*
X128318431Y-74577708D01*
X128298711Y-74558625D02*
X128308619Y-74568057D01*
X128288710Y-74549414D02*
X128298711Y-74558625D01*
X128278618Y-74540426D02*
X128288710Y-74549414D01*
X128268437Y-74531662D02*
X128278618Y-74540426D01*
X128258171Y-74523124D02*
X128268437Y-74531662D01*
X128247821Y-74514813D02*
X128258171Y-74523124D01*
X128237391Y-74506732D02*
X128247821Y-74514813D01*
X128226883Y-74498881D02*
X128237391Y-74506732D01*
X128216298Y-74491262D02*
X128226883Y-74498881D01*
X128205641Y-74483878D02*
X128216298Y-74491262D01*
X128194913Y-74476729D02*
X128205641Y-74483878D01*
X128184117Y-74469817D02*
X128194913Y-74476729D01*
X128173255Y-74463144D02*
X128184117Y-74469817D01*
X128162330Y-74456712D02*
X128173255Y-74463144D01*
X128151344Y-74450522D02*
X128162330Y-74456712D01*
X128140300Y-74444575D02*
X128151344Y-74450522D01*
X128129200Y-74438874D02*
X128140300Y-74444575D01*
X128118048Y-74433420D02*
X128129200Y-74438874D01*
X128106845Y-74428215D02*
X128118048Y-74433420D01*
X128095593Y-74423260D02*
X128106845Y-74428215D01*
X128084297Y-74418556D02*
X128095593Y-74423260D01*
X128072957Y-74414107D02*
X128084297Y-74418556D01*
X128061577Y-74409912D02*
X128072957Y-74414107D01*
X128050158Y-74405975D02*
X128061577Y-74409912D01*
X128038704Y-74402295D02*
X128050158Y-74405975D01*
X128027217Y-74398876D02*
X128038704Y-74402295D01*
X128015700Y-74395718D02*
X128027217Y-74398876D01*
X128004155Y-74392824D02*
X128015700Y-74395718D01*
X127992584Y-74390195D02*
X128004155Y-74392824D01*
X127980991Y-74387832D02*
X127992584Y-74390195D01*
X127969376Y-74385737D02*
X127980991Y-74387832D01*
X127957745Y-74383913D02*
X127969376Y-74385737D01*
X127946097Y-74382359D02*
X127957745Y-74383913D01*
X127934437Y-74381079D02*
X127946097Y-74382359D01*
X127922766Y-74380074D02*
X127934437Y-74381079D01*
X127911088Y-74379344D02*
X127922766Y-74380074D01*
X127899404Y-74378893D02*
X127911088Y-74379344D01*
X127887718Y-74378722D02*
X127899404Y-74378893D01*
X127876031Y-74378831D02*
X127887718Y-74378722D01*
X127864346Y-74379220D02*
X127876031Y-74378831D01*
X127852666Y-74379888D02*
X127864346Y-74379220D01*
X127840994Y-74380832D02*
X127852666Y-74379888D01*
X127829331Y-74382051D02*
X127840994Y-74380832D01*
X127817681Y-74383544D02*
X127829331Y-74382051D01*
X127806045Y-74385308D02*
X127817681Y-74383544D01*
X127794427Y-74387342D02*
X127806045Y-74385308D01*
X127782829Y-74389645D02*
X127794427Y-74387342D01*
X127771253Y-74392215D02*
X127782829Y-74389645D01*
X127759702Y-74395050D02*
X127771253Y-74392215D01*
X127748178Y-74398148D02*
X127759702Y-74395050D01*
X127736685Y-74401508D02*
X127748178Y-74398148D01*
X127725224Y-74405129D02*
X127736685Y-74401508D01*
X127713798Y-74409008D02*
X127725224Y-74405129D01*
X127702410Y-74413144D02*
X127713798Y-74409008D01*
X127691061Y-74417535D02*
X127702410Y-74413144D01*
X127679756Y-74422180D02*
X127691061Y-74417535D01*
X127668495Y-74427077D02*
X127679756Y-74422180D01*
X127657282Y-74432224D02*
X127668495Y-74427077D01*
X127646119Y-74437621D02*
X127657282Y-74432224D01*
X127635009Y-74443264D02*
X127646119Y-74437621D01*
X127623955Y-74449152D02*
X127635009Y-74443264D01*
X127612957Y-74455285D02*
X127623955Y-74449152D01*
X127602021Y-74461660D02*
X127612957Y-74455285D01*
X127591147Y-74468275D02*
X127602021Y-74461660D01*
X127580338Y-74475129D02*
X127591147Y-74468275D01*
X127569597Y-74482220D02*
X127580338Y-74475129D01*
X127558926Y-74489547D02*
X127569597Y-74482220D01*
X127548328Y-74497108D02*
X127558926Y-74489547D01*
X127537806Y-74504901D02*
X127548328Y-74497108D01*
X127527362Y-74512925D02*
X127537806Y-74504901D01*
X127516998Y-74521178D02*
X127527362Y-74512925D01*
X127506717Y-74529659D02*
X127516998Y-74521178D01*
X127496521Y-74538365D02*
X127506717Y-74529659D01*
X127486414Y-74547295D02*
X127496521Y-74538365D01*
X127476397Y-74556447D02*
X127486414Y-74547295D01*
X127466473Y-74565821D02*
X127476397Y-74556447D01*
X127456644Y-74575414D02*
X127466473Y-74565821D01*
X127446914Y-74585224D02*
X127456644Y-74575414D01*
X127437284Y-74595250D02*
X127446914Y-74585224D01*
X127427758Y-74605490D02*
X127437284Y-74595250D01*
X127418337Y-74615943D02*
X127427758Y-74605490D01*
X127409024Y-74626607D02*
X127418337Y-74615943D01*
X127399822Y-74637480D02*
X127409024Y-74626607D01*
X127390733Y-74648561D02*
X127399822Y-74637480D01*
X127381760Y-74659848D02*
X127390733Y-74648561D01*
X127372905Y-74671339D02*
X127381760Y-74659848D01*
X127364172Y-74683033D02*
X127372905Y-74671339D01*
X127355561Y-74694928D02*
X127364172Y-74683033D01*
X127347076Y-74707023D02*
X127355561Y-74694928D01*
X127338720Y-74719315D02*
X127347076Y-74707023D01*
X127330494Y-74731804D02*
X127338720Y-74719315D01*
X127322402Y-74744487D02*
X127330494Y-74731804D01*
X127314446Y-74757363D02*
X127322402Y-74744487D01*
X127306628Y-74770431D02*
X127314446Y-74757363D01*
X127298951Y-74783688D02*
X127306628Y-74770431D01*
X127291418Y-74797133D02*
X127298951Y-74783688D01*
X127284031Y-74810764D02*
X127291418Y-74797133D01*
X127276792Y-74824580D02*
X127284031Y-74810764D01*
X127269704Y-74838579D02*
X127276792Y-74824580D01*
X127262770Y-74852759D02*
X127269704Y-74838579D01*
X127255992Y-74867119D02*
X127262770Y-74852759D01*
X127249373Y-74881657D02*
X127255992Y-74867119D01*
X127242915Y-74896372D02*
X127249373Y-74881657D01*
X127236620Y-74911262D02*
X127242915Y-74896372D01*
X127230492Y-74926324D02*
X127236620Y-74911262D01*
X127224532Y-74941559D02*
X127230492Y-74926324D01*
X127218744Y-74956963D02*
X127224532Y-74941559D01*
X127213129Y-74972535D02*
X127218744Y-74956963D01*
X127207691Y-74988274D02*
X127213129Y-74972535D01*
X127202431Y-75004178D02*
X127207691Y-74988274D01*
X127197353Y-75020246D02*
X127202431Y-75004178D01*
X127192459Y-75036475D02*
X127197353Y-75020246D01*
X127187751Y-75052864D02*
X127192459Y-75036475D01*
X127183232Y-75069411D02*
X127187751Y-75052864D01*
X127178904Y-75086116D02*
X127183232Y-75069411D01*
X127174771Y-75102975D02*
X127178904Y-75086116D01*
X127170834Y-75119988D02*
X127174771Y-75102975D01*
X127167095Y-75137153D02*
X127170834Y-75119988D01*
X127163559Y-75154468D02*
X127167095Y-75137153D01*
X127160226Y-75171931D02*
X127163559Y-75154468D01*
X127157100Y-75189541D02*
X127160226Y-75171931D01*
X127154183Y-75207297D02*
X127157100Y-75189541D01*
X127151477Y-75225196D02*
X127154183Y-75207297D01*
X127148986Y-75243237D02*
X127151477Y-75225196D01*
X127146712Y-75261419D02*
X127148986Y-75243237D01*
X127144656Y-75279739D02*
X127146712Y-75261419D01*
X127142822Y-75298196D02*
X127144656Y-75279739D01*
X127141213Y-75316789D02*
X127142822Y-75298196D01*
X127139830Y-75335516D02*
X127141213Y-75316789D01*
X127138676Y-75354374D02*
X127139830Y-75335516D01*
X127137754Y-75373363D02*
X127138676Y-75354374D01*
X127137067Y-75392481D02*
X127137754Y-75373363D01*
X127136616Y-75411726D02*
X127137067Y-75392481D01*
X127136405Y-75431097D02*
X127136616Y-75411726D01*
X127136388Y-75438604D02*
X127136405Y-75431097D01*
X127136388Y-75440264D02*
X127136388Y-75438604D01*
X127136389Y-75443260D02*
X127136388Y-75440264D01*
X127136389Y-75447465D02*
X127136389Y-75443260D01*
X127136390Y-75452750D02*
X127136389Y-75447465D01*
X127136391Y-75458986D02*
X127136390Y-75452750D01*
X127136392Y-75466045D02*
X127136391Y-75458986D01*
X127136393Y-75473799D02*
X127136392Y-75466045D01*
X127136394Y-75482118D02*
X127136393Y-75473799D01*
X127136395Y-75490875D02*
X127136394Y-75482118D01*
X127136396Y-75499940D02*
X127136395Y-75490875D01*
X127136398Y-75509186D02*
X127136396Y-75499940D01*
X127136399Y-75518484D02*
X127136398Y-75509186D01*
X127136400Y-75527704D02*
X127136399Y-75518484D01*
X127136401Y-75536720D02*
X127136400Y-75527704D01*
X127136403Y-75545402D02*
X127136401Y-75536720D01*
X127136404Y-75553621D02*
X127136403Y-75545402D01*
X127136405Y-75561250D02*
X127136404Y-75553621D01*
X127136406Y-75568159D02*
X127136405Y-75561250D01*
X127136406Y-75574220D02*
X127136406Y-75568159D01*
X127136407Y-75579305D02*
X127136406Y-75574220D01*
X127136408Y-75583285D02*
X127136407Y-75579305D01*
X127136408Y-75586032D02*
X127136408Y-75583285D01*
X127136408Y-75587416D02*
X127136408Y-75586032D01*
X127136408Y-75587804D02*
X127136408Y-75587416D01*
X127136409Y-75589372D02*
X127136408Y-75587804D01*
X127136409Y-75592286D02*
X127136409Y-75589372D01*
X127136409Y-75596416D02*
X127136409Y-75592286D01*
X127136410Y-75601635D02*
X127136409Y-75596416D01*
X127136411Y-75607814D02*
X127136410Y-75601635D01*
X127136412Y-75614823D02*
X127136411Y-75607814D01*
X127136413Y-75622536D02*
X127136412Y-75614823D01*
X127136414Y-75630822D02*
X127136413Y-75622536D01*
X127136415Y-75639555D02*
X127136414Y-75630822D01*
X127136417Y-75648604D02*
X127136415Y-75639555D01*
X127136418Y-75657842D02*
X127136417Y-75648604D01*
X127136419Y-75667140D02*
X127136418Y-75657842D01*
X127136420Y-75676370D02*
X127136419Y-75667140D01*
X127136422Y-75685403D02*
X127136420Y-75676370D01*
X127136423Y-75694110D02*
X127136422Y-75685403D01*
X127136424Y-75702363D02*
X127136423Y-75694110D01*
X127136425Y-75710034D02*
X127136424Y-75702363D01*
X127136426Y-75716994D02*
X127136425Y-75710034D01*
X127136427Y-75723114D02*
X127136426Y-75716994D01*
X127136427Y-75728266D02*
X127136427Y-75723114D01*
X127136428Y-75732321D02*
X127136427Y-75728266D01*
X127136428Y-75735152D02*
X127136428Y-75732321D01*
X127136429Y-75736629D02*
X127136428Y-75735152D01*
X127136429Y-75737010D02*
X127136429Y-75736629D01*
X127136429Y-75738487D02*
X127136429Y-75737010D01*
X127136429Y-75741317D02*
X127136429Y-75738487D01*
X127136430Y-75745373D02*
X127136429Y-75741317D01*
X127136430Y-75750525D02*
X127136430Y-75745373D01*
X127136431Y-75756645D02*
X127136430Y-75750525D01*
X127136432Y-75763605D02*
X127136431Y-75756645D01*
X127136433Y-75771275D02*
X127136432Y-75763605D01*
X127136434Y-75779529D02*
X127136433Y-75771275D01*
X127136436Y-75788236D02*
X127136434Y-75779529D01*
X127136437Y-75797269D02*
X127136436Y-75788236D01*
X127136438Y-75806498D02*
X127136437Y-75797269D01*
X127136439Y-75815796D02*
X127136438Y-75806498D01*
X127136441Y-75825034D02*
X127136439Y-75815796D01*
X127136442Y-75834084D02*
X127136441Y-75825034D01*
X127136443Y-75842816D02*
X127136442Y-75834084D01*
X127136444Y-75851102D02*
X127136443Y-75842816D01*
X127136445Y-75858815D02*
X127136444Y-75851102D01*
X127136446Y-75865825D02*
X127136445Y-75858815D01*
X127136447Y-75872003D02*
X127136446Y-75865825D01*
X127136448Y-75877222D02*
X127136447Y-75872003D01*
X127136448Y-75881352D02*
X127136448Y-75877222D01*
X127136449Y-75884266D02*
X127136448Y-75881352D01*
X127136449Y-75885834D02*
X127136449Y-75884266D01*
X127136449Y-75886222D02*
X127136449Y-75885834D01*
X127136449Y-75887607D02*
X127136449Y-75886222D01*
X127136449Y-75890353D02*
X127136449Y-75887607D01*
X127136450Y-75894333D02*
X127136449Y-75890353D01*
X127136451Y-75899418D02*
X127136450Y-75894333D01*
X127136452Y-75905479D02*
X127136451Y-75899418D01*
X127136452Y-75912389D02*
X127136452Y-75905479D01*
X127136454Y-75920017D02*
X127136452Y-75912389D01*
X127136455Y-75928237D02*
X127136454Y-75920017D01*
X127136456Y-75936918D02*
X127136455Y-75928237D01*
X127136457Y-75945934D02*
X127136456Y-75936918D01*
X127136458Y-75955155D02*
X127136457Y-75945934D01*
X127136460Y-75964452D02*
X127136458Y-75955155D01*
X127136461Y-75973698D02*
X127136460Y-75964452D01*
X127136462Y-75982763D02*
X127136461Y-75973698D01*
X127136463Y-75991520D02*
X127136462Y-75982763D01*
X127136464Y-75999840D02*
X127136463Y-75991520D01*
X127136465Y-76007593D02*
X127136464Y-75999840D01*
X127136466Y-76014652D02*
X127136465Y-76007593D01*
X127136467Y-76020888D02*
X127136466Y-76014652D01*
X127136468Y-76026173D02*
X127136467Y-76020888D01*
X127136469Y-76030378D02*
X127136468Y-76026173D01*
X127136469Y-76033375D02*
X127136469Y-76030378D01*
X127136469Y-76035034D02*
X127136469Y-76033375D01*
X127135006Y-76039647D02*
X127136469Y-76035034D01*
X127130835Y-76051124D02*
X127135006Y-76039647D01*
X127126350Y-76062362D02*
X127130835Y-76051124D01*
X127121560Y-76073362D02*
X127126350Y-76062362D01*
X127116471Y-76084129D02*
X127121560Y-76073362D01*
X127111091Y-76094663D02*
X127116471Y-76084129D01*
X127105429Y-76104968D02*
X127111091Y-76094663D01*
X127099490Y-76115047D02*
X127105429Y-76104968D01*
X127093283Y-76124901D02*
X127099490Y-76115047D01*
X127086816Y-76134534D02*
X127093283Y-76124901D01*
X127080096Y-76143947D02*
X127086816Y-76134534D01*
X127073130Y-76153144D02*
X127080096Y-76143947D01*
X127065927Y-76162126D02*
X127073130Y-76153144D01*
X127058493Y-76170897D02*
X127065927Y-76162126D01*
X127050836Y-76179459D02*
X127058493Y-76170897D01*
X127042965Y-76187814D02*
X127050836Y-76179459D01*
X127034886Y-76195965D02*
X127042965Y-76187814D01*
X127026606Y-76203915D02*
X127034886Y-76195965D01*
X127018135Y-76211666D02*
X127026606Y-76203915D01*
X127009478Y-76219220D02*
X127018135Y-76211666D01*
X127000645Y-76226580D02*
X127009478Y-76219220D01*
X126991641Y-76233749D02*
X127000645Y-76226580D01*
X126982476Y-76240729D02*
X126991641Y-76233749D01*
X126973156Y-76247522D02*
X126982476Y-76240729D01*
X126963689Y-76254132D02*
X126973156Y-76247522D01*
X126954082Y-76260560D02*
X126963689Y-76254132D01*
X126944344Y-76266809D02*
X126954082Y-76260560D01*
X126934481Y-76272882D02*
X126944344Y-76266809D01*
X126924501Y-76278782D02*
X126934481Y-76272882D01*
X126914413Y-76284510D02*
X126924501Y-76278782D01*
X126904223Y-76290069D02*
X126914413Y-76284510D01*
X126893939Y-76295462D02*
X126904223Y-76290069D01*
X126883568Y-76300692D02*
X126893939Y-76295462D01*
X126873119Y-76305760D02*
X126883568Y-76300692D01*
X126862598Y-76310670D02*
X126873119Y-76305760D01*
X126852013Y-76315423D02*
X126862598Y-76310670D01*
X126841373Y-76320023D02*
X126852013Y-76315423D01*
X126830684Y-76324472D02*
X126841373Y-76320023D01*
X126819953Y-76328772D02*
X126830684Y-76324472D01*
X126809190Y-76332926D02*
X126819953Y-76328772D01*
X126798400Y-76336937D02*
X126809190Y-76332926D01*
X126787592Y-76340807D02*
X126798400Y-76336937D01*
X126776774Y-76344538D02*
X126787592Y-76340807D01*
X126765952Y-76348133D02*
X126776774Y-76344538D01*
X126755135Y-76351595D02*
X126765952Y-76348133D01*
X126744329Y-76354926D02*
X126755135Y-76351595D01*
X126733543Y-76358129D02*
X126744329Y-76354926D01*
X126722785Y-76361206D02*
X126733543Y-76358129D01*
X126712061Y-76364159D02*
X126722785Y-76361206D01*
X126701379Y-76366992D02*
X126712061Y-76364159D01*
X126690747Y-76369706D02*
X126701379Y-76366992D01*
X126680172Y-76372305D02*
X126690747Y-76369706D01*
X126669663Y-76374790D02*
X126680172Y-76372305D01*
X126659226Y-76377165D02*
X126669663Y-76374790D01*
X126648869Y-76379431D02*
X126659226Y-76377165D01*
X126638600Y-76381592D02*
X126648869Y-76379431D01*
X126628426Y-76383650D02*
X126638600Y-76381592D01*
X126618354Y-76385607D02*
X126628426Y-76383650D01*
X126608394Y-76387466D02*
X126618354Y-76385607D01*
X126598551Y-76389229D02*
X126608394Y-76387466D01*
X126588833Y-76390899D02*
X126598551Y-76389229D01*
X126579249Y-76392479D02*
X126588833Y-76390899D01*
X126569806Y-76393971D02*
X126579249Y-76392479D01*
X126560510Y-76395377D02*
X126569806Y-76393971D01*
X126551371Y-76396700D02*
X126560510Y-76395377D01*
X126542395Y-76397943D02*
X126551371Y-76396700D01*
X126533590Y-76399108D02*
X126542395Y-76397943D01*
X126524963Y-76400197D02*
X126533590Y-76399108D01*
X126516522Y-76401214D02*
X126524963Y-76400197D01*
X126508276Y-76402160D02*
X126516522Y-76401214D01*
X126500230Y-76403039D02*
X126508276Y-76402160D01*
X126492393Y-76403852D02*
X126500230Y-76403039D01*
X126484772Y-76404602D02*
X126492393Y-76403852D01*
X126477376Y-76405292D02*
X126484772Y-76404602D01*
X126470211Y-76405925D02*
X126477376Y-76405292D01*
X126463285Y-76406502D02*
X126470211Y-76405925D01*
X126456606Y-76407026D02*
X126463285Y-76406502D01*
X126450181Y-76407501D02*
X126456606Y-76407026D01*
X126444017Y-76407927D02*
X126450181Y-76407501D01*
X126438123Y-76408309D02*
X126444017Y-76407927D01*
X126432506Y-76408648D02*
X126438123Y-76408309D01*
X126427174Y-76408946D02*
X126432506Y-76408648D01*
X126422133Y-76409208D02*
X126427174Y-76408946D01*
X126417393Y-76409434D02*
X126422133Y-76409208D01*
X126412959Y-76409628D02*
X126417393Y-76409434D01*
X126408840Y-76409791D02*
X126412959Y-76409628D01*
X126405044Y-76409927D02*
X126408840Y-76409791D01*
X126401577Y-76410039D02*
X126405044Y-76409927D01*
X126398448Y-76410128D02*
X126401577Y-76410039D01*
X126395664Y-76410197D02*
X126398448Y-76410128D01*
X126393233Y-76410248D02*
X126395664Y-76410197D01*
X126391162Y-76410285D02*
X126393233Y-76410248D01*
X126389459Y-76410309D02*
X126391162Y-76410285D01*
X126388131Y-76410324D02*
X126389459Y-76410309D01*
X126387186Y-76410331D02*
X126388131Y-76410324D01*
X126386631Y-76410334D02*
X126387186Y-76410331D01*
X126386469Y-76410334D02*
X126386631Y-76410334D01*
X126386224Y-76410333D02*
X126386469Y-76410334D01*
X126385582Y-76410330D02*
X126386224Y-76410333D01*
X126384551Y-76410321D02*
X126385582Y-76410330D01*
X126383140Y-76410305D02*
X126384551Y-76410321D01*
X126381355Y-76410278D02*
X126383140Y-76410305D01*
X126379203Y-76410238D02*
X126381355Y-76410278D01*
X126376694Y-76410183D02*
X126379203Y-76410238D01*
X126373833Y-76410110D02*
X126376694Y-76410183D01*
X126370629Y-76410016D02*
X126373833Y-76410110D01*
X126367090Y-76409899D02*
X126370629Y-76410016D01*
X126363222Y-76409757D02*
X126367090Y-76409899D01*
X126359034Y-76409587D02*
X126363222Y-76409757D01*
X126354532Y-76409386D02*
X126359034Y-76409587D01*
X126349725Y-76409153D02*
X126354532Y-76409386D01*
X126344620Y-76408883D02*
X126349725Y-76409153D01*
X126339225Y-76408576D02*
X126344620Y-76408883D01*
X126333547Y-76408228D02*
X126339225Y-76408576D01*
X126327594Y-76407836D02*
X126333547Y-76408228D01*
X126321374Y-76407399D02*
X126327594Y-76407836D01*
X126314893Y-76406914D02*
X126321374Y-76407399D01*
X126308159Y-76406378D02*
X126314893Y-76406914D01*
X126301181Y-76405789D02*
X126308159Y-76406378D01*
X126293965Y-76405144D02*
X126301181Y-76405789D01*
X126286520Y-76404441D02*
X126293965Y-76405144D01*
X126278852Y-76403677D02*
X126286520Y-76404441D01*
X126270970Y-76402849D02*
X126278852Y-76403677D01*
X126262880Y-76401956D02*
X126270970Y-76402849D01*
X126254591Y-76400994D02*
X126262880Y-76401956D01*
X126246110Y-76399962D02*
X126254591Y-76400994D01*
X126237445Y-76398856D02*
X126246110Y-76399962D01*
X126228602Y-76397674D02*
X126237445Y-76398856D01*
X126219591Y-76396413D02*
X126228602Y-76397674D01*
X126210417Y-76395072D02*
X126219591Y-76396413D01*
X126201090Y-76393647D02*
X126210417Y-76395072D01*
X126191616Y-76392136D02*
X126201090Y-76393647D01*
X126182003Y-76390536D02*
X126191616Y-76392136D01*
X126172258Y-76388845D02*
X126182003Y-76390536D01*
X126162390Y-76387061D02*
X126172258Y-76388845D01*
X126152405Y-76385180D02*
X126162390Y-76387061D01*
X126142312Y-76383201D02*
X126152405Y-76385180D01*
X126132117Y-76381121D02*
X126142312Y-76383201D01*
X126121829Y-76378937D02*
X126132117Y-76381121D01*
X126111454Y-76376646D02*
X126121829Y-76378937D01*
X126101001Y-76374247D02*
X126111454Y-76376646D01*
X126090478Y-76371737D02*
X126101001Y-76374247D01*
X126079890Y-76369113D02*
X126090478Y-76371737D01*
X126069248Y-76366373D02*
X126079890Y-76369113D01*
X126058556Y-76363513D02*
X126069248Y-76366373D01*
X126047825Y-76360533D02*
X126058556Y-76363513D01*
X126037060Y-76357428D02*
X126047825Y-76360533D01*
X126026269Y-76354197D02*
X126037060Y-76357428D01*
X126015461Y-76350837D02*
X126026269Y-76354197D01*
X126004642Y-76347346D02*
X126015461Y-76350837D01*
X125993820Y-76343721D02*
X126004642Y-76347346D01*
X125983003Y-76339959D02*
X125993820Y-76343721D01*
X125972199Y-76336058D02*
X125983003Y-76339959D01*
X125961414Y-76332016D02*
X125972199Y-76336058D01*
X125950657Y-76327829D02*
X125961414Y-76332016D01*
X125939935Y-76323496D02*
X125950657Y-76327829D01*
X125929255Y-76319014D02*
X125939935Y-76323496D01*
X125918625Y-76314380D02*
X125929255Y-76319014D01*
X125908053Y-76309592D02*
X125918625Y-76314380D01*
X125897547Y-76304648D02*
X125908053Y-76309592D01*
X125887113Y-76299544D02*
X125897547Y-76304648D01*
X125876760Y-76294278D02*
X125887113Y-76299544D01*
X125866494Y-76288848D02*
X125876760Y-76294278D01*
X125856324Y-76283252D02*
X125866494Y-76288848D01*
X125846258Y-76277486D02*
X125856324Y-76283252D01*
X125836301Y-76271548D02*
X125846258Y-76277486D01*
X125826464Y-76265436D02*
X125836301Y-76271548D01*
X125816751Y-76259147D02*
X125826464Y-76265436D01*
X125807173Y-76252679D02*
X125816751Y-76259147D01*
X125797735Y-76246028D02*
X125807173Y-76252679D01*
X125788446Y-76239194D02*
X125797735Y-76246028D01*
X125779312Y-76232172D02*
X125788446Y-76239194D01*
X125770343Y-76224961D02*
X125779312Y-76232172D01*
X125761544Y-76217558D02*
X125770343Y-76224961D01*
X125752924Y-76209960D02*
X125761544Y-76217558D01*
X125744491Y-76202166D02*
X125752924Y-76209960D01*
X125736252Y-76194172D02*
X125744491Y-76202166D01*
X125728214Y-76185975D02*
X125736252Y-76194172D01*
X125720385Y-76177574D02*
X125728214Y-76185975D01*
X125712772Y-76168966D02*
X125720385Y-76177574D01*
X125705384Y-76160148D02*
X125712772Y-76168966D01*
X125698227Y-76151119D02*
X125705384Y-76160148D01*
X125691310Y-76141874D02*
X125698227Y-76151119D01*
X125684640Y-76132412D02*
X125691310Y-76141874D01*
X125678224Y-76122731D02*
X125684640Y-76132412D01*
X125672070Y-76112827D02*
X125678224Y-76122731D01*
X125666185Y-76102698D02*
X125672070Y-76112827D01*
X125660578Y-76092342D02*
X125666185Y-76102698D01*
X125655255Y-76081756D02*
X125660578Y-76092342D01*
X125650225Y-76070938D02*
X125655255Y-76081756D01*
X125645494Y-76059885D02*
X125650225Y-76070938D01*
X125641071Y-76048595D02*
X125645494Y-76059885D01*
X125636963Y-76037064D02*
X125641071Y-76048595D01*
X125633070Y-76021828D02*
X125636963Y-76037064D01*
X125629204Y-76005385D02*
X125633070Y-76021828D01*
X125625355Y-75988326D02*
X125629204Y-76005385D01*
X125621516Y-75970667D02*
X125625355Y-75988326D01*
X125617682Y-75952426D02*
X125621516Y-75970667D01*
X125613848Y-75933619D02*
X125617682Y-75952426D01*
X125610007Y-75914262D02*
X125613848Y-75933619D01*
X125606154Y-75894374D02*
X125610007Y-75914262D01*
X125602283Y-75873970D02*
X125606154Y-75894374D01*
X125598388Y-75853067D02*
X125602283Y-75873970D01*
X125594464Y-75831682D02*
X125598388Y-75853067D01*
X125590505Y-75809832D02*
X125594464Y-75831682D01*
X125586505Y-75787534D02*
X125590505Y-75809832D01*
X125582457Y-75764805D02*
X125586505Y-75787534D01*
X125578358Y-75741661D02*
X125582457Y-75764805D01*
X125574200Y-75718120D02*
X125578358Y-75741661D01*
X125569978Y-75694197D02*
X125574200Y-75718120D01*
X125565686Y-75669910D02*
X125569978Y-75694197D01*
X125561319Y-75645276D02*
X125565686Y-75669910D01*
X125556871Y-75620312D02*
X125561319Y-75645276D01*
X125552335Y-75595033D02*
X125556871Y-75620312D01*
X125547707Y-75569458D02*
X125552335Y-75595033D01*
X125542980Y-75543603D02*
X125547707Y-75569458D01*
X125538148Y-75517485D02*
X125542980Y-75543603D01*
X125533207Y-75491120D02*
X125538148Y-75517485D01*
X125528150Y-75464526D02*
X125533207Y-75491120D01*
X125522971Y-75437719D02*
X125528150Y-75464526D01*
X125517665Y-75410716D02*
X125522971Y-75437719D01*
X125512225Y-75383534D02*
X125517665Y-75410716D01*
X125506647Y-75356189D02*
X125512225Y-75383534D01*
X125500924Y-75328699D02*
X125506647Y-75356189D01*
X125495051Y-75301081D02*
X125500924Y-75328699D01*
X125489022Y-75273350D02*
X125495051Y-75301081D01*
X125482831Y-75245525D02*
X125489022Y-75273350D01*
X125476472Y-75217621D02*
X125482831Y-75245525D01*
X125469939Y-75189656D02*
X125476472Y-75217621D01*
X125463228Y-75161646D02*
X125469939Y-75189656D01*
X125456331Y-75133608D02*
X125463228Y-75161646D01*
X125449244Y-75105560D02*
X125456331Y-75133608D01*
X125441960Y-75077517D02*
X125449244Y-75105560D01*
X125434474Y-75049497D02*
X125441960Y-75077517D01*
X125426781Y-75021517D02*
X125434474Y-75049497D01*
X125418873Y-74993592D02*
X125426781Y-75021517D01*
X125410746Y-74965741D02*
X125418873Y-74993592D01*
X125402394Y-74937980D02*
X125410746Y-74965741D01*
X125393810Y-74910326D02*
X125402394Y-74937980D01*
X125384990Y-74882795D02*
X125393810Y-74910326D01*
X125375928Y-74855405D02*
X125384990Y-74882795D01*
X125366617Y-74828172D02*
X125375928Y-74855405D01*
X125357052Y-74801113D02*
X125366617Y-74828172D01*
X125347227Y-74774244D02*
X125357052Y-74801113D01*
X125337137Y-74747584D02*
X125347227Y-74774244D01*
X125326775Y-74721148D02*
X125337137Y-74747584D01*
X125316136Y-74694953D02*
X125326775Y-74721148D01*
X125305215Y-74669016D02*
X125316136Y-74694953D01*
X125294005Y-74643354D02*
X125305215Y-74669016D01*
X125282500Y-74617984D02*
X125294005Y-74643354D01*
X125270696Y-74592923D02*
X125282500Y-74617984D01*
X125258585Y-74568187D02*
X125270696Y-74592923D01*
X125246163Y-74543793D02*
X125258585Y-74568187D01*
X125233424Y-74519758D02*
X125246163Y-74543793D01*
X125220361Y-74496100D02*
X125233424Y-74519758D01*
X125206970Y-74472833D02*
X125220361Y-74496100D01*
X125193244Y-74449977D02*
X125206970Y-74472833D01*
X125179177Y-74427546D02*
X125193244Y-74449977D01*
X125164765Y-74405559D02*
X125179177Y-74427546D01*
X125150000Y-74384031D02*
X125164765Y-74405559D01*
X125134878Y-74362981D02*
X125150000Y-74384031D01*
X125119392Y-74342423D02*
X125134878Y-74362981D01*
X125103537Y-74322377D02*
X125119392Y-74342423D01*
X125087307Y-74302857D02*
X125103537Y-74322377D01*
X125070697Y-74283882D02*
X125087307Y-74302857D01*
X125053700Y-74265467D02*
X125070697Y-74283882D01*
X125036310Y-74247630D02*
X125053700Y-74265467D01*
X125018523Y-74230388D02*
X125036310Y-74247630D01*
X125000332Y-74213756D02*
X125018523Y-74230388D01*
X124981731Y-74197753D02*
X125000332Y-74213756D01*
X124962716Y-74182395D02*
X124981731Y-74197753D01*
X124943279Y-74167698D02*
X124962716Y-74182395D01*
X124923415Y-74153681D02*
X124943279Y-74167698D01*
X124903119Y-74140358D02*
X124923415Y-74153681D01*
X124882385Y-74127748D02*
X124903119Y-74140358D01*
X124861206Y-74115866D02*
X124882385Y-74127748D01*
X124839578Y-74104731D02*
X124861206Y-74115866D01*
X124817494Y-74094358D02*
X124839578Y-74104731D01*
X124794949Y-74084765D02*
X124817494Y-74094358D01*
X124771936Y-74075968D02*
X124794949Y-74084765D01*
X124748451Y-74067984D02*
X124771936Y-74075968D01*
X124724487Y-74060830D02*
X124748451Y-74067984D01*
X124700039Y-74054522D02*
X124724487Y-74060830D01*
X124675101Y-74049078D02*
X124700039Y-74054522D01*
X124649667Y-74044515D02*
X124675101Y-74049078D01*
X124623731Y-74040849D02*
X124649667Y-74044515D01*
X124597288Y-74038097D02*
X124623731Y-74040849D01*
X124570332Y-74036275D02*
X124597288Y-74038097D01*
X124542856Y-74035401D02*
X124570332Y-74036275D01*
X124531112Y-74035321D02*
X124542856Y-74035401D01*
X124528702Y-74035321D02*
X124531112Y-74035321D01*
X124524280Y-74035321D02*
X124528702Y-74035321D01*
X124518039Y-74035321D02*
X124524280Y-74035321D01*
X124510171Y-74035321D02*
X124518039Y-74035321D01*
X124500870Y-74035321D02*
X124510171Y-74035321D01*
X124490328Y-74035321D02*
X124500870Y-74035321D01*
X124478738Y-74035321D02*
X124490328Y-74035321D01*
X124466292Y-74035321D02*
X124478738Y-74035321D01*
X124453183Y-74035321D02*
X124466292Y-74035321D01*
X124439604Y-74035321D02*
X124453183Y-74035321D01*
X124425747Y-74035321D02*
X124439604Y-74035321D01*
X124411806Y-74035321D02*
X124425747Y-74035321D01*
X124397973Y-74035321D02*
X124411806Y-74035321D01*
X124384440Y-74035321D02*
X124397973Y-74035321D01*
X124371401Y-74035321D02*
X124384440Y-74035321D01*
X124359048Y-74035321D02*
X124371401Y-74035321D01*
X124347574Y-74035321D02*
X124359048Y-74035321D01*
X124337171Y-74035321D02*
X124347574Y-74035321D01*
X124328032Y-74035321D02*
X124337171Y-74035321D01*
X124320350Y-74035321D02*
X124328032Y-74035321D01*
X124314318Y-74035321D02*
X124320350Y-74035321D01*
X124310128Y-74035321D02*
X124314318Y-74035321D01*
X124307972Y-74035321D02*
X124310128Y-74035321D01*
X124307399Y-74035321D02*
X124307972Y-74035321D01*
X124305126Y-74035321D02*
X124307399Y-74035321D01*
X124300828Y-74035321D02*
X124305126Y-74035321D01*
X124294699Y-74035321D02*
X124300828Y-74035321D01*
X124286931Y-74035321D02*
X124294699Y-74035321D01*
X124277717Y-74035321D02*
X124286931Y-74035321D01*
X124267250Y-74035321D02*
X124277717Y-74035321D01*
X124255721Y-74035321D02*
X124267250Y-74035321D01*
X124243325Y-74035321D02*
X124255721Y-74035321D01*
X124230253Y-74035321D02*
X124243325Y-74035321D01*
X124216699Y-74035321D02*
X124230253Y-74035321D01*
X124202855Y-74035321D02*
X124216699Y-74035321D01*
X124188913Y-74035321D02*
X124202855Y-74035321D01*
X124175067Y-74035321D02*
X124188913Y-74035321D01*
X124161509Y-74035321D02*
X124175067Y-74035321D01*
X124148432Y-74035321D02*
X124161509Y-74035321D01*
X124136029Y-74035321D02*
X124148432Y-74035321D01*
X124124492Y-74035321D02*
X124136029Y-74035321D01*
X124114013Y-74035321D02*
X124124492Y-74035321D01*
X124104787Y-74035321D02*
X124114013Y-74035321D01*
X124097005Y-74035321D02*
X124104787Y-74035321D01*
X124090859Y-74035321D02*
X124097005Y-74035321D01*
X124086544Y-74035321D02*
X124090859Y-74035321D01*
X124084251Y-74035321D02*
X124086544Y-74035321D01*
X124083677Y-74035321D02*
X124084251Y-74035321D01*
X124081541Y-74035321D02*
X124083677Y-74035321D01*
X124077369Y-74035321D02*
X124081541Y-74035321D01*
X124071353Y-74035321D02*
X124077369Y-74035321D01*
X124063685Y-74035321D02*
X124071353Y-74035321D01*
X124054559Y-74035321D02*
X124063685Y-74035321D01*
X124044167Y-74035321D02*
X124054559Y-74035321D01*
X124032702Y-74035321D02*
X124044167Y-74035321D01*
X124020356Y-74035321D02*
X124032702Y-74035321D01*
X124007322Y-74035321D02*
X124020356Y-74035321D01*
X123993793Y-74035321D02*
X124007322Y-74035321D01*
X123979962Y-74035321D02*
X123993793Y-74035321D01*
X123966021Y-74035321D02*
X123979962Y-74035321D01*
X123952163Y-74035321D02*
X123966021Y-74035321D01*
X123938580Y-74035321D02*
X123952163Y-74035321D01*
X123925466Y-74035321D02*
X123938580Y-74035321D01*
X123913013Y-74035321D02*
X123925466Y-74035321D01*
X123901414Y-74035321D02*
X123913013Y-74035321D01*
X123890861Y-74035321D02*
X123901414Y-74035321D01*
X123881548Y-74035321D02*
X123890861Y-74035321D01*
X123873666Y-74035321D02*
X123881548Y-74035321D01*
X123867409Y-74035321D02*
X123873666Y-74035321D01*
X123862969Y-74035321D02*
X123867409Y-74035321D01*
X123860539Y-74035321D02*
X123862969Y-74035321D01*
X123859945Y-74035321D02*
X123860539Y-74035321D01*
X123857948Y-74035321D02*
X123859945Y-74035321D01*
X123853902Y-74035321D02*
X123857948Y-74035321D01*
X123847999Y-74035321D02*
X123853902Y-74035321D01*
X123840433Y-74035321D02*
X123847999Y-74035321D01*
X123831396Y-74035321D02*
X123840433Y-74035321D01*
X123821080Y-74035321D02*
X123831396Y-74035321D01*
X123809678Y-74035321D02*
X123821080Y-74035321D01*
X123797383Y-74035321D02*
X123809678Y-74035321D01*
X123784388Y-74035321D02*
X123797383Y-74035321D01*
X123770886Y-74035321D02*
X123784388Y-74035321D01*
X123757068Y-74035321D02*
X123770886Y-74035321D01*
X123743128Y-74035321D02*
X123757068Y-74035321D01*
X123729259Y-74035321D02*
X123743128Y-74035321D01*
X123715653Y-74035321D02*
X123729259Y-74035321D01*
X123702503Y-74035321D02*
X123715653Y-74035321D01*
X123690001Y-74035321D02*
X123702503Y-74035321D01*
X123678341Y-74035321D02*
X123690001Y-74035321D01*
X123667714Y-74035321D02*
X123678341Y-74035321D01*
X123658315Y-74035321D02*
X123667714Y-74035321D01*
X123650334Y-74035321D02*
X123658315Y-74035321D01*
X123643966Y-74035321D02*
X123650334Y-74035321D01*
X123639403Y-74035321D02*
X123643966Y-74035321D01*
X123636837Y-74035321D02*
X123639403Y-74035321D01*
X123636331Y-74035820D02*
X123636837Y-74035321D01*
X123636331Y-74043082D02*
X123636331Y-74035820D01*
X123636331Y-74058404D02*
X123636331Y-74043082D01*
X123636331Y-74081034D02*
X123636331Y-74058404D01*
X123636331Y-74110219D02*
X123636331Y-74081034D01*
X123636331Y-74145204D02*
X123636331Y-74110219D01*
X123636331Y-74185236D02*
X123636331Y-74145204D01*
X123636331Y-74229562D02*
X123636331Y-74185236D01*
X123636331Y-74277429D02*
X123636331Y-74229562D01*
X123636331Y-74328082D02*
X123636331Y-74277429D01*
X123636331Y-74380769D02*
X123636331Y-74328082D01*
X123636331Y-74434736D02*
X123636331Y-74380769D01*
X123636331Y-74489230D02*
X123636331Y-74434736D01*
X123636331Y-74543497D02*
X123636331Y-74489230D01*
X123636331Y-74596784D02*
X123636331Y-74543497D01*
X123636331Y-74648338D02*
X123636331Y-74596784D01*
X123636331Y-74697404D02*
X123636331Y-74648338D01*
X123636331Y-74743230D02*
X123636331Y-74697404D01*
X123636331Y-74785062D02*
X123636331Y-74743230D01*
X123636331Y-74822147D02*
X123636331Y-74785062D01*
X123636331Y-74853731D02*
X123636331Y-74822147D01*
X123636331Y-74879061D02*
X123636331Y-74853731D01*
X123636331Y-74897383D02*
X123636331Y-74879061D01*
X123636331Y-74907945D02*
X123636331Y-74897383D01*
X123636331Y-74910645D02*
X123636331Y-74907945D01*
X123636331Y-74917359D02*
X123636331Y-74910645D01*
X123636331Y-74932182D02*
X123636331Y-74917359D01*
X123636331Y-74954361D02*
X123636331Y-74932182D01*
X123636331Y-74983143D02*
X123636331Y-74954361D01*
X123636331Y-75017775D02*
X123636331Y-74983143D01*
X123636331Y-75057503D02*
X123636331Y-75017775D01*
X123636331Y-75101574D02*
X123636331Y-75057503D01*
X123636331Y-75149233D02*
X123636331Y-75101574D01*
X123636331Y-75199729D02*
X123636331Y-75149233D01*
X123636331Y-75252307D02*
X123636331Y-75199729D01*
X123636331Y-75306214D02*
X123636331Y-75252307D01*
X123636331Y-75360697D02*
X123636331Y-75306214D01*
X123636331Y-75415002D02*
X123636331Y-75360697D01*
X123636331Y-75468375D02*
X123636331Y-75415002D01*
X123636331Y-75520064D02*
X123636331Y-75468375D01*
X123636331Y-75569314D02*
X123636331Y-75520064D01*
X123636331Y-75615373D02*
X123636331Y-75569314D01*
X123636331Y-75657487D02*
X123636331Y-75615373D01*
X123636331Y-75694902D02*
X123636331Y-75657487D01*
X123636331Y-75726865D02*
X123636331Y-75694902D01*
X123636331Y-75752624D02*
X123636331Y-75726865D01*
X123636331Y-75771423D02*
X123636331Y-75752624D01*
X123636331Y-75782510D02*
X123636331Y-75771423D01*
X123636331Y-75785508D02*
X123636331Y-75782510D01*
X123636331Y-75791670D02*
X123636331Y-75785508D01*
X123636331Y-75805990D02*
X123636331Y-75791670D01*
X123636331Y-75827715D02*
X123636331Y-75805990D01*
X123636331Y-75856092D02*
X123636331Y-75827715D01*
X123636331Y-75890368D02*
X123636331Y-75856092D01*
X123636331Y-75929788D02*
X123636331Y-75890368D01*
X123636331Y-75973600D02*
X123636331Y-75929788D01*
X123636331Y-76021050D02*
X123636331Y-75973600D01*
X123636331Y-76071385D02*
X123636331Y-76021050D01*
X123636331Y-76123851D02*
X123636331Y-76071385D01*
X123636331Y-76177695D02*
X123636331Y-76123851D01*
X123636331Y-76232163D02*
X123636331Y-76177695D01*
X123636331Y-76286502D02*
X123636331Y-76232163D01*
X123636331Y-76339959D02*
X123636331Y-76286502D01*
X123636331Y-76391779D02*
X123636331Y-76339959D01*
X123636331Y-76441210D02*
X123636331Y-76391779D01*
X123636331Y-76487499D02*
X123636331Y-76441210D01*
X123636331Y-76529891D02*
X123636331Y-76487499D01*
X123636331Y-76567634D02*
X123636331Y-76529891D01*
X123636331Y-76599974D02*
X123636331Y-76567634D01*
X123636331Y-76626157D02*
X123636331Y-76599974D01*
X123636331Y-76645430D02*
X123636331Y-76626157D01*
X123636331Y-76657040D02*
X123636331Y-76645430D01*
X123636331Y-76660408D02*
X123636331Y-76657040D01*
X123636331Y-76666015D02*
X123636331Y-76660408D01*
X123636331Y-76679829D02*
X123636331Y-76666015D01*
X123636331Y-76701097D02*
X123636331Y-76679829D01*
X123636331Y-76729066D02*
X123636331Y-76701097D01*
X123636331Y-76762982D02*
X123636331Y-76729066D01*
X123636331Y-76802092D02*
X123636331Y-76762982D01*
X123636331Y-76845642D02*
X123636331Y-76802092D01*
X123636331Y-76892879D02*
X123636331Y-76845642D01*
X123636331Y-76943050D02*
X123636331Y-76892879D01*
X123636331Y-76995401D02*
X123636331Y-76943050D01*
X123636331Y-77049178D02*
X123636331Y-76995401D01*
X123636331Y-77103628D02*
X123636331Y-77049178D01*
X123636331Y-77157999D02*
X123636331Y-77103628D01*
X123636331Y-77211535D02*
X123636331Y-77157999D01*
X123636331Y-77263485D02*
X123636331Y-77211535D01*
X123636331Y-77313094D02*
X123636331Y-77263485D01*
X123636331Y-77359609D02*
X123636331Y-77313094D01*
X123636331Y-77402277D02*
X123636331Y-77359609D01*
X123636331Y-77440343D02*
X123636331Y-77402277D01*
X123636331Y-77473056D02*
X123636331Y-77440343D01*
X123636331Y-77499661D02*
X123636331Y-77473056D01*
X123636331Y-77519405D02*
X123636331Y-77499661D01*
X123636331Y-77531535D02*
X123636331Y-77519405D01*
X123636335Y-77535321D02*
X123636331Y-77531535D01*
X123637229Y-77535321D02*
X123636335Y-77535321D01*
X123639584Y-77535321D02*
X123637229Y-77535321D01*
X123643267Y-77535321D02*
X123639584Y-77535321D01*
X123648145Y-77535321D02*
X123643267Y-77535321D01*
X123654084Y-77535321D02*
X123648145Y-77535321D01*
X123660951Y-77535321D02*
X123654084Y-77535321D01*
X123668613Y-77535321D02*
X123660951Y-77535321D01*
X123676936Y-77535321D02*
X123668613Y-77535321D01*
X123685787Y-77535321D02*
X123676936Y-77535321D01*
X123695032Y-77535321D02*
X123685787Y-77535321D01*
X123704539Y-77535321D02*
X123695032Y-77535321D01*
X123714173Y-77535321D02*
X123704539Y-77535321D01*
X123723802Y-77535321D02*
X123714173Y-77535321D01*
X123733292Y-77535321D02*
X123723802Y-77535321D01*
X123742509Y-77535321D02*
X123733292Y-77535321D01*
X123751321Y-77535321D02*
X123742509Y-77535321D01*
X123759594Y-77535321D02*
X123751321Y-77535321D01*
X123767195Y-77535321D02*
X123759594Y-77535321D01*
X123773990Y-77535321D02*
X123767195Y-77535321D01*
X123779845Y-77535321D02*
X123773990Y-77535321D01*
X123784629Y-77535321D02*
X123779845Y-77535321D01*
X123788206Y-77535321D02*
X123784629Y-77535321D01*
X123790445Y-77535321D02*
X123788206Y-77535321D01*
X123791211Y-77535321D02*
X123790445Y-77535321D01*
X123792005Y-77535321D02*
X123791211Y-77535321D01*
X123794269Y-77535321D02*
X123792005Y-77535321D01*
X123797870Y-77535321D02*
X123794269Y-77535321D01*
X123802675Y-77535321D02*
X123797870Y-77535321D01*
X123808549Y-77535321D02*
X123802675Y-77535321D01*
X123815360Y-77535321D02*
X123808549Y-77535321D01*
X123822974Y-77535321D02*
X123815360Y-77535321D01*
X123831259Y-77535321D02*
X123822974Y-77535321D01*
X123840079Y-77535321D02*
X123831259Y-77535321D01*
X123849303Y-77535321D02*
X123840079Y-77535321D01*
X123858797Y-77535321D02*
X123849303Y-77535321D01*
X123868427Y-77535321D02*
X123858797Y-77535321D01*
X123878060Y-77535321D02*
X123868427Y-77535321D01*
X123887563Y-77535321D02*
X123878060Y-77535321D01*
X123896802Y-77535321D02*
X123887563Y-77535321D01*
X123905644Y-77535321D02*
X123896802Y-77535321D01*
X123913956Y-77535321D02*
X123905644Y-77535321D01*
X123921605Y-77535321D02*
X123913956Y-77535321D01*
X123928456Y-77535321D02*
X123921605Y-77535321D01*
X123934376Y-77535321D02*
X123928456Y-77535321D01*
X123939233Y-77535321D02*
X123934376Y-77535321D01*
X123942893Y-77535321D02*
X123939233Y-77535321D01*
X123945222Y-77535321D02*
X123942893Y-77535321D01*
X123946088Y-77535321D02*
X123945222Y-77535321D01*
X123946787Y-77535321D02*
X123946088Y-77535321D01*
X123948960Y-77535321D02*
X123946787Y-77535321D01*
X123952479Y-77535321D02*
X123948960Y-77535321D01*
X123957209Y-77535321D02*
X123952479Y-77535321D01*
X123963018Y-77535321D02*
X123957209Y-77535321D01*
X123969773Y-77535321D02*
X123963018Y-77535321D01*
X123977339Y-77535321D02*
X123969773Y-77535321D01*
X123985583Y-77535321D02*
X123977339Y-77535321D01*
X123994373Y-77535321D02*
X123985583Y-77535321D01*
X124003575Y-77535321D02*
X123994373Y-77535321D01*
X124013055Y-77535321D02*
X124003575Y-77535321D01*
X124022681Y-77535321D02*
X124013055Y-77535321D01*
X124032318Y-77535321D02*
X124022681Y-77535321D01*
X124041833Y-77535321D02*
X124032318Y-77535321D01*
X124051093Y-77535321D02*
X124041833Y-77535321D01*
X124059966Y-77535321D02*
X124051093Y-77535321D01*
X124068316Y-77535321D02*
X124059966Y-77535321D01*
X124076011Y-77535321D02*
X124068316Y-77535321D01*
X124082918Y-77535321D02*
X124076011Y-77535321D01*
X124088903Y-77535321D02*
X124082918Y-77535321D01*
X124093833Y-77535321D02*
X124088903Y-77535321D01*
X124097574Y-77535321D02*
X124093833Y-77535321D01*
X124099994Y-77535321D02*
X124097574Y-77535321D01*
X124100958Y-77535321D02*
X124099994Y-77535321D01*
X124101575Y-77535321D02*
X124100958Y-77535321D01*
X124103657Y-77535321D02*
X124101575Y-77535321D01*
X124107092Y-77535321D02*
X124103657Y-77535321D01*
X124111748Y-77535321D02*
X124107092Y-77535321D01*
X124117491Y-77535321D02*
X124111748Y-77535321D01*
X124124188Y-77535321D02*
X124117491Y-77535321D01*
X124131706Y-77535321D02*
X124124188Y-77535321D01*
X124139911Y-77535321D02*
X124131706Y-77535321D01*
X124148669Y-77535321D02*
X124139911Y-77535321D01*
X124157848Y-77535321D02*
X124148669Y-77535321D01*
X124167315Y-77535321D02*
X124157848Y-77535321D01*
X124176935Y-77535321D02*
X124167315Y-77535321D01*
X124186575Y-77535321D02*
X124176935Y-77535321D01*
X124196102Y-77535321D02*
X124186575Y-77535321D01*
X124205383Y-77535321D02*
X124196102Y-77535321D01*
X124214284Y-77535321D02*
X124205383Y-77535321D01*
X124222673Y-77535321D02*
X124214284Y-77535321D01*
X124230414Y-77535321D02*
X124222673Y-77535321D01*
X124237376Y-77535321D02*
X124230414Y-77535321D01*
X124243425Y-77535321D02*
X124237376Y-77535321D01*
X124248427Y-77535321D02*
X124243425Y-77535321D01*
X124252250Y-77535321D02*
X124248427Y-77535321D01*
X124254759Y-77535321D02*
X124252250Y-77535321D01*
X124255822Y-77535321D02*
X124254759Y-77535321D01*
X124273256Y-77535428D02*
X124255822Y-77535321D01*
X124294121Y-77535847D02*
X124273256Y-77535428D01*
X124314450Y-77536579D02*
X124294121Y-77535847D01*
X124334252Y-77537615D02*
X124314450Y-77536579D01*
X124353540Y-77538949D02*
X124334252Y-77537615D01*
X124372324Y-77540574D02*
X124353540Y-77538949D01*
X124390617Y-77542484D02*
X124372324Y-77540574D01*
X124408428Y-77544672D02*
X124390617Y-77542484D01*
X124425770Y-77547132D02*
X124408428Y-77544672D01*
X124442653Y-77549855D02*
X124425770Y-77547132D01*
X124459089Y-77552837D02*
X124442653Y-77549855D01*
X124475089Y-77556069D02*
X124459089Y-77552837D01*
X124490664Y-77559546D02*
X124475089Y-77556069D01*
X124505826Y-77563261D02*
X124490664Y-77559546D01*
X124520586Y-77567206D02*
X124505826Y-77563261D01*
X124534954Y-77571375D02*
X124520586Y-77567206D01*
X124548943Y-77575762D02*
X124534954Y-77571375D01*
X124562563Y-77580359D02*
X124548943Y-77575762D01*
X124575826Y-77585160D02*
X124562563Y-77580359D01*
X124588743Y-77590159D02*
X124575826Y-77585160D01*
X124601325Y-77595348D02*
X124588743Y-77590159D01*
X124613584Y-77600720D02*
X124601325Y-77595348D01*
X124625530Y-77606270D02*
X124613584Y-77600720D01*
X124637176Y-77611990D02*
X124625530Y-77606270D01*
X124648531Y-77617874D02*
X124637176Y-77611990D01*
X124659608Y-77623914D02*
X124648531Y-77617874D01*
X124670417Y-77630105D02*
X124659608Y-77623914D01*
X124680970Y-77636439D02*
X124670417Y-77630105D01*
X124691279Y-77642909D02*
X124680970Y-77636439D01*
X124701354Y-77649510D02*
X124691279Y-77642909D01*
X124711206Y-77656233D02*
X124701354Y-77649510D01*
X124720847Y-77663074D02*
X124711206Y-77656233D01*
X124730289Y-77670024D02*
X124720847Y-77663074D01*
X124739541Y-77677076D02*
X124730289Y-77670024D01*
X124748617Y-77684226D02*
X124739541Y-77677076D01*
X124757526Y-77691465D02*
X124748617Y-77684226D01*
X124766280Y-77698786D02*
X124757526Y-77691465D01*
X124774890Y-77706184D02*
X124766280Y-77698786D01*
X124783368Y-77713651D02*
X124774890Y-77706184D01*
X124791725Y-77721181D02*
X124783368Y-77713651D01*
X124799971Y-77728767D02*
X124791725Y-77721181D01*
X124808119Y-77736402D02*
X124799971Y-77728767D01*
X124816180Y-77744079D02*
X124808119Y-77736402D01*
X124824164Y-77751792D02*
X124816180Y-77744079D01*
X124832083Y-77759535D02*
X124824164Y-77751792D01*
X124839948Y-77767299D02*
X124832083Y-77759535D01*
X124847771Y-77775079D02*
X124839948Y-77767299D01*
X124855563Y-77782868D02*
X124847771Y-77775079D01*
X124863334Y-77790659D02*
X124855563Y-77782868D01*
X124871097Y-77798446D02*
X124863334Y-77790659D01*
X124878862Y-77806221D02*
X124871097Y-77798446D01*
X124886641Y-77813978D02*
X124878862Y-77806221D01*
X124894444Y-77821710D02*
X124886641Y-77813978D01*
X124902284Y-77829411D02*
X124894444Y-77821710D01*
X124910171Y-77837073D02*
X124902284Y-77829411D01*
X124918117Y-77844691D02*
X124910171Y-77837073D01*
X124926133Y-77852257D02*
X124918117Y-77844691D01*
X124934229Y-77859764D02*
X124926133Y-77852257D01*
X124942418Y-77867206D02*
X124934229Y-77859764D01*
X124950711Y-77874577D02*
X124942418Y-77867206D01*
X124959118Y-77881869D02*
X124950711Y-77874577D01*
X124967652Y-77889075D02*
X124959118Y-77881869D01*
X124976323Y-77896189D02*
X124967652Y-77889075D01*
X124985142Y-77903205D02*
X124976323Y-77896189D01*
X124994121Y-77910115D02*
X124985142Y-77903205D01*
X125003272Y-77916913D02*
X124994121Y-77910115D01*
X125012604Y-77923592D02*
X125003272Y-77916913D01*
X125022130Y-77930145D02*
X125012604Y-77923592D01*
X125031861Y-77936566D02*
X125022130Y-77930145D01*
X125041807Y-77942847D02*
X125031861Y-77936566D01*
X125051981Y-77948983D02*
X125041807Y-77942847D01*
X125062394Y-77954966D02*
X125051981Y-77948983D01*
X125073056Y-77960790D02*
X125062394Y-77954966D01*
X125083979Y-77966447D02*
X125073056Y-77960790D01*
X125095174Y-77971932D02*
X125083979Y-77966447D01*
X125106653Y-77977238D02*
X125095174Y-77971932D01*
X125118426Y-77982357D02*
X125106653Y-77977238D01*
X125130506Y-77987283D02*
X125118426Y-77982357D01*
X125142902Y-77992010D02*
X125130506Y-77987283D01*
X125155627Y-77996530D02*
X125142902Y-77992010D01*
X125168691Y-78000837D02*
X125155627Y-77996530D01*
X125182107Y-78004924D02*
X125168691Y-78000837D01*
X125195884Y-78008784D02*
X125182107Y-78004924D01*
X125210035Y-78012412D02*
X125195884Y-78008784D01*
X125224570Y-78015799D02*
X125210035Y-78012412D01*
X125239502Y-78018939D02*
X125224570Y-78015799D01*
X125254840Y-78021826D02*
X125239502Y-78018939D01*
X125270597Y-78024452D02*
X125254840Y-78021826D01*
X125286783Y-78026812D02*
X125270597Y-78024452D01*
X125303410Y-78028898D02*
X125286783Y-78026812D01*
X125320489Y-78030703D02*
X125303410Y-78028898D01*
X125338031Y-78032222D02*
X125320489Y-78030703D01*
X125356048Y-78033446D02*
X125338031Y-78032222D01*
X125374551Y-78034370D02*
X125356048Y-78033446D01*
X125393550Y-78034987D02*
X125374551Y-78034370D01*
X125413058Y-78035289D02*
X125393550Y-78034987D01*
X125426997Y-78035321D02*
X125413058Y-78035289D01*
X125460771Y-78035321D02*
X125426997Y-78035321D01*
X125523784Y-78035321D02*
X125460771Y-78035321D01*
X125613245Y-78035321D02*
X125523784Y-78035321D01*
X125726364Y-78035321D02*
X125613245Y-78035321D01*
X125860348Y-78035321D02*
X125726364Y-78035321D01*
X126012408Y-78035321D02*
X125860348Y-78035321D01*
X126179753Y-78035321D02*
X126012408Y-78035321D01*
X126359592Y-78035321D02*
X126179753Y-78035321D01*
X126549134Y-78035321D02*
X126359592Y-78035321D01*
X126745589Y-78035321D02*
X126549134Y-78035321D01*
X126946164Y-78035321D02*
X126745589Y-78035321D01*
X127148071Y-78035321D02*
X126946164Y-78035321D01*
X127348518Y-78035321D02*
X127148071Y-78035321D01*
X127544714Y-78035321D02*
X127348518Y-78035321D01*
X127733868Y-78035321D02*
X127544714Y-78035321D01*
X127913190Y-78035321D02*
X127733868Y-78035321D01*
X128079889Y-78035321D02*
X127913190Y-78035321D01*
X128231174Y-78035321D02*
X128079889Y-78035321D01*
X128364254Y-78035321D02*
X128231174Y-78035321D01*
X128476339Y-78035321D02*
X128364254Y-78035321D01*
X128564637Y-78035321D02*
X128476339Y-78035321D01*
X128626358Y-78035321D02*
X128564637Y-78035321D01*
X128658712Y-78035321D02*
X128626358Y-78035321D01*
X128666993Y-78035321D02*
X128658712Y-78035321D01*
X128698776Y-78035321D02*
X128666993Y-78035321D01*
X128759979Y-78035321D02*
X128698776Y-78035321D01*
X128847810Y-78035321D02*
X128759979Y-78035321D01*
X128959480Y-78035321D02*
X128847810Y-78035321D01*
X129092196Y-78035321D02*
X128959480Y-78035321D01*
X129243170Y-78035321D02*
X129092196Y-78035321D01*
X129409608Y-78035321D02*
X129243170Y-78035321D01*
X129588722Y-78035321D02*
X129409608Y-78035321D01*
X129777720Y-78035321D02*
X129588722Y-78035321D01*
X129973811Y-78035321D02*
X129777720Y-78035321D01*
X130174204Y-78035321D02*
X129973811Y-78035321D01*
X130376109Y-78035321D02*
X130174204Y-78035321D01*
X130576735Y-78035321D02*
X130376109Y-78035321D01*
X130773291Y-78035321D02*
X130576735Y-78035321D01*
X130962987Y-78035321D02*
X130773291Y-78035321D01*
X131143030Y-78035321D02*
X130962987Y-78035321D01*
X131310632Y-78035321D02*
X131143030Y-78035321D01*
X131463001Y-78035321D02*
X131310632Y-78035321D01*
X131597345Y-78035321D02*
X131463001Y-78035321D01*
X131710875Y-78035321D02*
X131597345Y-78035321D01*
X131800800Y-78035321D02*
X131710875Y-78035321D01*
X131864328Y-78035321D02*
X131800800Y-78035321D01*
X131898669Y-78035321D02*
X131864328Y-78035321D01*
X131907125Y-78035321D02*
X131898669Y-78035321D01*
X131936905Y-78035321D02*
X131907125Y-78035321D01*
X131996285Y-78035321D02*
X131936905Y-78035321D01*
X132082475Y-78035321D02*
X131996285Y-78035321D01*
X132192684Y-78035321D02*
X132082475Y-78035321D01*
X132324121Y-78035321D02*
X132192684Y-78035321D01*
X132473996Y-78035321D02*
X132324121Y-78035321D01*
X132639517Y-78035321D02*
X132473996Y-78035321D01*
X132817893Y-78035321D02*
X132639517Y-78035321D01*
X133006335Y-78035321D02*
X132817893Y-78035321D01*
X133202051Y-78035321D02*
X133006335Y-78035321D01*
X133402250Y-78035321D02*
X133202051Y-78035321D01*
X133604142Y-78035321D02*
X133402250Y-78035321D01*
X133804935Y-78035321D02*
X133604142Y-78035321D01*
X134001839Y-78035321D02*
X133804935Y-78035321D01*
X134192064Y-78035321D02*
X134001839Y-78035321D01*
X134372818Y-78035321D02*
X134192064Y-78035321D01*
X134541311Y-78035321D02*
X134372818Y-78035321D01*
X134694751Y-78035321D02*
X134541311Y-78035321D01*
X134830349Y-78035321D02*
X134694751Y-78035321D01*
X134945312Y-78035321D02*
X134830349Y-78035321D01*
X135036851Y-78035321D02*
X134945312Y-78035321D01*
X135102175Y-78035321D02*
X135036851Y-78035321D01*
X135138493Y-78035321D02*
X135102175Y-78035321D01*
X135147392Y-78035321D02*
X135138493Y-78035321D01*
X135175158Y-78035321D02*
X135147392Y-78035321D01*
X135232704Y-78035321D02*
X135175158Y-78035321D01*
X135317241Y-78035321D02*
X135232704Y-78035321D01*
X135425978Y-78035321D02*
X135317241Y-78035321D01*
X135556124Y-78035321D02*
X135425978Y-78035321D01*
X135704888Y-78035321D02*
X135556124Y-78035321D01*
X135869479Y-78035321D02*
X135704888Y-78035321D01*
X136047107Y-78035321D02*
X135869479Y-78035321D01*
X136234981Y-78035321D02*
X136047107Y-78035321D01*
X136430310Y-78035321D02*
X136234981Y-78035321D01*
X136630303Y-78035321D02*
X136430310Y-78035321D01*
X136832169Y-78035321D02*
X136630303Y-78035321D01*
X137033119Y-78035321D02*
X136832169Y-78035321D01*
X137230360Y-78035321D02*
X137033119Y-78035321D01*
X137421102Y-78035321D02*
X137230360Y-78035321D01*
X137602554Y-78035321D02*
X137421102Y-78035321D01*
X137771926Y-78035321D02*
X137602554Y-78035321D01*
X137926427Y-78035321D02*
X137771926Y-78035321D01*
X138063265Y-78035321D02*
X137926427Y-78035321D01*
X138179651Y-78035321D02*
X138063265Y-78035321D01*
X138272793Y-78035321D02*
X138179651Y-78035321D01*
X138339901Y-78035321D02*
X138272793Y-78035321D01*
X138378183Y-78035321D02*
X138339901Y-78035321D01*
X138386250Y-78035095D02*
X138378183Y-78035321D01*
X138384762Y-78031125D02*
X138386250Y-78035095D01*
X138381539Y-78022532D02*
X138384762Y-78031125D01*
X138376745Y-78009748D02*
X138381539Y-78022532D01*
X138370540Y-77993202D02*
X138376745Y-78009748D01*
X138363087Y-77973326D02*
X138370540Y-77993202D01*
X138354546Y-77950550D02*
X138363087Y-77973326D01*
X138345078Y-77925304D02*
X138354546Y-77950550D01*
X138334847Y-77898019D02*
X138345078Y-77925304D01*
X138324012Y-77869126D02*
X138334847Y-77898019D01*
X138312735Y-77839054D02*
X138324012Y-77869126D01*
X138301178Y-77808236D02*
X138312735Y-77839054D01*
X138289502Y-77777100D02*
X138301178Y-77808236D01*
X138277868Y-77746078D02*
X138289502Y-77777100D01*
X138266439Y-77715600D02*
X138277868Y-77746078D01*
X138255375Y-77686097D02*
X138266439Y-77715600D01*
X138244839Y-77657999D02*
X138255375Y-77686097D01*
X138234990Y-77631736D02*
X138244839Y-77657999D01*
X138225992Y-77607740D02*
X138234990Y-77631736D01*
X138218004Y-77586441D02*
X138225992Y-77607740D01*
X138211190Y-77568269D02*
X138218004Y-77586441D01*
X138205710Y-77553655D02*
X138211190Y-77568269D01*
X138201725Y-77543029D02*
X138205710Y-77553655D01*
X138199397Y-77536822D02*
X138201725Y-77543029D01*
X138198784Y-77535187D02*
X138199397Y-77536822D01*
X138197413Y-77531531D02*
X138198784Y-77535187D01*
X138194298Y-77523224D02*
X138197413Y-77531531D01*
X138189601Y-77510698D02*
X138194298Y-77523224D01*
X138183483Y-77494384D02*
X138189601Y-77510698D01*
X138176105Y-77474710D02*
X138183483Y-77494384D01*
X138167630Y-77452109D02*
X138176105Y-77474710D01*
X138158218Y-77427010D02*
X138167630Y-77452109D01*
X138148030Y-77399844D02*
X138158218Y-77427010D01*
X138137230Y-77371042D02*
X138148030Y-77399844D01*
X138125977Y-77341034D02*
X138137230Y-77371042D01*
X138114433Y-77310251D02*
X138125977Y-77341034D01*
X138102760Y-77279123D02*
X138114433Y-77310251D01*
X138091119Y-77248080D02*
X138102760Y-77279123D01*
X138079671Y-77217554D02*
X138091119Y-77248080D01*
X138068579Y-77187975D02*
X138079671Y-77217554D01*
X138058003Y-77159772D02*
X138068579Y-77187975D01*
X138048105Y-77133378D02*
X138058003Y-77159772D01*
X138039047Y-77109222D02*
X138048105Y-77133378D01*
X138030989Y-77087735D02*
X138039047Y-77109222D01*
X138024094Y-77069347D02*
X138030989Y-77087735D01*
X138018522Y-77054489D02*
X138024094Y-77069347D01*
X138014435Y-77043592D02*
X138018522Y-77054489D01*
X138011995Y-77037085D02*
X138014435Y-77043592D01*
X138011310Y-77035257D02*
X138011995Y-77037085D01*
X138010057Y-77031917D02*
X138011310Y-77035257D01*
X138007050Y-77023899D02*
X138010057Y-77031917D01*
X138002451Y-77011633D02*
X138007050Y-77023899D01*
X137996420Y-76995551D02*
X138002451Y-77011633D01*
X137989119Y-76976082D02*
X137996420Y-76995551D01*
X137980710Y-76953658D02*
X137989119Y-76976082D01*
X137971354Y-76928708D02*
X137980710Y-76953658D01*
X137961212Y-76901663D02*
X137971354Y-76928708D01*
X137950446Y-76872954D02*
X137961212Y-76901663D01*
X137939217Y-76843011D02*
X137950446Y-76872954D01*
X137927687Y-76812265D02*
X137939217Y-76843011D01*
X137916018Y-76781146D02*
X137927687Y-76812265D01*
X137904370Y-76750085D02*
X137916018Y-76781146D01*
X137892905Y-76719512D02*
X137904370Y-76750085D01*
X137881785Y-76689858D02*
X137892905Y-76719512D01*
X137871170Y-76661554D02*
X137881785Y-76689858D01*
X137861224Y-76635029D02*
X137871170Y-76661554D01*
X137852106Y-76610715D02*
X137861224Y-76635029D01*
X137843978Y-76589042D02*
X137852106Y-76610715D01*
X137837003Y-76570440D02*
X137843978Y-76589042D01*
X137831340Y-76555340D02*
X137837003Y-76570440D01*
X137827153Y-76544173D02*
X137831340Y-76555340D01*
X137824601Y-76537369D02*
X137827153Y-76544173D01*
X137823827Y-76535305D02*
X137824601Y-76537369D01*
X137822694Y-76532283D02*
X137823827Y-76535305D01*
X137819796Y-76524555D02*
X137822694Y-76532283D01*
X137815295Y-76512552D02*
X137819796Y-76524555D01*
X137809352Y-76496704D02*
X137815295Y-76512552D01*
X137802128Y-76477442D02*
X137809352Y-76496704D01*
X137793786Y-76455196D02*
X137802128Y-76477442D01*
X137784486Y-76430397D02*
X137793786Y-76455196D01*
X137774390Y-76403475D02*
X137784486Y-76430397D01*
X137763660Y-76374860D02*
X137774390Y-76403475D01*
X137752457Y-76344984D02*
X137763660Y-76374860D01*
X137740941Y-76314277D02*
X137752457Y-76344984D01*
X137729276Y-76283169D02*
X137740941Y-76314277D01*
X137717622Y-76252091D02*
X137729276Y-76283169D01*
X137706140Y-76221474D02*
X137717622Y-76252091D01*
X137694993Y-76191748D02*
X137706140Y-76221474D01*
X137684341Y-76163343D02*
X137694993Y-76191748D01*
X137674346Y-76136690D02*
X137684341Y-76163343D01*
X137665169Y-76112219D02*
X137674346Y-76136690D01*
X137656973Y-76090362D02*
X137665169Y-76112219D01*
X137649917Y-76071548D02*
X137656973Y-76090362D01*
X137644165Y-76056208D02*
X137649917Y-76071548D01*
X137639877Y-76044773D02*
X137644165Y-76056208D01*
X137637214Y-76037673D02*
X137639877Y-76044773D01*
X137636129Y-76034778D02*
X137637214Y-76037673D01*
X137630487Y-76019814D02*
X137636129Y-76034778D01*
X137624836Y-76004988D02*
X137630487Y-76019814D01*
X137619173Y-75990303D02*
X137624836Y-76004988D01*
X137613499Y-75975758D02*
X137619173Y-75990303D01*
X137607812Y-75961354D02*
X137613499Y-75975758D01*
X137602110Y-75947092D02*
X137607812Y-75961354D01*
X137596393Y-75932970D02*
X137602110Y-75947092D01*
X137590659Y-75918990D02*
X137596393Y-75932970D01*
X137584908Y-75905153D02*
X137590659Y-75918990D01*
X137579138Y-75891458D02*
X137584908Y-75905153D01*
X137573347Y-75877905D02*
X137579138Y-75891458D01*
X137567536Y-75864496D02*
X137573347Y-75877905D01*
X137561703Y-75851231D02*
X137567536Y-75864496D01*
X137555847Y-75838109D02*
X137561703Y-75851231D01*
X137549966Y-75825132D02*
X137555847Y-75838109D01*
X137544059Y-75812299D02*
X137549966Y-75825132D01*
X137538126Y-75799611D02*
X137544059Y-75812299D01*
X137532165Y-75787069D02*
X137538126Y-75799611D01*
X137526175Y-75774672D02*
X137532165Y-75787069D01*
X137520155Y-75762421D02*
X137526175Y-75774672D01*
X137514104Y-75750317D02*
X137520155Y-75762421D01*
X137508021Y-75738359D02*
X137514104Y-75750317D01*
X137501904Y-75726548D02*
X137508021Y-75738359D01*
X137495753Y-75714885D02*
X137501904Y-75726548D01*
X137489566Y-75703370D02*
X137495753Y-75714885D01*
X137483342Y-75692002D02*
X137489566Y-75703370D01*
X137477080Y-75680784D02*
X137483342Y-75692002D01*
X137470779Y-75669713D02*
X137477080Y-75680784D01*
X137464438Y-75658793D02*
X137470779Y-75669713D01*
X137458055Y-75648021D02*
X137464438Y-75658793D01*
X137451631Y-75637400D02*
X137458055Y-75648021D01*
X137445162Y-75626929D02*
X137451631Y-75637400D01*
X137438649Y-75616608D02*
X137445162Y-75626929D01*
X137432090Y-75606438D02*
X137438649Y-75616608D01*
X137425484Y-75596420D02*
X137432090Y-75606438D01*
X137418830Y-75586553D02*
X137425484Y-75596420D01*
X137412126Y-75576838D02*
X137418830Y-75586553D01*
X137405373Y-75567276D02*
X137412126Y-75576838D01*
X137398568Y-75557866D02*
X137405373Y-75567276D01*
X137391710Y-75548609D02*
X137398568Y-75557866D01*
X137384799Y-75539506D02*
X137391710Y-75548609D01*
X137377832Y-75530556D02*
X137384799Y-75539506D01*
X137370810Y-75521761D02*
X137377832Y-75530556D01*
X137363730Y-75513120D02*
X137370810Y-75521761D01*
X137356593Y-75504633D02*
X137363730Y-75513120D01*
X137349396Y-75496302D02*
X137356593Y-75504633D01*
X137342138Y-75488127D02*
X137349396Y-75496302D01*
X137334819Y-75480107D02*
X137342138Y-75488127D01*
X137327437Y-75472244D02*
X137334819Y-75480107D01*
X137319992Y-75464537D02*
X137327437Y-75472244D01*
X137312481Y-75456987D02*
X137319992Y-75464537D01*
X137304904Y-75449594D02*
X137312481Y-75456987D01*
X137297260Y-75442359D02*
X137304904Y-75449594D01*
X137289547Y-75435281D02*
X137297260Y-75442359D01*
X137281765Y-75428363D02*
X137289547Y-75435281D01*
X137273912Y-75421602D02*
X137281765Y-75428363D01*
X137265988Y-75415001D02*
X137273912Y-75421602D01*
X137257991Y-75408559D02*
X137265988Y-75415001D01*
X137249919Y-75402277D02*
X137257991Y-75408559D01*
X137241773Y-75396155D02*
X137249919Y-75402277D01*
X135462154Y-76406583D02*
X135469044Y-76406014D01*
X135455512Y-76407100D02*
X135462154Y-76406583D01*
X135449125Y-76407567D02*
X135455512Y-76407100D01*
X135443001Y-76407986D02*
X135449125Y-76407567D01*
X135437147Y-76408362D02*
X135443001Y-76407986D01*
X134916953Y-76313681D02*
X134927574Y-76318337D01*
X134906392Y-76308870D02*
X134916953Y-76313681D01*
X134895897Y-76303902D02*
X134906392Y-76308870D01*
X134885476Y-76298774D02*
X134895897Y-76303902D01*
X134875136Y-76293484D02*
X134885476Y-76298774D01*
X134864886Y-76288030D02*
X134875136Y-76293484D01*
X134854732Y-76282408D02*
X134864886Y-76288030D01*
X134844683Y-76276617D02*
X134854732Y-76282408D01*
X134834745Y-76270654D02*
X134844683Y-76276617D01*
X134824927Y-76264515D02*
X134834745Y-76270654D01*
X134815236Y-76258200D02*
X134824927Y-76264515D01*
X134805679Y-76251705D02*
X134815236Y-76258200D01*
X134796264Y-76245028D02*
X134805679Y-76251705D01*
X137233550Y-75390194D02*
X137241773Y-75396155D01*
X137225250Y-75384393D02*
X137233550Y-75390194D01*
X137216871Y-75378753D02*
X137225250Y-75384393D01*
X137208412Y-75373275D02*
X137216871Y-75378753D01*
X136460469Y-75433453D02*
X136468733Y-75426609D01*
X136452285Y-75440458D02*
X136460469Y-75433453D01*
X136444183Y-75447626D02*
X136452285Y-75440458D01*
X136436161Y-75454956D02*
X136444183Y-75447626D01*
X136428220Y-75462447D02*
X136436161Y-75454956D01*
X136420360Y-75470101D02*
X136428220Y-75462447D01*
X136412581Y-75477916D02*
X136420360Y-75470101D01*
X136404883Y-75485893D02*
X136412581Y-75477916D01*
X136374900Y-75519421D02*
X136382274Y-75510796D01*
X136367606Y-75528207D02*
X136374900Y-75519421D01*
X136360394Y-75537156D02*
X136367606Y-75528207D01*
X136353262Y-75546266D02*
X136360394Y-75537156D01*
X136346211Y-75555539D02*
X136353262Y-75546266D01*
X136339242Y-75564973D02*
X136346211Y-75555539D01*
X136332353Y-75574569D02*
X136339242Y-75564973D01*
X136325545Y-75584327D02*
X136332353Y-75574569D01*
X136318818Y-75594247D02*
X136325545Y-75584327D01*
X136312171Y-75604329D02*
X136318818Y-75594247D01*
X136250159Y-75714051D02*
X136255996Y-75702350D01*
X136244403Y-75725913D02*
X136250159Y-75714051D01*
X136238728Y-75737938D02*
X136244403Y-75725913D01*
X136233133Y-75750124D02*
X136238728Y-75737938D01*
X136227620Y-75762472D02*
X136233133Y-75750124D01*
X136222187Y-75774983D02*
X136227620Y-75762472D01*
X136216835Y-75787655D02*
X136222187Y-75774983D01*
X136211564Y-75800489D02*
X136216835Y-75787655D01*
X136206374Y-75813485D02*
X136211564Y-75800489D01*
X136201265Y-75826642D02*
X136206374Y-75813485D01*
X136025237Y-76205076D02*
X136033545Y-76197156D01*
X136016738Y-76212797D02*
X136025237Y-76205076D01*
X136008055Y-76220322D02*
X136016738Y-76212797D01*
X135999195Y-76227654D02*
X136008055Y-76220322D01*
X135990167Y-76234795D02*
X135999195Y-76227654D01*
X135980979Y-76241747D02*
X135990167Y-76234795D01*
X135971636Y-76248513D02*
X135980979Y-76241747D01*
X135962148Y-76255095D02*
X135971636Y-76248513D01*
X135952521Y-76261497D02*
X135962148Y-76255095D01*
X135942764Y-76267720D02*
X135952521Y-76261497D01*
X135932884Y-76273767D02*
X135942764Y-76267720D01*
X135922888Y-76279641D02*
X135932884Y-76273767D01*
X135912783Y-76285344D02*
X135922888Y-76279641D01*
X135902579Y-76290879D02*
X135912783Y-76285344D01*
X135892282Y-76296247D02*
X135902579Y-76290879D01*
X135881899Y-76301453D02*
X135892282Y-76296247D01*
X135871438Y-76306497D02*
X135881899Y-76301453D01*
X135860908Y-76311384D02*
X135871438Y-76306497D01*
X135850314Y-76316114D02*
X135860908Y-76311384D01*
X135839666Y-76320692D02*
X135850314Y-76316114D01*
X135828970Y-76325118D02*
X135839666Y-76320692D01*
X135818235Y-76329397D02*
X135828970Y-76325118D01*
X135807467Y-76333529D02*
X135818235Y-76329397D01*
X135796674Y-76337519D02*
X135807467Y-76333529D01*
X135785864Y-76341368D02*
X135796674Y-76337519D01*
X135775044Y-76345079D02*
X135785864Y-76341368D01*
X135764223Y-76348655D02*
X135775044Y-76345079D01*
X135753407Y-76352097D02*
X135764223Y-76348655D01*
X135742604Y-76355409D02*
X135753407Y-76352097D01*
X135731822Y-76358593D02*
X135742604Y-76355409D01*
X135721068Y-76361651D02*
X135731822Y-76358593D01*
X135710349Y-76364586D02*
X135721068Y-76361651D01*
X135699674Y-76367401D02*
X135710349Y-76364586D01*
X135689051Y-76370098D02*
X135699674Y-76367401D01*
X135678485Y-76372680D02*
X135689051Y-76370098D01*
X135667986Y-76375149D02*
X135678485Y-76372680D01*
X135657560Y-76377507D02*
X135667986Y-76375149D01*
X135647216Y-76379758D02*
X135657560Y-76377507D01*
X135636960Y-76381903D02*
X135647216Y-76379758D01*
X135626801Y-76383946D02*
X135636960Y-76381903D01*
X135616746Y-76385888D02*
X135626801Y-76383946D01*
X135606802Y-76387733D02*
X135616746Y-76385888D01*
X135596977Y-76389482D02*
X135606802Y-76387733D01*
X136494013Y-75407048D02*
X136502601Y-75400852D01*
X136485505Y-75413406D02*
X136494013Y-75407048D01*
X136477079Y-75419926D02*
X136485505Y-75413406D01*
X136468733Y-75426609D02*
X136477079Y-75419926D01*
X135587279Y-76391139D02*
X135596977Y-76389482D01*
X135577715Y-76392705D02*
X135587279Y-76391139D01*
X135568293Y-76394184D02*
X135577715Y-76392705D01*
X135559020Y-76395578D02*
X135568293Y-76394184D01*
X135523575Y-76400353D02*
X135532174Y-76399274D01*
X135515162Y-76401359D02*
X135523575Y-76400353D01*
X135506945Y-76402295D02*
X135515162Y-76401359D01*
X135498929Y-76403163D02*
X135506945Y-76402295D01*
X135491124Y-76403967D02*
X135498929Y-76403163D01*
X135483536Y-76404708D02*
X135491124Y-76403967D01*
X135476174Y-76405390D02*
X135483536Y-76404708D01*
X135469044Y-76406014D02*
X135476174Y-76405390D01*
X136528851Y-75383234D02*
X136537763Y-75377685D01*
X136520020Y-75388944D02*
X136528851Y-75383234D01*
X136511270Y-75394817D02*
X136520020Y-75388944D01*
X136502601Y-75400852D02*
X136511270Y-75394817D01*
X135549905Y-76396889D02*
X135559020Y-76395578D01*
X135540953Y-76398120D02*
X135549905Y-76396889D01*
X135532174Y-76399274D02*
X135540953Y-76398120D01*
X136267914Y-75679434D02*
X136273993Y-75668219D01*
X136261915Y-75690811D02*
X136267914Y-75679434D01*
X136255996Y-75702350D02*
X136261915Y-75690811D01*
X137109790Y-75323774D02*
X137119199Y-75327453D01*
X137100287Y-75320261D02*
X137109790Y-75323774D01*
X137090691Y-75316914D02*
X137100287Y-75320261D01*
X137080999Y-75313734D02*
X137090691Y-75316914D01*
X137071210Y-75310720D02*
X137080999Y-75313734D01*
X136196237Y-75839962D02*
X136201265Y-75826642D01*
X136191289Y-75853444D02*
X136196237Y-75839962D01*
X136186423Y-75867087D02*
X136191289Y-75853444D01*
X136181637Y-75880893D02*
X136186423Y-75867087D01*
X136176932Y-75894860D02*
X136181637Y-75880893D01*
X136172309Y-75908989D02*
X136176932Y-75894860D01*
X136167766Y-75923280D02*
X136172309Y-75908989D01*
X136163303Y-75937733D02*
X136167766Y-75923280D01*
X136158922Y-75952348D02*
X136163303Y-75937733D01*
X136154622Y-75967125D02*
X136158922Y-75952348D01*
X136150402Y-75982064D02*
X136154622Y-75967125D01*
X136146264Y-75997164D02*
X136150402Y-75982064D01*
X136142206Y-76012427D02*
X136146264Y-75997164D01*
X136138229Y-76027851D02*
X136142206Y-76012427D01*
X136134282Y-76041363D02*
X136138229Y-76027851D01*
X136130064Y-76052804D02*
X136134282Y-76041363D01*
X136125534Y-76064006D02*
X136130064Y-76052804D01*
X136120699Y-76074972D02*
X136125534Y-76064006D01*
X136115566Y-76085704D02*
X136120699Y-76074972D01*
X136110144Y-76096204D02*
X136115566Y-76085704D01*
X136104440Y-76106476D02*
X136110144Y-76096204D01*
X136098461Y-76116521D02*
X136104440Y-76106476D01*
X136092215Y-76126342D02*
X136098461Y-76116521D01*
X136085710Y-76135942D02*
X136092215Y-76126342D01*
X136078953Y-76145323D02*
X136085710Y-76135942D01*
X136071952Y-76154488D02*
X136078953Y-76145323D01*
X136064714Y-76163439D02*
X136071952Y-76154488D01*
X136057246Y-76172179D02*
X136064714Y-76163439D01*
X136049558Y-76180710D02*
X136057246Y-76172179D01*
X136041655Y-76189035D02*
X136049558Y-76180710D01*
X136033545Y-76197156D02*
X136041655Y-76189035D01*
X135416590Y-76409465D02*
X135421286Y-76409243D01*
X135412203Y-76409654D02*
X135416590Y-76409465D01*
X135408131Y-76409813D02*
X135412203Y-76409654D01*
X135404383Y-76409945D02*
X135408131Y-76409813D01*
X136305606Y-75614572D02*
X136312171Y-75604329D01*
X136299122Y-75624978D02*
X136305606Y-75614572D01*
X136292718Y-75635545D02*
X136299122Y-75624978D01*
X136397266Y-75494032D02*
X136404883Y-75485893D01*
X136389730Y-75502333D02*
X136397266Y-75494032D01*
X136382274Y-75510796D02*
X136389730Y-75502333D01*
X136286396Y-75646275D02*
X136292718Y-75635545D01*
X136280154Y-75657166D02*
X136286396Y-75646275D01*
X136273993Y-75668219D02*
X136280154Y-75657166D01*
X137164886Y-75348319D02*
X137173760Y-75352984D01*
X137155926Y-75343817D02*
X137164886Y-75348319D01*
X137146878Y-75339479D02*
X137155926Y-75343817D01*
X137137742Y-75335306D02*
X137146878Y-75339479D01*
X137128516Y-75331297D02*
X137137742Y-75335306D01*
X137119199Y-75327453D02*
X137128516Y-75331297D01*
X137199873Y-75367959D02*
X137208412Y-75373275D01*
X137191252Y-75362805D02*
X137199873Y-75367959D01*
X137182548Y-75357813D02*
X137191252Y-75362805D01*
X137173760Y-75352984D02*
X137182548Y-75357813D01*
X137061324Y-75307873D02*
X137071210Y-75310720D01*
X137051338Y-75305194D02*
X137061324Y-75307873D01*
X137041253Y-75302683D02*
X137051338Y-75305194D01*
X137031067Y-75300340D02*
X137041253Y-75302683D01*
X137020779Y-75298165D02*
X137031067Y-75300340D01*
X137010387Y-75296160D02*
X137020779Y-75298165D01*
X136999891Y-75294323D02*
X137010387Y-75296160D01*
X136989289Y-75292656D02*
X136999891Y-75294323D01*
X135140688Y-76382899D02*
X135150797Y-76384893D01*
X135130480Y-76380804D02*
X135140688Y-76382899D01*
X135120179Y-76378604D02*
X135130480Y-76380804D01*
X135109793Y-76376298D02*
X135120179Y-76378604D01*
X135099330Y-76373883D02*
X135109793Y-76376298D01*
X135088797Y-76371356D02*
X135099330Y-76373883D01*
X135078201Y-76368714D02*
X135088797Y-76371356D01*
X136978580Y-75291159D02*
X136989289Y-75292656D01*
X136967764Y-75289832D02*
X136978580Y-75291159D01*
X136956839Y-75288676D02*
X136967764Y-75289832D01*
X136945803Y-75287691D02*
X136956839Y-75288676D01*
X136934656Y-75286877D02*
X136945803Y-75287691D01*
X136923397Y-75286235D02*
X136934656Y-75286877D01*
X136912025Y-75285765D02*
X136923397Y-75286235D01*
X136900538Y-75285467D02*
X136912025Y-75285765D01*
X136888935Y-75285342D02*
X136900538Y-75285467D01*
X136877275Y-75285387D02*
X136888935Y-75285342D01*
X134786999Y-76238165D02*
X134796264Y-76245028D01*
X134777892Y-76231116D02*
X134786999Y-76238165D01*
X134768949Y-76223877D02*
X134777892Y-76231116D01*
X134760178Y-76216445D02*
X134768949Y-76223877D01*
X134751587Y-76208818D02*
X134760178Y-76216445D01*
X134743184Y-76200994D02*
X134751587Y-76208818D01*
X134734976Y-76192970D02*
X134743184Y-76200994D01*
X134726971Y-76184744D02*
X134734976Y-76192970D01*
X134719175Y-76176312D02*
X134726971Y-76184744D01*
X134711598Y-76167673D02*
X134719175Y-76176312D01*
X134704245Y-76158824D02*
X134711598Y-76167673D01*
X134697126Y-76149763D02*
X134704245Y-76158824D01*
X134690247Y-76140486D02*
X134697126Y-76149763D01*
X134683616Y-76130992D02*
X134690247Y-76140486D01*
X134677241Y-76121277D02*
X134683616Y-76130992D01*
X134671129Y-76111340D02*
X134677241Y-76121277D01*
X134665288Y-76101178D02*
X134671129Y-76111340D01*
X134659725Y-76090788D02*
X134665288Y-76101178D01*
X134654447Y-76080168D02*
X134659725Y-76090788D01*
X135326564Y-76407775D02*
X135332557Y-76408172D01*
X135320304Y-76407331D02*
X135326564Y-76407775D01*
X135313786Y-76406838D02*
X135320304Y-76407331D01*
X135307016Y-76406294D02*
X135313786Y-76406838D01*
X135300002Y-76405697D02*
X135307016Y-76406294D01*
X135292752Y-76405044D02*
X135300002Y-76405697D01*
X135285273Y-76404332D02*
X135292752Y-76405044D01*
X135277573Y-76403558D02*
X135285273Y-76404332D01*
X135208923Y-76394866D02*
X135218119Y-76396220D01*
X135199574Y-76393428D02*
X135208923Y-76394866D01*
X135190079Y-76391904D02*
X135199574Y-76393428D01*
X135180446Y-76390291D02*
X135190079Y-76391904D01*
X135170683Y-76388587D02*
X135180446Y-76390291D01*
X135160798Y-76386788D02*
X135170683Y-76388587D01*
X135150797Y-76384893D02*
X135160798Y-76386788D01*
X135269660Y-76402721D02*
X135277573Y-76403558D01*
X135261541Y-76401818D02*
X135269660Y-76402721D01*
X135253223Y-76400846D02*
X135261541Y-76401818D01*
X135348862Y-76409115D02*
X135353713Y-76409354D01*
X135343714Y-76408840D02*
X135348862Y-76409115D01*
X135338276Y-76408527D02*
X135343714Y-76408840D01*
X135332557Y-76408172D02*
X135338276Y-76408527D01*
X136865691Y-75285594D02*
X136877275Y-75285387D01*
X136854189Y-75285963D02*
X136865691Y-75285594D01*
X136842767Y-75286493D02*
X136854189Y-75285963D01*
X136831426Y-75287186D02*
X136842767Y-75286493D01*
X136820166Y-75288040D02*
X136831426Y-75287186D01*
X136808988Y-75289056D02*
X136820166Y-75288040D01*
X136797890Y-75290234D02*
X136808988Y-75289056D01*
X136786873Y-75291574D02*
X136797890Y-75290234D01*
X136775937Y-75293076D02*
X136786873Y-75291574D01*
X136765082Y-75294740D02*
X136775937Y-75293076D01*
X136754308Y-75296566D02*
X136765082Y-75294740D01*
X136743615Y-75298553D02*
X136754308Y-75296566D01*
X136733003Y-75300702D02*
X136743615Y-75298553D01*
X136722472Y-75303014D02*
X136733003Y-75300702D01*
X136712022Y-75305487D02*
X136722472Y-75303014D01*
X136701653Y-75308122D02*
X136712022Y-75305487D01*
X136691365Y-75310919D02*
X136701653Y-75308122D01*
X136681157Y-75313877D02*
X136691365Y-75310919D01*
X136671031Y-75316998D02*
X136681157Y-75313877D01*
X136660986Y-75320281D02*
X136671031Y-75316998D01*
X136651022Y-75323725D02*
X136660986Y-75320281D01*
X136641138Y-75327331D02*
X136651022Y-75323725D01*
X136631336Y-75331099D02*
X136641138Y-75327331D01*
X136621614Y-75335029D02*
X136631336Y-75331099D01*
X136555830Y-75367073D02*
X136564985Y-75362009D01*
X136546756Y-75372298D02*
X136555830Y-75367073D01*
X136537763Y-75377685D02*
X136546756Y-75372298D01*
X136611974Y-75339121D02*
X136621614Y-75335029D01*
X136602414Y-75343375D02*
X136611974Y-75339121D01*
X136592935Y-75347791D02*
X136602414Y-75343375D01*
X136583538Y-75352369D02*
X136592935Y-75347791D01*
X136574221Y-75357108D02*
X136583538Y-75352369D01*
X136564985Y-75362009D02*
X136574221Y-75357108D01*
X134649464Y-76069315D02*
X134654447Y-76080168D01*
X134644781Y-76058227D02*
X134649464Y-76069315D01*
X134640407Y-76046902D02*
X134644781Y-76058227D01*
X134636349Y-76035335D02*
X134640407Y-76046902D01*
X135431572Y-76408694D02*
X135437147Y-76408362D01*
X135426282Y-76408987D02*
X135431572Y-76408694D01*
X135421286Y-76409243D02*
X135426282Y-76408987D01*
X135244714Y-76399803D02*
X135253223Y-76400846D01*
X135236022Y-76398685D02*
X135244714Y-76399803D01*
X135227155Y-76397492D02*
X135236022Y-76398685D01*
X135218119Y-76396220D02*
X135227155Y-76397492D01*
X135400966Y-76410053D02*
X135404383Y-76409945D01*
X135397888Y-76410139D02*
X135400966Y-76410053D01*
X135395156Y-76410205D02*
X135397888Y-76410139D01*
X135392777Y-76410255D02*
X135395156Y-76410205D01*
X135390760Y-76410289D02*
X135392777Y-76410255D01*
X135389112Y-76410312D02*
X135390760Y-76410289D01*
X135387840Y-76410325D02*
X135389112Y-76410312D01*
X135386953Y-76410332D02*
X135387840Y-76410325D01*
X135386456Y-76410334D02*
X135386953Y-76410332D01*
X135386332Y-76410334D02*
X135386456Y-76410334D01*
X135386028Y-76410333D02*
X135386332Y-76410334D01*
X135385328Y-76410329D02*
X135386028Y-76410333D01*
X135067552Y-76365957D02*
X135078201Y-76368714D01*
X135056855Y-76363079D02*
X135067552Y-76365957D01*
X135046118Y-76360081D02*
X135056855Y-76363079D01*
X135035350Y-76356958D02*
X135046118Y-76360081D01*
X135024557Y-76353708D02*
X135035350Y-76356958D01*
X134981294Y-76339390D02*
X134992108Y-76343172D01*
X134970492Y-76335468D02*
X134981294Y-76339390D01*
X134959712Y-76331405D02*
X134970492Y-76335468D01*
X135384240Y-76410319D02*
X135385328Y-76410329D01*
X135382773Y-76410302D02*
X135384240Y-76410319D01*
X135380933Y-76410273D02*
X135382773Y-76410302D01*
X135378728Y-76410231D02*
X135380933Y-76410273D01*
X135013747Y-76350328D02*
X135024557Y-76353708D01*
X135002929Y-76346817D02*
X135013747Y-76350328D01*
X134992108Y-76343172D02*
X135002929Y-76346817D01*
X135376166Y-76410173D02*
X135378728Y-76410231D01*
X135373254Y-76410097D02*
X135376166Y-76410173D01*
X135370000Y-76410000D02*
X135373254Y-76410097D01*
M02*
