<?xml version="1.0" encoding="UTF-8" standalone="no"?>
<svg
   xmlns:dc="http://purl.org/dc/elements/1.1/"
   xmlns:cc="http://creativecommons.org/ns#"
   xmlns:rdf="http://www.w3.org/1999/02/22-rdf-syntax-ns#"
   xmlns:svg="http://www.w3.org/2000/svg"
   xmlns="http://www.w3.org/2000/svg"
   xmlns:sodipodi="http://sodipodi.sourceforge.net/DTD/sodipodi-0.dtd"
   xmlns:inkscape="http://www.inkscape.org/namespaces/inkscape"
   width="793.700787402"
   height="1122.51968504"
   version="1.1"
   id="svg26"
   sodipodi:docname="Lulu_PCB_path.svg"
   inkscape:version="0.92.3 (2405546, 2018-03-11)">
  <metadata
     id="metadata30">
    <rdf:RDF>
      <cc:Work
         rdf:about="">
        <dc:format>image/svg+xml</dc:format>
        <dc:type
           rdf:resource="http://purl.org/dc/dcmitype/StillImage" />
        <dc:title></dc:title>
      </cc:Work>
    </rdf:RDF>
  </metadata>
  <sodipodi:namedview
     pagecolor="#ffffff"
     bordercolor="#666666"
     borderopacity="1"
     objecttolerance="10"
     gridtolerance="10"
     guidetolerance="10"
     inkscape:pageopacity="0"
     inkscape:pageshadow="2"
     inkscape:window-width="1366"
     inkscape:window-height="720"
     id="namedview28"
     showgrid="false"
     inkscape:zoom="2.8888726"
     inkscape:cx="71.919929"
     inkscape:cy="-10.811517"
     inkscape:window-x="0"
     inkscape:window-y="24"
     inkscape:window-maximized="1"
     inkscape:current-layer="g24" />
  <desc
     id="desc2">/home/chevrette/Bureau/Lulu/Hardware/kicad_Lulu_star/Lulu_star_212/Library/Lulu_PCB_path.dxf - scale = 1.000000, origin = (0.000000, 0.000000), method = manual</desc>
  <defs
     id="defs16">
    <marker
       id="DistanceX"
       orient="auto"
       refX="0.0"
       refY="0.0"
       style="overflow:visible">
      <path
         d="M 3,-3 L -3,3 M 0,-5 L  0,5"
         style="stroke:#000000; stroke-width:0.5"
         id="path4" />
    </marker>
    <pattern
       height="8"
       id="Hatch"
       patternUnits="userSpaceOnUse"
       width="8"
       x="0"
       y="0">
      <path
         d="M8 4 l-4,4"
         linecap="square"
         stroke="#000000"
         stroke-width="0.25"
         id="path7" />
      <path
         d="M6 2 l-4,4"
         linecap="square"
         stroke="#000000"
         stroke-width="0.25"
         id="path9" />
      <path
         d="M4 0 l-4,4"
         linecap="square"
         stroke="#000000"
         stroke-width="0.25"
         id="path11" />
    </pattern>
    <symbol
       id="*MODEL_SPACE" />
    <symbol
       id="*PAPER_SPACE" />
  </defs>
  <g
     inkscape:groupmode="layer"
     inkscape:label="0"
     id="g18" />
  <g
     inkscape:groupmode="layer"
     inkscape:label="CALQUE_1"
     id="g24">
    <path
       d="m 52.637406,1082.6721 -0.33333,0.1937 -0.33334,0.1938 -0.33333,0.1937 -0.33333,0.1937 -0.33334,0.1937 -0.33333,0.1938 -0.33333,0.1937 -0.33334,0.1937 -0.33333,0.1937 -0.33333,0.1938 -0.33334,0.1937 -0.33333,0.1937 -0.33333,0.1937 -0.33334,0.1938 -0.33333,0.1937 -0.33334,0.1937 -0.33333,0.1937 -0.33333,0.1938 -0.33334,0.1937 -0.33333,0.1937 -0.33333,0.1937 -0.33334,0.1938 -0.33333,0.1937 -0.33333,0.1937 -0.33334,0.1937 -0.33333,0.1938 -0.33333,0.1937 -0.33334,0.1937 -0.33333,0.1937 -0.33333,0.1938 -0.33334,0.1937 -0.33333,0.1937 0.0404,0.071 0.0404,0.071 0.0404,0.071 0.0404,0.071 0.0404,0.071 0.0404,0.071 0.0404,0.071 0.0404,0.071 0.0404,0.071 0.0404,0.071 0.0404,0.071 0.0404,0.071 0.0404,0.071 0.0404,0.071 0.0404,0.071 0.0404,0.071 0.0404,0.071 0.0404,0.071 0.0404,0.071 0.0404,0.071 0.0404,0.071 0.0404,0.071 0.0404,0.071 0.0404,0.071 0.0404,0.071 0.0404,0.071 0.0404,0.071 0.0404,0.071 0.0404,0.071 0.0404,0.071 0.0404,0.071 0.0404,0.071 0.0469,-0.028 0.0469,-0.028 0.0469,-0.028 0.0469,-0.028 0.0469,-0.028 0.0469,-0.028 0.0469,-0.028 0.0469,-0.028 0.0469,-0.028 0.0469,-0.028 0.0469,-0.028 0.0469,-0.028 0.0469,-0.028 0.0469,-0.028 0.0469,-0.028 0.0469,-0.028 0.0469,-0.028 0.0469,-0.028 0.0469,-0.028 0.0469,-0.028 0.0469,-0.028 0.0469,-0.028 0.0469,-0.028 0.0469,-0.028 0.0469,-0.028 0.0469,-0.028 0.0469,-0.028 0.0469,-0.028 0.0469,-0.028 0.0469,-0.028 0.0469,-0.028 0.0469,-0.028 0.57959,1.0026 0.57959,1.0026 0.57959,1.0026 0.57959,1.0026 0.57959,1.0026 0.57959,1.0026 0.57959,1.0026 0.57959,1.0027 0.57959,1.0026 0.57959,1.0026 0.57959,1.0026 0.57959,1.0026 0.57959,1.0026 0.57959,1.0026 0.57959,1.0026 0.57959,1.0026 0.57959,1.0026 0.57959,1.0026 0.57959,1.0026 0.57959,1.0026 0.57959,1.0026 0.57959,1.0026 0.57959,1.0026 0.57959,1.0027 0.57959,1.0026 0.57959,1.0026 0.57959,1.0026 0.57959,1.0026 0.57959,1.0026 0.57959,1.0026 0.57959,1.0026 0.57959,1.0026 h -1.96824 -1.96825 -1.96824 -1.96824 -1.96824 -1.96825 -1.96824 -1.96824 -1.96824 -1.96825 -1.96824 -1.96824 -1.96824 -1.96825 -1.96824 -1.96824 -1.96824 -1.96825 -1.96824 -1.96824 H 21.97812 20.009877 18.041635 16.073392 14.105149 12.136907 10.168664 8.2004207 6.2321787 4.2639357 2.2956937 0.32745074 l 0.91510096,-1.5841 0.9151,-1.584 0.915101,-1.5841 0.915101,-1.5841 0.915101,-1.584 0.9151,-1.5841 0.915101,-1.5841 0.915101,-1.584 0.915101,-1.5841 0.9151,-1.5841 0.9151013,-1.5841 0.915101,-1.584 0.915101,-1.5841 0.9151,-1.5841 0.915101,-1.584 0.915101,-1.5841 0.915101,-1.5841 0.9151,-1.584 0.915101,-1.5841 0.915101,-1.5841 0.915101,-1.584 0.9151,-1.5841 0.915101,-1.5841 0.915101,-1.584 0.915097,-1.5841 0.91511,-1.5841 0.9151,-1.5841 0.9151,-1.584 0.9151,-1.5841 0.9151,-1.5841 0.9151,-1.584 0.9151,-1.5841 c 0.0519,-0.09 0.10484,-0.1793 0.15878,-0.2687 0.0539,-0.089 0.10887,-0.1784 0.16483,-0.2672 0.056,-0.089 0.11294,-0.1773 0.17095,-0.2654 0.058,-0.088 0.11703,-0.1758 0.17709,-0.263 0.0601,-0.087 0.12117,-0.174 0.18331,-0.2602 0.0621,-0.086 0.12532,-0.1719 0.18955,-0.2569 0.0642,-0.085 0.12952,-0.1694 0.19586,-0.2531 0.0663,-0.084 0.13373,-0.1668 0.2022,-0.249 0.0685,-0.082 0.13799,-0.1637 0.20859,-0.2442 0.0706,-0.081 0.14228,-0.1604 0.21504,-0.2391 0.0728,-0.079 0.1466,-0.1567 0.22153,-0.2335 0.0749,-0.077 0.15096,-0.1527 0.22807,-0.2274 0.0771,-0.075 0.15534,-0.1484 0.23466,-0.2209 0.0793,-0.072 0.15975,-0.1438 0.24129,-0.2139 0.0816,-0.07 0.1642,-0.1388 0.24798,-0.2063 0.0838,-0.067 0.16868,-0.1337 0.2547,-0.1984 0.086,-0.065 0.17319,-0.1282 0.26149,-0.19 0.0883,-0.062 0.17773,-0.1223 0.26831,-0.1812 0.0906,-0.059 0.18231,-0.1161 0.27519,-0.1717 0.0929,-0.056 0.18691,-0.1097 0.2821,-0.162 0.0952,-0.052 0.19156,-0.1029 0.28908,-0.1517 0.0975,-0.049 0.19623,-0.096 0.2961,-0.141 0.0999,-0.045 0.20093,-0.088 0.30316,-0.1297 0.10224,-0.041 0.20566,-0.081 0.31028,-0.118 0.10462,-0.037 0.21043,-0.073 0.31744,-0.106 0.10701,-0.033 0.21523,-0.064 0.32465,-0.093 0.10942,-0.029 0.22006,-0.056 0.33191,-0.08 0.11185,-0.024 0.22492,-0.047 0.33921,-0.067 0.11429,-0.02 0.22981,-0.037 0.34657,-0.053 0.11675,-0.015 0.23474,-0.028 0.35397,-0.038 0.11922,-0.01 0.23969,-0.018 0.36141,-0.023 0.12172,-0.01 0.24469,-0.01 0.36892,-0.01 0.12423,0 0.24719,0 0.3689,0.01 0.12171,0.01 0.24217,0.013 0.36138,0.023 0.11921,0.01 0.23717,0.023 0.3539,0.038 0.11672,0.015 0.23221,0.033 0.34647,0.053 0.11426,0.02 0.22729,0.042 0.3391,0.067 0.1118,0.024 0.22239,0.051 0.33176,0.08 0.10938,0.029 0.21754,0.06 0.3245,0.093 0.10695,0.033 0.21271,0.069 0.31726,0.1058 0.10456,0.037 0.20792,0.077 0.31009,0.1179 0.10217,0.041 0.20315,0.084 0.30296,0.1296 0.0998,0.045 0.19843,0.092 0.29588,0.1408 0.0975,0.049 0.19374,0.099 0.28885,0.1515 0.0951,0.052 0.18908,0.1062 0.28188,0.1618 0.0928,0.056 0.18445,0.1128 0.27495,0.1716 0.0905,0.059 0.17985,0.1191 0.26807,0.181 0.0882,0.062 0.17529,0.1251 0.26124,0.1898 0.0859,0.065 0.17076,0.1308 0.25446,0.1982 0.0837,0.067 0.16627,0.1362 0.24773,0.2062 0.0815,0.07 0.16181,0.1412 0.24106,0.2136 0.0792,0.072 0.15738,0.146 0.23442,0.2206 0.077,0.075 0.15299,0.1505 0.22785,0.2272 0.0749,0.077 0.14863,0.1546 0.22131,0.2333 0.0727,0.079 0.1443,0.1584 0.21484,0.2389 0.0705,0.081 0.14,0.1619 0.20841,0.244 0.0684,0.082 0.13574,0.1651 0.20202,0.2488 0.0663,0.084 0.13152,0.1679 0.1957,0.2529 0.0642,0.085 0.12732,0.1706 0.18941,0.2567 0.0621,0.086 0.12316,0.1728 0.18319,0.26 0.06,0.087 0.11903,0.1748 0.177,0.2628 0.058,0.088 0.11494,0.1764 0.17088,0.2652 0.0559,0.089 0.11087,0.1777 0.16479,0.267 0.0539,0.089 0.10684,0.1788 0.15876,0.2685 l 0.19954,0.3449 0.19955,0.3448 0.19954,0.3449 0.19955,0.3448 0.19954,0.3449 0.19955,0.3448 0.19954,0.3449 0.19954,0.3448 0.19955,0.3449 0.19954,0.3448 0.19955,0.3449 0.19954,0.3448 0.19955,0.3449 0.19954,0.3448 0.19955,0.3449 0.19954,0.3448 0.19954,0.3449 0.19955,0.3448 0.19954,0.3449 0.19955,0.3448 0.19954,0.3449 0.19955,0.3448 0.19954,0.3449 0.19954,0.3448 0.19955,0.3449 0.19954,0.3448 0.19955,0.3449 0.19954,0.3448 0.19955,0.3449 0.19954,0.3448 0.19955,0.3449 z"
       style="fill:none;stroke:#000000;stroke-width:0.37799999;stroke-miterlimit:4;stroke-dasharray:none"
       id="path20-3"
       inkscape:connector-curvature="0"
       sodipodi:nodetypes="cccccccccccccccccccccccccccccccccccccccccccccccccccccccccccccccccccccccccccccccccccccccccccccccccccccccccccccccccccccccccccccccccccccccccccccccccccccccccccccccccccccccccccccccccccccccccccccccccsssssssssssssssssssssssssssssssssssssssssssssssssssssssssssssssccccccccccccccccccccccccccccccccc" />
  </g>
</svg>
