  0
SECTION
  2
HEADER
  9
$ACADVER
  1
AC1014
  9
$HANDSEED
  5
FFFF
  9
$MEASUREMENT
 70
     1
  0
ENDSEC
  0
SECTION
  2
TABLES
  0
TABLE
  2
VPORT
  5
8
330
0
100
AcDbSymbolTable
 70
     4
  0
VPORT
  5
2E
330
8
100
AcDbSymbolTableRecord
100
AcDbViewportTableRecord
  2
*ACTIVE
 70
     0
 10
0.0
 20
0.0
 11
1.0
 21
1.0
 12
210.0
 22
148.5
 13
0.0
 23
0.0
 14
10.0
 24
10.0
 15
10.0
 25
10.0
 16
0.0
 26
0.0
 36
1.0
 17
0.0
 27
0.0
 37
0.0
 40
341.0
 41
1.24
 42
50.0
 43
0.0
 44
0.0
 50
0.0
 51
0.0
 71
     0
 72
   100
 73
     1
 74
     3
 75
     0
 76
     0
 77
     0
 78
     0
  0
ENDTAB
  0
TABLE
  2
LTYPE
  5
5
330
0
100
AcDbSymbolTable
 70
     1
  0
LTYPE
  5
14
330
5
100
AcDbSymbolTableRecord
100
AcDbLinetypeTableRecord
  2
BYBLOCK
 70
     0
  3

 72
    65
 73
     0
 40
0.0
  0
LTYPE
  5
15
330
5
100
AcDbSymbolTableRecord
100
AcDbLinetypeTableRecord
  2
BYLAYER
 70
     0
  3

 72
    65
 73
     0
 40
0.0
  0
LTYPE
  5
16
330
5
100
AcDbSymbolTableRecord
100
AcDbLinetypeTableRecord
  2
CONTINUOUS
 70
     0
  3
Solid line
 72
    65
 73
     0
 40
0.0
  0
ENDTAB
  0
TABLE
  2
LAYER
  5
2
100
AcDbSymbolTable
 70
1
  0
LAYER
  5
50
100
AcDbSymbolTableRecord
100
AcDbLayerTableRecord
  2
0
 70
0
  6
CONTINUOUS
  0
ENDTAB
  0
TABLE
  2
STYLE
  5
3
330
0
100
AcDbSymbolTable
 70
     1
  0
STYLE
  5
11
330
3
100
AcDbSymbolTableRecord
100
AcDbTextStyleTableRecord
  2
STANDARD
 70
     0
 40
0.0
 41
1.0
 50
0.0
 71
     0
 42
2.5
  3
txt
  4

  0
ENDTAB
  0
TABLE
  2
VIEW
  5
6
330
0
100
AcDbSymbolTable
 70
     0
  0
ENDTAB
  0
TABLE
  2
UCS
  5
7
330
0
100
AcDbSymbolTable
 70
     0
  0
ENDTAB
  0
TABLE
  2
APPID
  5
9
330
0
100
AcDbSymbolTable
 70
     2
  0
APPID
  5
12
330
9
100
AcDbSymbolTableRecord
100
AcDbRegAppTableRecord
  2
ACAD
 70
     0
  0
ENDTAB
  0
TABLE
  2
DIMSTYLE
  5
A
330
0
100
AcDbSymbolTable
 70
     1
  0
DIMSTYLE
105
27
330
A
100
AcDbSymbolTableRecord
100
AcDbDimStyleTableRecord
  2
ISO-25
 70
     0
  3

  4

  5

  6

  7

 40
1.0
 41
2.5
 42
0.625
 43
3.75
 44
1.25
 45
0.0
 46
0.0
 47
0.0
 48
0.0
140
2.5
141
2.5
142
0.0
143
0.03937007874016
144
1.0
145
0.0
146
1.0
147
0.625
 71
     0
 72
     0
 73
     0
 74
     0
 75
     0
 76
     0
 77
     1
 78
     8
170
     0
171
     3
172
     1
173
     0
174
     0
175
     0
176
     0
177
     0
178
     0
270
     2
271
     2
272
     2
273
     2
274
     3
340
11
275
     0
280
     0
281
     0
282
     0
283
     0
284
     8
285
     0
286
     0
287
     3
288
     0
  0
ENDTAB
  0
TABLE
  2
BLOCK_RECORD
  5
1
330
0
100
AcDbSymbolTable
 70
     1
  0
BLOCK_RECORD
  5
1F
330
1
100
AcDbSymbolTableRecord
100
AcDbBlockTableRecord
  2
*MODEL_SPACE
  0
BLOCK_RECORD
  5
1B
330
1
100
AcDbSymbolTableRecord
100
AcDbBlockTableRecord
  2
*PAPER_SPACE
  0
ENDTAB
  0
ENDSEC
  0
SECTION
  2
BLOCKS
  0
BLOCK
  5
20
330
1F
100
AcDbEntity
  8
0
100
AcDbBlockBegin
  2
*MODEL_SPACE
 70
     0
 10
0.0
 20
0.0
 30
0.0
  3
*MODEL_SPACE
  1

  0
ENDBLK
  5
21
330
1F
100
AcDbEntity
  8
0
100
AcDbBlockEnd
  0
BLOCK
  5
1C
330
1B
100
AcDbEntity
 67
     1
  8
0
100
AcDbBlockBegin
  2
*PAPER_SPACE
  1

  0
ENDBLK
  5
1D
330
1B
100
AcDbEntity
 67
     1
  8
0
100
AcDbBlockEnd
  0
ENDSEC
  0
SECTION
  2
ENTITIES
  0
LWPOLYLINE
  5
100
100
AcDbEntity
  8
0
 62
7
100
AcDbPolyline
 90
145
 70
1
 10
74.963314
 20
106.977525
 30
0.0
 10
74.770043
 20
106.865924
 30
0.0
 10
74.576427
 20
106.754296
 30
0.0
 10
74.383157
 20
106.642669
 30
0.0
 10
74.189889
 20
106.531041
 30
0.0
 10
73.996619
 20
106.419440
 30
0.0
 10
73.803349
 20
106.307812
 30
0.0
 10
73.610078
 20
106.196184
 30
0.0
 10
73.416808
 20
106.084742
 30
0.0
 10
73.223538
 20
105.973299
 30
0.0
 10
73.030268
 20
105.861672
 30
0.0
 10
72.836998
 20
105.750044
 30
0.0
 10
72.643727
 20
105.638416
 30
0.0
 10
72.450457
 20
105.526815
 30
0.0
 10
72.257187
 20
105.415187
 30
0.0
 10
72.063917
 20
105.303559
 30
0.0
 10
71.870649
 20
105.191932
 30
0.0
 10
71.905445
 20
105.131131
 30
0.0
 10
71.940240
 20
105.070329
 30
0.0
 10
71.974689
 20
105.009528
 30
0.0
 10
72.009484
 20
104.948727
 30
0.0
 10
72.044282
 20
104.887926
 30
0.0
 10
72.078731
 20
104.827098
 30
0.0
 10
72.113526
 20
104.766138
 30
0.0
 10
72.148322
 20
104.705337
 30
0.0
 10
72.182773
 20
104.644509
 30
0.0
 10
72.217568
 20
104.583549
 30
0.0
 10
72.252364
 20
104.522721
 30
0.0
 10
72.286815
 20
104.461920
 30
0.0
 10
72.321610
 20
104.401119
 30
0.0
 10
72.356406
 20
104.340317
 30
0.0
 10
72.390857
 20
104.279516
 30
0.0
 10
72.425653
 20
104.218715
 30
0.0
 10
72.468028
 20
104.243057
 30
0.0
 10
72.510057
 20
104.267398
 30
0.0
 10
72.552089
 20
104.291740
 30
0.0
 10
72.594118
 20
104.316082
 30
0.0
 10
72.636150
 20
104.340423
 30
0.0
 10
72.678179
 20
104.364765
 30
0.0
 10
72.720211
 20
104.389107
 30
0.0
 10
72.762240
 20
104.413448
 30
0.0
 10
72.804269
 20
104.437790
 30
0.0
 10
72.846300
 20
104.462132
 30
0.0
 10
72.888329
 20
104.486473
 30
0.0
 10
72.930361
 20
104.510815
 30
0.0
 10
72.972390
 20
104.535157
 30
0.0
 10
73.014419
 20
104.559498
 30
0.0
 10
73.056451
 20
104.583840
 30
0.0
 10
73.098480
 20
104.608182
 30
0.0
 10
73.407162
 20
104.074014
 30
0.0
 10
73.715499
 20
103.539847
 30
0.0
 10
74.023834
 20
103.005521
 30
0.0
 10
74.332515
 20
102.471195
 30
0.0
 10
74.641197
 20
101.936869
 30
0.0
 10
74.949532
 20
101.402516
 30
0.0
 10
75.257869
 20
100.868190
 30
0.0
 10
75.566548
 20
100.333864
 30
0.0
 10
75.875229
 20
99.799512
 30
0.0
 10
76.183567
 20
99.265186
 30
0.0
 10
76.491902
 20
98.730860
 30
0.0
 10
76.800583
 20
98.196507
 30
0.0
 10
77.108918
 20
97.662181
 30
0.0
 10
77.417255
 20
97.127855
 30
0.0
 10
77.725937
 20
96.593503
 30
0.0
 10
78.034272
 20
96.059177
 30
0.0
 10
76.942177
 20
96.059177
 30
0.0
 10
75.850081
 20
96.059177
 30
0.0
 10
74.757984
 20
96.059177
 30
0.0
 10
73.665890
 20
96.059177
 30
0.0
 10
72.573793
 20
96.059177
 30
0.0
 10
71.481696
 20
96.059177
 30
0.0
 10
70.389599
 20
96.059177
 30
0.0
 10
69.297505
 20
96.059177
 30
0.0
 10
68.205408
 20
96.059177
 30
0.0
 10
67.113314
 20
96.059177
 30
0.0
 10
66.021217
 20
96.059177
 30
0.0
 10
64.929120
 20
96.059177
 30
0.0
 10
63.837024
 20
96.059177
 30
0.0
 10
62.744929
 20
96.059177
 30
0.0
 10
61.652833
 20
96.059177
 30
0.0
 10
60.560564
 20
96.059177
 30
0.0
 10
61.064410
 20
96.931481
 30
0.0
 10
61.568428
 20
97.803760
 30
0.0
 10
62.072274
 20
98.676064
 30
0.0
 10
62.576120
 20
99.548369
 30
0.0
 10
63.079963
 20
100.420674
 30
0.0
 10
63.583809
 20
101.292979
 30
0.0
 10
64.087827
 20
102.165257
 30
0.0
 10
64.591673
 20
103.037218
 30
0.0
 10
65.095520
 20
103.909523
 30
0.0
 10
65.599538
 20
104.781828
 30
0.0
 10
66.103381
 20
105.654106
 30
0.0
 10
66.607227
 20
106.526252
 30
0.0
 10
67.111073
 20
107.398372
 30
0.0
 10
67.614919
 20
108.270676
 30
0.0
 10
68.118937
 20
109.142955
 30
0.0
 10
68.622783
 20
110.015259
 30
0.0
 10
68.711837
 20
110.162897
 30
0.0
 10
68.807785
 20
110.308259
 30
0.0
 10
68.910449
 20
110.450737
 30
0.0
 10
69.020002
 20
110.588876
 30
0.0
 10
69.136617
 20
110.722014
 30
0.0
 10
69.260469
 20
110.848988
 30
0.0
 10
69.391556
 20
110.968527
 30
0.0
 10
69.529875
 20
111.079969
 30
0.0
 10
69.675777
 20
111.182284
 30
0.0
 10
69.829082
 20
111.274094
 30
0.0
 10
69.990314
 20
111.354713
 30
0.0
 10
70.159123
 20
111.422922
 30
0.0
 10
70.335857
 20
111.477717
 30
0.0
 10
70.520515
 20
111.518199
 30
0.0
 10
70.713439
 20
111.543069
 30
0.0
 10
70.914633
 20
111.551801
 30
0.0
 10
71.115828
 20
111.543069
 30
0.0
 10
71.308754
 20
111.518199
 30
0.0
 10
71.493409
 20
111.477876
 30
0.0
 10
71.670143
 20
111.423107
 30
0.0
 10
71.838952
 20
111.354898
 30
0.0
 10
71.999840
 20
111.274438
 30
0.0
 10
72.153145
 20
111.182628
 30
0.0
 10
72.298875
 20
111.080498
 30
0.0
 10
72.437022
 20
110.969215
 30
0.0
 10
72.567935
 20
110.849676
 30
0.0
 10
72.691614
 20
110.722888
 30
0.0
 10
72.808404
 20
110.589908
 30
0.0
 10
72.917958
 20
110.451769
 30
0.0
 10
73.020277
 20
110.309476
 30
0.0
 10
73.116051
 20
110.164088
 30
0.0
 10
73.205279
 20
110.016635
 30
0.0
 10
73.315176
 20
109.826823
 30
0.0
 10
73.425076
 20
109.636826
 30
0.0
 10
73.534974
 20
109.446829
 30
0.0
 10
73.644874
 20
109.256990
 30
0.0
 10
73.754771
 20
109.067178
 30
0.0
 10
73.864671
 20
108.877339
 30
0.0
 10
73.974568
 20
108.687527
 30
0.0
 10
74.084468
 20
108.497530
 30
0.0
 10
74.194366
 20
108.307533
 30
0.0
 10
74.304266
 20
108.117694
 30
0.0
 10
74.414163
 20
107.927882
 30
0.0
 10
74.524063
 20
107.738044
 30
0.0
 10
74.633960
 20
107.548232
 30
0.0
 10
74.743860
 20
107.358234
 30
0.0
 10
74.853414
 20
107.168237
 30
0.0
 10
74.963314
 20
106.978398
 30
0.0
  0
ENDSEC
  0
SECTION
  2
OBJECTS
  0
DICTIONARY
  5
C
330
0
100
AcDbDictionary
  3
ACAD_GROUP
350
D
  3
ACAD_MLINESTYLE
350
17
  0
DICTIONARY
  5
D
330
C
100
AcDbDictionary
  0
DICTIONARY
  5
1A
330
C
100
AcDbDictionary
  0
DICTIONARY
  5
17
330
C
100
AcDbDictionary
  3
STANDARD
350
18
  0
DICTIONARY
  5
19
330
C
100
AcDbDictionary
  0
ENDSEC
  0
EOF
