<?xml version="1.0" encoding="utf-8"?>
<!-- Generator: Adobe Illustrator 15.0.0, SVG Export Plug-In . SVG Version: 6.00 Build 0)  -->
<!DOCTYPE svg PUBLIC "-//W3C//DTD SVG 1.1//EN" "http://www.w3.org/Graphics/SVG/1.1/DTD/svg11.dtd">
<svg version="1.1" id="Calque_1" xmlns="http://www.w3.org/2000/svg" xmlns:xlink="http://www.w3.org/1999/xlink" x="0px" y="0px"
	 width="595.28px" height="841.89px" viewBox="0 0 595.28 841.89" enable-background="new 0 0 595.28 841.89" xml:space="preserve">
<path fill="none" stroke="#000000" stroke-width="0.25" stroke-miterlimit="10" d="M323.917,444.266h-52.768l24.111-41.737
	c0.085-0.148,0.174-0.295,0.266-0.441c0.092-0.146,0.188-0.291,0.287-0.435c0.099-0.144,0.201-0.286,0.307-0.426
	s0.215-0.278,0.328-0.414c0.113-0.135,0.229-0.268,0.349-0.398c0.12-0.129,0.243-0.256,0.371-0.379
	c0.127-0.123,0.257-0.243,0.392-0.358c0.134-0.116,0.272-0.227,0.414-0.333s0.287-0.209,0.437-0.306
	c0.149-0.097,0.302-0.188,0.458-0.275c0.157-0.086,0.317-0.167,0.481-0.241c0.165-0.074,0.334-0.143,0.506-0.204
	s0.349-0.116,0.529-0.164c0.18-0.048,0.364-0.088,0.553-0.121c0.188-0.033,0.38-0.058,0.576-0.075
	c0.196-0.017,0.396-0.025,0.602-0.025s0.405,0.009,0.602,0.025c0.196,0.017,0.389,0.042,0.576,0.075
	c0.188,0.033,0.373,0.073,0.553,0.121s0.355,0.103,0.527,0.164s0.341,0.13,0.505,0.204c0.165,0.074,0.325,0.154,0.481,0.24
	s0.31,0.178,0.459,0.274c0.148,0.097,0.294,0.198,0.436,0.305s0.279,0.218,0.413,0.333c0.134,0.116,0.265,0.235,0.392,0.358
	s0.25,0.249,0.37,0.379s0.235,0.263,0.349,0.398c0.112,0.135,0.222,0.273,0.327,0.413c0.106,0.14,0.208,0.282,0.308,0.425
	c0.099,0.144,0.194,0.289,0.286,0.435c0.093,0.146,0.181,0.293,0.267,0.441l6.247,10.79l-8.767,5.062l1.573,2.759l1.907-1.102
	L323.917,444.266z"/>
</svg>
