<?xml version="1.0" encoding="UTF-8" standalone="no"?>
<!-- Generator: Adobe Illustrator 15.0.0, SVG Export Plug-In . SVG Version: 6.00 Build 0)  -->

<svg
   xmlns:dc="http://purl.org/dc/elements/1.1/"
   xmlns:cc="http://creativecommons.org/ns#"
   xmlns:rdf="http://www.w3.org/1999/02/22-rdf-syntax-ns#"
   xmlns:svg="http://www.w3.org/2000/svg"
   xmlns="http://www.w3.org/2000/svg"
   xmlns:sodipodi="http://sodipodi.sourceforge.net/DTD/sodipodi-0.dtd"
   xmlns:inkscape="http://www.inkscape.org/namespaces/inkscape"
   version="1.1"
   id="Calque_1"
   x="0px"
   y="0px"
   width="297mm"
   height="210mm"
   viewBox="0 0 1122.5196 793.7008"
   enable-background="new 0 0 595.28 841.89"
   xml:space="preserve"
   sodipodi:docname="Lulu_PCB_path_05.svg"
   inkscape:version="0.92.1 r15371"><title
     id="title4596">Lulu_path</title><metadata
     id="metadata4567"><rdf:RDF><cc:Work
         rdf:about=""><dc:format>image/svg+xml</dc:format><dc:type
           rdf:resource="http://purl.org/dc/dcmitype/StillImage" /><dc:title>Lulu_path</dc:title><dc:date>06/03/2020</dc:date><dc:creator><cc:Agent><dc:title>Maurin Donneaud</dc:title></cc:Agent></dc:creator><dc:description>www.lulu.etextile.org</dc:description><cc:license
           rdf:resource="http://creativecommons.org/licenses/by-sa/4.0/" /></cc:Work><cc:License
         rdf:about="http://creativecommons.org/licenses/by-sa/4.0/"><cc:permits
           rdf:resource="http://creativecommons.org/ns#Reproduction" /><cc:permits
           rdf:resource="http://creativecommons.org/ns#Distribution" /><cc:requires
           rdf:resource="http://creativecommons.org/ns#Notice" /><cc:requires
           rdf:resource="http://creativecommons.org/ns#Attribution" /><cc:permits
           rdf:resource="http://creativecommons.org/ns#DerivativeWorks" /><cc:requires
           rdf:resource="http://creativecommons.org/ns#ShareAlike" /></cc:License></rdf:RDF></metadata><defs
     id="defs4565" /><sodipodi:namedview
     pagecolor="#ffffff"
     bordercolor="#666666"
     borderopacity="1"
     objecttolerance="10"
     gridtolerance="10"
     guidetolerance="10"
     inkscape:pageopacity="0"
     inkscape:pageshadow="2"
     inkscape:window-width="1918"
     inkscape:window-height="1002"
     id="namedview4563"
     showgrid="false"
     inkscape:zoom="5.6568543"
     inkscape:cx="249.58576"
     inkscape:cy="403.61099"
     inkscape:window-x="0"
     inkscape:window-y="26"
     inkscape:window-maximized="1"
     inkscape:current-layer="Calque_1"
     inkscape:lockguides="true"
     showguides="true"
     inkscape:guide-bbox="true"
     units="mm"><sodipodi:guide
       position="315.21398,428.57601"
       orientation="1,0"
       id="guide4588"
       inkscape:locked="true" /><sodipodi:guide
       position="315.21398,428.57601"
       orientation="0,1"
       id="guide4590"
       inkscape:locked="true" /><sodipodi:guide
       position="309.92698,421.85701"
       orientation="1,0"
       id="guide4594"
       inkscape:locked="true" /><sodipodi:guide
       position="330.22291,402.55163"
       orientation="0,1"
       id="guide4635"
       inkscape:locked="true" /><sodipodi:guide
       position="309.92698,423.91766"
       orientation="0,1"
       id="guide4639"
       inkscape:locked="true" /></sodipodi:namedview><path
     stroke-miterlimit="10"
     d="m 226.13582,325.38135 46.01143,25.83429 -41.45746,24.58854 c -0.14658,0.0874 -0.29615,0.17204 -0.44785,0.2543 -0.1517,0.0823 -0.3064,0.1617 -0.46322,0.2388 -0.15682,0.0771 -0.31528,0.15097 -0.47625,0.22115 -0.16097,0.0702 -0.32358,0.13714 -0.48869,0.2004 -0.16463,0.0624 -0.33089,0.12157 -0.49917,0.17618 -0.16779,0.0537 -0.33722,0.10425 -0.50905,0.14884 -0.17095,0.0451 -0.34306,0.0861 -0.51707,0.12024 -0.17364,0.0355 -0.34831,0.0648 -0.52402,0.0877 -0.17572,0.0229 -0.35258,0.0417 -0.53086,0.0529 -0.17741,0.0116 -0.35537,0.0161 -0.53399,0.0156 -0.179,-0.002 -0.35817,-0.01 -0.5374,-0.0254 -0.18011,-0.0163 -0.36125,-0.0388 -0.54109,-0.0699 -0.17984,-0.031 -0.3611,-0.0697 -0.54156,-0.11599 -0.18045,-0.0463 -0.36047,-0.10148 -0.54143,-0.16523 -0.18008,-0.0633 -0.35974,-0.13547 -0.53896,-0.21661 -0.17923,-0.0811 -0.35754,-0.17207 -0.53716,-0.27292 -0.17962,-0.10086 -0.34874,-0.20613 -0.51268,-0.31653 -0.16258,-0.11078 -0.31863,-0.22707 -0.46553,-0.3474 -0.14777,-0.12081 -0.2895,-0.24627 -0.42295,-0.37624 -0.13345,-0.12998 -0.25912,-0.26362 -0.37923,-0.40102 -0.12011,-0.13739 -0.23369,-0.2803 -0.34046,-0.42511 -0.10765,-0.14531 -0.20799,-0.2934 -0.30192,-0.44476 -0.0939,-0.15137 -0.18316,-0.30698 -0.26608,-0.46364 -0.0816,-0.15704 -0.15942,-0.31658 -0.23085,-0.4794 -0.0714,-0.16282 -0.13655,-0.32668 -0.19709,-0.49256 -0.06,-0.16675 -0.11601,-0.33465 -0.16653,-0.50408 -0.0505,-0.16943 -0.0961,-0.33951 -0.13708,-0.51162 -0.041,-0.1721 -0.0761,-0.34437 -0.10945,-0.5179 -0.0316,-0.17255 -0.0599,-0.34673 -0.0829,-0.52021 -0.0239,-0.17397 -0.0433,-0.34773 -0.0605,-0.52137 -0.0158,-0.17403 -0.0277,-0.34698 -0.0364,-0.51933 -0.01,-0.17283 -0.0144,-0.34409 -0.0169,-0.51525 l -0.16452,-12.46683 10.12271,-0.12168 -0.0208,-3.17584 -2.20234,0.0273 z"
     id="path4560"
     inkscape:connector-curvature="0"
     style="fill:none;stroke:#000000;stroke-width:0.37795275;stroke-miterlimit:10;stroke-dasharray:none" /><path
     style="fill:none;stroke:#000000;stroke-width:0.37795276;stroke-miterlimit:10;stroke-dasharray:none"
     d="m 429.93776,355.05581 c -57.98913,16.98654 -28.55066,-56.55748 -8.703,-30.952 l -8.767,5.062 1.573,2.759 1.907,-1.102 z"
     id="path4560-3"
     inkscape:connector-curvature="0"
     clip-path="none"
     sodipodi:nodetypes="cccccc" /><path
     style="opacity:1;fill:none;fill-opacity:1;stroke:#000000;stroke-width:0.37795275;stroke-linecap:butt;stroke-linejoin:miter;stroke-miterlimit:4;stroke-dasharray:none;stroke-opacity:1;paint-order:normal"
     inkscape:transform-center-x="25.994028"
     inkscape:transform-center-y="15.033999"
     d="m 289.223,376.15887 25.99108,14.99033 -9e-5,30.01797 -25.99162,15.02771 -25.99111,-14.99033 9e-5,-30.01801 z"
     id="path4615"
     inkscape:connector-curvature="0"
     sodipodi:nodetypes="ccccccc" /><path
     sodipodi:type="star"
     style="opacity:1;fill:none;fill-opacity:1;stroke:#000000;stroke-width:0.24271449;stroke-linecap:butt;stroke-linejoin:miter;stroke-miterlimit:10;stroke-dasharray:none;stroke-opacity:1;paint-order:normal"
     id="path4641"
     sodipodi:sides="6"
     sodipodi:cx="281.61984"
     sodipodi:cy="391.14917"
     sodipodi:r1="21.213203"
     sodipodi:r2="21.299902"
     sodipodi:arg1="0"
     sodipodi:arg2="-1.052524"
     inkscape:flatsided="false"
     inkscape:rounded="0.0134628"
     inkscape:randomized="0"
     d="m 302.83305,391.14917 c 0.28749,-0.002 -10.51786,-18.75167 -10.66166,-18.50272 -0.2483,0.42986 -0.19554,36.44536 0.0551,36.87389 0.14513,0.24818 10.9805,-18.48456 10.693,-18.48462 -0.49642,-1.1e-4 -31.66037,18.05334 -31.9062,18.48462 -0.14236,0.24977 21.49835,0.26711 21.35466,0.0181 -0.24813,-0.42997 -31.46484,-18.39202 -31.96126,-18.38927 -0.28749,0.002 10.51786,18.75167 10.66166,18.50272 0.2483,-0.42986 0.19553,-36.44536 -0.0551,-36.87389 -0.14512,-0.24818 -10.98049,18.48456 -10.693,18.48462 0.49643,1.1e-4 31.66038,-18.05334 31.9062,-18.48462 0.14237,-0.24977 -21.49834,-0.26711 -21.35465,-0.0181 0.24812,0.42997 31.46484,18.39202 31.96126,18.38927 z"
     transform="matrix(1.5568466,0,0,1.5575348,-203.87319,-255.24059)" /></svg>