  0
SECTION
  2
HEADER
  9
$ACADVER
  1
AC1014
  9
$ACADMAINTVER
 70
     9
  9
$DWGCODEPAGE
  3
ANSI_932
  9
$INSBASE
 10
0.0
 20
0.0
 30
0.0
  9
$EXTMIN
 10
1.000000000000000E+20
 20
1.000000000000000E+20
 30
1.000000000000000E+20
  9
$EXTMAX
 10
-1.000000000000000E+20
 20
-1.000000000000000E+20
 30
-1.000000000000000E+20
  9
$LIMMIN
 10
0.0
 20
0.0
  9
$LIMMAX
 10
12.0
 20
9.0
  9
$ORTHOMODE
 70
     0
  9
$REGENMODE
 70
     1
  9
$FILLMODE
 70
     1
  9
$QTEXTMODE
 70
     0
  9
$MIRRTEXT
 70
     1
  9
$DRAGMODE
 70
     2
  9
$LTSCALE
 40
1.0
  9
$OSMODE
 70
    37
  9
$ATTMODE
 70
     1
  9
$TEXTSIZE
 40
0.2
  9
$TRACEWID
 40
0.05
  9
$TEXTSTYLE
  7
STANDARD
  9
$CLAYER
  8
0
  9
$CELTYPE
  6
BYLAYER
  9
$CECOLOR
 62
   256
  9
$CELTSCALE
 40
1.0
  9
$DELOBJ
 70
     1
  9
$DISPSILH
 70
     0
  9
$DIMSCALE
 40
1.0
  9
$DIMASZ
 40
0.18
  9
$DIMEXO
 40
0.0625
  9
$DIMDLI
 40
0.38
  9
$DIMRND
 40
0.0
  9
$DIMDLE
 40
0.0
  9
$DIMEXE
 40
0.18
  9
$DIMTP
 40
0.0
  9
$DIMTM
 40
0.0
  9
$DIMTXT
 40
0.18
  9
$DIMCEN
 40
0.09
  9
$DIMTSZ
 40
0.0
  9
$DIMTOL
 70
     0
  9
$DIMLIM
 70
     0
  9
$DIMTIH
 70
     1
  9
$DIMTOH
 70
     1
  9
$DIMSE1
 70
     0
  9
$DIMSE2
 70
     0
  9
$DIMTAD
 70
     0
  9
$DIMZIN
 70
     0
  9
$DIMBLK
  1

  9
$DIMASO
 70
     1
  9
$DIMSHO
 70
     1
  9
$DIMPOST
  1

  9
$DIMAPOST
  1

  9
$DIMALT
 70
     0
  9
$DIMALTD
 70
     2
  9
$DIMALTF
 40
25.4
  9
$DIMLFAC
 40
1.0
  9
$DIMTOFL
 70
     0
  9
$DIMTVP
 40
0.0
  9
$DIMTIX
 70
     0
  9
$DIMSOXD
 70
     0
  9
$DIMSAH
 70
     0
  9
$DIMBLK1
  1

  9
$DIMBLK2
  1

  9
$DIMSTYLE
  2
STANDARD
  9
$DIMCLRD
 70
     0
  9
$DIMCLRE
 70
     0
  9
$DIMCLRT
 70
     0
  9
$DIMTFAC
 40
1.0
  9
$DIMGAP
 40
0.09
  9
$DIMJUST
 70
     0
  9
$DIMSD1
 70
     0
  9
$DIMSD2
 70
     0
  9
$DIMTOLJ
 70
     1
  9
$DIMTZIN
 70
     0
  9
$DIMALTZ
 70
     0
  9
$DIMALTTZ
 70
     0
  9
$DIMFIT
 70
     3
  9
$DIMUPT
 70
     0
  9
$DIMUNIT
 70
     2
  9
$DIMDEC
 70
     4
  9
$DIMTDEC
 70
     4
  9
$DIMALTU
 70
     2
  9
$DIMALTTD
 70
     2
  9
$DIMTXSTY
  7
STANDARD
  9
$DIMAUNIT
 70
     0
  9
$LUNITS
 70
     2
  9
$LUPREC
 70
     4
  9
$SKETCHINC
 40
0.1
  9
$FILLETRAD
 40
0.5
  9
$AUNITS
 70
     0
  9
$AUPREC
 70
     0
  9
$MENU
  1
.
  9
$ELEVATION
 40
0.0
  9
$PELEVATION
 40
0.0
  9
$THICKNESS
 40
0.0
  9
$LIMCHECK
 70
     0
  9
$CHAMFERA
 40
0.5
  9
$CHAMFERB
 40
0.5
  9
$CHAMFERC
 40
1.0
  9
$CHAMFERD
 40
0.0
  9
$SKPOLY
 70
     0
  9
$TDCREATE
 40
2458438.537569445
  9
$TDUPDATE
 40
2458438.537569456
  9
$TDINDWG
 40
0.0000000116
  9
$TDUSRTIMER
 40
0.0000000116
  9
$USRTIMER
 70
     1
  9
$ANGBASE
 50
0.0
  9
$ANGDIR
 70
     0
  9
$PDMODE
 70
     0
  9
$PDSIZE
 40
0.0
  9
$PLINEWID
 40
0.0
  9
$COORDS
 70
     1
  9
$SPLFRAME
 70
     0
  9
$SPLINETYPE
 70
     6
  9
$SPLINESEGS
 70
     8
  9
$ATTDIA
 70
     0
  9
$ATTREQ
 70
     1
  9
$HANDLING
 70
     1
  9
$HANDSEED
  5
5E
  9
$SURFTAB1
 70
     6
  9
$SURFTAB2
 70
     6
  9
$SURFTYPE
 70
     6
  9
$SURFU
 70
     6
  9
$SURFV
 70
     6
  9
$UCSNAME
  2

  9
$UCSORG
 10
0.0
 20
0.0
 30
0.0
  9
$UCSXDIR
 10
1.0
 20
0.0
 30
0.0
  9
$UCSYDIR
 10
0.0
 20
1.0
 30
0.0
  9
$PUCSNAME
  2

  9
$PUCSORG
 10
0.0
 20
0.0
 30
0.0
  9
$PUCSXDIR
 10
1.0
 20
0.0
 30
0.0
  9
$PUCSYDIR
 10
0.0
 20
1.0
 30
0.0
  9
$USERI1
 70
     0
  9
$USERI2
 70
     0
  9
$USERI3
 70
     0
  9
$USERI4
 70
     0
  9
$USERI5
 70
     0
  9
$USERR1
 40
0.0
  9
$USERR2
 40
0.0
  9
$USERR3
 40
0.0
  9
$USERR4
 40
0.0
  9
$USERR5
 40
0.0
  9
$WORLDVIEW
 70
     1
  9
$SHADEDGE
 70
     3
  9
$SHADEDIF
 70
    70
  9
$TILEMODE
 70
     1
  9
$MAXACTVP
 70
    64
  9
$PINSBASE
 10
0.0
 20
0.0
 30
0.0
  9
$PLIMCHECK
 70
     0
  9
$PEXTMIN
 10
1.000000000000000E+20
 20
1.000000000000000E+20
 30
1.000000000000000E+20
  9
$PEXTMAX
 10
-1.000000000000000E+20
 20
-1.000000000000000E+20
 30
-1.000000000000000E+20
  9
$PLIMMIN
 10
0.0
 20
0.0
  9
$PLIMMAX
 10
12.0
 20
9.0
  9
$UNITMODE
 70
     0
  9
$VISRETAIN
 70
     1
  9
$PLINEGEN
 70
     0
  9
$PSLTSCALE
 70
     1
  9
$TREEDEPTH
 70
  3020
  9
$PICKSTYLE
 70
     1
  9
$CMLSTYLE
  2
STANDARD
  9
$CMLJUST
 70
     0
  9
$CMLSCALE
 40
1.0
  9
$PROXYGRAPHICS
 70
     1
  9
$MEASUREMENT
 70
     0
  0
ENDSEC
  0
SECTION
  2
CLASSES
  0
CLASS
  1
ACDBDICTIONARYWDFLT
  2
AcDbDictionaryWithDefault
  3
ObjectDBX Classes
 90
        0
280
     0
281
     0
  0
CLASS
  1
VISUALSTYLE
  2
AcDbVisualStyle
  3
ObjectDBX Classes
 90
     4095
280
     0
281
     0
  0
CLASS
  1
XRECORD
  2
AcDbXrecord
  3
AutoCAD 2000
 90
        0
280
     0
281
     0
  0
CLASS
  1
LWPOLYLINE
  2
AcDbPolyline
  3
AutoCAD 2000
 90
        0
280
     0
281
     1
  0
CLASS
  1
HATCH
  2
AcDbHatch
  3
AutoCAD 2000
 90
        0
280
     0
281
     1
  0
CLASS
  1
ACDBPLACEHOLDER
  2
AcDbPlaceHolder
  3
ObjectDBX Classes
 90
        0
280
     0
281
     0
  0
CLASS
  1
LAYOUT
  2
AcDbLayout
  3
ObjectDBX Classes
 90
        0
280
     0
281
     0
  0
ENDSEC
  0
SECTION
  2
TABLES
  0
TABLE
  2
VPORT
  5
8
330
0
100
AcDbSymbolTable
 70
     1
  0
VPORT
  5
29
330
8
100
AcDbSymbolTableRecord
100
AcDbViewportTableRecord
  2
*ACTIVE
 70
     0
 10
0.0
 20
0.0
 11
1.0
 21
1.0
 12
0.0
 22
0.0
 13
0.0
 23
0.0
 14
0.5
 24
0.5
 15
0.5
 25
0.5
 16
0.0
 26
0.0
 36
1.0
 17
105.0008952513716
 27
-148.5000775824991
 37
0.0
 40
297.0001551649982
 41
0.7070763662937379
 42
50.0
 43
0.0
 44
0.0
 50
0.0
 51
0.0
 71
     0
 72
   100
 73
     1
 74
     3
 75
     0
 76
     0
 77
     0
 78
     0
  0
ENDTAB
  0
TABLE
  2
LTYPE
  5
5
330
0
100
AcDbSymbolTable
 70
     1
  0
LTYPE
  5
14
330
5
100
AcDbSymbolTableRecord
100
AcDbLinetypeTableRecord
  2
BYBLOCK
 70
     0
  3

 72
    65
 73
     0
 40
0.0
  0
LTYPE
  5
15
330
5
100
AcDbSymbolTableRecord
100
AcDbLinetypeTableRecord
  2
BYLAYER
 70
     0
  3

 72
    65
 73
     0
 40
0.0
  0
LTYPE
  5
16
330
5
100
AcDbSymbolTableRecord
100
AcDbLinetypeTableRecord
  2
CONTINUOUS
 70
     0
  3
Solid line
 72
    65
 73
     0
 40
0.0
  0
ENDTAB
  0
TABLE
  2
LAYER
  5
2
330
0
100
AcDbSymbolTable
 70
     2
  0
LAYER
  5
10
330
2
100
AcDbSymbolTableRecord
100
AcDbLayerTableRecord
  2
0
 70
     0
 62
     7
  6
CONTINUOUS
  0
LAYER
  5
3B
330
2
100
AcDbSymbolTableRecord
100
AcDbLayerTableRecord
  2
CALQUE_1
 70
     0
 62
     7
  6
CONTINUOUS
  0
ENDTAB
  0
TABLE
  2
STYLE
  5
3
330
0
100
AcDbSymbolTable
 70
     1
  0
STYLE
  5
11
330
3
100
AcDbSymbolTableRecord
100
AcDbTextStyleTableRecord
  2
STANDARD
 70
     0
 40
0.0
 41
1.0
 50
0.0
 71
     0
 42
0.2
  3
txt
  4

  0
ENDTAB
  0
TABLE
  2
VIEW
  5
6
330
0
100
AcDbSymbolTable
 70
     0
  0
ENDTAB
  0
TABLE
  2
UCS
  5
7
330
0
100
AcDbSymbolTable
 70
     0
  0
ENDTAB
  0
TABLE
  2
APPID
  5
9
330
0
100
AcDbSymbolTable
 70
     1
  0
APPID
  5
12
330
9
100
AcDbSymbolTableRecord
100
AcDbRegAppTableRecord
  2
ACAD
 70
     0
  0
ENDTAB
  0
TABLE
  2
DIMSTYLE
  5
A
330
0
100
AcDbSymbolTable
 70
     1
  0
DIMSTYLE
105
27
330
A
100
AcDbSymbolTableRecord
100
AcDbDimStyleTableRecord
  2
STANDARD
 70
     0
  3

  4

  5

  6

  7

 40
1.0
 41
0.18
 42
0.0625
 43
0.38
 44
0.18
 45
0.0
 46
0.0
 47
0.0
 48
0.0
140
0.18
141
0.09
142
0.0
143
25.4
144
1.0
145
0.0
146
1.0
147
0.09
 71
     0
 72
     0
 73
     1
 74
     1
 75
     0
 76
     0
 77
     0
 78
     0
170
     0
171
     2
172
     0
173
     0
174
     0
175
     0
176
     0
177
     0
178
     0
270
     2
271
     4
272
     4
273
     2
274
     2
340
11
275
     0
280
     0
281
     0
282
     0
283
     1
284
     0
285
     0
286
     0
287
     3
288
     0
  0
ENDTAB
  0
TABLE
  2
BLOCK_RECORD
  5
1
330
0
100
AcDbSymbolTable
 70
     1
  0
BLOCK_RECORD
  5
1F
330
1
100
AcDbSymbolTableRecord
100
AcDbBlockTableRecord
  2
*MODEL_SPACE
  0
BLOCK_RECORD
  5
1B
330
1
100
AcDbSymbolTableRecord
100
AcDbBlockTableRecord
  2
*PAPER_SPACE
  0
ENDTAB
  0
ENDSEC
  0
SECTION
  2
BLOCKS
  0
BLOCK
  5
20
330
1F
100
AcDbEntity
  8
0
100
AcDbBlockBegin
  2
*MODEL_SPACE
 70
     0
 71
     0
 10
0.0
 20
0.0
 30
0.0
  3
*MODEL_SPACE
  1

  0
ENDBLK
  5
21
330
1F
100
AcDbEntity
  8
0
100
AcDbBlockEnd
  0
BLOCK
  5
1C
330
1B
100
AcDbEntity
 67
     1
  8
0
100
AcDbBlockBegin
  2
*PAPER_SPACE
 70
     0
 71
     0
 10
0.0
 20
0.0
 30
0.0
  3
*PAPER_SPACE
  1

  0
ENDBLK
  5
1D
330
1B
100
AcDbEntity
 67
     1
  8
0
100
AcDbBlockEnd
  0
ENDSEC
  0
SECTION
  2
ENTITIES
  0
SPLINE
  5
3C
330
1F
100
AcDbEntity
  8
CALQUE_1
 62
     7
100
AcDbSpline
210
0.0
220
0.0
230
1.0
 70
    11
 71
     3
 72
   437
 73
   433
 74
     0
 42
0.0000000001
 43
0.0000000001
 40
0.0
 40
0.0
 40
0.0
 40
0.0
 40
1.0
 40
1.0
 40
1.0
 40
2.0
 40
2.0
 40
2.0
 40
3.0
 40
3.0
 40
3.0
 40
4.0
 40
4.0
 40
4.0
 40
5.0
 40
5.0
 40
5.0
 40
6.0
 40
6.0
 40
6.0
 40
7.0
 40
7.0
 40
7.0
 40
8.0
 40
8.0
 40
8.0
 40
9.0
 40
9.0
 40
9.0
 40
10.0
 40
10.0
 40
10.0
 40
11.0
 40
11.0
 40
11.0
 40
12.0
 40
12.0
 40
12.0
 40
13.0
 40
13.0
 40
13.0
 40
14.0
 40
14.0
 40
14.0
 40
15.0
 40
15.0
 40
15.0
 40
16.0
 40
16.0
 40
16.0
 40
17.0
 40
17.0
 40
17.0
 40
18.0
 40
18.0
 40
18.0
 40
19.0
 40
19.0
 40
19.0
 40
20.0
 40
20.0
 40
20.0
 40
21.0
 40
21.0
 40
21.0
 40
22.0
 40
22.0
 40
22.0
 40
23.0
 40
23.0
 40
23.0
 40
24.0
 40
24.0
 40
24.0
 40
25.0
 40
25.0
 40
25.0
 40
26.0
 40
26.0
 40
26.0
 40
27.0
 40
27.0
 40
27.0
 40
28.0
 40
28.0
 40
28.0
 40
29.0
 40
29.0
 40
29.0
 40
30.0
 40
30.0
 40
30.0
 40
31.0
 40
31.0
 40
31.0
 40
32.0
 40
32.0
 40
32.0
 40
33.0
 40
33.0
 40
33.0
 40
34.0
 40
34.0
 40
34.0
 40
35.0
 40
35.0
 40
35.0
 40
36.0
 40
36.0
 40
36.0
 40
37.0
 40
37.0
 40
37.0
 40
38.0
 40
38.0
 40
38.0
 40
39.0
 40
39.0
 40
39.0
 40
40.0
 40
40.0
 40
40.0
 40
41.0
 40
41.0
 40
41.0
 40
42.0
 40
42.0
 40
42.0
 40
43.0
 40
43.0
 40
43.0
 40
44.0
 40
44.0
 40
44.0
 40
45.0
 40
45.0
 40
45.0
 40
46.0
 40
46.0
 40
46.0
 40
47.0
 40
47.0
 40
47.0
 40
48.0
 40
48.0
 40
48.0
 40
49.0
 40
49.0
 40
49.0
 40
50.0
 40
50.0
 40
50.0
 40
51.0
 40
51.0
 40
51.0
 40
52.0
 40
52.0
 40
52.0
 40
53.0
 40
53.0
 40
53.0
 40
54.0
 40
54.0
 40
54.0
 40
55.0
 40
55.0
 40
55.0
 40
56.0
 40
56.0
 40
56.0
 40
57.0
 40
57.0
 40
57.0
 40
58.0
 40
58.0
 40
58.0
 40
59.0
 40
59.0
 40
59.0
 40
60.0
 40
60.0
 40
60.0
 40
61.0
 40
61.0
 40
61.0
 40
62.0
 40
62.0
 40
62.0
 40
63.0
 40
63.0
 40
63.0
 40
64.0
 40
64.0
 40
64.0
 40
65.0
 40
65.0
 40
65.0
 40
66.0
 40
66.0
 40
66.0
 40
67.0
 40
67.0
 40
67.0
 40
68.0
 40
68.0
 40
68.0
 40
69.0
 40
69.0
 40
69.0
 40
70.0
 40
70.0
 40
70.0
 40
71.0
 40
71.0
 40
71.0
 40
72.0
 40
72.0
 40
72.0
 40
73.0
 40
73.0
 40
73.0
 40
74.0
 40
74.0
 40
74.0
 40
75.0
 40
75.0
 40
75.0
 40
76.0
 40
76.0
 40
76.0
 40
77.0
 40
77.0
 40
77.0
 40
78.0
 40
78.0
 40
78.0
 40
79.0
 40
79.0
 40
79.0
 40
80.0
 40
80.0
 40
80.0
 40
81.0
 40
81.0
 40
81.0
 40
82.0
 40
82.0
 40
82.0
 40
83.0
 40
83.0
 40
83.0
 40
84.0
 40
84.0
 40
84.0
 40
85.0
 40
85.0
 40
85.0
 40
86.0
 40
86.0
 40
86.0
 40
87.0
 40
87.0
 40
87.0
 40
88.0
 40
88.0
 40
88.0
 40
89.0
 40
89.0
 40
89.0
 40
90.0
 40
90.0
 40
90.0
 40
91.0
 40
91.0
 40
91.0
 40
92.0
 40
92.0
 40
92.0
 40
93.0
 40
93.0
 40
93.0
 40
94.0
 40
94.0
 40
94.0
 40
95.0
 40
95.0
 40
95.0
 40
96.0
 40
96.0
 40
96.0
 40
97.0
 40
97.0
 40
97.0
 40
98.0
 40
98.0
 40
98.0
 40
99.0
 40
99.0
 40
99.0
 40
100.0
 40
100.0
 40
100.0
 40
101.0
 40
101.0
 40
101.0
 40
102.0
 40
102.0
 40
102.0
 40
103.0
 40
103.0
 40
103.0
 40
104.0
 40
104.0
 40
104.0
 40
105.0
 40
105.0
 40
105.0
 40
106.0
 40
106.0
 40
106.0
 40
107.0
 40
107.0
 40
107.0
 40
108.0
 40
108.0
 40
108.0
 40
109.0
 40
109.0
 40
109.0
 40
110.0
 40
110.0
 40
110.0
 40
111.0
 40
111.0
 40
111.0
 40
112.0
 40
112.0
 40
112.0
 40
113.0
 40
113.0
 40
113.0
 40
114.0
 40
114.0
 40
114.0
 40
115.0
 40
115.0
 40
115.0
 40
116.0
 40
116.0
 40
116.0
 40
117.0
 40
117.0
 40
117.0
 40
118.0
 40
118.0
 40
118.0
 40
119.0
 40
119.0
 40
119.0
 40
120.0
 40
120.0
 40
120.0
 40
121.0
 40
121.0
 40
121.0
 40
122.0
 40
122.0
 40
122.0
 40
123.0
 40
123.0
 40
123.0
 40
124.0
 40
124.0
 40
124.0
 40
125.0
 40
125.0
 40
125.0
 40
126.0
 40
126.0
 40
126.0
 40
127.0
 40
127.0
 40
127.0
 40
128.0
 40
128.0
 40
128.0
 40
129.0
 40
129.0
 40
129.0
 40
130.0
 40
130.0
 40
130.0
 40
131.0
 40
131.0
 40
131.0
 40
132.0
 40
132.0
 40
132.0
 40
133.0
 40
133.0
 40
133.0
 40
134.0
 40
134.0
 40
134.0
 40
135.0
 40
135.0
 40
135.0
 40
136.0
 40
136.0
 40
136.0
 40
137.0
 40
137.0
 40
137.0
 40
138.0
 40
138.0
 40
138.0
 40
139.0
 40
139.0
 40
139.0
 40
140.0
 40
140.0
 40
140.0
 40
141.0
 40
141.0
 40
141.0
 40
142.0
 40
142.0
 40
142.0
 40
143.0
 40
143.0
 40
143.0
 40
144.0
 40
144.0
 40
144.0
 40
144.0
 10
110.8470538917447
 20
-145.4551279291246
 30
0.0
 10
110.8470538917447
 20
-145.4551279291246
 30
0.0
 10
110.6537839075231
 20
-145.5667490964826
 30
0.0
 10
110.6537839075231
 20
-145.5667490964826
 30
0.0
 10
110.6537839075231
 20
-145.5667490964826
 30
0.0
 10
110.4601694135256
 20
-145.6783702638406
 30
0.0
 10
110.4601694135256
 20
-145.6783702638406
 30
0.0
 10
110.4601694135256
 20
-145.6783702638406
 30
0.0
 10
110.266899429304
 20
-145.7899914311985
 30
0.0
 10
110.266899429304
 20
-145.7899914311985
 30
0.0
 10
110.266899429304
 20
-145.7899914311985
 30
0.0
 10
110.0736294450823
 20
-145.9016125985565
 30
0.0
 10
110.0736294450823
 20
-145.9016125985565
 30
0.0
 10
110.0736294450823
 20
-145.9016125985565
 30
0.0
 10
109.8803594608607
 20
-146.0132337659144
 30
0.0
 10
109.8803594608607
 20
-146.0132337659144
 30
0.0
 10
109.8803594608607
 20
-146.0132337659144
 30
0.0
 10
109.687089476639
 20
-146.1248549332724
 30
0.0
 10
109.687089476639
 20
-146.1248549332724
 30
0.0
 10
109.687089476639
 20
-146.1248549332724
 30
0.0
 10
109.4938194924174
 20
-146.2364761006304
 30
0.0
 10
109.4938194924174
 20
-146.2364761006304
 30
0.0
 10
109.4938194924174
 20
-146.2364761006304
 30
0.0
 10
109.3005495081957
 20
-146.3479250131004
 30
0.0
 10
109.3005495081957
 20
-146.3479250131004
 30
0.0
 10
109.3005495081957
 20
-146.3479250131004
 30
0.0
 10
109.1072795239741
 20
-146.4593739255705
 30
0.0
 10
109.1072795239741
 20
-146.4593739255705
 30
0.0
 10
109.1072795239741
 20
-146.4593739255705
 30
0.0
 10
108.9140095397524
 20
-146.5709950929285
 30
0.0
 10
108.9140095397524
 20
-146.5709950929285
 30
0.0
 10
108.9140095397524
 20
-146.5709950929285
 30
0.0
 10
108.7207395555308
 20
-146.6826162602864
 30
0.0
 10
108.7207395555308
 20
-146.6826162602864
 30
0.0
 10
108.7207395555308
 20
-146.6826162602864
 30
0.0
 10
108.5274695713091
 20
-146.7942374276444
 30
0.0
 10
108.5274695713091
 20
-146.7942374276444
 30
0.0
 10
108.5274695713091
 20
-146.7942374276444
 30
0.0
 10
108.3341995870875
 20
-146.9058585950023
 30
0.0
 10
108.3341995870875
 20
-146.9058585950023
 30
0.0
 10
108.3341995870875
 20
-146.9058585950023
 30
0.0
 10
108.1409296028658
 20
-147.0174797623603
 30
0.0
 10
108.1409296028658
 20
-147.0174797623603
 30
0.0
 10
108.1409296028658
 20
-147.0174797623603
 30
0.0
 10
107.9476596186442
 20
-147.1291009297182
 30
0.0
 10
107.9476596186442
 20
-147.1291009297182
 30
0.0
 10
107.9476596186442
 20
-147.1291009297182
 30
0.0
 10
107.7543896344225
 20
-147.2407220970762
 30
0.0
 10
107.7543896344225
 20
-147.2407220970762
 30
0.0
 10
107.7543896344225
 20
-147.2407220970762
 30
0.0
 10
107.7891851217779
 20
-147.3015280725042
 30
0.0
 10
107.7891851217779
 20
-147.3015280725042
 30
0.0
 10
107.7891851217779
 20
-147.3015280725042
 30
0.0
 10
107.8239806091333
 20
-147.3623340479323
 30
0.0
 10
107.8239806091333
 20
-147.3623340479323
 30
0.0
 10
107.8239806091333
 20
-147.3623340479323
 30
0.0
 10
107.858431586713
 20
-147.4231400233603
 30
0.0
 10
107.858431586713
 20
-147.4231400233603
 30
0.0
 10
107.858431586713
 20
-147.4231400233603
 30
0.0
 10
107.8932270740684
 20
-147.4839459987883
 30
0.0
 10
107.8932270740684
 20
-147.4839459987883
 30
0.0
 10
107.8932270740684
 20
-147.4839459987883
 30
0.0
 10
107.9280225614238
 20
-147.5447519742163
 30
0.0
 10
107.9280225614238
 20
-147.5447519742163
 30
0.0
 10
107.9280225614238
 20
-147.5447519742163
 30
0.0
 10
107.9624735390034
 20
-147.6055579496443
 30
0.0
 10
107.9624735390034
 20
-147.6055579496443
 30
0.0
 10
107.9624735390034
 20
-147.6055579496443
 30
0.0
 10
107.9972690263588
 20
-147.6665361799602
 30
0.0
 10
107.9972690263588
 20
-147.6665361799602
 30
0.0
 10
107.9972690263588
 20
-147.6665361799602
 30
0.0
 10
108.0320645137142
 20
-147.7273421553883
 30
0.0
 10
108.0320645137142
 20
-147.7273421553883
 30
0.0
 10
108.0320645137142
 20
-147.7273421553883
 30
0.0
 10
108.0665154912938
 20
-147.7881481308163
 30
0.0
 10
108.0665154912938
 20
-147.7881481308163
 30
0.0
 10
108.0665154912938
 20
-147.7881481308163
 30
0.0
 10
108.1013109786493
 20
-147.8491263611322
 30
0.0
 10
108.1013109786493
 20
-147.8491263611322
 30
0.0
 10
108.1013109786493
 20
-147.8491263611322
 30
0.0
 10
108.1361064660047
 20
-147.9099323365602
 30
0.0
 10
108.1361064660047
 20
-147.9099323365602
 30
0.0
 10
108.1361064660047
 20
-147.9099323365602
 30
0.0
 10
108.1705574435843
 20
-147.9707383119883
 30
0.0
 10
108.1705574435843
 20
-147.9707383119883
 30
0.0
 10
108.1705574435843
 20
-147.9707383119883
 30
0.0
 10
108.2053529309397
 20
-148.0315442874163
 30
0.0
 10
108.2053529309397
 20
-148.0315442874163
 30
0.0
 10
108.2053529309397
 20
-148.0315442874163
 30
0.0
 10
108.2401484182951
 20
-148.0923502628443
 30
0.0
 10
108.2401484182951
 20
-148.0923502628443
 30
0.0
 10
108.2401484182951
 20
-148.0923502628443
 30
0.0
 10
108.2745993958747
 20
-148.1531562382723
 30
0.0
 10
108.2745993958747
 20
-148.1531562382723
 30
0.0
 10
108.2745993958747
 20
-148.1531562382723
 30
0.0
 10
108.3093948832301
 20
-148.2139622137004
 30
0.0
 10
108.3093948832301
 20
-148.2139622137004
 30
0.0
 10
108.3093948832301
 20
-148.2139622137004
 30
0.0
 10
108.3517695856531
 20
-148.1896742745068
 30
0.0
 10
108.3517695856531
 20
-148.1896742745068
 30
0.0
 10
108.3517695856531
 20
-148.1896742745068
 30
0.0
 10
108.3937997783002
 20
-148.1653863353131
 30
0.0
 10
108.3937997783002
 20
-148.1653863353131
 30
0.0
 10
108.3937997783002
 20
-148.1653863353131
 30
0.0
 10
108.4358299709473
 20
-148.1410983961195
 30
0.0
 10
108.4358299709473
 20
-148.1410983961195
 30
0.0
 10
108.4358299709473
 20
-148.1410983961195
 30
0.0
 10
108.4778601635945
 20
-148.1168104569259
 30
0.0
 10
108.4778601635945
 20
-148.1168104569259
 30
0.0
 10
108.4778601635945
 20
-148.1168104569259
 30
0.0
 10
108.5198903562416
 20
-148.0925225177322
 30
0.0
 10
108.5198903562416
 20
-148.0925225177322
 30
0.0
 10
108.5198903562416
 20
-148.0925225177322
 30
0.0
 10
108.5619205488887
 20
-148.0682345785386
 30
0.0
 10
108.5619205488887
 20
-148.0682345785386
 30
0.0
 10
108.5619205488887
 20
-148.0682345785386
 30
0.0
 10
108.6039507415359
 20
-148.043946639345
 30
0.0
 10
108.6039507415359
 20
-148.043946639345
 30
0.0
 10
108.6039507415359
 20
-148.043946639345
 30
0.0
 10
108.645980934183
 20
-148.0196587001513
 30
0.0
 10
108.645980934183
 20
-148.0196587001513
 30
0.0
 10
108.645980934183
 20
-148.0196587001513
 30
0.0
 10
108.6880111268301
 20
-147.9953707609577
 30
0.0
 10
108.6880111268301
 20
-147.9953707609577
 30
0.0
 10
108.6880111268301
 20
-147.9953707609577
 30
0.0
 10
108.7300413194773
 20
-147.9710828217641
 30
0.0
 10
108.7300413194773
 20
-147.9710828217641
 30
0.0
 10
108.7300413194773
 20
-147.9710828217641
 30
0.0
 10
108.7720715121244
 20
-147.9467948825704
 30
0.0
 10
108.7720715121244
 20
-147.9467948825704
 30
0.0
 10
108.7720715121244
 20
-147.9467948825704
 30
0.0
 10
108.8141017047715
 20
-147.9225069433768
 30
0.0
 10
108.8141017047715
 20
-147.9225069433768
 30
0.0
 10
108.8141017047715
 20
-147.9225069433768
 30
0.0
 10
108.8561318974186
 20
-147.8982190041832
 30
0.0
 10
108.8561318974186
 20
-147.8982190041832
 30
0.0
 10
108.8561318974186
 20
-147.8982190041832
 30
0.0
 10
108.8981620900658
 20
-147.8739310649896
 30
0.0
 10
108.8981620900658
 20
-147.8739310649896
 30
0.0
 10
108.8981620900658
 20
-147.8739310649896
 30
0.0
 10
108.9401922827129
 20
-147.8496431257959
 30
0.0
 10
108.9401922827129
 20
-147.8496431257959
 30
0.0
 10
108.9401922827129
 20
-147.8496431257959
 30
0.0
 10
108.98222247536
 20
-147.8253551866023
 30
0.0
 10
108.98222247536
 20
-147.8253551866023
 30
0.0
 10
108.98222247536
 20
-147.8253551866023
 30
0.0
 10
109.2909032344734
 20
-148.3595175939743
 30
0.0
 10
109.2909032344734
 20
-148.3595175939743
 30
0.0
 10
109.2909032344734
 20
-148.3595175939743
 30
0.0
 10
109.599239483811
 20
-148.8936800013462
 30
0.0
 10
109.599239483811
 20
-148.8936800013462
 30
0.0
 10
109.599239483811
 20
-148.8936800013462
 30
0.0
 10
109.9075757331486
 20
-149.4280146636061
 30
0.0
 10
109.9075757331486
 20
-149.4280146636061
 30
0.0
 10
109.9075757331486
 20
-149.4280146636061
 30
0.0
 10
110.2162564922619
 20
-149.9623493258659
 30
0.0
 10
110.2162564922619
 20
-149.9623493258659
 30
0.0
 10
110.2162564922619
 20
-149.9623493258659
 30
0.0
 10
110.5249372513753
 20
-150.4966839881258
 30
0.0
 10
110.5249372513753
 20
-150.4966839881258
 30
0.0
 10
110.5249372513753
 20
-150.4966839881258
 30
0.0
 10
110.8332735007129
 20
-151.0310186503856
 30
0.0
 10
110.8332735007129
 20
-151.0310186503856
 30
0.0
 10
110.8332735007129
 20
-151.0310186503856
 30
0.0
 10
111.1416097500504
 20
-151.5653533126455
 30
0.0
 10
111.1416097500504
 20
-151.5653533126455
 30
0.0
 10
111.1416097500504
 20
-151.5653533126455
 30
0.0
 10
111.4502905091638
 20
-152.0996879749054
 30
0.0
 10
111.4502905091638
 20
-152.0996879749054
 30
0.0
 10
111.4502905091638
 20
-152.0996879749054
 30
0.0
 10
111.7589712682772
 20
-152.6340226371652
 30
0.0
 10
111.7589712682772
 20
-152.6340226371652
 30
0.0
 10
111.7589712682772
 20
-152.6340226371652
 30
0.0
 10
112.0673075176148
 20
-153.1683572994251
 30
0.0
 10
112.0673075176148
 20
-153.1683572994251
 30
0.0
 10
112.0673075176148
 20
-153.1683572994251
 30
0.0
 10
112.3756437669523
 20
-153.7026919616849
 30
0.0
 10
112.3756437669523
 20
-153.7026919616849
 30
0.0
 10
112.3756437669523
 20
-153.7026919616849
 30
0.0
 10
112.6843245260657
 20
-154.2370266239448
 30
0.0
 10
112.6843245260657
 20
-154.2370266239448
 30
0.0
 10
112.6843245260657
 20
-154.2370266239448
 30
0.0
 10
112.9926607754033
 20
-154.7713612862046
 30
0.0
 10
112.9926607754033
 20
-154.7713612862046
 30
0.0
 10
112.9926607754033
 20
-154.7713612862046
 30
0.0
 10
113.3009970247408
 20
-155.3056959484645
 30
0.0
 10
113.3009970247408
 20
-155.3056959484645
 30
0.0
 10
113.3009970247408
 20
-155.3056959484645
 30
0.0
 10
113.6096777838542
 20
-155.8400306107244
 30
0.0
 10
113.6096777838542
 20
-155.8400306107244
 30
0.0
 10
113.6096777838542
 20
-155.8400306107244
 30
0.0
 10
113.9180140331918
 20
-156.3743652729842
 30
0.0
 10
113.9180140331918
 20
-156.3743652729842
 30
0.0
 10
113.9180140331918
 20
-156.3743652729842
 30
0.0
 10
112.8259180439179
 20
-156.3743652729842
 30
0.0
 10
112.8259180439179
 20
-156.3743652729842
 30
0.0
 10
112.8259180439179
 20
-156.3743652729842
 30
0.0
 10
111.7338220546441
 20
-156.3743652729842
 30
0.0
 10
111.7338220546441
 20
-156.3743652729842
 30
0.0
 10
111.7338220546441
 20
-156.3743652729842
 30
0.0
 10
110.6417260653702
 20
-156.3743652729842
 30
0.0
 10
110.6417260653702
 20
-156.3743652729842
 30
0.0
 10
110.6417260653702
 20
-156.3743652729842
 30
0.0
 10
109.5496300760963
 20
-156.3743652729842
 30
0.0
 10
109.5496300760963
 20
-156.3743652729842
 30
0.0
 10
109.5496300760963
 20
-156.3743652729842
 30
0.0
 10
108.4575340868225
 20
-156.3743652729842
 30
0.0
 10
108.4575340868225
 20
-156.3743652729842
 30
0.0
 10
108.4575340868225
 20
-156.3743652729842
 30
0.0
 10
107.3654380975486
 20
-156.3743652729842
 30
0.0
 10
107.3654380975486
 20
-156.3743652729842
 30
0.0
 10
107.3654380975486
 20
-156.3743652729842
 30
0.0
 10
106.2733421082748
 20
-156.3743652729842
 30
0.0
 10
106.2733421082748
 20
-156.3743652729842
 30
0.0
 10
106.2733421082748
 20
-156.3743652729842
 30
0.0
 10
105.1812461190009
 20
-156.3743652729842
 30
0.0
 10
105.1812461190009
 20
-156.3743652729842
 30
0.0
 10
105.1812461190009
 20
-156.3743652729842
 30
0.0
 10
104.0891501297271
 20
-156.3743652729842
 30
0.0
 10
104.0891501297271
 20
-156.3743652729842
 30
0.0
 10
104.0891501297271
 20
-156.3743652729842
 30
0.0
 10
102.9970541404532
 20
-156.3743652729842
 30
0.0
 10
102.9970541404532
 20
-156.3743652729842
 30
0.0
 10
102.9970541404532
 20
-156.3743652729842
 30
0.0
 10
101.9049581511794
 20
-156.3743652729842
 30
0.0
 10
101.9049581511794
 20
-156.3743652729842
 30
0.0
 10
101.9049581511794
 20
-156.3743652729842
 30
0.0
 10
100.8128621619055
 20
-156.3743652729842
 30
0.0
 10
100.8128621619055
 20
-156.3743652729842
 30
0.0
 10
100.8128621619055
 20
-156.3743652729842
 30
0.0
 10
99.72076617263164
 20
-156.3743652729842
 30
0.0
 10
99.72076617263164
 20
-156.3743652729842
 30
0.0
 10
99.72076617263164
 20
-156.3743652729842
 30
0.0
 10
98.62867018335778
 20
-156.3743652729842
 30
0.0
 10
98.62867018335778
 20
-156.3743652729842
 30
0.0
 10
98.62867018335778
 20
-156.3743652729842
 30
0.0
 10
97.53657419408394
 20
-156.3743652729842
 30
0.0
 10
97.53657419408394
 20
-156.3743652729842
 30
0.0
 10
97.53657419408394
 20
-156.3743652729842
 30
0.0
 10
96.44430594992218
 20
-156.3743652729842
 30
0.0
 10
96.44430594992218
 20
-156.3743652729842
 30
0.0
 10
96.44430594992218
 20
-156.3743652729842
 30
0.0
 10
96.94815149702409
 20
-155.5020665206683
 30
0.0
 10
96.94815149702409
 20
-155.5020665206683
 30
0.0
 10
96.94815149702409
 20
-155.5020665206683
 30
0.0
 10
97.45216929901387
 20
-154.6297677683524
 30
0.0
 10
97.45216929901387
 20
-154.6297677683524
 30
0.0
 10
97.45216929901387
 20
-154.6297677683524
 30
0.0
 10
97.95601484611578
 20
-153.7574690160365
 30
0.0
 10
97.95601484611578
 20
-153.7574690160365
 30
0.0
 10
97.95601484611578
 20
-153.7574690160365
 30
0.0
 10
98.45986039321767
 20
-152.8851702637206
 30
0.0
 10
98.45986039321767
 20
-152.8851702637206
 30
0.0
 10
98.45986039321767
 20
-152.8851702637206
 30
0.0
 10
98.96370594031957
 20
-152.0128715114047
 30
0.0
 10
98.96370594031957
 20
-152.0128715114047
 30
0.0
 10
98.96370594031957
 20
-152.0128715114047
 30
0.0
 10
99.46755148742146
 20
-151.1405727590888
 30
0.0
 10
99.46755148742146
 20
-151.1405727590888
 30
0.0
 10
99.46755148742146
 20
-151.1405727590888
 30
0.0
 10
99.97156928941126
 20
-150.2682740067729
 30
0.0
 10
99.97156928941126
 20
-150.2682740067729
 30
0.0
 10
99.97156928941126
 20
-150.2682740067729
 30
0.0
 10
100.4754148365132
 20
-149.3963197642328
 30
0.0
 10
100.4754148365132
 20
-149.3963197642328
 30
0.0
 10
100.4754148365132
 20
-149.3963197642328
 30
0.0
 10
100.9792603836151
 20
-148.5240210119169
 30
0.0
 10
100.9792603836151
 20
-148.5240210119169
 30
0.0
 10
100.9792603836151
 20
-148.5240210119169
 30
0.0
 10
101.4832781856048
 20
-147.651722259601
 30
0.0
 10
101.4832781856048
 20
-147.651722259601
 30
0.0
 10
101.4832781856048
 20
-147.651722259601
 30
0.0
 10
101.9871237327067
 20
-146.7794235072851
 30
0.0
 10
101.9871237327067
 20
-146.7794235072851
 30
0.0
 10
101.9871237327067
 20
-146.7794235072851
 30
0.0
 10
102.4909692798086
 20
-145.9072970098571
 30
0.0
 10
102.4909692798086
 20
-145.9072970098571
 30
0.0
 10
102.4909692798086
 20
-145.9072970098571
 30
0.0
 10
102.9948148269105
 20
-145.0351705124291
 30
0.0
 10
102.9948148269105
 20
-145.0351705124291
 30
0.0
 10
102.9948148269105
 20
-145.0351705124291
 30
0.0
 10
103.4986603740124
 20
-144.1628717601132
 30
0.0
 10
103.4986603740124
 20
-144.1628717601132
 30
0.0
 10
103.4986603740124
 20
-144.1628717601132
 30
0.0
 10
104.0026781760022
 20
-143.2905730077973
 30
0.0
 10
104.0026781760022
 20
-143.2905730077973
 30
0.0
 10
104.0026781760022
 20
-143.2905730077973
 30
0.0
 10
104.5065237231041
 20
-142.4182742554814
 30
0.0
 10
104.5065237231041
 20
-142.4182742554814
 30
0.0
 10
104.5351180344952
 20
-142.3688371026547
 30
0.0
 10
104.5649181301016
 20
-142.3195722047158
 30
0.0
 10
104.5955795001474
 20
-142.2706518165528
 30
0.0
 10
104.6265853799691
 20
-142.2217314283897
 30
0.0
 10
104.6584525342302
 20
-142.1733278048903
 30
0.0
 10
104.6915254727067
 20
-142.1252686911668
 30
0.0
 10
104.7245984111831
 20
-142.0772095774432
 30
0.0
 10
104.7588771338748
 20
-142.0296672283833
 30
0.0
 10
104.7941893858939
 20
-141.9828138988751
 30
0.0
 10
104.829501637913
 20
-141.9361328242547
 30
0.0
 10
104.8660196741474
 20
-141.889968514298
 30
0.0
 10
104.9037434945971
 20
-141.8446654787808
 30
0.0
 10
104.9414673150468
 20
-141.7993624432636
 30
0.0
 10
104.9802246648239
 20
-141.7549206821859
 30
0.0
 10
105.0203600537041
 20
-141.7115124504356
 30
0.0
 10
105.0604954425844
 20
-141.6681042186853
 30
0.0
 10
105.101664360792
 20
-141.6257295162623
 30
0.0
 10
105.1442113181028
 20
-141.5845605980547
 30
0.0
 10
105.1867582754137
 20
-141.5435639347349
 30
0.0
 10
105.2303387620519
 20
-141.5036008007426
 30
0.0
 10
105.2752972877933
 20
-141.4650157058534
 30
0.0
 10
105.3200835586468
 20
-141.4264306109642
 30
0.0
 10
105.3662478686035
 20
-141.3892235551783
 30
0.0
 10
105.4136179627754
 20
-141.3535667933834
 30
0.0
 10
105.4609880569474
 20
-141.3179100315885
 30
0.0
 10
105.5095639353347
 20
-141.2836313088967
 30
0.0
 10
105.5595178528251
 20
-141.2512473899719
 30
0.0
 10
105.6094717703156
 20
-141.2188634710471
 30
0.0
 10
105.6604592171334
 20
-141.1882021010012
 30
0.0
 10
105.7128247030544
 20
-141.1594355347222
 30
0.0
 10
105.7651901889754
 20
-141.1306689684432
 30
0.0
 10
105.8189337139996
 20
-141.1037972059311
 30
0.0
 10
105.874055278127
 20
-141.0788202471859
 30
0.0
 10
105.9291768422544
 20
-141.0540155433286
 30
0.0
 10
105.9853319357092
 20
-141.031277898126
 30
0.0
 10
106.0428650682671
 20
-141.0106073115783
 30
0.0
 10
106.1003982008251
 20
-140.9899367250305
 30
0.0
 10
106.1593093724862
 20
-140.9716777069133
 30
0.0
 10
106.2195985832506
 20
-140.9558302572267
 30
0.0
 10
106.2798877940149
 20
-140.9398105526522
 30
0.0
 10
106.3412105341066
 20
-140.9262024165082
 30
0.0
 10
106.4042558230773
 20
-140.9153503585706
 30
0.0
 10
106.467301112048
 20
-140.9044983006331
 30
0.0
 10
106.5313799303461
 20
-140.896057811126
 30
0.0
 10
106.5971812975232
 20
-140.8903733998254
 30
0.0
 10
106.6629826647002
 20
-140.8846889885248
 30
0.0
 10
106.7298175612047
 20
-140.8817606554305
 30
0.0
 10
106.7983750065881
 20
-140.8817606554305
 30
0.0
 10
106.8669324519716
 20
-140.8817606554305
 30
0.0
 10
106.933767348476
 20
-140.8846889885248
 30
0.0
 10
106.9995687156531
 20
-140.8903733998254
 30
0.0
 10
107.0653700828302
 20
-140.896057811126
 30
0.0
 10
107.1294489011283
 20
-140.9044983006331
 30
0.0
 10
107.192494190099
 20
-140.9153503585706
 30
0.0
 10
107.2555394790697
 20
-140.9262024165082
 30
0.0
 10
107.3168622191614
 20
-140.9398105526522
 30
0.0
 10
107.3771514299257
 20
-140.9556580023388
 30
0.0
 10
107.43744064069
 20
-140.9715054520254
 30
0.0
 10
107.4963518123512
 20
-140.9899367250305
 30
0.0
 10
107.5538849449091
 20
-141.0104350566904
 30
0.0
 10
107.6114180774671
 20
-141.0309333883503
 30
0.0
 10
107.6675731709219
 20
-141.0538432884407
 30
0.0
 10
107.7226947350493
 20
-141.078647992298
 30
0.0
 10
107.7774717894008
 20
-141.1034526961554
 30
0.0
 10
107.8312153144251
 20
-141.1303244586674
 30
0.0
 10
107.8835808003461
 20
-141.1590910249464
 30
0.0
 10
107.9359462862671
 20
-141.1878575912254
 30
0.0
 10
107.9869337330849
 20
-141.2185189612713
 30
0.0
 10
108.0368876505754
 20
-141.2509028801961
 30
0.0
 10
108.08649705829
 20
-141.283286799121
 30
0.0
 10
108.1354174464531
 20
-141.3173932669248
 30
0.0
 10
108.1826152857371
 20
-141.3530500287197
 30
0.0
 10
108.2298131250212
 20
-141.3887067905146
 30
0.0
 10
108.2759774349779
 20
-141.4259138463006
 30
0.0
 10
108.3207637058314
 20
-141.4643266863018
 30
0.0
 10
108.3655499766849
 20
-141.502911781191
 30
0.0
 10
108.409302718211
 20
-141.5428749151833
 30
0.0
 10
108.451677420634
 20
-141.5838715785031
 30
0.0
 10
108.4940521230569
 20
-141.6250404967107
 30
0.0
 10
108.5353932961524
 20
-141.6674151991337
 30
0.0
 10
108.5753564301448
 20
-141.7106511759961
 30
0.0
 10
108.6156640739129
 20
-141.7540594077464
 30
0.0
 10
108.6542491688021
 20
-141.7985011688241
 30
0.0
 10
108.6921452441397
 20
-141.8436319494534
 30
0.0
 10
108.7296968097015
 20
-141.8887627300827
 30
0.0
 10
108.7662148459358
 20
-141.9349270400394
 30
0.0
 10
108.8016993528429
 20
-141.9817803695477
 30
0.0
 10
108.8368393499741
 20
-142.0284614441681
 30
0.0
 10
108.8712903275537
 20
-142.0760037932279
 30
0.0
 10
108.9040187562543
 20
-142.1240629069515
 30
0.0
 10
108.9370916947308
 20
-142.1719497657872
 30
0.0
 10
108.9691311038798
 20
-142.2205256441744
 30
0.0
 10
108.9997924739257
 20
-142.2694460323375
 30
0.0
 10
109.0307983537473
 20
-142.3181941656126
 30
0.0
 10
109.0604261944658
 20
-142.3674590635515
 30
0.0
 10
109.0890205058569
 20
-142.4168962163782
 30
0.0
 10
109.0890205058569
 20
-142.4168962163782
 30
0.0
 10
109.1989191243358
 20
-142.6067211028419
 30
0.0
 10
109.1989191243358
 20
-142.6067211028419
 30
0.0
 10
109.1989191243358
 20
-142.6067211028419
 30
0.0
 10
109.3088177428148
 20
-142.7967182441935
 30
0.0
 10
109.3088177428148
 20
-142.7967182441935
 30
0.0
 10
109.3088177428148
 20
-142.7967182441935
 30
0.0
 10
109.4187163612938
 20
-142.9867153855451
 30
0.0
 10
109.4187163612938
 20
-142.9867153855451
 30
0.0
 10
109.4187163612938
 20
-142.9867153855451
 30
0.0
 10
109.5286149797728
 20
-143.1765402720088
 30
0.0
 10
109.5286149797728
 20
-143.1765402720088
 30
0.0
 10
109.5286149797728
 20
-143.1765402720088
 30
0.0
 10
109.6385135982517
 20
-143.3663651584725
 30
0.0
 10
109.6385135982517
 20
-143.3663651584725
 30
0.0
 10
109.6385135982517
 20
-143.3663651584725
 30
0.0
 10
109.7484122167307
 20
-143.5561900449362
 30
0.0
 10
109.7484122167307
 20
-143.5561900449362
 30
0.0
 10
109.7484122167307
 20
-143.5561900449362
 30
0.0
 10
109.8583108352097
 20
-143.7460149313999
 30
0.0
 10
109.8583108352097
 20
-143.7460149313999
 30
0.0
 10
109.8583108352097
 20
-143.7460149313999
 30
0.0
 10
109.9682094536887
 20
-143.9360120727515
 30
0.0
 10
109.9682094536887
 20
-143.9360120727515
 30
0.0
 10
109.9682094536887
 20
-143.9360120727515
 30
0.0
 10
110.0781080721677
 20
-144.126009214103
 30
0.0
 10
110.0781080721677
 20
-144.126009214103
 30
0.0
 10
110.0781080721677
 20
-144.126009214103
 30
0.0
 10
110.1880066906466
 20
-144.3158341005667
 30
0.0
 10
110.1880066906466
 20
-144.3158341005667
 30
0.0
 10
110.1880066906466
 20
-144.3158341005667
 30
0.0
 10
110.2979053091256
 20
-144.5056589870304
 30
0.0
 10
110.2979053091256
 20
-144.5056589870304
 30
0.0
 10
110.2979053091256
 20
-144.5056589870304
 30
0.0
 10
110.4078039276046
 20
-144.6954838734941
 30
0.0
 10
110.4078039276046
 20
-144.6954838734941
 30
0.0
 10
110.4078039276046
 20
-144.6954838734941
 30
0.0
 10
110.5177025460836
 20
-144.8853087599578
 30
0.0
 10
110.5177025460836
 20
-144.8853087599578
 30
0.0
 10
110.5177025460836
 20
-144.8853087599578
 30
0.0
 10
110.6276011645625
 20
-145.0753059013094
 30
0.0
 10
110.6276011645625
 20
-145.0753059013094
 30
0.0
 10
110.6276011645625
 20
-145.0753059013094
 30
0.0
 10
110.7371552732657
 20
-145.265303042661
 30
0.0
 10
110.7371552732657
 20
-145.265303042661
 30
0.0
 10
110.7371552732657
 20
-145.265303042661
 30
0.0
 10
110.8470538917447
 20
-145.4551279291246
 30
0.0
 10
110.8470538917447
 20
-145.4551279291246
 30
0.0
  0
ENDSEC
  0
SECTION
  2
OBJECTS
  0
DICTIONARY
  5
C
330
0
100
AcDbDictionary
  3
ACAD_GROUP
350
D
  3
ACAD_LAYOUT
350
1A
  3
ACAD_MLINESTYLE
350
17
  3
ACAD_PLOTSETTINGS
350
19
  3
ACAD_TABLESTYLE
350
5D
  3
ACAD_VISUALSTYLE
350
2A
  3
ACDBHEADERROUNDTRIPXREC
350
3D
  0
DICTIONARY
  5
D
102
{ACAD_REACTORS
330
C
102
}
330
C
100
AcDbDictionary
  0
DICTIONARY
  5
1A
102
{ACAD_REACTORS
330
C
102
}
330
C
100
AcDbDictionary
  0
DICTIONARY
  5
17
102
{ACAD_REACTORS
330
C
102
}
330
C
100
AcDbDictionary
  3
STANDARD
350
18
  0
DICTIONARY
  5
19
102
{ACAD_REACTORS
330
C
102
}
330
C
100
AcDbDictionary
  0
DICTIONARY
  5
5D
102
{ACAD_REACTORS
330
C
102
}
330
C
100
AcDbDictionary
  0
DICTIONARY
  5
2A
102
{ACAD_REACTORS
330
C
102
}
330
C
100
AcDbDictionary
  3
2DWIREFRAME
350
2F
  3
3DWIREFRAME
350
30
  3
3D_HIDDEN
350
31
  3
BASIC
350
32
  3
BRIGHTEN
350
36
  3
COLORCHANGE
350
3A
  3
CONCEPTUAL
350
34
  3
DIM
350
35
  3
FACEPATTERN
350
39
  3
FLAT
350
2B
  3
FLATWITHEDGES
350
2C
  3
GOURAUD
350
2D
  3
GOURAUDWITHEDGES
350
2E
  3
LINEPATTERN
350
38
  3
REALISTIC
350
33
  3
THICKEN
350
37
  0
DICTIONARY
  5
3D
102
{ACAD_REACTORS
330
C
102
}
330
C
100
AcDbDictionary
  3
CEPSNTYPE
350
46
  3
DIMSTYLEDATA
350
5C
  3
FINGERPRINTGUID
350
47
  3
HYPERLINKBASE
350
40
  3
INSUNITS
350
45
  3
LAYOUTDICT
350
42
  3
LWETCUNION
350
44
  3
PLOTSETDICT
350
43
  3
PSVPSCALE
350
49
  3
PUCSBASE
350
4C
  3
PUCSORGBACK
350
52
  3
PUCSORGBOTTOM
350
4E
  3
PUCSORGFRONT
350
51
  3
PUCSORGLEFT
350
4F
  3
PUCSORGRIGHT
350
50
  3
PUCSORGTOP
350
4D
  3
PUCSORTHOREF
350
4A
  3
PUCSORTHOVIEW
350
4B
  3
STYLESHEET
350
41
  3
TSTACKALIGN
350
3E
  3
TSTACKSIZE
350
3F
  3
UCSBASE
350
55
  3
UCSORGBACK
350
5B
  3
UCSORGBOTTOM
350
57
  3
UCSORGFRONT
350
5A
  3
UCSORGLEFT
350
58
  3
UCSORGRIGHT
350
59
  3
UCSORGTOP
350
56
  3
UCSORTHOREF
350
53
  3
UCSORTHOVIEW
350
54
  3
VERSIONGUID
350
48
  0
MLINESTYLE
  5
18
102
{ACAD_REACTORS
330
17
102
}
330
17
100
AcDbMlineStyle
  2
Standard
 70
     0
  3

 62
   256
 51
90.0
 52
90.0
 71
     2
 49
0.5
 62
   256
  6
BYLAYER
 49
-0.5
 62
   256
  6
BYLAYER
  0
VISUALSTYLE
  5
2F
102
{ACAD_REACTORS
330
2A
102
}
330
2A
100
AcDbVisualStyle
  2
2dWireframe
 70
     4
 71
     0
 72
     2
 73
     0
 90
        0
 40
-0.6
 41
-30.0
 62
     5
 63
     7
 74
     1
 91
        4
 64
     7
 65
   257
 75
     1
175
     1
 42
1.0
 92
        0
 66
   257
 43
1.0
 76
     1
 77
     6
 78
     2
 67
     7
 79
     5
170
     0
171
     0
290
     0
174
     0
 93
        1
 44
0.0
173
     0
291
     0
 45
0.0
1001
ACAD
1000
AcDbSavedByObjectVersion
1070
     0
  0
VISUALSTYLE
  5
30
102
{ACAD_REACTORS
330
2A
102
}
330
2A
100
AcDbVisualStyle
  2
3dWireframe
 70
     5
 71
     0
 72
     2
 73
     0
 90
        0
 40
-0.6
 41
-30.0
 62
     5
 63
     7
 74
     1
 91
        4
 64
     7
 65
   257
 75
     1
175
     1
 42
1.0
 92
        0
 66
   257
 43
1.0
 76
     1
 77
     6
 78
     2
 67
     7
 79
     5
170
     0
171
     0
290
     0
174
     0
 93
        1
 44
0.0
173
     0
291
     0
 45
0.0
1001
ACAD
1000
AcDbSavedByObjectVersion
1070
     0
  0
VISUALSTYLE
  5
31
102
{ACAD_REACTORS
330
2A
102
}
330
2A
100
AcDbVisualStyle
  2
3D Hidden
 70
     6
 71
     1
 72
     2
 73
     2
 90
        0
 40
-0.6
 41
-30.0
 62
     5
 63
     7
 74
     2
 91
        2
 64
     7
 65
   257
 75
     2
175
     1
 42
40.0
 92
        0
 66
   257
 43
1.0
 76
     1
 77
     6
 78
     2
 67
     7
 79
     3
170
     0
171
     0
290
     0
174
     0
 93
        1
 44
0.0
173
     0
291
     0
 45
0.0
1001
ACAD
1000
AcDbSavedByObjectVersion
1070
     0
  0
VISUALSTYLE
  5
32
102
{ACAD_REACTORS
330
2A
102
}
330
2A
100
AcDbVisualStyle
  2
Basic
 70
     7
 71
     1
 72
     0
 73
     1
 90
        0
 40
-0.6
 41
-30.0
 62
     5
 63
     7
 74
     0
 91
        4
 64
     7
 65
   257
 75
     1
175
     1
 42
1.0
 92
        8
 66
     7
 43
1.0
 76
     1
 77
     6
 78
     2
 67
     7
 79
     5
170
     0
171
     0
290
     0
174
     0
 93
        1
 44
0.0
173
     0
291
     1
 45
0.0
1001
ACAD
1000
AcDbSavedByObjectVersion
1070
     0
  0
VISUALSTYLE
  5
36
102
{ACAD_REACTORS
330
2A
102
}
330
2A
100
AcDbVisualStyle
  2
Brighten
 70
    12
 71
     2
 72
     2
 73
     0
 90
        0
 40
-0.6
 41
-30.0
 62
     5
 63
     7
 74
     1
 91
        4
 64
     7
 65
   257
 75
     1
175
     1
 42
1.0
 92
        8
 66
     7
 43
1.0
 76
     1
 77
     6
 78
     2
 67
     7
 79
     5
170
     0
171
     0
290
     0
174
     0
 93
        1
 44
50.0
173
     0
291
     1
 45
0.0
1001
ACAD
1000
AcDbSavedByObjectVersion
1070
     0
  0
VISUALSTYLE
  5
3A
102
{ACAD_REACTORS
330
2A
102
}
330
2A
100
AcDbVisualStyle
  2
ColorChange
 70
    16
 71
     2
 72
     2
 73
     3
 90
        0
 40
-0.6
 41
-30.0
 62
     5
 63
     8
 74
     1
 91
        4
 64
     7
 65
   257
 75
     1
175
     1
 42
1.0
 92
        8
 66
     8
 43
1.0
 76
     1
 77
     6
 78
     2
 67
     7
 79
     5
170
     0
171
     0
290
     0
174
     0
 93
        1
 44
0.0
173
     0
291
     1
 45
0.0
1001
ACAD
1000
AcDbSavedByObjectVersion
1070
     0
  0
VISUALSTYLE
  5
34
102
{ACAD_REACTORS
330
2A
102
}
330
2A
100
AcDbVisualStyle
  2
Conceptual
 70
     9
 71
     3
 72
     2
 73
     0
 90
        0
 40
-0.6
 41
-30.0
 62
     5
 63
     7
 74
     2
 91
        2
 64
     7
 65
   257
 75
     1
175
     1
 42
40.0
 92
        8
 66
     7
 43
1.0
 76
     1
 77
     6
 78
     2
 67
     7
 79
     3
170
     0
171
     0
290
     0
174
     0
 93
        1
 44
0.0
173
     0
291
     0
 45
0.0
1001
ACAD
1000
AcDbSavedByObjectVersion
1070
     0
  0
VISUALSTYLE
  5
35
102
{ACAD_REACTORS
330
2A
102
}
330
2A
100
AcDbVisualStyle
  2
Dim
 70
    11
 71
     2
 72
     2
 73
     0
 90
        0
 40
-0.6
 41
-30.0
 62
     5
 63
     7
 74
     1
 91
        4
 64
     7
 65
   257
 75
     1
175
     1
 42
1.0
 92
        8
 66
     7
 43
1.0
 76
     1
 77
     6
 78
     2
 67
     7
 79
     5
170
     0
171
     0
290
     0
174
     0
 93
        1
 44
-50.0
173
     0
291
     1
 45
0.0
1001
ACAD
1000
AcDbSavedByObjectVersion
1070
     0
  0
VISUALSTYLE
  5
39
102
{ACAD_REACTORS
330
2A
102
}
330
2A
100
AcDbVisualStyle
  2
Facepattern
 70
    15
 71
     2
 72
     2
 73
     0
 90
        0
 40
-0.6
 41
-30.0
 62
     5
 63
     7
 74
     1
 91
        4
 64
     7
 65
   257
 75
     1
175
     1
 42
1.0
 92
        8
 66
     7
 43
1.0
 76
     1
 77
     6
 78
     2
 67
     7
 79
     5
170
     0
171
     0
290
     0
174
     0
 93
        1
 44
0.0
173
     0
291
     1
 45
0.0
1001
ACAD
1000
AcDbSavedByObjectVersion
1070
     0
  0
VISUALSTYLE
  5
2B
102
{ACAD_REACTORS
330
2A
102
}
330
2A
100
AcDbVisualStyle
  2
Flat
 70
     0
 71
     2
 72
     1
 73
     1
 90
        2
 40
-0.6
 41
30.0
 62
     5
 63
     7
 74
     0
 91
        4
 64
     7
 65
   257
 75
     1
175
     1
 42
1.0
 92
        8
 66
     7
 43
1.0
 76
     1
 77
     6
 78
     2
 67
     7
 79
     5
170
     0
171
     0
290
     0
174
     0
 93
       13
 44
0.0
173
     0
291
     1
 45
0.0
1001
ACAD
1000
AcDbSavedByObjectVersion
1070
     0
  0
VISUALSTYLE
  5
2C
102
{ACAD_REACTORS
330
2A
102
}
330
2A
100
AcDbVisualStyle
  2
FlatWithEdges
 70
     1
 71
     2
 72
     1
 73
     1
 90
        2
 40
-0.6
 41
30.0
 62
     5
 63
     7
 74
     1
 91
        4
 64
     7
 65
   257
 75
     1
175
     1
 42
1.0
 92
        0
 66
   257
 43
1.0
 76
     1
 77
     6
 78
     2
 67
     7
 79
     5
170
     0
171
     0
290
     0
174
     0
 93
       13
 44
0.0
173
     0
291
     1
 45
0.0
1001
ACAD
1000
AcDbSavedByObjectVersion
1070
     0
  0
VISUALSTYLE
  5
2D
102
{ACAD_REACTORS
330
2A
102
}
330
2A
100
AcDbVisualStyle
  2
Gouraud
 70
     2
 71
     2
 72
     2
 73
     1
 90
        2
 40
-0.6
 41
30.0
 62
     5
 63
     7
 74
     0
 91
        4
 64
     7
 65
   257
 75
     1
175
     1
 42
1.0
 92
        0
 66
     7
 43
1.0
 76
     1
 77
     6
 78
     2
 67
     7
 79
     5
170
     0
171
     0
290
     0
174
     0
 93
       13
 44
0.0
173
     0
291
     1
 45
0.0
1001
ACAD
1000
AcDbSavedByObjectVersion
1070
     0
  0
VISUALSTYLE
  5
2E
102
{ACAD_REACTORS
330
2A
102
}
330
2A
100
AcDbVisualStyle
  2
GouraudWithEdges
 70
     3
 71
     2
 72
     2
 73
     1
 90
        2
 40
-0.6
 41
30.0
 62
     5
 63
     7
 74
     1
 91
        4
 64
     7
 65
   257
 75
     1
175
     1
 42
1.0
 92
        0
 66
   257
 43
1.0
 76
     1
 77
     6
 78
     2
 67
     7
 79
     5
170
     0
171
     0
290
     0
174
     0
 93
       13
 44
0.0
173
     0
291
     1
 45
0.0
1001
ACAD
1000
AcDbSavedByObjectVersion
1070
     0
  0
VISUALSTYLE
  5
38
102
{ACAD_REACTORS
330
2A
102
}
330
2A
100
AcDbVisualStyle
  2
Linepattern
 70
    14
 71
     2
 72
     2
 73
     0
 90
        0
 40
-0.6
 41
-30.0
 62
     5
 63
     7
 74
     1
 91
        4
 64
     7
 65
   257
 75
     7
175
     7
 42
1.0
 92
        8
 66
     7
 43
1.0
 76
     1
 77
     6
 78
     2
 67
     7
 79
     5
170
     0
171
     0
290
     0
174
     0
 93
        1
 44
0.0
173
     0
291
     1
 45
0.0
1001
ACAD
1000
AcDbSavedByObjectVersion
1070
     0
  0
VISUALSTYLE
  5
33
102
{ACAD_REACTORS
330
2A
102
}
330
2A
100
AcDbVisualStyle
  2
Realistic
 70
     8
 71
     2
 72
     2
 73
     0
 90
        0
 40
-0.6
 41
-30.0
 62
     5
 63
     7
 74
     1
 91
        0
 64
     7
 65
   257
 75
     1
175
     1
 42
1.0
 92
        8
 66
     8
 43
1.0
 76
     1
 77
     6
 78
     2
 67
     7
 79
     5
170
     0
171
     0
290
     0
174
     0
 93
       13
 44
0.0
173
     0
291
     0
 45
0.0
1001
ACAD
1000
AcDbSavedByObjectVersion
1070
     0
  0
VISUALSTYLE
  5
37
102
{ACAD_REACTORS
330
2A
102
}
330
2A
100
AcDbVisualStyle
  2
Thicken
 70
    13
 71
     2
 72
     2
 73
     0
 90
        0
 40
-0.6
 41
-30.0
 62
     5
 63
     7
 74
     1
 91
        4
 64
     7
 65
   257
 75
     1
175
     1
 42
1.0
 92
       12
 66
     7
 43
1.0
 76
     1
 77
     6
 78
     2
 67
     7
 79
     5
170
     0
171
     0
290
     0
174
     0
 93
        1
 44
0.0
173
     0
291
     1
 45
0.0
1001
ACAD
1000
AcDbSavedByObjectVersion
1070
     0
  0
XRECORD
  5
46
102
{ACAD_REACTORS
330
3D
102
}
330
3D
100
AcDbXrecord
 90
        0
  0
XRECORD
  5
5C
102
{ACAD_REACTORS
330
3D
102
}
330
3D
100
AcDbXrecord
1000
DSTYLE
1002
{
1070
   340
340
11
1002
}
  0
XRECORD
  5
47
102
{ACAD_REACTORS
330
3D
102
}
330
3D
100
AcDbXrecord
  1
{D7F1513A-07A6-1159-4D26-D9967272920B}
  0
XRECORD
  5
40
102
{ACAD_REACTORS
330
3D
102
}
330
3D
100
AcDbXrecord
  1

  0
XRECORD
  5
45
102
{ACAD_REACTORS
330
3D
102
}
330
3D
100
AcDbXrecord
 90
        1
  0
XRECORD
  5
42
102
{ACAD_REACTORS
330
3D
102
}
330
3D
100
AcDbXrecord
340
1A
  0
XRECORD
  5
44
102
{ACAD_REACTORS
330
3D
102
}
330
3D
100
AcDbXrecord
 90
    10269
  0
XRECORD
  5
43
102
{ACAD_REACTORS
330
3D
102
}
330
3D
100
AcDbXrecord
340
19
  0
XRECORD
  5
49
102
{ACAD_REACTORS
330
3D
102
}
330
3D
100
AcDbXrecord
 40
0.0
  0
XRECORD
  5
4C
102
{ACAD_REACTORS
330
3D
102
}
330
3D
100
AcDbXrecord
340
0
  0
XRECORD
  5
52
102
{ACAD_REACTORS
330
3D
102
}
330
3D
100
AcDbXrecord
 10
0.0
 20
0.0
 30
0.0
  0
XRECORD
  5
4E
102
{ACAD_REACTORS
330
3D
102
}
330
3D
100
AcDbXrecord
 10
0.0
 20
0.0
 30
0.0
  0
XRECORD
  5
51
102
{ACAD_REACTORS
330
3D
102
}
330
3D
100
AcDbXrecord
 10
0.0
 20
0.0
 30
0.0
  0
XRECORD
  5
4F
102
{ACAD_REACTORS
330
3D
102
}
330
3D
100
AcDbXrecord
 10
0.0
 20
0.0
 30
0.0
  0
XRECORD
  5
50
102
{ACAD_REACTORS
330
3D
102
}
330
3D
100
AcDbXrecord
 10
0.0
 20
0.0
 30
0.0
  0
XRECORD
  5
4D
102
{ACAD_REACTORS
330
3D
102
}
330
3D
100
AcDbXrecord
 10
0.0
 20
0.0
 30
0.0
  0
XRECORD
  5
4A
102
{ACAD_REACTORS
330
3D
102
}
330
3D
100
AcDbXrecord
340
0
  0
XRECORD
  5
4B
102
{ACAD_REACTORS
330
3D
102
}
330
3D
100
AcDbXrecord
 70
     0
  0
XRECORD
  5
41
102
{ACAD_REACTORS
330
3D
102
}
330
3D
100
AcDbXrecord
  1

  0
XRECORD
  5
3E
102
{ACAD_REACTORS
330
3D
102
}
330
3D
100
AcDbXrecord
 90
        1
  0
XRECORD
  5
3F
102
{ACAD_REACTORS
330
3D
102
}
330
3D
100
AcDbXrecord
 90
       70
  0
XRECORD
  5
55
102
{ACAD_REACTORS
330
3D
102
}
330
3D
100
AcDbXrecord
340
0
  0
XRECORD
  5
5B
102
{ACAD_REACTORS
330
3D
102
}
330
3D
100
AcDbXrecord
 10
0.0
 20
0.0
 30
0.0
  0
XRECORD
  5
57
102
{ACAD_REACTORS
330
3D
102
}
330
3D
100
AcDbXrecord
 10
0.0
 20
0.0
 30
0.0
  0
XRECORD
  5
5A
102
{ACAD_REACTORS
330
3D
102
}
330
3D
100
AcDbXrecord
 10
0.0
 20
0.0
 30
0.0
  0
XRECORD
  5
58
102
{ACAD_REACTORS
330
3D
102
}
330
3D
100
AcDbXrecord
 10
0.0
 20
0.0
 30
0.0
  0
XRECORD
  5
59
102
{ACAD_REACTORS
330
3D
102
}
330
3D
100
AcDbXrecord
 10
0.0
 20
0.0
 30
0.0
  0
XRECORD
  5
56
102
{ACAD_REACTORS
330
3D
102
}
330
3D
100
AcDbXrecord
 10
0.0
 20
0.0
 30
0.0
  0
XRECORD
  5
53
102
{ACAD_REACTORS
330
3D
102
}
330
3D
100
AcDbXrecord
340
0
  0
XRECORD
  5
54
102
{ACAD_REACTORS
330
3D
102
}
330
3D
100
AcDbXrecord
 70
     0
  0
XRECORD
  5
48
102
{ACAD_REACTORS
330
3D
102
}
330
3D
100
AcDbXrecord
  1
{FAEB1C32-E019-11D5-929B-00C0DF256EC4}
  0
ENDSEC
  0
EOF
