M48
;DRILL file {KiCad 5.0.1-33cea8e~68~ubuntu18.04.1} date Mon 19 Nov 2018 02:12:41 PM CET
;FORMAT={-:-/ absolute / metric / decimal}
FMAT,2
METRIC,TZ
T1C0.300
T2C0.400
T3C0.500
T4C0.800
T5C0.900
T6C1.000
T7C1.400
%
G90
G05
M71
T1
X70.684Y-31.135
X70.765Y-31.788
X71.087Y-30.618
X71.284Y-32.19
X71.728Y-30.534
X71.944Y-32.102
X72.25Y-30.931
X72.34Y-31.579
T2
X68.45Y-35.364
X73.04Y-40.264
T3
X73.687Y-35.95
X75.593Y-34.85
T4
X62.253Y-44.167
X67.333Y-44.167
X72.413Y-44.167
X77.493Y-44.167
T5
X71.513Y-31.356
T6
X74.64Y-35.4
T7
X64.793Y-42.883
X64.793Y-45.483
X69.873Y-42.883
X69.873Y-45.483
X74.953Y-42.883
X74.953Y-45.483
T0
M30
