G04 #@! TF.GenerationSoftware,KiCad,Pcbnew,5.0.1-33cea8e~68~ubuntu18.04.1*
G04 #@! TF.CreationDate,2018-11-19T12:32:52+01:00*
G04 #@! TF.ProjectId,Lulu_star_213,4C756C755F737461725F3231332E6B69,2.1.2*
G04 #@! TF.SameCoordinates,Original*
G04 #@! TF.FileFunction,Copper,L1,Top*
G04 #@! TF.FilePolarity,Positive*
%FSLAX46Y46*%
G04 Gerber Fmt 4.6, Leading zero omitted, Abs format (unit mm)*
G04 Created by KiCad (PCBNEW 5.0.1-33cea8e~68~ubuntu18.04.1) date Mon 19 Nov 2018 12:32:52 PM CET*
%MOMM*%
%LPD*%
G01*
G04 APERTURE LIST*
G04 #@! TA.AperFunction,Conductor*
%ADD10C,0.100000*%
G04 #@! TD*
G04 #@! TA.AperFunction,SMDPad,CuDef*
%ADD11C,2.000000*%
G04 #@! TD*
G04 #@! TA.AperFunction,ComponentPad*
%ADD12C,2.000000*%
G04 #@! TD*
G04 #@! TA.AperFunction,SMDPad,CuDef*
%ADD13C,2.480000*%
G04 #@! TD*
G04 #@! TA.AperFunction,ViaPad*
%ADD14C,0.400000*%
G04 #@! TD*
G04 #@! TA.AperFunction,ViaPad*
%ADD15C,1.000000*%
G04 #@! TD*
G04 #@! TA.AperFunction,ComponentPad*
%ADD16C,0.600000*%
G04 #@! TD*
G04 #@! TA.AperFunction,Conductor*
%ADD17C,0.600000*%
G04 #@! TD*
G04 #@! TA.AperFunction,ComponentPad*
%ADD18C,1.100000*%
G04 #@! TD*
G04 #@! TA.AperFunction,Conductor*
%ADD19C,1.100000*%
G04 #@! TD*
G04 #@! TA.AperFunction,SMDPad,CuDef*
%ADD20C,0.950000*%
G04 #@! TD*
G04 #@! TA.AperFunction,SMDPad,CuDef*
%ADD21R,0.800000X0.900000*%
G04 #@! TD*
G04 #@! TA.AperFunction,BGAPad,CuDef*
%ADD22C,3.500000*%
G04 #@! TD*
G04 #@! TA.AperFunction,ViaPad*
%ADD23C,0.800000*%
G04 #@! TD*
G04 #@! TA.AperFunction,Conductor*
%ADD24C,0.250000*%
G04 #@! TD*
G04 #@! TA.AperFunction,Conductor*
%ADD25C,0.150000*%
G04 #@! TD*
G04 #@! TA.AperFunction,Conductor*
%ADD26C,0.254000*%
G04 #@! TD*
G04 APERTURE END LIST*
D10*
G04 #@! TO.N,/PWM*
G04 #@! TO.C,J1*
G36*
X75091518Y-41900815D02*
X75188591Y-41915215D01*
X75283786Y-41939060D01*
X75376184Y-41972120D01*
X75464898Y-42014079D01*
X75549071Y-42064530D01*
X75627894Y-42122990D01*
X75700608Y-42188893D01*
X75766511Y-42261607D01*
X75824971Y-42340430D01*
X75875422Y-42424603D01*
X75917381Y-42513317D01*
X75950441Y-42605715D01*
X75974286Y-42700910D01*
X75988686Y-42797983D01*
X75993501Y-42896000D01*
X75993501Y-45496000D01*
X75988686Y-45594017D01*
X75974286Y-45691090D01*
X75950441Y-45786285D01*
X75917381Y-45878683D01*
X75875422Y-45967397D01*
X75824971Y-46051570D01*
X75766511Y-46130393D01*
X75700608Y-46203107D01*
X75627894Y-46269010D01*
X75549071Y-46327470D01*
X75464898Y-46377921D01*
X75376184Y-46419880D01*
X75283786Y-46452940D01*
X75188591Y-46476785D01*
X75091518Y-46491185D01*
X74993501Y-46496000D01*
X74993499Y-46496000D01*
X74895482Y-46491185D01*
X74798409Y-46476785D01*
X74703214Y-46452940D01*
X74610816Y-46419880D01*
X74522102Y-46377921D01*
X74437929Y-46327470D01*
X74359106Y-46269010D01*
X74286392Y-46203107D01*
X74220489Y-46130393D01*
X74162029Y-46051570D01*
X74111578Y-45967397D01*
X74069619Y-45878683D01*
X74036559Y-45786285D01*
X74012714Y-45691090D01*
X73998314Y-45594017D01*
X73993499Y-45496000D01*
X73993499Y-42896000D01*
X73998314Y-42797983D01*
X74012714Y-42700910D01*
X74036559Y-42605715D01*
X74069619Y-42513317D01*
X74111578Y-42424603D01*
X74162029Y-42340430D01*
X74220489Y-42261607D01*
X74286392Y-42188893D01*
X74359106Y-42122990D01*
X74437929Y-42064530D01*
X74522102Y-42014079D01*
X74610816Y-41972120D01*
X74703214Y-41939060D01*
X74798409Y-41915215D01*
X74895482Y-41900815D01*
X74993499Y-41896000D01*
X74993501Y-41896000D01*
X75091518Y-41900815D01*
X75091518Y-41900815D01*
G37*
D11*
G04 #@! TD*
G04 #@! TO.P,J1,3*
G04 #@! TO.N,/PWM*
X74993500Y-44196000D03*
D12*
G04 #@! TO.P,J1,3*
G04 #@! TO.N,/PWM*
X74993500Y-42896000D03*
X74993500Y-45496000D03*
G04 #@! TO.P,J1,2*
G04 #@! TO.N,GND*
X69913500Y-42896000D03*
D10*
G04 #@! TD*
G04 #@! TO.N,GND*
G04 #@! TO.C,J1*
G36*
X70011518Y-41900815D02*
X70108591Y-41915215D01*
X70203786Y-41939060D01*
X70296184Y-41972120D01*
X70384898Y-42014079D01*
X70469071Y-42064530D01*
X70547894Y-42122990D01*
X70620608Y-42188893D01*
X70686511Y-42261607D01*
X70744971Y-42340430D01*
X70795422Y-42424603D01*
X70837381Y-42513317D01*
X70870441Y-42605715D01*
X70894286Y-42700910D01*
X70908686Y-42797983D01*
X70913501Y-42896000D01*
X70913501Y-45496000D01*
X70908686Y-45594017D01*
X70894286Y-45691090D01*
X70870441Y-45786285D01*
X70837381Y-45878683D01*
X70795422Y-45967397D01*
X70744971Y-46051570D01*
X70686511Y-46130393D01*
X70620608Y-46203107D01*
X70547894Y-46269010D01*
X70469071Y-46327470D01*
X70384898Y-46377921D01*
X70296184Y-46419880D01*
X70203786Y-46452940D01*
X70108591Y-46476785D01*
X70011518Y-46491185D01*
X69913501Y-46496000D01*
X69913499Y-46496000D01*
X69815482Y-46491185D01*
X69718409Y-46476785D01*
X69623214Y-46452940D01*
X69530816Y-46419880D01*
X69442102Y-46377921D01*
X69357929Y-46327470D01*
X69279106Y-46269010D01*
X69206392Y-46203107D01*
X69140489Y-46130393D01*
X69082029Y-46051570D01*
X69031578Y-45967397D01*
X68989619Y-45878683D01*
X68956559Y-45786285D01*
X68932714Y-45691090D01*
X68918314Y-45594017D01*
X68913499Y-45496000D01*
X68913499Y-42896000D01*
X68918314Y-42797983D01*
X68932714Y-42700910D01*
X68956559Y-42605715D01*
X68989619Y-42513317D01*
X69031578Y-42424603D01*
X69082029Y-42340430D01*
X69140489Y-42261607D01*
X69206392Y-42188893D01*
X69279106Y-42122990D01*
X69357929Y-42064530D01*
X69442102Y-42014079D01*
X69530816Y-41972120D01*
X69623214Y-41939060D01*
X69718409Y-41915215D01*
X69815482Y-41900815D01*
X69913499Y-41896000D01*
X69913501Y-41896000D01*
X70011518Y-41900815D01*
X70011518Y-41900815D01*
G37*
D11*
G04 #@! TO.P,J1,2*
G04 #@! TO.N,GND*
X69913500Y-44196000D03*
D12*
X69913500Y-45496000D03*
D10*
G04 #@! TD*
G04 #@! TO.N,+3V3*
G04 #@! TO.C,J1*
G36*
X64931518Y-41900815D02*
X65028591Y-41915215D01*
X65123786Y-41939060D01*
X65216184Y-41972120D01*
X65304898Y-42014079D01*
X65389071Y-42064530D01*
X65467894Y-42122990D01*
X65540608Y-42188893D01*
X65606511Y-42261607D01*
X65664971Y-42340430D01*
X65715422Y-42424603D01*
X65757381Y-42513317D01*
X65790441Y-42605715D01*
X65814286Y-42700910D01*
X65828686Y-42797983D01*
X65833501Y-42896000D01*
X65833501Y-45496000D01*
X65828686Y-45594017D01*
X65814286Y-45691090D01*
X65790441Y-45786285D01*
X65757381Y-45878683D01*
X65715422Y-45967397D01*
X65664971Y-46051570D01*
X65606511Y-46130393D01*
X65540608Y-46203107D01*
X65467894Y-46269010D01*
X65389071Y-46327470D01*
X65304898Y-46377921D01*
X65216184Y-46419880D01*
X65123786Y-46452940D01*
X65028591Y-46476785D01*
X64931518Y-46491185D01*
X64833501Y-46496000D01*
X64833499Y-46496000D01*
X64735482Y-46491185D01*
X64638409Y-46476785D01*
X64543214Y-46452940D01*
X64450816Y-46419880D01*
X64362102Y-46377921D01*
X64277929Y-46327470D01*
X64199106Y-46269010D01*
X64126392Y-46203107D01*
X64060489Y-46130393D01*
X64002029Y-46051570D01*
X63951578Y-45967397D01*
X63909619Y-45878683D01*
X63876559Y-45786285D01*
X63852714Y-45691090D01*
X63838314Y-45594017D01*
X63833499Y-45496000D01*
X63833499Y-42896000D01*
X63838314Y-42797983D01*
X63852714Y-42700910D01*
X63876559Y-42605715D01*
X63909619Y-42513317D01*
X63951578Y-42424603D01*
X64002029Y-42340430D01*
X64060489Y-42261607D01*
X64126392Y-42188893D01*
X64199106Y-42122990D01*
X64277929Y-42064530D01*
X64362102Y-42014079D01*
X64450816Y-41972120D01*
X64543214Y-41939060D01*
X64638409Y-41915215D01*
X64735482Y-41900815D01*
X64833499Y-41896000D01*
X64833501Y-41896000D01*
X64931518Y-41900815D01*
X64931518Y-41900815D01*
G37*
D11*
G04 #@! TO.P,J1,1*
G04 #@! TO.N,+3V3*
X64833500Y-44196000D03*
D12*
X64833500Y-45496000D03*
X64833500Y-42896000D03*
G04 #@! TD*
D13*
G04 #@! TO.P,LED1,*
G04 #@! TO.N,GND*
X71513393Y-31356160D03*
D10*
G04 #@! TD*
G04 #@! TO.N,GND*
G04 #@! TO.C,LED1*
G36*
X71057673Y-30202938D02*
X71172903Y-30163823D01*
X71291412Y-30136191D01*
X71412058Y-30120307D01*
X71533681Y-30116327D01*
X71655109Y-30124285D01*
X71775171Y-30144108D01*
X71892712Y-30175603D01*
X72006601Y-30218467D01*
X72115739Y-30272289D01*
X72219078Y-30336548D01*
X72315619Y-30410626D01*
X72404435Y-30493811D01*
X72484669Y-30585301D01*
X72555549Y-30684215D01*
X72578657Y-30724239D01*
X72583935Y-30721191D01*
X74514335Y-34064742D01*
X73546465Y-34623542D01*
X72239374Y-32359594D01*
X72185338Y-32398316D01*
X72079954Y-32459160D01*
X71969113Y-32509382D01*
X71853883Y-32548497D01*
X71735374Y-32576129D01*
X71614728Y-32592013D01*
X71493105Y-32595993D01*
X71371677Y-32588035D01*
X71251615Y-32568212D01*
X71134074Y-32536717D01*
X71020185Y-32493853D01*
X70911047Y-32440031D01*
X70807708Y-32375772D01*
X70711167Y-32301694D01*
X70622351Y-32218509D01*
X70542117Y-32127019D01*
X70471237Y-32028105D01*
X70410393Y-31922721D01*
X70360171Y-31811880D01*
X70321056Y-31696650D01*
X70293424Y-31578141D01*
X70277540Y-31457495D01*
X70273560Y-31335872D01*
X70281518Y-31214444D01*
X70301341Y-31094382D01*
X70332836Y-30976841D01*
X70375700Y-30862952D01*
X70429522Y-30753814D01*
X70493781Y-30650475D01*
X70567859Y-30553934D01*
X70651044Y-30465118D01*
X70742534Y-30384884D01*
X70841448Y-30314004D01*
X70946832Y-30253160D01*
X71057673Y-30202938D01*
X71057673Y-30202938D01*
G37*
D14*
G04 #@! TO.N,GND*
G04 #@! TO.C,LED1*
X70765494Y-31787959D03*
D15*
X71513393Y-31356160D03*
D16*
G04 #@! TD*
G04 #@! TO.P,LED1,2*
G04 #@! TO.N,+3V3*
X75367628Y-34460289D03*
D17*
G04 #@! TO.N,+3V3*
G04 #@! TO.C,LED1*
X75142628Y-34070578D02*
X75592628Y-34850000D01*
D16*
G04 #@! TD*
G04 #@! TO.P,LED1,1*
G04 #@! TO.N,Net-(LED1-Pad1)*
X73462372Y-35560289D03*
D17*
G04 #@! TO.N,Net-(LED1-Pad1)*
G04 #@! TO.C,LED1*
X73237372Y-35170578D02*
X73687372Y-35950000D01*
D18*
G04 #@! TD*
G04 #@! TO.P,LED1,3*
G04 #@! TO.N,GND*
X74340000Y-34880385D03*
D19*
G04 #@! TO.N,GND*
G04 #@! TO.C,LED1*
X74040000Y-34360770D02*
X74640000Y-35400000D01*
D14*
X72250295Y-30930709D03*
X71944230Y-32102389D03*
X71086980Y-30617588D03*
X71727706Y-30533980D03*
X71283961Y-32190059D03*
X72339789Y-31578904D03*
X70683710Y-31135159D03*
G04 #@! TD*
D10*
G04 #@! TO.N,/PWM*
G04 #@! TO.C,R3*
G36*
X68754859Y-38154464D02*
X68777914Y-38157883D01*
X68800523Y-38163547D01*
X68822467Y-38171399D01*
X68843537Y-38181364D01*
X68863528Y-38193346D01*
X68882248Y-38207230D01*
X68899518Y-38222882D01*
X68915170Y-38240152D01*
X68929054Y-38258872D01*
X68941036Y-38278863D01*
X68951001Y-38299933D01*
X68958853Y-38321877D01*
X68964517Y-38344486D01*
X68967936Y-38367541D01*
X68969080Y-38390820D01*
X68969080Y-38865820D01*
X68967936Y-38889099D01*
X68964517Y-38912154D01*
X68958853Y-38934763D01*
X68951001Y-38956707D01*
X68941036Y-38977777D01*
X68929054Y-38997768D01*
X68915170Y-39016488D01*
X68899518Y-39033758D01*
X68882248Y-39049410D01*
X68863528Y-39063294D01*
X68843537Y-39075276D01*
X68822467Y-39085241D01*
X68800523Y-39093093D01*
X68777914Y-39098757D01*
X68754859Y-39102176D01*
X68731580Y-39103320D01*
X68156580Y-39103320D01*
X68133301Y-39102176D01*
X68110246Y-39098757D01*
X68087637Y-39093093D01*
X68065693Y-39085241D01*
X68044623Y-39075276D01*
X68024632Y-39063294D01*
X68005912Y-39049410D01*
X67988642Y-39033758D01*
X67972990Y-39016488D01*
X67959106Y-38997768D01*
X67947124Y-38977777D01*
X67937159Y-38956707D01*
X67929307Y-38934763D01*
X67923643Y-38912154D01*
X67920224Y-38889099D01*
X67919080Y-38865820D01*
X67919080Y-38390820D01*
X67920224Y-38367541D01*
X67923643Y-38344486D01*
X67929307Y-38321877D01*
X67937159Y-38299933D01*
X67947124Y-38278863D01*
X67959106Y-38258872D01*
X67972990Y-38240152D01*
X67988642Y-38222882D01*
X68005912Y-38207230D01*
X68024632Y-38193346D01*
X68044623Y-38181364D01*
X68065693Y-38171399D01*
X68087637Y-38163547D01*
X68110246Y-38157883D01*
X68133301Y-38154464D01*
X68156580Y-38153320D01*
X68731580Y-38153320D01*
X68754859Y-38154464D01*
X68754859Y-38154464D01*
G37*
D20*
G04 #@! TD*
G04 #@! TO.P,R3,1*
G04 #@! TO.N,/PWM*
X68444080Y-38628320D03*
D10*
G04 #@! TO.N,GND*
G04 #@! TO.C,R3*
G36*
X67004859Y-38154464D02*
X67027914Y-38157883D01*
X67050523Y-38163547D01*
X67072467Y-38171399D01*
X67093537Y-38181364D01*
X67113528Y-38193346D01*
X67132248Y-38207230D01*
X67149518Y-38222882D01*
X67165170Y-38240152D01*
X67179054Y-38258872D01*
X67191036Y-38278863D01*
X67201001Y-38299933D01*
X67208853Y-38321877D01*
X67214517Y-38344486D01*
X67217936Y-38367541D01*
X67219080Y-38390820D01*
X67219080Y-38865820D01*
X67217936Y-38889099D01*
X67214517Y-38912154D01*
X67208853Y-38934763D01*
X67201001Y-38956707D01*
X67191036Y-38977777D01*
X67179054Y-38997768D01*
X67165170Y-39016488D01*
X67149518Y-39033758D01*
X67132248Y-39049410D01*
X67113528Y-39063294D01*
X67093537Y-39075276D01*
X67072467Y-39085241D01*
X67050523Y-39093093D01*
X67027914Y-39098757D01*
X67004859Y-39102176D01*
X66981580Y-39103320D01*
X66406580Y-39103320D01*
X66383301Y-39102176D01*
X66360246Y-39098757D01*
X66337637Y-39093093D01*
X66315693Y-39085241D01*
X66294623Y-39075276D01*
X66274632Y-39063294D01*
X66255912Y-39049410D01*
X66238642Y-39033758D01*
X66222990Y-39016488D01*
X66209106Y-38997768D01*
X66197124Y-38977777D01*
X66187159Y-38956707D01*
X66179307Y-38934763D01*
X66173643Y-38912154D01*
X66170224Y-38889099D01*
X66169080Y-38865820D01*
X66169080Y-38390820D01*
X66170224Y-38367541D01*
X66173643Y-38344486D01*
X66179307Y-38321877D01*
X66187159Y-38299933D01*
X66197124Y-38278863D01*
X66209106Y-38258872D01*
X66222990Y-38240152D01*
X66238642Y-38222882D01*
X66255912Y-38207230D01*
X66274632Y-38193346D01*
X66294623Y-38181364D01*
X66315693Y-38171399D01*
X66337637Y-38163547D01*
X66360246Y-38157883D01*
X66383301Y-38154464D01*
X66406580Y-38153320D01*
X66981580Y-38153320D01*
X67004859Y-38154464D01*
X67004859Y-38154464D01*
G37*
D20*
G04 #@! TD*
G04 #@! TO.P,R3,2*
G04 #@! TO.N,GND*
X66694080Y-38628320D03*
D21*
G04 #@! TO.P,T1,1*
G04 #@! TO.N,Net-(Q1-Pad2)*
X71902360Y-37928040D03*
G04 #@! TO.P,T1,2*
G04 #@! TO.N,GND*
X70002360Y-37928040D03*
G04 #@! TO.P,T1,3*
G04 #@! TO.N,Net-(Q1-Pad1)*
X70952360Y-39928040D03*
G04 #@! TD*
G04 #@! TO.P,Q1,3*
G04 #@! TO.N,Net-(LED1-Pad1)*
X70952360Y-34508519D03*
G04 #@! TO.P,Q1,2*
G04 #@! TO.N,Net-(Q1-Pad2)*
X71902360Y-36508519D03*
G04 #@! TO.P,Q1,1*
G04 #@! TO.N,Net-(Q1-Pad1)*
X70002360Y-36508519D03*
G04 #@! TD*
D10*
G04 #@! TO.N,Net-(Q1-Pad1)*
G04 #@! TO.C,R1*
G36*
X68754859Y-36691424D02*
X68777914Y-36694843D01*
X68800523Y-36700507D01*
X68822467Y-36708359D01*
X68843537Y-36718324D01*
X68863528Y-36730306D01*
X68882248Y-36744190D01*
X68899518Y-36759842D01*
X68915170Y-36777112D01*
X68929054Y-36795832D01*
X68941036Y-36815823D01*
X68951001Y-36836893D01*
X68958853Y-36858837D01*
X68964517Y-36881446D01*
X68967936Y-36904501D01*
X68969080Y-36927780D01*
X68969080Y-37402780D01*
X68967936Y-37426059D01*
X68964517Y-37449114D01*
X68958853Y-37471723D01*
X68951001Y-37493667D01*
X68941036Y-37514737D01*
X68929054Y-37534728D01*
X68915170Y-37553448D01*
X68899518Y-37570718D01*
X68882248Y-37586370D01*
X68863528Y-37600254D01*
X68843537Y-37612236D01*
X68822467Y-37622201D01*
X68800523Y-37630053D01*
X68777914Y-37635717D01*
X68754859Y-37639136D01*
X68731580Y-37640280D01*
X68156580Y-37640280D01*
X68133301Y-37639136D01*
X68110246Y-37635717D01*
X68087637Y-37630053D01*
X68065693Y-37622201D01*
X68044623Y-37612236D01*
X68024632Y-37600254D01*
X68005912Y-37586370D01*
X67988642Y-37570718D01*
X67972990Y-37553448D01*
X67959106Y-37534728D01*
X67947124Y-37514737D01*
X67937159Y-37493667D01*
X67929307Y-37471723D01*
X67923643Y-37449114D01*
X67920224Y-37426059D01*
X67919080Y-37402780D01*
X67919080Y-36927780D01*
X67920224Y-36904501D01*
X67923643Y-36881446D01*
X67929307Y-36858837D01*
X67937159Y-36836893D01*
X67947124Y-36815823D01*
X67959106Y-36795832D01*
X67972990Y-36777112D01*
X67988642Y-36759842D01*
X68005912Y-36744190D01*
X68024632Y-36730306D01*
X68044623Y-36718324D01*
X68065693Y-36708359D01*
X68087637Y-36700507D01*
X68110246Y-36694843D01*
X68133301Y-36691424D01*
X68156580Y-36690280D01*
X68731580Y-36690280D01*
X68754859Y-36691424D01*
X68754859Y-36691424D01*
G37*
D20*
G04 #@! TD*
G04 #@! TO.P,R1,1*
G04 #@! TO.N,Net-(Q1-Pad1)*
X68444080Y-37165280D03*
D10*
G04 #@! TO.N,/PWM*
G04 #@! TO.C,R1*
G36*
X67004859Y-36691424D02*
X67027914Y-36694843D01*
X67050523Y-36700507D01*
X67072467Y-36708359D01*
X67093537Y-36718324D01*
X67113528Y-36730306D01*
X67132248Y-36744190D01*
X67149518Y-36759842D01*
X67165170Y-36777112D01*
X67179054Y-36795832D01*
X67191036Y-36815823D01*
X67201001Y-36836893D01*
X67208853Y-36858837D01*
X67214517Y-36881446D01*
X67217936Y-36904501D01*
X67219080Y-36927780D01*
X67219080Y-37402780D01*
X67217936Y-37426059D01*
X67214517Y-37449114D01*
X67208853Y-37471723D01*
X67201001Y-37493667D01*
X67191036Y-37514737D01*
X67179054Y-37534728D01*
X67165170Y-37553448D01*
X67149518Y-37570718D01*
X67132248Y-37586370D01*
X67113528Y-37600254D01*
X67093537Y-37612236D01*
X67072467Y-37622201D01*
X67050523Y-37630053D01*
X67027914Y-37635717D01*
X67004859Y-37639136D01*
X66981580Y-37640280D01*
X66406580Y-37640280D01*
X66383301Y-37639136D01*
X66360246Y-37635717D01*
X66337637Y-37630053D01*
X66315693Y-37622201D01*
X66294623Y-37612236D01*
X66274632Y-37600254D01*
X66255912Y-37586370D01*
X66238642Y-37570718D01*
X66222990Y-37553448D01*
X66209106Y-37534728D01*
X66197124Y-37514737D01*
X66187159Y-37493667D01*
X66179307Y-37471723D01*
X66173643Y-37449114D01*
X66170224Y-37426059D01*
X66169080Y-37402780D01*
X66169080Y-36927780D01*
X66170224Y-36904501D01*
X66173643Y-36881446D01*
X66179307Y-36858837D01*
X66187159Y-36836893D01*
X66197124Y-36815823D01*
X66209106Y-36795832D01*
X66222990Y-36777112D01*
X66238642Y-36759842D01*
X66255912Y-36744190D01*
X66274632Y-36730306D01*
X66294623Y-36718324D01*
X66315693Y-36708359D01*
X66337637Y-36700507D01*
X66360246Y-36694843D01*
X66383301Y-36691424D01*
X66406580Y-36690280D01*
X66981580Y-36690280D01*
X67004859Y-36691424D01*
X67004859Y-36691424D01*
G37*
D20*
G04 #@! TD*
G04 #@! TO.P,R1,2*
G04 #@! TO.N,/PWM*
X66694080Y-37165280D03*
D22*
G04 #@! TO.P,P1,*
G04 #@! TO.N,GND*
X75800000Y-39550000D03*
G04 #@! TD*
D23*
G04 #@! TO.N,Net-(Q1-Pad2)*
X68450460Y-35364420D03*
D15*
G04 #@! TO.N,GND*
X67373500Y-44180000D03*
X77533500Y-44180000D03*
X62293500Y-44180000D03*
X72453500Y-44180000D03*
D23*
X73804780Y-40772080D03*
G04 #@! TD*
D24*
G04 #@! TO.N,Net-(Q1-Pad2)*
X71902360Y-36508519D02*
X71902360Y-37928040D01*
X71437362Y-36508519D02*
X71902360Y-36508519D01*
X68450460Y-35364420D02*
X68620640Y-35194240D01*
X70293263Y-35364420D02*
X68450460Y-35364420D01*
X71437362Y-36508519D02*
X70293263Y-35364420D01*
D25*
G04 #@! TO.N,Net-(Q1-Pad1)*
X69886706Y-36508519D02*
X70002360Y-36508519D01*
X70002360Y-36508519D02*
X70002360Y-36558519D01*
X70952360Y-39328040D02*
X70952360Y-39928040D01*
X70952360Y-36908519D02*
X70952360Y-39328040D01*
X70002360Y-36508519D02*
X70552360Y-36508519D01*
X70552360Y-36508519D02*
X70952360Y-36908519D01*
X69345599Y-37165280D02*
X70002360Y-36508519D01*
X68444080Y-37165280D02*
X69345599Y-37165280D01*
G04 #@! TO.N,/PWM*
X66694080Y-37165280D02*
X67423060Y-37894260D01*
X67710020Y-37894260D02*
X68444080Y-38628320D01*
X67423060Y-37894260D02*
X67710020Y-37894260D01*
X68444080Y-40260240D02*
X68444080Y-38628320D01*
X70578980Y-41569640D02*
X69753480Y-41569640D01*
X71000620Y-41991280D02*
X70578980Y-41569640D01*
X74993500Y-42896000D02*
X74088780Y-41991280D01*
X69753480Y-41569640D02*
X68444080Y-40260240D01*
X74088780Y-41991280D02*
X71000620Y-41991280D01*
D24*
G04 #@! TO.N,Net-(LED1-Pad1)*
X71452580Y-35570000D02*
X73430000Y-35570000D01*
X70952360Y-34508519D02*
X70952360Y-35069780D01*
X70952360Y-35069780D02*
X71452580Y-35570000D01*
G04 #@! TO.N,+3V3*
X65398000Y-43758000D02*
X65398000Y-42488000D01*
G04 #@! TD*
D26*
G04 #@! TO.N,GND*
G36*
X73075906Y-37571868D02*
X73087389Y-37597185D01*
X73116911Y-37638349D01*
X73146419Y-37680003D01*
X73147559Y-37681082D01*
X73148463Y-37682343D01*
X73185461Y-37716969D01*
X73222516Y-37752054D01*
X73223838Y-37752886D01*
X73224976Y-37753951D01*
X73268130Y-37780763D01*
X73311206Y-37807874D01*
X73312664Y-37808432D01*
X73313989Y-37809255D01*
X73361569Y-37827142D01*
X73409082Y-37845320D01*
X73410621Y-37845583D01*
X73412082Y-37846132D01*
X73462268Y-37854397D01*
X73512384Y-37862951D01*
X73513944Y-37862908D01*
X73515484Y-37863162D01*
X73566281Y-37861480D01*
X73617139Y-37860091D01*
X73618662Y-37859745D01*
X73620219Y-37859693D01*
X73669708Y-37848134D01*
X73719324Y-37836848D01*
X73720748Y-37836212D01*
X73722268Y-37835857D01*
X73768630Y-37814830D01*
X73815011Y-37794117D01*
X73837699Y-37778045D01*
X74028187Y-37667968D01*
X78235672Y-44955920D01*
X76523050Y-44955920D01*
X76523050Y-42896000D01*
X76520500Y-42870110D01*
X76520500Y-42745604D01*
X76496210Y-42623486D01*
X76493660Y-42597600D01*
X76486110Y-42572711D01*
X76461819Y-42450590D01*
X76414170Y-42335555D01*
X76406620Y-42310667D01*
X76394359Y-42287728D01*
X76346710Y-42172694D01*
X76277538Y-42069170D01*
X76265275Y-42046228D01*
X76248773Y-42026120D01*
X76179599Y-41922594D01*
X76091550Y-41834545D01*
X76075055Y-41814446D01*
X76054956Y-41797951D01*
X75966906Y-41709901D01*
X75863379Y-41640727D01*
X75843273Y-41624226D01*
X75820333Y-41611964D01*
X75716806Y-41542790D01*
X75601768Y-41495139D01*
X75578834Y-41482881D01*
X75553951Y-41475333D01*
X75438910Y-41427681D01*
X75316783Y-41403389D01*
X75291901Y-41395841D01*
X75266023Y-41393292D01*
X75143896Y-41369000D01*
X75019381Y-41369000D01*
X74993501Y-41366451D01*
X74993499Y-41366451D01*
X74967619Y-41369000D01*
X74843104Y-41369000D01*
X74720977Y-41393292D01*
X74695099Y-41395841D01*
X74670217Y-41403389D01*
X74548090Y-41427681D01*
X74433049Y-41475333D01*
X74412326Y-41481619D01*
X74320270Y-41432414D01*
X74206792Y-41397991D01*
X74118346Y-41389280D01*
X74118336Y-41389280D01*
X74088780Y-41386369D01*
X74059224Y-41389280D01*
X71249976Y-41389280D01*
X71025568Y-41164873D01*
X71006717Y-41141903D01*
X70915051Y-41066674D01*
X70810470Y-41010774D01*
X70696992Y-40976351D01*
X70608546Y-40967640D01*
X70608536Y-40967640D01*
X70578980Y-40964729D01*
X70549424Y-40967640D01*
X70002837Y-40967640D01*
X69046080Y-40010885D01*
X69046080Y-39563276D01*
X69157730Y-39503598D01*
X69273966Y-39408206D01*
X69369358Y-39291970D01*
X69440241Y-39159357D01*
X69483890Y-39015464D01*
X69485199Y-39002175D01*
X69539818Y-39013040D01*
X69716610Y-39013040D01*
X69875360Y-38854290D01*
X69875360Y-38055040D01*
X69855360Y-38055040D01*
X69855360Y-37801040D01*
X69875360Y-37801040D01*
X69875360Y-37781040D01*
X70129360Y-37781040D01*
X70129360Y-37801040D01*
X70149360Y-37801040D01*
X70149360Y-38055040D01*
X70129360Y-38055040D01*
X70129360Y-38854290D01*
X70288110Y-39013040D01*
X70304361Y-39013040D01*
X70258158Y-39037736D01*
X70177912Y-39103592D01*
X70112056Y-39183838D01*
X70063121Y-39275390D01*
X70032986Y-39374730D01*
X70022811Y-39478040D01*
X70022811Y-40378040D01*
X70032986Y-40481350D01*
X70063121Y-40580690D01*
X70112056Y-40672242D01*
X70177912Y-40752488D01*
X70258158Y-40818344D01*
X70349710Y-40867279D01*
X70449050Y-40897414D01*
X70552360Y-40907589D01*
X71352360Y-40907589D01*
X71455670Y-40897414D01*
X71555010Y-40867279D01*
X71646562Y-40818344D01*
X71726808Y-40752488D01*
X71792664Y-40672242D01*
X71841599Y-40580690D01*
X71871734Y-40481350D01*
X71881909Y-40378040D01*
X71881909Y-39478040D01*
X71871734Y-39374730D01*
X71841599Y-39275390D01*
X71792664Y-39183838D01*
X71726808Y-39103592D01*
X71646562Y-39037736D01*
X71555010Y-38988801D01*
X71554360Y-38988604D01*
X71554360Y-38907589D01*
X72302360Y-38907589D01*
X72405670Y-38897414D01*
X72505010Y-38867279D01*
X72596562Y-38818344D01*
X72676808Y-38752488D01*
X72742664Y-38672242D01*
X72791599Y-38580690D01*
X72821734Y-38481350D01*
X72831909Y-38378040D01*
X72831909Y-37478040D01*
X72821734Y-37374730D01*
X72791599Y-37275390D01*
X72761073Y-37218280D01*
X72791599Y-37161169D01*
X72809016Y-37103754D01*
X73075906Y-37571868D01*
X73075906Y-37571868D01*
G37*
X73075906Y-37571868D02*
X73087389Y-37597185D01*
X73116911Y-37638349D01*
X73146419Y-37680003D01*
X73147559Y-37681082D01*
X73148463Y-37682343D01*
X73185461Y-37716969D01*
X73222516Y-37752054D01*
X73223838Y-37752886D01*
X73224976Y-37753951D01*
X73268130Y-37780763D01*
X73311206Y-37807874D01*
X73312664Y-37808432D01*
X73313989Y-37809255D01*
X73361569Y-37827142D01*
X73409082Y-37845320D01*
X73410621Y-37845583D01*
X73412082Y-37846132D01*
X73462268Y-37854397D01*
X73512384Y-37862951D01*
X73513944Y-37862908D01*
X73515484Y-37863162D01*
X73566281Y-37861480D01*
X73617139Y-37860091D01*
X73618662Y-37859745D01*
X73620219Y-37859693D01*
X73669708Y-37848134D01*
X73719324Y-37836848D01*
X73720748Y-37836212D01*
X73722268Y-37835857D01*
X73768630Y-37814830D01*
X73815011Y-37794117D01*
X73837699Y-37778045D01*
X74028187Y-37667968D01*
X78235672Y-44955920D01*
X76523050Y-44955920D01*
X76523050Y-42896000D01*
X76520500Y-42870110D01*
X76520500Y-42745604D01*
X76496210Y-42623486D01*
X76493660Y-42597600D01*
X76486110Y-42572711D01*
X76461819Y-42450590D01*
X76414170Y-42335555D01*
X76406620Y-42310667D01*
X76394359Y-42287728D01*
X76346710Y-42172694D01*
X76277538Y-42069170D01*
X76265275Y-42046228D01*
X76248773Y-42026120D01*
X76179599Y-41922594D01*
X76091550Y-41834545D01*
X76075055Y-41814446D01*
X76054956Y-41797951D01*
X75966906Y-41709901D01*
X75863379Y-41640727D01*
X75843273Y-41624226D01*
X75820333Y-41611964D01*
X75716806Y-41542790D01*
X75601768Y-41495139D01*
X75578834Y-41482881D01*
X75553951Y-41475333D01*
X75438910Y-41427681D01*
X75316783Y-41403389D01*
X75291901Y-41395841D01*
X75266023Y-41393292D01*
X75143896Y-41369000D01*
X75019381Y-41369000D01*
X74993501Y-41366451D01*
X74993499Y-41366451D01*
X74967619Y-41369000D01*
X74843104Y-41369000D01*
X74720977Y-41393292D01*
X74695099Y-41395841D01*
X74670217Y-41403389D01*
X74548090Y-41427681D01*
X74433049Y-41475333D01*
X74412326Y-41481619D01*
X74320270Y-41432414D01*
X74206792Y-41397991D01*
X74118346Y-41389280D01*
X74118336Y-41389280D01*
X74088780Y-41386369D01*
X74059224Y-41389280D01*
X71249976Y-41389280D01*
X71025568Y-41164873D01*
X71006717Y-41141903D01*
X70915051Y-41066674D01*
X70810470Y-41010774D01*
X70696992Y-40976351D01*
X70608546Y-40967640D01*
X70608536Y-40967640D01*
X70578980Y-40964729D01*
X70549424Y-40967640D01*
X70002837Y-40967640D01*
X69046080Y-40010885D01*
X69046080Y-39563276D01*
X69157730Y-39503598D01*
X69273966Y-39408206D01*
X69369358Y-39291970D01*
X69440241Y-39159357D01*
X69483890Y-39015464D01*
X69485199Y-39002175D01*
X69539818Y-39013040D01*
X69716610Y-39013040D01*
X69875360Y-38854290D01*
X69875360Y-38055040D01*
X69855360Y-38055040D01*
X69855360Y-37801040D01*
X69875360Y-37801040D01*
X69875360Y-37781040D01*
X70129360Y-37781040D01*
X70129360Y-37801040D01*
X70149360Y-37801040D01*
X70149360Y-38055040D01*
X70129360Y-38055040D01*
X70129360Y-38854290D01*
X70288110Y-39013040D01*
X70304361Y-39013040D01*
X70258158Y-39037736D01*
X70177912Y-39103592D01*
X70112056Y-39183838D01*
X70063121Y-39275390D01*
X70032986Y-39374730D01*
X70022811Y-39478040D01*
X70022811Y-40378040D01*
X70032986Y-40481350D01*
X70063121Y-40580690D01*
X70112056Y-40672242D01*
X70177912Y-40752488D01*
X70258158Y-40818344D01*
X70349710Y-40867279D01*
X70449050Y-40897414D01*
X70552360Y-40907589D01*
X71352360Y-40907589D01*
X71455670Y-40897414D01*
X71555010Y-40867279D01*
X71646562Y-40818344D01*
X71726808Y-40752488D01*
X71792664Y-40672242D01*
X71841599Y-40580690D01*
X71871734Y-40481350D01*
X71881909Y-40378040D01*
X71881909Y-39478040D01*
X71871734Y-39374730D01*
X71841599Y-39275390D01*
X71792664Y-39183838D01*
X71726808Y-39103592D01*
X71646562Y-39037736D01*
X71555010Y-38988801D01*
X71554360Y-38988604D01*
X71554360Y-38907589D01*
X72302360Y-38907589D01*
X72405670Y-38897414D01*
X72505010Y-38867279D01*
X72596562Y-38818344D01*
X72676808Y-38752488D01*
X72742664Y-38672242D01*
X72791599Y-38580690D01*
X72821734Y-38481350D01*
X72831909Y-38378040D01*
X72831909Y-37478040D01*
X72821734Y-37374730D01*
X72791599Y-37275390D01*
X72761073Y-37218280D01*
X72791599Y-37161169D01*
X72809016Y-37103754D01*
X73075906Y-37571868D01*
G36*
X65697919Y-37696317D02*
X65708417Y-37715957D01*
X65675843Y-37748531D01*
X65606350Y-37852535D01*
X65558483Y-37968097D01*
X65534080Y-38090778D01*
X65534080Y-38342570D01*
X65692830Y-38501320D01*
X66567080Y-38501320D01*
X66567080Y-38481320D01*
X66821080Y-38481320D01*
X66821080Y-38501320D01*
X66841080Y-38501320D01*
X66841080Y-38755320D01*
X66821080Y-38755320D01*
X66821080Y-39579570D01*
X66979830Y-39738320D01*
X67281622Y-39738320D01*
X67404303Y-39713917D01*
X67519865Y-39666050D01*
X67623869Y-39596557D01*
X67712317Y-39508109D01*
X67720678Y-39495595D01*
X67730430Y-39503598D01*
X67842080Y-39563276D01*
X67842080Y-40230683D01*
X67839169Y-40260240D01*
X67842080Y-40289796D01*
X67842080Y-40289805D01*
X67850791Y-40378251D01*
X67885214Y-40491729D01*
X67941114Y-40596310D01*
X68016343Y-40687977D01*
X68039314Y-40706829D01*
X69306900Y-41974417D01*
X69325743Y-41997377D01*
X69348703Y-42016220D01*
X69348707Y-42016224D01*
X69404396Y-42061926D01*
X69417409Y-42072606D01*
X69521990Y-42128506D01*
X69635468Y-42162929D01*
X69723914Y-42171640D01*
X69723923Y-42171640D01*
X69753479Y-42174551D01*
X69783036Y-42171640D01*
X70329625Y-42171640D01*
X70554035Y-42396051D01*
X70572883Y-42419017D01*
X70664549Y-42494246D01*
X70769130Y-42550146D01*
X70882608Y-42584569D01*
X70971054Y-42593280D01*
X70971063Y-42593280D01*
X71000619Y-42596191D01*
X71030176Y-42593280D01*
X73494650Y-42593280D01*
X73493340Y-42597600D01*
X73490790Y-42623486D01*
X73466500Y-42745604D01*
X73466500Y-42870110D01*
X73463950Y-42896000D01*
X73463950Y-44955920D01*
X66363050Y-44955920D01*
X66363050Y-42896000D01*
X66360500Y-42870110D01*
X66360500Y-42745604D01*
X66336210Y-42623486D01*
X66333660Y-42597600D01*
X66326110Y-42572711D01*
X66301819Y-42450590D01*
X66254170Y-42335555D01*
X66246620Y-42310667D01*
X66234359Y-42287728D01*
X66186710Y-42172694D01*
X66117538Y-42069170D01*
X66105275Y-42046228D01*
X66088773Y-42026120D01*
X66019599Y-41922594D01*
X65931550Y-41834545D01*
X65915055Y-41814446D01*
X65894956Y-41797951D01*
X65806906Y-41709901D01*
X65703379Y-41640727D01*
X65683273Y-41624226D01*
X65660333Y-41611964D01*
X65556806Y-41542790D01*
X65441768Y-41495139D01*
X65418834Y-41482881D01*
X65393951Y-41475333D01*
X65278910Y-41427681D01*
X65156783Y-41403389D01*
X65131901Y-41395841D01*
X65106023Y-41393292D01*
X64983896Y-41369000D01*
X64859381Y-41369000D01*
X64833501Y-41366451D01*
X64833499Y-41366451D01*
X64807619Y-41369000D01*
X64683104Y-41369000D01*
X64560977Y-41393292D01*
X64535099Y-41395841D01*
X64510217Y-41403389D01*
X64388090Y-41427681D01*
X64273049Y-41475333D01*
X64248166Y-41482881D01*
X64225232Y-41495139D01*
X64110194Y-41542790D01*
X64006667Y-41611964D01*
X63983727Y-41624226D01*
X63963621Y-41640727D01*
X63860094Y-41709901D01*
X63772044Y-41797951D01*
X63751945Y-41814446D01*
X63735450Y-41834545D01*
X63647401Y-41922594D01*
X63578227Y-42026120D01*
X63561725Y-42046228D01*
X63549462Y-42069170D01*
X63480290Y-42172694D01*
X63432641Y-42287728D01*
X63420380Y-42310667D01*
X63412830Y-42335555D01*
X63365181Y-42450590D01*
X63340890Y-42572711D01*
X63333340Y-42597600D01*
X63330790Y-42623486D01*
X63306500Y-42745604D01*
X63306500Y-42870110D01*
X63303950Y-42896000D01*
X63303950Y-44955920D01*
X61468100Y-44955920D01*
X64958409Y-38914070D01*
X65534080Y-38914070D01*
X65534080Y-39165862D01*
X65558483Y-39288543D01*
X65606350Y-39404105D01*
X65675843Y-39508109D01*
X65764291Y-39596557D01*
X65868295Y-39666050D01*
X65983857Y-39713917D01*
X66106538Y-39738320D01*
X66408330Y-39738320D01*
X66567080Y-39579570D01*
X66567080Y-38755320D01*
X65692830Y-38755320D01*
X65534080Y-38914070D01*
X64958409Y-38914070D01*
X65685515Y-37655425D01*
X65697919Y-37696317D01*
X65697919Y-37696317D01*
G37*
X65697919Y-37696317D02*
X65708417Y-37715957D01*
X65675843Y-37748531D01*
X65606350Y-37852535D01*
X65558483Y-37968097D01*
X65534080Y-38090778D01*
X65534080Y-38342570D01*
X65692830Y-38501320D01*
X66567080Y-38501320D01*
X66567080Y-38481320D01*
X66821080Y-38481320D01*
X66821080Y-38501320D01*
X66841080Y-38501320D01*
X66841080Y-38755320D01*
X66821080Y-38755320D01*
X66821080Y-39579570D01*
X66979830Y-39738320D01*
X67281622Y-39738320D01*
X67404303Y-39713917D01*
X67519865Y-39666050D01*
X67623869Y-39596557D01*
X67712317Y-39508109D01*
X67720678Y-39495595D01*
X67730430Y-39503598D01*
X67842080Y-39563276D01*
X67842080Y-40230683D01*
X67839169Y-40260240D01*
X67842080Y-40289796D01*
X67842080Y-40289805D01*
X67850791Y-40378251D01*
X67885214Y-40491729D01*
X67941114Y-40596310D01*
X68016343Y-40687977D01*
X68039314Y-40706829D01*
X69306900Y-41974417D01*
X69325743Y-41997377D01*
X69348703Y-42016220D01*
X69348707Y-42016224D01*
X69404396Y-42061926D01*
X69417409Y-42072606D01*
X69521990Y-42128506D01*
X69635468Y-42162929D01*
X69723914Y-42171640D01*
X69723923Y-42171640D01*
X69753479Y-42174551D01*
X69783036Y-42171640D01*
X70329625Y-42171640D01*
X70554035Y-42396051D01*
X70572883Y-42419017D01*
X70664549Y-42494246D01*
X70769130Y-42550146D01*
X70882608Y-42584569D01*
X70971054Y-42593280D01*
X70971063Y-42593280D01*
X71000619Y-42596191D01*
X71030176Y-42593280D01*
X73494650Y-42593280D01*
X73493340Y-42597600D01*
X73490790Y-42623486D01*
X73466500Y-42745604D01*
X73466500Y-42870110D01*
X73463950Y-42896000D01*
X73463950Y-44955920D01*
X66363050Y-44955920D01*
X66363050Y-42896000D01*
X66360500Y-42870110D01*
X66360500Y-42745604D01*
X66336210Y-42623486D01*
X66333660Y-42597600D01*
X66326110Y-42572711D01*
X66301819Y-42450590D01*
X66254170Y-42335555D01*
X66246620Y-42310667D01*
X66234359Y-42287728D01*
X66186710Y-42172694D01*
X66117538Y-42069170D01*
X66105275Y-42046228D01*
X66088773Y-42026120D01*
X66019599Y-41922594D01*
X65931550Y-41834545D01*
X65915055Y-41814446D01*
X65894956Y-41797951D01*
X65806906Y-41709901D01*
X65703379Y-41640727D01*
X65683273Y-41624226D01*
X65660333Y-41611964D01*
X65556806Y-41542790D01*
X65441768Y-41495139D01*
X65418834Y-41482881D01*
X65393951Y-41475333D01*
X65278910Y-41427681D01*
X65156783Y-41403389D01*
X65131901Y-41395841D01*
X65106023Y-41393292D01*
X64983896Y-41369000D01*
X64859381Y-41369000D01*
X64833501Y-41366451D01*
X64833499Y-41366451D01*
X64807619Y-41369000D01*
X64683104Y-41369000D01*
X64560977Y-41393292D01*
X64535099Y-41395841D01*
X64510217Y-41403389D01*
X64388090Y-41427681D01*
X64273049Y-41475333D01*
X64248166Y-41482881D01*
X64225232Y-41495139D01*
X64110194Y-41542790D01*
X64006667Y-41611964D01*
X63983727Y-41624226D01*
X63963621Y-41640727D01*
X63860094Y-41709901D01*
X63772044Y-41797951D01*
X63751945Y-41814446D01*
X63735450Y-41834545D01*
X63647401Y-41922594D01*
X63578227Y-42026120D01*
X63561725Y-42046228D01*
X63549462Y-42069170D01*
X63480290Y-42172694D01*
X63432641Y-42287728D01*
X63420380Y-42310667D01*
X63412830Y-42335555D01*
X63365181Y-42450590D01*
X63340890Y-42572711D01*
X63333340Y-42597600D01*
X63330790Y-42623486D01*
X63306500Y-42745604D01*
X63306500Y-42870110D01*
X63303950Y-42896000D01*
X63303950Y-44955920D01*
X61468100Y-44955920D01*
X64958409Y-38914070D01*
X65534080Y-38914070D01*
X65534080Y-39165862D01*
X65558483Y-39288543D01*
X65606350Y-39404105D01*
X65675843Y-39508109D01*
X65764291Y-39596557D01*
X65868295Y-39666050D01*
X65983857Y-39713917D01*
X66106538Y-39738320D01*
X66408330Y-39738320D01*
X66567080Y-39579570D01*
X66567080Y-38755320D01*
X65692830Y-38755320D01*
X65534080Y-38914070D01*
X64958409Y-38914070D01*
X65685515Y-37655425D01*
X65697919Y-37696317D01*
G36*
X71634737Y-29686263D02*
X71792184Y-29706723D01*
X71942294Y-29739589D01*
X72085316Y-29784141D01*
X72223787Y-29840122D01*
X72356680Y-29906392D01*
X72484793Y-29982921D01*
X72608032Y-30069126D01*
X72726850Y-30164926D01*
X72841746Y-30269832D01*
X72951596Y-30382350D01*
X73056428Y-30501957D01*
X73156454Y-30628310D01*
X73251382Y-30759291D01*
X73340147Y-30894252D01*
X73426390Y-31036803D01*
X74758055Y-33336898D01*
X74727128Y-33350911D01*
X74594711Y-33445799D01*
X74483351Y-33564697D01*
X74397327Y-33703036D01*
X74339944Y-33855500D01*
X74313407Y-34016229D01*
X74318737Y-34179046D01*
X74355728Y-34337695D01*
X74406114Y-34448896D01*
X74613499Y-34808098D01*
X74140657Y-35081115D01*
X73933262Y-34721897D01*
X73862151Y-34622661D01*
X73743253Y-34511301D01*
X73604914Y-34425277D01*
X73452450Y-34367894D01*
X73291721Y-34341357D01*
X73128904Y-34346687D01*
X72970255Y-34383678D01*
X72821872Y-34450911D01*
X72689455Y-34545799D01*
X72578095Y-34664697D01*
X72492071Y-34803036D01*
X72448802Y-34918000D01*
X71881909Y-34918000D01*
X71881909Y-34058519D01*
X71871734Y-33955209D01*
X71841599Y-33855869D01*
X71792664Y-33764317D01*
X71726808Y-33684071D01*
X71646562Y-33618215D01*
X71555010Y-33569280D01*
X71455670Y-33539145D01*
X71352360Y-33528970D01*
X70552360Y-33528970D01*
X70449050Y-33539145D01*
X70349710Y-33569280D01*
X70258158Y-33618215D01*
X70177912Y-33684071D01*
X70112056Y-33764317D01*
X70063121Y-33855869D01*
X70032986Y-33955209D01*
X70022811Y-34058519D01*
X70022811Y-34712420D01*
X69109436Y-34712420D01*
X69041388Y-34644372D01*
X68889559Y-34542924D01*
X68720856Y-34473044D01*
X68541761Y-34437420D01*
X68359159Y-34437420D01*
X68180064Y-34473044D01*
X68011361Y-34542924D01*
X67859532Y-34644372D01*
X67730412Y-34773492D01*
X67628964Y-34925321D01*
X67559084Y-35094024D01*
X67523460Y-35273119D01*
X67523460Y-35455721D01*
X67559084Y-35634816D01*
X67628964Y-35803519D01*
X67730412Y-35955348D01*
X67859532Y-36084468D01*
X67999227Y-36177808D01*
X67863043Y-36219119D01*
X67730430Y-36290002D01*
X67614194Y-36385394D01*
X67569080Y-36440366D01*
X67523966Y-36385394D01*
X67407730Y-36290002D01*
X67275117Y-36219119D01*
X67131224Y-36175470D01*
X66981580Y-36160731D01*
X66548983Y-36160731D01*
X69508257Y-31038122D01*
X69593902Y-30896105D01*
X69683122Y-30760828D01*
X69777828Y-30629374D01*
X69877764Y-30503249D01*
X69982425Y-30383855D01*
X70092639Y-30271302D01*
X70207615Y-30166329D01*
X70326881Y-30070394D01*
X70451347Y-29983204D01*
X70579433Y-29906203D01*
X70711531Y-29840018D01*
X70849636Y-29784301D01*
X70993504Y-29739651D01*
X71143912Y-29706724D01*
X71301362Y-29686263D01*
X71468050Y-29679197D01*
X71634737Y-29686263D01*
X71634737Y-29686263D01*
G37*
X71634737Y-29686263D02*
X71792184Y-29706723D01*
X71942294Y-29739589D01*
X72085316Y-29784141D01*
X72223787Y-29840122D01*
X72356680Y-29906392D01*
X72484793Y-29982921D01*
X72608032Y-30069126D01*
X72726850Y-30164926D01*
X72841746Y-30269832D01*
X72951596Y-30382350D01*
X73056428Y-30501957D01*
X73156454Y-30628310D01*
X73251382Y-30759291D01*
X73340147Y-30894252D01*
X73426390Y-31036803D01*
X74758055Y-33336898D01*
X74727128Y-33350911D01*
X74594711Y-33445799D01*
X74483351Y-33564697D01*
X74397327Y-33703036D01*
X74339944Y-33855500D01*
X74313407Y-34016229D01*
X74318737Y-34179046D01*
X74355728Y-34337695D01*
X74406114Y-34448896D01*
X74613499Y-34808098D01*
X74140657Y-35081115D01*
X73933262Y-34721897D01*
X73862151Y-34622661D01*
X73743253Y-34511301D01*
X73604914Y-34425277D01*
X73452450Y-34367894D01*
X73291721Y-34341357D01*
X73128904Y-34346687D01*
X72970255Y-34383678D01*
X72821872Y-34450911D01*
X72689455Y-34545799D01*
X72578095Y-34664697D01*
X72492071Y-34803036D01*
X72448802Y-34918000D01*
X71881909Y-34918000D01*
X71881909Y-34058519D01*
X71871734Y-33955209D01*
X71841599Y-33855869D01*
X71792664Y-33764317D01*
X71726808Y-33684071D01*
X71646562Y-33618215D01*
X71555010Y-33569280D01*
X71455670Y-33539145D01*
X71352360Y-33528970D01*
X70552360Y-33528970D01*
X70449050Y-33539145D01*
X70349710Y-33569280D01*
X70258158Y-33618215D01*
X70177912Y-33684071D01*
X70112056Y-33764317D01*
X70063121Y-33855869D01*
X70032986Y-33955209D01*
X70022811Y-34058519D01*
X70022811Y-34712420D01*
X69109436Y-34712420D01*
X69041388Y-34644372D01*
X68889559Y-34542924D01*
X68720856Y-34473044D01*
X68541761Y-34437420D01*
X68359159Y-34437420D01*
X68180064Y-34473044D01*
X68011361Y-34542924D01*
X67859532Y-34644372D01*
X67730412Y-34773492D01*
X67628964Y-34925321D01*
X67559084Y-35094024D01*
X67523460Y-35273119D01*
X67523460Y-35455721D01*
X67559084Y-35634816D01*
X67628964Y-35803519D01*
X67730412Y-35955348D01*
X67859532Y-36084468D01*
X67999227Y-36177808D01*
X67863043Y-36219119D01*
X67730430Y-36290002D01*
X67614194Y-36385394D01*
X67569080Y-36440366D01*
X67523966Y-36385394D01*
X67407730Y-36290002D01*
X67275117Y-36219119D01*
X67131224Y-36175470D01*
X66981580Y-36160731D01*
X66548983Y-36160731D01*
X69508257Y-31038122D01*
X69593902Y-30896105D01*
X69683122Y-30760828D01*
X69777828Y-30629374D01*
X69877764Y-30503249D01*
X69982425Y-30383855D01*
X70092639Y-30271302D01*
X70207615Y-30166329D01*
X70326881Y-30070394D01*
X70451347Y-29983204D01*
X70579433Y-29906203D01*
X70711531Y-29840018D01*
X70849636Y-29784301D01*
X70993504Y-29739651D01*
X71143912Y-29706724D01*
X71301362Y-29686263D01*
X71468050Y-29679197D01*
X71634737Y-29686263D01*
G04 #@! TD*
M02*
