G04 #@! TF.GenerationSoftware,KiCad,Pcbnew,5.0.1-33cea8e~68~ubuntu18.04.1*
G04 #@! TF.CreationDate,2018-11-19T14:12:30+01:00*
G04 #@! TF.ProjectId,Lulu_star_213,4C756C755F737461725F3231332E6B69,2.1.2*
G04 #@! TF.SameCoordinates,Original*
G04 #@! TF.FileFunction,Legend,Top*
G04 #@! TF.FilePolarity,Positive*
%FSLAX46Y46*%
G04 Gerber Fmt 4.6, Leading zero omitted, Abs format (unit mm)*
G04 Created by KiCad (PCBNEW 5.0.1-33cea8e~68~ubuntu18.04.1) date Mon 19 Nov 2018 02:12:30 PM CET*
%MOMM*%
%LPD*%
G01*
G04 APERTURE LIST*
%ADD10C,0.160000*%
%ADD11C,0.120000*%
G04 APERTURE END LIST*
D10*
X73682046Y-44847913D02*
X72982046Y-44847913D01*
X72982046Y-44581246D01*
X73015380Y-44514580D01*
X73048713Y-44481246D01*
X73115380Y-44447913D01*
X73215380Y-44447913D01*
X73282046Y-44481246D01*
X73315380Y-44514580D01*
X73348713Y-44581246D01*
X73348713Y-44847913D01*
X72982046Y-44214580D02*
X73682046Y-44047913D01*
X73182046Y-43914580D01*
X73682046Y-43781246D01*
X72982046Y-43614580D01*
X73682046Y-43347913D02*
X72982046Y-43347913D01*
X73482046Y-43114580D01*
X72982046Y-42881246D01*
X73682046Y-42881246D01*
X62792046Y-44957913D02*
X63492046Y-44724580D01*
X62792046Y-44491246D01*
X63425380Y-43857913D02*
X63458713Y-43891246D01*
X63492046Y-43991246D01*
X63492046Y-44057913D01*
X63458713Y-44157913D01*
X63392046Y-44224580D01*
X63325380Y-44257913D01*
X63192046Y-44291246D01*
X63092046Y-44291246D01*
X62958713Y-44257913D01*
X62892046Y-44224580D01*
X62825380Y-44157913D01*
X62792046Y-44057913D01*
X62792046Y-43991246D01*
X62825380Y-43891246D01*
X62858713Y-43857913D01*
X63425380Y-43157913D02*
X63458713Y-43191246D01*
X63492046Y-43291246D01*
X63492046Y-43357913D01*
X63458713Y-43457913D01*
X63392046Y-43524580D01*
X63325380Y-43557913D01*
X63192046Y-43591246D01*
X63092046Y-43591246D01*
X62958713Y-43557913D01*
X62892046Y-43524580D01*
X62825380Y-43457913D01*
X62792046Y-43357913D01*
X62792046Y-43291246D01*
X62825380Y-43191246D01*
X62858713Y-43157913D01*
X67930380Y-44491247D02*
X67897046Y-44557914D01*
X67897046Y-44657914D01*
X67930380Y-44757914D01*
X67997046Y-44824580D01*
X68063713Y-44857914D01*
X68197046Y-44891247D01*
X68297046Y-44891247D01*
X68430380Y-44857914D01*
X68497046Y-44824580D01*
X68563713Y-44757914D01*
X68597046Y-44657914D01*
X68597046Y-44591247D01*
X68563713Y-44491247D01*
X68530380Y-44457914D01*
X68297046Y-44457914D01*
X68297046Y-44591247D01*
X68597046Y-44157914D02*
X67897046Y-44157914D01*
X68597046Y-43757914D01*
X67897046Y-43757914D01*
X68597046Y-43424580D02*
X67897046Y-43424580D01*
X67897046Y-43257914D01*
X67930380Y-43157914D01*
X67997046Y-43091247D01*
X68063713Y-43057914D01*
X68197046Y-43024580D01*
X68297046Y-43024580D01*
X68430380Y-43057914D01*
X68497046Y-43091247D01*
X68563713Y-43157914D01*
X68597046Y-43257914D01*
X68597046Y-43424580D01*
D11*
G04 #@! TO.C,LED1*
X72829436Y-36328012D02*
X73269377Y-36074012D01*
X73489836Y-37471858D02*
X72829436Y-36328012D01*
X73929777Y-37217858D02*
X73489836Y-37471858D01*
G04 #@! TO.C,R3*
X67740347Y-39138320D02*
X67397813Y-39138320D01*
X67740347Y-38118320D02*
X67397813Y-38118320D01*
G04 #@! TO.C,T1*
X69372360Y-39688040D02*
X70302360Y-39688040D01*
X72532360Y-39688040D02*
X71602360Y-39688040D01*
X72532360Y-39688040D02*
X72532360Y-37528040D01*
X69372360Y-39688040D02*
X69372360Y-38228040D01*
G04 #@! TO.C,Q1*
X72532360Y-34748519D02*
X72532360Y-36208519D01*
X69372360Y-34748519D02*
X69372360Y-36908519D01*
X69372360Y-34748519D02*
X70302360Y-34748519D01*
X72532360Y-34748519D02*
X71602360Y-34748519D01*
G04 #@! TO.C,R1*
X67740347Y-37675280D02*
X67397813Y-37675280D01*
X67740347Y-36655280D02*
X67397813Y-36655280D01*
G04 #@! TD*
M02*
