G04 #@! TF.GenerationSoftware,KiCad,Pcbnew,5.0.1-33cea8e~68~ubuntu18.04.1*
G04 #@! TF.CreationDate,2018-11-19T12:32:52+01:00*
G04 #@! TF.ProjectId,Lulu_star_213,4C756C755F737461725F3231332E6B69,2.1.2*
G04 #@! TF.SameCoordinates,Original*
G04 #@! TF.FileFunction,Profile,NP*
%FSLAX46Y46*%
G04 Gerber Fmt 4.6, Leading zero omitted, Abs format (unit mm)*
G04 Created by KiCad (PCBNEW 5.0.1-33cea8e~68~ubuntu18.04.1) date Mon 19 Nov 2018 12:32:52 PM CET*
%MOMM*%
%LPD*%
G01*
G04 APERTURE LIST*
%ADD10C,0.010000*%
G04 APERTURE END LIST*
D10*
X69861200Y-29762230D02*
X70007200Y-29644790D01*
X73073490Y-29761030D02*
X73211740Y-29887260D01*
X72927830Y-29643590D02*
X73073490Y-29761030D01*
X71680370Y-29155720D02*
X71883520Y-29182120D01*
X71052580Y-29182120D02*
X71255730Y-29155720D01*
X70161330Y-29536820D02*
X70322850Y-29439720D01*
X70670970Y-29282720D02*
X70857530Y-29224820D01*
X70322850Y-29439720D02*
X70492500Y-29354720D01*
X72264420Y-29282720D02*
X72442520Y-29354720D01*
X71255730Y-29155720D02*
X71468050Y-29146720D01*
X76087480Y-34571340D02*
X72995460Y-36356660D01*
X73550240Y-37329720D02*
X74222820Y-36941060D01*
X72774050Y-29536020D02*
X72927830Y-29643590D01*
X70007200Y-29644790D02*
X70161330Y-29536820D01*
X69592040Y-30022140D02*
X69722940Y-29888460D01*
X70492500Y-29354720D02*
X70670970Y-29282720D01*
X73689230Y-30456870D02*
X73790130Y-30610280D01*
X72078550Y-29224820D02*
X72264420Y-29282720D01*
X70857530Y-29224820D02*
X71052580Y-29182120D01*
X72612170Y-29439320D02*
X72774050Y-29536020D01*
X73580590Y-30306970D02*
X73689230Y-30456870D01*
X73342250Y-30020940D02*
X73465280Y-30161310D01*
X73884230Y-30765820D02*
X76087480Y-34571340D01*
X73465280Y-30161310D02*
X73580590Y-30306970D01*
X72442520Y-29354720D02*
X72612170Y-29439320D01*
X72995460Y-36356660D02*
X73550240Y-37329720D01*
X60546380Y-45487920D02*
X69050080Y-30767710D01*
X69050080Y-30767710D02*
X69143880Y-30612170D01*
X79157100Y-45487920D02*
X60546380Y-45487920D01*
X69143880Y-30612170D02*
X69245060Y-30458760D01*
X69245060Y-30458760D02*
X69353300Y-30308520D01*
X74222820Y-36941060D02*
X79157100Y-45487920D01*
X69353300Y-30308520D02*
X69469000Y-30162500D01*
X69722940Y-29888460D02*
X69861200Y-29762230D01*
X73790130Y-30610280D02*
X73884230Y-30765820D01*
X71468050Y-29146720D02*
X71680370Y-29155720D01*
X73211740Y-29887260D02*
X73342250Y-30020940D01*
X71883520Y-29182120D02*
X72078550Y-29224820D01*
X69469000Y-30162500D02*
X69592040Y-30022140D01*
M02*
