M48
;DRILL file {KiCad 5.0.1-33cea8e~68~ubuntu18.04.1} date Mon 19 Nov 2018 12:33:30 PM CET
;FORMAT={-:-/ absolute / metric / decimal}
FMAT,2
METRIC,TZ
T1C0.300
T2C0.400
T3C0.500
T4C0.800
T5C0.900
T6C1.000
T7C1.400
%
G90
G05
M71
T1
X70.684Y-31.135
X70.765Y-31.788
X71.087Y-30.618
X71.284Y-32.19
X71.728Y-30.534
X71.944Y-32.102
X72.25Y-30.931
X72.34Y-31.579
T2
X68.45Y-35.364
X73.805Y-40.772
T3
X73.687Y-35.95
X75.593Y-34.85
T4
X62.293Y-44.18
X67.373Y-44.18
X72.453Y-44.18
X77.533Y-44.18
T5
X71.513Y-31.356
T6
X74.64Y-35.4
T7
X64.834Y-42.896
X64.834Y-45.496
X69.913Y-42.896
X69.913Y-45.496
X74.993Y-42.896
X74.993Y-45.496
T0
M30
