G04 #@! TF.GenerationSoftware,KiCad,Pcbnew,5.0.1-33cea8e~68~ubuntu18.04.1*
G04 #@! TF.CreationDate,2018-11-19T12:32:52+01:00*
G04 #@! TF.ProjectId,Lulu_star_213,4C756C755F737461725F3231332E6B69,2.1.2*
G04 #@! TF.SameCoordinates,Original*
G04 #@! TF.FileFunction,Copper,L2,Bot,Signal*
G04 #@! TF.FilePolarity,Positive*
%FSLAX46Y46*%
G04 Gerber Fmt 4.6, Leading zero omitted, Abs format (unit mm)*
G04 Created by KiCad (PCBNEW 5.0.1-33cea8e~68~ubuntu18.04.1) date Mon 19 Nov 2018 12:32:52 PM CET*
%MOMM*%
%LPD*%
G01*
G04 APERTURE LIST*
G04 #@! TA.AperFunction,Conductor*
%ADD10C,0.100000*%
G04 #@! TD*
G04 #@! TA.AperFunction,SMDPad,CuDef*
%ADD11C,1.425000*%
G04 #@! TD*
G04 #@! TA.AperFunction,ComponentPad*
%ADD12C,2.000000*%
G04 #@! TD*
G04 #@! TA.AperFunction,SMDPad,CuDef*
%ADD13C,2.000000*%
G04 #@! TD*
G04 #@! TA.AperFunction,SMDPad,CuDef*
%ADD14C,2.480000*%
G04 #@! TD*
G04 #@! TA.AperFunction,ViaPad*
%ADD15C,0.400000*%
G04 #@! TD*
G04 #@! TA.AperFunction,ViaPad*
%ADD16C,1.000000*%
G04 #@! TD*
G04 #@! TA.AperFunction,ComponentPad*
%ADD17C,0.600000*%
G04 #@! TD*
G04 #@! TA.AperFunction,Conductor*
%ADD18C,0.600000*%
G04 #@! TD*
G04 #@! TA.AperFunction,ComponentPad*
%ADD19C,1.100000*%
G04 #@! TD*
G04 #@! TA.AperFunction,Conductor*
%ADD20C,1.100000*%
G04 #@! TD*
G04 #@! TA.AperFunction,ViaPad*
%ADD21C,0.800000*%
G04 #@! TD*
G04 #@! TA.AperFunction,Conductor*
%ADD22C,0.250000*%
G04 #@! TD*
G04 #@! TA.AperFunction,Conductor*
%ADD23C,0.254000*%
G04 #@! TD*
G04 APERTURE END LIST*
D10*
G04 #@! TO.N,GND*
G04 #@! TO.C,R2*
G36*
X66095515Y-37964800D02*
X66119592Y-37969181D01*
X66143124Y-37975901D01*
X66165883Y-37984895D01*
X66187652Y-37996077D01*
X67271268Y-38621703D01*
X67291836Y-38634964D01*
X67311005Y-38650178D01*
X67328590Y-38667197D01*
X67344423Y-38685858D01*
X67358350Y-38705981D01*
X67370238Y-38727372D01*
X67379972Y-38749825D01*
X67387458Y-38773124D01*
X67392624Y-38797045D01*
X67395421Y-38821357D01*
X67395821Y-38845826D01*
X67393822Y-38870217D01*
X67389441Y-38894294D01*
X67382721Y-38917826D01*
X67373727Y-38940585D01*
X67362545Y-38962354D01*
X66899419Y-39764512D01*
X66886158Y-39785080D01*
X66870944Y-39804249D01*
X66853925Y-39821834D01*
X66835264Y-39837667D01*
X66815141Y-39851594D01*
X66793750Y-39863482D01*
X66771297Y-39873216D01*
X66747998Y-39880702D01*
X66724077Y-39885868D01*
X66699765Y-39888665D01*
X66675296Y-39889065D01*
X66650905Y-39887066D01*
X66626828Y-39882685D01*
X66603296Y-39875965D01*
X66580537Y-39866971D01*
X66558768Y-39855789D01*
X65475152Y-39230163D01*
X65454584Y-39216902D01*
X65435415Y-39201688D01*
X65417830Y-39184669D01*
X65401997Y-39166008D01*
X65388070Y-39145885D01*
X65376182Y-39124494D01*
X65366448Y-39102041D01*
X65358962Y-39078742D01*
X65353796Y-39054821D01*
X65350999Y-39030509D01*
X65350599Y-39006040D01*
X65352598Y-38981649D01*
X65356979Y-38957572D01*
X65363699Y-38934040D01*
X65372693Y-38911281D01*
X65383875Y-38889512D01*
X65847001Y-38087354D01*
X65860262Y-38066786D01*
X65875476Y-38047617D01*
X65892495Y-38030032D01*
X65911156Y-38014199D01*
X65931279Y-38000272D01*
X65952670Y-37988384D01*
X65975123Y-37978650D01*
X65998422Y-37971164D01*
X66022343Y-37965998D01*
X66046655Y-37963201D01*
X66071124Y-37962801D01*
X66095515Y-37964800D01*
X66095515Y-37964800D01*
G37*
D11*
G04 #@! TD*
G04 #@! TO.P,R2,2*
G04 #@! TO.N,GND*
X66373210Y-38925933D03*
D10*
G04 #@! TO.N,Net-(Q1-Pad2)*
G04 #@! TO.C,R2*
G36*
X67583325Y-35388609D02*
X67607463Y-35393001D01*
X67631054Y-35399737D01*
X67653871Y-35408754D01*
X67675694Y-35419964D01*
X68758226Y-36044964D01*
X68778845Y-36058258D01*
X68798062Y-36073510D01*
X68815692Y-36090572D01*
X68831564Y-36109280D01*
X68845527Y-36129453D01*
X68857444Y-36150898D01*
X68867202Y-36173407D01*
X68874707Y-36196765D01*
X68879887Y-36220746D01*
X68882691Y-36245119D01*
X68883092Y-36269650D01*
X68881087Y-36294102D01*
X68876695Y-36318239D01*
X68869959Y-36341830D01*
X68860942Y-36364647D01*
X68849732Y-36386470D01*
X68387232Y-37187544D01*
X68373938Y-37208163D01*
X68358686Y-37227380D01*
X68341624Y-37245010D01*
X68322916Y-37260882D01*
X68302743Y-37274845D01*
X68281298Y-37286762D01*
X68258789Y-37296520D01*
X68235431Y-37304025D01*
X68211450Y-37309205D01*
X68187077Y-37312009D01*
X68162546Y-37312410D01*
X68138095Y-37310405D01*
X68113957Y-37306013D01*
X68090366Y-37299277D01*
X68067549Y-37290260D01*
X68045726Y-37279050D01*
X66963194Y-36654050D01*
X66942575Y-36640756D01*
X66923358Y-36625504D01*
X66905728Y-36608442D01*
X66889856Y-36589734D01*
X66875893Y-36569561D01*
X66863976Y-36548116D01*
X66854218Y-36525607D01*
X66846713Y-36502249D01*
X66841533Y-36478268D01*
X66838729Y-36453895D01*
X66838328Y-36429364D01*
X66840333Y-36404912D01*
X66844725Y-36380775D01*
X66851461Y-36357184D01*
X66860478Y-36334367D01*
X66871688Y-36312544D01*
X67334188Y-35511470D01*
X67347482Y-35490851D01*
X67362734Y-35471634D01*
X67379796Y-35454004D01*
X67398504Y-35438132D01*
X67418677Y-35424169D01*
X67440122Y-35412252D01*
X67462631Y-35402494D01*
X67485989Y-35394989D01*
X67509970Y-35389809D01*
X67534343Y-35387005D01*
X67558874Y-35386604D01*
X67583325Y-35388609D01*
X67583325Y-35388609D01*
G37*
D11*
G04 #@! TD*
G04 #@! TO.P,R2,1*
G04 #@! TO.N,Net-(Q1-Pad2)*
X67860710Y-36349507D03*
D12*
G04 #@! TO.P,J1,3*
G04 #@! TO.N,/PWM*
X74993500Y-42896000D03*
X74993500Y-45496000D03*
G04 #@! TO.P,J1,2*
G04 #@! TO.N,GND*
X69913500Y-42896000D03*
X69913500Y-45496000D03*
G04 #@! TO.P,J1,1*
G04 #@! TO.N,+3V3*
X64833500Y-45496000D03*
X64833500Y-42896000D03*
D10*
G04 #@! TD*
G04 #@! TO.N,/PWM*
G04 #@! TO.C,J1*
G36*
X75091518Y-41900815D02*
X75188591Y-41915215D01*
X75283786Y-41939060D01*
X75376184Y-41972120D01*
X75464898Y-42014079D01*
X75549071Y-42064530D01*
X75627894Y-42122990D01*
X75700608Y-42188893D01*
X75766511Y-42261607D01*
X75824971Y-42340430D01*
X75875422Y-42424603D01*
X75917381Y-42513317D01*
X75950441Y-42605715D01*
X75974286Y-42700910D01*
X75988686Y-42797983D01*
X75993501Y-42896000D01*
X75993501Y-45496000D01*
X75988686Y-45594017D01*
X75974286Y-45691090D01*
X75950441Y-45786285D01*
X75917381Y-45878683D01*
X75875422Y-45967397D01*
X75824971Y-46051570D01*
X75766511Y-46130393D01*
X75700608Y-46203107D01*
X75627894Y-46269010D01*
X75549071Y-46327470D01*
X75464898Y-46377921D01*
X75376184Y-46419880D01*
X75283786Y-46452940D01*
X75188591Y-46476785D01*
X75091518Y-46491185D01*
X74993501Y-46496000D01*
X74993499Y-46496000D01*
X74895482Y-46491185D01*
X74798409Y-46476785D01*
X74703214Y-46452940D01*
X74610816Y-46419880D01*
X74522102Y-46377921D01*
X74437929Y-46327470D01*
X74359106Y-46269010D01*
X74286392Y-46203107D01*
X74220489Y-46130393D01*
X74162029Y-46051570D01*
X74111578Y-45967397D01*
X74069619Y-45878683D01*
X74036559Y-45786285D01*
X74012714Y-45691090D01*
X73998314Y-45594017D01*
X73993499Y-45496000D01*
X73993499Y-42896000D01*
X73998314Y-42797983D01*
X74012714Y-42700910D01*
X74036559Y-42605715D01*
X74069619Y-42513317D01*
X74111578Y-42424603D01*
X74162029Y-42340430D01*
X74220489Y-42261607D01*
X74286392Y-42188893D01*
X74359106Y-42122990D01*
X74437929Y-42064530D01*
X74522102Y-42014079D01*
X74610816Y-41972120D01*
X74703214Y-41939060D01*
X74798409Y-41915215D01*
X74895482Y-41900815D01*
X74993499Y-41896000D01*
X74993501Y-41896000D01*
X75091518Y-41900815D01*
X75091518Y-41900815D01*
G37*
D13*
G04 #@! TO.P,J1,3*
G04 #@! TO.N,/PWM*
X74993500Y-44196000D03*
D10*
G04 #@! TD*
G04 #@! TO.N,+3V3*
G04 #@! TO.C,J1*
G36*
X64931518Y-41900815D02*
X65028591Y-41915215D01*
X65123786Y-41939060D01*
X65216184Y-41972120D01*
X65304898Y-42014079D01*
X65389071Y-42064530D01*
X65467894Y-42122990D01*
X65540608Y-42188893D01*
X65606511Y-42261607D01*
X65664971Y-42340430D01*
X65715422Y-42424603D01*
X65757381Y-42513317D01*
X65790441Y-42605715D01*
X65814286Y-42700910D01*
X65828686Y-42797983D01*
X65833501Y-42896000D01*
X65833501Y-45496000D01*
X65828686Y-45594017D01*
X65814286Y-45691090D01*
X65790441Y-45786285D01*
X65757381Y-45878683D01*
X65715422Y-45967397D01*
X65664971Y-46051570D01*
X65606511Y-46130393D01*
X65540608Y-46203107D01*
X65467894Y-46269010D01*
X65389071Y-46327470D01*
X65304898Y-46377921D01*
X65216184Y-46419880D01*
X65123786Y-46452940D01*
X65028591Y-46476785D01*
X64931518Y-46491185D01*
X64833501Y-46496000D01*
X64833499Y-46496000D01*
X64735482Y-46491185D01*
X64638409Y-46476785D01*
X64543214Y-46452940D01*
X64450816Y-46419880D01*
X64362102Y-46377921D01*
X64277929Y-46327470D01*
X64199106Y-46269010D01*
X64126392Y-46203107D01*
X64060489Y-46130393D01*
X64002029Y-46051570D01*
X63951578Y-45967397D01*
X63909619Y-45878683D01*
X63876559Y-45786285D01*
X63852714Y-45691090D01*
X63838314Y-45594017D01*
X63833499Y-45496000D01*
X63833499Y-42896000D01*
X63838314Y-42797983D01*
X63852714Y-42700910D01*
X63876559Y-42605715D01*
X63909619Y-42513317D01*
X63951578Y-42424603D01*
X64002029Y-42340430D01*
X64060489Y-42261607D01*
X64126392Y-42188893D01*
X64199106Y-42122990D01*
X64277929Y-42064530D01*
X64362102Y-42014079D01*
X64450816Y-41972120D01*
X64543214Y-41939060D01*
X64638409Y-41915215D01*
X64735482Y-41900815D01*
X64833499Y-41896000D01*
X64833501Y-41896000D01*
X64931518Y-41900815D01*
X64931518Y-41900815D01*
G37*
D13*
G04 #@! TO.P,J1,1*
G04 #@! TO.N,+3V3*
X64833500Y-44196000D03*
D10*
G04 #@! TD*
G04 #@! TO.N,GND*
G04 #@! TO.C,J1*
G36*
X70011518Y-41900815D02*
X70108591Y-41915215D01*
X70203786Y-41939060D01*
X70296184Y-41972120D01*
X70384898Y-42014079D01*
X70469071Y-42064530D01*
X70547894Y-42122990D01*
X70620608Y-42188893D01*
X70686511Y-42261607D01*
X70744971Y-42340430D01*
X70795422Y-42424603D01*
X70837381Y-42513317D01*
X70870441Y-42605715D01*
X70894286Y-42700910D01*
X70908686Y-42797983D01*
X70913501Y-42896000D01*
X70913501Y-45496000D01*
X70908686Y-45594017D01*
X70894286Y-45691090D01*
X70870441Y-45786285D01*
X70837381Y-45878683D01*
X70795422Y-45967397D01*
X70744971Y-46051570D01*
X70686511Y-46130393D01*
X70620608Y-46203107D01*
X70547894Y-46269010D01*
X70469071Y-46327470D01*
X70384898Y-46377921D01*
X70296184Y-46419880D01*
X70203786Y-46452940D01*
X70108591Y-46476785D01*
X70011518Y-46491185D01*
X69913501Y-46496000D01*
X69913499Y-46496000D01*
X69815482Y-46491185D01*
X69718409Y-46476785D01*
X69623214Y-46452940D01*
X69530816Y-46419880D01*
X69442102Y-46377921D01*
X69357929Y-46327470D01*
X69279106Y-46269010D01*
X69206392Y-46203107D01*
X69140489Y-46130393D01*
X69082029Y-46051570D01*
X69031578Y-45967397D01*
X68989619Y-45878683D01*
X68956559Y-45786285D01*
X68932714Y-45691090D01*
X68918314Y-45594017D01*
X68913499Y-45496000D01*
X68913499Y-42896000D01*
X68918314Y-42797983D01*
X68932714Y-42700910D01*
X68956559Y-42605715D01*
X68989619Y-42513317D01*
X69031578Y-42424603D01*
X69082029Y-42340430D01*
X69140489Y-42261607D01*
X69206392Y-42188893D01*
X69279106Y-42122990D01*
X69357929Y-42064530D01*
X69442102Y-42014079D01*
X69530816Y-41972120D01*
X69623214Y-41939060D01*
X69718409Y-41915215D01*
X69815482Y-41900815D01*
X69913499Y-41896000D01*
X69913501Y-41896000D01*
X70011518Y-41900815D01*
X70011518Y-41900815D01*
G37*
D13*
G04 #@! TO.P,J1,2*
G04 #@! TO.N,GND*
X69913500Y-44196000D03*
G04 #@! TD*
D14*
G04 #@! TO.P,LED1,*
G04 #@! TO.N,GND*
X71513393Y-31356160D03*
D10*
G04 #@! TD*
G04 #@! TO.N,GND*
G04 #@! TO.C,LED1*
G36*
X71057673Y-30202938D02*
X71172903Y-30163823D01*
X71291412Y-30136191D01*
X71412058Y-30120307D01*
X71533681Y-30116327D01*
X71655109Y-30124285D01*
X71775171Y-30144108D01*
X71892712Y-30175603D01*
X72006601Y-30218467D01*
X72115739Y-30272289D01*
X72219078Y-30336548D01*
X72315619Y-30410626D01*
X72404435Y-30493811D01*
X72484669Y-30585301D01*
X72555549Y-30684215D01*
X72578657Y-30724239D01*
X72583935Y-30721191D01*
X74514335Y-34064742D01*
X73546465Y-34623542D01*
X72239374Y-32359594D01*
X72185338Y-32398316D01*
X72079954Y-32459160D01*
X71969113Y-32509382D01*
X71853883Y-32548497D01*
X71735374Y-32576129D01*
X71614728Y-32592013D01*
X71493105Y-32595993D01*
X71371677Y-32588035D01*
X71251615Y-32568212D01*
X71134074Y-32536717D01*
X71020185Y-32493853D01*
X70911047Y-32440031D01*
X70807708Y-32375772D01*
X70711167Y-32301694D01*
X70622351Y-32218509D01*
X70542117Y-32127019D01*
X70471237Y-32028105D01*
X70410393Y-31922721D01*
X70360171Y-31811880D01*
X70321056Y-31696650D01*
X70293424Y-31578141D01*
X70277540Y-31457495D01*
X70273560Y-31335872D01*
X70281518Y-31214444D01*
X70301341Y-31094382D01*
X70332836Y-30976841D01*
X70375700Y-30862952D01*
X70429522Y-30753814D01*
X70493781Y-30650475D01*
X70567859Y-30553934D01*
X70651044Y-30465118D01*
X70742534Y-30384884D01*
X70841448Y-30314004D01*
X70946832Y-30253160D01*
X71057673Y-30202938D01*
X71057673Y-30202938D01*
G37*
D15*
G04 #@! TO.N,GND*
G04 #@! TO.C,LED1*
X70765494Y-31787959D03*
D16*
X71513393Y-31356160D03*
D17*
G04 #@! TD*
G04 #@! TO.P,LED1,2*
G04 #@! TO.N,+3V3*
X75367628Y-34460289D03*
D18*
G04 #@! TO.N,+3V3*
G04 #@! TO.C,LED1*
X75142628Y-34070578D02*
X75592628Y-34850000D01*
D17*
G04 #@! TD*
G04 #@! TO.P,LED1,1*
G04 #@! TO.N,Net-(LED1-Pad1)*
X73462372Y-35560289D03*
D18*
G04 #@! TO.N,Net-(LED1-Pad1)*
G04 #@! TO.C,LED1*
X73237372Y-35170578D02*
X73687372Y-35950000D01*
D19*
G04 #@! TD*
G04 #@! TO.P,LED1,3*
G04 #@! TO.N,GND*
X74340000Y-34880385D03*
D20*
G04 #@! TO.N,GND*
G04 #@! TO.C,LED1*
X74040000Y-34360770D02*
X74640000Y-35400000D01*
D15*
X72250295Y-30930709D03*
X71944230Y-32102389D03*
X71086980Y-30617588D03*
X71727706Y-30533980D03*
X71283961Y-32190059D03*
X72339789Y-31578904D03*
X70683710Y-31135159D03*
G04 #@! TD*
D21*
G04 #@! TO.N,Net-(Q1-Pad2)*
X68450460Y-35364420D03*
D16*
G04 #@! TO.N,GND*
X67373500Y-44180000D03*
X77533500Y-44180000D03*
X62293500Y-44180000D03*
X72453500Y-44180000D03*
D21*
X73804780Y-40772080D03*
G04 #@! TD*
D22*
G04 #@! TO.N,Net-(Q1-Pad2)*
X68450460Y-35364420D02*
X67860710Y-36349507D01*
G04 #@! TO.N,+3V3*
X70205505Y-29908800D02*
X70341245Y-29813712D01*
X70341245Y-29813712D02*
X70482004Y-29729093D01*
X70080000Y-30010000D02*
X70080000Y-30009754D01*
X70628380Y-29655754D02*
X70642645Y-29650000D01*
X70482004Y-29729093D02*
X70628380Y-29655754D01*
X70080000Y-30009754D02*
X70205505Y-29908800D01*
X73600221Y-30933911D02*
X75340630Y-33940000D01*
X73317491Y-30506305D02*
X73417635Y-30644482D01*
X73099912Y-30245121D02*
X73211663Y-30372621D01*
X72982233Y-30124584D02*
X73099912Y-30245121D01*
X73417635Y-30644482D02*
X73510978Y-30786401D01*
X71284049Y-29484824D02*
X71468050Y-29477026D01*
X71826868Y-29507543D02*
X71994029Y-29544141D01*
X71109236Y-29507541D02*
X71284049Y-29484824D01*
X70941877Y-29544179D02*
X71109236Y-29507541D01*
X70781806Y-29593858D02*
X70941877Y-29544179D01*
X70650000Y-29650000D02*
X70654974Y-29645026D01*
X73211663Y-30372621D02*
X73317491Y-30506305D01*
X70654974Y-29645026D02*
X70781806Y-29593858D01*
X72729458Y-29907562D02*
X72858450Y-30011563D01*
X73510978Y-30786401D02*
X73600221Y-30933911D01*
X71468050Y-29477026D02*
X71652057Y-29484826D01*
X71652057Y-29484826D02*
X71826868Y-29507543D01*
X71994029Y-29544141D02*
X72153305Y-29593757D01*
X72453688Y-29729056D02*
X72594625Y-29813246D01*
X72153305Y-29593757D02*
X72306835Y-29655824D01*
X72306835Y-29655824D02*
X72453688Y-29729056D01*
X72594625Y-29813246D02*
X72729458Y-29907562D01*
X72858450Y-30011563D02*
X72982233Y-30124584D01*
X64833500Y-38726490D02*
X69334295Y-30935453D01*
X64833500Y-44196000D02*
X64833500Y-38726490D01*
X69423032Y-30788308D02*
X69516796Y-30646142D01*
X69516796Y-30646142D02*
X69616639Y-30507557D01*
X69952266Y-30125949D02*
X70076089Y-30012900D01*
X69334295Y-30935453D02*
X69423032Y-30788308D01*
X69616639Y-30507557D02*
X69722563Y-30373875D01*
X69722563Y-30373875D02*
X69834202Y-30246520D01*
X69834202Y-30246520D02*
X69952266Y-30125949D01*
G04 #@! TD*
D23*
G04 #@! TO.N,GND*
G36*
X64181500Y-41513254D02*
X64110194Y-41542790D01*
X64006667Y-41611964D01*
X63983727Y-41624226D01*
X63963621Y-41640727D01*
X63860094Y-41709901D01*
X63772044Y-41797951D01*
X63751945Y-41814446D01*
X63735450Y-41834545D01*
X63647401Y-41922594D01*
X63578227Y-42026120D01*
X63561725Y-42046228D01*
X63549462Y-42069170D01*
X63480290Y-42172694D01*
X63432641Y-42287728D01*
X63420380Y-42310667D01*
X63412830Y-42335555D01*
X63365181Y-42450590D01*
X63340890Y-42572711D01*
X63333340Y-42597600D01*
X63330790Y-42623486D01*
X63306500Y-42745604D01*
X63306500Y-42870110D01*
X63303950Y-42896000D01*
X63303950Y-44955920D01*
X61468100Y-44955920D01*
X64181501Y-40258927D01*
X64181500Y-41513254D01*
X64181500Y-41513254D01*
G37*
X64181500Y-41513254D02*
X64110194Y-41542790D01*
X64006667Y-41611964D01*
X63983727Y-41624226D01*
X63963621Y-41640727D01*
X63860094Y-41709901D01*
X63772044Y-41797951D01*
X63751945Y-41814446D01*
X63735450Y-41834545D01*
X63647401Y-41922594D01*
X63578227Y-42026120D01*
X63561725Y-42046228D01*
X63549462Y-42069170D01*
X63480290Y-42172694D01*
X63432641Y-42287728D01*
X63420380Y-42310667D01*
X63412830Y-42335555D01*
X63365181Y-42450590D01*
X63340890Y-42572711D01*
X63333340Y-42597600D01*
X63330790Y-42623486D01*
X63306500Y-42745604D01*
X63306500Y-42870110D01*
X63303950Y-42896000D01*
X63303950Y-44955920D01*
X61468100Y-44955920D01*
X64181501Y-40258927D01*
X64181500Y-41513254D01*
G36*
X71596138Y-30135041D02*
X71714924Y-30150478D01*
X71827045Y-30175025D01*
X71933789Y-30208277D01*
X72038755Y-30250711D01*
X72140574Y-30301485D01*
X72240130Y-30360956D01*
X72337519Y-30429080D01*
X72433624Y-30506566D01*
X72528781Y-30593450D01*
X72621138Y-30688049D01*
X72710581Y-30790097D01*
X72797700Y-30900148D01*
X72881024Y-31015117D01*
X72959494Y-31134424D01*
X73039116Y-31266031D01*
X74424628Y-33659132D01*
X74397327Y-33703036D01*
X74339944Y-33855500D01*
X74313407Y-34016229D01*
X74318737Y-34179046D01*
X74355728Y-34337695D01*
X74406114Y-34448896D01*
X74613499Y-34808098D01*
X74140657Y-35081115D01*
X73933262Y-34721897D01*
X73862151Y-34622661D01*
X73743253Y-34511301D01*
X73604914Y-34425277D01*
X73452450Y-34367894D01*
X73291721Y-34341357D01*
X73128904Y-34346687D01*
X72970255Y-34383678D01*
X72821872Y-34450911D01*
X72689455Y-34545799D01*
X72578095Y-34664697D01*
X72492071Y-34803036D01*
X72434688Y-34955500D01*
X72408151Y-35116229D01*
X72413481Y-35279046D01*
X72450472Y-35437695D01*
X72500858Y-35548896D01*
X72708270Y-35908144D01*
X72708079Y-35908280D01*
X72706813Y-35909011D01*
X72686727Y-35923406D01*
X72645177Y-35952840D01*
X72644166Y-35953907D01*
X72642978Y-35954759D01*
X72608170Y-35991926D01*
X72573126Y-36028937D01*
X72572346Y-36030176D01*
X72571343Y-36031247D01*
X72544415Y-36074554D01*
X72517306Y-36117627D01*
X72516782Y-36118996D01*
X72516008Y-36120241D01*
X72498059Y-36167934D01*
X72479860Y-36215503D01*
X72479613Y-36216948D01*
X72479097Y-36218320D01*
X72470793Y-36268626D01*
X72462229Y-36318805D01*
X72462269Y-36320268D01*
X72462030Y-36321716D01*
X72463700Y-36372666D01*
X72465089Y-36423559D01*
X72465414Y-36424988D01*
X72465462Y-36426453D01*
X72477027Y-36476041D01*
X72488332Y-36525744D01*
X72488930Y-36527084D01*
X72489263Y-36528510D01*
X72510229Y-36574779D01*
X72520355Y-36597454D01*
X72521078Y-36598723D01*
X72532515Y-36623962D01*
X72546961Y-36644120D01*
X73075906Y-37571868D01*
X73087389Y-37597185D01*
X73116911Y-37638349D01*
X73146419Y-37680003D01*
X73147559Y-37681082D01*
X73148463Y-37682343D01*
X73185461Y-37716969D01*
X73222516Y-37752054D01*
X73223838Y-37752886D01*
X73224976Y-37753951D01*
X73268130Y-37780763D01*
X73311206Y-37807874D01*
X73312664Y-37808432D01*
X73313989Y-37809255D01*
X73361569Y-37827142D01*
X73409082Y-37845320D01*
X73410621Y-37845583D01*
X73412082Y-37846132D01*
X73462268Y-37854397D01*
X73512384Y-37862951D01*
X73513944Y-37862908D01*
X73515484Y-37863162D01*
X73566281Y-37861480D01*
X73617139Y-37860091D01*
X73618662Y-37859745D01*
X73620219Y-37859693D01*
X73669708Y-37848134D01*
X73719324Y-37836848D01*
X73720748Y-37836212D01*
X73722268Y-37835857D01*
X73768630Y-37814830D01*
X73815011Y-37794117D01*
X73837699Y-37778045D01*
X74028187Y-37667968D01*
X78235672Y-44955920D01*
X76523050Y-44955920D01*
X76523050Y-42896000D01*
X76520500Y-42870110D01*
X76520500Y-42745604D01*
X76496210Y-42623486D01*
X76493660Y-42597600D01*
X76486110Y-42572711D01*
X76461819Y-42450590D01*
X76414170Y-42335555D01*
X76406620Y-42310667D01*
X76394359Y-42287728D01*
X76346710Y-42172694D01*
X76277538Y-42069170D01*
X76265275Y-42046228D01*
X76248773Y-42026120D01*
X76179599Y-41922594D01*
X76091550Y-41834545D01*
X76075055Y-41814446D01*
X76054956Y-41797951D01*
X75966906Y-41709901D01*
X75863379Y-41640727D01*
X75843273Y-41624226D01*
X75820333Y-41611964D01*
X75716806Y-41542790D01*
X75601768Y-41495139D01*
X75578834Y-41482881D01*
X75553951Y-41475333D01*
X75438910Y-41427681D01*
X75316783Y-41403389D01*
X75291901Y-41395841D01*
X75266023Y-41393292D01*
X75143896Y-41369000D01*
X75019381Y-41369000D01*
X74993501Y-41366451D01*
X74993499Y-41366451D01*
X74967619Y-41369000D01*
X74843104Y-41369000D01*
X74720977Y-41393292D01*
X74695099Y-41395841D01*
X74670217Y-41403389D01*
X74548090Y-41427681D01*
X74433049Y-41475333D01*
X74408166Y-41482881D01*
X74385232Y-41495139D01*
X74270194Y-41542790D01*
X74166667Y-41611964D01*
X74143727Y-41624226D01*
X74123621Y-41640727D01*
X74020094Y-41709901D01*
X73932044Y-41797951D01*
X73911945Y-41814446D01*
X73895450Y-41834545D01*
X73807401Y-41922594D01*
X73738227Y-42026120D01*
X73721725Y-42046228D01*
X73709462Y-42069170D01*
X73640290Y-42172694D01*
X73592641Y-42287728D01*
X73580380Y-42310667D01*
X73572830Y-42335555D01*
X73525181Y-42450590D01*
X73500890Y-42572711D01*
X73493340Y-42597600D01*
X73490790Y-42623486D01*
X73466500Y-42745604D01*
X73466500Y-42870110D01*
X73463950Y-42896000D01*
X73463950Y-44955920D01*
X66363050Y-44955920D01*
X66363050Y-42896000D01*
X66360500Y-42870110D01*
X66360500Y-42745604D01*
X66336210Y-42623486D01*
X66333660Y-42597600D01*
X66326110Y-42572711D01*
X66301819Y-42450590D01*
X66254170Y-42335555D01*
X66246620Y-42310667D01*
X66234359Y-42287728D01*
X66186710Y-42172694D01*
X66117538Y-42069170D01*
X66105275Y-42046228D01*
X66088773Y-42026120D01*
X66019599Y-41922594D01*
X65931550Y-41834545D01*
X65915055Y-41814446D01*
X65894956Y-41797951D01*
X65806906Y-41709901D01*
X65703379Y-41640727D01*
X65683273Y-41624226D01*
X65660333Y-41611964D01*
X65556806Y-41542790D01*
X65485500Y-41513254D01*
X65485500Y-40018921D01*
X65888820Y-40018921D01*
X65946927Y-40235777D01*
X66403069Y-40499131D01*
X66511395Y-40561673D01*
X66629842Y-40601880D01*
X66753855Y-40618207D01*
X66878671Y-40610026D01*
X66999494Y-40577652D01*
X67111678Y-40522329D01*
X67210913Y-40446182D01*
X67293387Y-40352139D01*
X67538033Y-39928400D01*
X67479927Y-39711543D01*
X66419695Y-39099418D01*
X65888820Y-40018921D01*
X65485500Y-40018921D01*
X65485500Y-39941049D01*
X65668850Y-39891921D01*
X66199725Y-38972418D01*
X66182404Y-38962418D01*
X66230306Y-38879448D01*
X66546695Y-38879448D01*
X67606927Y-39491573D01*
X67823783Y-39433466D01*
X68068429Y-39009727D01*
X68108636Y-38891281D01*
X68124963Y-38767267D01*
X68116783Y-38642451D01*
X68084408Y-38521629D01*
X68029085Y-38409444D01*
X67952939Y-38310209D01*
X67858895Y-38227735D01*
X67750569Y-38165193D01*
X67294427Y-37901839D01*
X67077570Y-37959945D01*
X66546695Y-38879448D01*
X66230306Y-38879448D01*
X66309404Y-38742448D01*
X66326725Y-38752448D01*
X66857600Y-37832945D01*
X66799493Y-37616089D01*
X66370892Y-37368636D01*
X66571722Y-37020992D01*
X66574202Y-37023640D01*
X66698420Y-37112653D01*
X67780952Y-37737653D01*
X67920148Y-37800723D01*
X68068975Y-37835424D01*
X68221711Y-37840424D01*
X68372488Y-37815530D01*
X68515512Y-37761700D01*
X68645286Y-37681002D01*
X68756822Y-37576536D01*
X68845835Y-37452318D01*
X69308335Y-36651244D01*
X69371404Y-36512048D01*
X69406106Y-36363221D01*
X69411106Y-36210485D01*
X69386212Y-36059708D01*
X69332382Y-35916684D01*
X69266805Y-35811228D01*
X69271956Y-35803519D01*
X69341836Y-35634816D01*
X69377460Y-35455721D01*
X69377460Y-35273119D01*
X69341836Y-35094024D01*
X69271956Y-34925321D01*
X69170508Y-34773492D01*
X69041388Y-34644372D01*
X68889559Y-34542924D01*
X68720856Y-34473044D01*
X68541761Y-34437420D01*
X68359159Y-34437420D01*
X68180064Y-34473044D01*
X68011361Y-34542924D01*
X67998190Y-34551725D01*
X69895804Y-31266887D01*
X69974561Y-31136291D01*
X70053669Y-31016347D01*
X70136924Y-30900786D01*
X70223527Y-30791488D01*
X70312641Y-30689829D01*
X70405356Y-30595146D01*
X70499643Y-30509062D01*
X70506233Y-30503654D01*
X70597303Y-30430399D01*
X70696681Y-30360783D01*
X70796467Y-30300796D01*
X70866725Y-30265594D01*
X70900716Y-30255283D01*
X70949067Y-30229438D01*
X71000776Y-30208578D01*
X71108527Y-30175136D01*
X71221169Y-30150477D01*
X71339962Y-30135039D01*
X71468051Y-30129611D01*
X71596138Y-30135041D01*
X71596138Y-30135041D01*
G37*
X71596138Y-30135041D02*
X71714924Y-30150478D01*
X71827045Y-30175025D01*
X71933789Y-30208277D01*
X72038755Y-30250711D01*
X72140574Y-30301485D01*
X72240130Y-30360956D01*
X72337519Y-30429080D01*
X72433624Y-30506566D01*
X72528781Y-30593450D01*
X72621138Y-30688049D01*
X72710581Y-30790097D01*
X72797700Y-30900148D01*
X72881024Y-31015117D01*
X72959494Y-31134424D01*
X73039116Y-31266031D01*
X74424628Y-33659132D01*
X74397327Y-33703036D01*
X74339944Y-33855500D01*
X74313407Y-34016229D01*
X74318737Y-34179046D01*
X74355728Y-34337695D01*
X74406114Y-34448896D01*
X74613499Y-34808098D01*
X74140657Y-35081115D01*
X73933262Y-34721897D01*
X73862151Y-34622661D01*
X73743253Y-34511301D01*
X73604914Y-34425277D01*
X73452450Y-34367894D01*
X73291721Y-34341357D01*
X73128904Y-34346687D01*
X72970255Y-34383678D01*
X72821872Y-34450911D01*
X72689455Y-34545799D01*
X72578095Y-34664697D01*
X72492071Y-34803036D01*
X72434688Y-34955500D01*
X72408151Y-35116229D01*
X72413481Y-35279046D01*
X72450472Y-35437695D01*
X72500858Y-35548896D01*
X72708270Y-35908144D01*
X72708079Y-35908280D01*
X72706813Y-35909011D01*
X72686727Y-35923406D01*
X72645177Y-35952840D01*
X72644166Y-35953907D01*
X72642978Y-35954759D01*
X72608170Y-35991926D01*
X72573126Y-36028937D01*
X72572346Y-36030176D01*
X72571343Y-36031247D01*
X72544415Y-36074554D01*
X72517306Y-36117627D01*
X72516782Y-36118996D01*
X72516008Y-36120241D01*
X72498059Y-36167934D01*
X72479860Y-36215503D01*
X72479613Y-36216948D01*
X72479097Y-36218320D01*
X72470793Y-36268626D01*
X72462229Y-36318805D01*
X72462269Y-36320268D01*
X72462030Y-36321716D01*
X72463700Y-36372666D01*
X72465089Y-36423559D01*
X72465414Y-36424988D01*
X72465462Y-36426453D01*
X72477027Y-36476041D01*
X72488332Y-36525744D01*
X72488930Y-36527084D01*
X72489263Y-36528510D01*
X72510229Y-36574779D01*
X72520355Y-36597454D01*
X72521078Y-36598723D01*
X72532515Y-36623962D01*
X72546961Y-36644120D01*
X73075906Y-37571868D01*
X73087389Y-37597185D01*
X73116911Y-37638349D01*
X73146419Y-37680003D01*
X73147559Y-37681082D01*
X73148463Y-37682343D01*
X73185461Y-37716969D01*
X73222516Y-37752054D01*
X73223838Y-37752886D01*
X73224976Y-37753951D01*
X73268130Y-37780763D01*
X73311206Y-37807874D01*
X73312664Y-37808432D01*
X73313989Y-37809255D01*
X73361569Y-37827142D01*
X73409082Y-37845320D01*
X73410621Y-37845583D01*
X73412082Y-37846132D01*
X73462268Y-37854397D01*
X73512384Y-37862951D01*
X73513944Y-37862908D01*
X73515484Y-37863162D01*
X73566281Y-37861480D01*
X73617139Y-37860091D01*
X73618662Y-37859745D01*
X73620219Y-37859693D01*
X73669708Y-37848134D01*
X73719324Y-37836848D01*
X73720748Y-37836212D01*
X73722268Y-37835857D01*
X73768630Y-37814830D01*
X73815011Y-37794117D01*
X73837699Y-37778045D01*
X74028187Y-37667968D01*
X78235672Y-44955920D01*
X76523050Y-44955920D01*
X76523050Y-42896000D01*
X76520500Y-42870110D01*
X76520500Y-42745604D01*
X76496210Y-42623486D01*
X76493660Y-42597600D01*
X76486110Y-42572711D01*
X76461819Y-42450590D01*
X76414170Y-42335555D01*
X76406620Y-42310667D01*
X76394359Y-42287728D01*
X76346710Y-42172694D01*
X76277538Y-42069170D01*
X76265275Y-42046228D01*
X76248773Y-42026120D01*
X76179599Y-41922594D01*
X76091550Y-41834545D01*
X76075055Y-41814446D01*
X76054956Y-41797951D01*
X75966906Y-41709901D01*
X75863379Y-41640727D01*
X75843273Y-41624226D01*
X75820333Y-41611964D01*
X75716806Y-41542790D01*
X75601768Y-41495139D01*
X75578834Y-41482881D01*
X75553951Y-41475333D01*
X75438910Y-41427681D01*
X75316783Y-41403389D01*
X75291901Y-41395841D01*
X75266023Y-41393292D01*
X75143896Y-41369000D01*
X75019381Y-41369000D01*
X74993501Y-41366451D01*
X74993499Y-41366451D01*
X74967619Y-41369000D01*
X74843104Y-41369000D01*
X74720977Y-41393292D01*
X74695099Y-41395841D01*
X74670217Y-41403389D01*
X74548090Y-41427681D01*
X74433049Y-41475333D01*
X74408166Y-41482881D01*
X74385232Y-41495139D01*
X74270194Y-41542790D01*
X74166667Y-41611964D01*
X74143727Y-41624226D01*
X74123621Y-41640727D01*
X74020094Y-41709901D01*
X73932044Y-41797951D01*
X73911945Y-41814446D01*
X73895450Y-41834545D01*
X73807401Y-41922594D01*
X73738227Y-42026120D01*
X73721725Y-42046228D01*
X73709462Y-42069170D01*
X73640290Y-42172694D01*
X73592641Y-42287728D01*
X73580380Y-42310667D01*
X73572830Y-42335555D01*
X73525181Y-42450590D01*
X73500890Y-42572711D01*
X73493340Y-42597600D01*
X73490790Y-42623486D01*
X73466500Y-42745604D01*
X73466500Y-42870110D01*
X73463950Y-42896000D01*
X73463950Y-44955920D01*
X66363050Y-44955920D01*
X66363050Y-42896000D01*
X66360500Y-42870110D01*
X66360500Y-42745604D01*
X66336210Y-42623486D01*
X66333660Y-42597600D01*
X66326110Y-42572711D01*
X66301819Y-42450590D01*
X66254170Y-42335555D01*
X66246620Y-42310667D01*
X66234359Y-42287728D01*
X66186710Y-42172694D01*
X66117538Y-42069170D01*
X66105275Y-42046228D01*
X66088773Y-42026120D01*
X66019599Y-41922594D01*
X65931550Y-41834545D01*
X65915055Y-41814446D01*
X65894956Y-41797951D01*
X65806906Y-41709901D01*
X65703379Y-41640727D01*
X65683273Y-41624226D01*
X65660333Y-41611964D01*
X65556806Y-41542790D01*
X65485500Y-41513254D01*
X65485500Y-40018921D01*
X65888820Y-40018921D01*
X65946927Y-40235777D01*
X66403069Y-40499131D01*
X66511395Y-40561673D01*
X66629842Y-40601880D01*
X66753855Y-40618207D01*
X66878671Y-40610026D01*
X66999494Y-40577652D01*
X67111678Y-40522329D01*
X67210913Y-40446182D01*
X67293387Y-40352139D01*
X67538033Y-39928400D01*
X67479927Y-39711543D01*
X66419695Y-39099418D01*
X65888820Y-40018921D01*
X65485500Y-40018921D01*
X65485500Y-39941049D01*
X65668850Y-39891921D01*
X66199725Y-38972418D01*
X66182404Y-38962418D01*
X66230306Y-38879448D01*
X66546695Y-38879448D01*
X67606927Y-39491573D01*
X67823783Y-39433466D01*
X68068429Y-39009727D01*
X68108636Y-38891281D01*
X68124963Y-38767267D01*
X68116783Y-38642451D01*
X68084408Y-38521629D01*
X68029085Y-38409444D01*
X67952939Y-38310209D01*
X67858895Y-38227735D01*
X67750569Y-38165193D01*
X67294427Y-37901839D01*
X67077570Y-37959945D01*
X66546695Y-38879448D01*
X66230306Y-38879448D01*
X66309404Y-38742448D01*
X66326725Y-38752448D01*
X66857600Y-37832945D01*
X66799493Y-37616089D01*
X66370892Y-37368636D01*
X66571722Y-37020992D01*
X66574202Y-37023640D01*
X66698420Y-37112653D01*
X67780952Y-37737653D01*
X67920148Y-37800723D01*
X68068975Y-37835424D01*
X68221711Y-37840424D01*
X68372488Y-37815530D01*
X68515512Y-37761700D01*
X68645286Y-37681002D01*
X68756822Y-37576536D01*
X68845835Y-37452318D01*
X69308335Y-36651244D01*
X69371404Y-36512048D01*
X69406106Y-36363221D01*
X69411106Y-36210485D01*
X69386212Y-36059708D01*
X69332382Y-35916684D01*
X69266805Y-35811228D01*
X69271956Y-35803519D01*
X69341836Y-35634816D01*
X69377460Y-35455721D01*
X69377460Y-35273119D01*
X69341836Y-35094024D01*
X69271956Y-34925321D01*
X69170508Y-34773492D01*
X69041388Y-34644372D01*
X68889559Y-34542924D01*
X68720856Y-34473044D01*
X68541761Y-34437420D01*
X68359159Y-34437420D01*
X68180064Y-34473044D01*
X68011361Y-34542924D01*
X67998190Y-34551725D01*
X69895804Y-31266887D01*
X69974561Y-31136291D01*
X70053669Y-31016347D01*
X70136924Y-30900786D01*
X70223527Y-30791488D01*
X70312641Y-30689829D01*
X70405356Y-30595146D01*
X70499643Y-30509062D01*
X70506233Y-30503654D01*
X70597303Y-30430399D01*
X70696681Y-30360783D01*
X70796467Y-30300796D01*
X70866725Y-30265594D01*
X70900716Y-30255283D01*
X70949067Y-30229438D01*
X71000776Y-30208578D01*
X71108527Y-30175136D01*
X71221169Y-30150477D01*
X71339962Y-30135039D01*
X71468051Y-30129611D01*
X71596138Y-30135041D01*
G04 #@! TD*
M02*
