G04 #@! TF.GenerationSoftware,KiCad,Pcbnew,5.0.1-33cea8e~68~ubuntu18.04.1*
G04 #@! TF.CreationDate,2018-11-19T14:12:30+01:00*
G04 #@! TF.ProjectId,Lulu_star_213,4C756C755F737461725F3231332E6B69,2.1.2*
G04 #@! TF.SameCoordinates,Original*
G04 #@! TF.FileFunction,Legend,Bot*
G04 #@! TF.FilePolarity,Positive*
%FSLAX46Y46*%
G04 Gerber Fmt 4.6, Leading zero omitted, Abs format (unit mm)*
G04 Created by KiCad (PCBNEW 5.0.1-33cea8e~68~ubuntu18.04.1) date Mon 19 Nov 2018 02:12:30 PM CET*
%MOMM*%
%LPD*%
G01*
G04 APERTURE LIST*
%ADD10C,0.160000*%
%ADD11C,0.120000*%
G04 APERTURE END LIST*
D10*
X62804746Y-43101406D02*
X63504746Y-43334740D01*
X62804746Y-43568073D01*
X63438080Y-44201406D02*
X63471413Y-44168073D01*
X63504746Y-44068073D01*
X63504746Y-44001406D01*
X63471413Y-43901406D01*
X63404746Y-43834740D01*
X63338080Y-43801406D01*
X63204746Y-43768073D01*
X63104746Y-43768073D01*
X62971413Y-43801406D01*
X62904746Y-43834740D01*
X62838080Y-43901406D01*
X62804746Y-44001406D01*
X62804746Y-44068073D01*
X62838080Y-44168073D01*
X62871413Y-44201406D01*
X63438080Y-44901406D02*
X63471413Y-44868073D01*
X63504746Y-44768073D01*
X63504746Y-44701406D01*
X63471413Y-44601406D01*
X63404746Y-44534740D01*
X63338080Y-44501406D01*
X63204746Y-44468073D01*
X63104746Y-44468073D01*
X62971413Y-44501406D01*
X62904746Y-44534740D01*
X62838080Y-44601406D01*
X62804746Y-44701406D01*
X62804746Y-44768073D01*
X62838080Y-44868073D01*
X62871413Y-44901406D01*
X73694746Y-42891406D02*
X72994746Y-42891406D01*
X72994746Y-43158073D01*
X73028080Y-43224740D01*
X73061413Y-43258073D01*
X73128080Y-43291406D01*
X73228080Y-43291406D01*
X73294746Y-43258073D01*
X73328080Y-43224740D01*
X73361413Y-43158073D01*
X73361413Y-42891406D01*
X72994746Y-43524740D02*
X73694746Y-43691406D01*
X73194746Y-43824740D01*
X73694746Y-43958073D01*
X72994746Y-44124740D01*
X73694746Y-44391406D02*
X72994746Y-44391406D01*
X73494746Y-44624740D01*
X72994746Y-44858073D01*
X73694746Y-44858073D01*
X67943080Y-43434740D02*
X67909746Y-43368074D01*
X67909746Y-43268074D01*
X67943080Y-43168074D01*
X68009746Y-43101407D01*
X68076413Y-43068074D01*
X68209746Y-43034740D01*
X68309746Y-43034740D01*
X68443080Y-43068074D01*
X68509746Y-43101407D01*
X68576413Y-43168074D01*
X68609746Y-43268074D01*
X68609746Y-43334740D01*
X68576413Y-43434740D01*
X68543080Y-43468074D01*
X68309746Y-43468074D01*
X68309746Y-43334740D01*
X68609746Y-43768074D02*
X67909746Y-43768074D01*
X68609746Y-44168074D01*
X67909746Y-44168074D01*
X68609746Y-44501407D02*
X67909746Y-44501407D01*
X67909746Y-44668074D01*
X67943080Y-44768074D01*
X68009746Y-44834740D01*
X68076413Y-44868074D01*
X68209746Y-44901407D01*
X68309746Y-44901407D01*
X68443080Y-44868074D01*
X68509746Y-44834740D01*
X68576413Y-44768074D01*
X68609746Y-44668074D01*
X68609746Y-44501407D01*
D11*
G04 #@! TO.C,R2*
X68206075Y-37571317D02*
X67604011Y-38614123D01*
X66629909Y-36661317D02*
X66027845Y-37704123D01*
X68215362Y-40388374D02*
X68584102Y-40216366D01*
X68561773Y-40588374D02*
X68911773Y-39982156D01*
X68680833Y-39848823D01*
X68606431Y-39844357D01*
X68560897Y-39856558D01*
X68498696Y-39897626D01*
X68448696Y-39984229D01*
X68444230Y-40058631D01*
X68456431Y-40104165D01*
X68497499Y-40166366D01*
X68728439Y-40299699D01*
X68301089Y-39706558D02*
X68288888Y-39661024D01*
X68247820Y-39598823D01*
X68103482Y-39515490D01*
X68029081Y-39511024D01*
X67983546Y-39523225D01*
X67921346Y-39564293D01*
X67888012Y-39622028D01*
X67866880Y-39725297D01*
X68013290Y-40271708D01*
X67638012Y-40055041D01*
G04 #@! TD*
M02*
