G04 #@! TF.GenerationSoftware,KiCad,Pcbnew,5.0.1-33cea8e~68~ubuntu18.04.1*
G04 #@! TF.CreationDate,2018-11-19T14:12:30+01:00*
G04 #@! TF.ProjectId,Lulu_star_213,4C756C755F737461725F3231332E6B69,2.1.2*
G04 #@! TF.SameCoordinates,Original*
G04 #@! TF.FileFunction,Soldermask,Top*
G04 #@! TF.FilePolarity,Negative*
%FSLAX46Y46*%
G04 Gerber Fmt 4.6, Leading zero omitted, Abs format (unit mm)*
G04 Created by KiCad (PCBNEW 5.0.1-33cea8e~68~ubuntu18.04.1) date Mon 19 Nov 2018 02:12:30 PM CET*
%MOMM*%
%LPD*%
G01*
G04 APERTURE LIST*
%ADD10C,0.100000*%
G04 APERTURE END LIST*
D10*
G36*
X64968630Y-41898672D02*
X65084549Y-41921729D01*
X65175542Y-41959419D01*
X65175546Y-41959421D01*
X65266538Y-41997111D01*
X65348429Y-42051829D01*
X65348431Y-42051830D01*
X65348433Y-42051832D01*
X65430323Y-42106549D01*
X65499962Y-42176188D01*
X65499968Y-42176193D01*
X65499973Y-42176199D01*
X65569611Y-42245837D01*
X65624327Y-42327726D01*
X65624331Y-42327730D01*
X65624334Y-42327735D01*
X65679049Y-42409622D01*
X65716737Y-42500610D01*
X65716741Y-42500617D01*
X65716744Y-42500627D01*
X65754431Y-42591611D01*
X65773644Y-42688203D01*
X65773647Y-42688213D01*
X65773647Y-42688215D01*
X65792860Y-42784807D01*
X65792860Y-42883290D01*
X65792861Y-42883300D01*
X65792861Y-45483290D01*
X65792860Y-45483310D01*
X65792860Y-45581793D01*
X65773647Y-45678385D01*
X65773646Y-45678390D01*
X65754431Y-45774989D01*
X65716743Y-45865976D01*
X65716741Y-45865983D01*
X65716738Y-45865989D01*
X65679049Y-45956978D01*
X65624334Y-46038865D01*
X65624331Y-46038870D01*
X65624327Y-46038874D01*
X65569611Y-46120763D01*
X65499973Y-46190401D01*
X65499968Y-46190407D01*
X65499962Y-46190412D01*
X65430323Y-46260051D01*
X65266538Y-46369489D01*
X65084549Y-46444871D01*
X64968630Y-46467928D01*
X64891353Y-46483300D01*
X64694367Y-46483300D01*
X64617090Y-46467928D01*
X64501171Y-46444871D01*
X64319182Y-46369489D01*
X64155397Y-46260051D01*
X64085758Y-46190412D01*
X64085752Y-46190407D01*
X64085747Y-46190401D01*
X64016109Y-46120763D01*
X63961393Y-46038874D01*
X63961389Y-46038870D01*
X63961386Y-46038865D01*
X63906671Y-45956978D01*
X63868982Y-45865989D01*
X63868979Y-45865983D01*
X63868977Y-45865976D01*
X63831289Y-45774989D01*
X63812074Y-45678390D01*
X63812073Y-45678385D01*
X63792860Y-45581793D01*
X63792860Y-45483310D01*
X63792859Y-45483290D01*
X63792859Y-42883300D01*
X63792860Y-42883290D01*
X63792860Y-42784807D01*
X63812073Y-42688215D01*
X63812073Y-42688213D01*
X63812076Y-42688203D01*
X63831289Y-42591611D01*
X63868976Y-42500627D01*
X63868979Y-42500617D01*
X63868983Y-42500610D01*
X63906671Y-42409622D01*
X63961386Y-42327735D01*
X63961389Y-42327730D01*
X63961393Y-42327726D01*
X64016109Y-42245837D01*
X64085747Y-42176199D01*
X64085752Y-42176193D01*
X64085758Y-42176188D01*
X64155397Y-42106549D01*
X64237287Y-42051832D01*
X64237289Y-42051830D01*
X64237291Y-42051829D01*
X64319182Y-41997111D01*
X64410174Y-41959421D01*
X64410178Y-41959419D01*
X64501171Y-41921729D01*
X64617090Y-41898672D01*
X64694367Y-41883300D01*
X64891353Y-41883300D01*
X64968630Y-41898672D01*
X64968630Y-41898672D01*
G37*
G36*
X75128630Y-41898672D02*
X75244549Y-41921729D01*
X75335542Y-41959419D01*
X75335546Y-41959421D01*
X75426538Y-41997111D01*
X75508429Y-42051829D01*
X75508431Y-42051830D01*
X75508433Y-42051832D01*
X75590323Y-42106549D01*
X75659962Y-42176188D01*
X75659968Y-42176193D01*
X75659973Y-42176199D01*
X75729611Y-42245837D01*
X75784327Y-42327726D01*
X75784331Y-42327730D01*
X75784334Y-42327735D01*
X75839049Y-42409622D01*
X75876737Y-42500610D01*
X75876741Y-42500617D01*
X75876744Y-42500627D01*
X75914431Y-42591611D01*
X75933644Y-42688203D01*
X75933647Y-42688213D01*
X75933647Y-42688215D01*
X75952860Y-42784807D01*
X75952860Y-42883290D01*
X75952861Y-42883300D01*
X75952861Y-45483290D01*
X75952860Y-45483310D01*
X75952860Y-45581793D01*
X75933647Y-45678385D01*
X75933646Y-45678390D01*
X75914431Y-45774989D01*
X75876743Y-45865976D01*
X75876741Y-45865983D01*
X75876738Y-45865989D01*
X75839049Y-45956978D01*
X75784334Y-46038865D01*
X75784331Y-46038870D01*
X75784327Y-46038874D01*
X75729611Y-46120763D01*
X75659973Y-46190401D01*
X75659968Y-46190407D01*
X75659962Y-46190412D01*
X75590323Y-46260051D01*
X75426538Y-46369489D01*
X75244549Y-46444871D01*
X75128630Y-46467928D01*
X75051353Y-46483300D01*
X74854367Y-46483300D01*
X74777090Y-46467928D01*
X74661171Y-46444871D01*
X74479182Y-46369489D01*
X74315397Y-46260051D01*
X74245758Y-46190412D01*
X74245752Y-46190407D01*
X74245747Y-46190401D01*
X74176109Y-46120763D01*
X74121393Y-46038874D01*
X74121389Y-46038870D01*
X74121386Y-46038865D01*
X74066671Y-45956978D01*
X74028982Y-45865989D01*
X74028979Y-45865983D01*
X74028977Y-45865976D01*
X73991289Y-45774989D01*
X73972074Y-45678390D01*
X73972073Y-45678385D01*
X73952860Y-45581793D01*
X73952860Y-45483310D01*
X73952859Y-45483290D01*
X73952859Y-42883300D01*
X73952860Y-42883290D01*
X73952860Y-42784807D01*
X73972073Y-42688215D01*
X73972073Y-42688213D01*
X73972076Y-42688203D01*
X73991289Y-42591611D01*
X74028976Y-42500627D01*
X74028979Y-42500617D01*
X74028983Y-42500610D01*
X74066671Y-42409622D01*
X74121386Y-42327735D01*
X74121389Y-42327730D01*
X74121393Y-42327726D01*
X74176109Y-42245837D01*
X74245747Y-42176199D01*
X74245752Y-42176193D01*
X74245758Y-42176188D01*
X74315397Y-42106549D01*
X74397287Y-42051832D01*
X74397289Y-42051830D01*
X74397291Y-42051829D01*
X74479182Y-41997111D01*
X74570174Y-41959421D01*
X74570178Y-41959419D01*
X74661171Y-41921729D01*
X74777090Y-41898672D01*
X74854367Y-41883300D01*
X75051353Y-41883300D01*
X75128630Y-41898672D01*
X75128630Y-41898672D01*
G37*
G36*
X70048630Y-41898672D02*
X70164549Y-41921729D01*
X70255542Y-41959419D01*
X70255546Y-41959421D01*
X70346538Y-41997111D01*
X70428429Y-42051829D01*
X70428431Y-42051830D01*
X70428433Y-42051832D01*
X70510323Y-42106549D01*
X70579962Y-42176188D01*
X70579968Y-42176193D01*
X70579973Y-42176199D01*
X70649611Y-42245837D01*
X70704327Y-42327726D01*
X70704331Y-42327730D01*
X70704334Y-42327735D01*
X70759049Y-42409622D01*
X70796737Y-42500610D01*
X70796741Y-42500617D01*
X70796744Y-42500627D01*
X70834431Y-42591611D01*
X70853644Y-42688203D01*
X70853647Y-42688213D01*
X70853647Y-42688215D01*
X70872860Y-42784807D01*
X70872860Y-42883290D01*
X70872861Y-42883300D01*
X70872861Y-45483290D01*
X70872860Y-45483310D01*
X70872860Y-45581793D01*
X70853647Y-45678385D01*
X70853646Y-45678390D01*
X70834431Y-45774989D01*
X70796743Y-45865976D01*
X70796741Y-45865983D01*
X70796738Y-45865989D01*
X70759049Y-45956978D01*
X70704334Y-46038865D01*
X70704331Y-46038870D01*
X70704327Y-46038874D01*
X70649611Y-46120763D01*
X70579973Y-46190401D01*
X70579968Y-46190407D01*
X70579962Y-46190412D01*
X70510323Y-46260051D01*
X70346538Y-46369489D01*
X70164549Y-46444871D01*
X70048630Y-46467928D01*
X69971353Y-46483300D01*
X69774367Y-46483300D01*
X69697090Y-46467928D01*
X69581171Y-46444871D01*
X69399182Y-46369489D01*
X69235397Y-46260051D01*
X69165758Y-46190412D01*
X69165752Y-46190407D01*
X69165747Y-46190401D01*
X69096109Y-46120763D01*
X69041393Y-46038874D01*
X69041389Y-46038870D01*
X69041386Y-46038865D01*
X68986671Y-45956978D01*
X68948982Y-45865989D01*
X68948979Y-45865983D01*
X68948977Y-45865976D01*
X68911289Y-45774989D01*
X68892074Y-45678390D01*
X68892073Y-45678385D01*
X68872860Y-45581793D01*
X68872860Y-45483310D01*
X68872859Y-45483290D01*
X68872859Y-42883300D01*
X68872860Y-42883290D01*
X68872860Y-42784807D01*
X68892073Y-42688215D01*
X68892073Y-42688213D01*
X68892076Y-42688203D01*
X68911289Y-42591611D01*
X68948976Y-42500627D01*
X68948979Y-42500617D01*
X68948983Y-42500610D01*
X68986671Y-42409622D01*
X69041386Y-42327735D01*
X69041389Y-42327730D01*
X69041393Y-42327726D01*
X69096109Y-42245837D01*
X69165747Y-42176199D01*
X69165752Y-42176193D01*
X69165758Y-42176188D01*
X69235397Y-42106549D01*
X69317287Y-42051832D01*
X69317289Y-42051830D01*
X69317291Y-42051829D01*
X69399182Y-41997111D01*
X69490174Y-41959421D01*
X69490178Y-41959419D01*
X69581171Y-41921729D01*
X69697090Y-41898672D01*
X69774367Y-41883300D01*
X69971353Y-41883300D01*
X70048630Y-41898672D01*
X70048630Y-41898672D01*
G37*
G36*
X75822776Y-37504031D02*
X76141256Y-37635950D01*
X76427880Y-37827466D01*
X76671634Y-38071220D01*
X76863150Y-38357844D01*
X76995069Y-38676324D01*
X77062320Y-39014420D01*
X77062320Y-39359140D01*
X76995069Y-39697236D01*
X76863150Y-40015716D01*
X76671634Y-40302340D01*
X76427880Y-40546094D01*
X76141256Y-40737610D01*
X75822776Y-40869529D01*
X75484680Y-40936780D01*
X75139960Y-40936780D01*
X74801864Y-40869529D01*
X74483384Y-40737610D01*
X74196760Y-40546094D01*
X73953006Y-40302340D01*
X73761490Y-40015716D01*
X73629571Y-39697236D01*
X73562320Y-39359140D01*
X73562320Y-39014420D01*
X73629571Y-38676324D01*
X73761490Y-38357844D01*
X73953006Y-38071220D01*
X74196760Y-37827466D01*
X74483384Y-37635950D01*
X74801864Y-37504031D01*
X75139960Y-37436780D01*
X75484680Y-37436780D01*
X75822776Y-37504031D01*
X75822776Y-37504031D01*
G37*
G36*
X71352360Y-40378040D02*
X70552360Y-40378040D01*
X70552360Y-39478040D01*
X71352360Y-39478040D01*
X71352360Y-40378040D01*
X71352360Y-40378040D01*
G37*
G36*
X67078104Y-38157275D02*
X67110816Y-38167199D01*
X67140970Y-38183317D01*
X67167396Y-38205004D01*
X67189083Y-38231430D01*
X67205201Y-38261584D01*
X67215125Y-38294296D01*
X67219080Y-38334458D01*
X67219080Y-38922182D01*
X67215125Y-38962344D01*
X67205201Y-38995056D01*
X67189083Y-39025210D01*
X67167396Y-39051636D01*
X67140970Y-39073323D01*
X67110816Y-39089441D01*
X67078104Y-39099365D01*
X67037942Y-39103320D01*
X66350218Y-39103320D01*
X66310056Y-39099365D01*
X66277344Y-39089441D01*
X66247190Y-39073323D01*
X66220764Y-39051636D01*
X66199077Y-39025210D01*
X66182959Y-38995056D01*
X66173035Y-38962344D01*
X66169080Y-38922182D01*
X66169080Y-38334458D01*
X66173035Y-38294296D01*
X66182959Y-38261584D01*
X66199077Y-38231430D01*
X66220764Y-38205004D01*
X66247190Y-38183317D01*
X66277344Y-38167199D01*
X66310056Y-38157275D01*
X66350218Y-38153320D01*
X67037942Y-38153320D01*
X67078104Y-38157275D01*
X67078104Y-38157275D01*
G37*
G36*
X68828104Y-38157275D02*
X68860816Y-38167199D01*
X68890970Y-38183317D01*
X68917396Y-38205004D01*
X68939083Y-38231430D01*
X68955201Y-38261584D01*
X68965125Y-38294296D01*
X68969080Y-38334458D01*
X68969080Y-38922182D01*
X68965125Y-38962344D01*
X68955201Y-38995056D01*
X68939083Y-39025210D01*
X68917396Y-39051636D01*
X68890970Y-39073323D01*
X68860816Y-39089441D01*
X68828104Y-39099365D01*
X68787942Y-39103320D01*
X68100218Y-39103320D01*
X68060056Y-39099365D01*
X68027344Y-39089441D01*
X67997190Y-39073323D01*
X67970764Y-39051636D01*
X67949077Y-39025210D01*
X67932959Y-38995056D01*
X67923035Y-38962344D01*
X67919080Y-38922182D01*
X67919080Y-38334458D01*
X67923035Y-38294296D01*
X67932959Y-38261584D01*
X67949077Y-38231430D01*
X67970764Y-38205004D01*
X67997190Y-38183317D01*
X68027344Y-38167199D01*
X68060056Y-38157275D01*
X68100218Y-38153320D01*
X68787942Y-38153320D01*
X68828104Y-38157275D01*
X68828104Y-38157275D01*
G37*
G36*
X72302360Y-38378040D02*
X71502360Y-38378040D01*
X71502360Y-37478040D01*
X72302360Y-37478040D01*
X72302360Y-38378040D01*
X72302360Y-38378040D01*
G37*
G36*
X70402360Y-38378040D02*
X69602360Y-38378040D01*
X69602360Y-37478040D01*
X70402360Y-37478040D01*
X70402360Y-38378040D01*
X70402360Y-38378040D01*
G37*
G36*
X67078104Y-36694235D02*
X67110816Y-36704159D01*
X67140970Y-36720277D01*
X67167396Y-36741964D01*
X67189083Y-36768390D01*
X67205201Y-36798544D01*
X67215125Y-36831256D01*
X67219080Y-36871418D01*
X67219080Y-37459142D01*
X67215125Y-37499304D01*
X67205201Y-37532016D01*
X67189083Y-37562170D01*
X67167396Y-37588596D01*
X67140970Y-37610283D01*
X67110816Y-37626401D01*
X67078104Y-37636325D01*
X67037942Y-37640280D01*
X66350218Y-37640280D01*
X66310056Y-37636325D01*
X66277344Y-37626401D01*
X66247190Y-37610283D01*
X66220764Y-37588596D01*
X66199077Y-37562170D01*
X66182959Y-37532016D01*
X66173035Y-37499304D01*
X66169080Y-37459142D01*
X66169080Y-36871418D01*
X66173035Y-36831256D01*
X66182959Y-36798544D01*
X66199077Y-36768390D01*
X66220764Y-36741964D01*
X66247190Y-36720277D01*
X66277344Y-36704159D01*
X66310056Y-36694235D01*
X66350218Y-36690280D01*
X67037942Y-36690280D01*
X67078104Y-36694235D01*
X67078104Y-36694235D01*
G37*
G36*
X68828104Y-36694235D02*
X68860816Y-36704159D01*
X68890970Y-36720277D01*
X68917396Y-36741964D01*
X68939083Y-36768390D01*
X68955201Y-36798544D01*
X68965125Y-36831256D01*
X68969080Y-36871418D01*
X68969080Y-37459142D01*
X68965125Y-37499304D01*
X68955201Y-37532016D01*
X68939083Y-37562170D01*
X68917396Y-37588596D01*
X68890970Y-37610283D01*
X68860816Y-37626401D01*
X68828104Y-37636325D01*
X68787942Y-37640280D01*
X68100218Y-37640280D01*
X68060056Y-37636325D01*
X68027344Y-37626401D01*
X67997190Y-37610283D01*
X67970764Y-37588596D01*
X67949077Y-37562170D01*
X67932959Y-37532016D01*
X67923035Y-37499304D01*
X67919080Y-37459142D01*
X67919080Y-36871418D01*
X67923035Y-36831256D01*
X67932959Y-36798544D01*
X67949077Y-36768390D01*
X67970764Y-36741964D01*
X67997190Y-36720277D01*
X68027344Y-36704159D01*
X68060056Y-36694235D01*
X68100218Y-36690280D01*
X68787942Y-36690280D01*
X68828104Y-36694235D01*
X68828104Y-36694235D01*
G37*
G36*
X72302360Y-36958519D02*
X71502360Y-36958519D01*
X71502360Y-36058519D01*
X72302360Y-36058519D01*
X72302360Y-36958519D01*
X72302360Y-36958519D01*
G37*
G36*
X70402360Y-36958519D02*
X69602360Y-36958519D01*
X69602360Y-36058519D01*
X70402360Y-36058519D01*
X70402360Y-36958519D01*
X70402360Y-36958519D01*
G37*
G36*
X73315389Y-34879398D02*
X73315391Y-34879399D01*
X73315393Y-34879399D01*
X73330606Y-34885125D01*
X73370700Y-34900215D01*
X73420883Y-34931421D01*
X73443909Y-34952987D01*
X73464015Y-34971818D01*
X73489813Y-35007819D01*
X73954545Y-35812758D01*
X73972825Y-35853101D01*
X73982749Y-35895667D01*
X73986243Y-35910654D01*
X73988177Y-35969718D01*
X73978552Y-36028017D01*
X73957734Y-36083329D01*
X73931641Y-36125288D01*
X73926528Y-36133511D01*
X73886132Y-36176642D01*
X73886129Y-36176645D01*
X73838099Y-36211063D01*
X73784273Y-36235451D01*
X73784271Y-36235451D01*
X73784270Y-36235452D01*
X73726719Y-36248871D01*
X73724720Y-36248936D01*
X73667654Y-36250805D01*
X73620945Y-36243093D01*
X73609350Y-36241179D01*
X73589797Y-36233819D01*
X73554042Y-36220363D01*
X73503860Y-36189156D01*
X73490502Y-36176645D01*
X73460728Y-36148760D01*
X73434930Y-36112759D01*
X72970198Y-35307818D01*
X72951919Y-35267476D01*
X72951918Y-35267472D01*
X72938500Y-35209927D01*
X72936567Y-35150861D01*
X72946192Y-35092561D01*
X72946193Y-35092559D01*
X72946193Y-35092557D01*
X72953182Y-35073988D01*
X72967009Y-35037250D01*
X72998215Y-34987067D01*
X73038614Y-34943933D01*
X73086645Y-34909515D01*
X73107168Y-34900216D01*
X73140474Y-34885125D01*
X73148370Y-34883284D01*
X73198023Y-34871706D01*
X73253669Y-34869885D01*
X73257087Y-34869773D01*
X73257089Y-34869773D01*
X73315389Y-34879398D01*
X73315389Y-34879398D01*
G37*
G36*
X71709296Y-30131716D02*
X71721467Y-30133726D01*
X71944412Y-30193464D01*
X71955960Y-30197810D01*
X72162950Y-30299886D01*
X72173444Y-30306412D01*
X72356542Y-30446909D01*
X72365551Y-30455347D01*
X72517728Y-30628871D01*
X72524915Y-30638900D01*
X72550322Y-30682908D01*
X72564595Y-30702826D01*
X72575072Y-30712639D01*
X72574947Y-30712773D01*
X72583934Y-30721191D01*
X72583935Y-30721191D01*
X72583936Y-30721193D01*
X72583937Y-30721194D01*
X72587529Y-30726206D01*
X74511788Y-34059122D01*
X74514335Y-34064742D01*
X74517008Y-34076207D01*
X74524884Y-34099411D01*
X74530487Y-34110321D01*
X75129823Y-35148398D01*
X75163331Y-35222353D01*
X75173851Y-35267472D01*
X75187933Y-35327866D01*
X75191478Y-35436146D01*
X75173829Y-35543039D01*
X75135667Y-35644435D01*
X75078455Y-35736439D01*
X75052273Y-35764393D01*
X75004395Y-35815512D01*
X74951939Y-35853101D01*
X74916329Y-35878619D01*
X74817650Y-35923330D01*
X74817648Y-35923330D01*
X74817647Y-35923331D01*
X74731451Y-35943429D01*
X74712133Y-35947933D01*
X74603854Y-35951478D01*
X74496961Y-35933829D01*
X74435385Y-35910654D01*
X74395564Y-35895667D01*
X74303561Y-35838455D01*
X74224487Y-35764395D01*
X74224485Y-35764393D01*
X74177196Y-35698402D01*
X73577863Y-34660324D01*
X73563590Y-34640406D01*
X73555058Y-34631590D01*
X73546465Y-34623542D01*
X73542871Y-34618526D01*
X72302673Y-32470439D01*
X72288400Y-32450521D01*
X72270515Y-32433770D01*
X72249706Y-32420830D01*
X72226772Y-32412198D01*
X72202595Y-32408207D01*
X72178104Y-32409008D01*
X72154240Y-32414573D01*
X72131920Y-32424686D01*
X72030773Y-32483084D01*
X72019528Y-32488178D01*
X71800982Y-32562364D01*
X71794974Y-32563765D01*
X71794968Y-32563767D01*
X71794961Y-32563768D01*
X71788961Y-32565167D01*
X71560126Y-32595294D01*
X71553966Y-32595496D01*
X71553962Y-32595496D01*
X71547792Y-32595698D01*
X71317490Y-32580604D01*
X71305319Y-32578594D01*
X71082374Y-32518856D01*
X71070826Y-32514510D01*
X70863836Y-32412434D01*
X70853342Y-32405908D01*
X70670244Y-32265411D01*
X70661235Y-32256973D01*
X70509054Y-32083445D01*
X70501870Y-32073420D01*
X70386469Y-31873540D01*
X70381375Y-31862295D01*
X70307189Y-31643749D01*
X70305788Y-31637741D01*
X70305786Y-31637735D01*
X70305785Y-31637728D01*
X70304386Y-31631728D01*
X70274259Y-31402893D01*
X70273855Y-31390559D01*
X70288949Y-31160257D01*
X70290959Y-31148086D01*
X70350697Y-30925141D01*
X70355043Y-30913593D01*
X70457119Y-30706603D01*
X70463645Y-30696109D01*
X70604142Y-30513011D01*
X70612580Y-30504002D01*
X70786108Y-30351821D01*
X70796133Y-30344637D01*
X70996013Y-30229236D01*
X71007258Y-30224142D01*
X71225804Y-30149956D01*
X71231812Y-30148555D01*
X71231818Y-30148553D01*
X71231825Y-30148552D01*
X71237825Y-30147153D01*
X71466660Y-30117026D01*
X71472820Y-30116824D01*
X71472824Y-30116824D01*
X71478994Y-30116622D01*
X71709296Y-30131716D01*
X71709296Y-30131716D01*
G37*
G36*
X75220645Y-33779398D02*
X75220647Y-33779399D01*
X75220649Y-33779399D01*
X75235862Y-33785125D01*
X75275956Y-33800215D01*
X75326139Y-33831421D01*
X75349165Y-33852987D01*
X75369271Y-33871818D01*
X75395069Y-33907819D01*
X75859801Y-34712758D01*
X75878081Y-34753101D01*
X75891499Y-34810652D01*
X75891499Y-34810654D01*
X75893433Y-34869718D01*
X75883808Y-34928017D01*
X75883807Y-34928019D01*
X75883807Y-34928020D01*
X75880759Y-34936118D01*
X75862990Y-34983329D01*
X75836897Y-35025288D01*
X75831784Y-35033511D01*
X75791388Y-35076642D01*
X75791385Y-35076645D01*
X75743355Y-35111063D01*
X75689529Y-35135451D01*
X75689527Y-35135451D01*
X75689526Y-35135452D01*
X75631975Y-35148871D01*
X75629976Y-35148936D01*
X75572910Y-35150805D01*
X75526201Y-35143093D01*
X75514606Y-35141179D01*
X75495053Y-35133819D01*
X75459298Y-35120363D01*
X75409116Y-35089156D01*
X75395758Y-35076645D01*
X75365984Y-35048760D01*
X75340186Y-35012759D01*
X74875454Y-34207818D01*
X74857175Y-34167476D01*
X74857174Y-34167472D01*
X74843756Y-34109927D01*
X74841823Y-34050861D01*
X74851448Y-33992561D01*
X74851449Y-33992559D01*
X74851449Y-33992557D01*
X74858438Y-33973988D01*
X74872265Y-33937250D01*
X74903471Y-33887067D01*
X74943870Y-33843933D01*
X74991901Y-33809515D01*
X75012424Y-33800216D01*
X75045730Y-33785125D01*
X75053626Y-33783284D01*
X75103279Y-33771706D01*
X75158925Y-33769885D01*
X75162343Y-33769773D01*
X75162345Y-33769773D01*
X75220645Y-33779398D01*
X75220645Y-33779398D01*
G37*
G36*
X71352360Y-34958519D02*
X70552360Y-34958519D01*
X70552360Y-34058519D01*
X71352360Y-34058519D01*
X71352360Y-34958519D01*
X71352360Y-34958519D01*
G37*
M02*
