G04 #@! TF.GenerationSoftware,KiCad,Pcbnew,5.0.1-33cea8e~68~ubuntu18.04.1*
G04 #@! TF.CreationDate,2018-11-19T12:32:52+01:00*
G04 #@! TF.ProjectId,Lulu_star_213,4C756C755F737461725F3231332E6B69,2.1.2*
G04 #@! TF.SameCoordinates,Original*
G04 #@! TF.FileFunction,Soldermask,Top*
G04 #@! TF.FilePolarity,Negative*
%FSLAX46Y46*%
G04 Gerber Fmt 4.6, Leading zero omitted, Abs format (unit mm)*
G04 Created by KiCad (PCBNEW 5.0.1-33cea8e~68~ubuntu18.04.1) date Mon 19 Nov 2018 12:32:52 PM CET*
%MOMM*%
%LPD*%
G01*
G04 APERTURE LIST*
%ADD10C,0.100000*%
G04 APERTURE END LIST*
D10*
G36*
X65009270Y-41911372D02*
X65125189Y-41934429D01*
X65216182Y-41972119D01*
X65216186Y-41972121D01*
X65307178Y-42009811D01*
X65389069Y-42064529D01*
X65389071Y-42064530D01*
X65389073Y-42064532D01*
X65470963Y-42119249D01*
X65540602Y-42188888D01*
X65540608Y-42188893D01*
X65540613Y-42188899D01*
X65610251Y-42258537D01*
X65664967Y-42340426D01*
X65664971Y-42340430D01*
X65664974Y-42340435D01*
X65719689Y-42422322D01*
X65757377Y-42513310D01*
X65757381Y-42513317D01*
X65757384Y-42513327D01*
X65795071Y-42604311D01*
X65814284Y-42700903D01*
X65814287Y-42700913D01*
X65814287Y-42700915D01*
X65833500Y-42797507D01*
X65833500Y-42895990D01*
X65833501Y-42896000D01*
X65833501Y-45495990D01*
X65833500Y-45496010D01*
X65833500Y-45594493D01*
X65814287Y-45691085D01*
X65814286Y-45691090D01*
X65795071Y-45787689D01*
X65757383Y-45878676D01*
X65757381Y-45878683D01*
X65757378Y-45878689D01*
X65719689Y-45969678D01*
X65664974Y-46051565D01*
X65664971Y-46051570D01*
X65664967Y-46051574D01*
X65610251Y-46133463D01*
X65540613Y-46203101D01*
X65540608Y-46203107D01*
X65540602Y-46203112D01*
X65470963Y-46272751D01*
X65307178Y-46382189D01*
X65125189Y-46457571D01*
X65009270Y-46480628D01*
X64931993Y-46496000D01*
X64735007Y-46496000D01*
X64657730Y-46480628D01*
X64541811Y-46457571D01*
X64359822Y-46382189D01*
X64196037Y-46272751D01*
X64126398Y-46203112D01*
X64126392Y-46203107D01*
X64126387Y-46203101D01*
X64056749Y-46133463D01*
X64002033Y-46051574D01*
X64002029Y-46051570D01*
X64002026Y-46051565D01*
X63947311Y-45969678D01*
X63909622Y-45878689D01*
X63909619Y-45878683D01*
X63909617Y-45878676D01*
X63871929Y-45787689D01*
X63852714Y-45691090D01*
X63852713Y-45691085D01*
X63833500Y-45594493D01*
X63833500Y-45496010D01*
X63833499Y-45495990D01*
X63833499Y-42896000D01*
X63833500Y-42895990D01*
X63833500Y-42797507D01*
X63852713Y-42700915D01*
X63852713Y-42700913D01*
X63852716Y-42700903D01*
X63871929Y-42604311D01*
X63909616Y-42513327D01*
X63909619Y-42513317D01*
X63909623Y-42513310D01*
X63947311Y-42422322D01*
X64002026Y-42340435D01*
X64002029Y-42340430D01*
X64002033Y-42340426D01*
X64056749Y-42258537D01*
X64126387Y-42188899D01*
X64126392Y-42188893D01*
X64126398Y-42188888D01*
X64196037Y-42119249D01*
X64277927Y-42064532D01*
X64277929Y-42064530D01*
X64277931Y-42064529D01*
X64359822Y-42009811D01*
X64450814Y-41972121D01*
X64450818Y-41972119D01*
X64541811Y-41934429D01*
X64657730Y-41911372D01*
X64735007Y-41896000D01*
X64931993Y-41896000D01*
X65009270Y-41911372D01*
X65009270Y-41911372D01*
G37*
G36*
X75169270Y-41911372D02*
X75285189Y-41934429D01*
X75376182Y-41972119D01*
X75376186Y-41972121D01*
X75467178Y-42009811D01*
X75549069Y-42064529D01*
X75549071Y-42064530D01*
X75549073Y-42064532D01*
X75630963Y-42119249D01*
X75700602Y-42188888D01*
X75700608Y-42188893D01*
X75700613Y-42188899D01*
X75770251Y-42258537D01*
X75824967Y-42340426D01*
X75824971Y-42340430D01*
X75824974Y-42340435D01*
X75879689Y-42422322D01*
X75917377Y-42513310D01*
X75917381Y-42513317D01*
X75917384Y-42513327D01*
X75955071Y-42604311D01*
X75974284Y-42700903D01*
X75974287Y-42700913D01*
X75974287Y-42700915D01*
X75993500Y-42797507D01*
X75993500Y-42895990D01*
X75993501Y-42896000D01*
X75993501Y-45495990D01*
X75993500Y-45496010D01*
X75993500Y-45594493D01*
X75974287Y-45691085D01*
X75974286Y-45691090D01*
X75955071Y-45787689D01*
X75917383Y-45878676D01*
X75917381Y-45878683D01*
X75917378Y-45878689D01*
X75879689Y-45969678D01*
X75824974Y-46051565D01*
X75824971Y-46051570D01*
X75824967Y-46051574D01*
X75770251Y-46133463D01*
X75700613Y-46203101D01*
X75700608Y-46203107D01*
X75700602Y-46203112D01*
X75630963Y-46272751D01*
X75467178Y-46382189D01*
X75285189Y-46457571D01*
X75169270Y-46480628D01*
X75091993Y-46496000D01*
X74895007Y-46496000D01*
X74817730Y-46480628D01*
X74701811Y-46457571D01*
X74519822Y-46382189D01*
X74356037Y-46272751D01*
X74286398Y-46203112D01*
X74286392Y-46203107D01*
X74286387Y-46203101D01*
X74216749Y-46133463D01*
X74162033Y-46051574D01*
X74162029Y-46051570D01*
X74162026Y-46051565D01*
X74107311Y-45969678D01*
X74069622Y-45878689D01*
X74069619Y-45878683D01*
X74069617Y-45878676D01*
X74031929Y-45787689D01*
X74012714Y-45691090D01*
X74012713Y-45691085D01*
X73993500Y-45594493D01*
X73993500Y-45496010D01*
X73993499Y-45495990D01*
X73993499Y-42896000D01*
X73993500Y-42895990D01*
X73993500Y-42797507D01*
X74012713Y-42700915D01*
X74012713Y-42700913D01*
X74012716Y-42700903D01*
X74031929Y-42604311D01*
X74069616Y-42513327D01*
X74069619Y-42513317D01*
X74069623Y-42513310D01*
X74107311Y-42422322D01*
X74162026Y-42340435D01*
X74162029Y-42340430D01*
X74162033Y-42340426D01*
X74216749Y-42258537D01*
X74286387Y-42188899D01*
X74286392Y-42188893D01*
X74286398Y-42188888D01*
X74356037Y-42119249D01*
X74437927Y-42064532D01*
X74437929Y-42064530D01*
X74437931Y-42064529D01*
X74519822Y-42009811D01*
X74610814Y-41972121D01*
X74610818Y-41972119D01*
X74701811Y-41934429D01*
X74817730Y-41911372D01*
X74895007Y-41896000D01*
X75091993Y-41896000D01*
X75169270Y-41911372D01*
X75169270Y-41911372D01*
G37*
G36*
X70089270Y-41911372D02*
X70205189Y-41934429D01*
X70296182Y-41972119D01*
X70296186Y-41972121D01*
X70387178Y-42009811D01*
X70469069Y-42064529D01*
X70469071Y-42064530D01*
X70469073Y-42064532D01*
X70550963Y-42119249D01*
X70620602Y-42188888D01*
X70620608Y-42188893D01*
X70620613Y-42188899D01*
X70690251Y-42258537D01*
X70744967Y-42340426D01*
X70744971Y-42340430D01*
X70744974Y-42340435D01*
X70799689Y-42422322D01*
X70837377Y-42513310D01*
X70837381Y-42513317D01*
X70837384Y-42513327D01*
X70875071Y-42604311D01*
X70894284Y-42700903D01*
X70894287Y-42700913D01*
X70894287Y-42700915D01*
X70913500Y-42797507D01*
X70913500Y-42895990D01*
X70913501Y-42896000D01*
X70913501Y-45495990D01*
X70913500Y-45496010D01*
X70913500Y-45594493D01*
X70894287Y-45691085D01*
X70894286Y-45691090D01*
X70875071Y-45787689D01*
X70837383Y-45878676D01*
X70837381Y-45878683D01*
X70837378Y-45878689D01*
X70799689Y-45969678D01*
X70744974Y-46051565D01*
X70744971Y-46051570D01*
X70744967Y-46051574D01*
X70690251Y-46133463D01*
X70620613Y-46203101D01*
X70620608Y-46203107D01*
X70620602Y-46203112D01*
X70550963Y-46272751D01*
X70387178Y-46382189D01*
X70205189Y-46457571D01*
X70089270Y-46480628D01*
X70011993Y-46496000D01*
X69815007Y-46496000D01*
X69737730Y-46480628D01*
X69621811Y-46457571D01*
X69439822Y-46382189D01*
X69276037Y-46272751D01*
X69206398Y-46203112D01*
X69206392Y-46203107D01*
X69206387Y-46203101D01*
X69136749Y-46133463D01*
X69082033Y-46051574D01*
X69082029Y-46051570D01*
X69082026Y-46051565D01*
X69027311Y-45969678D01*
X68989622Y-45878689D01*
X68989619Y-45878683D01*
X68989617Y-45878676D01*
X68951929Y-45787689D01*
X68932714Y-45691090D01*
X68932713Y-45691085D01*
X68913500Y-45594493D01*
X68913500Y-45496010D01*
X68913499Y-45495990D01*
X68913499Y-42896000D01*
X68913500Y-42895990D01*
X68913500Y-42797507D01*
X68932713Y-42700915D01*
X68932713Y-42700913D01*
X68932716Y-42700903D01*
X68951929Y-42604311D01*
X68989616Y-42513327D01*
X68989619Y-42513317D01*
X68989623Y-42513310D01*
X69027311Y-42422322D01*
X69082026Y-42340435D01*
X69082029Y-42340430D01*
X69082033Y-42340426D01*
X69136749Y-42258537D01*
X69206387Y-42188899D01*
X69206392Y-42188893D01*
X69206398Y-42188888D01*
X69276037Y-42119249D01*
X69357927Y-42064532D01*
X69357929Y-42064530D01*
X69357931Y-42064529D01*
X69439822Y-42009811D01*
X69530814Y-41972121D01*
X69530818Y-41972119D01*
X69621811Y-41934429D01*
X69737730Y-41911372D01*
X69815007Y-41896000D01*
X70011993Y-41896000D01*
X70089270Y-41911372D01*
X70089270Y-41911372D01*
G37*
G36*
X76310456Y-37867251D02*
X76628936Y-37999170D01*
X76915560Y-38190686D01*
X77159314Y-38434440D01*
X77350830Y-38721064D01*
X77482749Y-39039544D01*
X77550000Y-39377640D01*
X77550000Y-39722360D01*
X77482749Y-40060456D01*
X77350830Y-40378936D01*
X77159314Y-40665560D01*
X76915560Y-40909314D01*
X76628936Y-41100830D01*
X76310456Y-41232749D01*
X75972360Y-41300000D01*
X75627640Y-41300000D01*
X75289544Y-41232749D01*
X74971064Y-41100830D01*
X74684440Y-40909314D01*
X74440686Y-40665560D01*
X74249170Y-40378936D01*
X74117251Y-40060456D01*
X74050000Y-39722360D01*
X74050000Y-39377640D01*
X74117251Y-39039544D01*
X74249170Y-38721064D01*
X74440686Y-38434440D01*
X74684440Y-38190686D01*
X74971064Y-37999170D01*
X75289544Y-37867251D01*
X75627640Y-37800000D01*
X75972360Y-37800000D01*
X76310456Y-37867251D01*
X76310456Y-37867251D01*
G37*
G36*
X71352360Y-40378040D02*
X70552360Y-40378040D01*
X70552360Y-39478040D01*
X71352360Y-39478040D01*
X71352360Y-40378040D01*
X71352360Y-40378040D01*
G37*
G36*
X67078104Y-38157275D02*
X67110816Y-38167199D01*
X67140970Y-38183317D01*
X67167396Y-38205004D01*
X67189083Y-38231430D01*
X67205201Y-38261584D01*
X67215125Y-38294296D01*
X67219080Y-38334458D01*
X67219080Y-38922182D01*
X67215125Y-38962344D01*
X67205201Y-38995056D01*
X67189083Y-39025210D01*
X67167396Y-39051636D01*
X67140970Y-39073323D01*
X67110816Y-39089441D01*
X67078104Y-39099365D01*
X67037942Y-39103320D01*
X66350218Y-39103320D01*
X66310056Y-39099365D01*
X66277344Y-39089441D01*
X66247190Y-39073323D01*
X66220764Y-39051636D01*
X66199077Y-39025210D01*
X66182959Y-38995056D01*
X66173035Y-38962344D01*
X66169080Y-38922182D01*
X66169080Y-38334458D01*
X66173035Y-38294296D01*
X66182959Y-38261584D01*
X66199077Y-38231430D01*
X66220764Y-38205004D01*
X66247190Y-38183317D01*
X66277344Y-38167199D01*
X66310056Y-38157275D01*
X66350218Y-38153320D01*
X67037942Y-38153320D01*
X67078104Y-38157275D01*
X67078104Y-38157275D01*
G37*
G36*
X68828104Y-38157275D02*
X68860816Y-38167199D01*
X68890970Y-38183317D01*
X68917396Y-38205004D01*
X68939083Y-38231430D01*
X68955201Y-38261584D01*
X68965125Y-38294296D01*
X68969080Y-38334458D01*
X68969080Y-38922182D01*
X68965125Y-38962344D01*
X68955201Y-38995056D01*
X68939083Y-39025210D01*
X68917396Y-39051636D01*
X68890970Y-39073323D01*
X68860816Y-39089441D01*
X68828104Y-39099365D01*
X68787942Y-39103320D01*
X68100218Y-39103320D01*
X68060056Y-39099365D01*
X68027344Y-39089441D01*
X67997190Y-39073323D01*
X67970764Y-39051636D01*
X67949077Y-39025210D01*
X67932959Y-38995056D01*
X67923035Y-38962344D01*
X67919080Y-38922182D01*
X67919080Y-38334458D01*
X67923035Y-38294296D01*
X67932959Y-38261584D01*
X67949077Y-38231430D01*
X67970764Y-38205004D01*
X67997190Y-38183317D01*
X68027344Y-38167199D01*
X68060056Y-38157275D01*
X68100218Y-38153320D01*
X68787942Y-38153320D01*
X68828104Y-38157275D01*
X68828104Y-38157275D01*
G37*
G36*
X72302360Y-38378040D02*
X71502360Y-38378040D01*
X71502360Y-37478040D01*
X72302360Y-37478040D01*
X72302360Y-38378040D01*
X72302360Y-38378040D01*
G37*
G36*
X70402360Y-38378040D02*
X69602360Y-38378040D01*
X69602360Y-37478040D01*
X70402360Y-37478040D01*
X70402360Y-38378040D01*
X70402360Y-38378040D01*
G37*
G36*
X67078104Y-36694235D02*
X67110816Y-36704159D01*
X67140970Y-36720277D01*
X67167396Y-36741964D01*
X67189083Y-36768390D01*
X67205201Y-36798544D01*
X67215125Y-36831256D01*
X67219080Y-36871418D01*
X67219080Y-37459142D01*
X67215125Y-37499304D01*
X67205201Y-37532016D01*
X67189083Y-37562170D01*
X67167396Y-37588596D01*
X67140970Y-37610283D01*
X67110816Y-37626401D01*
X67078104Y-37636325D01*
X67037942Y-37640280D01*
X66350218Y-37640280D01*
X66310056Y-37636325D01*
X66277344Y-37626401D01*
X66247190Y-37610283D01*
X66220764Y-37588596D01*
X66199077Y-37562170D01*
X66182959Y-37532016D01*
X66173035Y-37499304D01*
X66169080Y-37459142D01*
X66169080Y-36871418D01*
X66173035Y-36831256D01*
X66182959Y-36798544D01*
X66199077Y-36768390D01*
X66220764Y-36741964D01*
X66247190Y-36720277D01*
X66277344Y-36704159D01*
X66310056Y-36694235D01*
X66350218Y-36690280D01*
X67037942Y-36690280D01*
X67078104Y-36694235D01*
X67078104Y-36694235D01*
G37*
G36*
X68828104Y-36694235D02*
X68860816Y-36704159D01*
X68890970Y-36720277D01*
X68917396Y-36741964D01*
X68939083Y-36768390D01*
X68955201Y-36798544D01*
X68965125Y-36831256D01*
X68969080Y-36871418D01*
X68969080Y-37459142D01*
X68965125Y-37499304D01*
X68955201Y-37532016D01*
X68939083Y-37562170D01*
X68917396Y-37588596D01*
X68890970Y-37610283D01*
X68860816Y-37626401D01*
X68828104Y-37636325D01*
X68787942Y-37640280D01*
X68100218Y-37640280D01*
X68060056Y-37636325D01*
X68027344Y-37626401D01*
X67997190Y-37610283D01*
X67970764Y-37588596D01*
X67949077Y-37562170D01*
X67932959Y-37532016D01*
X67923035Y-37499304D01*
X67919080Y-37459142D01*
X67919080Y-36871418D01*
X67923035Y-36831256D01*
X67932959Y-36798544D01*
X67949077Y-36768390D01*
X67970764Y-36741964D01*
X67997190Y-36720277D01*
X68027344Y-36704159D01*
X68060056Y-36694235D01*
X68100218Y-36690280D01*
X68787942Y-36690280D01*
X68828104Y-36694235D01*
X68828104Y-36694235D01*
G37*
G36*
X72302360Y-36958519D02*
X71502360Y-36958519D01*
X71502360Y-36058519D01*
X72302360Y-36058519D01*
X72302360Y-36958519D01*
X72302360Y-36958519D01*
G37*
G36*
X70402360Y-36958519D02*
X69602360Y-36958519D01*
X69602360Y-36058519D01*
X70402360Y-36058519D01*
X70402360Y-36958519D01*
X70402360Y-36958519D01*
G37*
G36*
X73315389Y-34879398D02*
X73315391Y-34879399D01*
X73315393Y-34879399D01*
X73330606Y-34885125D01*
X73370700Y-34900215D01*
X73420883Y-34931421D01*
X73443909Y-34952987D01*
X73464015Y-34971818D01*
X73489813Y-35007819D01*
X73954545Y-35812758D01*
X73972825Y-35853101D01*
X73982749Y-35895667D01*
X73986243Y-35910654D01*
X73988177Y-35969718D01*
X73978552Y-36028017D01*
X73957734Y-36083329D01*
X73931641Y-36125288D01*
X73926528Y-36133511D01*
X73886132Y-36176642D01*
X73886129Y-36176645D01*
X73838099Y-36211063D01*
X73784273Y-36235451D01*
X73784271Y-36235451D01*
X73784270Y-36235452D01*
X73726719Y-36248871D01*
X73724720Y-36248936D01*
X73667654Y-36250805D01*
X73620945Y-36243093D01*
X73609350Y-36241179D01*
X73589797Y-36233819D01*
X73554042Y-36220363D01*
X73503860Y-36189156D01*
X73490502Y-36176645D01*
X73460728Y-36148760D01*
X73434930Y-36112759D01*
X72970198Y-35307818D01*
X72951919Y-35267476D01*
X72951918Y-35267472D01*
X72938500Y-35209927D01*
X72936567Y-35150861D01*
X72946192Y-35092561D01*
X72946193Y-35092559D01*
X72946193Y-35092557D01*
X72953182Y-35073988D01*
X72967009Y-35037250D01*
X72998215Y-34987067D01*
X73038614Y-34943933D01*
X73086645Y-34909515D01*
X73107168Y-34900216D01*
X73140474Y-34885125D01*
X73148370Y-34883284D01*
X73198023Y-34871706D01*
X73253669Y-34869885D01*
X73257087Y-34869773D01*
X73257089Y-34869773D01*
X73315389Y-34879398D01*
X73315389Y-34879398D01*
G37*
G36*
X71709296Y-30131716D02*
X71721467Y-30133726D01*
X71944412Y-30193464D01*
X71955960Y-30197810D01*
X72162950Y-30299886D01*
X72173444Y-30306412D01*
X72356542Y-30446909D01*
X72365551Y-30455347D01*
X72517728Y-30628871D01*
X72524915Y-30638900D01*
X72550322Y-30682908D01*
X72564595Y-30702826D01*
X72575072Y-30712639D01*
X72574947Y-30712773D01*
X72583934Y-30721191D01*
X72583935Y-30721191D01*
X72583936Y-30721193D01*
X72583937Y-30721194D01*
X72587529Y-30726206D01*
X74511788Y-34059122D01*
X74514335Y-34064742D01*
X74517008Y-34076207D01*
X74524884Y-34099411D01*
X74530487Y-34110321D01*
X75129823Y-35148398D01*
X75163331Y-35222353D01*
X75173851Y-35267472D01*
X75187933Y-35327866D01*
X75191478Y-35436146D01*
X75173829Y-35543039D01*
X75135667Y-35644435D01*
X75078455Y-35736439D01*
X75052273Y-35764393D01*
X75004395Y-35815512D01*
X74951939Y-35853101D01*
X74916329Y-35878619D01*
X74817650Y-35923330D01*
X74817648Y-35923330D01*
X74817647Y-35923331D01*
X74731451Y-35943429D01*
X74712133Y-35947933D01*
X74603854Y-35951478D01*
X74496961Y-35933829D01*
X74435385Y-35910654D01*
X74395564Y-35895667D01*
X74303561Y-35838455D01*
X74224487Y-35764395D01*
X74224485Y-35764393D01*
X74177196Y-35698402D01*
X73577863Y-34660324D01*
X73563590Y-34640406D01*
X73555058Y-34631590D01*
X73546465Y-34623542D01*
X73542871Y-34618526D01*
X72302673Y-32470439D01*
X72288400Y-32450521D01*
X72270515Y-32433770D01*
X72249706Y-32420830D01*
X72226772Y-32412198D01*
X72202595Y-32408207D01*
X72178104Y-32409008D01*
X72154240Y-32414573D01*
X72131920Y-32424686D01*
X72030773Y-32483084D01*
X72019528Y-32488178D01*
X71800982Y-32562364D01*
X71794974Y-32563765D01*
X71794968Y-32563767D01*
X71794961Y-32563768D01*
X71788961Y-32565167D01*
X71560126Y-32595294D01*
X71553966Y-32595496D01*
X71553962Y-32595496D01*
X71547792Y-32595698D01*
X71317490Y-32580604D01*
X71305319Y-32578594D01*
X71082374Y-32518856D01*
X71070826Y-32514510D01*
X70863836Y-32412434D01*
X70853342Y-32405908D01*
X70670244Y-32265411D01*
X70661235Y-32256973D01*
X70509054Y-32083445D01*
X70501870Y-32073420D01*
X70386469Y-31873540D01*
X70381375Y-31862295D01*
X70307189Y-31643749D01*
X70305788Y-31637741D01*
X70305786Y-31637735D01*
X70305785Y-31637728D01*
X70304386Y-31631728D01*
X70274259Y-31402893D01*
X70273855Y-31390559D01*
X70288949Y-31160257D01*
X70290959Y-31148086D01*
X70350697Y-30925141D01*
X70355043Y-30913593D01*
X70457119Y-30706603D01*
X70463645Y-30696109D01*
X70604142Y-30513011D01*
X70612580Y-30504002D01*
X70786108Y-30351821D01*
X70796133Y-30344637D01*
X70996013Y-30229236D01*
X71007258Y-30224142D01*
X71225804Y-30149956D01*
X71231812Y-30148555D01*
X71231818Y-30148553D01*
X71231825Y-30148552D01*
X71237825Y-30147153D01*
X71466660Y-30117026D01*
X71472820Y-30116824D01*
X71472824Y-30116824D01*
X71478994Y-30116622D01*
X71709296Y-30131716D01*
X71709296Y-30131716D01*
G37*
G36*
X75220645Y-33779398D02*
X75220647Y-33779399D01*
X75220649Y-33779399D01*
X75235862Y-33785125D01*
X75275956Y-33800215D01*
X75326139Y-33831421D01*
X75349165Y-33852987D01*
X75369271Y-33871818D01*
X75395069Y-33907819D01*
X75859801Y-34712758D01*
X75878081Y-34753101D01*
X75891499Y-34810652D01*
X75891499Y-34810654D01*
X75893433Y-34869718D01*
X75883808Y-34928017D01*
X75883807Y-34928019D01*
X75883807Y-34928020D01*
X75880759Y-34936118D01*
X75862990Y-34983329D01*
X75836897Y-35025288D01*
X75831784Y-35033511D01*
X75791388Y-35076642D01*
X75791385Y-35076645D01*
X75743355Y-35111063D01*
X75689529Y-35135451D01*
X75689527Y-35135451D01*
X75689526Y-35135452D01*
X75631975Y-35148871D01*
X75629976Y-35148936D01*
X75572910Y-35150805D01*
X75526201Y-35143093D01*
X75514606Y-35141179D01*
X75495053Y-35133819D01*
X75459298Y-35120363D01*
X75409116Y-35089156D01*
X75395758Y-35076645D01*
X75365984Y-35048760D01*
X75340186Y-35012759D01*
X74875454Y-34207818D01*
X74857175Y-34167476D01*
X74857174Y-34167472D01*
X74843756Y-34109927D01*
X74841823Y-34050861D01*
X74851448Y-33992561D01*
X74851449Y-33992559D01*
X74851449Y-33992557D01*
X74858438Y-33973988D01*
X74872265Y-33937250D01*
X74903471Y-33887067D01*
X74943870Y-33843933D01*
X74991901Y-33809515D01*
X75012424Y-33800216D01*
X75045730Y-33785125D01*
X75053626Y-33783284D01*
X75103279Y-33771706D01*
X75158925Y-33769885D01*
X75162343Y-33769773D01*
X75162345Y-33769773D01*
X75220645Y-33779398D01*
X75220645Y-33779398D01*
G37*
G36*
X71352360Y-34958519D02*
X70552360Y-34958519D01*
X70552360Y-34058519D01*
X71352360Y-34058519D01*
X71352360Y-34958519D01*
X71352360Y-34958519D01*
G37*
M02*
