999
dxfrw 0.6.3
  0
SECTION
  2
HEADER
  9
$ACADVER
  1
AC1009
  9
$DWGCODEPAGE
  3
ANSI_932
  9
$INSBASE
 10
0
 20
0
 30
0
  9
$EXTMIN
 10
69.08181274406708
 20
-124.6841205417338
 30
0
  9
$EXTMAX
 10
85.74619653162205
 20
-109.7406645067992
 30
0
  9
$LIMMIN
 10
0
 20
0
  9
$LIMMAX
 10
12
 20
9
  9
$ORTHOMODE
 70
    0
  9
$REGENMODE
 70
    1
  9
$FILLMODE
 70
    1
  9
$QTEXTMODE
 70
    0
  9
$MIRRTEXT
 70
    1
  9
$DRAGMODE
 70
    2
  9
$LTSCALE
 40
1
  9
$OSMODE
 70
    0
  9
$ATTMODE
 70
    1
  9
$TEXTSIZE
 40
0.2
  9
$TRACEWID
 40
0.05
  9
$TEXTSTYLE
  7
STANDARD
  9
$CLAYER
  8
0
  9
$CELTYPE
  6
BYLAYER
  9
$CECOLOR
 62
  256
  9
$DIMSCALE
 40
1
  9
$DIMASZ
 40
0.18
  9
$DIMEXO
 40
0.0625
  9
$DIMDLI
 40
0.38
  9
$DIMRND
 40
0
  9
$DIMDLE
 40
0
  9
$DIMEXE
 40
0.18
  9
$DIMTP
 40
0
  9
$DIMTM
 40
0
  9
$DIMTXT
 40
0.18
  9
$DIMCEN
 40
0.09
  9
$DIMTSZ
 40
0
  9
$DIMTOL
 70
    0
  9
$DIMLIM
 70
    0
  9
$DIMTIH
 70
    1
  9
$DIMTOH
 70
    1
  9
$DIMSE1
 70
    0
  9
$DIMSE2
 70
    0
  9
$DIMTAD
 70
    0
  9
$DIMZIN
 70
    0
  9
$DIMBLK
  1

  9
$DIMASO
 70
    1
  9
$DIMSHO
 70
    1
  9
$DIMPOST
  1

  9
$DIMAPOST
  1

  9
$DIMALT
 70
    0
  9
$DIMALTD
 70
    2
  9
$DIMALTF
 40
25.4
  9
$DIMLFAC
 40
1
  9
$DIMTOFL
 70
    0
  9
$DIMTVP
 40
0
  9
$DIMTIX
 70
    0
  9
$DIMSOXD
 70
    0
  9
$DIMSAH
 70
    0
  9
$DIMBLK1
  1

  9
$DIMBLK2
  1

  9
$DIMSTYLE
  2
STANDARD
  9
$DIMCLRD
 70
    0
  9
$DIMCLRE
 70
    0
  9
$DIMCLRT
 70
    0
  9
$DIMTFAC
 40
1
  9
$DIMGAP
 40
0.09
  9
$LUNITS
 70
    2
  9
$LUPREC
 70
    4
  9
$SKETCHINC
 40
0.1
  9
$FILLETRAD
 40
0.5
  9
$AUNITS
 70
    0
  9
$AUPREC
 70
    0
  9
$MENU
  1
.
  9
$ELEVATION
 40
0
  9
$PELEVATION
 40
0
  9
$THICKNESS
 40
0
  9
$LIMCHECK
 70
    0
  9
$BLIPMODE
 70
    0
  9
$CHAMFERA
 40
0.5
  9
$CHAMFERB
 40
0.5
  9
$SKPOLY
 70
    0
  9
$USRTIMER
 70
    1
  9
$ANGBASE
 50
0
  9
$ANGDIR
 70
    0
  9
$PDMODE
 70
    0
  9
$PDSIZE
 40
0
  9
$PLINEWID
 40
0
  9
$COORDS
 70
    2
  9
$SPLFRAME
 70
    0
  9
$SPLINETYPE
 70
    6
  9
$SPLINESEGS
 70
    8
  9
$ATTDIA
 70
    1
  9
$ATTREQ
 70
    1
  9
$HANDLING
 70
    1
  9
$HANDSEED
  5
20000
  9
$SURFTAB1
 70
    6
  9
$SURFTAB2
 70
    6
  9
$SURFTYPE
 70
    6
  9
$SURFU
 70
    6
  9
$SURFV
 70
    6
  9
$UCSNAME
  2

  9
$UCSORG
 10
0
 20
0
 30
0
  9
$UCSXDIR
 10
1
 20
0
 30
0
  9
$UCSYDIR
 10
0
 20
1
 30
0
  9
$PUCSNAME
  2

  9
$PUCSORG
 10
0
 20
0
 30
0
  9
$PUCSXDIR
 10
1
 20
0
 30
0
  9
$PUCSYDIR
 10
0
 20
1
 30
0
  9
$USERI1
 70
    0
  9
$USERI2
 70
    0
  9
$USERI3
 70
    0
  9
$USERI4
 70
    0
  9
$USERI5
 70
    0
  9
$USERR1
 40
0
  9
$USERR2
 40
0
  9
$USERR3
 40
0
  9
$USERR4
 40
0
  9
$USERR5
 40
0
  9
$WORLDVIEW
 70
    1
  9
$SHADEDGE
 70
    3
  9
$SHADEDIF
 70
   70
  9
$TILEMODE
 70
    1
  9
$MAXACTVP
 70
   64
  9
$PLIMCHECK
 70
    0
  9
$PEXTMIN
 10
1e+20
 20
1e+20
 30
1e+20
  9
$PEXTMAX
 10
-1e+20
 20
-1e+20
 30
-1e+20
  9
$GRIDMODE
 70
    0
  9
$SNAPSTYLE
 70
    0
  9
$PLIMMIN
 10
0
 20
0
  9
$PLIMMAX
 10
12
 20
9
  9
$UNITMODE
 70
    0
  9
$VISRETAIN
 70
    1
  9
$PLINEGEN
 70
    0
  9
$PSLTSCALE
 70
    1
  0
ENDSEC
  0
SECTION
  2
TABLES
  0
TABLE
  2
VPORT
 70
    1
  0
VPORT
  2
*ACTIVE
 70
    0
 10
0
 20
0
 11
1
 21
1
 12
62.34206027088133
 22
-15.16428493075492
 13
0
 23
0
 14
10
 24
10
 15
10
 25
10
 16
0
 26
0
 36
1
 17
0
 27
0
 37
0
 40
152.0640794445146
 41
1.645429362880886
 42
50
 43
0
 44
0
 50
0
 51
0
 71
    0
 72
  100
 73
    1
 74
    3
 75
    0
 76
    0
 77
    0
 78
    0
  0
ENDTAB
  0
TABLE
  2
LTYPE
 70
    4
  0
LTYPE
  2
BYBLOCK
 70
    0
  3

 72
   65
 73
    0
 40
0
  0
LTYPE
  2
BYLAYER
 70
    0
  3

 72
   65
 73
    0
 40
0
  0
LTYPE
  2
CONTINUOUS
 70
    0
  3
Solid line
 72
   65
 73
    0
 40
0
  0
LTYPE
  2
DOT
 70
    0
  3
Dot . . . . . . . . . . . . . . . . . . . . . .
 72
   65
 73
    2
 40
6.35
 49
0
 49
-6.35
  0
LTYPE
  2
DOTTINY
 70
    0
  3
Dot (.15x) .....................................
 72
   65
 73
    2
 40
0.9525
 49
0
 49
-0.9525
  0
LTYPE
  2
DOT2
 70
    0
  3
Dot (.5x) .....................................
 72
   65
 73
    2
 40
3.175
 49
0
 49
-3.175
  0
LTYPE
  2
DOTX2
 70
    0
  3
Dot (2x) .  .  .  .  .  .  .  .  .  .  .  .  .
 72
   65
 73
    2
 40
12.7
 49
0
 49
-12.7
  0
LTYPE
  2
DASHED
 70
    0
  3
Dashed _ _ _ _ _ _ _ _ _ _ _ _ _ _ _ _ _
 72
   65
 73
    2
 40
19.05
 49
12.7
 49
-6.35
  0
LTYPE
  2
DASHEDTINY
 70
    0
  3
Dashed (.15x) _ _ _ _ _ _ _ _ _ _ _ _ _ _ _ _ _
 72
   65
 73
    2
 40
2.8575
 49
1.905
 49
-0.9525
  0
LTYPE
  2
DASHED2
 70
    0
  3
Dashed (.5x) _ _ _ _ _ _ _ _ _ _ _ _ _ _ _ _ _
 72
   65
 73
    2
 40
9.524999999999999
 49
6.35
 49
-3.175
  0
LTYPE
  2
DASHEDX2
 70
    0
  3
Dashed (2x) ____  ____  ____  ____  ____  ___
 72
   65
 73
    2
 40
38.09999999999999
 49
25.4
 49
-12.7
  0
LTYPE
  2
DASHDOT
 70
    0
  3
Dash dot __ . __ . __ . __ . __ . __ . __ . __
 72
   65
 73
    4
 40
25.4
 49
12.7
 49
-6.35
 49
0
 49
-6.35
  0
LTYPE
  2
DASHDOTTINY
 70
    0
  3
Dash dot (.15x) _._._._._._._._._._._._._._._.
 72
   65
 73
    4
 40
3.81
 49
1.905
 49
-0.9525
 49
0
 49
-0.9525
  0
LTYPE
  2
DASHDOT2
 70
    0
  3
Dash dot (.5x) _._._._._._._._._._._._._._._.
 72
   65
 73
    4
 40
12.7
 49
6.35
 49
-3.175
 49
0
 49
-3.175
  0
LTYPE
  2
DASHDOTX2
 70
    0
  3
Dash dot (2x) ____  .  ____  .  ____  .  ___
 72
   65
 73
    4
 40
50.8
 49
25.4
 49
-12.7
 49
0
 49
-12.7
  0
LTYPE
  2
DIVIDE
 70
    0
  3
Divide ____ . . ____ . . ____ . . ____ . . ____
 72
   65
 73
    6
 40
31.75
 49
12.7
 49
-6.35
 49
0
 49
-6.35
 49
0
 49
-6.35
  0
LTYPE
  2
DIVIDETINY
 70
    0
  3
Divide (.15x) __..__..__..__..__..__..__..__.._
 72
   65
 73
    6
 40
4.7625
 49
1.905
 49
-0.9525
 49
0
 49
-0.9525
 49
0
 49
-0.9525
  0
LTYPE
  2
DIVIDE2
 70
    0
  3
Divide (.5x) __..__..__..__..__..__..__..__.._
 72
   65
 73
    6
 40
15.875
 49
6.35
 49
-3.175
 49
0
 49
-3.175
 49
0
 49
-3.175
  0
LTYPE
  2
DIVIDEX2
 70
    0
  3
Divide (2x) ________  .  .  ________  .  .  _
 72
   65
 73
    6
 40
63.5
 49
25.4
 49
-12.7
 49
0
 49
-12.7
 49
0
 49
-12.7
  0
LTYPE
  2
BORDER
 70
    0
  3
Border __ __ . __ __ . __ __ . __ __ . __ __ .
 72
   65
 73
    6
 40
44.45
 49
12.7
 49
-6.35
 49
12.7
 49
-6.35
 49
0
 49
-6.35
  0
LTYPE
  2
BORDERTINY
 70
    0
  3
Border (.15x) __.__.__.__.__.__.__.__.__.__.__.
 72
   65
 73
    6
 40
6.6675
 49
1.905
 49
-0.9525
 49
1.905
 49
-0.9525
 49
0
 49
-0.9525
  0
LTYPE
  2
BORDER2
 70
    0
  3
Border (.5x) __.__.__.__.__.__.__.__.__.__.__.
 72
   65
 73
    6
 40
22.225
 49
6.35
 49
-3.175
 49
6.35
 49
-3.175
 49
0
 49
-3.175
  0
LTYPE
  2
BORDERX2
 70
    0
  3
Border (2x) ____  ____  .  ____  ____  .  ___
 72
   65
 73
    6
 40
88.89999999999999
 49
25.4
 49
-12.7
 49
25.4
 49
-12.7
 49
0
 49
-12.7
  0
LTYPE
  2
CENTER
 70
    0
  3
Center ____ _ ____ _ ____ _ ____ _ ____ _ ____
 72
   65
 73
    4
 40
50.8
 49
31.75
 49
-6.35
 49
6.35
 49
-6.35
  0
LTYPE
  2
CENTERTINY
 70
    0
  3
Center (.15x) ___ _ ___ _ ___ _ ___ _ ___ _ ___
 72
   65
 73
    4
 40
7.619999999999999
 49
4.7625
 49
-0.9525
 49
0.9525
 49
-0.9525
  0
LTYPE
  2
CENTER2
 70
    0
  3
Center (.5x) ___ _ ___ _ ___ _ ___ _ ___ _ ___
 72
   65
 73
    4
 40
28.575
 49
19.05
 49
-3.175
 49
3.175
 49
-3.175
  0
LTYPE
  2
CENTERX2
 70
    0
  3
Center (2x) ________  __  ________  __  _____
 72
   65
 73
    4
 40
101.6
 49
63.5
 49
-12.7
 49
12.7
 49
-12.7
  0
ENDTAB
  0
TABLE
  2
LAYER
 70
    1
  0
LAYER
  2
0
 70
    0
 62
    7
  6
CONTINUOUS
  0
LAYER
  2
CALQUE 1
 70
    0
 62
    7
  6
CONTINUOUS
  0
ENDTAB
  0
TABLE
  2
STYLE
 70
    3
  0
STYLE
  2
STANDARD
 70
    0
 40
0
 41
1
 50
0
 71
    0
 42
1
  3
TXT
  4

  0
ENDTAB
  0
TABLE
  2
VIEW
 70
    0
  0
ENDTAB
  0
TABLE
  2
UCS
 70
    0
  0
ENDTAB
  0
TABLE
  2
APPID
 70
    1
  0
APPID
  2
ACAD
 70
    0
  0
APPID
  2
LIBRECAD
 70
    0
  0
ENDTAB
  0
TABLE
  2
DIMSTYLE
 70
    1
  0
DIMSTYLE
  2
STANDARD
 70
    0
  3

  4

  5

  6

  7

 40
1
 41
0.18
 42
0.0625
 43
0.38
 44
0.18
 45
0
 46
0
 47
0
 48
0
 49
1
140
0.18
141
0.09
142
0
143
25.4
144
1
145
0
146
1
147
0.09
 71
    0
 72
    0
 73
    1
 74
    1
 75
    0
 76
    0
 77
    0
 78
    0
170
    0
171
    2
172
    0
173
    0
174
    0
175
    0
176
    0
177
    0
178
    0
  0
ENDTAB
  0
ENDSEC
  0
SECTION
  2
BLOCKS
  0
BLOCK
  8
0
  2
$MODEL_SPACE
 70
    0
 10
0
 20
0
 30
0
  3
$MODEL_SPACE
  1

  0
ENDBLK
  8
0
  0
BLOCK
  8
0
  2
$PAPER_SPACE
 70
    0
 10
0
 20
0
 30
0
  3
$PAPER_SPACE
  1

  0
ENDBLK
  8
0
  0
ENDSEC
  0
SECTION
  2
ENTITIES
  0
POLYLINE
  5
31
  8
CALQUE 1
  6
BYLAYER
 62
  256
 66
    1
 10
0
 20
0
 30
0
 70
    1
  0
VERTEX
  5
32
  8
CALQUE 1
  6
BYLAYER
 62
  256
 10
77.3730018181024
 20
-110.415300775252
 30
0
  0
VERTEX
  5
33
  8
CALQUE 1
  6
BYLAYER
 62
  256
 10
77.44344677011928
 20
-110.3280527217385
 30
0
  0
VERTEX
  5
34
  8
CALQUE 1
  6
BYLAYER
 62
  256
 10
77.51629072328198
 20
-110.2450501313521
 30
0
  0
VERTEX
  5
35
  8
CALQUE 1
  6
BYLAYER
 62
  256
 10
77.59182899895207
 20
-110.1668628841669
 30
0
  0
VERTEX
  5
36
  8
CALQUE 1
  6
BYLAYER
 62
  256
 10
77.67035691849112
 20
-110.0940608602574
 30
0
  0
VERTEX
  5
37
  8
CALQUE 1
  6
BYLAYER
 62
  256
 10
77.75216980326074
 20
-110.0272139396977
 30
0
  0
VERTEX
  5
38
  8
CALQUE 1
  6
BYLAYER
 62
  256
 10
77.83756297462253
 20
-109.9668920025621
 30
0
  0
VERTEX
  5
39
  8
CALQUE 1
  6
BYLAYER
 62
  256
 10
77.92683175393806
 20
-109.9136649289249
 30
0
  0
VERTEX
  5
3A
  8
CALQUE 1
  6
BYLAYER
 62
  256
 10
78.02027146256893
 20
-109.8681025988604
 30
0
  0
VERTEX
  5
3B
  8
CALQUE 1
  6
BYLAYER
 62
  256
 10
78.1181461738767
 20
-109.8307548259139
 30
0
  0
VERTEX
  5
3C
  8
CALQUE 1
  6
BYLAYER
 62
  256
 10
78.21966707598432
 20
-109.8014952922936
 30
0
  0
VERTEX
  5
3D
  8
CALQUE 1
  6
BYLAYER
 62
  256
 10
78.32276453246709
 20
-109.7793751730792
 30
0
  0
VERTEX
  5
3E
  8
CALQUE 1
  6
BYLAYER
 62
  256
 10
78.4252915215112
 20
-109.7633959487733
 30
0
  0
VERTEX
  5
3F
  8
CALQUE 1
  6
BYLAYER
 62
  256
 10
78.5251010213028
 20
-109.7525590998788
 30
0
  0
VERTEX
  5
40
  8
CALQUE 1
  6
BYLAYER
 62
  256
 10
78.62004601002808
 20
-109.7458661068981
 30
0
  0
VERTEX
  5
41
  8
CALQUE 1
  6
BYLAYER
 62
  256
 10
78.70797946587322
 20
-109.7423184503341
 30
0
  0
VERTEX
  5
42
  8
CALQUE 1
  6
BYLAYER
 62
  256
 10
78.78675436702441
 20
-109.7409176106893
 30
0
  0
VERTEX
  5
43
  8
CALQUE 1
  6
BYLAYER
 62
  256
 10
78.85422369166778
 20
-109.7406650684664
 30
0
  0
VERTEX
  5
44
  8
CALQUE 1
  6
BYLAYER
 62
  256
 10
78.90862464954996
 20
-109.7406645067992
 30
0
  0
VERTEX
  5
45
  8
CALQUE 1
  6
BYLAYER
 62
  256
 10
78.9506189492174
 20
-109.7406645067992
 30
0
  0
VERTEX
  5
46
  8
CALQUE 1
  6
BYLAYER
 62
  256
 10
78.98181139882719
 20
-109.7406645067992
 30
0
  0
VERTEX
  5
47
  8
CALQUE 1
  6
BYLAYER
 62
  256
 10
79.00380891812846
 20
-109.7406645067992
 30
0
  0
VERTEX
  5
48
  8
CALQUE 1
  6
BYLAYER
 62
  256
 10
79.01821842687045
 20
-109.7406645067992
 30
0
  0
VERTEX
  5
49
  8
CALQUE 1
  6
BYLAYER
 62
  256
 10
79.02664684480236
 20
-109.7406645067992
 30
0
  0
VERTEX
  5
4A
  8
CALQUE 1
  6
BYLAYER
 62
  256
 10
79.03070109167334
 20
-109.7406645067992
 30
0
  0
VERTEX
  5
4B
  8
CALQUE 1
  6
BYLAYER
 62
  256
 10
79.03198808723263
 20
-109.7406645067992
 30
0
  0
VERTEX
  5
4C
  8
CALQUE 1
  6
BYLAYER
 62
  256
 10
79.0321091776235
 20
-109.7406645067992
 30
0
  0
VERTEX
  5
4D
  8
CALQUE 1
  6
BYLAYER
 62
  256
 10
79.03213252302527
 20
-109.7406645067992
 30
0
  0
VERTEX
  5
4E
  8
CALQUE 1
  6
BYLAYER
 62
  256
 10
79.03215916039966
 20
-109.7406645067992
 30
0
  0
VERTEX
  5
4F
  8
CALQUE 1
  6
BYLAYER
 62
  256
 10
79.03218799697569
 20
-109.7406645067992
 30
0
  0
VERTEX
  5
50
  8
CALQUE 1
  6
BYLAYER
 62
  256
 10
79.03221793998239
 20
-109.7406645067992
 30
0
  0
VERTEX
  5
51
  8
CALQUE 1
  6
BYLAYER
 62
  256
 10
79.03224789664868
 20
-109.7406645067992
 30
0
  0
VERTEX
  5
52
  8
CALQUE 1
  6
BYLAYER
 62
  256
 10
79.03227677420362
 20
-109.7406645067992
 30
0
  0
VERTEX
  5
53
  8
CALQUE 1
  6
BYLAYER
 62
  256
 10
79.03230347987625
 20
-109.7406645067992
 30
0
  0
VERTEX
  5
54
  8
CALQUE 1
  6
BYLAYER
 62
  256
 10
79.03232692089549
 20
-109.7406645067992
 30
0
  0
VERTEX
  5
55
  8
CALQUE 1
  6
BYLAYER
 62
  256
 10
79.03243792920613
 20
-109.7406645067992
 30
0
  0
VERTEX
  5
56
  8
CALQUE 1
  6
BYLAYER
 62
  256
 10
79.03367633214189
 20
-109.7406645067992
 30
0
  0
VERTEX
  5
57
  8
CALQUE 1
  6
BYLAYER
 62
  256
 10
79.03764181339562
 20
-109.7406645067992
 30
0
  0
VERTEX
  5
58
  8
CALQUE 1
  6
BYLAYER
 62
  256
 10
79.04594129271658
 20
-109.7406645067992
 30
0
  0
VERTEX
  5
59
  8
CALQUE 1
  6
BYLAYER
 62
  256
 10
79.06018168985386
 20
-109.7406645067992
 30
0
  0
VERTEX
  5
5A
  8
CALQUE 1
  6
BYLAYER
 62
  256
 10
79.08196992455673
 20
-109.7406645067992
 30
0
  0
VERTEX
  5
5B
  8
CALQUE 1
  6
BYLAYER
 62
  256
 10
79.11291291657434
 20
-109.7406645067992
 30
0
  0
VERTEX
  5
5C
  8
CALQUE 1
  6
BYLAYER
 62
  256
 10
79.15461758565591
 20
-109.7406645067992
 30
0
  0
VERTEX
  5
5D
  8
CALQUE 1
  6
BYLAYER
 62
  256
 10
79.20868962947549
 20
-109.7406648318381
 30
0
  0
VERTEX
  5
5E
  8
CALQUE 1
  6
BYLAYER
 62
  256
 10
79.27584874124821
 20
-109.7409014601564
 30
0
  0
VERTEX
  5
5F
  8
CALQUE 1
  6
BYLAYER
 62
  256
 10
79.35436679773224
 20
-109.7422614229093
 30
0
  0
VERTEX
  5
60
  8
CALQUE 1
  6
BYLAYER
 62
  256
 10
79.44209650392096
 20
-109.745743239594
 30
0
  0
VERTEX
  5
61
  8
CALQUE 1
  6
BYLAYER
 62
  256
 10
79.53689056480786
 20
-109.7523454297079
 30
0
  0
VERTEX
  5
62
  8
CALQUE 1
  6
BYLAYER
 62
  256
 10
79.63660168538631
 20
-109.7630665127483
 30
0
  0
VERTEX
  5
63
  8
CALQUE 1
  6
BYLAYER
 62
  256
 10
79.73908257064978
 20
-109.7789050082124
 30
0
  0
VERTEX
  5
64
  8
CALQUE 1
  6
BYLAYER
 62
  256
 10
79.84218592559168
 20
-109.8008594355977
 30
0
  0
VERTEX
  5
65
  8
CALQUE 1
  6
BYLAYER
 62
  256
 10
79.94376445520543
 20
-109.8299283144015
 30
0
  0
VERTEX
  5
66
  8
CALQUE 1
  6
BYLAYER
 62
  256
 10
80.04173861892704
 20
-109.867066673708
 30
0
  0
VERTEX
  5
67
  8
CALQUE 1
  6
BYLAYER
 62
  256
 10
80.13527436676137
 20
-109.9124300835948
 30
0
  0
VERTEX
  5
68
  8
CALQUE 1
  6
BYLAYER
 62
  256
 10
80.22463072996474
 20
-109.9654724840561
 30
0
  0
VERTEX
  5
69
  8
CALQUE 1
  6
BYLAYER
 62
  256
 10
80.31010384947706
 20
-110.0256239950176
 30
0
  0
VERTEX
  5
6A
  8
CALQUE 1
  6
BYLAYER
 62
  256
 10
80.39198986623811
 20
-110.0923147364051
 30
0
  0
VERTEX
  5
6B
  8
CALQUE 1
  6
BYLAYER
 62
  256
 10
80.47058492118776
 20
-110.1649748281443
 30
0
  0
VERTEX
  5
6C
  8
CALQUE 1
  6
BYLAYER
 62
  256
 10
80.54618515526585
 20
-110.2430343901609
 30
0
  0
VERTEX
  5
6D
  8
CALQUE 1
  6
BYLAYER
 62
  256
 10
80.61908670941222
 20
-110.3259235423808
 30
0
  0
VERTEX
  5
6E
  8
CALQUE 1
  6
BYLAYER
 62
  256
 10
80.68958572456665
 20
-110.4130724047295
 30
0
  0
VERTEX
  5
6F
  8
CALQUE 1
  6
BYLAYER
 62
  256
 10
80.75784363327847
 20
-110.5037124528991
 30
0
  0
VERTEX
  5
70
  8
CALQUE 1
  6
BYLAYER
 62
  256
 10
80.82344105213392
 20
-110.5962186773878
 30
0
  0
VERTEX
  5
71
  8
CALQUE 1
  6
BYLAYER
 62
  256
 10
80.88580209308921
 20
-110.688735283201
 30
0
  0
VERTEX
  5
72
  8
CALQUE 1
  6
BYLAYER
 62
  256
 10
80.94435086582956
 20
-110.7794064719951
 30
0
  0
VERTEX
  5
73
  8
CALQUE 1
  6
BYLAYER
 62
  256
 10
80.99851148004031
 20
-110.8663764454268
 30
0
  0
VERTEX
  5
74
  8
CALQUE 1
  6
BYLAYER
 62
  256
 10
81.04770804540662
 20
-110.9477894051525
 30
0
  0
VERTEX
  5
75
  8
CALQUE 1
  6
BYLAYER
 62
  256
 10
81.09136467161382
 20
-111.0217895528289
 30
0
  0
VERTEX
  5
76
  8
CALQUE 1
  6
BYLAYER
 62
  256
 10
81.12890546834717
 20
-111.0865210901124
 30
0
  0
VERTEX
  5
77
  8
CALQUE 1
  6
BYLAYER
 62
  256
 10
81.15976947691479
 20
-111.1401632281282
 30
0
  0
VERTEX
  5
78
  8
CALQUE 1
  6
BYLAYER
 62
  256
 10
81.18397620546446
 20
-111.1822561710951
 30
0
  0
VERTEX
  5
79
  8
CALQUE 1
  6
BYLAYER
 62
  256
 10
81.20229920909978
 20
-111.2141081013986
 30
0
  0
VERTEX
  5
7A
  8
CALQUE 1
  6
BYLAYER
 62
  256
 10
81.21556243715149
 20
-111.2371453583809
 30
0
  0
VERTEX
  5
7B
  8
CALQUE 1
  6
BYLAYER
 62
  256
 10
81.22458983895034
 20
-111.2527942813841
 30
0
  0
VERTEX
  5
7C
  8
CALQUE 1
  6
BYLAYER
 62
  256
 10
81.23020536382711
 20
-111.2624812097503
 30
0
  0
VERTEX
  5
7D
  8
CALQUE 1
  6
BYLAYER
 62
  256
 10
81.23323296111256
 20
-111.2676324828217
 30
0
  0
VERTEX
  5
7E
  8
CALQUE 1
  6
BYLAYER
 62
  256
 10
81.23449658013746
 20
-111.2696744399405
 30
0
  0
VERTEX
  5
7F
  8
CALQUE 1
  6
BYLAYER
 62
  256
 10
81.23482017023255
 20
-111.2700334204488
 30
0
  0
VERTEX
  5
80
  8
CALQUE 1
  6
BYLAYER
 62
  256
 10
81.23494995705009
 20
-111.2700024317862
 30
0
  0
VERTEX
  5
81
  8
CALQUE 1
  6
BYLAYER
 62
  256
 10
81.23510170435293
 20
-111.2699644949605
 30
0
  0
VERTEX
  5
82
  8
CALQUE 1
  6
BYLAYER
 62
  256
 10
81.23526959734721
 20
-111.2699225217119
 30
0
  0
VERTEX
  5
83
  8
CALQUE 1
  6
BYLAYER
 62
  256
 10
81.23544707940698
 20
-111.269878151197
 30
0
  0
VERTEX
  5
84
  8
CALQUE 1
  6
BYLAYER
 62
  256
 10
81.23562759390626
 20
-111.2698330225722
 30
0
  0
VERTEX
  5
85
  8
CALQUE 1
  6
BYLAYER
 62
  256
 10
81.23580458421908
 20
-111.2697887749939
 30
0
  0
VERTEX
  5
86
  8
CALQUE 1
  6
BYLAYER
 62
  256
 10
81.23597149371946
 20
-111.2697470476188
 30
0
  0
VERTEX
  5
87
  8
CALQUE 1
  6
BYLAYER
 62
  256
 10
81.23612176578145
 20
-111.2697094796033
 30
0
  0
VERTEX
  5
88
  8
CALQUE 1
  6
BYLAYER
 62
  256
 10
81.23624886939086
 20
-111.269677703701
 30
0
  0
VERTEX
  5
89
  8
CALQUE 1
  6
BYLAYER
 62
  256
 10
81.23634937256381
 20
-111.2696525779078
 30
0
  0
VERTEX
  5
8A
  8
CALQUE 1
  6
BYLAYER
 62
  256
 10
81.23642586209411
 20
-111.2696334555252
 30
0
  0
VERTEX
  5
8B
  8
CALQUE 1
  6
BYLAYER
 62
  256
 10
81.23648161629478
 20
-111.269619516975
 30
0
  0
VERTEX
  5
8C
  8
CALQUE 1
  6
BYLAYER
 62
  256
 10
81.2365199134788
 20
-111.269609942679
 30
0
  0
VERTEX
  5
8D
  8
CALQUE 1
  6
BYLAYER
 62
  256
 10
81.23654403195914
 20
-111.2696039130589
 30
0
  0
VERTEX
  5
8E
  8
CALQUE 1
  6
BYLAYER
 62
  256
 10
81.23655725004882
 20
-111.2696006085365
 30
0
  0
VERTEX
  5
8F
  8
CALQUE 1
  6
BYLAYER
 62
  256
 10
81.23656284606079
 20
-111.2695992095335
 30
0
  0
VERTEX
  5
90
  8
CALQUE 1
  6
BYLAYER
 62
  256
 10
81.23656409830807
 20
-111.2695988964717
 30
0
  0
VERTEX
  5
91
  8
CALQUE 1
  6
BYLAYER
 62
  256
 10
81.23670118099976
 20
-111.2698363591115
 30
0
  0
VERTEX
  5
92
  8
CALQUE 1
  6
BYLAYER
 62
  256
 10
81.23865850106982
 20
-111.2732274741245
 30
0
  0
VERTEX
  5
93
  8
CALQUE 1
  6
BYLAYER
 62
  256
 10
81.24509478893926
 20
-111.2843785335534
 30
0
  0
VERTEX
  5
94
  8
CALQUE 1
  6
BYLAYER
 62
  256
 10
81.2586840552346
 20
-111.3079223400345
 30
0
  0
VERTEX
  5
95
  8
CALQUE 1
  6
BYLAYER
 62
  256
 10
81.28210031058235
 20
-111.348491696204
 30
0
  0
VERTEX
  5
96
  8
CALQUE 1
  6
BYLAYER
 62
  256
 10
81.31801756560901
 20
-111.4107194046983
 30
0
  0
VERTEX
  5
97
  8
CALQUE 1
  6
BYLAYER
 62
  256
 10
81.36910983094107
 20
-111.4992382681536
 30
0
  0
VERTEX
  5
98
  8
CALQUE 1
  6
BYLAYER
 62
  256
 10
81.43805111720505
 20
-111.6186810892064
 30
0
  0
VERTEX
  5
99
  8
CALQUE 1
  6
BYLAYER
 62
  256
 10
81.52751409802214
 20
-111.7736783540916
 30
0
  0
VERTEX
  5
9A
  8
CALQUE 1
  6
BYLAYER
 62
  256
 10
81.63839724096285
 20
-111.965786684495
 30
0
  0
VERTEX
  5
9B
  8
CALQUE 1
  6
BYLAYER
 62
  256
 10
81.7663272016475
 20
-112.1874291317049
 30
0
  0
VERTEX
  5
9C
  8
CALQUE 1
  6
BYLAYER
 62
  256
 10
81.90595595882313
 20
-112.4293400904486
 30
0
  0
VERTEX
  5
9D
  8
CALQUE 1
  6
BYLAYER
 62
  256
 10
82.0519354912367
 20
-112.6822539554537
 30
0
  0
VERTEX
  5
9E
  8
CALQUE 1
  6
BYLAYER
 62
  256
 10
82.1989177776352
 20
-112.9369051214473
 30
0
  0
VERTEX
  5
9F
  8
CALQUE 1
  6
BYLAYER
 62
  256
 10
82.34155479676565
 20
-113.184027983157
 30
0
  0
VERTEX
  5
A0
  8
CALQUE 1
  6
BYLAYER
 62
  256
 10
82.47449852737498
 20
-113.4143569353099
 30
0
  0
VERTEX
  5
A1
  8
CALQUE 1
  6
BYLAYER
 62
  256
 10
82.59240094821025
 20
-113.6186263726336
 30
0
  0
VERTEX
  5
A2
  8
CALQUE 1
  6
BYLAYER
 62
  256
 10
82.6901075068654
 20
-113.7879058803649
 30
0
  0
VERTEX
  5
A3
  8
CALQUE 1
  6
BYLAYER
 62
  256
 10
82.76643156934347
 20
-113.9201395799464
 30
0
  0
VERTEX
  5
A4
  8
CALQUE 1
  6
BYLAYER
 62
  256
 10
82.82390385690472
 20
-114.0197120209418
 30
0
  0
VERTEX
  5
A5
  8
CALQUE 1
  6
BYLAYER
 62
  256
 10
82.86519838017558
 20
-114.0912560059875
 30
0
  0
VERTEX
  5
A6
  8
CALQUE 1
  6
BYLAYER
 62
  256
 10
82.89298914978262
 20
-114.1394043377198
 30
0
  0
VERTEX
  5
A7
  8
CALQUE 1
  6
BYLAYER
 62
  256
 10
82.90995017635233
 20
-114.1687898187751
 30
0
  0
VERTEX
  5
A8
  8
CALQUE 1
  6
BYLAYER
 62
  256
 10
82.91875547051119
 20
-114.1840452517896
 30
0
  0
VERTEX
  5
A9
  8
CALQUE 1
  6
BYLAYER
 62
  256
 10
82.9220790428857
 20
-114.1898034393997
 30
0
  0
VERTEX
  5
AA
  8
CALQUE 1
  6
BYLAYER
 62
  256
 10
82.9225949041024
 20
-114.1906971842416
 30
0
  0
VERTEX
  5
AB
  8
CALQUE 1
  6
BYLAYER
 62
  256
 10
82.92195535949014
 20
-114.1910690015991
 30
0
  0
VERTEX
  5
AC
  8
CALQUE 1
  6
BYLAYER
 62
  256
 10
82.917063475421
 20
-114.1939120509219
 30
0
  0
VERTEX
  5
AD
  8
CALQUE 1
  6
BYLAYER
 62
  256
 10
82.90344341085495
 20
-114.2018277158876
 30
0
  0
VERTEX
  5
AE
  8
CALQUE 1
  6
BYLAYER
 62
  256
 10
82.87661917579349
 20
-114.2174173378514
 30
0
  0
VERTEX
  5
AF
  8
CALQUE 1
  6
BYLAYER
 62
  256
 10
82.83211478023827
 20
-114.2432822581686
 30
0
  0
VERTEX
  5
B0
  8
CALQUE 1
  6
BYLAYER
 62
  256
 10
82.76545423419078
 20
-114.2820238181945
 30
0
  0
VERTEX
  5
B1
  8
CALQUE 1
  6
BYLAYER
 62
  256
 10
82.67216154765266
 20
-114.3362433592844
 30
0
  0
VERTEX
  5
B2
  8
CALQUE 1
  6
BYLAYER
 62
  256
 10
82.54776073062538
 20
-114.4085422227935
 30
0
  0
VERTEX
  5
B3
  8
CALQUE 1
  6
BYLAYER
 62
  256
 10
82.38789381237815
 20
-114.5014531600219
 30
0
  0
VERTEX
  5
B4
  8
CALQUE 1
  6
BYLAYER
 62
  256
 10
82.19354865789106
 20
-114.6144020468033
 30
0
  0
VERTEX
  5
B5
  8
CALQUE 1
  6
BYLAYER
 62
  256
 10
81.97313086166311
 20
-114.7425037469792
 30
0
  0
VERTEX
  5
B6
  8
CALQUE 1
  6
BYLAYER
 62
  256
 10
81.73559240369114
 20
-114.8805555778392
 30
0
  0
VERTEX
  5
B7
  8
CALQUE 1
  6
BYLAYER
 62
  256
 10
81.48988526397207
 20
-115.0233548566725
 30
0
  0
VERTEX
  5
B8
  8
CALQUE 1
  6
BYLAYER
 62
  256
 10
81.2449614225027
 20
-115.1656989007687
 30
0
  0
VERTEX
  5
B9
  8
CALQUE 1
  6
BYLAYER
 62
  256
 10
81.00977285927993
 20
-115.302385027417
 30
0
  0
VERTEX
  5
BA
  8
CALQUE 1
  6
BYLAYER
 62
  256
 10
80.79327155430062
 20
-115.4282105539071
 30
0
  0
VERTEX
  5
BB
  8
CALQUE 1
  6
BYLAYER
 62
  256
 10
80.60440948756163
 20
-115.5379727975283
 30
0
  0
VERTEX
  5
BC
  8
CALQUE 1
  6
BYLAYER
 62
  256
 10
80.4509927856202
 20
-115.6271350189568
 30
0
  0
VERTEX
  5
BD
  8
CALQUE 1
  6
BYLAYER
 62
  256
 10
80.3323590019566
 20
-115.6960822167135
 30
0
  0
VERTEX
  5
BE
  8
CALQUE 1
  6
BYLAYER
 62
  256
 10
80.24405005053235
 20
-115.7474053267881
 30
0
  0
VERTEX
  5
BF
  8
CALQUE 1
  6
BYLAYER
 62
  256
 10
80.18158994134906
 20
-115.7837056905358
 30
0
  0
VERTEX
  5
C0
  8
CALQUE 1
  6
BYLAYER
 62
  256
 10
80.14050268440825
 20
-115.8075846493121
 30
0
  0
VERTEX
  5
C1
  8
CALQUE 1
  6
BYLAYER
 62
  256
 10
80.11631228971152
 20
-115.8216435444722
 30
0
  0
VERTEX
  5
C2
  8
CALQUE 1
  6
BYLAYER
 62
  256
 10
80.10454276726044
 20
-115.8284837173713
 30
0
  0
VERTEX
  5
C3
  8
CALQUE 1
  6
BYLAYER
 62
  256
 10
80.10071812705658
 20
-115.8307065093648
 30
0
  0
VERTEX
  5
C4
  8
CALQUE 1
  6
BYLAYER
 62
  256
 10
80.10037183908341
 20
-115.830909992824
 30
0
  0
VERTEX
  5
C5
  8
CALQUE 1
  6
BYLAYER
 62
  256
 10
80.10052622394839
 20
-115.8311777540742
 30
0
  0
VERTEX
  5
C6
  8
CALQUE 1
  6
BYLAYER
 62
  256
 10
80.10130173984736
 20
-115.8325227894615
 30
0
  0
VERTEX
  5
C7
  8
CALQUE 1
  6
BYLAYER
 62
  256
 10
80.10320543252227
 20
-115.8358245064445
 30
0
  0
VERTEX
  5
C8
  8
CALQUE 1
  6
BYLAYER
 62
  256
 10
80.10674434771518
 20
-115.8419623124822
 30
0
  0
VERTEX
  5
C9
  8
CALQUE 1
  6
BYLAYER
 62
  256
 10
80.11242553116807
 20
-115.8518156150333
 30
0
  0
VERTEX
  5
CA
  8
CALQUE 1
  6
BYLAYER
 62
  256
 10
80.12075602862295
 20
-115.8662638215567
 30
0
  0
VERTEX
  5
CB
  8
CALQUE 1
  6
BYLAYER
 62
  256
 10
80.13224288582188
 20
-115.8861863395111
 30
0
  0
VERTEX
  5
CC
  8
CALQUE 1
  6
BYLAYER
 62
  256
 10
80.14739314850679
 20
-115.9124625763552
 30
0
  0
VERTEX
  5
CD
  8
CALQUE 1
  6
BYLAYER
 62
  256
 10
80.16664423870129
 20
-115.9458511859113
 30
0
  0
VERTEX
  5
CE
  8
CALQUE 1
  6
BYLAYER
 62
  256
 10
80.18957321687584
 20
-115.9856186324328
 30
0
  0
VERTEX
  5
CF
  8
CALQUE 1
  6
BYLAYER
 62
  256
 10
80.21517686133947
 20
-116.0300249532994
 30
0
  0
VERTEX
  5
D0
  8
CALQUE 1
  6
BYLAYER
 62
  256
 10
80.2424410806082
 20
-116.0773113335936
 30
0
  0
VERTEX
  5
D1
  8
CALQUE 1
  6
BYLAYER
 62
  256
 10
80.270351783198
 20
-116.1257189583977
 30
0
  0
VERTEX
  5
D2
  8
CALQUE 1
  6
BYLAYER
 62
  256
 10
80.29789487762481
 20
-116.1734890127942
 30
0
  0
VERTEX
  5
D3
  8
CALQUE 1
  6
BYLAYER
 62
  256
 10
80.32405627240465
 20
-116.2188626818655
 30
0
  0
VERTEX
  5
D4
  8
CALQUE 1
  6
BYLAYER
 62
  256
 10
80.34782187605347
 20
-116.260081150694
 30
0
  0
VERTEX
  5
D5
  8
CALQUE 1
  6
BYLAYER
 62
  256
 10
80.36817770404227
 20
-116.2953857898621
 30
0
  0
VERTEX
  5
D6
  8
CALQUE 1
  6
BYLAYER
 62
  256
 10
80.38442429469251
 20
-116.3235634705211
 30
0
  0
VERTEX
  5
D7
  8
CALQUE 1
  6
BYLAYER
 62
  256
 10
80.39686804227766
 20
-116.345145595239
 30
0
  0
VERTEX
  5
D8
  8
CALQUE 1
  6
BYLAYER
 62
  256
 10
80.40601599253975
 20
-116.3610115714749
 30
0
  0
VERTEX
  5
D9
  8
CALQUE 1
  6
BYLAYER
 62
  256
 10
80.41237519122079
 20
-116.3720408066873
 30
0
  0
VERTEX
  5
DA
  8
CALQUE 1
  6
BYLAYER
 62
  256
 10
80.41645268406278
 20
-116.3791127083351
 30
0
  0
VERTEX
  5
DB
  8
CALQUE 1
  6
BYLAYER
 62
  256
 10
80.41875551680775
 20
-116.3831066838772
 30
0
  0
VERTEX
  5
DC
  8
CALQUE 1
  6
BYLAYER
 62
  256
 10
80.41979073519767
 20
-116.3849021407722
 30
0
  0
VERTEX
  5
DD
  8
CALQUE 1
  6
BYLAYER
 62
  256
 10
80.42006538497459
 20
-116.3853784864791
 30
0
  0
VERTEX
  5
DE
  8
CALQUE 1
  6
BYLAYER
 62
  256
 10
80.42008906167949
 20
-116.3853888905696
 30
0
  0
VERTEX
  5
DF
  8
CALQUE 1
  6
BYLAYER
 62
  256
 10
80.42043000623016
 20
-116.3851830512163
 30
0
  0
VERTEX
  5
E0
  8
CALQUE 1
  6
BYLAYER
 62
  256
 10
80.42171510492112
 20
-116.3844071951924
 30
0
  0
VERTEX
  5
E1
  8
CALQUE 1
  6
BYLAYER
 62
  256
 10
80.42457379384591
 20
-116.382681311384
 30
0
  0
VERTEX
  5
E2
  8
CALQUE 1
  6
BYLAYER
 62
  256
 10
80.42963550909802
 20
-116.3796253886776
 30
0
  0
VERTEX
  5
E3
  8
CALQUE 1
  6
BYLAYER
 62
  256
 10
80.43752968677106
 20
-116.3748594159592
 30
0
  0
VERTEX
  5
E4
  8
CALQUE 1
  6
BYLAYER
 62
  256
 10
80.4488857629585
 20
-116.3680033821151
 30
0
  0
VERTEX
  5
E5
  8
CALQUE 1
  6
BYLAYER
 62
  256
 10
80.46433317375386
 20
-116.3586772760317
 30
0
  0
VERTEX
  5
E6
  8
CALQUE 1
  6
BYLAYER
 62
  256
 10
80.48450135525069
 20
-116.346501086595
 30
0
  0
VERTEX
  5
E7
  8
CALQUE 1
  6
BYLAYER
 62
  256
 10
80.50977065896093
 20
-116.3312451831831
 30
0
  0
VERTEX
  5
E8
  8
CALQUE 1
  6
BYLAYER
 62
  256
 10
80.53927278762848
 20
-116.3134337851898
 30
0
  0
VERTEX
  5
E9
  8
CALQUE 1
  6
BYLAYER
 62
  256
 10
80.57174900183794
 20
-116.293826834684
 30
0
  0
VERTEX
  5
EA
  8
CALQUE 1
  6
BYLAYER
 62
  256
 10
80.60594042940228
 20
-116.2731843538932
 30
0
  0
VERTEX
  5
EB
  8
CALQUE 1
  6
BYLAYER
 62
  256
 10
80.64058819813442
 20
-116.252266365045
 30
0
  0
VERTEX
  5
EC
  8
CALQUE 1
  6
BYLAYER
 62
  256
 10
80.67443343584732
 20
-116.2318328903667
 30
0
  0
VERTEX
  5
ED
  8
CALQUE 1
  6
BYLAYER
 62
  256
 10
80.70621727035389
 20
-116.2126439520861
 30
0
  0
VERTEX
  5
EE
  8
CALQUE 1
  6
BYLAYER
 62
  256
 10
80.73468082946712
 20
-116.1954595724305
 30
0
  0
VERTEX
  5
EF
  8
CALQUE 1
  6
BYLAYER
 62
  256
 10
80.75857873453614
 20
-116.1810316271392
 30
0
  0
VERTEX
  5
F0
  8
CALQUE 1
  6
BYLAYER
 62
  256
 10
80.77738595717952
 20
-116.1696770929826
 30
0
  0
VERTEX
  5
F1
  8
CALQUE 1
  6
BYLAYER
 62
  256
 10
80.79164550404712
 20
-116.1610681391229
 30
0
  0
VERTEX
  5
F2
  8
CALQUE 1
  6
BYLAYER
 62
  256
 10
80.80198681123252
 20
-116.1548247544463
 30
0
  0
VERTEX
  5
F3
  8
CALQUE 1
  6
BYLAYER
 62
  256
 10
80.80903931482921
 20
-116.1505669278391
 30
0
  0
VERTEX
  5
F4
  8
CALQUE 1
  6
BYLAYER
 62
  256
 10
80.81343245093075
 20
-116.1479146481875
 30
0
  0
VERTEX
  5
F5
  8
CALQUE 1
  6
BYLAYER
 62
  256
 10
80.81579565563064
 20
-116.1464879043778
 30
0
  0
VERTEX
  5
F6
  8
CALQUE 1
  6
BYLAYER
 62
  256
 10
80.81675836502244
 20
-116.1459066852962
 30
0
  0
VERTEX
  5
F7
  8
CALQUE 1
  6
BYLAYER
 62
  256
 10
80.81695001519967
 20
-116.1457909798289
 30
0
  0
VERTEX
  5
F8
  8
CALQUE 1
  6
BYLAYER
 62
  256
 10
80.81755771174686
 20
-116.146840827014
 30
0
  0
VERTEX
  5
F9
  8
CALQUE 1
  6
BYLAYER
 62
  256
 10
80.82423775960294
 20
-116.1584118576308
 30
0
  0
VERTEX
  5
FA
  8
CALQUE 1
  6
BYLAYER
 62
  256
 10
80.8447941960324
 20
-116.194019260515
 30
0
  0
VERTEX
  5
FB
  8
CALQUE 1
  6
BYLAYER
 62
  256
 10
80.88704470473857
 20
-116.2672046538456
 30
0
  0
VERTEX
  5
FC
  8
CALQUE 1
  6
BYLAYER
 62
  256
 10
80.95880696942476
 20
-116.3915096558013
 30
0
  0
VERTEX
  5
FD
  8
CALQUE 1
  6
BYLAYER
 62
  256
 10
81.06789867379428
 20
-116.5804758845611
 30
0
  0
VERTEX
  5
FE
  8
CALQUE 1
  6
BYLAYER
 62
  256
 10
81.22213750155043
 20
-116.8476449583036
 30
0
  0
VERTEX
  5
FF
  8
CALQUE 1
  6
BYLAYER
 62
  256
 10
81.42934113639656
 20
-117.2065584952079
 30
0
  0
VERTEX
  5
100
  8
CALQUE 1
  6
BYLAYER
 62
  256
 10
81.69729599130115
 20
-117.67070394698
 30
0
  0
VERTEX
  5
101
  8
CALQUE 1
  6
BYLAYER
 62
  256
 10
82.0271590834523
 20
-118.2420854731104
 30
0
  0
VERTEX
  5
102
  8
CALQUE 1
  6
BYLAYER
 62
  256
 10
82.40529637247138
 20
-118.8970864914952
 30
0
  0
VERTEX
  5
103
  8
CALQUE 1
  6
BYLAYER
 62
  256
 10
82.81607249095181
 20
-119.6086237657766
 30
0
  0
VERTEX
  5
104
  8
CALQUE 1
  6
BYLAYER
 62
  256
 10
83.24385207148691
 20
-120.349614059597
 30
0
  0
VERTEX
  5
105
  8
CALQUE 1
  6
BYLAYER
 62
  256
 10
83.67299974667013
 20
-121.0929741365987
 30
0
  0
VERTEX
  5
106
  8
CALQUE 1
  6
BYLAYER
 62
  256
 10
84.08788014909474
 20
-121.8116207604239
 30
0
  0
VERTEX
  5
107
  8
CALQUE 1
  6
BYLAYER
 62
  256
 10
84.4728579113542
 20
-122.4784706947151
 30
0
  0
VERTEX
  5
108
  8
CALQUE 1
  6
BYLAYER
 62
  256
 10
84.81229766604181
 20
-123.0664407031145
 30
0
  0
VERTEX
  5
109
  8
CALQUE 1
  6
BYLAYER
 62
  256
 10
85.09151835284369
 20
-123.5501005788272
 30
0
  0
VERTEX
  5
10A
  8
CALQUE 1
  6
BYLAYER
 62
  256
 10
85.30879458453623
 20
-123.9264616444036
 30
0
  0
VERTEX
  5
10B
  8
CALQUE 1
  6
BYLAYER
 62
  256
 10
85.47173791449073
 20
-124.2087084636371
 30
0
  0
VERTEX
  5
10C
  8
CALQUE 1
  6
BYLAYER
 62
  256
 10
85.58816602641052
 20
-124.4103826547065
 30
0
  0
VERTEX
  5
10D
  8
CALQUE 1
  6
BYLAYER
 62
  256
 10
85.66589660399892
 20
-124.5450258357905
 30
0
  0
VERTEX
  5
10E
  8
CALQUE 1
  6
BYLAYER
 62
  256
 10
85.71274733095922
 20
-124.6261796250681
 30
0
  0
VERTEX
  5
10F
  8
CALQUE 1
  6
BYLAYER
 62
  256
 10
85.73653589099476
 20
-124.6673856407182
 30
0
  0
VERTEX
  5
110
  8
CALQUE 1
  6
BYLAYER
 62
  256
 10
85.74507996780882
 20
-124.6821855009194
 30
0
  0
VERTEX
  5
111
  8
CALQUE 1
  6
BYLAYER
 62
  256
 10
85.74619653162205
 20
-124.6841205417338
 30
0
  0
VERTEX
  5
112
  8
CALQUE 1
  6
BYLAYER
 62
  256
 10
85.74109784326008
 20
-124.6841205417338
 30
0
  0
VERTEX
  5
113
  8
CALQUE 1
  6
BYLAYER
 62
  256
 10
85.70824819448312
 20
-124.6841205417338
 30
0
  0
VERTEX
  5
114
  8
CALQUE 1
  6
BYLAYER
 62
  256
 10
85.62121809918162
 20
-124.6841205417338
 30
0
  0
VERTEX
  5
115
  8
CALQUE 1
  6
BYLAYER
 62
  256
 10
85.45357807124611
 20
-124.6841205417338
 30
0
  0
VERTEX
  5
116
  8
CALQUE 1
  6
BYLAYER
 62
  256
 10
85.17889862456704
 20
-124.6841205417338
 30
0
  0
VERTEX
  5
117
  8
CALQUE 1
  6
BYLAYER
 62
  256
 10
84.77075027303492
 20
-124.6841205417338
 30
0
  0
VERTEX
  5
118
  8
CALQUE 1
  6
BYLAYER
 62
  256
 10
84.20270353054028
 20
-124.6841205417338
 30
0
  0
VERTEX
  5
119
  8
CALQUE 1
  6
BYLAYER
 62
  256
 10
83.44832891097352
 20
-124.6841205417338
 30
0
  0
VERTEX
  5
11A
  8
CALQUE 1
  6
BYLAYER
 62
  256
 10
82.48261317701603
 20
-124.6841205417338
 30
0
  0
VERTEX
  5
11B
  8
CALQUE 1
  6
BYLAYER
 62
  256
 10
81.31728482608963
 20
-124.6841205417338
 30
0
  0
VERTEX
  5
11C
  8
CALQUE 1
  6
BYLAYER
 62
  256
 10
80.00329061579728
 20
-124.6841205417337
 30
0
  0
VERTEX
  5
11D
  8
CALQUE 1
  6
BYLAYER
 62
  256
 10
78.59348951835798
 20
-124.6841205417338
 30
0
  0
VERTEX
  5
11E
  8
CALQUE 1
  6
BYLAYER
 62
  256
 10
77.14074050599078
 20
-124.6841205417338
 30
0
  0
VERTEX
  5
11F
  8
CALQUE 1
  6
BYLAYER
 62
  256
 10
75.69790255091468
 20
-124.6841205417338
 30
0
  0
VERTEX
  5
120
  8
CALQUE 1
  6
BYLAYER
 62
  256
 10
74.31783462534869
 20
-124.6841205417338
 30
0
  0
VERTEX
  5
121
  8
CALQUE 1
  6
BYLAYER
 62
  256
 10
73.05339570151189
 20
-124.6841205417338
 30
0
  0
VERTEX
  5
122
  8
CALQUE 1
  6
BYLAYER
 62
  256
 10
71.95744475162323
 20
-124.6841205417338
 30
0
  0
VERTEX
  5
123
  8
CALQUE 1
  6
BYLAYER
 62
  256
 10
71.07320720021484
 20
-124.6841205417338
 30
0
  0
VERTEX
  5
124
  8
CALQUE 1
  6
BYLAYER
 62
  256
 10
70.39180273995386
 20
-124.6841205417338
 30
0
  0
VERTEX
  5
125
  8
CALQUE 1
  6
BYLAYER
 62
  256
 10
69.88681509947385
 20
-124.6841205417338
 30
0
  0
VERTEX
  5
126
  8
CALQUE 1
  6
BYLAYER
 62
  256
 10
69.53181479266529
 20
-124.6841205417337
 30
0
  0
VERTEX
  5
127
  8
CALQUE 1
  6
BYLAYER
 62
  256
 10
69.30037233341869
 20
-124.6841205417338
 30
0
  0
VERTEX
  5
128
  8
CALQUE 1
  6
BYLAYER
 62
  256
 10
69.16605823562453
 20
-124.6841205417338
 30
0
  0
VERTEX
  5
129
  8
CALQUE 1
  6
BYLAYER
 62
  256
 10
69.10244301317327
 20
-124.6841205417338
 30
0
  0
VERTEX
  5
12A
  8
CALQUE 1
  6
BYLAYER
 62
  256
 10
69.08309717995542
 20
-124.6841205417338
 30
0
  0
VERTEX
  5
12B
  8
CALQUE 1
  6
BYLAYER
 62
  256
 10
69.08181274406708
 20
-124.6839988268321
 30
0
  0
VERTEX
  5
12C
  8
CALQUE 1
  6
BYLAYER
 62
  256
 10
69.0865050189151
 20
-124.6758726812813
 30
0
  0
VERTEX
  5
12D
  8
CALQUE 1
  6
BYLAYER
 62
  256
 10
69.1074737421042
 20
-124.6395587605995
 30
0
  0
VERTEX
  5
12E
  8
CALQUE 1
  6
BYLAYER
 62
  256
 10
69.15700302558994
 20
-124.5537832722348
 30
0
  0
VERTEX
  5
12F
  8
CALQUE 1
  6
BYLAYER
 62
  256
 10
69.24737698132783
 20
-124.3972724236356
 30
0
  0
VERTEX
  5
130
  8
CALQUE 1
  6
BYLAYER
 62
  256
 10
69.39087972127342
 20
-124.14875242225
 30
0
  0
VERTEX
  5
131
  8
CALQUE 1
  6
BYLAYER
 62
  256
 10
69.59979535738221
 20
-123.7869494755264
 30
0
  0
VERTEX
  5
132
  8
CALQUE 1
  6
BYLAYER
 62
  256
 10
69.88640800160975
 20
-123.2905897909129
 30
0
  0
VERTEX
  5
133
  8
CALQUE 1
  6
BYLAYER
 62
  256
 10
70.26300176591158
 20
-122.6383995758579
 30
0
  0
VERTEX
  5
134
  8
CALQUE 1
  6
BYLAYER
 62
  256
 10
70.7392695823776
 20
-121.8135924784261
 30
0
  0
VERTEX
  5
135
  8
CALQUE 1
  6
BYLAYER
 62
  256
 10
71.30235152130435
 20
-120.8384395001949
 30
0
  0
VERTEX
  5
136
  8
CALQUE 1
  6
BYLAYER
 62
  256
 10
71.92777532840543
 20
-119.7553220247636
 30
0
  0
VERTEX
  5
137
  8
CALQUE 1
  6
BYLAYER
 62
  256
 10
72.59097277976974
 20
-118.6067876372358
 30
0
  0
VERTEX
  5
138
  8
CALQUE 1
  6
BYLAYER
 62
  256
 10
73.26737565148625
 20
-117.4353839227148
 30
0
  0
VERTEX
  5
139
  8
CALQUE 1
  6
BYLAYER
 62
  256
 10
73.93241571964388
 20
-116.2836584663042
 30
0
  0
VERTEX
  5
13A
  8
CALQUE 1
  6
BYLAYER
 62
  256
 10
74.56152476033155
 20
-115.1941588531075
 30
0
  0
VERTEX
  5
13B
  8
CALQUE 1
  6
BYLAYER
 62
  256
 10
75.13013454963823
 20
-114.2094326682281
 30
0
  0
VERTEX
  5
13C
  8
CALQUE 1
  6
BYLAYER
 62
  256
 10
75.61370978123408
 20
-113.3719704896537
 30
0
  0
VERTEX
  5
13D
  8
CALQUE 1
  6
BYLAYER
 62
  256
 10
75.99754733280463
 20
-112.7072353850535
 30
0
  0
VERTEX
  5
13E
  8
CALQUE 1
  6
BYLAYER
 62
  256
 10
76.2904824559042
 20
-112.1999263453362
 30
0
  0
VERTEX
  5
13F
  8
CALQUE 1
  6
BYLAYER
 62
  256
 10
76.50479926248838
 20
-111.8287695779501
 30
0
  0
VERTEX
  5
140
  8
CALQUE 1
  6
BYLAYER
 62
  256
 10
76.65278186451269
 20
-111.5724912903434
 30
0
  0
VERTEX
  5
141
  8
CALQUE 1
  6
BYLAYER
 62
  256
 10
76.74671437393266
 20
-111.4098176899644
 30
0
  0
VERTEX
  5
142
  8
CALQUE 1
  6
BYLAYER
 62
  256
 10
76.79888090270381
 20
-111.3194749842613
 30
0
  0
VERTEX
  5
143
  8
CALQUE 1
  6
BYLAYER
 62
  256
 10
76.82156556278167
 20
-111.2801893806824
 30
0
  0
VERTEX
  5
144
  8
CALQUE 1
  6
BYLAYER
 62
  256
 10
76.82705246612183
 20
-111.270687086676
 30
0
  0
VERTEX
  5
145
  8
CALQUE 1
  6
BYLAYER
 62
  256
 10
76.82718361466863
 20
-111.2704602744064
 30
0
  0
VERTEX
  5
146
  8
CALQUE 1
  6
BYLAYER
 62
  256
 10
76.82718573464436
 20
-111.2704622177175
 30
0
  0
VERTEX
  5
147
  8
CALQUE 1
  6
BYLAYER
 62
  256
 10
76.82719309992086
 20
-111.270468969221
 30
0
  0
VERTEX
  5
148
  8
CALQUE 1
  6
BYLAYER
 62
  256
 10
76.82720898881115
 20
-111.2704835340371
 30
0
  0
VERTEX
  5
149
  8
CALQUE 1
  6
BYLAYER
 62
  256
 10
76.82723667962817
 20
-111.270508917286
 30
0
  0
VERTEX
  5
14A
  8
CALQUE 1
  6
BYLAYER
 62
  256
 10
76.82727945068494
 20
-111.2705481240881
 30
0
  0
VERTEX
  5
14B
  8
CALQUE 1
  6
BYLAYER
 62
  256
 10
76.82734058029443
 20
-111.2706041595634
 30
0
  0
VERTEX
  5
14C
  8
CALQUE 1
  6
BYLAYER
 62
  256
 10
76.82742334676965
 20
-111.2706800288324
 30
0
  0
VERTEX
  5
14D
  8
CALQUE 1
  6
BYLAYER
 62
  256
 10
76.82753102839796
 20
-111.2707787369917
 30
0
  0
VERTEX
  5
14E
  8
CALQUE 1
  6
BYLAYER
 62
  256
 10
76.82766513837691
 20
-111.2709016711391
 30
0
  0
VERTEX
  5
14F
  8
CALQUE 1
  6
BYLAYER
 62
  256
 10
76.8278206393481
 20
-111.271044213696
 30
0
  0
VERTEX
  5
150
  8
CALQUE 1
  6
BYLAYER
 62
  256
 10
76.82799097468558
 20
-111.271200354422
 30
0
  0
VERTEX
  5
151
  8
CALQUE 1
  6
BYLAYER
 62
  256
 10
76.82816958776333
 20
-111.2713640830766
 30
0
  0
VERTEX
  5
152
  8
CALQUE 1
  6
BYLAYER
 62
  256
 10
76.82834992195538
 20
-111.2715293894193
 30
0
  0
VERTEX
  5
153
  8
CALQUE 1
  6
BYLAYER
 62
  256
 10
76.8285254206358
 20
-111.2716902632097
 30
0
  0
VERTEX
  5
154
  8
CALQUE 1
  6
BYLAYER
 62
  256
 10
76.82868952717858
 20
-111.2718406942073
 30
0
  0
VERTEX
  5
155
  8
CALQUE 1
  6
BYLAYER
 62
  256
 10
76.82883568495777
 20
-111.2719746721715
 30
0
  0
VERTEX
  5
156
  8
CALQUE 1
  6
BYLAYER
 62
  256
 10
76.82895748671551
 20
-111.2720863237828
 30
0
  0
VERTEX
  5
157
  8
CALQUE 1
  6
BYLAYER
 62
  256
 10
76.82905292489488
 20
-111.2721738087806
 30
0
  0
VERTEX
  5
158
  8
CALQUE 1
  6
BYLAYER
 62
  256
 10
76.82912500509423
 20
-111.2722398822966
 30
0
  0
VERTEX
  5
159
  8
CALQUE 1
  6
BYLAYER
 62
  256
 10
76.82917700562652
 20
-111.2722875494512
 30
0
  0
VERTEX
  5
15A
  8
CALQUE 1
  6
BYLAYER
 62
  256
 10
76.82921220480478
 20
-111.2723198153647
 30
0
  0
VERTEX
  5
15B
  8
CALQUE 1
  6
BYLAYER
 62
  256
 10
76.82923388094196
 20
-111.2723396851571
 30
0
  0
VERTEX
  5
15C
  8
CALQUE 1
  6
BYLAYER
 62
  256
 10
76.82924531235102
 20
-111.2723501639487
 30
0
  0
VERTEX
  5
15D
  8
CALQUE 1
  6
BYLAYER
 62
  256
 10
76.82924977734503
 20
-111.2723542568599
 30
0
  0
VERTEX
  5
15E
  8
CALQUE 1
  6
BYLAYER
 62
  256
 10
76.82925055423689
 20
-111.2723549690108
 30
0
  0
VERTEX
  5
15F
  8
CALQUE 1
  6
BYLAYER
 62
  256
 10
76.82925067731593
 20
-111.2723545734504
 30
0
  0
VERTEX
  5
160
  8
CALQUE 1
  6
BYLAYER
 62
  256
 10
76.82925175585812
 20
-111.2723510681882
 30
0
  0
VERTEX
  5
161
  8
CALQUE 1
  6
BYLAYER
 62
  256
 10
76.82925488334595
 20
-111.2723409038528
 30
0
  0
VERTEX
  5
162
  8
CALQUE 1
  6
BYLAYER
 62
  256
 10
76.82926115255039
 20
-111.2723205289384
 30
0
  0
VERTEX
  5
163
  8
CALQUE 1
  6
BYLAYER
 62
  256
 10
76.82927165624243
 20
-111.2722863919393
 30
0
  0
VERTEX
  5
164
  8
CALQUE 1
  6
BYLAYER
 62
  256
 10
76.82928748719308
 20
-111.2722349413497
 30
0
  0
VERTEX
  5
165
  8
CALQUE 1
  6
BYLAYER
 62
  256
 10
76.82930973817332
 20
-111.2721626256639
 30
0
  0
VERTEX
  5
166
  8
CALQUE 1
  6
BYLAYER
 62
  256
 10
76.82933950195418
 20
-111.2720658933761
 30
0
  0
VERTEX
  5
167
  8
CALQUE 1
  6
BYLAYER
 62
  256
 10
76.8293778565542
 20
-111.271941240926
 30
0
  0
VERTEX
  5
168
  8
CALQUE 1
  6
BYLAYER
 62
  256
 10
76.82942473859271
 20
-111.2717888743009
 30
0
  0
VERTEX
  5
169
  8
CALQUE 1
  6
BYLAYER
 62
  256
 10
76.82947814993788
 20
-111.271615287429
 30
0
  0
VERTEX
  5
16A
  8
CALQUE 1
  6
BYLAYER
 62
  256
 10
76.82953590504779
 20
-111.2714275833219
 30
0
  0
VERTEX
  5
16B
  8
CALQUE 1
  6
BYLAYER
 62
  256
 10
76.8295958183804
 20
-111.2712328649909
 30
0
  0
VERTEX
  5
16C
  8
CALQUE 1
  6
BYLAYER
 62
  256
 10
76.82965570439374
 20
-111.2710382354475
 30
0
  0
VERTEX
  5
16D
  8
CALQUE 1
  6
BYLAYER
 62
  256
 10
76.82971337754581
 20
-111.2708507977033
 30
0
  0
VERTEX
  5
16E
  8
CALQUE 1
  6
BYLAYER
 62
  256
 10
76.82976665229462
 20
-111.2706776547696
 30
0
  0
VERTEX
  5
16F
  8
CALQUE 1
  6
BYLAYER
 62
  256
 10
76.82981334309819
 20
-111.270525909658
 30
0
  0
VERTEX
  5
170
  8
CALQUE 1
  6
BYLAYER
 62
  256
 10
76.82985147263008
 20
-111.2704019886794
 30
0
  0
VERTEX
  5
171
  8
CALQUE 1
  6
BYLAYER
 62
  256
 10
76.82988103527278
 20
-111.2703059100907
 30
0
  0
VERTEX
  5
172
  8
CALQUE 1
  6
BYLAYER
 62
  256
 10
76.82990311243412
 20
-111.2702341593162
 30
0
  0
VERTEX
  5
173
  8
CALQUE 1
  6
BYLAYER
 62
  256
 10
76.82991879688518
 20
-111.2701831848504
 30
0
  0
VERTEX
  5
174
  8
CALQUE 1
  6
BYLAYER
 62
  256
 10
76.82992918139689
 20
-111.2701494351873
 30
0
  0
VERTEX
  5
175
  8
CALQUE 1
  6
BYLAYER
 62
  256
 10
76.82993535874024
 20
-111.2701293588213
 30
0
  0
VERTEX
  5
176
  8
CALQUE 1
  6
BYLAYER
 62
  256
 10
76.82993842168628
 20
-111.2701194042467
 30
0
  0
VERTEX
  5
177
  8
CALQUE 1
  6
BYLAYER
 62
  256
 10
76.82993946300599
 20
-111.2701160199577
 30
0
  0
VERTEX
  5
178
  8
CALQUE 1
  6
BYLAYER
 62
  256
 10
76.82994003632943
 20
-111.2701148536694
 30
0
  0
VERTEX
  5
179
  8
CALQUE 1
  6
BYLAYER
 62
  256
 10
76.83014752861268
 20
-111.2697539013925
 30
0
  0
VERTEX
  5
17A
  8
CALQUE 1
  6
BYLAYER
 62
  256
 10
76.8312984783947
 20
-111.2677517163571
 30
0
  0
VERTEX
  5
17B
  8
CALQUE 1
  6
BYLAYER
 62
  256
 10
76.83421328350053
 20
-111.2626811396428
 30
0
  0
VERTEX
  5
17C
  8
CALQUE 1
  6
BYLAYER
 62
  256
 10
76.83971234175522
 20
-111.2531150123293
 30
0
  0
VERTEX
  5
17D
  8
CALQUE 1
  6
BYLAYER
 62
  256
 10
76.84861605098379
 20
-111.2376261754961
 30
0
  0
VERTEX
  5
17E
  8
CALQUE 1
  6
BYLAYER
 62
  256
 10
76.86174480901124
 20
-111.2147874702229
 30
0
  0
VERTEX
  5
17F
  8
CALQUE 1
  6
BYLAYER
 62
  256
 10
76.87991901366263
 20
-111.1831717375892
 30
0
  0
VERTEX
  5
180
  8
CALQUE 1
  6
BYLAYER
 62
  256
 10
76.90395906276299
 20
-111.1413518186747
 30
0
  0
VERTEX
  5
181
  8
CALQUE 1
  6
BYLAYER
 62
  256
 10
76.93464113886132
 20
-111.0880045747179
 30
0
  0
VERTEX
  5
182
  8
CALQUE 1
  6
BYLAYER
 62
  256
 10
76.97200960663309
 20
-111.0235285301106
 30
0
  0
VERTEX
  5
183
  8
CALQUE 1
  6
BYLAYER
 62
  256
 10
77.01550724934454
 20
-110.9497374801518
 30
0
  0
VERTEX
  5
184
  8
CALQUE 1
  6
BYLAYER
 62
  256
 10
77.06455899625912
 20
-110.8684872231849
 30
0
  0
VERTEX
  5
185
  8
CALQUE 1
  6
BYLAYER
 62
  256
 10
77.11858977664038
 20
-110.7816335575536
 30
0
  0
VERTEX
  5
186
  8
CALQUE 1
  6
BYLAYER
 62
  256
 10
77.17702451975181
 20
-110.6910322816011
 30
0
  0
VERTEX
  5
187
  8
CALQUE 1
  6
BYLAYER
 62
  256
 10
77.23928815485694
 20
-110.5985391936711
 30
0
  0
VERTEX
  5
188
  8
CALQUE 1
  6
BYLAYER
 62
  256
 10
77.30480561121925
 20
-110.506010092107
 30
0
  0
SEQEND
  5
189
  8
CALQUE 1
  6
BYLAYER
 62
  256
  0
ENDSEC
  0
EOF
