%FSLAX33Y33*%
%MOMM*%
%LNbottom silkscreen_traces*%
%LNtext*%
G36*
G01*
X0788Y-1719D02*
X0788Y-1635D01*
X0485Y-1635D01*
X0485Y-1900D01*
X0520Y-1926D01*
X0556Y-1949D01*
X0592Y-1968D01*
X0629Y-1984D01*
X0666Y-1996D01*
X0704Y-2005D01*
X0742Y-2010D01*
X0781Y-2012D01*
X0833Y-2009D01*
X0882Y-2001D01*
X0928Y-1987D01*
X0973Y-1967D01*
X1013Y-1942D01*
X1048Y-1912D01*
X1078Y-1877D01*
X1103Y-1836D01*
X1122Y-1792D01*
X1136Y-1746D01*
X1144Y-1697D01*
X1147Y-1646D01*
X1144Y-1594D01*
X1136Y-1544D01*
X1122Y-1497D01*
X1103Y-1450D01*
X1079Y-1408D01*
X1050Y-1372D01*
X1016Y-1341D01*
X0977Y-1316D01*
X0935Y-1297D01*
X0889Y-1283D01*
X0840Y-1275D01*
X0788Y-1272D01*
X0750Y-1274D01*
X0714Y-1278D01*
X0680Y-1286D01*
X0648Y-1297D01*
X0618Y-1311D01*
X0592Y-1327D01*
X0569Y-1346D01*
X0550Y-1367D01*
X0533Y-1391D01*
X0518Y-1419D01*
X0506Y-1450D01*
X0495Y-1484D01*
X0581Y-1508D01*
X0589Y-1482D01*
X0599Y-1459D01*
X0609Y-1439D01*
X0621Y-1422D01*
X0634Y-1407D01*
X0650Y-1394D01*
X0668Y-1382D01*
X0689Y-1372D01*
X0712Y-1364D01*
X0736Y-1358D01*
X0761Y-1354D01*
X0788Y-1353D01*
X0819Y-1354D01*
X0848Y-1358D01*
X0875Y-1364D01*
X0900Y-1373D01*
X0923Y-1383D01*
X0943Y-1396D01*
X0961Y-1409D01*
X0977Y-1425D01*
X0990Y-1441D01*
X1002Y-1459D01*
X1013Y-1477D01*
X1022Y-1496D01*
X1034Y-1530D01*
X1042Y-1565D01*
X1047Y-1602D01*
X1049Y-1640D01*
X1047Y-1686D01*
X1041Y-1728D01*
X1031Y-1766D01*
X1016Y-1800D01*
X0998Y-1830D01*
X0976Y-1856D01*
X0950Y-1878D01*
X0920Y-1896D01*
X0888Y-1909D01*
X0855Y-1919D01*
X0821Y-1925D01*
X0786Y-1927D01*
X0756Y-1925D01*
X0726Y-1921D01*
X0696Y-1913D01*
X0666Y-1903D01*
X0639Y-1891D01*
X0615Y-1879D01*
X0594Y-1866D01*
X0577Y-1853D01*
X0577Y-1719D01*
X0788Y-1719D01*
X0788Y-1719D01*
X0346Y-2000D02*
X0346Y-1284D01*
X0249Y-1284D01*
X-0127Y-1846D01*
X-0127Y-1284D01*
X-0218Y-1284D01*
X-0218Y-2000D01*
X-0121Y-2000D01*
X0255Y-1438D01*
X0255Y-2000D01*
X0346Y-2000D01*
X0346Y-2000D01*
X-0377Y-2000D02*
X-0377Y-1284D01*
X-0622Y-1284D01*
X-0622Y-1369D01*
X-0472Y-1369D01*
X-0472Y-1916D01*
X-0472Y-1916D01*
X-0625Y-1916D01*
X-0658Y-1915D01*
X-0688Y-1912D01*
X-0714Y-1908D01*
X-0736Y-1902D01*
X-0755Y-1895D01*
X-0772Y-1886D01*
X-0787Y-1877D01*
X-0800Y-1865D01*
X-0816Y-1847D01*
X-0830Y-1826D01*
X-0842Y-1802D01*
X-0853Y-1775D01*
X-0861Y-1745D01*
X-0867Y-1712D01*
X-0870Y-1676D01*
X-0871Y-1637D01*
X-0869Y-1584D01*
X-0862Y-1537D01*
X-0851Y-1498D01*
X-0834Y-1464D01*
X-0815Y-1436D01*
X-0794Y-1414D01*
X-0770Y-1396D01*
X-0745Y-1383D01*
X-0723Y-1377D01*
X-0695Y-1372D01*
X-0662Y-1370D01*
X-0622Y-1369D01*
X-0622Y-1284D01*
X-0624Y-1284D01*
X-0663Y-1285D01*
X-0697Y-1287D01*
X-0727Y-1290D01*
X-0751Y-1294D01*
X-0781Y-1303D01*
X-0808Y-1314D01*
X-0833Y-1329D01*
X-0856Y-1346D01*
X-0883Y-1371D01*
X-0906Y-1400D01*
X-0925Y-1432D01*
X-0941Y-1468D01*
X-0953Y-1507D01*
X-0962Y-1548D01*
X-0967Y-1592D01*
X-0969Y-1638D01*
X-0968Y-1678D01*
X-0964Y-1715D01*
X-0958Y-1750D01*
X-0950Y-1783D01*
X-0940Y-1813D01*
X-0928Y-1840D01*
X-0915Y-1865D01*
X-0901Y-1887D01*
X-0886Y-1906D01*
X-0870Y-1924D01*
X-0853Y-1939D01*
X-0836Y-1952D01*
X-0817Y-1963D01*
X-0797Y-1973D01*
X-0775Y-1981D01*
X-0750Y-1988D01*
X-0725Y-1993D01*
X-0697Y-1997D01*
X-0667Y-1999D01*
X-0635Y-2000D01*
X-0377Y-2000D01*
X-0377Y-2000D01*
X0818Y0D02*
X1096Y0716D01*
X0993Y0716D01*
X0807Y0196D01*
X0796Y0165D01*
X0786Y0135D01*
X0777Y0106D01*
X0769Y0079D01*
X0761Y0108D01*
X0751Y0137D01*
X0742Y0167D01*
X0731Y0196D01*
X0537Y0716D01*
X0441Y0716D01*
X0721Y0D01*
X0818Y0D01*
X0818Y0D01*
X-0155Y0251D02*
X-0250Y0227D01*
X-0232Y0172D01*
X-0208Y0124D01*
X-0178Y0083D01*
X-0142Y0049D01*
X-0102Y0022D01*
X-0056Y0003D01*
X-0007Y-0008D01*
X0047Y-0012D01*
X0102Y-0009D01*
X0152Y0D01*
X0196Y0014D01*
X0235Y0035D01*
X0269Y0061D01*
X0299Y0093D01*
X0324Y0129D01*
X0345Y0171D01*
X0362Y0217D01*
X0374Y0264D01*
X0381Y0313D01*
X0383Y0363D01*
X0381Y0417D01*
X0373Y0468D01*
X0359Y0515D01*
X0340Y0558D01*
X0317Y0597D01*
X0289Y0632D01*
X0256Y0661D01*
X0219Y0685D01*
X0178Y0704D01*
X0136Y0717D01*
X0092Y0725D01*
X0045Y0728D01*
X-0006Y0725D01*
X-0054Y0714D01*
X-0097Y0697D01*
X-0135Y0673D01*
X-0169Y0643D01*
X-0198Y0608D01*
X-0220Y0566D01*
X-0237Y0520D01*
X-0144Y0498D01*
X-0130Y0534D01*
X-0114Y0565D01*
X-0094Y0591D01*
X-0072Y0611D01*
X-0047Y0627D01*
X-0018Y0638D01*
X0013Y0645D01*
X0047Y0647D01*
X0087Y0645D01*
X0123Y0637D01*
X0156Y0625D01*
X0185Y0607D01*
X0211Y0586D01*
X0232Y0561D01*
X0250Y0533D01*
X0263Y0501D01*
X0273Y0468D01*
X0280Y0434D01*
X0284Y0399D01*
X0286Y0364D01*
X0284Y0320D01*
X0279Y0278D01*
X0271Y0240D01*
X0259Y0204D01*
X0244Y0172D01*
X0225Y0145D01*
X0202Y0122D01*
X0176Y0103D01*
X0148Y0088D01*
X0118Y0077D01*
X0087Y0071D01*
X0055Y0069D01*
X0016Y0072D01*
X-0019Y0080D01*
X-0051Y0095D01*
X-0080Y0115D01*
X-0106Y0140D01*
X-0126Y0172D01*
X-0143Y0209D01*
X-0155Y0251D01*
X-0155Y0251D01*
X-0877Y0251D02*
X-0972Y0227D01*
X-0954Y0172D01*
X-0930Y0124D01*
X-0900Y0083D01*
X-0865Y0049D01*
X-0824Y0022D01*
X-0779Y0003D01*
X-0729Y-0008D01*
X-0675Y-0012D01*
X-0620Y-0009D01*
X-0570Y0D01*
X-0526Y0014D01*
X-0487Y0035D01*
X-0453Y0061D01*
X-0423Y0093D01*
X-0398Y0129D01*
X-0377Y0171D01*
X-0360Y0217D01*
X-0348Y0264D01*
X-0341Y0313D01*
X-0339Y0363D01*
X-0342Y0417D01*
X-0350Y0468D01*
X-0363Y0515D01*
X-0382Y0558D01*
X-0405Y0597D01*
X-0433Y0632D01*
X-0466Y0661D01*
X-0503Y0685D01*
X-0544Y0704D01*
X-0586Y0717D01*
X-0631Y0725D01*
X-0677Y0728D01*
X-0728Y0725D01*
X-0776Y0714D01*
X-0819Y0697D01*
X-0858Y0673D01*
X-0891Y0643D01*
X-0920Y0608D01*
X-0942Y0566D01*
X-0960Y0520D01*
X-0866Y0498D01*
X-0852Y0534D01*
X-0836Y0565D01*
X-0816Y0591D01*
X-0794Y0611D01*
X-0769Y0627D01*
X-0741Y0638D01*
X-0709Y0645D01*
X-0675Y0647D01*
X-0635Y0645D01*
X-0599Y0637D01*
X-0566Y0625D01*
X-0537Y0607D01*
X-0511Y0586D01*
X-0490Y0561D01*
X-0472Y0533D01*
X-0459Y0501D01*
X-0449Y0468D01*
X-0442Y0434D01*
X-0438Y0399D01*
X-0437Y0364D01*
X-0438Y0320D01*
X-0443Y0278D01*
X-0452Y0240D01*
X-0463Y0204D01*
X-0478Y0172D01*
X-0497Y0145D01*
X-0520Y0122D01*
X-0546Y0103D01*
X-0575Y0088D01*
X-0604Y0077D01*
X-0635Y0071D01*
X-0668Y0069D01*
X-0706Y0072D01*
X-0741Y0080D01*
X-0773Y0095D01*
X-0802Y0115D01*
X-0828Y0140D01*
X-0849Y0172D01*
X-0865Y0209D01*
X-0877Y0251D01*
X-0877Y0251D01*
X1123Y-4000D02*
X1123Y-3284D01*
X0853Y-3284D01*
X0819Y-3285D01*
X0790Y-3286D01*
X0765Y-3288D01*
X0744Y-3291D01*
X0719Y-3296D01*
X0695Y-3304D01*
X0674Y-3313D01*
X0656Y-3324D01*
X0639Y-3338D01*
X0623Y-3354D01*
X0610Y-3373D01*
X0598Y-3394D01*
X0589Y-3416D01*
X0582Y-3440D01*
X0578Y-3465D01*
X0576Y-3491D01*
X0580Y-3535D01*
X0591Y-3576D01*
X0609Y-3612D01*
X0635Y-3646D01*
X0669Y-3673D01*
X0716Y-3693D01*
X0774Y-3705D01*
X0796Y-3706D01*
X0800Y-3622D01*
X0765Y-3616D01*
X0735Y-3605D01*
X0713Y-3590D01*
X0696Y-3572D01*
X0684Y-3549D01*
X0677Y-3523D01*
X0674Y-3494D01*
X0676Y-3472D01*
X0680Y-3452D01*
X0687Y-3434D01*
X0697Y-3417D01*
X0709Y-3403D01*
X0723Y-3391D01*
X0739Y-3381D01*
X0757Y-3375D01*
X0771Y-3372D01*
X0791Y-3370D01*
X0815Y-3369D01*
X0845Y-3369D01*
X1028Y-3369D01*
X1028Y-3625D01*
X1028Y-3625D01*
X0843Y-3625D01*
X0800Y-3622D01*
X0796Y-3706D01*
X0845Y-3709D01*
X1028Y-3709D01*
X1028Y-4000D01*
X1123Y-4000D01*
X1123Y-4000D01*
X0331Y-4000D02*
X0521Y-3284D01*
X0424Y-3284D01*
X0315Y-3753D01*
X0306Y-3790D01*
X0298Y-3827D01*
X0291Y-3863D01*
X0284Y-3900D01*
X0272Y-3849D01*
X0263Y-3809D01*
X0256Y-3782D01*
X0252Y-3768D01*
X0116Y-3284D01*
X0002Y-3284D01*
X-0101Y-3646D01*
X-0119Y-3713D01*
X-0134Y-3777D01*
X-0147Y-3840D01*
X-0156Y-3900D01*
X-0164Y-3865D01*
X-0172Y-3827D01*
X-0182Y-3787D01*
X-0192Y-3744D01*
X-0304Y-3284D01*
X-0400Y-3284D01*
X-0203Y-4000D01*
X-0112Y-4000D01*
X0039Y-3455D01*
X0047Y-3424D01*
X0054Y-3399D01*
X0059Y-3382D01*
X0061Y-3371D01*
X0067Y-3394D01*
X0072Y-3416D01*
X0077Y-3436D01*
X0082Y-3455D01*
X0234Y-4000D01*
X0331Y-4000D01*
X0331Y-4000D01*
X-0485Y-4000D02*
X-0485Y-3284D01*
X-0628Y-3284D01*
X-0797Y-3791D01*
X-0808Y-3824D01*
X-0817Y-3853D01*
X-0825Y-3877D01*
X-0831Y-3897D01*
X-0838Y-3875D01*
X-0847Y-3849D01*
X-0857Y-3818D01*
X-0869Y-3782D01*
X-1041Y-3284D01*
X-1168Y-3284D01*
X-1168Y-4000D01*
X-1077Y-4000D01*
X-1077Y-3401D01*
X-0869Y-4000D01*
X-0783Y-4000D01*
X-0576Y-3391D01*
X-0576Y-4000D01*
X-0485Y-4000D01*
X-0485Y-4000D01*
X5207Y6526D02*
X7389Y6526D01*
X7389Y6814D01*
X5464Y6814D01*
X5464Y7889D01*
X5207Y7889D01*
X5207Y6526D01*
X5207Y6526D01*
X5207Y9234D02*
X5439Y9234D01*
X5322Y9134D01*
X5238Y9017D01*
X5188Y8883D01*
X5171Y8733D01*
X5175Y8664D01*
X5185Y8598D01*
X5201Y8533D01*
X5225Y8472D01*
X5253Y8415D01*
X5285Y8366D01*
X5321Y8325D01*
X5360Y8291D01*
X5402Y8264D01*
X5450Y8241D01*
X5502Y8223D01*
X5558Y8209D01*
X5603Y8202D01*
X5660Y8197D01*
X5728Y8194D01*
X5808Y8193D01*
X6788Y8193D01*
X6788Y8460D01*
X5911Y8460D01*
X5815Y8461D01*
X5735Y8465D01*
X5673Y8470D01*
X5628Y8477D01*
X5578Y8493D01*
X5534Y8516D01*
X5495Y8547D01*
X5462Y8584D01*
X5436Y8627D01*
X5417Y8675D01*
X5406Y8728D01*
X5402Y8786D01*
X5406Y8846D01*
X5417Y8903D01*
X5437Y8959D01*
X5464Y9013D01*
X5497Y9062D01*
X5537Y9103D01*
X5581Y9136D01*
X5632Y9162D01*
X5691Y9181D01*
X5762Y9195D01*
X5846Y9203D01*
X5941Y9206D01*
X6788Y9206D01*
X6788Y9474D01*
X5207Y9474D01*
X5207Y9234D01*
X5207Y9234D01*
X5207Y9888D02*
X7389Y9888D01*
X7389Y10156D01*
X5207Y10156D01*
X5207Y9888D01*
X5207Y9888D01*
X5207Y11607D02*
X5439Y11607D01*
X5322Y11506D01*
X5238Y11389D01*
X5188Y11255D01*
X5171Y11105D01*
X5175Y11036D01*
X5185Y10970D01*
X5201Y10906D01*
X5225Y10844D01*
X5253Y10787D01*
X5285Y10738D01*
X5321Y10697D01*
X5360Y10664D01*
X5402Y10637D01*
X5450Y10614D01*
X5502Y10595D01*
X5558Y10581D01*
X5603Y10574D01*
X5660Y10569D01*
X5728Y10566D01*
X5808Y10565D01*
X6788Y10565D01*
X6788Y10833D01*
X5911Y10833D01*
X5815Y10834D01*
X5735Y10837D01*
X5673Y10842D01*
X5628Y10849D01*
X5578Y10865D01*
X5534Y10888D01*
X5495Y10919D01*
X5462Y10956D01*
X5436Y11000D01*
X5417Y11048D01*
X5406Y11101D01*
X5402Y11159D01*
X5406Y11218D01*
X5417Y11275D01*
X5437Y11331D01*
X5464Y11385D01*
X5497Y11434D01*
X5537Y11475D01*
X5581Y11509D01*
X5632Y11534D01*
X5691Y11554D01*
X5762Y11567D01*
X5846Y11576D01*
X5941Y11578D01*
X6788Y11578D01*
X6788Y11846D01*
X5207Y11846D01*
X5207Y11607D01*
X5207Y11607D01*
G37*
M02*