G04 #@! TF.GenerationSoftware,KiCad,Pcbnew,5.0.0-fee4fd1~66~ubuntu18.04.1*
G04 #@! TF.CreationDate,2018-09-18T17:11:03+02:00*
G04 #@! TF.ProjectId,Lulu_star_212,4C756C755F737461725F3231322E6B69,2.1.2*
G04 #@! TF.SameCoordinates,Original*
G04 #@! TF.FileFunction,Profile,NP*
%FSLAX46Y46*%
G04 Gerber Fmt 4.6, Leading zero omitted, Abs format (unit mm)*
G04 Created by KiCad (PCBNEW 5.0.0-fee4fd1~66~ubuntu18.04.1) date Tue Sep 18 17:11:03 2018*
%MOMM*%
%LPD*%
G01*
G04 APERTURE LIST*
%ADD10C,0.010000*%
G04 APERTURE END LIST*
D10*
X73643222Y-30776973D02*
X73707002Y-30833488D01*
X73577677Y-30722415D02*
X73643222Y-30776973D01*
X73510351Y-30669975D02*
X73577677Y-30722415D01*
X73441231Y-30619757D02*
X73510351Y-30669975D01*
X73370304Y-30571868D02*
X73441231Y-30619757D01*
X73297557Y-30526465D02*
X73370304Y-30571868D01*
X73222976Y-30483655D02*
X73297557Y-30526465D01*
X73146551Y-30443571D02*
X73222976Y-30483655D01*
X73068267Y-30406318D02*
X73146551Y-30443571D01*
X72988108Y-30372028D02*
X73068267Y-30406318D01*
X72906064Y-30340833D02*
X72988108Y-30372028D01*
X72822122Y-30312840D02*
X72906064Y-30340833D01*
X72736265Y-30288234D02*
X72822122Y-30312840D01*
X72648487Y-30267068D02*
X72736265Y-30288234D01*
X72558766Y-30249340D02*
X72648487Y-30267068D01*
X72467096Y-30235318D02*
X72558766Y-30249340D01*
X75188336Y-35124923D02*
X75100140Y-35176173D01*
X75100140Y-35176173D02*
X75011946Y-35227423D01*
X74747363Y-35381199D02*
X74659166Y-35432449D01*
X75276529Y-35073647D02*
X75188336Y-35124923D01*
X73333570Y-36402834D02*
X73344259Y-36421620D01*
X73322880Y-36384049D02*
X73333570Y-36402834D01*
X74218196Y-35688724D02*
X74130000Y-35740000D01*
X75717502Y-34817372D02*
X75629306Y-34868622D01*
X73865416Y-35893750D02*
X73777223Y-35945026D01*
X73483218Y-36665830D02*
X73493907Y-36684616D01*
X73472529Y-36647045D02*
X73483218Y-36665830D01*
X73461840Y-36628259D02*
X73472529Y-36647045D01*
X73258745Y-36271337D02*
X73269435Y-36290122D01*
X73424446Y-36150052D02*
X73336250Y-36201301D01*
X74923752Y-35278673D02*
X74835556Y-35329949D01*
X75011946Y-35227423D02*
X74923752Y-35278673D01*
X74835556Y-35329949D02*
X74747363Y-35381199D01*
X73419083Y-36553118D02*
X73429772Y-36571903D01*
X73408394Y-36534332D02*
X73419083Y-36553118D01*
X73397705Y-36515547D02*
X73408394Y-36534332D01*
X73953613Y-35842500D02*
X73865416Y-35893750D01*
X73777223Y-35945026D02*
X73689029Y-35996276D01*
X73387015Y-36496762D02*
X73397705Y-36515547D01*
X73376326Y-36477976D02*
X73387015Y-36496762D01*
X73365637Y-36459191D02*
X73376326Y-36477976D01*
X73312191Y-36365264D02*
X73322880Y-36384049D01*
X73301502Y-36346478D02*
X73312191Y-36365264D01*
X73579420Y-36834899D02*
X73590110Y-36853684D01*
X73568731Y-36816114D02*
X73579420Y-36834899D01*
X73558042Y-36797328D02*
X73568731Y-36816114D01*
X73336250Y-36201301D02*
X73248056Y-36252551D01*
X75982086Y-34663596D02*
X75893890Y-34714872D01*
X75629306Y-34868622D02*
X75541113Y-34919898D01*
X77667593Y-42983181D02*
X77820943Y-43248452D01*
X77514243Y-42717883D02*
X77667593Y-42983181D01*
X77360893Y-42452612D02*
X77514243Y-42717883D01*
X77207543Y-42187340D02*
X77360893Y-42452612D01*
X77054193Y-41922069D02*
X77207543Y-42187340D01*
X76900843Y-41656798D02*
X77054193Y-41922069D01*
X76747494Y-41391527D02*
X76900843Y-41656798D01*
X76594144Y-41126255D02*
X76747494Y-41391527D01*
X76440794Y-40860984D02*
X76594144Y-41126255D01*
X76287444Y-40595713D02*
X76440794Y-40860984D01*
X76134094Y-40330442D02*
X76287444Y-40595713D01*
X75980744Y-40065170D02*
X76134094Y-40330442D01*
X75827394Y-39799899D02*
X75980744Y-40065170D01*
X75674045Y-39534628D02*
X75827394Y-39799899D01*
X75520695Y-39269357D02*
X75674045Y-39534628D01*
X75367345Y-39004085D02*
X75520695Y-39269357D01*
X75213995Y-38738814D02*
X75367345Y-39004085D01*
X75060645Y-38473517D02*
X75213995Y-38738814D01*
X74907295Y-38208245D02*
X75060645Y-38473517D01*
X74753946Y-37942974D02*
X74907295Y-38208245D01*
X74600596Y-37677703D02*
X74753946Y-37942974D01*
X74447246Y-37412432D02*
X74600596Y-37677703D01*
X74293896Y-37147160D02*
X74447246Y-37412432D01*
X74140546Y-36881889D02*
X74293896Y-37147160D01*
X73987196Y-36616618D02*
X74140546Y-36881889D01*
X73974787Y-36624026D02*
X73987196Y-36616618D01*
X73962378Y-36631434D02*
X73974787Y-36624026D01*
X73949969Y-36638843D02*
X73962378Y-36631434D01*
X73937560Y-36646251D02*
X73949969Y-36638843D01*
X73925151Y-36653659D02*
X73937560Y-36646251D01*
X73912742Y-36661068D02*
X73925151Y-36653659D01*
X73900334Y-36668476D02*
X73912742Y-36661068D01*
X73887925Y-36675884D02*
X73900334Y-36668476D01*
X73875516Y-36683293D02*
X73887925Y-36675884D01*
X73863107Y-36690701D02*
X73875516Y-36683293D01*
X73850698Y-36698109D02*
X73863107Y-36690701D01*
X73838289Y-36705518D02*
X73850698Y-36698109D01*
X73825880Y-36712926D02*
X73838289Y-36705518D01*
X73813471Y-36720334D02*
X73825880Y-36712926D01*
X73801062Y-36727743D02*
X73813471Y-36720334D01*
X73788653Y-36735151D02*
X73801062Y-36727743D01*
X73776244Y-36742559D02*
X73788653Y-36735151D01*
X73763835Y-36749968D02*
X73776244Y-36742559D01*
X73751426Y-36757376D02*
X73763835Y-36749968D01*
X73248056Y-36252551D02*
X73258745Y-36271337D01*
X63682659Y-42590645D02*
X63924780Y-42171518D01*
X63440539Y-43009771D02*
X63682659Y-42590645D01*
X63198419Y-43428871D02*
X63440539Y-43009771D01*
X62956298Y-43847998D02*
X63198419Y-43428871D01*
X62714178Y-44267124D02*
X62956298Y-43847998D01*
X62472057Y-44686224D02*
X62714178Y-44267124D01*
X62229937Y-45105351D02*
X62472057Y-44686224D01*
X62750701Y-45105351D02*
X62229937Y-45105351D01*
X63271465Y-45105351D02*
X62750701Y-45105351D01*
X63792230Y-45105351D02*
X63271465Y-45105351D01*
X64312994Y-45105351D02*
X63792230Y-45105351D01*
X64833758Y-45105351D02*
X64312994Y-45105351D01*
X65354522Y-45105351D02*
X64833758Y-45105351D01*
X65875286Y-45105351D02*
X65354522Y-45105351D01*
X66396051Y-45105351D02*
X65875286Y-45105351D01*
X66916815Y-45105351D02*
X66396051Y-45105351D01*
X67437579Y-45105351D02*
X66916815Y-45105351D01*
X67958343Y-45105351D02*
X67437579Y-45105351D01*
X68479108Y-45105351D02*
X67958343Y-45105351D01*
X68999872Y-45105351D02*
X68479108Y-45105351D01*
X69520635Y-45105351D02*
X68999872Y-45105351D01*
X70041401Y-45105351D02*
X69520635Y-45105351D01*
X70562165Y-45105351D02*
X70041401Y-45105351D01*
X71082928Y-45105351D02*
X70562165Y-45105351D01*
X71603692Y-45105351D02*
X71082928Y-45105351D01*
X72124458Y-45105351D02*
X71603692Y-45105351D01*
X72645222Y-45105351D02*
X72124458Y-45105351D01*
X73165985Y-45105351D02*
X72645222Y-45105351D01*
X73686749Y-45105351D02*
X73165985Y-45105351D01*
X74207515Y-45105351D02*
X73686749Y-45105351D01*
X74728278Y-45105351D02*
X74207515Y-45105351D01*
X75249042Y-45105351D02*
X74728278Y-45105351D01*
X75769805Y-45105351D02*
X75249042Y-45105351D01*
X76290571Y-45105351D02*
X75769805Y-45105351D01*
X76811335Y-45105351D02*
X76290571Y-45105351D01*
X77332098Y-45105351D02*
X76811335Y-45105351D01*
X77852862Y-45105351D02*
X77332098Y-45105351D01*
X78373628Y-45105351D02*
X77852862Y-45105351D01*
X78894392Y-45105351D02*
X78373628Y-45105351D01*
X78741042Y-44840079D02*
X78894392Y-45105351D01*
X78587692Y-44574808D02*
X78741042Y-44840079D01*
X78434342Y-44309537D02*
X78587692Y-44574808D01*
X78280992Y-44044266D02*
X78434342Y-44309537D01*
X78127642Y-43778994D02*
X78280992Y-44044266D01*
X77974292Y-43513723D02*
X78127642Y-43778994D01*
X77820943Y-43248452D02*
X77974292Y-43513723D01*
X74041806Y-35791250D02*
X73953613Y-35842500D01*
X73739017Y-36764784D02*
X73751426Y-36757376D01*
X73726608Y-36772193D02*
X73739017Y-36764784D01*
X73714199Y-36779601D02*
X73726608Y-36772193D01*
X73701790Y-36787009D02*
X73714199Y-36779601D01*
X73689381Y-36794418D02*
X73701790Y-36787009D01*
X73676972Y-36801826D02*
X73689381Y-36794418D01*
X73664563Y-36809234D02*
X73676972Y-36801826D01*
X73652154Y-36816643D02*
X73664563Y-36809234D01*
X75364723Y-35022397D02*
X75276529Y-35073647D01*
X74482779Y-35534975D02*
X74394583Y-35586224D01*
X73689029Y-35996276D02*
X73600833Y-36047525D01*
X73512640Y-36098775D02*
X73424446Y-36150052D01*
X76017995Y-34520800D02*
X76070279Y-34612346D01*
X75965197Y-34429545D02*
X76017995Y-34520800D01*
X75912402Y-34338317D02*
X75965197Y-34429545D01*
X75859605Y-34247062D02*
X75912402Y-34338317D01*
X75806810Y-34155834D02*
X75859605Y-34247062D01*
X75754012Y-34064579D02*
X75806810Y-34155834D01*
X75701217Y-33973351D02*
X75754012Y-34064579D01*
X75648420Y-33882096D02*
X75701217Y-33973351D01*
X75595625Y-33790868D02*
X75648420Y-33882096D01*
X75542830Y-33699613D02*
X75595625Y-33790868D01*
X75490032Y-33608385D02*
X75542830Y-33699613D01*
X75437237Y-33517130D02*
X75490032Y-33608385D01*
X75384440Y-33425902D02*
X75437237Y-33517130D01*
X75331645Y-33334647D02*
X75384440Y-33425902D01*
X75278847Y-33243418D02*
X75331645Y-33334647D01*
X75226052Y-33152164D02*
X75278847Y-33243418D01*
X75173257Y-33060935D02*
X75226052Y-33152164D01*
X75120460Y-32969680D02*
X75173257Y-33060935D01*
X75067665Y-32878452D02*
X75120460Y-32969680D01*
X75014867Y-32787197D02*
X75067665Y-32878452D01*
X74962072Y-32695969D02*
X75014867Y-32787197D01*
X74909274Y-32604714D02*
X74962072Y-32695969D01*
X74856479Y-32513486D02*
X74909274Y-32604714D01*
X74803682Y-32422231D02*
X74856479Y-32513486D01*
X74750887Y-32331003D02*
X74803682Y-32422231D01*
X74698092Y-32239748D02*
X74750887Y-32331003D01*
X74645294Y-32148520D02*
X74698092Y-32239748D01*
X74592499Y-32057265D02*
X74645294Y-32148520D01*
X74539702Y-31966037D02*
X74592499Y-32057265D01*
X74486907Y-31874782D02*
X74539702Y-31966037D01*
X74434109Y-31783553D02*
X74486907Y-31874782D01*
X74381314Y-31692299D02*
X74434109Y-31783553D01*
X74339309Y-31621258D02*
X74381314Y-31692299D01*
X74295708Y-31550614D02*
X74339309Y-31621258D01*
X74250496Y-31480447D02*
X74295708Y-31550614D01*
X74203665Y-31410914D02*
X74250496Y-31480447D01*
X74155196Y-31342123D02*
X74203665Y-31410914D01*
X74105081Y-31274204D02*
X74155196Y-31342123D01*
X74053302Y-31207291D02*
X74105081Y-31274204D01*
X73999851Y-31141463D02*
X74053302Y-31207291D01*
X73944709Y-31076904D02*
X73999851Y-31141463D01*
X73887866Y-31013695D02*
X73944709Y-31076904D01*
X73829311Y-30951968D02*
X73887866Y-31013695D01*
X73769026Y-30891855D02*
X73829311Y-30951968D01*
X73707002Y-30833488D02*
X73769026Y-30891855D01*
X72373460Y-30225263D02*
X72467096Y-30235318D01*
X72277845Y-30219178D02*
X72373460Y-30225263D01*
X72180240Y-30216532D02*
X72277845Y-30219178D01*
X72082630Y-30219178D02*
X72180240Y-30216532D01*
X71987007Y-30225263D02*
X72082630Y-30219178D01*
X71893353Y-30235318D02*
X71987007Y-30225263D01*
X71801656Y-30249340D02*
X71893353Y-30235318D01*
X71711907Y-30267068D02*
X71801656Y-30249340D01*
X71624089Y-30288234D02*
X71711907Y-30267068D01*
X71538192Y-30312840D02*
X71624089Y-30288234D01*
X71454202Y-30340886D02*
X71538192Y-30312840D01*
X71372107Y-30372107D02*
X71454202Y-30340886D01*
X71291896Y-30406424D02*
X71372107Y-30372107D01*
X71213553Y-30443730D02*
X71291896Y-30406424D01*
X71137068Y-30483867D02*
X71213553Y-30443730D01*
X71062429Y-30526730D02*
X71137068Y-30483867D01*
X70989618Y-30572159D02*
X71062429Y-30526730D01*
X70918628Y-30620101D02*
X70989618Y-30572159D01*
X70849442Y-30670372D02*
X70918628Y-30620101D01*
X70782052Y-30722865D02*
X70849442Y-30670372D01*
X70716441Y-30777449D02*
X70782052Y-30722865D01*
X70652600Y-30834043D02*
X70716441Y-30777449D01*
X70590512Y-30892490D02*
X70652600Y-30834043D01*
X70530169Y-30952656D02*
X70590512Y-30892490D01*
X70471556Y-31014436D02*
X70530169Y-30952656D01*
X70414660Y-31077698D02*
X70471556Y-31014436D01*
X70359470Y-31142309D02*
X70414660Y-31077698D01*
X70305972Y-31208190D02*
X70359470Y-31142309D01*
X70254150Y-31275157D02*
X70305972Y-31208190D01*
X70203999Y-31343128D02*
X70254150Y-31275157D01*
X70155498Y-31411973D02*
X70203999Y-31343128D01*
X70108643Y-31481558D02*
X70155498Y-31411973D01*
X70063412Y-31551778D02*
X70108643Y-31481558D01*
X70019801Y-31622475D02*
X70063412Y-31551778D01*
X69977790Y-31693569D02*
X70019801Y-31622475D01*
X69735670Y-32112695D02*
X69977790Y-31693569D01*
X69493550Y-32531795D02*
X69735670Y-32112695D01*
X69251430Y-32950922D02*
X69493550Y-32531795D01*
X69009310Y-33370048D02*
X69251430Y-32950922D01*
X68767189Y-33789148D02*
X69009310Y-33370048D01*
X68525069Y-34208274D02*
X68767189Y-33789148D01*
X68282946Y-34627401D02*
X68525069Y-34208274D01*
X68040827Y-35046527D02*
X68282946Y-34627401D01*
X67798706Y-35465627D02*
X68040827Y-35046527D01*
X67556586Y-35884754D02*
X67798706Y-35465627D01*
X67314466Y-36303880D02*
X67556586Y-35884754D01*
X67072345Y-36722980D02*
X67314466Y-36303880D01*
X66830225Y-37142107D02*
X67072345Y-36722980D01*
X66588104Y-37561233D02*
X66830225Y-37142107D01*
X66345984Y-37980333D02*
X66588104Y-37561233D01*
X66103864Y-38399460D02*
X66345984Y-37980333D01*
X65861743Y-38818586D02*
X66103864Y-38399460D01*
X65619623Y-39237686D02*
X65861743Y-38818586D01*
X65377502Y-39656813D02*
X65619623Y-39237686D01*
X65135382Y-40075939D02*
X65377502Y-39656813D01*
X64893261Y-40495039D02*
X65135382Y-40075939D01*
X64651141Y-40914165D02*
X64893261Y-40495039D01*
X64409021Y-41333292D02*
X64651141Y-40914165D01*
X64166900Y-41752418D02*
X64409021Y-41333292D01*
X63924780Y-42171518D02*
X64166900Y-41752418D01*
X75805696Y-34766122D02*
X75717502Y-34817372D01*
X73547353Y-36778543D02*
X73558042Y-36797328D01*
X73536664Y-36759757D02*
X73547353Y-36778543D01*
X73525975Y-36740972D02*
X73536664Y-36759757D01*
X73515285Y-36722187D02*
X73525975Y-36740972D01*
X73504596Y-36703401D02*
X73515285Y-36722187D01*
X73493907Y-36684616D02*
X73504596Y-36703401D01*
X76070279Y-34612346D02*
X75982086Y-34663596D01*
X74659166Y-35432449D02*
X74570973Y-35483698D01*
X74570973Y-35483698D02*
X74482779Y-35534975D01*
X74394583Y-35586224D02*
X74306390Y-35637474D01*
X73451150Y-36609474D02*
X73461840Y-36628259D01*
X73440461Y-36590689D02*
X73451150Y-36609474D01*
X73429772Y-36571903D02*
X73440461Y-36590689D01*
X75541113Y-34919898D02*
X75452919Y-34971148D01*
X75893890Y-34714872D02*
X75805696Y-34766122D01*
X73600833Y-36047525D02*
X73512640Y-36098775D01*
X73354948Y-36440405D02*
X73365637Y-36459191D01*
X73344259Y-36421620D02*
X73354948Y-36440405D01*
X75452919Y-34971148D02*
X75364723Y-35022397D01*
X74306390Y-35637474D02*
X74218196Y-35688724D01*
X73639745Y-36824051D02*
X73652154Y-36816643D01*
X73627336Y-36831459D02*
X73639745Y-36824051D01*
X73614927Y-36838868D02*
X73627336Y-36831459D01*
X73602519Y-36846276D02*
X73614927Y-36838868D01*
X73590110Y-36853684D02*
X73602519Y-36846276D01*
X73269435Y-36290122D02*
X73280124Y-36308907D01*
X73290813Y-36327693D02*
X73301502Y-36346478D01*
X73280124Y-36308907D02*
X73290813Y-36327693D01*
X74130000Y-35740000D02*
X74041806Y-35791250D01*
M02*
