G04 #@! TF.GenerationSoftware,KiCad,Pcbnew,5.0.0-fee4fd1~66~ubuntu18.04.1*
G04 #@! TF.CreationDate,2018-09-18T17:28:18+02:00*
G04 #@! TF.ProjectId,Lulu_star_212,4C756C755F737461725F3231322E6B69,2.1.2*
G04 #@! TF.SameCoordinates,Original*
G04 #@! TF.FileFunction,Copper,L1,Top*
G04 #@! TF.FilePolarity,Positive*
%FSLAX46Y46*%
G04 Gerber Fmt 4.6, Leading zero omitted, Abs format (unit mm)*
G04 Created by KiCad (PCBNEW 5.0.0-fee4fd1~66~ubuntu18.04.1) date Tue Sep 18 17:28:18 2018*
%MOMM*%
%LPD*%
G01*
G04 APERTURE LIST*
G04 #@! TA.AperFunction,EtchedComponent*
%ADD10C,0.100000*%
G04 #@! TD*
G04 #@! TA.AperFunction,ViaPad*
%ADD11C,0.400000*%
G04 #@! TD*
G04 #@! TA.AperFunction,ViaPad*
%ADD12C,1.000000*%
G04 #@! TD*
G04 #@! TA.AperFunction,ComponentPad*
%ADD13C,0.600000*%
G04 #@! TD*
G04 #@! TA.AperFunction,Conductor*
%ADD14C,0.600000*%
G04 #@! TD*
G04 #@! TA.AperFunction,ComponentPad*
%ADD15C,1.100000*%
G04 #@! TD*
G04 #@! TA.AperFunction,Conductor*
%ADD16C,1.100000*%
G04 #@! TD*
G04 #@! TA.AperFunction,SMDPad,CuDef*
%ADD17C,2.480000*%
G04 #@! TD*
G04 #@! TA.AperFunction,Conductor*
%ADD18C,0.100000*%
G04 #@! TD*
G04 #@! TA.AperFunction,SMDPad,CuDef*
%ADD19C,0.950000*%
G04 #@! TD*
G04 #@! TA.AperFunction,SMDPad,CuDef*
%ADD20C,1.675000*%
G04 #@! TD*
G04 #@! TA.AperFunction,ComponentPad*
%ADD21C,1.670000*%
G04 #@! TD*
G04 #@! TA.AperFunction,SMDPad,CuDef*
%ADD22R,0.900000X0.800000*%
G04 #@! TD*
G04 #@! TA.AperFunction,SMDPad,CuDef*
%ADD23C,1.425000*%
G04 #@! TD*
G04 #@! TA.AperFunction,ViaPad*
%ADD24C,0.600000*%
G04 #@! TD*
G04 #@! TA.AperFunction,ViaPad*
%ADD25C,0.800000*%
G04 #@! TD*
G04 #@! TA.AperFunction,Conductor*
%ADD26C,0.250000*%
G04 #@! TD*
G04 #@! TA.AperFunction,Conductor*
%ADD27C,0.150000*%
G04 #@! TD*
G04 #@! TA.AperFunction,Conductor*
%ADD28C,0.254000*%
G04 #@! TD*
G04 APERTURE END LIST*
D10*
G04 #@! TO.C,P1*
G36*
X74442770Y-40829644D02*
X74412770Y-40777682D01*
X74391430Y-40720721D01*
X74365091Y-40655099D01*
X74332411Y-40558497D01*
X74299732Y-40461894D01*
X74280713Y-40368952D01*
X74254014Y-40222708D01*
X74247315Y-40111106D01*
X74245616Y-40008163D01*
X74250257Y-39936202D01*
X74258559Y-39850580D01*
X74272841Y-39715317D01*
X74287482Y-39660676D01*
X74305783Y-39592375D01*
X74327744Y-39510414D01*
X74354706Y-39437112D01*
X74374347Y-39391131D01*
X74397648Y-39331490D01*
X74417289Y-39285510D01*
X74445591Y-39234529D01*
X74473892Y-39183548D01*
X74502193Y-39132567D01*
X74539155Y-39076587D01*
X74563796Y-39039266D01*
X74597097Y-38996946D01*
X74642719Y-38935965D01*
X74693340Y-38883644D01*
X74756283Y-38812664D01*
X74794584Y-38779003D01*
X74832885Y-38745343D01*
X74879847Y-38706683D01*
X74952789Y-38653023D01*
X75025731Y-38599362D01*
X75095013Y-38559362D01*
X75945013Y-40031606D01*
X74472770Y-40881606D01*
X74442770Y-40829644D01*
G37*
G36*
X76743052Y-41533849D02*
X76691090Y-41563849D01*
X76634129Y-41585188D01*
X76568507Y-41611528D01*
X76471905Y-41644208D01*
X76375302Y-41676887D01*
X76282360Y-41695906D01*
X76136116Y-41722605D01*
X76024514Y-41729304D01*
X75921571Y-41731003D01*
X75849610Y-41726362D01*
X75763988Y-41718060D01*
X75628725Y-41703778D01*
X75574084Y-41689137D01*
X75505783Y-41670836D01*
X75423821Y-41648874D01*
X75350520Y-41621913D01*
X75304539Y-41602272D01*
X75244898Y-41578971D01*
X75198918Y-41559330D01*
X75147937Y-41531028D01*
X75096956Y-41502727D01*
X75045975Y-41474426D01*
X74989995Y-41437464D01*
X74952674Y-41412823D01*
X74910354Y-41379522D01*
X74849373Y-41333900D01*
X74797052Y-41283278D01*
X74726071Y-41220336D01*
X74692411Y-41182035D01*
X74658751Y-41143734D01*
X74620091Y-41096772D01*
X74566430Y-41023830D01*
X74512770Y-40950888D01*
X74472770Y-40881606D01*
X75945013Y-40031606D01*
X76795013Y-41503849D01*
X76743052Y-41533849D01*
G37*
G04 #@! TD*
D11*
G04 #@! TO.N,GND*
G04 #@! TO.C,LED1*
X71396115Y-32893469D03*
D12*
X72143258Y-32460365D03*
D13*
G04 #@! TD*
G04 #@! TO.P,LED1,2*
G04 #@! TO.N,+3V3*
X75365987Y-34459020D03*
D14*
G04 #@! TO.N,+3V3*
G04 #@! TO.C,LED1*
X75140307Y-34069702D02*
X75591667Y-34848338D01*
D13*
G04 #@! TD*
G04 #@! TO.P,LED1,1*
G04 #@! TO.N,Net-(LED1-Pad1)*
X73462653Y-35562344D03*
D14*
G04 #@! TO.N,Net-(LED1-Pad1)*
G04 #@! TO.C,LED1*
X73236973Y-35173026D02*
X73688333Y-35951662D01*
D15*
G04 #@! TD*
G04 #@! TO.P,LED1,3*
G04 #@! TO.N,GND*
X74339094Y-34880909D03*
D16*
G04 #@! TO.N,GND*
G04 #@! TO.C,LED1*
X74038188Y-34361818D02*
X74640000Y-35400000D01*
D11*
X72879417Y-32033629D03*
X72575397Y-33205841D03*
X71715557Y-31722539D03*
X72356137Y-31637812D03*
X71915283Y-33294663D03*
X72970042Y-32681666D03*
X71313191Y-32240812D03*
D17*
G04 #@! TD*
G04 #@! TO.P,LED1,*
G04 #@! TO.N,GND*
X72143258Y-32460365D03*
D18*
G04 #@! TO.N,GND*
G04 #@! TO.C,LED1*
G36*
X71685526Y-31307941D02*
X71800687Y-31268624D01*
X71919148Y-31240785D01*
X72039767Y-31224691D01*
X72161382Y-31220498D01*
X72282824Y-31228245D01*
X72402921Y-31247858D01*
X72520516Y-31279147D01*
X72634479Y-31321813D01*
X72743712Y-31375444D01*
X72847162Y-31439522D01*
X72943833Y-31513433D01*
X73032793Y-31596463D01*
X73113187Y-31687812D01*
X73184239Y-31786602D01*
X73207417Y-31826586D01*
X73212690Y-31823529D01*
X74550219Y-34130888D01*
X73583326Y-34691376D01*
X72870989Y-33462531D01*
X72817021Y-33501346D01*
X72711743Y-33562374D01*
X72600990Y-33612789D01*
X72485829Y-33652106D01*
X72367368Y-33679945D01*
X72246749Y-33696039D01*
X72125134Y-33700232D01*
X72003692Y-33692485D01*
X71883595Y-33672872D01*
X71766000Y-33641583D01*
X71652037Y-33598917D01*
X71542804Y-33545286D01*
X71439354Y-33481208D01*
X71342683Y-33407297D01*
X71253723Y-33324267D01*
X71173329Y-33232918D01*
X71102277Y-33134128D01*
X71041249Y-33028850D01*
X70990834Y-32918097D01*
X70951517Y-32802936D01*
X70923678Y-32684475D01*
X70907584Y-32563856D01*
X70903391Y-32442241D01*
X70911138Y-32320799D01*
X70930751Y-32200702D01*
X70962040Y-32083107D01*
X71004706Y-31969144D01*
X71058337Y-31859911D01*
X71122415Y-31756461D01*
X71196326Y-31659790D01*
X71279356Y-31570830D01*
X71370705Y-31490436D01*
X71469495Y-31419384D01*
X71574773Y-31358356D01*
X71685526Y-31307941D01*
X71685526Y-31307941D01*
G37*
G04 #@! TD*
G04 #@! TO.N,/PWM*
G04 #@! TO.C,R3*
G36*
X70275779Y-34006144D02*
X70298834Y-34009563D01*
X70321443Y-34015227D01*
X70343387Y-34023079D01*
X70364457Y-34033044D01*
X70384448Y-34045026D01*
X70403168Y-34058910D01*
X70420438Y-34074562D01*
X70436090Y-34091832D01*
X70449974Y-34110552D01*
X70461956Y-34130543D01*
X70471921Y-34151613D01*
X70479773Y-34173557D01*
X70485437Y-34196166D01*
X70488856Y-34219221D01*
X70490000Y-34242500D01*
X70490000Y-34717500D01*
X70488856Y-34740779D01*
X70485437Y-34763834D01*
X70479773Y-34786443D01*
X70471921Y-34808387D01*
X70461956Y-34829457D01*
X70449974Y-34849448D01*
X70436090Y-34868168D01*
X70420438Y-34885438D01*
X70403168Y-34901090D01*
X70384448Y-34914974D01*
X70364457Y-34926956D01*
X70343387Y-34936921D01*
X70321443Y-34944773D01*
X70298834Y-34950437D01*
X70275779Y-34953856D01*
X70252500Y-34955000D01*
X69677500Y-34955000D01*
X69654221Y-34953856D01*
X69631166Y-34950437D01*
X69608557Y-34944773D01*
X69586613Y-34936921D01*
X69565543Y-34926956D01*
X69545552Y-34914974D01*
X69526832Y-34901090D01*
X69509562Y-34885438D01*
X69493910Y-34868168D01*
X69480026Y-34849448D01*
X69468044Y-34829457D01*
X69458079Y-34808387D01*
X69450227Y-34786443D01*
X69444563Y-34763834D01*
X69441144Y-34740779D01*
X69440000Y-34717500D01*
X69440000Y-34242500D01*
X69441144Y-34219221D01*
X69444563Y-34196166D01*
X69450227Y-34173557D01*
X69458079Y-34151613D01*
X69468044Y-34130543D01*
X69480026Y-34110552D01*
X69493910Y-34091832D01*
X69509562Y-34074562D01*
X69526832Y-34058910D01*
X69545552Y-34045026D01*
X69565543Y-34033044D01*
X69586613Y-34023079D01*
X69608557Y-34015227D01*
X69631166Y-34009563D01*
X69654221Y-34006144D01*
X69677500Y-34005000D01*
X70252500Y-34005000D01*
X70275779Y-34006144D01*
X70275779Y-34006144D01*
G37*
D19*
G04 #@! TD*
G04 #@! TO.P,R3,1*
G04 #@! TO.N,/PWM*
X69965000Y-34480000D03*
D18*
G04 #@! TO.N,GND*
G04 #@! TO.C,R3*
G36*
X72025779Y-34006144D02*
X72048834Y-34009563D01*
X72071443Y-34015227D01*
X72093387Y-34023079D01*
X72114457Y-34033044D01*
X72134448Y-34045026D01*
X72153168Y-34058910D01*
X72170438Y-34074562D01*
X72186090Y-34091832D01*
X72199974Y-34110552D01*
X72211956Y-34130543D01*
X72221921Y-34151613D01*
X72229773Y-34173557D01*
X72235437Y-34196166D01*
X72238856Y-34219221D01*
X72240000Y-34242500D01*
X72240000Y-34717500D01*
X72238856Y-34740779D01*
X72235437Y-34763834D01*
X72229773Y-34786443D01*
X72221921Y-34808387D01*
X72211956Y-34829457D01*
X72199974Y-34849448D01*
X72186090Y-34868168D01*
X72170438Y-34885438D01*
X72153168Y-34901090D01*
X72134448Y-34914974D01*
X72114457Y-34926956D01*
X72093387Y-34936921D01*
X72071443Y-34944773D01*
X72048834Y-34950437D01*
X72025779Y-34953856D01*
X72002500Y-34955000D01*
X71427500Y-34955000D01*
X71404221Y-34953856D01*
X71381166Y-34950437D01*
X71358557Y-34944773D01*
X71336613Y-34936921D01*
X71315543Y-34926956D01*
X71295552Y-34914974D01*
X71276832Y-34901090D01*
X71259562Y-34885438D01*
X71243910Y-34868168D01*
X71230026Y-34849448D01*
X71218044Y-34829457D01*
X71208079Y-34808387D01*
X71200227Y-34786443D01*
X71194563Y-34763834D01*
X71191144Y-34740779D01*
X71190000Y-34717500D01*
X71190000Y-34242500D01*
X71191144Y-34219221D01*
X71194563Y-34196166D01*
X71200227Y-34173557D01*
X71208079Y-34151613D01*
X71218044Y-34130543D01*
X71230026Y-34110552D01*
X71243910Y-34091832D01*
X71259562Y-34074562D01*
X71276832Y-34058910D01*
X71295552Y-34045026D01*
X71315543Y-34033044D01*
X71336613Y-34023079D01*
X71358557Y-34015227D01*
X71381166Y-34009563D01*
X71404221Y-34006144D01*
X71427500Y-34005000D01*
X72002500Y-34005000D01*
X72025779Y-34006144D01*
X72025779Y-34006144D01*
G37*
D19*
G04 #@! TD*
G04 #@! TO.P,R3,2*
G04 #@! TO.N,GND*
X71715000Y-34480000D03*
D18*
G04 #@! TO.N,GND*
G04 #@! TO.C,J1*
G36*
X70560090Y-41662033D02*
X70641389Y-41674092D01*
X70721114Y-41694062D01*
X70798498Y-41721751D01*
X70872796Y-41756891D01*
X70943291Y-41799144D01*
X71009305Y-41848104D01*
X71070203Y-41903298D01*
X71125397Y-41964196D01*
X71174357Y-42030210D01*
X71216610Y-42100705D01*
X71251750Y-42175003D01*
X71279439Y-42252387D01*
X71299409Y-42332112D01*
X71311468Y-42413411D01*
X71315501Y-42495500D01*
X71315501Y-45020500D01*
X71311468Y-45102589D01*
X71299409Y-45183888D01*
X71279439Y-45263613D01*
X71251750Y-45340997D01*
X71216610Y-45415295D01*
X71174357Y-45485790D01*
X71125397Y-45551804D01*
X71070203Y-45612702D01*
X71009305Y-45667896D01*
X70943291Y-45716856D01*
X70872796Y-45759109D01*
X70798498Y-45794249D01*
X70721114Y-45821938D01*
X70641389Y-45841908D01*
X70560090Y-45853967D01*
X70478001Y-45858000D01*
X70477999Y-45858000D01*
X70395910Y-45853967D01*
X70314611Y-45841908D01*
X70234886Y-45821938D01*
X70157502Y-45794249D01*
X70083204Y-45759109D01*
X70012709Y-45716856D01*
X69946695Y-45667896D01*
X69885797Y-45612702D01*
X69830603Y-45551804D01*
X69781643Y-45485790D01*
X69739390Y-45415295D01*
X69704250Y-45340997D01*
X69676561Y-45263613D01*
X69656591Y-45183888D01*
X69644532Y-45102589D01*
X69640499Y-45020500D01*
X69640499Y-42495500D01*
X69644532Y-42413411D01*
X69656591Y-42332112D01*
X69676561Y-42252387D01*
X69704250Y-42175003D01*
X69739390Y-42100705D01*
X69781643Y-42030210D01*
X69830603Y-41964196D01*
X69885797Y-41903298D01*
X69946695Y-41848104D01*
X70012709Y-41799144D01*
X70083204Y-41756891D01*
X70157502Y-41721751D01*
X70234886Y-41694062D01*
X70314611Y-41674092D01*
X70395910Y-41662033D01*
X70477999Y-41658000D01*
X70478001Y-41658000D01*
X70560090Y-41662033D01*
X70560090Y-41662033D01*
G37*
D20*
G04 #@! TD*
G04 #@! TO.P,J1,3*
G04 #@! TO.N,GND*
X70478000Y-43758000D03*
D21*
G04 #@! TO.P,J1,3*
G04 #@! TO.N,GND*
X70478000Y-42488000D03*
X70478000Y-45028000D03*
G04 #@! TO.P,J1,2*
G04 #@! TO.N,/PWM*
X67938000Y-42488000D03*
D18*
G04 #@! TD*
G04 #@! TO.N,/PWM*
G04 #@! TO.C,J1*
G36*
X68020090Y-41662033D02*
X68101389Y-41674092D01*
X68181114Y-41694062D01*
X68258498Y-41721751D01*
X68332796Y-41756891D01*
X68403291Y-41799144D01*
X68469305Y-41848104D01*
X68530203Y-41903298D01*
X68585397Y-41964196D01*
X68634357Y-42030210D01*
X68676610Y-42100705D01*
X68711750Y-42175003D01*
X68739439Y-42252387D01*
X68759409Y-42332112D01*
X68771468Y-42413411D01*
X68775501Y-42495500D01*
X68775501Y-45020500D01*
X68771468Y-45102589D01*
X68759409Y-45183888D01*
X68739439Y-45263613D01*
X68711750Y-45340997D01*
X68676610Y-45415295D01*
X68634357Y-45485790D01*
X68585397Y-45551804D01*
X68530203Y-45612702D01*
X68469305Y-45667896D01*
X68403291Y-45716856D01*
X68332796Y-45759109D01*
X68258498Y-45794249D01*
X68181114Y-45821938D01*
X68101389Y-45841908D01*
X68020090Y-45853967D01*
X67938001Y-45858000D01*
X67937999Y-45858000D01*
X67855910Y-45853967D01*
X67774611Y-45841908D01*
X67694886Y-45821938D01*
X67617502Y-45794249D01*
X67543204Y-45759109D01*
X67472709Y-45716856D01*
X67406695Y-45667896D01*
X67345797Y-45612702D01*
X67290603Y-45551804D01*
X67241643Y-45485790D01*
X67199390Y-45415295D01*
X67164250Y-45340997D01*
X67136561Y-45263613D01*
X67116591Y-45183888D01*
X67104532Y-45102589D01*
X67100499Y-45020500D01*
X67100499Y-42495500D01*
X67104532Y-42413411D01*
X67116591Y-42332112D01*
X67136561Y-42252387D01*
X67164250Y-42175003D01*
X67199390Y-42100705D01*
X67241643Y-42030210D01*
X67290603Y-41964196D01*
X67345797Y-41903298D01*
X67406695Y-41848104D01*
X67472709Y-41799144D01*
X67543204Y-41756891D01*
X67617502Y-41721751D01*
X67694886Y-41694062D01*
X67774611Y-41674092D01*
X67855910Y-41662033D01*
X67937999Y-41658000D01*
X67938001Y-41658000D01*
X68020090Y-41662033D01*
X68020090Y-41662033D01*
G37*
D20*
G04 #@! TO.P,J1,2*
G04 #@! TO.N,/PWM*
X67938000Y-43758000D03*
D21*
X67938000Y-45028000D03*
D18*
G04 #@! TD*
G04 #@! TO.N,+3V3*
G04 #@! TO.C,J1*
G36*
X65480090Y-41662033D02*
X65561389Y-41674092D01*
X65641114Y-41694062D01*
X65718498Y-41721751D01*
X65792796Y-41756891D01*
X65863291Y-41799144D01*
X65929305Y-41848104D01*
X65990203Y-41903298D01*
X66045397Y-41964196D01*
X66094357Y-42030210D01*
X66136610Y-42100705D01*
X66171750Y-42175003D01*
X66199439Y-42252387D01*
X66219409Y-42332112D01*
X66231468Y-42413411D01*
X66235501Y-42495500D01*
X66235501Y-45020500D01*
X66231468Y-45102589D01*
X66219409Y-45183888D01*
X66199439Y-45263613D01*
X66171750Y-45340997D01*
X66136610Y-45415295D01*
X66094357Y-45485790D01*
X66045397Y-45551804D01*
X65990203Y-45612702D01*
X65929305Y-45667896D01*
X65863291Y-45716856D01*
X65792796Y-45759109D01*
X65718498Y-45794249D01*
X65641114Y-45821938D01*
X65561389Y-45841908D01*
X65480090Y-45853967D01*
X65398001Y-45858000D01*
X65397999Y-45858000D01*
X65315910Y-45853967D01*
X65234611Y-45841908D01*
X65154886Y-45821938D01*
X65077502Y-45794249D01*
X65003204Y-45759109D01*
X64932709Y-45716856D01*
X64866695Y-45667896D01*
X64805797Y-45612702D01*
X64750603Y-45551804D01*
X64701643Y-45485790D01*
X64659390Y-45415295D01*
X64624250Y-45340997D01*
X64596561Y-45263613D01*
X64576591Y-45183888D01*
X64564532Y-45102589D01*
X64560499Y-45020500D01*
X64560499Y-42495500D01*
X64564532Y-42413411D01*
X64576591Y-42332112D01*
X64596561Y-42252387D01*
X64624250Y-42175003D01*
X64659390Y-42100705D01*
X64701643Y-42030210D01*
X64750603Y-41964196D01*
X64805797Y-41903298D01*
X64866695Y-41848104D01*
X64932709Y-41799144D01*
X65003204Y-41756891D01*
X65077502Y-41721751D01*
X65154886Y-41694062D01*
X65234611Y-41674092D01*
X65315910Y-41662033D01*
X65397999Y-41658000D01*
X65398001Y-41658000D01*
X65480090Y-41662033D01*
X65480090Y-41662033D01*
G37*
D20*
G04 #@! TO.P,J1,1*
G04 #@! TO.N,+3V3*
X65398000Y-43758000D03*
D21*
X65398000Y-45028000D03*
X65398000Y-42488000D03*
G04 #@! TD*
D22*
G04 #@! TO.P,T1,3*
G04 #@! TO.N,Net-(Q1-Pad1)*
X67810000Y-38340000D03*
G04 #@! TO.P,T1,2*
G04 #@! TO.N,GND*
X69810000Y-37390000D03*
G04 #@! TO.P,T1,1*
G04 #@! TO.N,Net-(Q1-Pad2)*
X69810000Y-39290000D03*
G04 #@! TD*
G04 #@! TO.P,Q1,3*
G04 #@! TO.N,Net-(LED1-Pad1)*
X73230000Y-38340000D03*
G04 #@! TO.P,Q1,2*
G04 #@! TO.N,Net-(Q1-Pad2)*
X71230000Y-39290000D03*
G04 #@! TO.P,Q1,1*
G04 #@! TO.N,Net-(Q1-Pad1)*
X71230000Y-37390000D03*
G04 #@! TD*
D18*
G04 #@! TO.N,/PWM*
G04 #@! TO.C,R1*
G36*
X70265779Y-35466144D02*
X70288834Y-35469563D01*
X70311443Y-35475227D01*
X70333387Y-35483079D01*
X70354457Y-35493044D01*
X70374448Y-35505026D01*
X70393168Y-35518910D01*
X70410438Y-35534562D01*
X70426090Y-35551832D01*
X70439974Y-35570552D01*
X70451956Y-35590543D01*
X70461921Y-35611613D01*
X70469773Y-35633557D01*
X70475437Y-35656166D01*
X70478856Y-35679221D01*
X70480000Y-35702500D01*
X70480000Y-36177500D01*
X70478856Y-36200779D01*
X70475437Y-36223834D01*
X70469773Y-36246443D01*
X70461921Y-36268387D01*
X70451956Y-36289457D01*
X70439974Y-36309448D01*
X70426090Y-36328168D01*
X70410438Y-36345438D01*
X70393168Y-36361090D01*
X70374448Y-36374974D01*
X70354457Y-36386956D01*
X70333387Y-36396921D01*
X70311443Y-36404773D01*
X70288834Y-36410437D01*
X70265779Y-36413856D01*
X70242500Y-36415000D01*
X69667500Y-36415000D01*
X69644221Y-36413856D01*
X69621166Y-36410437D01*
X69598557Y-36404773D01*
X69576613Y-36396921D01*
X69555543Y-36386956D01*
X69535552Y-36374974D01*
X69516832Y-36361090D01*
X69499562Y-36345438D01*
X69483910Y-36328168D01*
X69470026Y-36309448D01*
X69458044Y-36289457D01*
X69448079Y-36268387D01*
X69440227Y-36246443D01*
X69434563Y-36223834D01*
X69431144Y-36200779D01*
X69430000Y-36177500D01*
X69430000Y-35702500D01*
X69431144Y-35679221D01*
X69434563Y-35656166D01*
X69440227Y-35633557D01*
X69448079Y-35611613D01*
X69458044Y-35590543D01*
X69470026Y-35570552D01*
X69483910Y-35551832D01*
X69499562Y-35534562D01*
X69516832Y-35518910D01*
X69535552Y-35505026D01*
X69555543Y-35493044D01*
X69576613Y-35483079D01*
X69598557Y-35475227D01*
X69621166Y-35469563D01*
X69644221Y-35466144D01*
X69667500Y-35465000D01*
X70242500Y-35465000D01*
X70265779Y-35466144D01*
X70265779Y-35466144D01*
G37*
D19*
G04 #@! TD*
G04 #@! TO.P,R1,2*
G04 #@! TO.N,/PWM*
X69955000Y-35940000D03*
D18*
G04 #@! TO.N,Net-(Q1-Pad1)*
G04 #@! TO.C,R1*
G36*
X72015779Y-35466144D02*
X72038834Y-35469563D01*
X72061443Y-35475227D01*
X72083387Y-35483079D01*
X72104457Y-35493044D01*
X72124448Y-35505026D01*
X72143168Y-35518910D01*
X72160438Y-35534562D01*
X72176090Y-35551832D01*
X72189974Y-35570552D01*
X72201956Y-35590543D01*
X72211921Y-35611613D01*
X72219773Y-35633557D01*
X72225437Y-35656166D01*
X72228856Y-35679221D01*
X72230000Y-35702500D01*
X72230000Y-36177500D01*
X72228856Y-36200779D01*
X72225437Y-36223834D01*
X72219773Y-36246443D01*
X72211921Y-36268387D01*
X72201956Y-36289457D01*
X72189974Y-36309448D01*
X72176090Y-36328168D01*
X72160438Y-36345438D01*
X72143168Y-36361090D01*
X72124448Y-36374974D01*
X72104457Y-36386956D01*
X72083387Y-36396921D01*
X72061443Y-36404773D01*
X72038834Y-36410437D01*
X72015779Y-36413856D01*
X71992500Y-36415000D01*
X71417500Y-36415000D01*
X71394221Y-36413856D01*
X71371166Y-36410437D01*
X71348557Y-36404773D01*
X71326613Y-36396921D01*
X71305543Y-36386956D01*
X71285552Y-36374974D01*
X71266832Y-36361090D01*
X71249562Y-36345438D01*
X71233910Y-36328168D01*
X71220026Y-36309448D01*
X71208044Y-36289457D01*
X71198079Y-36268387D01*
X71190227Y-36246443D01*
X71184563Y-36223834D01*
X71181144Y-36200779D01*
X71180000Y-36177500D01*
X71180000Y-35702500D01*
X71181144Y-35679221D01*
X71184563Y-35656166D01*
X71190227Y-35633557D01*
X71198079Y-35611613D01*
X71208044Y-35590543D01*
X71220026Y-35570552D01*
X71233910Y-35551832D01*
X71249562Y-35534562D01*
X71266832Y-35518910D01*
X71285552Y-35505026D01*
X71305543Y-35493044D01*
X71326613Y-35483079D01*
X71348557Y-35475227D01*
X71371166Y-35469563D01*
X71394221Y-35466144D01*
X71417500Y-35465000D01*
X71992500Y-35465000D01*
X72015779Y-35466144D01*
X72015779Y-35466144D01*
G37*
D19*
G04 #@! TD*
G04 #@! TO.P,R1,1*
G04 #@! TO.N,Net-(Q1-Pad1)*
X71705000Y-35940000D03*
D18*
G04 #@! TO.N,GND*
G04 #@! TO.C,R2*
G36*
X73600069Y-42556201D02*
X73624276Y-42559792D01*
X73648015Y-42565738D01*
X73671057Y-42573982D01*
X73693180Y-42584446D01*
X73714171Y-42597027D01*
X73733827Y-42611605D01*
X73751960Y-42628040D01*
X73768395Y-42646173D01*
X73782973Y-42665829D01*
X73795554Y-42686820D01*
X73806018Y-42708943D01*
X73814262Y-42731985D01*
X73820208Y-42755724D01*
X73823799Y-42779931D01*
X73825000Y-42804374D01*
X73825000Y-44055626D01*
X73823799Y-44080069D01*
X73820208Y-44104276D01*
X73814262Y-44128015D01*
X73806018Y-44151057D01*
X73795554Y-44173180D01*
X73782973Y-44194171D01*
X73768395Y-44213827D01*
X73751960Y-44231960D01*
X73733827Y-44248395D01*
X73714171Y-44262973D01*
X73693180Y-44275554D01*
X73671057Y-44286018D01*
X73648015Y-44294262D01*
X73624276Y-44300208D01*
X73600069Y-44303799D01*
X73575626Y-44305000D01*
X72649374Y-44305000D01*
X72624931Y-44303799D01*
X72600724Y-44300208D01*
X72576985Y-44294262D01*
X72553943Y-44286018D01*
X72531820Y-44275554D01*
X72510829Y-44262973D01*
X72491173Y-44248395D01*
X72473040Y-44231960D01*
X72456605Y-44213827D01*
X72442027Y-44194171D01*
X72429446Y-44173180D01*
X72418982Y-44151057D01*
X72410738Y-44128015D01*
X72404792Y-44104276D01*
X72401201Y-44080069D01*
X72400000Y-44055626D01*
X72400000Y-42804374D01*
X72401201Y-42779931D01*
X72404792Y-42755724D01*
X72410738Y-42731985D01*
X72418982Y-42708943D01*
X72429446Y-42686820D01*
X72442027Y-42665829D01*
X72456605Y-42646173D01*
X72473040Y-42628040D01*
X72491173Y-42611605D01*
X72510829Y-42597027D01*
X72531820Y-42584446D01*
X72553943Y-42573982D01*
X72576985Y-42565738D01*
X72600724Y-42559792D01*
X72624931Y-42556201D01*
X72649374Y-42555000D01*
X73575626Y-42555000D01*
X73600069Y-42556201D01*
X73600069Y-42556201D01*
G37*
D23*
G04 #@! TD*
G04 #@! TO.P,R2,2*
G04 #@! TO.N,GND*
X73112500Y-43430000D03*
D18*
G04 #@! TO.N,Net-(Q1-Pad2)*
G04 #@! TO.C,R2*
G36*
X76574504Y-42556204D02*
X76598773Y-42559804D01*
X76622571Y-42565765D01*
X76645671Y-42574030D01*
X76667849Y-42584520D01*
X76688893Y-42597133D01*
X76708598Y-42611747D01*
X76726777Y-42628223D01*
X76743253Y-42646402D01*
X76757867Y-42666107D01*
X76770480Y-42687151D01*
X76780970Y-42709329D01*
X76789235Y-42732429D01*
X76795196Y-42756227D01*
X76798796Y-42780496D01*
X76800000Y-42805000D01*
X76800000Y-44055000D01*
X76798796Y-44079504D01*
X76795196Y-44103773D01*
X76789235Y-44127571D01*
X76780970Y-44150671D01*
X76770480Y-44172849D01*
X76757867Y-44193893D01*
X76743253Y-44213598D01*
X76726777Y-44231777D01*
X76708598Y-44248253D01*
X76688893Y-44262867D01*
X76667849Y-44275480D01*
X76645671Y-44285970D01*
X76622571Y-44294235D01*
X76598773Y-44300196D01*
X76574504Y-44303796D01*
X76550000Y-44305000D01*
X75625000Y-44305000D01*
X75600496Y-44303796D01*
X75576227Y-44300196D01*
X75552429Y-44294235D01*
X75529329Y-44285970D01*
X75507151Y-44275480D01*
X75486107Y-44262867D01*
X75466402Y-44248253D01*
X75448223Y-44231777D01*
X75431747Y-44213598D01*
X75417133Y-44193893D01*
X75404520Y-44172849D01*
X75394030Y-44150671D01*
X75385765Y-44127571D01*
X75379804Y-44103773D01*
X75376204Y-44079504D01*
X75375000Y-44055000D01*
X75375000Y-42805000D01*
X75376204Y-42780496D01*
X75379804Y-42756227D01*
X75385765Y-42732429D01*
X75394030Y-42709329D01*
X75404520Y-42687151D01*
X75417133Y-42666107D01*
X75431747Y-42646402D01*
X75448223Y-42628223D01*
X75466402Y-42611747D01*
X75486107Y-42597133D01*
X75507151Y-42584520D01*
X75529329Y-42574030D01*
X75552429Y-42565765D01*
X75576227Y-42559804D01*
X75600496Y-42556204D01*
X75625000Y-42555000D01*
X76550000Y-42555000D01*
X76574504Y-42556204D01*
X76574504Y-42556204D01*
G37*
D23*
G04 #@! TD*
G04 #@! TO.P,R2,1*
G04 #@! TO.N,Net-(Q1-Pad2)*
X76087500Y-43430000D03*
D24*
G04 #@! TO.N,GND*
X71740000Y-44600000D03*
X69208000Y-44600000D03*
X66668000Y-44600000D03*
X64128000Y-44600000D03*
D25*
G04 #@! TO.N,/PWM*
X68730002Y-36220000D03*
G04 #@! TD*
D26*
G04 #@! TO.N,Net-(Q1-Pad2)*
X71256000Y-39120000D02*
X71306000Y-39120000D01*
X71230000Y-39290000D02*
X69810000Y-39290000D01*
X76087500Y-43430000D02*
X75630000Y-43430000D01*
X76087500Y-43430000D02*
X75420000Y-43430000D01*
X71280000Y-39290000D02*
X71230000Y-39290000D01*
X75420000Y-43430000D02*
X71280000Y-39290000D01*
D27*
G04 #@! TO.N,Net-(Q1-Pad1)*
X71240000Y-37204000D02*
X71256000Y-37220000D01*
X71230000Y-37390000D02*
X71230000Y-36415000D01*
X71230000Y-36415000D02*
X71705000Y-35940000D01*
X71230000Y-37940000D02*
X71230000Y-37390000D01*
X70830000Y-38340000D02*
X71230000Y-37940000D01*
X67810000Y-38340000D02*
X70830000Y-38340000D01*
G04 #@! TO.N,/PWM*
X69010002Y-35940000D02*
X68730002Y-36220000D01*
X69955000Y-35940000D02*
X69010002Y-35940000D01*
X69955000Y-34490000D02*
X69965000Y-34480000D01*
X69955000Y-35940000D02*
X69955000Y-34490000D01*
D26*
G04 #@! TO.N,Net-(LED1-Pad1)*
X72930000Y-35610000D02*
X73040000Y-35500000D01*
X72930000Y-37190000D02*
X72930000Y-35610000D01*
X73236671Y-35500000D02*
X73511976Y-35775305D01*
X73040000Y-35500000D02*
X73236671Y-35500000D01*
X72930000Y-37190000D02*
X73230000Y-37490000D01*
X73230000Y-37490000D02*
X73230000Y-38340000D01*
G04 #@! TO.N,+3V3*
X65398000Y-43758000D02*
X65398000Y-42488000D01*
G04 #@! TD*
D28*
G04 #@! TO.N,GND*
G36*
X72266410Y-30470960D02*
X72351995Y-30476407D01*
X72434573Y-30485274D01*
X72515259Y-30497615D01*
X72594510Y-30513275D01*
X72671979Y-30531955D01*
X72747523Y-30553605D01*
X72821388Y-30578238D01*
X72893750Y-30605752D01*
X72964523Y-30636027D01*
X73033857Y-30669021D01*
X73101674Y-30704590D01*
X73168083Y-30742710D01*
X73233042Y-30783252D01*
X73296618Y-30826177D01*
X73358821Y-30871370D01*
X73419594Y-30918706D01*
X73479013Y-30968165D01*
X73537058Y-31019599D01*
X73593679Y-31072881D01*
X73648897Y-31127941D01*
X73702724Y-31184684D01*
X73755177Y-31243012D01*
X73806205Y-31302754D01*
X73855810Y-31363846D01*
X73904028Y-31426157D01*
X73950776Y-31489512D01*
X73996147Y-31553907D01*
X74040035Y-31619069D01*
X74082540Y-31685035D01*
X74123600Y-31751562D01*
X74163812Y-31819570D01*
X74209793Y-31899047D01*
X74209803Y-31899069D01*
X74217703Y-31912720D01*
X74222182Y-31920461D01*
X74222190Y-31920472D01*
X74267840Y-31999349D01*
X74315386Y-32081531D01*
X74315396Y-32081552D01*
X74322568Y-32093944D01*
X74327775Y-32102944D01*
X74327782Y-32102954D01*
X74373433Y-32181834D01*
X74420979Y-32264014D01*
X74420989Y-32264037D01*
X74428160Y-32276427D01*
X74433367Y-32285427D01*
X74433375Y-32285438D01*
X74478692Y-32363739D01*
X74526570Y-32446495D01*
X74526579Y-32446514D01*
X74533752Y-32458909D01*
X74538960Y-32467910D01*
X74538966Y-32467919D01*
X74584461Y-32546532D01*
X74632165Y-32628984D01*
X74632171Y-32628997D01*
X74637379Y-32637996D01*
X74644554Y-32650397D01*
X74644562Y-32650408D01*
X74687029Y-32723789D01*
X74737758Y-32811466D01*
X74737764Y-32811480D01*
X74744939Y-32823878D01*
X74750148Y-32832881D01*
X74750154Y-32832889D01*
X74795502Y-32911249D01*
X74843351Y-32993949D01*
X74843357Y-32993963D01*
X74850532Y-33006361D01*
X74855741Y-33015364D01*
X74855747Y-33015372D01*
X74901239Y-33093981D01*
X74948945Y-33176436D01*
X74948949Y-33176445D01*
X74953556Y-33184407D01*
X74961332Y-33197846D01*
X74961341Y-33197859D01*
X75008942Y-33280113D01*
X75054531Y-33358912D01*
X75054541Y-33358934D01*
X75061714Y-33371328D01*
X75066920Y-33380326D01*
X75066928Y-33380337D01*
X75103540Y-33443599D01*
X75056981Y-33445204D01*
X74936749Y-33473460D01*
X74824339Y-33524629D01*
X74724072Y-33596744D01*
X74639800Y-33687035D01*
X74574762Y-33792033D01*
X74531458Y-33907701D01*
X74511553Y-34029593D01*
X74515809Y-34153028D01*
X74544065Y-34273260D01*
X74582414Y-34357508D01*
X74941473Y-34976917D01*
X74883957Y-35010340D01*
X74807814Y-35054587D01*
X74807792Y-35054597D01*
X74798619Y-35059930D01*
X74786439Y-35067008D01*
X74786416Y-35067025D01*
X74706657Y-35113395D01*
X74618392Y-35164687D01*
X74521856Y-35220782D01*
X74521853Y-35220784D01*
X74455038Y-35259611D01*
X74455009Y-35259624D01*
X74444404Y-35265790D01*
X74433661Y-35272033D01*
X74433640Y-35272048D01*
X74355905Y-35317244D01*
X74278671Y-35362123D01*
X74278670Y-35362124D01*
X74274659Y-35364455D01*
X74257274Y-35374557D01*
X74257271Y-35374559D01*
X74190479Y-35413373D01*
X74190478Y-35413373D01*
X74123566Y-35452256D01*
X73763979Y-34831938D01*
X73709931Y-34756791D01*
X73619640Y-34672519D01*
X73514642Y-34607481D01*
X73398974Y-34564177D01*
X73277082Y-34544272D01*
X73153647Y-34548528D01*
X73033415Y-34576784D01*
X72921005Y-34627953D01*
X72820738Y-34700068D01*
X72736466Y-34790359D01*
X72671428Y-34895357D01*
X72628124Y-35011025D01*
X72608219Y-35132917D01*
X72612475Y-35256352D01*
X72618288Y-35281089D01*
X72608842Y-35288841D01*
X72558417Y-35350284D01*
X72552358Y-35357667D01*
X72510386Y-35436191D01*
X72502621Y-35461790D01*
X72463180Y-35388002D01*
X72392780Y-35302220D01*
X72390803Y-35300597D01*
X72418576Y-35289093D01*
X72480323Y-35247835D01*
X72532835Y-35195324D01*
X72574093Y-35133577D01*
X72602512Y-35064967D01*
X72617000Y-34992132D01*
X72617000Y-34701250D01*
X72522750Y-34607000D01*
X71842000Y-34607000D01*
X71842000Y-34627000D01*
X71588000Y-34627000D01*
X71588000Y-34607000D01*
X71568000Y-34607000D01*
X71568000Y-34353000D01*
X71588000Y-34353000D01*
X71588000Y-33722250D01*
X71842000Y-33722250D01*
X71842000Y-34353000D01*
X72522750Y-34353000D01*
X72617000Y-34258750D01*
X72617000Y-33967868D01*
X72602512Y-33895033D01*
X72574093Y-33826423D01*
X72532835Y-33764676D01*
X72480323Y-33712165D01*
X72418576Y-33670907D01*
X72349967Y-33642488D01*
X72277131Y-33628000D01*
X71936250Y-33628000D01*
X71842000Y-33722250D01*
X71588000Y-33722250D01*
X71493750Y-33628000D01*
X71152869Y-33628000D01*
X71080033Y-33642488D01*
X71011424Y-33670907D01*
X70949677Y-33712165D01*
X70897165Y-33764676D01*
X70855907Y-33826423D01*
X70827488Y-33895033D01*
X70813000Y-33967868D01*
X70813000Y-34185825D01*
X70807705Y-34132063D01*
X70775492Y-34025870D01*
X70723180Y-33928002D01*
X70652780Y-33842220D01*
X70566998Y-33771820D01*
X70469130Y-33719508D01*
X70362937Y-33687295D01*
X70252500Y-33676418D01*
X69677500Y-33676418D01*
X69567063Y-33687295D01*
X69460870Y-33719508D01*
X69363002Y-33771820D01*
X69277220Y-33842220D01*
X69206820Y-33928002D01*
X69154508Y-34025870D01*
X69122295Y-34132063D01*
X69111418Y-34242500D01*
X69111418Y-34717500D01*
X69122295Y-34827937D01*
X69154508Y-34934130D01*
X69206820Y-35031998D01*
X69277220Y-35117780D01*
X69363002Y-35188180D01*
X69398824Y-35207327D01*
X69353002Y-35231820D01*
X69267220Y-35302220D01*
X69196820Y-35388002D01*
X69144508Y-35485870D01*
X69128695Y-35538000D01*
X69029741Y-35538000D01*
X69010002Y-35536056D01*
X68990262Y-35538000D01*
X68990255Y-35538000D01*
X68984597Y-35538557D01*
X68942060Y-35520938D01*
X68801605Y-35493000D01*
X68658399Y-35493000D01*
X68517944Y-35520938D01*
X68385638Y-35575741D01*
X68266566Y-35655302D01*
X68165304Y-35756564D01*
X68085743Y-35875636D01*
X68030940Y-36007942D01*
X68003002Y-36148397D01*
X68003002Y-36291603D01*
X68030940Y-36432058D01*
X68085743Y-36564364D01*
X68165304Y-36683436D01*
X68266566Y-36784698D01*
X68385638Y-36864259D01*
X68517944Y-36919062D01*
X68658399Y-36947000D01*
X68801605Y-36947000D01*
X68942060Y-36919062D01*
X68994004Y-36897546D01*
X68983000Y-36952868D01*
X68983000Y-37168750D01*
X69077250Y-37263000D01*
X69683000Y-37263000D01*
X69683000Y-37243000D01*
X69937000Y-37243000D01*
X69937000Y-37263000D01*
X69957000Y-37263000D01*
X69957000Y-37517000D01*
X69937000Y-37517000D01*
X69937000Y-37537000D01*
X69683000Y-37537000D01*
X69683000Y-37517000D01*
X69077250Y-37517000D01*
X68983000Y-37611250D01*
X68983000Y-37827132D01*
X68997488Y-37899967D01*
X69013242Y-37938000D01*
X68588385Y-37938000D01*
X68582268Y-37875897D01*
X68563570Y-37814257D01*
X68533206Y-37757450D01*
X68492343Y-37707657D01*
X68442550Y-37666794D01*
X68385743Y-37636430D01*
X68324103Y-37617732D01*
X68260000Y-37611418D01*
X67360000Y-37611418D01*
X67295897Y-37617732D01*
X67234257Y-37636430D01*
X67177450Y-37666794D01*
X67127657Y-37707657D01*
X67086794Y-37757450D01*
X67056430Y-37814257D01*
X67037732Y-37875897D01*
X67031418Y-37940000D01*
X67031418Y-38740000D01*
X67037732Y-38804103D01*
X67056430Y-38865743D01*
X67086794Y-38922550D01*
X67127657Y-38972343D01*
X67177450Y-39013206D01*
X67234257Y-39043570D01*
X67295897Y-39062268D01*
X67360000Y-39068582D01*
X68260000Y-39068582D01*
X68324103Y-39062268D01*
X68385743Y-39043570D01*
X68442550Y-39013206D01*
X68492343Y-38972343D01*
X68533206Y-38922550D01*
X68563570Y-38865743D01*
X68582268Y-38804103D01*
X68588385Y-38742000D01*
X69068327Y-38742000D01*
X69056430Y-38764257D01*
X69037732Y-38825897D01*
X69031418Y-38890000D01*
X69031418Y-39690000D01*
X69037732Y-39754103D01*
X69056430Y-39815743D01*
X69086794Y-39872550D01*
X69127657Y-39922343D01*
X69177450Y-39963206D01*
X69234257Y-39993570D01*
X69295897Y-40012268D01*
X69360000Y-40018582D01*
X70260000Y-40018582D01*
X70324103Y-40012268D01*
X70385743Y-39993570D01*
X70442550Y-39963206D01*
X70492343Y-39922343D01*
X70520000Y-39888642D01*
X70547657Y-39922343D01*
X70597450Y-39963206D01*
X70654257Y-39993570D01*
X70715897Y-40012268D01*
X70780000Y-40018582D01*
X71369359Y-40018582D01*
X73528776Y-42178000D01*
X73333750Y-42178000D01*
X73239500Y-42272250D01*
X73239500Y-43303000D01*
X74107750Y-43303000D01*
X74202000Y-43208750D01*
X74202000Y-42851225D01*
X75046418Y-43695643D01*
X75046418Y-44055000D01*
X75057535Y-44167876D01*
X75090460Y-44276414D01*
X75143927Y-44376443D01*
X75215881Y-44464119D01*
X75303557Y-44536073D01*
X75403586Y-44589540D01*
X75512124Y-44622465D01*
X75625000Y-44633582D01*
X76550000Y-44633582D01*
X76662876Y-44622465D01*
X76771414Y-44589540D01*
X76871443Y-44536073D01*
X76959119Y-44464119D01*
X77031073Y-44376443D01*
X77084540Y-44276414D01*
X77117465Y-44167876D01*
X77128582Y-44055000D01*
X77128582Y-42805000D01*
X77117465Y-42692124D01*
X77084540Y-42583586D01*
X77031073Y-42483557D01*
X76959119Y-42395881D01*
X76871443Y-42323927D01*
X76771414Y-42270460D01*
X76662876Y-42237535D01*
X76550000Y-42226418D01*
X75625000Y-42226418D01*
X75512124Y-42237535D01*
X75403586Y-42270460D01*
X75303557Y-42323927D01*
X75215881Y-42395881D01*
X75143927Y-42483557D01*
X75133078Y-42503854D01*
X72008582Y-39379359D01*
X72008582Y-38890000D01*
X72002268Y-38825897D01*
X71983570Y-38764257D01*
X71953206Y-38707450D01*
X71912343Y-38657657D01*
X71862550Y-38616794D01*
X71805743Y-38586430D01*
X71744103Y-38567732D01*
X71680000Y-38561418D01*
X71177095Y-38561418D01*
X71500291Y-38238222D01*
X71515632Y-38225632D01*
X71565868Y-38164420D01*
X71590369Y-38118582D01*
X71680000Y-38118582D01*
X71744103Y-38112268D01*
X71805743Y-38093570D01*
X71862550Y-38063206D01*
X71912343Y-38022343D01*
X71953206Y-37972550D01*
X71983570Y-37915743D01*
X72002268Y-37854103D01*
X72008582Y-37790000D01*
X72008582Y-36990000D01*
X72002268Y-36925897D01*
X71983570Y-36864257D01*
X71953206Y-36807450D01*
X71912343Y-36757657D01*
X71895192Y-36743582D01*
X71992500Y-36743582D01*
X72102937Y-36732705D01*
X72209130Y-36700492D01*
X72306998Y-36648180D01*
X72392780Y-36577780D01*
X72463180Y-36491998D01*
X72478000Y-36464271D01*
X72478000Y-37167795D01*
X72475813Y-37190000D01*
X72484540Y-37278607D01*
X72486174Y-37283994D01*
X72510386Y-37363809D01*
X72552357Y-37442332D01*
X72608841Y-37511159D01*
X72626100Y-37525323D01*
X72718274Y-37617498D01*
X72715897Y-37617732D01*
X72654257Y-37636430D01*
X72597450Y-37666794D01*
X72547657Y-37707657D01*
X72506794Y-37757450D01*
X72476430Y-37814257D01*
X72457732Y-37875897D01*
X72451418Y-37940000D01*
X72451418Y-38740000D01*
X72457732Y-38804103D01*
X72476430Y-38865743D01*
X72506794Y-38922550D01*
X72547657Y-38972343D01*
X72597450Y-39013206D01*
X72654257Y-39043570D01*
X72715897Y-39062268D01*
X72780000Y-39068582D01*
X73680000Y-39068582D01*
X73744103Y-39062268D01*
X73805743Y-39043570D01*
X73862550Y-39013206D01*
X73912343Y-38972343D01*
X73953206Y-38922550D01*
X73983570Y-38865743D01*
X74002268Y-38804103D01*
X74008582Y-38740000D01*
X74008582Y-37940000D01*
X74002268Y-37875897D01*
X73983570Y-37814257D01*
X73953206Y-37757450D01*
X73912343Y-37707657D01*
X73862550Y-37666794D01*
X73805743Y-37636430D01*
X73744103Y-37617732D01*
X73682000Y-37611615D01*
X73682000Y-37512204D01*
X73684187Y-37489999D01*
X73675460Y-37401392D01*
X73649614Y-37316190D01*
X73632405Y-37283994D01*
X73607643Y-37237667D01*
X73551159Y-37168841D01*
X73533906Y-37154682D01*
X73407039Y-37027816D01*
X73418591Y-37038323D01*
X73434712Y-37053612D01*
X73436953Y-37055025D01*
X73438910Y-37056805D01*
X73457922Y-37068246D01*
X73476702Y-37080087D01*
X73479173Y-37081035D01*
X73481442Y-37082400D01*
X73502307Y-37089907D01*
X73523050Y-37097862D01*
X73525665Y-37098310D01*
X73528151Y-37099205D01*
X73550055Y-37102494D01*
X73571975Y-37106253D01*
X73574627Y-37106183D01*
X73577240Y-37106575D01*
X73599371Y-37105527D01*
X73621596Y-37104938D01*
X73624181Y-37104352D01*
X73626823Y-37104227D01*
X73648340Y-37098877D01*
X73670008Y-37093967D01*
X73672429Y-37092888D01*
X73674996Y-37092250D01*
X73695056Y-37082806D01*
X73715350Y-37073763D01*
X73727650Y-37065064D01*
X73735035Y-37060655D01*
X73761088Y-37045100D01*
X73770706Y-37039358D01*
X73770713Y-37039355D01*
X73786100Y-37030168D01*
X73791953Y-37026674D01*
X73791956Y-37026672D01*
X73797871Y-37023140D01*
X73807933Y-37017133D01*
X73807940Y-37017130D01*
X73822701Y-37008317D01*
X73829180Y-37004449D01*
X73829183Y-37004447D01*
X73835098Y-37000915D01*
X73845160Y-36994908D01*
X73845167Y-36994905D01*
X73859990Y-36986055D01*
X73866407Y-36982224D01*
X73866410Y-36982222D01*
X73872709Y-36978461D01*
X73882387Y-36972683D01*
X73882394Y-36972680D01*
X73896936Y-36963998D01*
X73916182Y-36997290D01*
X73916184Y-36997295D01*
X74069534Y-37262564D01*
X74069534Y-37262565D01*
X74232564Y-37544582D01*
X74376232Y-37793104D01*
X74376234Y-37793109D01*
X74529584Y-38058378D01*
X74529584Y-38058379D01*
X74695320Y-38345079D01*
X74695324Y-38345084D01*
X74732392Y-38409207D01*
X74686074Y-38443280D01*
X74681130Y-38447722D01*
X74675563Y-38451346D01*
X74672018Y-38454223D01*
X74625055Y-38492883D01*
X74622931Y-38495012D01*
X74620473Y-38496727D01*
X74617022Y-38499717D01*
X74578759Y-38533344D01*
X74578717Y-38533380D01*
X74540416Y-38567041D01*
X74528082Y-38580226D01*
X74514676Y-38592312D01*
X74511623Y-38595707D01*
X74453396Y-38661368D01*
X74407709Y-38708591D01*
X74396253Y-38723016D01*
X74383646Y-38736441D01*
X74380885Y-38740078D01*
X74337669Y-38797843D01*
X74306816Y-38837052D01*
X74300710Y-38846601D01*
X74293452Y-38855301D01*
X74290910Y-38859094D01*
X74266268Y-38896415D01*
X74266265Y-38896420D01*
X74229310Y-38952390D01*
X74224504Y-38961491D01*
X74218536Y-38969878D01*
X74216292Y-38973855D01*
X74187991Y-39024836D01*
X74159706Y-39075789D01*
X74159692Y-39075813D01*
X74131390Y-39126794D01*
X74125586Y-39140182D01*
X74118399Y-39152870D01*
X74116575Y-39157056D01*
X74096935Y-39203036D01*
X74096081Y-39205739D01*
X74094759Y-39208253D01*
X74093068Y-39212494D01*
X74071628Y-39267372D01*
X74053992Y-39308660D01*
X74052151Y-39314488D01*
X74049414Y-39319955D01*
X74047808Y-39324229D01*
X74020846Y-39397531D01*
X74017682Y-39409684D01*
X74013098Y-39421380D01*
X74011886Y-39425782D01*
X73989935Y-39507707D01*
X73989925Y-39507742D01*
X73971634Y-39576007D01*
X73971624Y-39576042D01*
X73956983Y-39630683D01*
X73953175Y-39653684D01*
X73948160Y-39676443D01*
X73947649Y-39680981D01*
X73933367Y-39816244D01*
X73933366Y-39816319D01*
X73933085Y-39819021D01*
X73924783Y-39904644D01*
X73924786Y-39907649D01*
X73924261Y-39910601D01*
X73923935Y-39915156D01*
X73919294Y-39987117D01*
X73919659Y-39998077D01*
X73918617Y-40008993D01*
X73918661Y-40013559D01*
X73920360Y-40116502D01*
X73920911Y-40121307D01*
X73920661Y-40126139D01*
X73920903Y-40130699D01*
X73927602Y-40242301D01*
X73930341Y-40259525D01*
X73931542Y-40276938D01*
X73932331Y-40281436D01*
X73959030Y-40427680D01*
X73959360Y-40428835D01*
X73959468Y-40430029D01*
X73960352Y-40434508D01*
X73979371Y-40527450D01*
X73984700Y-40544703D01*
X73988543Y-40562343D01*
X73989975Y-40566679D01*
X74022641Y-40663241D01*
X74022656Y-40663286D01*
X74055336Y-40759888D01*
X74058136Y-40766092D01*
X74059952Y-40772654D01*
X74061623Y-40776903D01*
X74086550Y-40839008D01*
X74106554Y-40892403D01*
X74117437Y-40914581D01*
X74127324Y-40937211D01*
X74129579Y-40941181D01*
X74189579Y-41045105D01*
X74189580Y-41045106D01*
X74229580Y-41114388D01*
X74238789Y-41127251D01*
X74246687Y-41140964D01*
X74249367Y-41144661D01*
X74303027Y-41217603D01*
X74303029Y-41217605D01*
X74356690Y-41290547D01*
X74361129Y-41295488D01*
X74364754Y-41301056D01*
X74367631Y-41304602D01*
X74406291Y-41351564D01*
X74408420Y-41353688D01*
X74410135Y-41356146D01*
X74413125Y-41359597D01*
X74480445Y-41436199D01*
X74493630Y-41448533D01*
X74505722Y-41461946D01*
X74509117Y-41464999D01*
X74574782Y-41523227D01*
X74621997Y-41568908D01*
X74636421Y-41580363D01*
X74649849Y-41592973D01*
X74653486Y-41595734D01*
X74711251Y-41638950D01*
X74750460Y-41669803D01*
X74760009Y-41675909D01*
X74768709Y-41683167D01*
X74772502Y-41685710D01*
X74809823Y-41710351D01*
X74809828Y-41710354D01*
X74865798Y-41747309D01*
X74874902Y-41752117D01*
X74883287Y-41758083D01*
X74887263Y-41760327D01*
X74938244Y-41788628D01*
X74989197Y-41816913D01*
X74989221Y-41816927D01*
X75040202Y-41845229D01*
X75053589Y-41851032D01*
X75066278Y-41858220D01*
X75070464Y-41860043D01*
X75116444Y-41879684D01*
X75119147Y-41880538D01*
X75121661Y-41881860D01*
X75125902Y-41883551D01*
X75180794Y-41904997D01*
X75222068Y-41922627D01*
X75227896Y-41924468D01*
X75233365Y-41927206D01*
X75237639Y-41928812D01*
X75310940Y-41955773D01*
X75323093Y-41958937D01*
X75334784Y-41963519D01*
X75339186Y-41964731D01*
X75421089Y-41986677D01*
X75421150Y-41986694D01*
X75489415Y-42004985D01*
X75489450Y-42004995D01*
X75544092Y-42019636D01*
X75567092Y-42023444D01*
X75589852Y-42028459D01*
X75594389Y-42028970D01*
X75729652Y-42043252D01*
X75729727Y-42043253D01*
X75732430Y-42043534D01*
X75818052Y-42051836D01*
X75821058Y-42051833D01*
X75824010Y-42052358D01*
X75828564Y-42052684D01*
X75900526Y-42057325D01*
X75911485Y-42056960D01*
X75922401Y-42058002D01*
X75926967Y-42057958D01*
X76029910Y-42056259D01*
X76034715Y-42055708D01*
X76039547Y-42055958D01*
X76044107Y-42055716D01*
X76155709Y-42049017D01*
X76172933Y-42046278D01*
X76190346Y-42045077D01*
X76194844Y-42044288D01*
X76341088Y-42017589D01*
X76342243Y-42017259D01*
X76343437Y-42017151D01*
X76347916Y-42016267D01*
X76440858Y-41997248D01*
X76458111Y-41991919D01*
X76475751Y-41988076D01*
X76480087Y-41986644D01*
X76576649Y-41953978D01*
X76576694Y-41953963D01*
X76673296Y-41921283D01*
X76679504Y-41918481D01*
X76686066Y-41916665D01*
X76690315Y-41914994D01*
X76746086Y-41892608D01*
X76829829Y-42037470D01*
X76829831Y-42037475D01*
X76983181Y-42302744D01*
X76983181Y-42302745D01*
X77145531Y-42583586D01*
X77289876Y-42833279D01*
X77443227Y-43098578D01*
X77443231Y-43098587D01*
X77596581Y-43363856D01*
X77596581Y-43363857D01*
X77749930Y-43629129D01*
X77903280Y-43894398D01*
X77903280Y-43894399D01*
X78064163Y-44172702D01*
X78209978Y-44424938D01*
X78209980Y-44424943D01*
X78363328Y-44690209D01*
X78363330Y-44690214D01*
X78457638Y-44853351D01*
X69104083Y-44853351D01*
X69104083Y-43651250D01*
X72023000Y-43651250D01*
X72023000Y-44342132D01*
X72037488Y-44414967D01*
X72065907Y-44483577D01*
X72107165Y-44545324D01*
X72159677Y-44597835D01*
X72221424Y-44639093D01*
X72290033Y-44667512D01*
X72362869Y-44682000D01*
X72891250Y-44682000D01*
X72985500Y-44587750D01*
X72985500Y-43557000D01*
X73239500Y-43557000D01*
X73239500Y-44587750D01*
X73333750Y-44682000D01*
X73862131Y-44682000D01*
X73934967Y-44667512D01*
X74003576Y-44639093D01*
X74065323Y-44597835D01*
X74117835Y-44545324D01*
X74159093Y-44483577D01*
X74187512Y-44414967D01*
X74202000Y-44342132D01*
X74202000Y-43651250D01*
X74107750Y-43557000D01*
X73239500Y-43557000D01*
X72985500Y-43557000D01*
X72117250Y-43557000D01*
X72023000Y-43651250D01*
X69104083Y-43651250D01*
X69104083Y-42517868D01*
X72023000Y-42517868D01*
X72023000Y-43208750D01*
X72117250Y-43303000D01*
X72985500Y-43303000D01*
X72985500Y-42272250D01*
X72891250Y-42178000D01*
X72362869Y-42178000D01*
X72290033Y-42192488D01*
X72221424Y-42220907D01*
X72159677Y-42262165D01*
X72107165Y-42314676D01*
X72065907Y-42376423D01*
X72037488Y-42445033D01*
X72023000Y-42517868D01*
X69104083Y-42517868D01*
X69104083Y-42495500D01*
X69100000Y-42454045D01*
X69100000Y-42373553D01*
X69084297Y-42294607D01*
X69081677Y-42268009D01*
X69073919Y-42242433D01*
X69055345Y-42149057D01*
X69018911Y-42061098D01*
X69015320Y-42049260D01*
X69009489Y-42038350D01*
X68967751Y-41937587D01*
X68840584Y-41747268D01*
X68678732Y-41585416D01*
X68488413Y-41458249D01*
X68276943Y-41370655D01*
X68052447Y-41326000D01*
X67823553Y-41326000D01*
X67599057Y-41370655D01*
X67387587Y-41458249D01*
X67197268Y-41585416D01*
X67035416Y-41747268D01*
X66908249Y-41937587D01*
X66866511Y-42038350D01*
X66860680Y-42049260D01*
X66857089Y-42061098D01*
X66820655Y-42149057D01*
X66802081Y-42242433D01*
X66794323Y-42268009D01*
X66791703Y-42294607D01*
X66776000Y-42373553D01*
X66776000Y-42454045D01*
X66771917Y-42495500D01*
X66771917Y-44853351D01*
X66564083Y-44853351D01*
X66564083Y-42495500D01*
X66560000Y-42454045D01*
X66560000Y-42373553D01*
X66544297Y-42294607D01*
X66541677Y-42268009D01*
X66533919Y-42242433D01*
X66515345Y-42149057D01*
X66478911Y-42061098D01*
X66475320Y-42049260D01*
X66469489Y-42038350D01*
X66427751Y-41937587D01*
X66300584Y-41747268D01*
X66138732Y-41585416D01*
X65948413Y-41458249D01*
X65736943Y-41370655D01*
X65512447Y-41326000D01*
X65283553Y-41326000D01*
X65059057Y-41370655D01*
X64847587Y-41458249D01*
X64657268Y-41585416D01*
X64495416Y-41747268D01*
X64368249Y-41937587D01*
X64326511Y-42038350D01*
X64320680Y-42049260D01*
X64317089Y-42061098D01*
X64280655Y-42149057D01*
X64262081Y-42242433D01*
X64254323Y-42268009D01*
X64251703Y-42294607D01*
X64236000Y-42373553D01*
X64236000Y-42454045D01*
X64231917Y-42495500D01*
X64231917Y-44853351D01*
X62666537Y-44853351D01*
X62696455Y-44801561D01*
X62696456Y-44801558D01*
X62938572Y-44382468D01*
X62938574Y-44382463D01*
X63180696Y-43963336D01*
X63180700Y-43963327D01*
X63422816Y-43544209D01*
X63664933Y-43125115D01*
X63664935Y-43125110D01*
X63907057Y-42705983D01*
X63907061Y-42705974D01*
X64149177Y-42286856D01*
X64391294Y-41867762D01*
X64391296Y-41867757D01*
X64633418Y-41448630D01*
X64633421Y-41448624D01*
X64875539Y-41029502D01*
X64875541Y-41029497D01*
X65117659Y-40610377D01*
X65117662Y-40610370D01*
X65359776Y-40191283D01*
X65359778Y-40191278D01*
X65601900Y-39772151D01*
X65601904Y-39772142D01*
X65837089Y-39365022D01*
X66086137Y-38933930D01*
X66086139Y-38933925D01*
X66328261Y-38514798D01*
X66328264Y-38514792D01*
X66570382Y-38095670D01*
X66812498Y-37676577D01*
X66812500Y-37676572D01*
X67054622Y-37257445D01*
X67054625Y-37257439D01*
X67296743Y-36838317D01*
X67296744Y-36838314D01*
X67528145Y-36437772D01*
X67531283Y-36432340D01*
X67538860Y-36419224D01*
X67538862Y-36419219D01*
X67780984Y-36000092D01*
X67780990Y-36000078D01*
X68023104Y-35580964D01*
X68023105Y-35580961D01*
X68252841Y-35183300D01*
X68252844Y-35183296D01*
X68264815Y-35162574D01*
X68265221Y-35161871D01*
X68265222Y-35161869D01*
X68507344Y-34742739D01*
X68507346Y-34742735D01*
X68749466Y-34323613D01*
X68749469Y-34323607D01*
X68991587Y-33904486D01*
X68991590Y-33904479D01*
X69233704Y-33485392D01*
X69233706Y-33485387D01*
X69475828Y-33066260D01*
X69475834Y-33066246D01*
X69717948Y-32647132D01*
X69960064Y-32228039D01*
X69960066Y-32228034D01*
X70195412Y-31820636D01*
X70235555Y-31752703D01*
X70276576Y-31686205D01*
X70319100Y-31620187D01*
X70363046Y-31554923D01*
X70408419Y-31490518D01*
X70455235Y-31427067D01*
X70503440Y-31364774D01*
X70553120Y-31303595D01*
X70604196Y-31243801D01*
X70656665Y-31185460D01*
X70710579Y-31128633D01*
X70765889Y-31073487D01*
X70822577Y-31020122D01*
X70880631Y-30968658D01*
X70940105Y-30919179D01*
X71000981Y-30871760D01*
X71063265Y-30826504D01*
X71126880Y-30783544D01*
X71191927Y-30742960D01*
X71258412Y-30704780D01*
X71326325Y-30669141D01*
X71395673Y-30636118D01*
X71466508Y-30605813D01*
X71538937Y-30578268D01*
X71612831Y-30553594D01*
X71688348Y-30531962D01*
X71765864Y-30513279D01*
X71845123Y-30497622D01*
X71925862Y-30485276D01*
X72008458Y-30476407D01*
X72094059Y-30470960D01*
X72180240Y-30468624D01*
X72266410Y-30470960D01*
X72266410Y-30470960D01*
G37*
X72266410Y-30470960D02*
X72351995Y-30476407D01*
X72434573Y-30485274D01*
X72515259Y-30497615D01*
X72594510Y-30513275D01*
X72671979Y-30531955D01*
X72747523Y-30553605D01*
X72821388Y-30578238D01*
X72893750Y-30605752D01*
X72964523Y-30636027D01*
X73033857Y-30669021D01*
X73101674Y-30704590D01*
X73168083Y-30742710D01*
X73233042Y-30783252D01*
X73296618Y-30826177D01*
X73358821Y-30871370D01*
X73419594Y-30918706D01*
X73479013Y-30968165D01*
X73537058Y-31019599D01*
X73593679Y-31072881D01*
X73648897Y-31127941D01*
X73702724Y-31184684D01*
X73755177Y-31243012D01*
X73806205Y-31302754D01*
X73855810Y-31363846D01*
X73904028Y-31426157D01*
X73950776Y-31489512D01*
X73996147Y-31553907D01*
X74040035Y-31619069D01*
X74082540Y-31685035D01*
X74123600Y-31751562D01*
X74163812Y-31819570D01*
X74209793Y-31899047D01*
X74209803Y-31899069D01*
X74217703Y-31912720D01*
X74222182Y-31920461D01*
X74222190Y-31920472D01*
X74267840Y-31999349D01*
X74315386Y-32081531D01*
X74315396Y-32081552D01*
X74322568Y-32093944D01*
X74327775Y-32102944D01*
X74327782Y-32102954D01*
X74373433Y-32181834D01*
X74420979Y-32264014D01*
X74420989Y-32264037D01*
X74428160Y-32276427D01*
X74433367Y-32285427D01*
X74433375Y-32285438D01*
X74478692Y-32363739D01*
X74526570Y-32446495D01*
X74526579Y-32446514D01*
X74533752Y-32458909D01*
X74538960Y-32467910D01*
X74538966Y-32467919D01*
X74584461Y-32546532D01*
X74632165Y-32628984D01*
X74632171Y-32628997D01*
X74637379Y-32637996D01*
X74644554Y-32650397D01*
X74644562Y-32650408D01*
X74687029Y-32723789D01*
X74737758Y-32811466D01*
X74737764Y-32811480D01*
X74744939Y-32823878D01*
X74750148Y-32832881D01*
X74750154Y-32832889D01*
X74795502Y-32911249D01*
X74843351Y-32993949D01*
X74843357Y-32993963D01*
X74850532Y-33006361D01*
X74855741Y-33015364D01*
X74855747Y-33015372D01*
X74901239Y-33093981D01*
X74948945Y-33176436D01*
X74948949Y-33176445D01*
X74953556Y-33184407D01*
X74961332Y-33197846D01*
X74961341Y-33197859D01*
X75008942Y-33280113D01*
X75054531Y-33358912D01*
X75054541Y-33358934D01*
X75061714Y-33371328D01*
X75066920Y-33380326D01*
X75066928Y-33380337D01*
X75103540Y-33443599D01*
X75056981Y-33445204D01*
X74936749Y-33473460D01*
X74824339Y-33524629D01*
X74724072Y-33596744D01*
X74639800Y-33687035D01*
X74574762Y-33792033D01*
X74531458Y-33907701D01*
X74511553Y-34029593D01*
X74515809Y-34153028D01*
X74544065Y-34273260D01*
X74582414Y-34357508D01*
X74941473Y-34976917D01*
X74883957Y-35010340D01*
X74807814Y-35054587D01*
X74807792Y-35054597D01*
X74798619Y-35059930D01*
X74786439Y-35067008D01*
X74786416Y-35067025D01*
X74706657Y-35113395D01*
X74618392Y-35164687D01*
X74521856Y-35220782D01*
X74521853Y-35220784D01*
X74455038Y-35259611D01*
X74455009Y-35259624D01*
X74444404Y-35265790D01*
X74433661Y-35272033D01*
X74433640Y-35272048D01*
X74355905Y-35317244D01*
X74278671Y-35362123D01*
X74278670Y-35362124D01*
X74274659Y-35364455D01*
X74257274Y-35374557D01*
X74257271Y-35374559D01*
X74190479Y-35413373D01*
X74190478Y-35413373D01*
X74123566Y-35452256D01*
X73763979Y-34831938D01*
X73709931Y-34756791D01*
X73619640Y-34672519D01*
X73514642Y-34607481D01*
X73398974Y-34564177D01*
X73277082Y-34544272D01*
X73153647Y-34548528D01*
X73033415Y-34576784D01*
X72921005Y-34627953D01*
X72820738Y-34700068D01*
X72736466Y-34790359D01*
X72671428Y-34895357D01*
X72628124Y-35011025D01*
X72608219Y-35132917D01*
X72612475Y-35256352D01*
X72618288Y-35281089D01*
X72608842Y-35288841D01*
X72558417Y-35350284D01*
X72552358Y-35357667D01*
X72510386Y-35436191D01*
X72502621Y-35461790D01*
X72463180Y-35388002D01*
X72392780Y-35302220D01*
X72390803Y-35300597D01*
X72418576Y-35289093D01*
X72480323Y-35247835D01*
X72532835Y-35195324D01*
X72574093Y-35133577D01*
X72602512Y-35064967D01*
X72617000Y-34992132D01*
X72617000Y-34701250D01*
X72522750Y-34607000D01*
X71842000Y-34607000D01*
X71842000Y-34627000D01*
X71588000Y-34627000D01*
X71588000Y-34607000D01*
X71568000Y-34607000D01*
X71568000Y-34353000D01*
X71588000Y-34353000D01*
X71588000Y-33722250D01*
X71842000Y-33722250D01*
X71842000Y-34353000D01*
X72522750Y-34353000D01*
X72617000Y-34258750D01*
X72617000Y-33967868D01*
X72602512Y-33895033D01*
X72574093Y-33826423D01*
X72532835Y-33764676D01*
X72480323Y-33712165D01*
X72418576Y-33670907D01*
X72349967Y-33642488D01*
X72277131Y-33628000D01*
X71936250Y-33628000D01*
X71842000Y-33722250D01*
X71588000Y-33722250D01*
X71493750Y-33628000D01*
X71152869Y-33628000D01*
X71080033Y-33642488D01*
X71011424Y-33670907D01*
X70949677Y-33712165D01*
X70897165Y-33764676D01*
X70855907Y-33826423D01*
X70827488Y-33895033D01*
X70813000Y-33967868D01*
X70813000Y-34185825D01*
X70807705Y-34132063D01*
X70775492Y-34025870D01*
X70723180Y-33928002D01*
X70652780Y-33842220D01*
X70566998Y-33771820D01*
X70469130Y-33719508D01*
X70362937Y-33687295D01*
X70252500Y-33676418D01*
X69677500Y-33676418D01*
X69567063Y-33687295D01*
X69460870Y-33719508D01*
X69363002Y-33771820D01*
X69277220Y-33842220D01*
X69206820Y-33928002D01*
X69154508Y-34025870D01*
X69122295Y-34132063D01*
X69111418Y-34242500D01*
X69111418Y-34717500D01*
X69122295Y-34827937D01*
X69154508Y-34934130D01*
X69206820Y-35031998D01*
X69277220Y-35117780D01*
X69363002Y-35188180D01*
X69398824Y-35207327D01*
X69353002Y-35231820D01*
X69267220Y-35302220D01*
X69196820Y-35388002D01*
X69144508Y-35485870D01*
X69128695Y-35538000D01*
X69029741Y-35538000D01*
X69010002Y-35536056D01*
X68990262Y-35538000D01*
X68990255Y-35538000D01*
X68984597Y-35538557D01*
X68942060Y-35520938D01*
X68801605Y-35493000D01*
X68658399Y-35493000D01*
X68517944Y-35520938D01*
X68385638Y-35575741D01*
X68266566Y-35655302D01*
X68165304Y-35756564D01*
X68085743Y-35875636D01*
X68030940Y-36007942D01*
X68003002Y-36148397D01*
X68003002Y-36291603D01*
X68030940Y-36432058D01*
X68085743Y-36564364D01*
X68165304Y-36683436D01*
X68266566Y-36784698D01*
X68385638Y-36864259D01*
X68517944Y-36919062D01*
X68658399Y-36947000D01*
X68801605Y-36947000D01*
X68942060Y-36919062D01*
X68994004Y-36897546D01*
X68983000Y-36952868D01*
X68983000Y-37168750D01*
X69077250Y-37263000D01*
X69683000Y-37263000D01*
X69683000Y-37243000D01*
X69937000Y-37243000D01*
X69937000Y-37263000D01*
X69957000Y-37263000D01*
X69957000Y-37517000D01*
X69937000Y-37517000D01*
X69937000Y-37537000D01*
X69683000Y-37537000D01*
X69683000Y-37517000D01*
X69077250Y-37517000D01*
X68983000Y-37611250D01*
X68983000Y-37827132D01*
X68997488Y-37899967D01*
X69013242Y-37938000D01*
X68588385Y-37938000D01*
X68582268Y-37875897D01*
X68563570Y-37814257D01*
X68533206Y-37757450D01*
X68492343Y-37707657D01*
X68442550Y-37666794D01*
X68385743Y-37636430D01*
X68324103Y-37617732D01*
X68260000Y-37611418D01*
X67360000Y-37611418D01*
X67295897Y-37617732D01*
X67234257Y-37636430D01*
X67177450Y-37666794D01*
X67127657Y-37707657D01*
X67086794Y-37757450D01*
X67056430Y-37814257D01*
X67037732Y-37875897D01*
X67031418Y-37940000D01*
X67031418Y-38740000D01*
X67037732Y-38804103D01*
X67056430Y-38865743D01*
X67086794Y-38922550D01*
X67127657Y-38972343D01*
X67177450Y-39013206D01*
X67234257Y-39043570D01*
X67295897Y-39062268D01*
X67360000Y-39068582D01*
X68260000Y-39068582D01*
X68324103Y-39062268D01*
X68385743Y-39043570D01*
X68442550Y-39013206D01*
X68492343Y-38972343D01*
X68533206Y-38922550D01*
X68563570Y-38865743D01*
X68582268Y-38804103D01*
X68588385Y-38742000D01*
X69068327Y-38742000D01*
X69056430Y-38764257D01*
X69037732Y-38825897D01*
X69031418Y-38890000D01*
X69031418Y-39690000D01*
X69037732Y-39754103D01*
X69056430Y-39815743D01*
X69086794Y-39872550D01*
X69127657Y-39922343D01*
X69177450Y-39963206D01*
X69234257Y-39993570D01*
X69295897Y-40012268D01*
X69360000Y-40018582D01*
X70260000Y-40018582D01*
X70324103Y-40012268D01*
X70385743Y-39993570D01*
X70442550Y-39963206D01*
X70492343Y-39922343D01*
X70520000Y-39888642D01*
X70547657Y-39922343D01*
X70597450Y-39963206D01*
X70654257Y-39993570D01*
X70715897Y-40012268D01*
X70780000Y-40018582D01*
X71369359Y-40018582D01*
X73528776Y-42178000D01*
X73333750Y-42178000D01*
X73239500Y-42272250D01*
X73239500Y-43303000D01*
X74107750Y-43303000D01*
X74202000Y-43208750D01*
X74202000Y-42851225D01*
X75046418Y-43695643D01*
X75046418Y-44055000D01*
X75057535Y-44167876D01*
X75090460Y-44276414D01*
X75143927Y-44376443D01*
X75215881Y-44464119D01*
X75303557Y-44536073D01*
X75403586Y-44589540D01*
X75512124Y-44622465D01*
X75625000Y-44633582D01*
X76550000Y-44633582D01*
X76662876Y-44622465D01*
X76771414Y-44589540D01*
X76871443Y-44536073D01*
X76959119Y-44464119D01*
X77031073Y-44376443D01*
X77084540Y-44276414D01*
X77117465Y-44167876D01*
X77128582Y-44055000D01*
X77128582Y-42805000D01*
X77117465Y-42692124D01*
X77084540Y-42583586D01*
X77031073Y-42483557D01*
X76959119Y-42395881D01*
X76871443Y-42323927D01*
X76771414Y-42270460D01*
X76662876Y-42237535D01*
X76550000Y-42226418D01*
X75625000Y-42226418D01*
X75512124Y-42237535D01*
X75403586Y-42270460D01*
X75303557Y-42323927D01*
X75215881Y-42395881D01*
X75143927Y-42483557D01*
X75133078Y-42503854D01*
X72008582Y-39379359D01*
X72008582Y-38890000D01*
X72002268Y-38825897D01*
X71983570Y-38764257D01*
X71953206Y-38707450D01*
X71912343Y-38657657D01*
X71862550Y-38616794D01*
X71805743Y-38586430D01*
X71744103Y-38567732D01*
X71680000Y-38561418D01*
X71177095Y-38561418D01*
X71500291Y-38238222D01*
X71515632Y-38225632D01*
X71565868Y-38164420D01*
X71590369Y-38118582D01*
X71680000Y-38118582D01*
X71744103Y-38112268D01*
X71805743Y-38093570D01*
X71862550Y-38063206D01*
X71912343Y-38022343D01*
X71953206Y-37972550D01*
X71983570Y-37915743D01*
X72002268Y-37854103D01*
X72008582Y-37790000D01*
X72008582Y-36990000D01*
X72002268Y-36925897D01*
X71983570Y-36864257D01*
X71953206Y-36807450D01*
X71912343Y-36757657D01*
X71895192Y-36743582D01*
X71992500Y-36743582D01*
X72102937Y-36732705D01*
X72209130Y-36700492D01*
X72306998Y-36648180D01*
X72392780Y-36577780D01*
X72463180Y-36491998D01*
X72478000Y-36464271D01*
X72478000Y-37167795D01*
X72475813Y-37190000D01*
X72484540Y-37278607D01*
X72486174Y-37283994D01*
X72510386Y-37363809D01*
X72552357Y-37442332D01*
X72608841Y-37511159D01*
X72626100Y-37525323D01*
X72718274Y-37617498D01*
X72715897Y-37617732D01*
X72654257Y-37636430D01*
X72597450Y-37666794D01*
X72547657Y-37707657D01*
X72506794Y-37757450D01*
X72476430Y-37814257D01*
X72457732Y-37875897D01*
X72451418Y-37940000D01*
X72451418Y-38740000D01*
X72457732Y-38804103D01*
X72476430Y-38865743D01*
X72506794Y-38922550D01*
X72547657Y-38972343D01*
X72597450Y-39013206D01*
X72654257Y-39043570D01*
X72715897Y-39062268D01*
X72780000Y-39068582D01*
X73680000Y-39068582D01*
X73744103Y-39062268D01*
X73805743Y-39043570D01*
X73862550Y-39013206D01*
X73912343Y-38972343D01*
X73953206Y-38922550D01*
X73983570Y-38865743D01*
X74002268Y-38804103D01*
X74008582Y-38740000D01*
X74008582Y-37940000D01*
X74002268Y-37875897D01*
X73983570Y-37814257D01*
X73953206Y-37757450D01*
X73912343Y-37707657D01*
X73862550Y-37666794D01*
X73805743Y-37636430D01*
X73744103Y-37617732D01*
X73682000Y-37611615D01*
X73682000Y-37512204D01*
X73684187Y-37489999D01*
X73675460Y-37401392D01*
X73649614Y-37316190D01*
X73632405Y-37283994D01*
X73607643Y-37237667D01*
X73551159Y-37168841D01*
X73533906Y-37154682D01*
X73407039Y-37027816D01*
X73418591Y-37038323D01*
X73434712Y-37053612D01*
X73436953Y-37055025D01*
X73438910Y-37056805D01*
X73457922Y-37068246D01*
X73476702Y-37080087D01*
X73479173Y-37081035D01*
X73481442Y-37082400D01*
X73502307Y-37089907D01*
X73523050Y-37097862D01*
X73525665Y-37098310D01*
X73528151Y-37099205D01*
X73550055Y-37102494D01*
X73571975Y-37106253D01*
X73574627Y-37106183D01*
X73577240Y-37106575D01*
X73599371Y-37105527D01*
X73621596Y-37104938D01*
X73624181Y-37104352D01*
X73626823Y-37104227D01*
X73648340Y-37098877D01*
X73670008Y-37093967D01*
X73672429Y-37092888D01*
X73674996Y-37092250D01*
X73695056Y-37082806D01*
X73715350Y-37073763D01*
X73727650Y-37065064D01*
X73735035Y-37060655D01*
X73761088Y-37045100D01*
X73770706Y-37039358D01*
X73770713Y-37039355D01*
X73786100Y-37030168D01*
X73791953Y-37026674D01*
X73791956Y-37026672D01*
X73797871Y-37023140D01*
X73807933Y-37017133D01*
X73807940Y-37017130D01*
X73822701Y-37008317D01*
X73829180Y-37004449D01*
X73829183Y-37004447D01*
X73835098Y-37000915D01*
X73845160Y-36994908D01*
X73845167Y-36994905D01*
X73859990Y-36986055D01*
X73866407Y-36982224D01*
X73866410Y-36982222D01*
X73872709Y-36978461D01*
X73882387Y-36972683D01*
X73882394Y-36972680D01*
X73896936Y-36963998D01*
X73916182Y-36997290D01*
X73916184Y-36997295D01*
X74069534Y-37262564D01*
X74069534Y-37262565D01*
X74232564Y-37544582D01*
X74376232Y-37793104D01*
X74376234Y-37793109D01*
X74529584Y-38058378D01*
X74529584Y-38058379D01*
X74695320Y-38345079D01*
X74695324Y-38345084D01*
X74732392Y-38409207D01*
X74686074Y-38443280D01*
X74681130Y-38447722D01*
X74675563Y-38451346D01*
X74672018Y-38454223D01*
X74625055Y-38492883D01*
X74622931Y-38495012D01*
X74620473Y-38496727D01*
X74617022Y-38499717D01*
X74578759Y-38533344D01*
X74578717Y-38533380D01*
X74540416Y-38567041D01*
X74528082Y-38580226D01*
X74514676Y-38592312D01*
X74511623Y-38595707D01*
X74453396Y-38661368D01*
X74407709Y-38708591D01*
X74396253Y-38723016D01*
X74383646Y-38736441D01*
X74380885Y-38740078D01*
X74337669Y-38797843D01*
X74306816Y-38837052D01*
X74300710Y-38846601D01*
X74293452Y-38855301D01*
X74290910Y-38859094D01*
X74266268Y-38896415D01*
X74266265Y-38896420D01*
X74229310Y-38952390D01*
X74224504Y-38961491D01*
X74218536Y-38969878D01*
X74216292Y-38973855D01*
X74187991Y-39024836D01*
X74159706Y-39075789D01*
X74159692Y-39075813D01*
X74131390Y-39126794D01*
X74125586Y-39140182D01*
X74118399Y-39152870D01*
X74116575Y-39157056D01*
X74096935Y-39203036D01*
X74096081Y-39205739D01*
X74094759Y-39208253D01*
X74093068Y-39212494D01*
X74071628Y-39267372D01*
X74053992Y-39308660D01*
X74052151Y-39314488D01*
X74049414Y-39319955D01*
X74047808Y-39324229D01*
X74020846Y-39397531D01*
X74017682Y-39409684D01*
X74013098Y-39421380D01*
X74011886Y-39425782D01*
X73989935Y-39507707D01*
X73989925Y-39507742D01*
X73971634Y-39576007D01*
X73971624Y-39576042D01*
X73956983Y-39630683D01*
X73953175Y-39653684D01*
X73948160Y-39676443D01*
X73947649Y-39680981D01*
X73933367Y-39816244D01*
X73933366Y-39816319D01*
X73933085Y-39819021D01*
X73924783Y-39904644D01*
X73924786Y-39907649D01*
X73924261Y-39910601D01*
X73923935Y-39915156D01*
X73919294Y-39987117D01*
X73919659Y-39998077D01*
X73918617Y-40008993D01*
X73918661Y-40013559D01*
X73920360Y-40116502D01*
X73920911Y-40121307D01*
X73920661Y-40126139D01*
X73920903Y-40130699D01*
X73927602Y-40242301D01*
X73930341Y-40259525D01*
X73931542Y-40276938D01*
X73932331Y-40281436D01*
X73959030Y-40427680D01*
X73959360Y-40428835D01*
X73959468Y-40430029D01*
X73960352Y-40434508D01*
X73979371Y-40527450D01*
X73984700Y-40544703D01*
X73988543Y-40562343D01*
X73989975Y-40566679D01*
X74022641Y-40663241D01*
X74022656Y-40663286D01*
X74055336Y-40759888D01*
X74058136Y-40766092D01*
X74059952Y-40772654D01*
X74061623Y-40776903D01*
X74086550Y-40839008D01*
X74106554Y-40892403D01*
X74117437Y-40914581D01*
X74127324Y-40937211D01*
X74129579Y-40941181D01*
X74189579Y-41045105D01*
X74189580Y-41045106D01*
X74229580Y-41114388D01*
X74238789Y-41127251D01*
X74246687Y-41140964D01*
X74249367Y-41144661D01*
X74303027Y-41217603D01*
X74303029Y-41217605D01*
X74356690Y-41290547D01*
X74361129Y-41295488D01*
X74364754Y-41301056D01*
X74367631Y-41304602D01*
X74406291Y-41351564D01*
X74408420Y-41353688D01*
X74410135Y-41356146D01*
X74413125Y-41359597D01*
X74480445Y-41436199D01*
X74493630Y-41448533D01*
X74505722Y-41461946D01*
X74509117Y-41464999D01*
X74574782Y-41523227D01*
X74621997Y-41568908D01*
X74636421Y-41580363D01*
X74649849Y-41592973D01*
X74653486Y-41595734D01*
X74711251Y-41638950D01*
X74750460Y-41669803D01*
X74760009Y-41675909D01*
X74768709Y-41683167D01*
X74772502Y-41685710D01*
X74809823Y-41710351D01*
X74809828Y-41710354D01*
X74865798Y-41747309D01*
X74874902Y-41752117D01*
X74883287Y-41758083D01*
X74887263Y-41760327D01*
X74938244Y-41788628D01*
X74989197Y-41816913D01*
X74989221Y-41816927D01*
X75040202Y-41845229D01*
X75053589Y-41851032D01*
X75066278Y-41858220D01*
X75070464Y-41860043D01*
X75116444Y-41879684D01*
X75119147Y-41880538D01*
X75121661Y-41881860D01*
X75125902Y-41883551D01*
X75180794Y-41904997D01*
X75222068Y-41922627D01*
X75227896Y-41924468D01*
X75233365Y-41927206D01*
X75237639Y-41928812D01*
X75310940Y-41955773D01*
X75323093Y-41958937D01*
X75334784Y-41963519D01*
X75339186Y-41964731D01*
X75421089Y-41986677D01*
X75421150Y-41986694D01*
X75489415Y-42004985D01*
X75489450Y-42004995D01*
X75544092Y-42019636D01*
X75567092Y-42023444D01*
X75589852Y-42028459D01*
X75594389Y-42028970D01*
X75729652Y-42043252D01*
X75729727Y-42043253D01*
X75732430Y-42043534D01*
X75818052Y-42051836D01*
X75821058Y-42051833D01*
X75824010Y-42052358D01*
X75828564Y-42052684D01*
X75900526Y-42057325D01*
X75911485Y-42056960D01*
X75922401Y-42058002D01*
X75926967Y-42057958D01*
X76029910Y-42056259D01*
X76034715Y-42055708D01*
X76039547Y-42055958D01*
X76044107Y-42055716D01*
X76155709Y-42049017D01*
X76172933Y-42046278D01*
X76190346Y-42045077D01*
X76194844Y-42044288D01*
X76341088Y-42017589D01*
X76342243Y-42017259D01*
X76343437Y-42017151D01*
X76347916Y-42016267D01*
X76440858Y-41997248D01*
X76458111Y-41991919D01*
X76475751Y-41988076D01*
X76480087Y-41986644D01*
X76576649Y-41953978D01*
X76576694Y-41953963D01*
X76673296Y-41921283D01*
X76679504Y-41918481D01*
X76686066Y-41916665D01*
X76690315Y-41914994D01*
X76746086Y-41892608D01*
X76829829Y-42037470D01*
X76829831Y-42037475D01*
X76983181Y-42302744D01*
X76983181Y-42302745D01*
X77145531Y-42583586D01*
X77289876Y-42833279D01*
X77443227Y-43098578D01*
X77443231Y-43098587D01*
X77596581Y-43363856D01*
X77596581Y-43363857D01*
X77749930Y-43629129D01*
X77903280Y-43894398D01*
X77903280Y-43894399D01*
X78064163Y-44172702D01*
X78209978Y-44424938D01*
X78209980Y-44424943D01*
X78363328Y-44690209D01*
X78363330Y-44690214D01*
X78457638Y-44853351D01*
X69104083Y-44853351D01*
X69104083Y-43651250D01*
X72023000Y-43651250D01*
X72023000Y-44342132D01*
X72037488Y-44414967D01*
X72065907Y-44483577D01*
X72107165Y-44545324D01*
X72159677Y-44597835D01*
X72221424Y-44639093D01*
X72290033Y-44667512D01*
X72362869Y-44682000D01*
X72891250Y-44682000D01*
X72985500Y-44587750D01*
X72985500Y-43557000D01*
X73239500Y-43557000D01*
X73239500Y-44587750D01*
X73333750Y-44682000D01*
X73862131Y-44682000D01*
X73934967Y-44667512D01*
X74003576Y-44639093D01*
X74065323Y-44597835D01*
X74117835Y-44545324D01*
X74159093Y-44483577D01*
X74187512Y-44414967D01*
X74202000Y-44342132D01*
X74202000Y-43651250D01*
X74107750Y-43557000D01*
X73239500Y-43557000D01*
X72985500Y-43557000D01*
X72117250Y-43557000D01*
X72023000Y-43651250D01*
X69104083Y-43651250D01*
X69104083Y-42517868D01*
X72023000Y-42517868D01*
X72023000Y-43208750D01*
X72117250Y-43303000D01*
X72985500Y-43303000D01*
X72985500Y-42272250D01*
X72891250Y-42178000D01*
X72362869Y-42178000D01*
X72290033Y-42192488D01*
X72221424Y-42220907D01*
X72159677Y-42262165D01*
X72107165Y-42314676D01*
X72065907Y-42376423D01*
X72037488Y-42445033D01*
X72023000Y-42517868D01*
X69104083Y-42517868D01*
X69104083Y-42495500D01*
X69100000Y-42454045D01*
X69100000Y-42373553D01*
X69084297Y-42294607D01*
X69081677Y-42268009D01*
X69073919Y-42242433D01*
X69055345Y-42149057D01*
X69018911Y-42061098D01*
X69015320Y-42049260D01*
X69009489Y-42038350D01*
X68967751Y-41937587D01*
X68840584Y-41747268D01*
X68678732Y-41585416D01*
X68488413Y-41458249D01*
X68276943Y-41370655D01*
X68052447Y-41326000D01*
X67823553Y-41326000D01*
X67599057Y-41370655D01*
X67387587Y-41458249D01*
X67197268Y-41585416D01*
X67035416Y-41747268D01*
X66908249Y-41937587D01*
X66866511Y-42038350D01*
X66860680Y-42049260D01*
X66857089Y-42061098D01*
X66820655Y-42149057D01*
X66802081Y-42242433D01*
X66794323Y-42268009D01*
X66791703Y-42294607D01*
X66776000Y-42373553D01*
X66776000Y-42454045D01*
X66771917Y-42495500D01*
X66771917Y-44853351D01*
X66564083Y-44853351D01*
X66564083Y-42495500D01*
X66560000Y-42454045D01*
X66560000Y-42373553D01*
X66544297Y-42294607D01*
X66541677Y-42268009D01*
X66533919Y-42242433D01*
X66515345Y-42149057D01*
X66478911Y-42061098D01*
X66475320Y-42049260D01*
X66469489Y-42038350D01*
X66427751Y-41937587D01*
X66300584Y-41747268D01*
X66138732Y-41585416D01*
X65948413Y-41458249D01*
X65736943Y-41370655D01*
X65512447Y-41326000D01*
X65283553Y-41326000D01*
X65059057Y-41370655D01*
X64847587Y-41458249D01*
X64657268Y-41585416D01*
X64495416Y-41747268D01*
X64368249Y-41937587D01*
X64326511Y-42038350D01*
X64320680Y-42049260D01*
X64317089Y-42061098D01*
X64280655Y-42149057D01*
X64262081Y-42242433D01*
X64254323Y-42268009D01*
X64251703Y-42294607D01*
X64236000Y-42373553D01*
X64236000Y-42454045D01*
X64231917Y-42495500D01*
X64231917Y-44853351D01*
X62666537Y-44853351D01*
X62696455Y-44801561D01*
X62696456Y-44801558D01*
X62938572Y-44382468D01*
X62938574Y-44382463D01*
X63180696Y-43963336D01*
X63180700Y-43963327D01*
X63422816Y-43544209D01*
X63664933Y-43125115D01*
X63664935Y-43125110D01*
X63907057Y-42705983D01*
X63907061Y-42705974D01*
X64149177Y-42286856D01*
X64391294Y-41867762D01*
X64391296Y-41867757D01*
X64633418Y-41448630D01*
X64633421Y-41448624D01*
X64875539Y-41029502D01*
X64875541Y-41029497D01*
X65117659Y-40610377D01*
X65117662Y-40610370D01*
X65359776Y-40191283D01*
X65359778Y-40191278D01*
X65601900Y-39772151D01*
X65601904Y-39772142D01*
X65837089Y-39365022D01*
X66086137Y-38933930D01*
X66086139Y-38933925D01*
X66328261Y-38514798D01*
X66328264Y-38514792D01*
X66570382Y-38095670D01*
X66812498Y-37676577D01*
X66812500Y-37676572D01*
X67054622Y-37257445D01*
X67054625Y-37257439D01*
X67296743Y-36838317D01*
X67296744Y-36838314D01*
X67528145Y-36437772D01*
X67531283Y-36432340D01*
X67538860Y-36419224D01*
X67538862Y-36419219D01*
X67780984Y-36000092D01*
X67780990Y-36000078D01*
X68023104Y-35580964D01*
X68023105Y-35580961D01*
X68252841Y-35183300D01*
X68252844Y-35183296D01*
X68264815Y-35162574D01*
X68265221Y-35161871D01*
X68265222Y-35161869D01*
X68507344Y-34742739D01*
X68507346Y-34742735D01*
X68749466Y-34323613D01*
X68749469Y-34323607D01*
X68991587Y-33904486D01*
X68991590Y-33904479D01*
X69233704Y-33485392D01*
X69233706Y-33485387D01*
X69475828Y-33066260D01*
X69475834Y-33066246D01*
X69717948Y-32647132D01*
X69960064Y-32228039D01*
X69960066Y-32228034D01*
X70195412Y-31820636D01*
X70235555Y-31752703D01*
X70276576Y-31686205D01*
X70319100Y-31620187D01*
X70363046Y-31554923D01*
X70408419Y-31490518D01*
X70455235Y-31427067D01*
X70503440Y-31364774D01*
X70553120Y-31303595D01*
X70604196Y-31243801D01*
X70656665Y-31185460D01*
X70710579Y-31128633D01*
X70765889Y-31073487D01*
X70822577Y-31020122D01*
X70880631Y-30968658D01*
X70940105Y-30919179D01*
X71000981Y-30871760D01*
X71063265Y-30826504D01*
X71126880Y-30783544D01*
X71191927Y-30742960D01*
X71258412Y-30704780D01*
X71326325Y-30669141D01*
X71395673Y-30636118D01*
X71466508Y-30605813D01*
X71538937Y-30578268D01*
X71612831Y-30553594D01*
X71688348Y-30531962D01*
X71765864Y-30513279D01*
X71845123Y-30497622D01*
X71925862Y-30485276D01*
X72008458Y-30476407D01*
X72094059Y-30470960D01*
X72180240Y-30468624D01*
X72266410Y-30470960D01*
G04 #@! TD*
M02*
