G04 #@! TF.GenerationSoftware,KiCad,Pcbnew,5.0.0-fee4fd1~66~ubuntu18.04.1*
G04 #@! TF.CreationDate,2018-09-18T17:11:03+02:00*
G04 #@! TF.ProjectId,Lulu_star_212,4C756C755F737461725F3231322E6B69,2.1.2*
G04 #@! TF.SameCoordinates,Original*
G04 #@! TF.FileFunction,Legend,Bot*
G04 #@! TF.FilePolarity,Positive*
%FSLAX46Y46*%
G04 Gerber Fmt 4.6, Leading zero omitted, Abs format (unit mm)*
G04 Created by KiCad (PCBNEW 5.0.0-fee4fd1~66~ubuntu18.04.1) date Tue Sep 18 17:11:03 2018*
%MOMM*%
%LPD*%
G01*
G04 APERTURE LIST*
%ADD10C,0.150000*%
G04 APERTURE END LIST*
D10*
X71097142Y-40600000D02*
X71154285Y-40571428D01*
X71240000Y-40571428D01*
X71325714Y-40600000D01*
X71382857Y-40657142D01*
X71411428Y-40714285D01*
X71440000Y-40828571D01*
X71440000Y-40914285D01*
X71411428Y-41028571D01*
X71382857Y-41085714D01*
X71325714Y-41142857D01*
X71240000Y-41171428D01*
X71182857Y-41171428D01*
X71097142Y-41142857D01*
X71068571Y-41114285D01*
X71068571Y-40914285D01*
X71182857Y-40914285D01*
X70811428Y-41171428D02*
X70811428Y-40571428D01*
X70468571Y-41171428D01*
X70468571Y-40571428D01*
X70182857Y-41171428D02*
X70182857Y-40571428D01*
X70040000Y-40571428D01*
X69954285Y-40600000D01*
X69897142Y-40657142D01*
X69868571Y-40714285D01*
X69840000Y-40828571D01*
X69840000Y-40914285D01*
X69868571Y-41028571D01*
X69897142Y-41085714D01*
X69954285Y-41142857D01*
X70040000Y-41171428D01*
X70182857Y-41171428D01*
X69125714Y-41171428D02*
X69125714Y-40571428D01*
X68897142Y-40571428D01*
X68840000Y-40600000D01*
X68811428Y-40628571D01*
X68782857Y-40685714D01*
X68782857Y-40771428D01*
X68811428Y-40828571D01*
X68840000Y-40857142D01*
X68897142Y-40885714D01*
X69125714Y-40885714D01*
X68582857Y-40571428D02*
X68440000Y-41171428D01*
X68325714Y-40742857D01*
X68211428Y-41171428D01*
X68068571Y-40571428D01*
X67840000Y-41171428D02*
X67840000Y-40571428D01*
X67640000Y-41000000D01*
X67440000Y-40571428D01*
X67440000Y-41171428D01*
X66782857Y-40571428D02*
X66582857Y-41171428D01*
X66382857Y-40571428D01*
X65840000Y-41114285D02*
X65868571Y-41142857D01*
X65954285Y-41171428D01*
X66011428Y-41171428D01*
X66097142Y-41142857D01*
X66154285Y-41085714D01*
X66182857Y-41028571D01*
X66211428Y-40914285D01*
X66211428Y-40828571D01*
X66182857Y-40714285D01*
X66154285Y-40657142D01*
X66097142Y-40600000D01*
X66011428Y-40571428D01*
X65954285Y-40571428D01*
X65868571Y-40600000D01*
X65840000Y-40628571D01*
X65240000Y-41114285D02*
X65268571Y-41142857D01*
X65354285Y-41171428D01*
X65411428Y-41171428D01*
X65497142Y-41142857D01*
X65554285Y-41085714D01*
X65582857Y-41028571D01*
X65611428Y-40914285D01*
X65611428Y-40828571D01*
X65582857Y-40714285D01*
X65554285Y-40657142D01*
X65497142Y-40600000D01*
X65411428Y-40571428D01*
X65354285Y-40571428D01*
X65268571Y-40600000D01*
X65240000Y-40628571D01*
M02*
