M48
;DRILL file {KiCad 5.0.0-fee4fd1~66~ubuntu18.04.1} date Tue Sep 18 17:10:55 2018
;FORMAT={-:-/ absolute / metric / decimal}
FMAT,2
METRIC,TZ
T1C0.250
T2C0.400
T3C0.500
T4C0.900
T5C1.000
T6C1.200
%
G90
G05
M71
T1
X71.313Y-32.241
X71.396Y-32.893
X71.716Y-31.723
X71.915Y-33.295
X72.356Y-31.638
X72.575Y-33.206
X72.879Y-32.034
X72.97Y-32.682
T2
X68.73Y-36.22
T3
X64.128Y-44.6
X66.668Y-44.6
X69.208Y-44.6
X71.74Y-44.6
X73.688Y-35.952
X75.592Y-34.848
T4
X72.143Y-32.46
T5
X74.64Y-35.4
T6
X65.398Y-42.488
X65.398Y-45.028
X67.938Y-42.488
X67.938Y-45.028
X70.478Y-42.488
X70.478Y-45.028
T0
M30
