G04 #@! TF.GenerationSoftware,KiCad,Pcbnew,5.0.0-fee4fd1~66~ubuntu18.04.1*
G04 #@! TF.CreationDate,2018-09-18T17:28:18+02:00*
G04 #@! TF.ProjectId,Lulu_star_212,4C756C755F737461725F3231322E6B69,2.1.2*
G04 #@! TF.SameCoordinates,Original*
G04 #@! TF.FileFunction,Copper,L2,Bot,Signal*
G04 #@! TF.FilePolarity,Positive*
%FSLAX46Y46*%
G04 Gerber Fmt 4.6, Leading zero omitted, Abs format (unit mm)*
G04 Created by KiCad (PCBNEW 5.0.0-fee4fd1~66~ubuntu18.04.1) date Tue Sep 18 17:28:18 2018*
%MOMM*%
%LPD*%
G01*
G04 APERTURE LIST*
G04 #@! TA.AperFunction,EtchedComponent*
%ADD10C,0.100000*%
G04 #@! TD*
G04 #@! TA.AperFunction,ViaPad*
%ADD11C,0.400000*%
G04 #@! TD*
G04 #@! TA.AperFunction,ViaPad*
%ADD12C,1.000000*%
G04 #@! TD*
G04 #@! TA.AperFunction,ComponentPad*
%ADD13C,0.600000*%
G04 #@! TD*
G04 #@! TA.AperFunction,Conductor*
%ADD14C,0.600000*%
G04 #@! TD*
G04 #@! TA.AperFunction,ComponentPad*
%ADD15C,1.100000*%
G04 #@! TD*
G04 #@! TA.AperFunction,Conductor*
%ADD16C,1.100000*%
G04 #@! TD*
G04 #@! TA.AperFunction,SMDPad,CuDef*
%ADD17C,2.480000*%
G04 #@! TD*
G04 #@! TA.AperFunction,Conductor*
%ADD18C,0.100000*%
G04 #@! TD*
G04 #@! TA.AperFunction,ComponentPad*
%ADD19C,1.670000*%
G04 #@! TD*
G04 #@! TA.AperFunction,ViaPad*
%ADD20C,0.600000*%
G04 #@! TD*
G04 #@! TA.AperFunction,ViaPad*
%ADD21C,0.800000*%
G04 #@! TD*
G04 #@! TA.AperFunction,Conductor*
%ADD22C,0.150000*%
G04 #@! TD*
G04 #@! TA.AperFunction,Conductor*
%ADD23C,0.250000*%
G04 #@! TD*
G04 #@! TA.AperFunction,Conductor*
%ADD24C,0.254000*%
G04 #@! TD*
G04 APERTURE END LIST*
D10*
G04 #@! TO.C,P1*
G36*
X74442770Y-40829644D02*
X74412770Y-40777682D01*
X74391430Y-40720721D01*
X74365091Y-40655099D01*
X74332411Y-40558497D01*
X74299732Y-40461894D01*
X74280713Y-40368952D01*
X74254014Y-40222708D01*
X74247315Y-40111106D01*
X74245616Y-40008163D01*
X74250257Y-39936202D01*
X74258559Y-39850580D01*
X74272841Y-39715317D01*
X74287482Y-39660676D01*
X74305783Y-39592375D01*
X74327744Y-39510414D01*
X74354706Y-39437112D01*
X74374347Y-39391131D01*
X74397648Y-39331490D01*
X74417289Y-39285510D01*
X74445591Y-39234529D01*
X74473892Y-39183548D01*
X74502193Y-39132567D01*
X74539155Y-39076587D01*
X74563796Y-39039266D01*
X74597097Y-38996946D01*
X74642719Y-38935965D01*
X74693340Y-38883644D01*
X74756283Y-38812664D01*
X74794584Y-38779003D01*
X74832885Y-38745343D01*
X74879847Y-38706683D01*
X74952789Y-38653023D01*
X75025731Y-38599362D01*
X75095013Y-38559362D01*
X75945013Y-40031606D01*
X74472770Y-40881606D01*
X74442770Y-40829644D01*
G37*
G36*
X76743052Y-41533849D02*
X76691090Y-41563849D01*
X76634129Y-41585188D01*
X76568507Y-41611528D01*
X76471905Y-41644208D01*
X76375302Y-41676887D01*
X76282360Y-41695906D01*
X76136116Y-41722605D01*
X76024514Y-41729304D01*
X75921571Y-41731003D01*
X75849610Y-41726362D01*
X75763988Y-41718060D01*
X75628725Y-41703778D01*
X75574084Y-41689137D01*
X75505783Y-41670836D01*
X75423821Y-41648874D01*
X75350520Y-41621913D01*
X75304539Y-41602272D01*
X75244898Y-41578971D01*
X75198918Y-41559330D01*
X75147937Y-41531028D01*
X75096956Y-41502727D01*
X75045975Y-41474426D01*
X74989995Y-41437464D01*
X74952674Y-41412823D01*
X74910354Y-41379522D01*
X74849373Y-41333900D01*
X74797052Y-41283278D01*
X74726071Y-41220336D01*
X74692411Y-41182035D01*
X74658751Y-41143734D01*
X74620091Y-41096772D01*
X74566430Y-41023830D01*
X74512770Y-40950888D01*
X74472770Y-40881606D01*
X75945013Y-40031606D01*
X76795013Y-41503849D01*
X76743052Y-41533849D01*
G37*
G04 #@! TD*
D11*
G04 #@! TO.N,GND*
G04 #@! TO.C,LED1*
X71396115Y-32893469D03*
D12*
X72143258Y-32460365D03*
D13*
G04 #@! TD*
G04 #@! TO.P,LED1,2*
G04 #@! TO.N,+3V3*
X75365987Y-34459020D03*
D14*
G04 #@! TO.N,+3V3*
G04 #@! TO.C,LED1*
X75140307Y-34069702D02*
X75591667Y-34848338D01*
D13*
G04 #@! TD*
G04 #@! TO.P,LED1,1*
G04 #@! TO.N,Net-(LED1-Pad1)*
X73462653Y-35562344D03*
D14*
G04 #@! TO.N,Net-(LED1-Pad1)*
G04 #@! TO.C,LED1*
X73236973Y-35173026D02*
X73688333Y-35951662D01*
D15*
G04 #@! TD*
G04 #@! TO.P,LED1,3*
G04 #@! TO.N,GND*
X74339094Y-34880909D03*
D16*
G04 #@! TO.N,GND*
G04 #@! TO.C,LED1*
X74038188Y-34361818D02*
X74640000Y-35400000D01*
D11*
X72879417Y-32033629D03*
X72575397Y-33205841D03*
X71715557Y-31722539D03*
X72356137Y-31637812D03*
X71915283Y-33294663D03*
X72970042Y-32681666D03*
X71313191Y-32240812D03*
D17*
G04 #@! TD*
G04 #@! TO.P,LED1,*
G04 #@! TO.N,GND*
X72142292Y-32458697D03*
D18*
G04 #@! TO.N,GND*
G04 #@! TO.C,LED1*
G36*
X71684560Y-31306273D02*
X71799721Y-31266956D01*
X71918182Y-31239117D01*
X72038801Y-31223023D01*
X72160416Y-31218830D01*
X72281858Y-31226577D01*
X72401955Y-31246190D01*
X72519550Y-31277479D01*
X72633513Y-31320145D01*
X72742746Y-31373776D01*
X72846196Y-31437854D01*
X72942867Y-31511765D01*
X73031827Y-31594795D01*
X73112221Y-31686144D01*
X73183273Y-31784934D01*
X73206451Y-31824918D01*
X73211724Y-31821861D01*
X74549253Y-34129220D01*
X73582360Y-34689708D01*
X72870023Y-33460863D01*
X72816055Y-33499678D01*
X72710777Y-33560706D01*
X72600024Y-33611121D01*
X72484863Y-33650438D01*
X72366402Y-33678277D01*
X72245783Y-33694371D01*
X72124168Y-33698564D01*
X72002726Y-33690817D01*
X71882629Y-33671204D01*
X71765034Y-33639915D01*
X71651071Y-33597249D01*
X71541838Y-33543618D01*
X71438388Y-33479540D01*
X71341717Y-33405629D01*
X71252757Y-33322599D01*
X71172363Y-33231250D01*
X71101311Y-33132460D01*
X71040283Y-33027182D01*
X70989868Y-32916429D01*
X70950551Y-32801268D01*
X70922712Y-32682807D01*
X70906618Y-32562188D01*
X70902425Y-32440573D01*
X70910172Y-32319131D01*
X70929785Y-32199034D01*
X70961074Y-32081439D01*
X71003740Y-31967476D01*
X71057371Y-31858243D01*
X71121449Y-31754793D01*
X71195360Y-31658122D01*
X71278390Y-31569162D01*
X71369739Y-31488768D01*
X71468529Y-31417716D01*
X71573807Y-31356688D01*
X71684560Y-31306273D01*
X71684560Y-31306273D01*
G37*
G04 #@! TD*
D19*
G04 #@! TO.P,J1,3*
G04 #@! TO.N,GND*
X70478000Y-42488000D03*
X70478000Y-45028000D03*
G04 #@! TO.P,J1,2*
G04 #@! TO.N,/PWM*
X67938000Y-42488000D03*
X67938000Y-45028000D03*
G04 #@! TO.P,J1,1*
G04 #@! TO.N,+3V3*
X65398000Y-45028000D03*
X65398000Y-42488000D03*
G04 #@! TD*
D20*
G04 #@! TO.N,GND*
X71740000Y-44600000D03*
X69208000Y-44600000D03*
X66668000Y-44600000D03*
X64128000Y-44600000D03*
D21*
G04 #@! TO.N,/PWM*
X68730002Y-36220000D03*
G04 #@! TD*
D22*
G04 #@! TO.N,/PWM*
X68730002Y-36220000D02*
X67110000Y-39150000D01*
X67110000Y-39150000D02*
X67110000Y-41720000D01*
X67110000Y-41720000D02*
X67878000Y-42488000D01*
X67878000Y-42488000D02*
X67938000Y-42488000D01*
D23*
G04 #@! TO.N,+3V3*
X74016659Y-31634503D02*
X74058855Y-31699990D01*
X73928043Y-31505879D02*
X73973079Y-31569797D01*
X73784651Y-31320645D02*
X73833883Y-31381277D01*
X73682156Y-31203701D02*
X73734114Y-31261478D01*
X73518147Y-31040265D02*
X73574206Y-31093019D01*
X73881668Y-31443028D02*
X73928043Y-31505879D01*
X73402016Y-30940519D02*
X73460794Y-30989445D01*
X73574206Y-31093019D02*
X73628844Y-31147501D01*
X73341977Y-30893754D02*
X73402016Y-30940519D01*
X73280548Y-30849124D02*
X73341977Y-30893754D01*
X74058855Y-31699990D02*
X74099605Y-31766014D01*
X73088211Y-30729159D02*
X73153694Y-30766747D01*
X72952996Y-30661562D02*
X73021323Y-30694077D01*
X72588480Y-30540634D02*
X72664851Y-30559049D01*
X72510440Y-30525214D02*
X72588480Y-30540634D01*
X73833883Y-31381277D02*
X73881668Y-31443028D01*
X73217782Y-30806746D02*
X73280548Y-30849124D01*
X73153694Y-30766747D02*
X73217782Y-30806746D01*
X73734114Y-31261478D02*
X73784651Y-31320645D01*
X73021323Y-30694077D02*
X73088211Y-30729159D01*
X72492972Y-30522542D02*
X72510440Y-30525214D01*
X72811992Y-30604632D02*
X72883260Y-30631730D01*
X73628844Y-31147501D02*
X73682156Y-31203701D01*
X72883260Y-30631730D02*
X72952996Y-30661562D01*
X73460794Y-30989445D02*
X73518147Y-31040265D01*
X71621125Y-30580354D02*
X71695500Y-30559049D01*
X73973079Y-31569797D02*
X74016659Y-31634503D01*
X72664851Y-30559049D02*
X72739202Y-30580358D01*
X72739202Y-30580358D02*
X72811992Y-30604632D01*
X71621125Y-30580354D02*
X71867458Y-30522542D01*
X71867458Y-30522542D02*
X72070036Y-30500555D01*
X72070036Y-30500555D02*
X72250000Y-30500000D01*
X72250000Y-30500000D02*
X72492972Y-30522542D01*
X74058855Y-31699990D02*
X75040000Y-33390000D01*
X75040000Y-33390000D02*
X74970000Y-33710000D01*
X74970000Y-33710000D02*
X75508299Y-34615080D01*
X71407231Y-30661638D02*
X71476998Y-30631790D01*
X71338849Y-30694200D02*
X71407231Y-30661638D01*
X71271896Y-30729335D02*
X71338849Y-30694200D01*
X71206335Y-30766985D02*
X71271896Y-30729335D01*
X71079331Y-30849453D02*
X71142116Y-30807053D01*
X70957681Y-30940993D02*
X71017825Y-30894144D01*
X70898900Y-30989895D02*
X70957681Y-30940993D01*
X70841472Y-31040804D02*
X70898900Y-30989895D01*
X70785369Y-31093616D02*
X70841472Y-31040804D01*
X71476998Y-30631790D02*
X71548370Y-30604648D01*
X70034756Y-32154737D02*
X70219558Y-31834834D01*
X70525429Y-31382129D02*
X70574637Y-31321531D01*
X69920111Y-32353190D02*
X70034756Y-32154737D01*
X65510000Y-40310000D02*
X69920111Y-32353190D01*
X65398000Y-40522000D02*
X65510000Y-40310000D01*
X70300296Y-31701105D02*
X70342487Y-31635605D01*
X71017825Y-30894144D02*
X71079331Y-30849453D01*
X70477538Y-31444017D02*
X70525429Y-31382129D01*
X71142116Y-30807053D02*
X71206335Y-30766985D01*
X70625249Y-31262279D02*
X70677247Y-31204463D01*
X70259499Y-31767241D02*
X70300296Y-31701105D01*
X70574637Y-31321531D02*
X70625249Y-31262279D01*
X70342487Y-31635605D02*
X70386103Y-31570830D01*
X70730646Y-31148179D02*
X70785369Y-31093616D01*
X65398000Y-42488000D02*
X65398000Y-40522000D01*
X70677247Y-31204463D02*
X70730646Y-31148179D01*
X71548370Y-30604648D02*
X71621125Y-30580354D01*
X70386103Y-31570830D02*
X70431136Y-31506907D01*
X70219558Y-31834834D02*
X70259499Y-31767241D01*
X70431136Y-31506907D02*
X70477538Y-31444017D01*
G04 #@! TD*
D24*
G04 #@! TO.N,GND*
G36*
X72435551Y-30971155D02*
X72491669Y-30982244D01*
X72549553Y-30996201D01*
X72605378Y-31012201D01*
X72660108Y-31030452D01*
X72713985Y-31050937D01*
X72766930Y-31073586D01*
X72819165Y-31098444D01*
X72870646Y-31125445D01*
X72921456Y-31154611D01*
X72971589Y-31185900D01*
X73021160Y-31219369D01*
X73070190Y-31254991D01*
X73118474Y-31292600D01*
X73166256Y-31332372D01*
X73213323Y-31374079D01*
X73259671Y-31417694D01*
X73305250Y-31463143D01*
X73350084Y-31510406D01*
X73394165Y-31559423D01*
X73437294Y-31609917D01*
X73479663Y-31662097D01*
X73521030Y-31715554D01*
X73561405Y-31770274D01*
X73600831Y-31826230D01*
X73639184Y-31883174D01*
X73673221Y-31935998D01*
X74560902Y-33465020D01*
X74534812Y-33584292D01*
X74529803Y-33598141D01*
X74525314Y-33627711D01*
X74523697Y-33635102D01*
X74521989Y-33649612D01*
X74516439Y-33686168D01*
X74516788Y-33693793D01*
X74515896Y-33701367D01*
X74518817Y-33738191D01*
X74520505Y-33775111D01*
X74522334Y-33782518D01*
X74522937Y-33790124D01*
X74532993Y-33825695D01*
X74541845Y-33861552D01*
X74545081Y-33868454D01*
X74545541Y-33870083D01*
X74531458Y-33907701D01*
X74511553Y-34029593D01*
X74515809Y-34153028D01*
X74544065Y-34273260D01*
X74582414Y-34357508D01*
X74926428Y-34950962D01*
X74858287Y-34990559D01*
X74858283Y-34990562D01*
X74794009Y-35027912D01*
X74793986Y-35027922D01*
X74784201Y-35033611D01*
X74770093Y-35041809D01*
X74770064Y-35041830D01*
X74691892Y-35087278D01*
X74617654Y-35130418D01*
X74508389Y-35193911D01*
X74441233Y-35232935D01*
X74441203Y-35232949D01*
X74429475Y-35239768D01*
X74417315Y-35246834D01*
X74417288Y-35246854D01*
X74341408Y-35290971D01*
X74264872Y-35335445D01*
X74264870Y-35335446D01*
X74261435Y-35337442D01*
X74243807Y-35347686D01*
X74152730Y-35400611D01*
X74108520Y-35426301D01*
X73763979Y-34831938D01*
X73709931Y-34756791D01*
X73619640Y-34672519D01*
X73514642Y-34607481D01*
X73398974Y-34564177D01*
X73277082Y-34544272D01*
X73153647Y-34548528D01*
X73033415Y-34576784D01*
X72921005Y-34627953D01*
X72820738Y-34700068D01*
X72736466Y-34790359D01*
X72671428Y-34895357D01*
X72628124Y-35011025D01*
X72608219Y-35132917D01*
X72612475Y-35256352D01*
X72640731Y-35376584D01*
X72679080Y-35460832D01*
X73032328Y-36070216D01*
X73024339Y-36078639D01*
X73023648Y-36079735D01*
X73022764Y-36080684D01*
X73008853Y-36103195D01*
X72994708Y-36125625D01*
X72994243Y-36126838D01*
X72993563Y-36127938D01*
X72984313Y-36152725D01*
X72974814Y-36177490D01*
X72974595Y-36178768D01*
X72974142Y-36179981D01*
X72969904Y-36206108D01*
X72965421Y-36232239D01*
X72965455Y-36233536D01*
X72965248Y-36234814D01*
X72966188Y-36261240D01*
X72966889Y-36287767D01*
X72967176Y-36289034D01*
X72967222Y-36290326D01*
X72973302Y-36316076D01*
X72979163Y-36341944D01*
X72979690Y-36343128D01*
X72979988Y-36344388D01*
X72990988Y-36368487D01*
X72996106Y-36379974D01*
X72996742Y-36381092D01*
X73003055Y-36394922D01*
X73010439Y-36405165D01*
X73013882Y-36411215D01*
X73020492Y-36422832D01*
X73020497Y-36422839D01*
X73038865Y-36455120D01*
X73038866Y-36455122D01*
X73060243Y-36492691D01*
X73060244Y-36492693D01*
X73070936Y-36511484D01*
X73070938Y-36511488D01*
X73073938Y-36516759D01*
X73084630Y-36535550D01*
X73084636Y-36535558D01*
X73087763Y-36541053D01*
X73092310Y-36549044D01*
X73092312Y-36549049D01*
X73113689Y-36586618D01*
X73113690Y-36586620D01*
X73135070Y-36624194D01*
X73135073Y-36624201D01*
X73140739Y-36634157D01*
X73148762Y-36648257D01*
X73148767Y-36648264D01*
X73167135Y-36680545D01*
X73167136Y-36680547D01*
X73188513Y-36718116D01*
X73188514Y-36718118D01*
X73199206Y-36736909D01*
X73199208Y-36736913D01*
X73202208Y-36742184D01*
X73212900Y-36760975D01*
X73212906Y-36760983D01*
X73216480Y-36767263D01*
X73220580Y-36774469D01*
X73220582Y-36774474D01*
X73241959Y-36812043D01*
X73241960Y-36812045D01*
X73263340Y-36849619D01*
X73263343Y-36849626D01*
X73269964Y-36861260D01*
X73277032Y-36873682D01*
X73277037Y-36873689D01*
X73295405Y-36905970D01*
X73295406Y-36905972D01*
X73316783Y-36943541D01*
X73316784Y-36943543D01*
X73327476Y-36962334D01*
X73327478Y-36962338D01*
X73331569Y-36969526D01*
X73339628Y-36983690D01*
X73346805Y-36998934D01*
X73361573Y-37018920D01*
X73375907Y-37039188D01*
X73378056Y-37041227D01*
X73379817Y-37043609D01*
X73398181Y-37060312D01*
X73416212Y-37077412D01*
X73418721Y-37078994D01*
X73420911Y-37080986D01*
X73442160Y-37093773D01*
X73463200Y-37107040D01*
X73465972Y-37108103D01*
X73468506Y-37109628D01*
X73491829Y-37118020D01*
X73515066Y-37126931D01*
X73517993Y-37127433D01*
X73520775Y-37128434D01*
X73545300Y-37132116D01*
X73569816Y-37136321D01*
X73572780Y-37136242D01*
X73575708Y-37136682D01*
X73600487Y-37135508D01*
X73625344Y-37134849D01*
X73628239Y-37134193D01*
X73631194Y-37134053D01*
X73655276Y-37128066D01*
X73679520Y-37122572D01*
X73682227Y-37121366D01*
X73685102Y-37120651D01*
X73707560Y-37110077D01*
X73730260Y-37099962D01*
X73744022Y-37090230D01*
X73747602Y-37088092D01*
X73758960Y-37081312D01*
X73758967Y-37081307D01*
X73771376Y-37073898D01*
X73771380Y-37073895D01*
X73771901Y-37073584D01*
X73784826Y-37065868D01*
X73784829Y-37065867D01*
X73788046Y-37063946D01*
X73796186Y-37059087D01*
X73796188Y-37059085D01*
X73808595Y-37051679D01*
X73808607Y-37051670D01*
X73809138Y-37051353D01*
X73822053Y-37043643D01*
X73822056Y-37043642D01*
X73826610Y-37040923D01*
X73833413Y-37036862D01*
X73833415Y-37036860D01*
X73845822Y-37029454D01*
X73845834Y-37029445D01*
X73846365Y-37029128D01*
X73859280Y-37021418D01*
X73859283Y-37021417D01*
X73862500Y-37019496D01*
X73870640Y-37014637D01*
X73870642Y-37014635D01*
X73883049Y-37007229D01*
X73883061Y-37007220D01*
X73886190Y-37005352D01*
X73889474Y-37011034D01*
X73889475Y-37011035D01*
X74052437Y-37292933D01*
X74196174Y-37541576D01*
X74196175Y-37541578D01*
X74349524Y-37806848D01*
X74349525Y-37806849D01*
X74502872Y-38072114D01*
X74502874Y-38072119D01*
X74668162Y-38358041D01*
X74708079Y-38427092D01*
X74686074Y-38443280D01*
X74681130Y-38447722D01*
X74675563Y-38451346D01*
X74672018Y-38454223D01*
X74625055Y-38492883D01*
X74622931Y-38495012D01*
X74620473Y-38496727D01*
X74617022Y-38499717D01*
X74578759Y-38533344D01*
X74578717Y-38533380D01*
X74540416Y-38567041D01*
X74528082Y-38580226D01*
X74514676Y-38592312D01*
X74511623Y-38595707D01*
X74453396Y-38661368D01*
X74407709Y-38708591D01*
X74396253Y-38723016D01*
X74383646Y-38736441D01*
X74380885Y-38740078D01*
X74337669Y-38797843D01*
X74306816Y-38837052D01*
X74300710Y-38846601D01*
X74293452Y-38855301D01*
X74290910Y-38859094D01*
X74266268Y-38896415D01*
X74266265Y-38896420D01*
X74229310Y-38952390D01*
X74224504Y-38961491D01*
X74218536Y-38969878D01*
X74216292Y-38973855D01*
X74187991Y-39024836D01*
X74159706Y-39075789D01*
X74159692Y-39075813D01*
X74131390Y-39126794D01*
X74125586Y-39140182D01*
X74118399Y-39152870D01*
X74116575Y-39157056D01*
X74096935Y-39203036D01*
X74096081Y-39205739D01*
X74094759Y-39208253D01*
X74093068Y-39212494D01*
X74071628Y-39267372D01*
X74053992Y-39308660D01*
X74052151Y-39314488D01*
X74049414Y-39319955D01*
X74047808Y-39324229D01*
X74020846Y-39397531D01*
X74017682Y-39409684D01*
X74013098Y-39421380D01*
X74011886Y-39425782D01*
X73989935Y-39507707D01*
X73989925Y-39507742D01*
X73971634Y-39576007D01*
X73971624Y-39576042D01*
X73956983Y-39630683D01*
X73953175Y-39653684D01*
X73948160Y-39676443D01*
X73947649Y-39680981D01*
X73933367Y-39816244D01*
X73933366Y-39816319D01*
X73933085Y-39819021D01*
X73924783Y-39904644D01*
X73924786Y-39907649D01*
X73924261Y-39910601D01*
X73923935Y-39915156D01*
X73919294Y-39987117D01*
X73919659Y-39998077D01*
X73918617Y-40008993D01*
X73918661Y-40013559D01*
X73920360Y-40116502D01*
X73920911Y-40121307D01*
X73920661Y-40126139D01*
X73920903Y-40130699D01*
X73927602Y-40242301D01*
X73930341Y-40259525D01*
X73931542Y-40276938D01*
X73932331Y-40281436D01*
X73959030Y-40427680D01*
X73959360Y-40428835D01*
X73959468Y-40430029D01*
X73960352Y-40434508D01*
X73979371Y-40527450D01*
X73984700Y-40544703D01*
X73988543Y-40562343D01*
X73989975Y-40566679D01*
X74022641Y-40663241D01*
X74022656Y-40663286D01*
X74055336Y-40759888D01*
X74058136Y-40766092D01*
X74059952Y-40772654D01*
X74061623Y-40776903D01*
X74086550Y-40839008D01*
X74106554Y-40892403D01*
X74117437Y-40914581D01*
X74127324Y-40937211D01*
X74129579Y-40941181D01*
X74189579Y-41045105D01*
X74189580Y-41045106D01*
X74229580Y-41114388D01*
X74238789Y-41127251D01*
X74246687Y-41140964D01*
X74249367Y-41144661D01*
X74303027Y-41217603D01*
X74303029Y-41217605D01*
X74356690Y-41290547D01*
X74361129Y-41295488D01*
X74364754Y-41301056D01*
X74367631Y-41304602D01*
X74406291Y-41351564D01*
X74408420Y-41353688D01*
X74410135Y-41356146D01*
X74413125Y-41359597D01*
X74480445Y-41436199D01*
X74493630Y-41448533D01*
X74505722Y-41461946D01*
X74509117Y-41464999D01*
X74574782Y-41523227D01*
X74621997Y-41568908D01*
X74636421Y-41580363D01*
X74649849Y-41592973D01*
X74653486Y-41595734D01*
X74711251Y-41638950D01*
X74750460Y-41669803D01*
X74760009Y-41675909D01*
X74768709Y-41683167D01*
X74772502Y-41685710D01*
X74809823Y-41710351D01*
X74809828Y-41710354D01*
X74865798Y-41747309D01*
X74874902Y-41752117D01*
X74883287Y-41758083D01*
X74887263Y-41760327D01*
X74938244Y-41788628D01*
X74989197Y-41816913D01*
X74989221Y-41816927D01*
X75040202Y-41845229D01*
X75053589Y-41851032D01*
X75066278Y-41858220D01*
X75070464Y-41860043D01*
X75116444Y-41879684D01*
X75119147Y-41880538D01*
X75121661Y-41881860D01*
X75125902Y-41883551D01*
X75180794Y-41904997D01*
X75222068Y-41922627D01*
X75227896Y-41924468D01*
X75233365Y-41927206D01*
X75237639Y-41928812D01*
X75310940Y-41955773D01*
X75323093Y-41958937D01*
X75334784Y-41963519D01*
X75339186Y-41964731D01*
X75421089Y-41986677D01*
X75421150Y-41986694D01*
X75489415Y-42004985D01*
X75489450Y-42004995D01*
X75544092Y-42019636D01*
X75567092Y-42023444D01*
X75589852Y-42028459D01*
X75594389Y-42028970D01*
X75729652Y-42043252D01*
X75729727Y-42043253D01*
X75732430Y-42043534D01*
X75818052Y-42051836D01*
X75821058Y-42051833D01*
X75824010Y-42052358D01*
X75828564Y-42052684D01*
X75900526Y-42057325D01*
X75911485Y-42056960D01*
X75922401Y-42058002D01*
X75926967Y-42057958D01*
X76029910Y-42056259D01*
X76034715Y-42055708D01*
X76039547Y-42055958D01*
X76044107Y-42055716D01*
X76155709Y-42049017D01*
X76172933Y-42046278D01*
X76190346Y-42045077D01*
X76194844Y-42044288D01*
X76341088Y-42017589D01*
X76342243Y-42017259D01*
X76343437Y-42017151D01*
X76347916Y-42016267D01*
X76440858Y-41997248D01*
X76458111Y-41991919D01*
X76475751Y-41988076D01*
X76480087Y-41986644D01*
X76576649Y-41953978D01*
X76576694Y-41953963D01*
X76673296Y-41921283D01*
X76679504Y-41918481D01*
X76686066Y-41916665D01*
X76690315Y-41914994D01*
X76717960Y-41903898D01*
X76803121Y-42051214D01*
X76803122Y-42051215D01*
X76966260Y-42333417D01*
X77109821Y-42581756D01*
X77109822Y-42581758D01*
X77263166Y-42847018D01*
X77430376Y-43136294D01*
X77430381Y-43136302D01*
X77569869Y-43377592D01*
X77569871Y-43377597D01*
X77723220Y-43642867D01*
X77723221Y-43642869D01*
X77890432Y-43932117D01*
X78029920Y-44173410D01*
X78029921Y-44173412D01*
X78183270Y-44438682D01*
X78183271Y-44438683D01*
X78336620Y-44703953D01*
X78336621Y-44703954D01*
X78405643Y-44823351D01*
X69082058Y-44823351D01*
X69055345Y-44689057D01*
X68967751Y-44477587D01*
X68840584Y-44287268D01*
X68678732Y-44125416D01*
X68488413Y-43998249D01*
X68276943Y-43910655D01*
X68052447Y-43866000D01*
X67823553Y-43866000D01*
X67599057Y-43910655D01*
X67387587Y-43998249D01*
X67197268Y-44125416D01*
X67035416Y-44287268D01*
X66908249Y-44477587D01*
X66820655Y-44689057D01*
X66793942Y-44823351D01*
X66542058Y-44823351D01*
X66515345Y-44689057D01*
X66427751Y-44477587D01*
X66300584Y-44287268D01*
X66138732Y-44125416D01*
X65948413Y-43998249D01*
X65736943Y-43910655D01*
X65512447Y-43866000D01*
X65283553Y-43866000D01*
X65059057Y-43910655D01*
X64847587Y-43998249D01*
X64657268Y-44125416D01*
X64495416Y-44287268D01*
X64368249Y-44477587D01*
X64280655Y-44689057D01*
X64253942Y-44823351D01*
X62718513Y-44823351D01*
X62723168Y-44815293D01*
X62965285Y-44396201D01*
X62965288Y-44396195D01*
X63207409Y-43977067D01*
X63449530Y-43557941D01*
X63449531Y-43557938D01*
X63691646Y-43138848D01*
X63691649Y-43138842D01*
X63933770Y-42719714D01*
X64175891Y-42300588D01*
X64175892Y-42300585D01*
X64324287Y-42043720D01*
X64280655Y-42149057D01*
X64236000Y-42373553D01*
X64236000Y-42602447D01*
X64280655Y-42826943D01*
X64368249Y-43038413D01*
X64495416Y-43228732D01*
X64657268Y-43390584D01*
X64847587Y-43517751D01*
X65059057Y-43605345D01*
X65283553Y-43650000D01*
X65512447Y-43650000D01*
X65736943Y-43605345D01*
X65948413Y-43517751D01*
X66138732Y-43390584D01*
X66300584Y-43228732D01*
X66427751Y-43038413D01*
X66515345Y-42826943D01*
X66560000Y-42602447D01*
X66560000Y-42373553D01*
X66515345Y-42149057D01*
X66427751Y-41937587D01*
X66300584Y-41747268D01*
X66138732Y-41585416D01*
X65948413Y-41458249D01*
X65850000Y-41417485D01*
X65850000Y-40634057D01*
X65907550Y-40525123D01*
X66714322Y-39069530D01*
X66713817Y-39071195D01*
X66712152Y-39088099D01*
X66708603Y-39104705D01*
X66708281Y-39127403D01*
X66708000Y-39130254D01*
X66708000Y-39147182D01*
X66707479Y-39183883D01*
X66708000Y-39186712D01*
X66708001Y-41700251D01*
X66706056Y-41720000D01*
X66713817Y-41798805D01*
X66732393Y-41860043D01*
X66736804Y-41874583D01*
X66774133Y-41944420D01*
X66794290Y-41968981D01*
X66808827Y-41986694D01*
X66824369Y-42005632D01*
X66839705Y-42018218D01*
X66864557Y-42043070D01*
X66820655Y-42149057D01*
X66776000Y-42373553D01*
X66776000Y-42602447D01*
X66820655Y-42826943D01*
X66908249Y-43038413D01*
X67035416Y-43228732D01*
X67197268Y-43390584D01*
X67387587Y-43517751D01*
X67599057Y-43605345D01*
X67823553Y-43650000D01*
X68052447Y-43650000D01*
X68276943Y-43605345D01*
X68488413Y-43517751D01*
X68678732Y-43390584D01*
X68840584Y-43228732D01*
X68967751Y-43038413D01*
X69055345Y-42826943D01*
X69100000Y-42602447D01*
X69100000Y-42373553D01*
X69055345Y-42149057D01*
X68967751Y-41937587D01*
X68840584Y-41747268D01*
X68678732Y-41585416D01*
X68488413Y-41458249D01*
X68276943Y-41370655D01*
X68052447Y-41326000D01*
X67823553Y-41326000D01*
X67599057Y-41370655D01*
X67512000Y-41406715D01*
X67512000Y-39253732D01*
X68787396Y-36947000D01*
X68801605Y-36947000D01*
X68942060Y-36919062D01*
X69074366Y-36864259D01*
X69193438Y-36784698D01*
X69294700Y-36683436D01*
X69374261Y-36564364D01*
X69429064Y-36432058D01*
X69457002Y-36291603D01*
X69457002Y-36148397D01*
X69429064Y-36007942D01*
X69374261Y-35875636D01*
X69294700Y-35756564D01*
X69193438Y-35655302D01*
X69074366Y-35575741D01*
X68942060Y-35520938D01*
X68801605Y-35493000D01*
X68696636Y-35493000D01*
X70313532Y-32575765D01*
X70415031Y-32400068D01*
X70415036Y-32400061D01*
X70609832Y-32062857D01*
X70646441Y-32000903D01*
X70682697Y-31942129D01*
X70719988Y-31884237D01*
X70758368Y-31827238D01*
X70797793Y-31771276D01*
X70838181Y-31716537D01*
X70879651Y-31662946D01*
X70921969Y-31610832D01*
X70965179Y-31560246D01*
X71009300Y-31511188D01*
X71054232Y-31463829D01*
X71099910Y-31418285D01*
X71146363Y-31374556D01*
X71193442Y-31332821D01*
X71241163Y-31293121D01*
X71289623Y-31255373D01*
X71338740Y-31219684D01*
X71388311Y-31186207D01*
X71438585Y-31154840D01*
X71489550Y-31125573D01*
X71541104Y-31098519D01*
X71593364Y-31073634D01*
X71646292Y-31050990D01*
X71700349Y-31030432D01*
X71744600Y-31015657D01*
X71943771Y-30968913D01*
X72095181Y-30952479D01*
X72229778Y-30952064D01*
X72435551Y-30971155D01*
X72435551Y-30971155D01*
G37*
X72435551Y-30971155D02*
X72491669Y-30982244D01*
X72549553Y-30996201D01*
X72605378Y-31012201D01*
X72660108Y-31030452D01*
X72713985Y-31050937D01*
X72766930Y-31073586D01*
X72819165Y-31098444D01*
X72870646Y-31125445D01*
X72921456Y-31154611D01*
X72971589Y-31185900D01*
X73021160Y-31219369D01*
X73070190Y-31254991D01*
X73118474Y-31292600D01*
X73166256Y-31332372D01*
X73213323Y-31374079D01*
X73259671Y-31417694D01*
X73305250Y-31463143D01*
X73350084Y-31510406D01*
X73394165Y-31559423D01*
X73437294Y-31609917D01*
X73479663Y-31662097D01*
X73521030Y-31715554D01*
X73561405Y-31770274D01*
X73600831Y-31826230D01*
X73639184Y-31883174D01*
X73673221Y-31935998D01*
X74560902Y-33465020D01*
X74534812Y-33584292D01*
X74529803Y-33598141D01*
X74525314Y-33627711D01*
X74523697Y-33635102D01*
X74521989Y-33649612D01*
X74516439Y-33686168D01*
X74516788Y-33693793D01*
X74515896Y-33701367D01*
X74518817Y-33738191D01*
X74520505Y-33775111D01*
X74522334Y-33782518D01*
X74522937Y-33790124D01*
X74532993Y-33825695D01*
X74541845Y-33861552D01*
X74545081Y-33868454D01*
X74545541Y-33870083D01*
X74531458Y-33907701D01*
X74511553Y-34029593D01*
X74515809Y-34153028D01*
X74544065Y-34273260D01*
X74582414Y-34357508D01*
X74926428Y-34950962D01*
X74858287Y-34990559D01*
X74858283Y-34990562D01*
X74794009Y-35027912D01*
X74793986Y-35027922D01*
X74784201Y-35033611D01*
X74770093Y-35041809D01*
X74770064Y-35041830D01*
X74691892Y-35087278D01*
X74617654Y-35130418D01*
X74508389Y-35193911D01*
X74441233Y-35232935D01*
X74441203Y-35232949D01*
X74429475Y-35239768D01*
X74417315Y-35246834D01*
X74417288Y-35246854D01*
X74341408Y-35290971D01*
X74264872Y-35335445D01*
X74264870Y-35335446D01*
X74261435Y-35337442D01*
X74243807Y-35347686D01*
X74152730Y-35400611D01*
X74108520Y-35426301D01*
X73763979Y-34831938D01*
X73709931Y-34756791D01*
X73619640Y-34672519D01*
X73514642Y-34607481D01*
X73398974Y-34564177D01*
X73277082Y-34544272D01*
X73153647Y-34548528D01*
X73033415Y-34576784D01*
X72921005Y-34627953D01*
X72820738Y-34700068D01*
X72736466Y-34790359D01*
X72671428Y-34895357D01*
X72628124Y-35011025D01*
X72608219Y-35132917D01*
X72612475Y-35256352D01*
X72640731Y-35376584D01*
X72679080Y-35460832D01*
X73032328Y-36070216D01*
X73024339Y-36078639D01*
X73023648Y-36079735D01*
X73022764Y-36080684D01*
X73008853Y-36103195D01*
X72994708Y-36125625D01*
X72994243Y-36126838D01*
X72993563Y-36127938D01*
X72984313Y-36152725D01*
X72974814Y-36177490D01*
X72974595Y-36178768D01*
X72974142Y-36179981D01*
X72969904Y-36206108D01*
X72965421Y-36232239D01*
X72965455Y-36233536D01*
X72965248Y-36234814D01*
X72966188Y-36261240D01*
X72966889Y-36287767D01*
X72967176Y-36289034D01*
X72967222Y-36290326D01*
X72973302Y-36316076D01*
X72979163Y-36341944D01*
X72979690Y-36343128D01*
X72979988Y-36344388D01*
X72990988Y-36368487D01*
X72996106Y-36379974D01*
X72996742Y-36381092D01*
X73003055Y-36394922D01*
X73010439Y-36405165D01*
X73013882Y-36411215D01*
X73020492Y-36422832D01*
X73020497Y-36422839D01*
X73038865Y-36455120D01*
X73038866Y-36455122D01*
X73060243Y-36492691D01*
X73060244Y-36492693D01*
X73070936Y-36511484D01*
X73070938Y-36511488D01*
X73073938Y-36516759D01*
X73084630Y-36535550D01*
X73084636Y-36535558D01*
X73087763Y-36541053D01*
X73092310Y-36549044D01*
X73092312Y-36549049D01*
X73113689Y-36586618D01*
X73113690Y-36586620D01*
X73135070Y-36624194D01*
X73135073Y-36624201D01*
X73140739Y-36634157D01*
X73148762Y-36648257D01*
X73148767Y-36648264D01*
X73167135Y-36680545D01*
X73167136Y-36680547D01*
X73188513Y-36718116D01*
X73188514Y-36718118D01*
X73199206Y-36736909D01*
X73199208Y-36736913D01*
X73202208Y-36742184D01*
X73212900Y-36760975D01*
X73212906Y-36760983D01*
X73216480Y-36767263D01*
X73220580Y-36774469D01*
X73220582Y-36774474D01*
X73241959Y-36812043D01*
X73241960Y-36812045D01*
X73263340Y-36849619D01*
X73263343Y-36849626D01*
X73269964Y-36861260D01*
X73277032Y-36873682D01*
X73277037Y-36873689D01*
X73295405Y-36905970D01*
X73295406Y-36905972D01*
X73316783Y-36943541D01*
X73316784Y-36943543D01*
X73327476Y-36962334D01*
X73327478Y-36962338D01*
X73331569Y-36969526D01*
X73339628Y-36983690D01*
X73346805Y-36998934D01*
X73361573Y-37018920D01*
X73375907Y-37039188D01*
X73378056Y-37041227D01*
X73379817Y-37043609D01*
X73398181Y-37060312D01*
X73416212Y-37077412D01*
X73418721Y-37078994D01*
X73420911Y-37080986D01*
X73442160Y-37093773D01*
X73463200Y-37107040D01*
X73465972Y-37108103D01*
X73468506Y-37109628D01*
X73491829Y-37118020D01*
X73515066Y-37126931D01*
X73517993Y-37127433D01*
X73520775Y-37128434D01*
X73545300Y-37132116D01*
X73569816Y-37136321D01*
X73572780Y-37136242D01*
X73575708Y-37136682D01*
X73600487Y-37135508D01*
X73625344Y-37134849D01*
X73628239Y-37134193D01*
X73631194Y-37134053D01*
X73655276Y-37128066D01*
X73679520Y-37122572D01*
X73682227Y-37121366D01*
X73685102Y-37120651D01*
X73707560Y-37110077D01*
X73730260Y-37099962D01*
X73744022Y-37090230D01*
X73747602Y-37088092D01*
X73758960Y-37081312D01*
X73758967Y-37081307D01*
X73771376Y-37073898D01*
X73771380Y-37073895D01*
X73771901Y-37073584D01*
X73784826Y-37065868D01*
X73784829Y-37065867D01*
X73788046Y-37063946D01*
X73796186Y-37059087D01*
X73796188Y-37059085D01*
X73808595Y-37051679D01*
X73808607Y-37051670D01*
X73809138Y-37051353D01*
X73822053Y-37043643D01*
X73822056Y-37043642D01*
X73826610Y-37040923D01*
X73833413Y-37036862D01*
X73833415Y-37036860D01*
X73845822Y-37029454D01*
X73845834Y-37029445D01*
X73846365Y-37029128D01*
X73859280Y-37021418D01*
X73859283Y-37021417D01*
X73862500Y-37019496D01*
X73870640Y-37014637D01*
X73870642Y-37014635D01*
X73883049Y-37007229D01*
X73883061Y-37007220D01*
X73886190Y-37005352D01*
X73889474Y-37011034D01*
X73889475Y-37011035D01*
X74052437Y-37292933D01*
X74196174Y-37541576D01*
X74196175Y-37541578D01*
X74349524Y-37806848D01*
X74349525Y-37806849D01*
X74502872Y-38072114D01*
X74502874Y-38072119D01*
X74668162Y-38358041D01*
X74708079Y-38427092D01*
X74686074Y-38443280D01*
X74681130Y-38447722D01*
X74675563Y-38451346D01*
X74672018Y-38454223D01*
X74625055Y-38492883D01*
X74622931Y-38495012D01*
X74620473Y-38496727D01*
X74617022Y-38499717D01*
X74578759Y-38533344D01*
X74578717Y-38533380D01*
X74540416Y-38567041D01*
X74528082Y-38580226D01*
X74514676Y-38592312D01*
X74511623Y-38595707D01*
X74453396Y-38661368D01*
X74407709Y-38708591D01*
X74396253Y-38723016D01*
X74383646Y-38736441D01*
X74380885Y-38740078D01*
X74337669Y-38797843D01*
X74306816Y-38837052D01*
X74300710Y-38846601D01*
X74293452Y-38855301D01*
X74290910Y-38859094D01*
X74266268Y-38896415D01*
X74266265Y-38896420D01*
X74229310Y-38952390D01*
X74224504Y-38961491D01*
X74218536Y-38969878D01*
X74216292Y-38973855D01*
X74187991Y-39024836D01*
X74159706Y-39075789D01*
X74159692Y-39075813D01*
X74131390Y-39126794D01*
X74125586Y-39140182D01*
X74118399Y-39152870D01*
X74116575Y-39157056D01*
X74096935Y-39203036D01*
X74096081Y-39205739D01*
X74094759Y-39208253D01*
X74093068Y-39212494D01*
X74071628Y-39267372D01*
X74053992Y-39308660D01*
X74052151Y-39314488D01*
X74049414Y-39319955D01*
X74047808Y-39324229D01*
X74020846Y-39397531D01*
X74017682Y-39409684D01*
X74013098Y-39421380D01*
X74011886Y-39425782D01*
X73989935Y-39507707D01*
X73989925Y-39507742D01*
X73971634Y-39576007D01*
X73971624Y-39576042D01*
X73956983Y-39630683D01*
X73953175Y-39653684D01*
X73948160Y-39676443D01*
X73947649Y-39680981D01*
X73933367Y-39816244D01*
X73933366Y-39816319D01*
X73933085Y-39819021D01*
X73924783Y-39904644D01*
X73924786Y-39907649D01*
X73924261Y-39910601D01*
X73923935Y-39915156D01*
X73919294Y-39987117D01*
X73919659Y-39998077D01*
X73918617Y-40008993D01*
X73918661Y-40013559D01*
X73920360Y-40116502D01*
X73920911Y-40121307D01*
X73920661Y-40126139D01*
X73920903Y-40130699D01*
X73927602Y-40242301D01*
X73930341Y-40259525D01*
X73931542Y-40276938D01*
X73932331Y-40281436D01*
X73959030Y-40427680D01*
X73959360Y-40428835D01*
X73959468Y-40430029D01*
X73960352Y-40434508D01*
X73979371Y-40527450D01*
X73984700Y-40544703D01*
X73988543Y-40562343D01*
X73989975Y-40566679D01*
X74022641Y-40663241D01*
X74022656Y-40663286D01*
X74055336Y-40759888D01*
X74058136Y-40766092D01*
X74059952Y-40772654D01*
X74061623Y-40776903D01*
X74086550Y-40839008D01*
X74106554Y-40892403D01*
X74117437Y-40914581D01*
X74127324Y-40937211D01*
X74129579Y-40941181D01*
X74189579Y-41045105D01*
X74189580Y-41045106D01*
X74229580Y-41114388D01*
X74238789Y-41127251D01*
X74246687Y-41140964D01*
X74249367Y-41144661D01*
X74303027Y-41217603D01*
X74303029Y-41217605D01*
X74356690Y-41290547D01*
X74361129Y-41295488D01*
X74364754Y-41301056D01*
X74367631Y-41304602D01*
X74406291Y-41351564D01*
X74408420Y-41353688D01*
X74410135Y-41356146D01*
X74413125Y-41359597D01*
X74480445Y-41436199D01*
X74493630Y-41448533D01*
X74505722Y-41461946D01*
X74509117Y-41464999D01*
X74574782Y-41523227D01*
X74621997Y-41568908D01*
X74636421Y-41580363D01*
X74649849Y-41592973D01*
X74653486Y-41595734D01*
X74711251Y-41638950D01*
X74750460Y-41669803D01*
X74760009Y-41675909D01*
X74768709Y-41683167D01*
X74772502Y-41685710D01*
X74809823Y-41710351D01*
X74809828Y-41710354D01*
X74865798Y-41747309D01*
X74874902Y-41752117D01*
X74883287Y-41758083D01*
X74887263Y-41760327D01*
X74938244Y-41788628D01*
X74989197Y-41816913D01*
X74989221Y-41816927D01*
X75040202Y-41845229D01*
X75053589Y-41851032D01*
X75066278Y-41858220D01*
X75070464Y-41860043D01*
X75116444Y-41879684D01*
X75119147Y-41880538D01*
X75121661Y-41881860D01*
X75125902Y-41883551D01*
X75180794Y-41904997D01*
X75222068Y-41922627D01*
X75227896Y-41924468D01*
X75233365Y-41927206D01*
X75237639Y-41928812D01*
X75310940Y-41955773D01*
X75323093Y-41958937D01*
X75334784Y-41963519D01*
X75339186Y-41964731D01*
X75421089Y-41986677D01*
X75421150Y-41986694D01*
X75489415Y-42004985D01*
X75489450Y-42004995D01*
X75544092Y-42019636D01*
X75567092Y-42023444D01*
X75589852Y-42028459D01*
X75594389Y-42028970D01*
X75729652Y-42043252D01*
X75729727Y-42043253D01*
X75732430Y-42043534D01*
X75818052Y-42051836D01*
X75821058Y-42051833D01*
X75824010Y-42052358D01*
X75828564Y-42052684D01*
X75900526Y-42057325D01*
X75911485Y-42056960D01*
X75922401Y-42058002D01*
X75926967Y-42057958D01*
X76029910Y-42056259D01*
X76034715Y-42055708D01*
X76039547Y-42055958D01*
X76044107Y-42055716D01*
X76155709Y-42049017D01*
X76172933Y-42046278D01*
X76190346Y-42045077D01*
X76194844Y-42044288D01*
X76341088Y-42017589D01*
X76342243Y-42017259D01*
X76343437Y-42017151D01*
X76347916Y-42016267D01*
X76440858Y-41997248D01*
X76458111Y-41991919D01*
X76475751Y-41988076D01*
X76480087Y-41986644D01*
X76576649Y-41953978D01*
X76576694Y-41953963D01*
X76673296Y-41921283D01*
X76679504Y-41918481D01*
X76686066Y-41916665D01*
X76690315Y-41914994D01*
X76717960Y-41903898D01*
X76803121Y-42051214D01*
X76803122Y-42051215D01*
X76966260Y-42333417D01*
X77109821Y-42581756D01*
X77109822Y-42581758D01*
X77263166Y-42847018D01*
X77430376Y-43136294D01*
X77430381Y-43136302D01*
X77569869Y-43377592D01*
X77569871Y-43377597D01*
X77723220Y-43642867D01*
X77723221Y-43642869D01*
X77890432Y-43932117D01*
X78029920Y-44173410D01*
X78029921Y-44173412D01*
X78183270Y-44438682D01*
X78183271Y-44438683D01*
X78336620Y-44703953D01*
X78336621Y-44703954D01*
X78405643Y-44823351D01*
X69082058Y-44823351D01*
X69055345Y-44689057D01*
X68967751Y-44477587D01*
X68840584Y-44287268D01*
X68678732Y-44125416D01*
X68488413Y-43998249D01*
X68276943Y-43910655D01*
X68052447Y-43866000D01*
X67823553Y-43866000D01*
X67599057Y-43910655D01*
X67387587Y-43998249D01*
X67197268Y-44125416D01*
X67035416Y-44287268D01*
X66908249Y-44477587D01*
X66820655Y-44689057D01*
X66793942Y-44823351D01*
X66542058Y-44823351D01*
X66515345Y-44689057D01*
X66427751Y-44477587D01*
X66300584Y-44287268D01*
X66138732Y-44125416D01*
X65948413Y-43998249D01*
X65736943Y-43910655D01*
X65512447Y-43866000D01*
X65283553Y-43866000D01*
X65059057Y-43910655D01*
X64847587Y-43998249D01*
X64657268Y-44125416D01*
X64495416Y-44287268D01*
X64368249Y-44477587D01*
X64280655Y-44689057D01*
X64253942Y-44823351D01*
X62718513Y-44823351D01*
X62723168Y-44815293D01*
X62965285Y-44396201D01*
X62965288Y-44396195D01*
X63207409Y-43977067D01*
X63449530Y-43557941D01*
X63449531Y-43557938D01*
X63691646Y-43138848D01*
X63691649Y-43138842D01*
X63933770Y-42719714D01*
X64175891Y-42300588D01*
X64175892Y-42300585D01*
X64324287Y-42043720D01*
X64280655Y-42149057D01*
X64236000Y-42373553D01*
X64236000Y-42602447D01*
X64280655Y-42826943D01*
X64368249Y-43038413D01*
X64495416Y-43228732D01*
X64657268Y-43390584D01*
X64847587Y-43517751D01*
X65059057Y-43605345D01*
X65283553Y-43650000D01*
X65512447Y-43650000D01*
X65736943Y-43605345D01*
X65948413Y-43517751D01*
X66138732Y-43390584D01*
X66300584Y-43228732D01*
X66427751Y-43038413D01*
X66515345Y-42826943D01*
X66560000Y-42602447D01*
X66560000Y-42373553D01*
X66515345Y-42149057D01*
X66427751Y-41937587D01*
X66300584Y-41747268D01*
X66138732Y-41585416D01*
X65948413Y-41458249D01*
X65850000Y-41417485D01*
X65850000Y-40634057D01*
X65907550Y-40525123D01*
X66714322Y-39069530D01*
X66713817Y-39071195D01*
X66712152Y-39088099D01*
X66708603Y-39104705D01*
X66708281Y-39127403D01*
X66708000Y-39130254D01*
X66708000Y-39147182D01*
X66707479Y-39183883D01*
X66708000Y-39186712D01*
X66708001Y-41700251D01*
X66706056Y-41720000D01*
X66713817Y-41798805D01*
X66732393Y-41860043D01*
X66736804Y-41874583D01*
X66774133Y-41944420D01*
X66794290Y-41968981D01*
X66808827Y-41986694D01*
X66824369Y-42005632D01*
X66839705Y-42018218D01*
X66864557Y-42043070D01*
X66820655Y-42149057D01*
X66776000Y-42373553D01*
X66776000Y-42602447D01*
X66820655Y-42826943D01*
X66908249Y-43038413D01*
X67035416Y-43228732D01*
X67197268Y-43390584D01*
X67387587Y-43517751D01*
X67599057Y-43605345D01*
X67823553Y-43650000D01*
X68052447Y-43650000D01*
X68276943Y-43605345D01*
X68488413Y-43517751D01*
X68678732Y-43390584D01*
X68840584Y-43228732D01*
X68967751Y-43038413D01*
X69055345Y-42826943D01*
X69100000Y-42602447D01*
X69100000Y-42373553D01*
X69055345Y-42149057D01*
X68967751Y-41937587D01*
X68840584Y-41747268D01*
X68678732Y-41585416D01*
X68488413Y-41458249D01*
X68276943Y-41370655D01*
X68052447Y-41326000D01*
X67823553Y-41326000D01*
X67599057Y-41370655D01*
X67512000Y-41406715D01*
X67512000Y-39253732D01*
X68787396Y-36947000D01*
X68801605Y-36947000D01*
X68942060Y-36919062D01*
X69074366Y-36864259D01*
X69193438Y-36784698D01*
X69294700Y-36683436D01*
X69374261Y-36564364D01*
X69429064Y-36432058D01*
X69457002Y-36291603D01*
X69457002Y-36148397D01*
X69429064Y-36007942D01*
X69374261Y-35875636D01*
X69294700Y-35756564D01*
X69193438Y-35655302D01*
X69074366Y-35575741D01*
X68942060Y-35520938D01*
X68801605Y-35493000D01*
X68696636Y-35493000D01*
X70313532Y-32575765D01*
X70415031Y-32400068D01*
X70415036Y-32400061D01*
X70609832Y-32062857D01*
X70646441Y-32000903D01*
X70682697Y-31942129D01*
X70719988Y-31884237D01*
X70758368Y-31827238D01*
X70797793Y-31771276D01*
X70838181Y-31716537D01*
X70879651Y-31662946D01*
X70921969Y-31610832D01*
X70965179Y-31560246D01*
X71009300Y-31511188D01*
X71054232Y-31463829D01*
X71099910Y-31418285D01*
X71146363Y-31374556D01*
X71193442Y-31332821D01*
X71241163Y-31293121D01*
X71289623Y-31255373D01*
X71338740Y-31219684D01*
X71388311Y-31186207D01*
X71438585Y-31154840D01*
X71489550Y-31125573D01*
X71541104Y-31098519D01*
X71593364Y-31073634D01*
X71646292Y-31050990D01*
X71700349Y-31030432D01*
X71744600Y-31015657D01*
X71943771Y-30968913D01*
X72095181Y-30952479D01*
X72229778Y-30952064D01*
X72435551Y-30971155D01*
G04 #@! TD*
M02*
