G04 #@! TF.GenerationSoftware,KiCad,Pcbnew,5.0.0-fee4fd1~66~ubuntu18.04.1*
G04 #@! TF.CreationDate,2018-09-21T10:19:18+02:00*
G04 #@! TF.ProjectId,Lulu_star_212,4C756C755F737461725F3231322E6B69,2.1.2*
G04 #@! TF.SameCoordinates,Original*
G04 #@! TF.FileFunction,Soldermask,Top*
G04 #@! TF.FilePolarity,Negative*
%FSLAX46Y46*%
G04 Gerber Fmt 4.6, Leading zero omitted, Abs format (unit mm)*
G04 Created by KiCad (PCBNEW 5.0.0-fee4fd1~66~ubuntu18.04.1) date Fri Sep 21 10:19:18 2018*
%MOMM*%
%LPD*%
G01*
G04 APERTURE LIST*
%ADD10C,0.100000*%
%ADD11C,2.480000*%
%ADD12C,1.100000*%
%ADD13C,1.100000*%
%ADD14C,0.600000*%
%ADD15C,0.600000*%
%ADD16C,0.950000*%
%ADD17C,1.675000*%
%ADD18C,1.670000*%
%ADD19R,0.900000X0.800000*%
%ADD20C,1.425000*%
G04 APERTURE END LIST*
D10*
G04 #@! TO.C,P1*
G36*
X74442770Y-40829644D02*
X74412770Y-40777682D01*
X74391430Y-40720721D01*
X74365091Y-40655099D01*
X74332411Y-40558497D01*
X74299732Y-40461894D01*
X74280713Y-40368952D01*
X74254014Y-40222708D01*
X74247315Y-40111106D01*
X74245616Y-40008163D01*
X74250257Y-39936202D01*
X74258559Y-39850580D01*
X74272841Y-39715317D01*
X74287482Y-39660676D01*
X74305783Y-39592375D01*
X74327744Y-39510414D01*
X74354706Y-39437112D01*
X74374347Y-39391131D01*
X74397648Y-39331490D01*
X74417289Y-39285510D01*
X74445591Y-39234529D01*
X74473892Y-39183548D01*
X74502193Y-39132567D01*
X74539155Y-39076587D01*
X74563796Y-39039266D01*
X74597097Y-38996946D01*
X74642719Y-38935965D01*
X74693340Y-38883644D01*
X74756283Y-38812664D01*
X74794584Y-38779003D01*
X74832885Y-38745343D01*
X74879847Y-38706683D01*
X74952789Y-38653023D01*
X75025731Y-38599362D01*
X75095013Y-38559362D01*
X75945013Y-40031606D01*
X74472770Y-40881606D01*
X74442770Y-40829644D01*
G37*
G36*
X76743052Y-41533849D02*
X76691090Y-41563849D01*
X76634129Y-41585188D01*
X76568507Y-41611528D01*
X76471905Y-41644208D01*
X76375302Y-41676887D01*
X76282360Y-41695906D01*
X76136116Y-41722605D01*
X76024514Y-41729304D01*
X75921571Y-41731003D01*
X75849610Y-41726362D01*
X75763988Y-41718060D01*
X75628725Y-41703778D01*
X75574084Y-41689137D01*
X75505783Y-41670836D01*
X75423821Y-41648874D01*
X75350520Y-41621913D01*
X75304539Y-41602272D01*
X75244898Y-41578971D01*
X75198918Y-41559330D01*
X75147937Y-41531028D01*
X75096956Y-41502727D01*
X75045975Y-41474426D01*
X74989995Y-41437464D01*
X74952674Y-41412823D01*
X74910354Y-41379522D01*
X74849373Y-41333900D01*
X74797052Y-41283278D01*
X74726071Y-41220336D01*
X74692411Y-41182035D01*
X74658751Y-41143734D01*
X74620091Y-41096772D01*
X74566430Y-41023830D01*
X74512770Y-40950888D01*
X74472770Y-40881606D01*
X75945013Y-40031606D01*
X76795013Y-41503849D01*
X76743052Y-41533849D01*
G37*
G04 #@! TD*
D11*
G04 #@! TO.C,LED1*
X72143258Y-32460365D03*
D10*
G36*
X71685526Y-31307941D02*
X71800687Y-31268624D01*
X71919148Y-31240785D01*
X72039767Y-31224691D01*
X72161382Y-31220498D01*
X72282824Y-31228245D01*
X72402921Y-31247858D01*
X72520516Y-31279147D01*
X72634479Y-31321813D01*
X72743712Y-31375444D01*
X72847162Y-31439522D01*
X72943833Y-31513433D01*
X73032793Y-31596463D01*
X73113187Y-31687812D01*
X73184239Y-31786602D01*
X73207417Y-31826586D01*
X73212690Y-31823529D01*
X74550219Y-34130888D01*
X73583326Y-34691376D01*
X72870989Y-33462531D01*
X72817021Y-33501346D01*
X72711743Y-33562374D01*
X72600990Y-33612789D01*
X72485829Y-33652106D01*
X72367368Y-33679945D01*
X72246749Y-33696039D01*
X72125134Y-33700232D01*
X72003692Y-33692485D01*
X71883595Y-33672872D01*
X71766000Y-33641583D01*
X71652037Y-33598917D01*
X71542804Y-33545286D01*
X71439354Y-33481208D01*
X71342683Y-33407297D01*
X71253723Y-33324267D01*
X71173329Y-33232918D01*
X71102277Y-33134128D01*
X71041249Y-33028850D01*
X70990834Y-32918097D01*
X70951517Y-32802936D01*
X70923678Y-32684475D01*
X70907584Y-32563856D01*
X70903391Y-32442241D01*
X70911138Y-32320799D01*
X70930751Y-32200702D01*
X70962040Y-32083107D01*
X71004706Y-31969144D01*
X71058337Y-31859911D01*
X71122415Y-31756461D01*
X71196326Y-31659790D01*
X71279356Y-31570830D01*
X71370705Y-31490436D01*
X71469495Y-31419384D01*
X71574773Y-31358356D01*
X71685526Y-31307941D01*
X71685526Y-31307941D01*
G37*
D12*
X74339094Y-34880909D03*
D13*
X74038188Y-34361818D02*
X74640000Y-35400000D01*
D14*
X73462653Y-35562344D03*
D15*
X73236973Y-35173026D02*
X73688333Y-35951662D01*
D14*
X75365987Y-34459020D03*
D15*
X75140307Y-34069702D02*
X75591667Y-34848338D01*
G04 #@! TD*
D10*
G04 #@! TO.C,R3*
G36*
X70275779Y-34006144D02*
X70298834Y-34009563D01*
X70321443Y-34015227D01*
X70343387Y-34023079D01*
X70364457Y-34033044D01*
X70384448Y-34045026D01*
X70403168Y-34058910D01*
X70420438Y-34074562D01*
X70436090Y-34091832D01*
X70449974Y-34110552D01*
X70461956Y-34130543D01*
X70471921Y-34151613D01*
X70479773Y-34173557D01*
X70485437Y-34196166D01*
X70488856Y-34219221D01*
X70490000Y-34242500D01*
X70490000Y-34717500D01*
X70488856Y-34740779D01*
X70485437Y-34763834D01*
X70479773Y-34786443D01*
X70471921Y-34808387D01*
X70461956Y-34829457D01*
X70449974Y-34849448D01*
X70436090Y-34868168D01*
X70420438Y-34885438D01*
X70403168Y-34901090D01*
X70384448Y-34914974D01*
X70364457Y-34926956D01*
X70343387Y-34936921D01*
X70321443Y-34944773D01*
X70298834Y-34950437D01*
X70275779Y-34953856D01*
X70252500Y-34955000D01*
X69677500Y-34955000D01*
X69654221Y-34953856D01*
X69631166Y-34950437D01*
X69608557Y-34944773D01*
X69586613Y-34936921D01*
X69565543Y-34926956D01*
X69545552Y-34914974D01*
X69526832Y-34901090D01*
X69509562Y-34885438D01*
X69493910Y-34868168D01*
X69480026Y-34849448D01*
X69468044Y-34829457D01*
X69458079Y-34808387D01*
X69450227Y-34786443D01*
X69444563Y-34763834D01*
X69441144Y-34740779D01*
X69440000Y-34717500D01*
X69440000Y-34242500D01*
X69441144Y-34219221D01*
X69444563Y-34196166D01*
X69450227Y-34173557D01*
X69458079Y-34151613D01*
X69468044Y-34130543D01*
X69480026Y-34110552D01*
X69493910Y-34091832D01*
X69509562Y-34074562D01*
X69526832Y-34058910D01*
X69545552Y-34045026D01*
X69565543Y-34033044D01*
X69586613Y-34023079D01*
X69608557Y-34015227D01*
X69631166Y-34009563D01*
X69654221Y-34006144D01*
X69677500Y-34005000D01*
X70252500Y-34005000D01*
X70275779Y-34006144D01*
X70275779Y-34006144D01*
G37*
D16*
X69965000Y-34480000D03*
D10*
G36*
X72025779Y-34006144D02*
X72048834Y-34009563D01*
X72071443Y-34015227D01*
X72093387Y-34023079D01*
X72114457Y-34033044D01*
X72134448Y-34045026D01*
X72153168Y-34058910D01*
X72170438Y-34074562D01*
X72186090Y-34091832D01*
X72199974Y-34110552D01*
X72211956Y-34130543D01*
X72221921Y-34151613D01*
X72229773Y-34173557D01*
X72235437Y-34196166D01*
X72238856Y-34219221D01*
X72240000Y-34242500D01*
X72240000Y-34717500D01*
X72238856Y-34740779D01*
X72235437Y-34763834D01*
X72229773Y-34786443D01*
X72221921Y-34808387D01*
X72211956Y-34829457D01*
X72199974Y-34849448D01*
X72186090Y-34868168D01*
X72170438Y-34885438D01*
X72153168Y-34901090D01*
X72134448Y-34914974D01*
X72114457Y-34926956D01*
X72093387Y-34936921D01*
X72071443Y-34944773D01*
X72048834Y-34950437D01*
X72025779Y-34953856D01*
X72002500Y-34955000D01*
X71427500Y-34955000D01*
X71404221Y-34953856D01*
X71381166Y-34950437D01*
X71358557Y-34944773D01*
X71336613Y-34936921D01*
X71315543Y-34926956D01*
X71295552Y-34914974D01*
X71276832Y-34901090D01*
X71259562Y-34885438D01*
X71243910Y-34868168D01*
X71230026Y-34849448D01*
X71218044Y-34829457D01*
X71208079Y-34808387D01*
X71200227Y-34786443D01*
X71194563Y-34763834D01*
X71191144Y-34740779D01*
X71190000Y-34717500D01*
X71190000Y-34242500D01*
X71191144Y-34219221D01*
X71194563Y-34196166D01*
X71200227Y-34173557D01*
X71208079Y-34151613D01*
X71218044Y-34130543D01*
X71230026Y-34110552D01*
X71243910Y-34091832D01*
X71259562Y-34074562D01*
X71276832Y-34058910D01*
X71295552Y-34045026D01*
X71315543Y-34033044D01*
X71336613Y-34023079D01*
X71358557Y-34015227D01*
X71381166Y-34009563D01*
X71404221Y-34006144D01*
X71427500Y-34005000D01*
X72002500Y-34005000D01*
X72025779Y-34006144D01*
X72025779Y-34006144D01*
G37*
D16*
X71715000Y-34480000D03*
G04 #@! TD*
D10*
G04 #@! TO.C,J1*
G36*
X70560090Y-41662033D02*
X70641389Y-41674092D01*
X70721114Y-41694062D01*
X70798498Y-41721751D01*
X70872796Y-41756891D01*
X70943291Y-41799144D01*
X71009305Y-41848104D01*
X71070203Y-41903298D01*
X71125397Y-41964196D01*
X71174357Y-42030210D01*
X71216610Y-42100705D01*
X71251750Y-42175003D01*
X71279439Y-42252387D01*
X71299409Y-42332112D01*
X71311468Y-42413411D01*
X71315501Y-42495500D01*
X71315501Y-45020500D01*
X71311468Y-45102589D01*
X71299409Y-45183888D01*
X71279439Y-45263613D01*
X71251750Y-45340997D01*
X71216610Y-45415295D01*
X71174357Y-45485790D01*
X71125397Y-45551804D01*
X71070203Y-45612702D01*
X71009305Y-45667896D01*
X70943291Y-45716856D01*
X70872796Y-45759109D01*
X70798498Y-45794249D01*
X70721114Y-45821938D01*
X70641389Y-45841908D01*
X70560090Y-45853967D01*
X70478001Y-45858000D01*
X70477999Y-45858000D01*
X70395910Y-45853967D01*
X70314611Y-45841908D01*
X70234886Y-45821938D01*
X70157502Y-45794249D01*
X70083204Y-45759109D01*
X70012709Y-45716856D01*
X69946695Y-45667896D01*
X69885797Y-45612702D01*
X69830603Y-45551804D01*
X69781643Y-45485790D01*
X69739390Y-45415295D01*
X69704250Y-45340997D01*
X69676561Y-45263613D01*
X69656591Y-45183888D01*
X69644532Y-45102589D01*
X69640499Y-45020500D01*
X69640499Y-42495500D01*
X69644532Y-42413411D01*
X69656591Y-42332112D01*
X69676561Y-42252387D01*
X69704250Y-42175003D01*
X69739390Y-42100705D01*
X69781643Y-42030210D01*
X69830603Y-41964196D01*
X69885797Y-41903298D01*
X69946695Y-41848104D01*
X70012709Y-41799144D01*
X70083204Y-41756891D01*
X70157502Y-41721751D01*
X70234886Y-41694062D01*
X70314611Y-41674092D01*
X70395910Y-41662033D01*
X70477999Y-41658000D01*
X70478001Y-41658000D01*
X70560090Y-41662033D01*
X70560090Y-41662033D01*
G37*
D17*
X70478000Y-43758000D03*
D18*
X70478000Y-42488000D03*
X70478000Y-45028000D03*
X67938000Y-42488000D03*
D10*
G36*
X68020090Y-41662033D02*
X68101389Y-41674092D01*
X68181114Y-41694062D01*
X68258498Y-41721751D01*
X68332796Y-41756891D01*
X68403291Y-41799144D01*
X68469305Y-41848104D01*
X68530203Y-41903298D01*
X68585397Y-41964196D01*
X68634357Y-42030210D01*
X68676610Y-42100705D01*
X68711750Y-42175003D01*
X68739439Y-42252387D01*
X68759409Y-42332112D01*
X68771468Y-42413411D01*
X68775501Y-42495500D01*
X68775501Y-45020500D01*
X68771468Y-45102589D01*
X68759409Y-45183888D01*
X68739439Y-45263613D01*
X68711750Y-45340997D01*
X68676610Y-45415295D01*
X68634357Y-45485790D01*
X68585397Y-45551804D01*
X68530203Y-45612702D01*
X68469305Y-45667896D01*
X68403291Y-45716856D01*
X68332796Y-45759109D01*
X68258498Y-45794249D01*
X68181114Y-45821938D01*
X68101389Y-45841908D01*
X68020090Y-45853967D01*
X67938001Y-45858000D01*
X67937999Y-45858000D01*
X67855910Y-45853967D01*
X67774611Y-45841908D01*
X67694886Y-45821938D01*
X67617502Y-45794249D01*
X67543204Y-45759109D01*
X67472709Y-45716856D01*
X67406695Y-45667896D01*
X67345797Y-45612702D01*
X67290603Y-45551804D01*
X67241643Y-45485790D01*
X67199390Y-45415295D01*
X67164250Y-45340997D01*
X67136561Y-45263613D01*
X67116591Y-45183888D01*
X67104532Y-45102589D01*
X67100499Y-45020500D01*
X67100499Y-42495500D01*
X67104532Y-42413411D01*
X67116591Y-42332112D01*
X67136561Y-42252387D01*
X67164250Y-42175003D01*
X67199390Y-42100705D01*
X67241643Y-42030210D01*
X67290603Y-41964196D01*
X67345797Y-41903298D01*
X67406695Y-41848104D01*
X67472709Y-41799144D01*
X67543204Y-41756891D01*
X67617502Y-41721751D01*
X67694886Y-41694062D01*
X67774611Y-41674092D01*
X67855910Y-41662033D01*
X67937999Y-41658000D01*
X67938001Y-41658000D01*
X68020090Y-41662033D01*
X68020090Y-41662033D01*
G37*
D17*
X67938000Y-43758000D03*
D18*
X67938000Y-45028000D03*
D10*
G36*
X65480090Y-41662033D02*
X65561389Y-41674092D01*
X65641114Y-41694062D01*
X65718498Y-41721751D01*
X65792796Y-41756891D01*
X65863291Y-41799144D01*
X65929305Y-41848104D01*
X65990203Y-41903298D01*
X66045397Y-41964196D01*
X66094357Y-42030210D01*
X66136610Y-42100705D01*
X66171750Y-42175003D01*
X66199439Y-42252387D01*
X66219409Y-42332112D01*
X66231468Y-42413411D01*
X66235501Y-42495500D01*
X66235501Y-45020500D01*
X66231468Y-45102589D01*
X66219409Y-45183888D01*
X66199439Y-45263613D01*
X66171750Y-45340997D01*
X66136610Y-45415295D01*
X66094357Y-45485790D01*
X66045397Y-45551804D01*
X65990203Y-45612702D01*
X65929305Y-45667896D01*
X65863291Y-45716856D01*
X65792796Y-45759109D01*
X65718498Y-45794249D01*
X65641114Y-45821938D01*
X65561389Y-45841908D01*
X65480090Y-45853967D01*
X65398001Y-45858000D01*
X65397999Y-45858000D01*
X65315910Y-45853967D01*
X65234611Y-45841908D01*
X65154886Y-45821938D01*
X65077502Y-45794249D01*
X65003204Y-45759109D01*
X64932709Y-45716856D01*
X64866695Y-45667896D01*
X64805797Y-45612702D01*
X64750603Y-45551804D01*
X64701643Y-45485790D01*
X64659390Y-45415295D01*
X64624250Y-45340997D01*
X64596561Y-45263613D01*
X64576591Y-45183888D01*
X64564532Y-45102589D01*
X64560499Y-45020500D01*
X64560499Y-42495500D01*
X64564532Y-42413411D01*
X64576591Y-42332112D01*
X64596561Y-42252387D01*
X64624250Y-42175003D01*
X64659390Y-42100705D01*
X64701643Y-42030210D01*
X64750603Y-41964196D01*
X64805797Y-41903298D01*
X64866695Y-41848104D01*
X64932709Y-41799144D01*
X65003204Y-41756891D01*
X65077502Y-41721751D01*
X65154886Y-41694062D01*
X65234611Y-41674092D01*
X65315910Y-41662033D01*
X65397999Y-41658000D01*
X65398001Y-41658000D01*
X65480090Y-41662033D01*
X65480090Y-41662033D01*
G37*
D17*
X65398000Y-43758000D03*
D18*
X65398000Y-45028000D03*
X65398000Y-42488000D03*
G04 #@! TD*
D19*
G04 #@! TO.C,T1*
X67810000Y-38340000D03*
X69810000Y-37390000D03*
X69810000Y-39290000D03*
G04 #@! TD*
G04 #@! TO.C,Q1*
X73230000Y-38340000D03*
X71230000Y-39290000D03*
X71230000Y-37390000D03*
G04 #@! TD*
D10*
G04 #@! TO.C,R1*
G36*
X70265779Y-35466144D02*
X70288834Y-35469563D01*
X70311443Y-35475227D01*
X70333387Y-35483079D01*
X70354457Y-35493044D01*
X70374448Y-35505026D01*
X70393168Y-35518910D01*
X70410438Y-35534562D01*
X70426090Y-35551832D01*
X70439974Y-35570552D01*
X70451956Y-35590543D01*
X70461921Y-35611613D01*
X70469773Y-35633557D01*
X70475437Y-35656166D01*
X70478856Y-35679221D01*
X70480000Y-35702500D01*
X70480000Y-36177500D01*
X70478856Y-36200779D01*
X70475437Y-36223834D01*
X70469773Y-36246443D01*
X70461921Y-36268387D01*
X70451956Y-36289457D01*
X70439974Y-36309448D01*
X70426090Y-36328168D01*
X70410438Y-36345438D01*
X70393168Y-36361090D01*
X70374448Y-36374974D01*
X70354457Y-36386956D01*
X70333387Y-36396921D01*
X70311443Y-36404773D01*
X70288834Y-36410437D01*
X70265779Y-36413856D01*
X70242500Y-36415000D01*
X69667500Y-36415000D01*
X69644221Y-36413856D01*
X69621166Y-36410437D01*
X69598557Y-36404773D01*
X69576613Y-36396921D01*
X69555543Y-36386956D01*
X69535552Y-36374974D01*
X69516832Y-36361090D01*
X69499562Y-36345438D01*
X69483910Y-36328168D01*
X69470026Y-36309448D01*
X69458044Y-36289457D01*
X69448079Y-36268387D01*
X69440227Y-36246443D01*
X69434563Y-36223834D01*
X69431144Y-36200779D01*
X69430000Y-36177500D01*
X69430000Y-35702500D01*
X69431144Y-35679221D01*
X69434563Y-35656166D01*
X69440227Y-35633557D01*
X69448079Y-35611613D01*
X69458044Y-35590543D01*
X69470026Y-35570552D01*
X69483910Y-35551832D01*
X69499562Y-35534562D01*
X69516832Y-35518910D01*
X69535552Y-35505026D01*
X69555543Y-35493044D01*
X69576613Y-35483079D01*
X69598557Y-35475227D01*
X69621166Y-35469563D01*
X69644221Y-35466144D01*
X69667500Y-35465000D01*
X70242500Y-35465000D01*
X70265779Y-35466144D01*
X70265779Y-35466144D01*
G37*
D16*
X69955000Y-35940000D03*
D10*
G36*
X72015779Y-35466144D02*
X72038834Y-35469563D01*
X72061443Y-35475227D01*
X72083387Y-35483079D01*
X72104457Y-35493044D01*
X72124448Y-35505026D01*
X72143168Y-35518910D01*
X72160438Y-35534562D01*
X72176090Y-35551832D01*
X72189974Y-35570552D01*
X72201956Y-35590543D01*
X72211921Y-35611613D01*
X72219773Y-35633557D01*
X72225437Y-35656166D01*
X72228856Y-35679221D01*
X72230000Y-35702500D01*
X72230000Y-36177500D01*
X72228856Y-36200779D01*
X72225437Y-36223834D01*
X72219773Y-36246443D01*
X72211921Y-36268387D01*
X72201956Y-36289457D01*
X72189974Y-36309448D01*
X72176090Y-36328168D01*
X72160438Y-36345438D01*
X72143168Y-36361090D01*
X72124448Y-36374974D01*
X72104457Y-36386956D01*
X72083387Y-36396921D01*
X72061443Y-36404773D01*
X72038834Y-36410437D01*
X72015779Y-36413856D01*
X71992500Y-36415000D01*
X71417500Y-36415000D01*
X71394221Y-36413856D01*
X71371166Y-36410437D01*
X71348557Y-36404773D01*
X71326613Y-36396921D01*
X71305543Y-36386956D01*
X71285552Y-36374974D01*
X71266832Y-36361090D01*
X71249562Y-36345438D01*
X71233910Y-36328168D01*
X71220026Y-36309448D01*
X71208044Y-36289457D01*
X71198079Y-36268387D01*
X71190227Y-36246443D01*
X71184563Y-36223834D01*
X71181144Y-36200779D01*
X71180000Y-36177500D01*
X71180000Y-35702500D01*
X71181144Y-35679221D01*
X71184563Y-35656166D01*
X71190227Y-35633557D01*
X71198079Y-35611613D01*
X71208044Y-35590543D01*
X71220026Y-35570552D01*
X71233910Y-35551832D01*
X71249562Y-35534562D01*
X71266832Y-35518910D01*
X71285552Y-35505026D01*
X71305543Y-35493044D01*
X71326613Y-35483079D01*
X71348557Y-35475227D01*
X71371166Y-35469563D01*
X71394221Y-35466144D01*
X71417500Y-35465000D01*
X71992500Y-35465000D01*
X72015779Y-35466144D01*
X72015779Y-35466144D01*
G37*
D16*
X71705000Y-35940000D03*
G04 #@! TD*
D10*
G04 #@! TO.C,R2*
G36*
X73600069Y-42556201D02*
X73624276Y-42559792D01*
X73648015Y-42565738D01*
X73671057Y-42573982D01*
X73693180Y-42584446D01*
X73714171Y-42597027D01*
X73733827Y-42611605D01*
X73751960Y-42628040D01*
X73768395Y-42646173D01*
X73782973Y-42665829D01*
X73795554Y-42686820D01*
X73806018Y-42708943D01*
X73814262Y-42731985D01*
X73820208Y-42755724D01*
X73823799Y-42779931D01*
X73825000Y-42804374D01*
X73825000Y-44055626D01*
X73823799Y-44080069D01*
X73820208Y-44104276D01*
X73814262Y-44128015D01*
X73806018Y-44151057D01*
X73795554Y-44173180D01*
X73782973Y-44194171D01*
X73768395Y-44213827D01*
X73751960Y-44231960D01*
X73733827Y-44248395D01*
X73714171Y-44262973D01*
X73693180Y-44275554D01*
X73671057Y-44286018D01*
X73648015Y-44294262D01*
X73624276Y-44300208D01*
X73600069Y-44303799D01*
X73575626Y-44305000D01*
X72649374Y-44305000D01*
X72624931Y-44303799D01*
X72600724Y-44300208D01*
X72576985Y-44294262D01*
X72553943Y-44286018D01*
X72531820Y-44275554D01*
X72510829Y-44262973D01*
X72491173Y-44248395D01*
X72473040Y-44231960D01*
X72456605Y-44213827D01*
X72442027Y-44194171D01*
X72429446Y-44173180D01*
X72418982Y-44151057D01*
X72410738Y-44128015D01*
X72404792Y-44104276D01*
X72401201Y-44080069D01*
X72400000Y-44055626D01*
X72400000Y-42804374D01*
X72401201Y-42779931D01*
X72404792Y-42755724D01*
X72410738Y-42731985D01*
X72418982Y-42708943D01*
X72429446Y-42686820D01*
X72442027Y-42665829D01*
X72456605Y-42646173D01*
X72473040Y-42628040D01*
X72491173Y-42611605D01*
X72510829Y-42597027D01*
X72531820Y-42584446D01*
X72553943Y-42573982D01*
X72576985Y-42565738D01*
X72600724Y-42559792D01*
X72624931Y-42556201D01*
X72649374Y-42555000D01*
X73575626Y-42555000D01*
X73600069Y-42556201D01*
X73600069Y-42556201D01*
G37*
D20*
X73112500Y-43430000D03*
D10*
G36*
X76574504Y-42556204D02*
X76598773Y-42559804D01*
X76622571Y-42565765D01*
X76645671Y-42574030D01*
X76667849Y-42584520D01*
X76688893Y-42597133D01*
X76708598Y-42611747D01*
X76726777Y-42628223D01*
X76743253Y-42646402D01*
X76757867Y-42666107D01*
X76770480Y-42687151D01*
X76780970Y-42709329D01*
X76789235Y-42732429D01*
X76795196Y-42756227D01*
X76798796Y-42780496D01*
X76800000Y-42805000D01*
X76800000Y-44055000D01*
X76798796Y-44079504D01*
X76795196Y-44103773D01*
X76789235Y-44127571D01*
X76780970Y-44150671D01*
X76770480Y-44172849D01*
X76757867Y-44193893D01*
X76743253Y-44213598D01*
X76726777Y-44231777D01*
X76708598Y-44248253D01*
X76688893Y-44262867D01*
X76667849Y-44275480D01*
X76645671Y-44285970D01*
X76622571Y-44294235D01*
X76598773Y-44300196D01*
X76574504Y-44303796D01*
X76550000Y-44305000D01*
X75625000Y-44305000D01*
X75600496Y-44303796D01*
X75576227Y-44300196D01*
X75552429Y-44294235D01*
X75529329Y-44285970D01*
X75507151Y-44275480D01*
X75486107Y-44262867D01*
X75466402Y-44248253D01*
X75448223Y-44231777D01*
X75431747Y-44213598D01*
X75417133Y-44193893D01*
X75404520Y-44172849D01*
X75394030Y-44150671D01*
X75385765Y-44127571D01*
X75379804Y-44103773D01*
X75376204Y-44079504D01*
X75375000Y-44055000D01*
X75375000Y-42805000D01*
X75376204Y-42780496D01*
X75379804Y-42756227D01*
X75385765Y-42732429D01*
X75394030Y-42709329D01*
X75404520Y-42687151D01*
X75417133Y-42666107D01*
X75431747Y-42646402D01*
X75448223Y-42628223D01*
X75466402Y-42611747D01*
X75486107Y-42597133D01*
X75507151Y-42584520D01*
X75529329Y-42574030D01*
X75552429Y-42565765D01*
X75576227Y-42559804D01*
X75600496Y-42556204D01*
X75625000Y-42555000D01*
X76550000Y-42555000D01*
X76574504Y-42556204D01*
X76574504Y-42556204D01*
G37*
D20*
X76087500Y-43430000D03*
G04 #@! TD*
M02*
