%FSLAX33Y33*%
%MOMM*%
%AMRect-W900000-H1700000-RO0.500*
21,1,0.9,1.7,0.,0.,270*%
%ADD10C,0.0508*%
%ADD11C,0.2032*%
%ADD12C,0.5*%
%ADD13C,1.7*%
%ADD14R,0.802X0.972*%
%ADD15Rect-W900000-H1700000-RO0.500*%
%ADD16C,1.2*%
%ADD17C,0.7*%
%ADD18C,2.5*%
%ADD19R,1.X1.4*%
%ADD20C,2.5*%
%ADD21R,0.5X0.9*%
%ADD22C,2.5*%
D10*
%LNpour fill*%
G01*
X-1666Y2398D02*
X-1666Y2398D01*
X-1663Y2423*
X-1662Y2426*
X-1614Y2554*
X-1612Y2557*
X-1549Y2648*
X-1549Y6706*
X-6294Y6679*
X-6276Y6627*
X-6276Y6627*
X-6276Y6626*
X-6276Y6626*
X-6275Y6625*
X-6275Y6625*
X-6275Y6623*
X-6275Y6623*
X-6274Y6622*
X-6274Y6622*
X-6274Y6621*
X-6274Y6621*
X-6273Y6619*
X-6273Y6619*
X-6273Y6618*
X-6273Y6618*
X-6273Y6616*
X-6273Y6616*
X-6272Y6615*
X-6272Y6615*
X-6272Y6614*
X-6272Y6614*
X-6272Y6612*
X-6271Y6612*
X-6271Y6611*
X-6271Y6611*
X-6271Y6610*
X-6271Y6610*
X-6270Y6608*
X-6270Y6608*
X-6270Y6607*
X-6270Y6607*
X-6270Y6605*
X-6270Y6605*
X-6269Y6604*
X-6269Y6604*
X-6269Y6603*
X-6269Y6603*
X-6269Y6601*
X-6269Y6601*
X-6268Y6600*
X-6268Y6600*
X-6268Y6599*
X-6268Y6598*
X-6268Y6597*
X-6268Y6597*
X-6268Y6596*
X-6268Y6596*
X-6267Y6594*
X-6267Y6594*
X-6267Y6593*
X-6267Y6593*
X-6267Y6591*
X-6267Y6591*
X-6267Y6590*
X-6267Y6590*
X-6266Y6588*
X-6266Y6588*
X-6266Y6587*
X-6266Y6587*
X-6266Y6586*
X-6266Y6586*
X-6266Y6584*
X-6266Y6584*
X-6265Y6583*
X-6265Y6583*
X-6265Y6581*
X-6265Y6581*
X-6265Y6580*
X-6265Y6580*
X-6265Y6579*
X-6265Y6579*
X-6265Y6577*
X-6265Y6577*
X-6265Y6576*
X-6265Y6576*
X-6264Y6574*
X-6264Y6574*
X-6264Y6573*
X-6264Y6573*
X-6264Y6571*
X-6264Y6571*
X-6264Y6570*
X-6264Y6570*
X-6264Y6569*
X-6264Y6569*
X-6264Y6567*
X-6264Y6567*
X-6264Y6566*
X-6264Y6566*
X-6264Y6564*
X-6264Y6564*
X-6264Y6563*
X-6264Y6563*
X-6264Y6562*
X-6264Y6561*
X-6264Y6560*
X-6264Y6560*
X-6263Y6559*
X-6263Y6559*
X-6263Y6557*
X-6263Y6557*
X-6263Y6556*
X-6263Y6556*
X-6263Y6554*
X-6263Y6554*
X-6263Y6553*
X-6263Y6553*
X-6263Y6551*
X-6263Y6551*
X-6263Y6550*
X-6263Y6550*
X-6263Y6548*
X-6263Y6548*
X-6263Y6547*
X-6263Y6547*
X-6263Y6546*
X-6263Y6546*
X-6264Y6544*
X-6264Y6544*
X-6264Y6543*
X-6264Y6543*
X-6264Y6541*
X-6264Y6541*
X-6264Y6540*
X-6264Y6540*
X-6264Y6538*
X-6264Y6538*
X-6264Y6537*
X-6264Y6537*
X-6264Y6536*
X-6264Y6536*
X-6264Y6534*
X-6264Y6534*
X-6264Y6533*
X-6264Y6533*
X-6264Y6531*
X-6264Y6531*
X-6264Y6530*
X-6264Y6530*
X-6265Y6529*
X-6265Y6529*
X-6265Y6527*
X-6265Y6527*
X-6265Y6526*
X-6265Y6526*
X-6265Y6524*
X-6265Y6524*
X-6265Y6523*
X-6265Y6523*
X-6265Y6521*
X-6265Y6521*
X-6266Y6520*
X-6266Y6520*
X-6266Y6519*
X-6266Y6518*
X-6266Y6517*
X-6266Y6517*
X-6266Y6516*
X-6266Y6516*
X-6267Y6514*
X-6267Y6514*
X-6267Y6513*
X-6267Y6513*
X-6267Y6511*
X-6267Y6511*
X-6267Y6510*
X-6267Y6510*
X-6268Y6509*
X-6268Y6509*
X-6268Y6507*
X-6268Y6507*
X-6268Y6506*
X-6268Y6506*
X-6268Y6504*
X-6268Y6504*
X-6269Y6503*
X-6269Y6503*
X-6269Y6502*
X-6269Y6502*
X-6269Y6500*
X-6269Y6500*
X-6270Y6499*
X-6270Y6499*
X-6270Y6497*
X-6270Y6497*
X-6270Y6496*
X-6270Y6496*
X-6271Y6495*
X-6271Y6494*
X-6271Y6493*
X-6271Y6493*
X-6271Y6492*
X-6271Y6492*
X-6272Y6490*
X-6272Y6490*
X-6272Y6489*
X-6272Y6489*
X-6273Y6488*
X-6273Y6488*
X-6273Y6486*
X-6273Y6486*
X-6273Y6485*
X-6273Y6485*
X-6274Y6484*
X-6274Y6484*
X-6274Y6482*
X-6274Y6482*
X-6275Y6481*
X-6275Y6481*
X-6275Y6480*
X-6275Y6480*
X-6276Y6478*
X-6276Y6478*
X-6276Y6477*
X-6276Y6477*
X-6277Y6475*
X-6277Y6475*
X-6277Y6474*
X-6277Y6474*
X-6278Y6473*
X-6278Y6473*
X-6278Y6471*
X-6278Y6471*
X-6279Y6470*
X-6279Y6470*
X-6279Y6469*
X-6279Y6469*
X-6280Y6467*
X-6280Y6467*
X-6280Y6466*
X-6280Y6466*
X-6281Y6465*
X-6281Y6465*
X-6281Y6463*
X-6281Y6463*
X-6282Y6462*
X-6282Y6462*
X-6282Y6461*
X-6282Y6461*
X-6283Y6460*
X-6283Y6459*
X-6284Y6458*
X-6284Y6458*
X-6284Y6457*
X-6284Y6457*
X-6285Y6456*
X-6285Y6456*
X-6285Y6454*
X-6285Y6454*
X-6286Y6453*
X-6286Y6453*
X-6287Y6452*
X-6287Y6452*
X-6287Y6450*
X-6287Y6450*
X-6288Y6449*
X-6288Y6449*
X-6289Y6448*
X-6289Y6448*
X-6289Y6447*
X-6289Y6447*
X-6290Y6445*
X-6290Y6445*
X-6291Y6444*
X-6291Y6444*
X-6291Y6443*
X-6291Y6443*
X-6292Y6442*
X-6292Y6442*
X-6293Y6440*
X-6293Y6440*
X-6293Y6439*
X-6293Y6439*
X-6294Y6438*
X-6294Y6438*
X-6563Y5971*
X-6336Y5744*
X-6334Y5741*
X-6160Y5463*
X-6158Y5461*
X-6050Y5151*
X-6049Y5148*
X-6012Y4821*
X-6012Y4819*
X-6049Y4492*
X-6050Y4489*
X-6162Y4168*
X-5410Y3417*
X-5410Y3416*
X-5352Y3345*
X-5351Y3343*
X-5307Y3263*
X-5306Y3260*
X-5280Y3173*
X-5279Y3170*
X-5270Y3080*
X-5270Y3079*
X-5270Y1676*
X-3750Y1676*
X-3750Y1676*
X-3749Y1676*
X-3749Y1676*
X-3747Y1676*
X-3747Y1676*
X-3746Y1676*
X-3746Y1676*
X-3744Y1676*
X-3744Y1676*
X-3743Y1675*
X-3743Y1675*
X-3742Y1675*
X-3741Y1675*
X-3740Y1675*
X-3740Y1675*
X-3739Y1675*
X-3739Y1675*
X-3737Y1675*
X-3737Y1675*
X-3736Y1675*
X-3736Y1675*
X-3734Y1675*
X-3734Y1675*
X-3733Y1675*
X-3733Y1675*
X-3731Y1675*
X-3731Y1675*
X-3730Y1675*
X-3730Y1675*
X-3664Y1669*
X-3621Y1669*
X-3618Y1669*
X-3596Y1663*
X-3583Y1662*
X-3583Y1662*
X-3581Y1662*
X-3581Y1662*
X-3580Y1662*
X-3580Y1662*
X-3579Y1661*
X-3578Y1661*
X-3577Y1661*
X-3577Y1661*
X-3576Y1661*
X-3576Y1661*
X-3574Y1661*
X-3574Y1661*
X-3573Y1661*
X-3573Y1661*
X-3571Y1661*
X-3571Y1661*
X-3570Y1660*
X-3570Y1660*
X-3569Y1660*
X-3568Y1660*
X-3567Y1660*
X-3567Y1660*
X-3566Y1660*
X-3566Y1660*
X-3564Y1659*
X-3564Y1659*
X-3563Y1659*
X-3563Y1659*
X-3562Y1659*
X-3561Y1659*
X-3560Y1659*
X-3560Y1659*
X-3559Y1658*
X-3559Y1658*
X-3557Y1658*
X-3557Y1658*
X-3556Y1658*
X-3556Y1658*
X-3554Y1658*
X-3554Y1658*
X-3553Y1657*
X-3553Y1657*
X-3552Y1657*
X-3552Y1657*
X-3550Y1657*
X-3550Y1657*
X-3549Y1656*
X-3549Y1656*
X-3547Y1656*
X-3547Y1656*
X-3546Y1656*
X-3546Y1656*
X-3545Y1655*
X-3544Y1655*
X-3543Y1655*
X-3543Y1655*
X-3400Y1617*
X-3400Y1617*
X-3399Y1616*
X-3399Y1616*
X-3398Y1616*
X-3398Y1616*
X-3396Y1615*
X-3396Y1615*
X-3395Y1615*
X-3395Y1615*
X-3394Y1615*
X-3393Y1615*
X-3392Y1614*
X-3392Y1614*
X-3391Y1614*
X-3391Y1614*
X-3389Y1613*
X-3389Y1613*
X-3388Y1613*
X-3388Y1613*
X-3387Y1612*
X-3387Y1612*
X-3385Y1612*
X-3385Y1612*
X-3384Y1612*
X-3384Y1612*
X-3383Y1611*
X-3383Y1611*
X-3381Y1611*
X-3381Y1611*
X-3380Y1610*
X-3380Y1610*
X-3377Y1609*
X-3369Y1607*
X-3366Y1606*
X-3339Y1592*
X-3228Y1540*
X-3228Y1540*
X-3227Y1540*
X-3227Y1540*
X-3226Y1539*
X-3226Y1539*
X-3225Y1539*
X-3225Y1539*
X-3223Y1538*
X-3223Y1538*
X-3222Y1537*
X-3222Y1537*
X-3221Y1537*
X-3221Y1537*
X-3220Y1536*
X-3220Y1536*
X-3218Y1535*
X-3218Y1535*
X-3217Y1535*
X-3217Y1535*
X-3216Y1534*
X-3216Y1534*
X-3215Y1533*
X-3215Y1533*
X-3213Y1533*
X-3213Y1533*
X-3212Y1532*
X-3212Y1532*
X-3211Y1531*
X-3211Y1531*
X-3210Y1530*
X-3210Y1530*
X-3208Y1530*
X-3208Y1530*
X-3207Y1529*
X-3207Y1529*
X-3206Y1528*
X-3206Y1528*
X-3205Y1527*
X-3205Y1527*
X-3203Y1527*
X-3203Y1527*
X-3202Y1526*
X-3202Y1526*
X-3201Y1525*
X-3201Y1525*
X-3200Y1524*
X-3200Y1524*
X-3199Y1524*
X-3199Y1524*
X-3198Y1523*
X-3197Y1523*
X-3196Y1522*
X-3196Y1522*
X-3195Y1521*
X-3195Y1521*
X-3194Y1520*
X-3194Y1520*
X-3167Y1502*
X-3138Y1486*
X-3135Y1485*
X-3108Y1460*
X-3073Y1435*
X-3073Y1435*
X-3072Y1435*
X-3072Y1435*
X-3070Y1434*
X-3070Y1434*
X-3069Y1433*
X-3069Y1433*
X-3068Y1432*
X-3068Y1432*
X-3067Y1431*
X-3067Y1431*
X-3066Y1430*
X-3066Y1430*
X-3065Y1430*
X-3065Y1430*
X-3064Y1429*
X-3064Y1429*
X-3062Y1428*
X-3062Y1428*
X-3061Y1427*
X-3061Y1427*
X-3060Y1426*
X-3060Y1426*
X-3059Y1425*
X-3059Y1425*
X-3058Y1424*
X-3058Y1424*
X-3057Y1423*
X-3057Y1423*
X-3056Y1422*
X-3056Y1422*
X-3055Y1422*
X-3055Y1421*
X-3054Y1421*
X-3053Y1420*
X-3053Y1420*
X-3052Y1420*
X-3051Y1419*
X-3051Y1419*
X-3050Y1418*
X-3050Y1418*
X-3049Y1417*
X-3049Y1417*
X-3048Y1416*
X-3048Y1416*
X-3047Y1415*
X-3047Y1415*
X-3046Y1414*
X-3046Y1414*
X-3045Y1413*
X-3045Y1413*
X-3044Y1412*
X-3044Y1412*
X-3043Y1411*
X-3043Y1411*
X-3042Y1410*
X-3042Y1410*
X-2972Y1340*
X-2943Y1314*
X-2941Y1312*
X-2934Y1302*
X-2931Y1299*
X-2931Y1299*
X-2931Y1298*
X-2931Y1298*
X-2930Y1297*
X-2929Y1297*
X-2929Y1296*
X-2928Y1296*
X-2928Y1295*
X-2927Y1295*
X-2927Y1294*
X-2927Y1294*
X-2926Y1293*
X-2926Y1293*
X-2925Y1291*
X-2925Y1291*
X-2924Y1291*
X-2924Y1290*
X-2923Y1289*
X-2923Y1289*
X-2922Y1288*
X-2922Y1288*
X-2921Y1287*
X-2921Y1287*
X-2920Y1286*
X-2920Y1286*
X-2919Y1285*
X-2919Y1285*
X-2918Y1284*
X-2918Y1284*
X-2918Y1283*
X-2918Y1283*
X-2917Y1282*
X-2917Y1281*
X-2916Y1280*
X-2916Y1280*
X-2915Y1279*
X-2915Y1279*
X-2914Y1278*
X-2914Y1278*
X-2913Y1277*
X-2913Y1277*
X-2912Y1276*
X-2912Y1276*
X-2912Y1274*
X-2912Y1274*
X-2862Y1204*
X-1666Y2398*
X-2900Y1214D02*
X-2816Y1214D01*
X-2935Y1264D02*
X-2766Y1264D01*
X-2980Y1313D02*
X-2717Y1313D01*
X-3031Y1363D02*
X-2667Y1363D01*
X-3084Y1412D02*
X-2618Y1412D01*
X-3148Y1462D02*
X-2568Y1462D01*
X-3227Y1511D02*
X-2518Y1511D01*
X-3332Y1561D02*
X-2469Y1561D01*
X-3475Y1610D02*
X-2419Y1610D01*
X-5296Y1660D02*
X-2370Y1660D01*
X-5296Y1709D02*
X-2320Y1709D01*
X-5296Y1759D02*
X-2271Y1759D01*
X-5296Y1808D02*
X-2221Y1808D01*
X-5296Y1858D02*
X-2171Y1858D01*
X-5296Y1907D02*
X-2122Y1907D01*
X-5296Y1957D02*
X-2072Y1957D01*
X-5296Y2006D02*
X-2023Y2006D01*
X-5296Y2056D02*
X-1973Y2056D01*
X-5296Y2106D02*
X-1923Y2106D01*
X-5296Y2155D02*
X-1874Y2155D01*
X-5296Y2205D02*
X-1824Y2205D01*
X-5296Y2254D02*
X-1775Y2254D01*
X-5296Y2304D02*
X-1725Y2304D01*
X-5296Y2353D02*
X-1675Y2353D01*
X-5296Y2403D02*
X-1640Y2403D01*
X-5296Y2452D02*
X-1625Y2452D01*
X-5296Y2502D02*
X-1607Y2502D01*
X-5296Y2551D02*
X-1585Y2551D01*
X-5296Y2601D02*
X-1551Y2601D01*
X-5296Y2650D02*
X-1524Y2650D01*
X-5296Y2700D02*
X-1524Y2700D01*
X-5296Y2749D02*
X-1524Y2749D01*
X-5296Y2799D02*
X-1524Y2799D01*
X-5296Y2848D02*
X-1524Y2848D01*
X-5296Y2898D02*
X-1524Y2898D01*
X-5296Y2948D02*
X-1524Y2948D01*
X-5296Y2997D02*
X-1524Y2997D01*
X-5296Y3047D02*
X-1524Y3047D01*
X-5298Y3096D02*
X-1524Y3096D01*
X-5302Y3146D02*
X-1524Y3146D01*
X-5313Y3195D02*
X-1524Y3195D01*
X-5328Y3245D02*
X-1524Y3245D01*
X-5353Y3294D02*
X-1524Y3294D01*
X-5383Y3344D02*
X-1524Y3344D01*
X-5424Y3393D02*
X-1524Y3393D01*
X-5473Y3443D02*
X-1524Y3443D01*
X-5522Y3492D02*
X-1524Y3492D01*
X-5572Y3542D02*
X-1524Y3542D01*
X-5621Y3591D02*
X-1524Y3591D01*
X-5671Y3641D02*
X-1524Y3641D01*
X-5720Y3691D02*
X-1524Y3691D01*
X-5770Y3740D02*
X-1524Y3740D01*
X-5819Y3790D02*
X-1524Y3790D01*
X-5869Y3839D02*
X-1524Y3839D01*
X-5918Y3889D02*
X-1524Y3889D01*
X-5968Y3938D02*
X-1524Y3938D01*
X-6017Y3988D02*
X-1524Y3988D01*
X-6067Y4037D02*
X-1524Y4037D01*
X-6116Y4087D02*
X-1524Y4087D01*
X-6166Y4136D02*
X-1524Y4136D01*
X-6183Y4186D02*
X-1524Y4186D01*
X-6166Y4235D02*
X-1524Y4235D01*
X-6148Y4285D02*
X-1524Y4285D01*
X-6131Y4334D02*
X-1524Y4334D01*
X-6114Y4384D02*
X-1524Y4384D01*
X-6096Y4433D02*
X-1524Y4433D01*
X-6079Y4483D02*
X-1524Y4483D01*
X-6070Y4533D02*
X-1524Y4533D01*
X-6065Y4582D02*
X-1524Y4582D01*
X-6059Y4632D02*
X-1524Y4632D01*
X-6053Y4681D02*
X-1524Y4681D01*
X-6048Y4731D02*
X-1524Y4731D01*
X-6042Y4780D02*
X-1524Y4780D01*
X-6039Y4830D02*
X-1524Y4830D01*
X-6044Y4879D02*
X-1524Y4879D01*
X-6050Y4929D02*
X-1524Y4929D01*
X-6056Y4978D02*
X-1524Y4978D01*
X-6061Y5028D02*
X-1524Y5028D01*
X-6067Y5077D02*
X-1524Y5077D01*
X-6072Y5127D02*
X-1524Y5127D01*
X-6086Y5176D02*
X-1524Y5176D01*
X-6103Y5226D02*
X-1524Y5226D01*
X-6120Y5275D02*
X-1524Y5275D01*
X-6138Y5325D02*
X-1524Y5325D01*
X-6155Y5375D02*
X-1524Y5375D01*
X-6172Y5424D02*
X-1524Y5424D01*
X-6196Y5474D02*
X-1524Y5474D01*
X-6227Y5523D02*
X-1524Y5523D01*
X-6258Y5573D02*
X-1524Y5573D01*
X-6289Y5622D02*
X-1524Y5622D01*
X-6321Y5672D02*
X-1524Y5672D01*
X-6352Y5721D02*
X-1524Y5721D01*
X-6399Y5771D02*
X-1524Y5771D01*
X-6449Y5820D02*
X-1524Y5820D01*
X-6498Y5870D02*
X-1524Y5870D01*
X-6548Y5919D02*
X-1524Y5919D01*
X-6594Y5969D02*
X-1524Y5969D01*
X-6565Y6018D02*
X-1524Y6018D01*
X-6537Y6068D02*
X-1524Y6068D01*
X-6508Y6117D02*
X-1524Y6117D01*
X-6480Y6167D02*
X-1524Y6167D01*
X-6451Y6217D02*
X-1524Y6217D01*
X-6422Y6266D02*
X-1524Y6266D01*
X-6394Y6316D02*
X-1524Y6316D01*
X-6365Y6365D02*
X-1524Y6365D01*
X-6337Y6415D02*
X-1524Y6415D01*
X-6309Y6464D02*
X-1524Y6464D01*
X-6292Y6514D02*
X-1524Y6514D01*
X-6289Y6563D02*
X-1524Y6563D01*
X-6298Y6613D02*
X-1524Y6613D01*
X-6315Y6662D02*
X-1524Y6662D01*
X-4974Y6712D02*
X-1524Y6712D01*
X8539Y2856D02*
X8539Y2856D01*
X8478Y2860*
X8478Y2860*
X8476Y2860*
X8476Y2860*
X8475Y2860*
X8475Y2860*
X8474Y2860*
X8473Y2860*
X8472Y2860*
X8472Y2860*
X8471Y2860*
X8471Y2860*
X8469Y2860*
X8469Y2860*
X8468Y2861*
X8468Y2861*
X8466Y2861*
X8466Y2861*
X8465Y2861*
X8465Y2861*
X8463Y2861*
X8463Y2861*
X8462Y2861*
X8462Y2861*
X8461Y2861*
X8461Y2862*
X8459Y2862*
X8459Y2862*
X8458Y2862*
X8458Y2862*
X8456Y2862*
X8456Y2862*
X8455Y2862*
X8455Y2862*
X8454Y2863*
X8454Y2863*
X8452Y2863*
X8452Y2863*
X8451Y2863*
X8451Y2863*
X8449Y2863*
X8449Y2863*
X8448Y2864*
X8448Y2864*
X8447Y2864*
X8447Y2864*
X8445Y2864*
X8445Y2864*
X8444Y2864*
X8444Y2864*
X8442Y2865*
X8442Y2865*
X8441Y2865*
X8441Y2865*
X8439Y2865*
X8439Y2865*
X8438Y2866*
X8438Y2866*
X8437Y2866*
X8437Y2866*
X8435Y2866*
X8435Y2867*
X8434Y2867*
X8434Y2867*
X8433Y2867*
X8433Y2867*
X8431Y2868*
X8431Y2868*
X8430Y2868*
X8430Y2868*
X8428Y2868*
X8428Y2868*
X8427Y2869*
X8427Y2869*
X8426Y2869*
X8426Y2869*
X8424Y2870*
X8424Y2870*
X8423Y2870*
X8423Y2870*
X8422Y2870*
X8422Y2870*
X8420Y2871*
X8420Y2871*
X8419Y2871*
X8419Y2871*
X8417Y2872*
X8417Y2872*
X8416Y2872*
X8416Y2872*
X8415Y2873*
X8415Y2873*
X8413Y2873*
X8413Y2873*
X8412Y2874*
X8412Y2874*
X8411Y2874*
X8411Y2874*
X8410Y2875*
X8409Y2875*
X8408Y2875*
X8408Y2875*
X8407Y2876*
X8407Y2876*
X8405Y2876*
X8405Y2876*
X8404Y2877*
X8404Y2877*
X8403Y2877*
X8403Y2878*
X8402Y2878*
X8401Y2878*
X8400Y2879*
X8400Y2879*
X8399Y2879*
X8399Y2879*
X8397Y2880*
X8397Y2880*
X8396Y2880*
X8396Y2880*
X8395Y2881*
X8395Y2881*
X8394Y2882*
X8394Y2882*
X8392Y2882*
X8392Y2882*
X8391Y2883*
X8391Y2883*
X8390Y2883*
X8390Y2883*
X8388Y2884*
X8388Y2884*
X8387Y2885*
X8387Y2885*
X8386Y2885*
X8386Y2885*
X8385Y2886*
X8385Y2886*
X8383Y2887*
X8383Y2887*
X8382Y2887*
X8382Y2888*
X8381Y2888*
X8381Y2888*
X8380Y2889*
X8380Y2889*
X8378Y2890*
X8378Y2890*
X8377Y2890*
X8377Y2890*
X8376Y2891*
X8376Y2891*
X8375Y2892*
X8375Y2892*
X8374Y2892*
X8373Y2892*
X8372Y2893*
X8372Y2893*
X8371Y2894*
X8371Y2894*
X8370Y2895*
X8370Y2895*
X8369Y2896*
X8369Y2896*
X8367Y2896*
X8367Y2896*
X8366Y2897*
X8366Y2897*
X8365Y2898*
X8365Y2898*
X8364Y2899*
X8364Y2899*
X8363Y2899*
X8363Y2900*
X8361Y2900*
X8361Y2900*
X8360Y2901*
X8360Y2901*
X8359Y2902*
X8359Y2902*
X8358Y2903*
X8358Y2903*
X8357Y2904*
X8357Y2904*
X8356Y2904*
X8356Y2905*
X8355Y2905*
X8354Y2905*
X8353Y2906*
X8353Y2906*
X8352Y2907*
X8352Y2907*
X8351Y2908*
X8351Y2908*
X8350Y2909*
X8350Y2909*
X8349Y2910*
X8349Y2910*
X8348Y2911*
X8348Y2911*
X8347Y2912*
X8347Y2912*
X8345Y2913*
X8345Y2913*
X8344Y2913*
X8344Y2913*
X8343Y2914*
X8343Y2914*
X8342Y2915*
X8342Y2915*
X8341Y2916*
X8341Y2916*
X8340Y2917*
X8340Y2917*
X8339Y2918*
X8339Y2918*
X8338Y2919*
X8338Y2919*
X8337Y2920*
X8337Y2920*
X8336Y2921*
X8336Y2921*
X8335Y2922*
X8335Y2922*
X8334Y2923*
X8334Y2923*
X8333Y2924*
X8333Y2924*
X8332Y2925*
X8332Y2925*
X8331Y2926*
X8331Y2926*
X8330Y2927*
X8330Y2927*
X8329Y2928*
X8329Y2928*
X8328Y2929*
X8328Y2929*
X8327Y2930*
X8327Y2930*
X8326Y2931*
X8326Y2931*
X8325Y2932*
X8325Y2932*
X8324Y2933*
X8324Y2933*
X8323Y2934*
X8323Y2934*
X8322Y2935*
X8322Y2935*
X8321Y2936*
X8321Y2936*
X8320Y2938*
X8320Y2938*
X8319Y2939*
X8319Y2939*
X8318Y2940*
X8318Y2940*
X8317Y2941*
X8317Y2941*
X8316Y2942*
X8316Y2942*
X8315Y2943*
X8315Y2943*
X8314Y2944*
X8314Y2944*
X8314Y2945*
X8313Y2945*
X8313Y2946*
X8312Y2946*
X8312Y2947*
X8312Y2948*
X8311Y2949*
X8311Y2949*
X8310Y2950*
X8310Y2950*
X8309Y2951*
X8309Y2951*
X8308Y2952*
X8308Y2952*
X8307Y2953*
X8307Y2953*
X8306Y2954*
X8306Y2954*
X8306Y2955*
X8306Y2956*
X8305Y2957*
X8305Y2957*
X8304Y2958*
X8304Y2958*
X8303Y2959*
X8303Y2959*
X8302Y2960*
X8302Y2960*
X8302Y2961*
X8302Y2962*
X8301Y2963*
X8301Y2963*
X8300Y2964*
X8300Y2964*
X8299Y2965*
X8299Y2965*
X8299Y2966*
X8298Y2966*
X8298Y2968*
X8298Y2968*
X8297Y2969*
X8297Y2969*
X8296Y2970*
X8296Y2970*
X8296Y2971*
X8295Y2971*
X8295Y2972*
X8295Y2972*
X8294Y2974*
X8294Y2974*
X8021Y3447*
X7920Y3412*
X7898Y3427*
X7898Y4426*
X7746Y4426*
X7746Y3382*
X7733Y3367*
X7585Y3351*
X7568Y3366*
X7568Y3595*
X7416Y3595*
X7416Y3366*
X7399Y3351*
X7164Y3377*
X7161Y3378*
X6851Y3486*
X6849Y3488*
X6571Y3662*
X6568Y3664*
X6336Y3896*
X6334Y3899*
X6160Y4177*
X6158Y4179*
X6050Y4489*
X6049Y4492*
X6023Y4727*
X6038Y4744*
X6267Y4744*
X6267Y4896*
X6038Y4896*
X6023Y4913*
X6049Y5148*
X6050Y5151*
X6158Y5461*
X6160Y5463*
X6334Y5741*
X6336Y5744*
X6563Y5971*
X6294Y6438*
X6294Y6438*
X6293Y6439*
X6293Y6439*
X6293Y6440*
X6293Y6440*
X6292Y6441*
X6292Y6442*
X6291Y6443*
X6291Y6443*
X6291Y6444*
X6291Y6444*
X6290Y6445*
X6290Y6445*
X6289Y6447*
X6289Y6447*
X6289Y6448*
X6289Y6448*
X6288Y6449*
X6288Y6449*
X6287Y6450*
X6287Y6450*
X6287Y6452*
X6287Y6452*
X6286Y6453*
X6286Y6453*
X6285Y6454*
X6285Y6454*
X6285Y6456*
X6285Y6456*
X6284Y6457*
X6284Y6457*
X6284Y6458*
X6284Y6458*
X6283Y6460*
X6283Y6460*
X6282Y6461*
X6282Y6461*
X6282Y6462*
X6282Y6462*
X6281Y6464*
X6281Y6464*
X6281Y6465*
X6281Y6465*
X6280Y6466*
X6280Y6466*
X6280Y6467*
X6280Y6468*
X6279Y6469*
X6279Y6469*
X6279Y6470*
X6279Y6470*
X6278Y6471*
X6278Y6471*
X6278Y6473*
X6278Y6473*
X6277Y6474*
X6277Y6474*
X6277Y6476*
X6277Y6476*
X6276Y6477*
X6276Y6477*
X6276Y6478*
X6276Y6478*
X6275Y6480*
X6275Y6480*
X6275Y6481*
X6275Y6481*
X6274Y6482*
X6274Y6482*
X6274Y6484*
X6274Y6484*
X6273Y6485*
X6273Y6485*
X6273Y6486*
X6273Y6486*
X6273Y6488*
X6273Y6488*
X6272Y6489*
X6272Y6489*
X6272Y6490*
X6272Y6491*
X6271Y6492*
X6271Y6492*
X6271Y6493*
X6271Y6493*
X6271Y6495*
X6271Y6495*
X6270Y6496*
X6270Y6496*
X6270Y6497*
X6270Y6497*
X6270Y6499*
X6270Y6499*
X6269Y6500*
X6269Y6500*
X6269Y6502*
X6269Y6502*
X6269Y6503*
X6269Y6503*
X6268Y6505*
X6268Y6505*
X6268Y6506*
X6268Y6506*
X6268Y6507*
X6268Y6507*
X6268Y6509*
X6268Y6509*
X6267Y6510*
X6267Y6510*
X6267Y6512*
X6267Y6512*
X6267Y6513*
X6267Y6513*
X6267Y6514*
X6267Y6514*
X6266Y6516*
X6266Y6516*
X6266Y6517*
X6266Y6517*
X6266Y6519*
X6266Y6519*
X6266Y6520*
X6266Y6520*
X6265Y6521*
X6265Y6522*
X6265Y6523*
X6265Y6523*
X6265Y6524*
X6265Y6524*
X6265Y6526*
X6265Y6526*
X6265Y6527*
X6265Y6527*
X6265Y6529*
X6265Y6529*
X6264Y6530*
X6264Y6530*
X6264Y6531*
X6264Y6532*
X6264Y6533*
X6264Y6533*
X6264Y6534*
X6264Y6534*
X6264Y6536*
X6264Y6536*
X6264Y6537*
X6264Y6537*
X6264Y6539*
X6264Y6539*
X6264Y6540*
X6264Y6540*
X6264Y6541*
X6264Y6541*
X6264Y6543*
X6264Y6543*
X6264Y6544*
X6264Y6544*
X6263Y6546*
X6263Y6546*
X6263Y6547*
X6263Y6547*
X6263Y6549*
X6263Y6549*
X6263Y6550*
X6263Y6550*
X6263Y6551*
X6263Y6552*
X6263Y6553*
X6263Y6553*
X6263Y6554*
X6263Y6554*
X6263Y6556*
X6263Y6556*
X6263Y6557*
X6263Y6557*
X6263Y6559*
X6263Y6559*
X6264Y6560*
X6264Y6560*
X6264Y6561*
X6264Y6562*
X6264Y6563*
X6264Y6563*
X6264Y6564*
X6264Y6564*
X6264Y6566*
X6264Y6566*
X6264Y6567*
X6264Y6567*
X6264Y6569*
X6264Y6569*
X6264Y6570*
X6264Y6570*
X6264Y6572*
X6264Y6572*
X6264Y6573*
X6264Y6573*
X6264Y6574*
X6264Y6574*
X6265Y6576*
X6265Y6576*
X6265Y6577*
X6265Y6577*
X6265Y6579*
X6265Y6579*
X6265Y6580*
X6265Y6580*
X6265Y6581*
X6265Y6581*
X6265Y6583*
X6265Y6583*
X6266Y6584*
X6266Y6585*
X6266Y6586*
X6266Y6586*
X6266Y6587*
X6266Y6587*
X6266Y6589*
X6266Y6589*
X6267Y6590*
X6267Y6590*
X6267Y6591*
X6267Y6592*
X6267Y6593*
X6267Y6593*
X6267Y6594*
X6267Y6594*
X6268Y6596*
X6268Y6596*
X6268Y6597*
X6268Y6597*
X6268Y6598*
X6268Y6599*
X6268Y6600*
X6268Y6600*
X6269Y6601*
X6269Y6601*
X6269Y6603*
X6269Y6603*
X6269Y6604*
X6269Y6604*
X6270Y6605*
X6270Y6606*
X6270Y6607*
X6270Y6607*
X6270Y6608*
X6270Y6608*
X6271Y6610*
X6271Y6610*
X6271Y6611*
X6271Y6611*
X6272Y6612*
X6272Y6612*
X6272Y6614*
X6272Y6614*
X6272Y6615*
X6272Y6615*
X6273Y6617*
X6273Y6617*
X6273Y6618*
X6273Y6618*
X6274Y6619*
X6274Y6619*
X6274Y6621*
X6274Y6621*
X6274Y6622*
X6274Y6622*
X6275Y6623*
X6275Y6623*
X6275Y6625*
X6275Y6625*
X6276Y6626*
X6276Y6626*
X6276Y6628*
X6276Y6628*
X6294Y6679*
X1549Y6706*
X1549Y2648*
X1612Y2557*
X1614Y2554*
X1662Y2426*
X1663Y2423*
X1680Y2288*
X1680Y2284*
X1663Y2149*
X1662Y2146*
X1614Y2018*
X1612Y2015*
X1580Y1968*
X1580Y1464*
X1626Y1444*
X2107Y1918*
X2693Y2505*
X2694Y2505*
X2702Y2511*
X2708Y2519*
X2710Y2521*
X2758Y2561*
X2760Y2562*
X2815Y2592*
X2817Y2592*
X2877Y2611*
X2880Y2611*
X2941Y2617*
X2942Y2617*
X3651Y2617*
X3647Y2668*
X3647Y2668*
X3647Y3278*
X3662Y3293*
X3902Y3293*
X3902Y3445*
X3662Y3445*
X3647Y3460*
X3647Y4070*
X3647Y4071*
X3650Y4104*
X3650Y4106*
X3658Y4139*
X3659Y4141*
X3672Y4172*
X3673Y4174*
X3691Y4203*
X3692Y4205*
X3714Y4231*
X3715Y4232*
X3741Y4254*
X3743Y4255*
X3772Y4273*
X3774Y4274*
X3805Y4287*
X3807Y4288*
X3840Y4296*
X3842Y4296*
X3876Y4299*
X3877Y4299*
X4286Y4299*
X4301Y4284*
X4301Y4044*
X4453Y4044*
X4453Y4284*
X4468Y4299*
X4877Y4299*
X4878Y4299*
X4912Y4296*
X4914Y4296*
X4947Y4288*
X4949Y4287*
X4980Y4274*
X4982Y4273*
X5011Y4255*
X5013Y4254*
X5039Y4232*
X5040Y4231*
X5062Y4205*
X5063Y4203*
X5081Y4174*
X5082Y4172*
X5095Y4141*
X5096Y4139*
X5104Y4106*
X5104Y4104*
X5107Y4070*
X5107Y4069*
X5107Y3460*
X5092Y3445*
X4852Y3445*
X4852Y3293*
X5092Y3293*
X5107Y3278*
X5107Y2669*
X5107Y2668*
X5104Y2634*
X5104Y2632*
X5096Y2599*
X5095Y2597*
X5082Y2566*
X5081Y2564*
X5063Y2535*
X5062Y2533*
X5040Y2507*
X5039Y2506*
X5013Y2484*
X5011Y2483*
X4982Y2465*
X4980Y2464*
X4949Y2451*
X4947Y2450*
X4914Y2442*
X4912Y2442*
X4879Y2439*
X4878Y2439*
X4592Y2439*
X4572Y2392*
X4866Y2099*
X5827Y2099*
X5828Y2099*
X5862Y2096*
X5864Y2096*
X5897Y2088*
X5899Y2087*
X5930Y2074*
X5932Y2073*
X5961Y2055*
X5963Y2054*
X5989Y2032*
X5990Y2031*
X6012Y2005*
X6013Y2003*
X6031Y1974*
X6032Y1972*
X6045Y1941*
X6046Y1939*
X6054Y1906*
X6054Y1904*
X6057Y1870*
X6057Y1869*
X6057Y0469*
X6057Y0468*
X6054Y0434*
X6054Y0432*
X6046Y0399*
X6045Y0397*
X6032Y0366*
X6031Y0364*
X6013Y0335*
X6012Y0333*
X5990Y0307*
X5989Y0306*
X5963Y0284*
X5961Y0283*
X5932Y0265*
X5930Y0264*
X5899Y0251*
X5897Y0250*
X5864Y0242*
X5862Y0242*
X5829Y0239*
X5828Y0239*
X4826Y0239*
X4825Y0239*
X4792Y0242*
X4790Y0242*
X4757Y0250*
X4755Y0251*
X4724Y0264*
X4722Y0265*
X4693Y0283*
X4691Y0284*
X4665Y0306*
X4664Y0307*
X4642Y0333*
X4641Y0335*
X4623Y0364*
X4622Y0366*
X4609Y0397*
X4608Y0399*
X4600Y0432*
X4600Y0434*
X4597Y0467*
X4597Y0468*
X4597Y1430*
X4204Y1824*
X4157Y1804*
X4157Y0469*
X4157Y0468*
X4154Y0434*
X4154Y0432*
X4146Y0399*
X4145Y0397*
X4132Y0366*
X4131Y0364*
X4113Y0335*
X4112Y0333*
X4090Y0307*
X4089Y0306*
X4063Y0284*
X4061Y0283*
X4032Y0265*
X4030Y0264*
X3999Y0251*
X3997Y0250*
X3964Y0242*
X3962Y0242*
X3929Y0239*
X3928Y0239*
X2926Y0239*
X2925Y0239*
X2892Y0242*
X2890Y0242*
X2857Y0250*
X2855Y0251*
X2824Y0264*
X2822Y0265*
X2793Y0283*
X2791Y0284*
X2765Y0306*
X2764Y0307*
X2742Y0333*
X2741Y0335*
X2723Y0364*
X2722Y0366*
X2709Y0397*
X2708Y0399*
X2700Y0432*
X2700Y0434*
X2697Y0467*
X2697Y0468*
X2697Y0794*
X2650Y0814*
X0650Y-1187*
X0650Y-1573*
X0650Y-1574*
X0647Y-1608*
X0647Y-1610*
X0639Y-1643*
X0638Y-1645*
X0625Y-1676*
X0624Y-1678*
X0606Y-1707*
X0605Y-1709*
X0583Y-1735*
X0582Y-1736*
X0556Y-1758*
X0554Y-1759*
X0525Y-1777*
X0523Y-1778*
X0499Y-1788*
X0499Y-3066*
X1060Y-3628*
X1094Y-3614*
X1099Y-3613*
X1362Y-3613*
X1362Y-3461*
X1122Y-3461*
X1107Y-3446*
X1107Y-3086*
X1107Y-3085*
X1110Y-3052*
X1110Y-3050*
X1118Y-3017*
X1119Y-3015*
X1132Y-2984*
X1133Y-2982*
X1151Y-2953*
X1152Y-2951*
X1174Y-2925*
X1175Y-2924*
X1201Y-2902*
X1203Y-2901*
X1232Y-2883*
X1234Y-2882*
X1265Y-2869*
X1267Y-2868*
X1300Y-2860*
X1302Y-2860*
X1335Y-2857*
X1336Y-2857*
X1628Y-2857*
X1645Y-2804*
X1612Y-2781*
X1612Y-2781*
X1612Y-2781*
X1612Y-2781*
X1610Y-2780*
X1610Y-2780*
X1609Y-2779*
X1609Y-2779*
X1608Y-2778*
X1608Y-2778*
X1607Y-2777*
X1607Y-2777*
X1606Y-2776*
X1606Y-2776*
X1605Y-2776*
X1605Y-2776*
X1604Y-2775*
X1604Y-2775*
X1602Y-2774*
X1602Y-2774*
X1601Y-2773*
X1601Y-2773*
X1600Y-2772*
X1600Y-2772*
X1599Y-2771*
X1599Y-2771*
X1598Y-2770*
X1598Y-2770*
X1597Y-2769*
X1597Y-2769*
X1596Y-2768*
X1596Y-2768*
X1595Y-2768*
X1595Y-2767*
X1594Y-2767*
X1593Y-2766*
X1593Y-2766*
X1592Y-2766*
X1591Y-2765*
X1591Y-2765*
X1590Y-2764*
X1590Y-2764*
X1589Y-2763*
X1589Y-2763*
X1588Y-2762*
X1588Y-2762*
X1587Y-2761*
X1587Y-2761*
X1586Y-2760*
X1586Y-2760*
X1585Y-2759*
X1585Y-2759*
X1584Y-2758*
X1584Y-2758*
X1583Y-2757*
X1583Y-2757*
X1582Y-2756*
X1582Y-2756*
X1512Y-2686*
X1483Y-2660*
X1481Y-2658*
X1474Y-2648*
X1471Y-2645*
X1471Y-2645*
X1471Y-2644*
X1471Y-2644*
X1470Y-2643*
X1469Y-2643*
X1469Y-2642*
X1468Y-2642*
X1468Y-2641*
X1468Y-2641*
X1467Y-2640*
X1467Y-2640*
X1466Y-2639*
X1466Y-2639*
X1465Y-2638*
X1465Y-2637*
X1464Y-2637*
X1464Y-2637*
X1463Y-2635*
X1463Y-2635*
X1462Y-2634*
X1462Y-2634*
X1461Y-2633*
X1461Y-2633*
X1460Y-2632*
X1460Y-2632*
X1459Y-2631*
X1459Y-2631*
X1458Y-2630*
X1458Y-2630*
X1458Y-2629*
X1458Y-2629*
X1457Y-2628*
X1457Y-2627*
X1456Y-2626*
X1456Y-2626*
X1455Y-2625*
X1455Y-2625*
X1454Y-2624*
X1454Y-2624*
X1453Y-2623*
X1453Y-2623*
X1452Y-2622*
X1452Y-2622*
X1452Y-2621*
X1452Y-2621*
X1367Y-2499*
X1367Y-2499*
X1366Y-2498*
X1366Y-2498*
X1365Y-2497*
X1365Y-2497*
X1364Y-2496*
X1364Y-2496*
X1364Y-2495*
X1364Y-2495*
X1363Y-2493*
X1363Y-2493*
X1362Y-2492*
X1362Y-2492*
X1361Y-2491*
X1361Y-2491*
X1360Y-2490*
X1360Y-2490*
X1360Y-2489*
X1360Y-2489*
X1359Y-2487*
X1359Y-2487*
X1358Y-2486*
X1358Y-2486*
X1357Y-2485*
X1357Y-2485*
X1357Y-2484*
X1357Y-2484*
X1356Y-2482*
X1356Y-2482*
X1355Y-2481*
X1355Y-2481*
X1355Y-2480*
X1355Y-2480*
X1354Y-2479*
X1354Y-2479*
X1353Y-2478*
X1353Y-2477*
X1352Y-2476*
X1352Y-2476*
X1352Y-2475*
X1352Y-2475*
X1351Y-2474*
X1351Y-2474*
X1351Y-2472*
X1350Y-2472*
X1350Y-2471*
X1350Y-2471*
X1349Y-2470*
X1349Y-2470*
X1349Y-2469*
X1349Y-2468*
X1348Y-2467*
X1348Y-2467*
X1347Y-2466*
X1347Y-2466*
X1347Y-2465*
X1347Y-2465*
X1345Y-2461*
X1335Y-2446*
X1333Y-2443*
X1318Y-2404*
X1284Y-2330*
X1284Y-2330*
X1284Y-2329*
X1284Y-2329*
X1283Y-2328*
X1283Y-2328*
X1282Y-2327*
X1282Y-2327*
X1282Y-2325*
X1282Y-2325*
X1281Y-2324*
X1281Y-2324*
X1281Y-2323*
X1281Y-2323*
X1280Y-2321*
X1280Y-2321*
X1280Y-2320*
X1280Y-2320*
X1279Y-2319*
X1279Y-2319*
X1278Y-2317*
X1278Y-2317*
X1278Y-2316*
X1278Y-2316*
X1278Y-2315*
X1278Y-2315*
X1277Y-2313*
X1277Y-2313*
X1277Y-2312*
X1277Y-2312*
X1276Y-2311*
X1276Y-2311*
X1275Y-2309*
X1275Y-2309*
X1275Y-2308*
X1275Y-2308*
X1275Y-2307*
X1275Y-2307*
X1274Y-2305*
X1274Y-2305*
X1274Y-2304*
X1274Y-2304*
X1273Y-2303*
X1273Y-2303*
X1273Y-2301*
X1273Y-2301*
X1272Y-2300*
X1272Y-2300*
X1272Y-2298*
X1272Y-2298*
X1272Y-2297*
X1272Y-2297*
X1271Y-2296*
X1271Y-2296*
X1271Y-2294*
X1271Y-2294*
X1270Y-2293*
X1270Y-2293*
X1256Y-2240*
X1242Y-2203*
X1241Y-2200*
X1238Y-2172*
X1232Y-2150*
X1232Y-2150*
X1232Y-2149*
X1232Y-2149*
X1231Y-2147*
X1231Y-2147*
X1231Y-2146*
X1231Y-2146*
X1231Y-2144*
X1231Y-2144*
X1230Y-2143*
X1230Y-2143*
X1230Y-2142*
X1230Y-2142*
X1230Y-2140*
X1230Y-2140*
X1229Y-2139*
X1229Y-2139*
X1229Y-2138*
X1229Y-2137*
X1229Y-2136*
X1229Y-2136*
X1229Y-2135*
X1229Y-2135*
X1228Y-2133*
X1228Y-2133*
X1228Y-2132*
X1228Y-2132*
X1228Y-2130*
X1228Y-2130*
X1228Y-2129*
X1228Y-2129*
X1227Y-2128*
X1227Y-2128*
X1227Y-2126*
X1227Y-2126*
X1227Y-2125*
X1227Y-2125*
X1227Y-2123*
X1227Y-2123*
X1226Y-2122*
X1226Y-2122*
X1226Y-2121*
X1226Y-2120*
X1226Y-2119*
X1226Y-2119*
X1226Y-2118*
X1226Y-2118*
X1226Y-2116*
X1226Y-2116*
X1226Y-2115*
X1226Y-2115*
X1225Y-2113*
X1225Y-2113*
X1225Y-2112*
X1225Y-2112*
X1225Y-2110*
X1225Y-2110*
X1219Y-2036*
X1234Y-2019*
X1465Y-2019*
X1465Y-1867*
X1234Y-1867*
X1219Y-1850*
X1225Y-1776*
X1225Y-1776*
X1225Y-1774*
X1225Y-1774*
X1225Y-1773*
X1225Y-1773*
X1226Y-1772*
X1226Y-1771*
X1226Y-1770*
X1226Y-1770*
X1226Y-1769*
X1226Y-1769*
X1226Y-1767*
X1226Y-1767*
X1226Y-1766*
X1226Y-1766*
X1226Y-1765*
X1226Y-1764*
X1227Y-1763*
X1227Y-1763*
X1227Y-1762*
X1227Y-1761*
X1227Y-1760*
X1227Y-1760*
X1227Y-1759*
X1227Y-1759*
X1228Y-1757*
X1228Y-1757*
X1228Y-1756*
X1228Y-1756*
X1228Y-1755*
X1228Y-1754*
X1228Y-1753*
X1228Y-1753*
X1229Y-1752*
X1229Y-1752*
X1229Y-1750*
X1229Y-1750*
X1229Y-1749*
X1229Y-1749*
X1229Y-1747*
X1229Y-1747*
X1230Y-1746*
X1230Y-1746*
X1230Y-1745*
X1230Y-1745*
X1230Y-1743*
X1230Y-1743*
X1231Y-1742*
X1231Y-1742*
X1231Y-1740*
X1231Y-1740*
X1231Y-1739*
X1231Y-1739*
X1232Y-1738*
X1232Y-1738*
X1232Y-1736*
X1232Y-1736*
X1238Y-1714*
X1241Y-1686*
X1242Y-1683*
X1256Y-1646*
X1270Y-1593*
X1270Y-1593*
X1271Y-1592*
X1271Y-1592*
X1271Y-1591*
X1271Y-1591*
X1272Y-1589*
X1272Y-1589*
X1272Y-1588*
X1272Y-1588*
X1272Y-1587*
X1272Y-1586*
X1273Y-1585*
X1273Y-1585*
X1273Y-1584*
X1273Y-1584*
X1274Y-1582*
X1274Y-1582*
X1274Y-1581*
X1274Y-1581*
X1275Y-1580*
X1275Y-1580*
X1275Y-1578*
X1275Y-1578*
X1275Y-1577*
X1275Y-1577*
X1276Y-1576*
X1276Y-1576*
X1276Y-1574*
X1276Y-1574*
X1277Y-1573*
X1277Y-1573*
X1277Y-1572*
X1277Y-1572*
X1278Y-1570*
X1278Y-1570*
X1278Y-1569*
X1278Y-1569*
X1279Y-1568*
X1279Y-1567*
X1279Y-1566*
X1280Y-1566*
X1280Y-1565*
X1280Y-1565*
X1281Y-1564*
X1281Y-1563*
X1281Y-1562*
X1281Y-1562*
X1282Y-1561*
X1282Y-1561*
X1282Y-1560*
X1282Y-1560*
X1283Y-1558*
X1283Y-1558*
X1283Y-1557*
X1284Y-1557*
X1284Y-1556*
X1284Y-1556*
X1318Y-1482*
X1333Y-1443*
X1335Y-1440*
X1345Y-1425*
X1347Y-1421*
X1347Y-1421*
X1347Y-1420*
X1347Y-1420*
X1348Y-1419*
X1348Y-1419*
X1348Y-1418*
X1348Y-1418*
X1349Y-1416*
X1349Y-1416*
X1350Y-1415*
X1350Y-1415*
X1350Y-1414*
X1350Y-1414*
X1351Y-1413*
X1351Y-1413*
X1352Y-1412*
X1352Y-1411*
X1352Y-1410*
X1352Y-1410*
X1353Y-1409*
X1353Y-1409*
X1354Y-1408*
X1354Y-1408*
X1354Y-1406*
X1354Y-1406*
X1355Y-1405*
X1355Y-1405*
X1356Y-1404*
X1356Y-1404*
X1357Y-1403*
X1357Y-1403*
X1357Y-1401*
X1357Y-1401*
X1358Y-1400*
X1358Y-1400*
X1359Y-1399*
X1359Y-1399*
X1360Y-1398*
X1360Y-1398*
X1360Y-1396*
X1360Y-1396*
X1361Y-1395*
X1361Y-1395*
X1362Y-1394*
X1362Y-1394*
X1362Y-1393*
X1363Y-1393*
X1363Y-1392*
X1363Y-1392*
X1364Y-1391*
X1364Y-1390*
X1365Y-1389*
X1365Y-1389*
X1366Y-1388*
X1366Y-1388*
X1367Y-1387*
X1367Y-1387*
X1452Y-1265*
X1452Y-1265*
X1452Y-1265*
X1452Y-1265*
X1453Y-1263*
X1453Y-1263*
X1454Y-1262*
X1454Y-1262*
X1455Y-1261*
X1455Y-1261*
X1456Y-1260*
X1456Y-1260*
X1457Y-1259*
X1457Y-1259*
X1457Y-1258*
X1457Y-1258*
X1458Y-1257*
X1458Y-1257*
X1459Y-1255*
X1459Y-1255*
X1460Y-1254*
X1460Y-1254*
X1461Y-1253*
X1461Y-1253*
X1462Y-1252*
X1462Y-1252*
X1463Y-1251*
X1463Y-1251*
X1464Y-1250*
X1464Y-1250*
X1465Y-1249*
X1465Y-1249*
X1465Y-1248*
X1466Y-1248*
X1466Y-1247*
X1467Y-1246*
X1467Y-1246*
X1467Y-1245*
X1468Y-1244*
X1468Y-1244*
X1469Y-1243*
X1469Y-1243*
X1470Y-1242*
X1470Y-1242*
X1471Y-1241*
X1471Y-1241*
X1474Y-1238*
X1481Y-1228*
X1483Y-1226*
X1512Y-1200*
X1582Y-1130*
X1582Y-1130*
X1583Y-1129*
X1583Y-1129*
X1584Y-1128*
X1584Y-1128*
X1585Y-1127*
X1585Y-1127*
X1586Y-1126*
X1586Y-1126*
X1587Y-1125*
X1587Y-1125*
X1588Y-1124*
X1588Y-1124*
X1589Y-1124*
X1589Y-1124*
X1590Y-1123*
X1590Y-1122*
X1591Y-1122*
X1591Y-1121*
X1592Y-1121*
X1592Y-1120*
X1593Y-1120*
X1593Y-1120*
X1594Y-1119*
X1594Y-1119*
X1595Y-1118*
X1596Y-1118*
X1596Y-1117*
X1596Y-1117*
X1598Y-1116*
X1598Y-1116*
X1599Y-1115*
X1599Y-1115*
X1600Y-1114*
X1600Y-1114*
X1601Y-1113*
X1601Y-1113*
X1602Y-1112*
X1602Y-1112*
X1603Y-1111*
X1603Y-1111*
X1604Y-1111*
X1604Y-1111*
X1605Y-1110*
X1606Y-1110*
X1607Y-1109*
X1607Y-1109*
X1608Y-1108*
X1608Y-1108*
X1609Y-1107*
X1609Y-1107*
X1610Y-1106*
X1610Y-1106*
X1611Y-1105*
X1611Y-1105*
X1612Y-1105*
X1612Y-1105*
X1648Y-1080*
X1675Y-1055*
X1678Y-1054*
X1707Y-1038*
X1734Y-1020*
X1734Y-1020*
X1735Y-1019*
X1735Y-1019*
X1736Y-1018*
X1736Y-1018*
X1737Y-1017*
X1737Y-1017*
X1738Y-1017*
X1738Y-1017*
X1740Y-1016*
X1740Y-1016*
X1741Y-1015*
X1741Y-1015*
X1742Y-1014*
X1742Y-1014*
X1743Y-1013*
X1743Y-1013*
X1744Y-1013*
X1744Y-1013*
X1746Y-1012*
X1746Y-1012*
X1747Y-1011*
X1747Y-1011*
X1748Y-1010*
X1748Y-1010*
X1749Y-1010*
X1749Y-1010*
X1751Y-1009*
X1751Y-1009*
X1752Y-1008*
X1752Y-1008*
X1753Y-1008*
X1753Y-1007*
X1754Y-1007*
X1754Y-1007*
X1755Y-1006*
X1756Y-1006*
X1757Y-1005*
X1757Y-1005*
X1758Y-1005*
X1758Y-1005*
X1759Y-1004*
X1759Y-1004*
X1761Y-1004*
X1761Y-1003*
X1762Y-1003*
X1762Y-1003*
X1763Y-1002*
X1763Y-1002*
X1764Y-1002*
X1765Y-1002*
X1766Y-1001*
X1766Y-1001*
X1767Y-1000*
X1767Y-1000*
X1768Y-1000*
X1768Y-1000*
X1879Y-0948*
X1906Y-0934*
X1909Y-0933*
X1917Y-0931*
X1920Y-0930*
X1920Y-0930*
X1921Y-0930*
X1921Y-0930*
X1922Y-0929*
X1922Y-0929*
X1924Y-0929*
X1924Y-0928*
X1925Y-0928*
X1925Y-0928*
X1926Y-0928*
X1926Y-0928*
X1928Y-0927*
X1928Y-0927*
X1929Y-0927*
X1929Y-0927*
X1930Y-0926*
X1930Y-0926*
X1932Y-0926*
X1932Y-0926*
X1933Y-0925*
X1933Y-0925*
X1935Y-0925*
X1935Y-0925*
X1936Y-0925*
X1936Y-0925*
X1937Y-0924*
X1937Y-0924*
X1939Y-0924*
X1939Y-0924*
X1940Y-0923*
X1940Y-0923*
X2083Y-0885*
X2083Y-0885*
X2084Y-0885*
X2084Y-0885*
X2086Y-0884*
X2086Y-0884*
X2087Y-0884*
X2087Y-0884*
X2089Y-0884*
X2089Y-0884*
X2090Y-0883*
X2090Y-0883*
X2091Y-0883*
X2091Y-0883*
X2093Y-0883*
X2093Y-0883*
X2094Y-0882*
X2094Y-0882*
X2095Y-0882*
X2096Y-0882*
X2097Y-0882*
X2097Y-0882*
X2098Y-0882*
X2098Y-0882*
X2100Y-0881*
X2100Y-0881*
X2101Y-0881*
X2101Y-0881*
X2103Y-0881*
X2103Y-0881*
X2104Y-0881*
X2104Y-0881*
X2105Y-0880*
X2105Y-0880*
X2107Y-0880*
X2107Y-0880*
X2108Y-0880*
X2108Y-0880*
X2110Y-0880*
X2110Y-0880*
X2111Y-0879*
X2111Y-0879*
X2113Y-0879*
X2113Y-0879*
X2114Y-0879*
X2114Y-0879*
X2115Y-0879*
X2115Y-0879*
X2117Y-0879*
X2117Y-0879*
X2118Y-0879*
X2118Y-0879*
X2120Y-0878*
X2120Y-0878*
X2121Y-0878*
X2121Y-0878*
X2122Y-0878*
X2122Y-0878*
X2136Y-0877*
X2158Y-0871*
X2161Y-0871*
X2199Y-0871*
X2214Y-0886*
X2214Y-1125*
X2366Y-1125*
X2366Y-0879*
X2381Y-0864*
X3199Y-0864*
X3214Y-0879*
X3214Y-1118*
X3366Y-1118*
X3366Y-0879*
X3381Y-0864*
X4199Y-0864*
X4214Y-0879*
X4214Y-1125*
X4366Y-1125*
X4366Y-0886*
X4381Y-0871*
X4419Y-0871*
X4422Y-0871*
X4444Y-0877*
X4458Y-0878*
X4458Y-0878*
X4459Y-0878*
X4459Y-0878*
X4460Y-0878*
X4460Y-0878*
X4461Y-0879*
X4462Y-0879*
X4463Y-0879*
X4463Y-0879*
X4464Y-0879*
X4464Y-0879*
X4466Y-0879*
X4466Y-0879*
X4467Y-0879*
X4467Y-0879*
X4469Y-0879*
X4469Y-0879*
X4470Y-0880*
X4470Y-0880*
X4471Y-0880*
X4472Y-0880*
X4473Y-0880*
X4473Y-0880*
X4474Y-0880*
X4474Y-0880*
X4476Y-0881*
X4476Y-0881*
X4477Y-0881*
X4477Y-0881*
X4478Y-0881*
X4479Y-0881*
X4480Y-0881*
X4480Y-0881*
X4481Y-0882*
X4481Y-0882*
X4483Y-0882*
X4483Y-0882*
X4484Y-0882*
X4484Y-0882*
X4486Y-0882*
X4486Y-0882*
X4487Y-0883*
X4487Y-0883*
X4488Y-0883*
X4488Y-0883*
X4490Y-0883*
X4490Y-0883*
X4491Y-0884*
X4491Y-0884*
X4493Y-0884*
X4493Y-0884*
X4494Y-0884*
X4494Y-0884*
X4495Y-0885*
X4496Y-0885*
X4497Y-0885*
X4497Y-0885*
X4640Y-0923*
X4640Y-0923*
X4641Y-0924*
X4641Y-0924*
X4642Y-0924*
X4642Y-0924*
X4644Y-0925*
X4644Y-0925*
X4645Y-0925*
X4645Y-0925*
X4646Y-0925*
X4647Y-0925*
X4648Y-0926*
X4648Y-0926*
X4649Y-0926*
X4649Y-0926*
X4651Y-0927*
X4651Y-0927*
X4652Y-0927*
X4652Y-0927*
X4653Y-0928*
X4653Y-0928*
X4655Y-0928*
X4655Y-0928*
X4656Y-0928*
X4656Y-0928*
X4657Y-0929*
X4657Y-0929*
X4659Y-0929*
X4659Y-0929*
X4660Y-0930*
X4660Y-0930*
X4663Y-0931*
X4671Y-0933*
X4674Y-0934*
X4701Y-0948*
X4812Y-1000*
X4812Y-1000*
X4813Y-1000*
X4813Y-1000*
X4814Y-1001*
X4814Y-1001*
X4815Y-1001*
X4815Y-1001*
X4817Y-1002*
X4817Y-1002*
X4818Y-1003*
X4818Y-1003*
X4819Y-1003*
X4819Y-1003*
X4820Y-1004*
X4820Y-1004*
X4822Y-1005*
X4822Y-1005*
X4823Y-1005*
X4823Y-1005*
X4824Y-1006*
X4824Y-1006*
X4825Y-1007*
X4825Y-1007*
X4827Y-1007*
X4827Y-1007*
X4828Y-1008*
X4828Y-1008*
X4829Y-1009*
X4829Y-1009*
X4830Y-1010*
X4830Y-1010*
X4832Y-1010*
X4832Y-1010*
X4833Y-1011*
X4833Y-1011*
X4834Y-1012*
X4834Y-1012*
X4835Y-1013*
X4835Y-1013*
X4837Y-1013*
X4837Y-1013*
X4838Y-1014*
X4838Y-1014*
X4839Y-1015*
X4839Y-1015*
X4840Y-1016*
X4840Y-1016*
X4841Y-1016*
X4841Y-1016*
X4842Y-1017*
X4843Y-1017*
X4844Y-1018*
X4844Y-1018*
X4845Y-1019*
X4845Y-1019*
X4846Y-1020*
X4846Y-1020*
X4873Y-1038*
X4902Y-1054*
X4905Y-1055*
X4932Y-1080*
X4968Y-1105*
X4968Y-1105*
X4968Y-1105*
X4969Y-1105*
X4970Y-1106*
X4970Y-1106*
X4971Y-1107*
X4971Y-1107*
X4972Y-1108*
X4972Y-1108*
X4973Y-1109*
X4973Y-1109*
X4974Y-1110*
X4974Y-1110*
X4975Y-1110*
X4975Y-1110*
X4976Y-1111*
X4976Y-1111*
X4978Y-1112*
X4978Y-1112*
X4979Y-1113*
X4979Y-1113*
X4980Y-1114*
X4980Y-1114*
X4981Y-1115*
X4981Y-1115*
X4982Y-1116*
X4982Y-1116*
X4983Y-1117*
X4983Y-1117*
X4984Y-1118*
X4984Y-1118*
X4985Y-1118*
X4985Y-1119*
X4986Y-1119*
X4987Y-1120*
X4988Y-1120*
X4988Y-1120*
X4989Y-1121*
X4989Y-1121*
X4990Y-1122*
X4990Y-1122*
X4991Y-1123*
X4991Y-1123*
X4992Y-1124*
X4992Y-1124*
X4993Y-1125*
X4993Y-1125*
X4994Y-1126*
X4994Y-1126*
X4995Y-1127*
X4995Y-1127*
X4996Y-1128*
X4996Y-1128*
X4997Y-1129*
X4997Y-1129*
X4998Y-1130*
X4998Y-1130*
X5068Y-1200*
X5097Y-1226*
X5099Y-1228*
X5106Y-1238*
X5109Y-1241*
X5109Y-1241*
X5109Y-1242*
X5109Y-1242*
X5111Y-1243*
X5111Y-1243*
X5111Y-1244*
X5112Y-1244*
X5112Y-1245*
X5113Y-1245*
X5113Y-1246*
X5113Y-1246*
X5114Y-1247*
X5114Y-1247*
X5115Y-1249*
X5115Y-1249*
X5116Y-1249*
X5116Y-1250*
X5117Y-1251*
X5117Y-1251*
X5118Y-1252*
X5118Y-1252*
X5119Y-1253*
X5119Y-1253*
X5120Y-1254*
X5120Y-1254*
X5121Y-1255*
X5121Y-1255*
X5122Y-1256*
X5122Y-1256*
X5122Y-1257*
X5123Y-1257*
X5123Y-1258*
X5123Y-1259*
X5124Y-1260*
X5124Y-1260*
X5125Y-1261*
X5125Y-1261*
X5126Y-1262*
X5126Y-1262*
X5127Y-1263*
X5127Y-1263*
X5128Y-1264*
X5128Y-1264*
X5128Y-1265*
X5128Y-1265*
X5213Y-1387*
X5213Y-1387*
X5214Y-1388*
X5214Y-1388*
X5215Y-1389*
X5215Y-1389*
X5216Y-1390*
X5216Y-1390*
X5216Y-1391*
X5216Y-1391*
X5217Y-1393*
X5217Y-1393*
X5218Y-1394*
X5218Y-1394*
X5219Y-1395*
X5219Y-1395*
X5220Y-1396*
X5220Y-1396*
X5220Y-1397*
X5220Y-1397*
X5221Y-1399*
X5221Y-1399*
X5222Y-1400*
X5222Y-1400*
X5223Y-1401*
X5223Y-1401*
X5223Y-1402*
X5223Y-1402*
X5224Y-1404*
X5224Y-1404*
X5225Y-1405*
X5225Y-1405*
X5225Y-1406*
X5226Y-1406*
X5226Y-1407*
X5226Y-1407*
X5227Y-1408*
X5227Y-1409*
X5228Y-1410*
X5228Y-1410*
X5228Y-1411*
X5228Y-1411*
X5229Y-1412*
X5229Y-1412*
X5230Y-1414*
X5230Y-1414*
X5230Y-1415*
X5230Y-1415*
X5231Y-1416*
X5231Y-1416*
X5231Y-1418*
X5231Y-1418*
X5232Y-1419*
X5232Y-1419*
X5233Y-1420*
X5233Y-1420*
X5233Y-1421*
X5233Y-1421*
X5235Y-1425*
X5245Y-1440*
X5247Y-1443*
X5262Y-1482*
X5296Y-1556*
X5296Y-1556*
X5296Y-1557*
X5296Y-1557*
X5297Y-1558*
X5297Y-1558*
X5298Y-1559*
X5298Y-1559*
X5298Y-1561*
X5298Y-1561*
X5299Y-1562*
X5299Y-1562*
X5299Y-1563*
X5299Y-1563*
X5300Y-1565*
X5300Y-1565*
X5300Y-1566*
X5300Y-1566*
X5301Y-1567*
X5301Y-1567*
X5302Y-1569*
X5302Y-1569*
X5302Y-1570*
X5302Y-1570*
X5302Y-1571*
X5302Y-1571*
X5303Y-1573*
X5303Y-1573*
X5303Y-1574*
X5303Y-1574*
X5304Y-1575*
X5304Y-1575*
X5305Y-1577*
X5305Y-1577*
X5305Y-1578*
X5305Y-1578*
X5305Y-1579*
X5305Y-1579*
X5306Y-1581*
X5306Y-1581*
X5306Y-1582*
X5306Y-1582*
X5307Y-1583*
X5307Y-1584*
X5307Y-1585*
X5307Y-1585*
X5308Y-1586*
X5308Y-1586*
X5308Y-1588*
X5308Y-1588*
X5308Y-1589*
X5308Y-1589*
X5309Y-1590*
X5309Y-1590*
X5309Y-1592*
X5309Y-1592*
X5310Y-1593*
X5310Y-1593*
X5324Y-1646*
X5338Y-1683*
X5339Y-1686*
X5342Y-1714*
X5348Y-1736*
X5348Y-1736*
X5348Y-1737*
X5348Y-1737*
X5349Y-1739*
X5349Y-1739*
X5349Y-1740*
X5349Y-1740*
X5349Y-1742*
X5349Y-1742*
X5350Y-1743*
X5350Y-1743*
X5350Y-1744*
X5350Y-1744*
X5350Y-1746*
X5350Y-1746*
X5351Y-1747*
X5351Y-1747*
X5351Y-1749*
X5351Y-1749*
X5351Y-1750*
X5351Y-1750*
X5351Y-1751*
X5351Y-1751*
X5352Y-1753*
X5352Y-1753*
X5352Y-1754*
X5352Y-1754*
X5352Y-1756*
X5352Y-1756*
X5352Y-1757*
X5352Y-1757*
X5353Y-1758*
X5353Y-1758*
X5353Y-1760*
X5353Y-1760*
X5353Y-1761*
X5353Y-1761*
X5353Y-1763*
X5353Y-1763*
X5354Y-1764*
X5354Y-1764*
X5354Y-1766*
X5354Y-1766*
X5354Y-1767*
X5354Y-1767*
X5354Y-1768*
X5354Y-1768*
X5354Y-1770*
X5354Y-1770*
X5354Y-1771*
X5354Y-1771*
X5355Y-1773*
X5355Y-1773*
X5355Y-1774*
X5355Y-1774*
X5355Y-1776*
X5355Y-1776*
X5361Y-1850*
X5346Y-1867*
X5115Y-1867*
X5115Y-2019*
X5346Y-2019*
X5361Y-2036*
X5355Y-2111*
X5355Y-2111*
X5355Y-2112*
X5355Y-2112*
X5355Y-2113*
X5355Y-2113*
X5354Y-2114*
X5354Y-2114*
X5354Y-2116*
X5354Y-2116*
X5354Y-2117*
X5354Y-2117*
X5354Y-2119*
X5354Y-2119*
X5354Y-2120*
X5354Y-2120*
X5354Y-2121*
X5354Y-2122*
X5353Y-2123*
X5353Y-2123*
X5353Y-2125*
X5353Y-2125*
X5353Y-2126*
X5353Y-2126*
X5353Y-2127*
X5353Y-2127*
X5352Y-2129*
X5352Y-2129*
X5352Y-2130*
X5352Y-2130*
X5352Y-2131*
X5352Y-2132*
X5352Y-2133*
X5352Y-2133*
X5351Y-2134*
X5351Y-2134*
X5351Y-2136*
X5351Y-2136*
X5351Y-2137*
X5351Y-2137*
X5351Y-2139*
X5351Y-2139*
X5350Y-2140*
X5350Y-2140*
X5350Y-2141*
X5350Y-2142*
X5350Y-2143*
X5350Y-2143*
X5349Y-2144*
X5349Y-2144*
X5349Y-2146*
X5349Y-2146*
X5349Y-2147*
X5349Y-2147*
X5348Y-2148*
X5348Y-2148*
X5348Y-2150*
X5348Y-2150*
X5342Y-2172*
X5339Y-2200*
X5338Y-2203*
X5324Y-2240*
X5310Y-2293*
X5310Y-2293*
X5309Y-2294*
X5309Y-2294*
X5309Y-2295*
X5309Y-2295*
X5308Y-2297*
X5308Y-2297*
X5308Y-2298*
X5308Y-2298*
X5308Y-2299*
X5308Y-2300*
X5307Y-2301*
X5307Y-2301*
X5307Y-2302*
X5307Y-2302*
X5306Y-2304*
X5306Y-2304*
X5306Y-2305*
X5306Y-2305*
X5305Y-2306*
X5305Y-2306*
X5305Y-2308*
X5305Y-2308*
X5305Y-2309*
X5304Y-2309*
X5304Y-2310*
X5304Y-2310*
X5304Y-2312*
X5304Y-2312*
X5303Y-2313*
X5303Y-2313*
X5303Y-2314*
X5303Y-2314*
X5302Y-2316*
X5302Y-2316*
X5302Y-2317*
X5302Y-2317*
X5301Y-2319*
X5301Y-2319*
X5301Y-2320*
X5300Y-2320*
X5300Y-2321*
X5300Y-2321*
X5299Y-2322*
X5299Y-2323*
X5299Y-2324*
X5299Y-2324*
X5298Y-2325*
X5298Y-2325*
X5298Y-2326*
X5298Y-2326*
X5297Y-2328*
X5297Y-2328*
X5297Y-2329*
X5296Y-2329*
X5296Y-2330*
X5296Y-2330*
X5262Y-2404*
X5247Y-2443*
X5245Y-2446*
X5235Y-2461*
X5233Y-2465*
X5233Y-2465*
X5233Y-2465*
X5233Y-2466*
X5232Y-2467*
X5232Y-2467*
X5232Y-2468*
X5232Y-2468*
X5231Y-2470*
X5231Y-2470*
X5230Y-2471*
X5230Y-2471*
X5230Y-2472*
X5230Y-2472*
X5229Y-2473*
X5229Y-2473*
X5228Y-2475*
X5228Y-2475*
X5228Y-2476*
X5228Y-2476*
X5227Y-2477*
X5227Y-2477*
X5226Y-2478*
X5226Y-2478*
X5226Y-2480*
X5226Y-2480*
X5225Y-2481*
X5225Y-2481*
X5224Y-2482*
X5224Y-2482*
X5223Y-2483*
X5223Y-2484*
X5223Y-2485*
X5223Y-2485*
X5222Y-2486*
X5222Y-2486*
X5221Y-2487*
X5221Y-2487*
X5220Y-2488*
X5220Y-2488*
X5220Y-2490*
X5220Y-2490*
X5219Y-2491*
X5219Y-2491*
X5218Y-2492*
X5218Y-2492*
X5218Y-2493*
X5217Y-2493*
X5217Y-2494*
X5217Y-2494*
X5216Y-2495*
X5216Y-2496*
X5215Y-2497*
X5215Y-2497*
X5214Y-2498*
X5214Y-2498*
X5213Y-2499*
X5213Y-2499*
X5128Y-2621*
X5128Y-2621*
X5128Y-2621*
X5128Y-2621*
X5127Y-2623*
X5127Y-2623*
X5126Y-2624*
X5126Y-2624*
X5125Y-2625*
X5125Y-2625*
X5124Y-2626*
X5124Y-2626*
X5123Y-2627*
X5123Y-2627*
X5123Y-2628*
X5123Y-2628*
X5122Y-2629*
X5122Y-2629*
X5121Y-2631*
X5121Y-2631*
X5120Y-2632*
X5120Y-2632*
X5119Y-2633*
X5119Y-2633*
X5118Y-2634*
X5118Y-2634*
X5117Y-2635*
X5117Y-2635*
X5116Y-2636*
X5116Y-2636*
X5115Y-2637*
X5115Y-2637*
X5114Y-2638*
X5114Y-2638*
X5114Y-2639*
X5113Y-2640*
X5113Y-2641*
X5113Y-2641*
X5112Y-2642*
X5112Y-2642*
X5111Y-2643*
X5111Y-2643*
X5110Y-2644*
X5110Y-2644*
X5109Y-2645*
X5109Y-2645*
X5106Y-2648*
X5099Y-2658*
X5097Y-2660*
X5068Y-2686*
X4998Y-2756*
X4998Y-2756*
X4997Y-2757*
X4997Y-2757*
X4996Y-2758*
X4996Y-2758*
X4995Y-2759*
X4995Y-2759*
X4994Y-2760*
X4994Y-2760*
X4993Y-2761*
X4993Y-2761*
X4992Y-2762*
X4992Y-2762*
X4991Y-2762*
X4991Y-2762*
X4990Y-2764*
X4990Y-2764*
X4989Y-2764*
X4989Y-2765*
X4988Y-2765*
X4988Y-2766*
X4987Y-2766*
X4987Y-2766*
X4986Y-2767*
X4986Y-2767*
X4984Y-2768*
X4984Y-2768*
X4984Y-2769*
X4984Y-2769*
X4982Y-2770*
X4982Y-2770*
X4981Y-2771*
X4981Y-2771*
X4980Y-2772*
X4980Y-2772*
X4979Y-2773*
X4979Y-2773*
X4978Y-2774*
X4978Y-2774*
X4977Y-2775*
X4977Y-2775*
X4976Y-2775*
X4976Y-2776*
X4975Y-2776*
X4974Y-2776*
X4973Y-2777*
X4973Y-2777*
X4972Y-2778*
X4972Y-2778*
X4971Y-2779*
X4971Y-2779*
X4970Y-2780*
X4970Y-2780*
X4969Y-2781*
X4969Y-2781*
X4968Y-2781*
X4968Y-2781*
X4932Y-2806*
X4905Y-2831*
X4902Y-2832*
X4873Y-2848*
X4846Y-2866*
X4846Y-2866*
X4845Y-2867*
X4845Y-2867*
X4844Y-2868*
X4844Y-2868*
X4843Y-2869*
X4843Y-2869*
X4842Y-2869*
X4842Y-2869*
X4840Y-2870*
X4840Y-2870*
X4839Y-2871*
X4839Y-2871*
X4838Y-2872*
X4838Y-2872*
X4837Y-2873*
X4837Y-2873*
X4836Y-2873*
X4836Y-2873*
X4834Y-2874*
X4834Y-2874*
X4833Y-2875*
X4833Y-2875*
X4832Y-2876*
X4832Y-2876*
X4831Y-2876*
X4831Y-2876*
X4829Y-2877*
X4829Y-2877*
X4828Y-2878*
X4828Y-2878*
X4827Y-2878*
X4827Y-2879*
X4826Y-2879*
X4826Y-2879*
X4825Y-2880*
X4824Y-2880*
X4823Y-2881*
X4823Y-2881*
X4822Y-2881*
X4822Y-2881*
X4821Y-2882*
X4821Y-2882*
X4819Y-2882*
X4819Y-2883*
X4818Y-2883*
X4818Y-2883*
X4817Y-2884*
X4817Y-2884*
X4816Y-2884*
X4815Y-2884*
X4814Y-2885*
X4814Y-2885*
X4813Y-2886*
X4813Y-2886*
X4812Y-2886*
X4812Y-2886*
X4701Y-2938*
X4674Y-2952*
X4671Y-2953*
X4663Y-2955*
X4660Y-2956*
X4660Y-2956*
X4659Y-2956*
X4659Y-2956*
X4658Y-2957*
X4658Y-2957*
X4656Y-2957*
X4656Y-2958*
X4655Y-2958*
X4655Y-2958*
X4654Y-2958*
X4654Y-2958*
X4652Y-2959*
X4652Y-2959*
X4651Y-2959*
X4651Y-2959*
X4650Y-2960*
X4650Y-2960*
X4648Y-2960*
X4648Y-2960*
X4647Y-2961*
X4647Y-2961*
X4645Y-2961*
X4645Y-2961*
X4644Y-2961*
X4644Y-2961*
X4643Y-2962*
X4643Y-2962*
X4641Y-2962*
X4641Y-2962*
X4640Y-2963*
X4640Y-2963*
X4497Y-3001*
X4497Y-3001*
X4496Y-3001*
X4496Y-3001*
X4494Y-3002*
X4494Y-3002*
X4493Y-3002*
X4493Y-3002*
X4491Y-3002*
X4491Y-3002*
X4490Y-3003*
X4490Y-3003*
X4489Y-3003*
X4489Y-3003*
X4487Y-3003*
X4487Y-3003*
X4486Y-3004*
X4486Y-3004*
X4485Y-3004*
X4484Y-3004*
X4483Y-3004*
X4483Y-3004*
X4482Y-3004*
X4482Y-3004*
X4480Y-3005*
X4480Y-3005*
X4479Y-3005*
X4479Y-3005*
X4477Y-3005*
X4477Y-3005*
X4476Y-3005*
X4476Y-3005*
X4475Y-3006*
X4475Y-3006*
X4473Y-3006*
X4473Y-3006*
X4472Y-3006*
X4472Y-3006*
X4470Y-3006*
X4470Y-3006*
X4469Y-3007*
X4469Y-3007*
X4467Y-3007*
X4467Y-3007*
X4466Y-3007*
X4466Y-3007*
X4465Y-3007*
X4465Y-3007*
X4463Y-3007*
X4463Y-3007*
X4462Y-3007*
X4462Y-3007*
X4460Y-3008*
X4460Y-3008*
X4459Y-3008*
X4459Y-3008*
X4458Y-3008*
X4458Y-3008*
X4444Y-3009*
X4422Y-3015*
X4419Y-3015*
X4381Y-3015*
X4366Y-3000*
X4366Y-2761*
X4214Y-2761*
X4214Y-3007*
X4199Y-3022*
X3262Y-3022*
X3267Y-3086*
X3267Y-3087*
X3267Y-3446*
X3252Y-3461*
X3012Y-3461*
X3012Y-3613*
X3252Y-3613*
X3267Y-3628*
X3267Y-3987*
X3267Y-3988*
X3264Y-4022*
X3264Y-4024*
X3256Y-4057*
X3255Y-4059*
X3242Y-4090*
X3241Y-4092*
X3223Y-4121*
X3222Y-4123*
X3200Y-4149*
X3199Y-4150*
X3173Y-4172*
X3171Y-4173*
X3142Y-4191*
X3140Y-4192*
X3109Y-4205*
X3107Y-4206*
X3074Y-4214*
X3072Y-4214*
X3038Y-4217*
X3037Y-4217*
X2278Y-4217*
X2263Y-4202*
X2263Y-3962*
X2111Y-3962*
X2111Y-4202*
X2096Y-4217*
X1715Y-4217*
X1696Y-4264*
X2527Y-5094*
X2527Y-5095*
X2585Y-5166*
X2586Y-5168*
X2630Y-5248*
X2631Y-5251*
X2657Y-5338*
X2658Y-5341*
X2667Y-5431*
X2667Y-5432*
X2667Y-5757*
X3038Y-5757*
X3039Y-5757*
X3072Y-5760*
X3074Y-5760*
X3107Y-5768*
X3109Y-5769*
X3140Y-5782*
X3142Y-5783*
X3171Y-5801*
X3173Y-5802*
X3199Y-5824*
X3200Y-5825*
X3222Y-5851*
X3223Y-5853*
X3241Y-5882*
X3242Y-5884*
X3255Y-5915*
X3256Y-5917*
X3264Y-5950*
X3264Y-5952*
X3267Y-5986*
X3267Y-5987*
X3267Y-6223*
X3323Y-6238*
X8539Y2856*
X3241Y-6218D02*
X3364Y-6218D01*
X3241Y-6168D02*
X3392Y-6168D01*
X3241Y-6119D02*
X3421Y-6119D01*
X3241Y-6069D02*
X3449Y-6069D01*
X3241Y-6020D02*
X3478Y-6020D01*
X3240Y-5970D02*
X3506Y-5970D01*
X3230Y-5921D02*
X3534Y-5921D01*
X3205Y-5871D02*
X3563Y-5871D01*
X3157Y-5822D02*
X3591Y-5822D01*
X2641Y-5772D02*
X3620Y-5772D01*
X2641Y-5722D02*
X3648Y-5722D01*
X2641Y-5673D02*
X3676Y-5673D01*
X2641Y-5623D02*
X3705Y-5623D01*
X2641Y-5574D02*
X3733Y-5574D01*
X2641Y-5524D02*
X3762Y-5524D01*
X2641Y-5475D02*
X3790Y-5475D01*
X2640Y-5425D02*
X3818Y-5425D01*
X2636Y-5376D02*
X3847Y-5376D01*
X2627Y-5326D02*
X3875Y-5326D01*
X2612Y-5277D02*
X3904Y-5277D01*
X2590Y-5227D02*
X3932Y-5227D01*
X2562Y-5178D02*
X3961Y-5178D01*
X2522Y-5128D02*
X3989Y-5128D01*
X2475Y-5079D02*
X4017Y-5079D01*
X2425Y-5029D02*
X4046Y-5029D01*
X2376Y-4979D02*
X4074Y-4979D01*
X2326Y-4930D02*
X4103Y-4930D01*
X2277Y-4880D02*
X4131Y-4880D01*
X2227Y-4831D02*
X4159Y-4831D01*
X2178Y-4781D02*
X4188Y-4781D01*
X2128Y-4732D02*
X4216Y-4732D01*
X2079Y-4682D02*
X4245Y-4682D01*
X2029Y-4633D02*
X4273Y-4633D01*
X1980Y-4583D02*
X4301Y-4583D01*
X1930Y-4534D02*
X4330Y-4534D01*
X1881Y-4484D02*
X4358Y-4484D01*
X1831Y-4435D02*
X4387Y-4435D01*
X1781Y-4385D02*
X4415Y-4385D01*
X1732Y-4336D02*
X4444Y-4336D01*
X1682Y-4286D02*
X4472Y-4286D01*
X1680Y-4237D02*
X4500Y-4237D01*
X2085Y-4187D02*
X2289Y-4187D01*
X3076Y-4187D02*
X4529Y-4187D01*
X2085Y-4137D02*
X2289Y-4137D01*
X3174Y-4137D02*
X4557Y-4137D01*
X2085Y-4088D02*
X2289Y-4088D01*
X3214Y-4088D02*
X4586Y-4088D01*
X2085Y-4038D02*
X2289Y-4038D01*
X3234Y-4038D02*
X4614Y-4038D01*
X2085Y-3989D02*
X2289Y-3989D01*
X3241Y-3989D02*
X4642Y-3989D01*
X2085Y-3939D02*
X2289Y-3939D01*
X3241Y-3939D02*
X4671Y-3939D01*
X3241Y-3890D02*
X4699Y-3890D01*
X3241Y-3840D02*
X4728Y-3840D01*
X3241Y-3791D02*
X4756Y-3791D01*
X3241Y-3741D02*
X4784Y-3741D01*
X3241Y-3692D02*
X4813Y-3692D01*
X1039Y-3642D02*
X1093Y-3642D01*
X3241Y-3642D02*
X4841Y-3642D01*
X0989Y-3593D02*
X1388Y-3593D01*
X2986Y-3593D02*
X4870Y-3593D01*
X0939Y-3543D02*
X1388Y-3543D01*
X2986Y-3543D02*
X4898Y-3543D01*
X0890Y-3494D02*
X1388Y-3494D01*
X2986Y-3494D02*
X4926Y-3494D01*
X0840Y-3444D02*
X1388Y-3444D01*
X2986Y-3444D02*
X4955Y-3444D01*
X0791Y-3395D02*
X1133Y-3395D01*
X3241Y-3395D02*
X4983Y-3395D01*
X0741Y-3345D02*
X1133Y-3345D01*
X3241Y-3345D02*
X5012Y-3345D01*
X0692Y-3295D02*
X1133Y-3295D01*
X3241Y-3295D02*
X5040Y-3295D01*
X0642Y-3246D02*
X1133Y-3246D01*
X3241Y-3246D02*
X5069Y-3246D01*
X0593Y-3196D02*
X1133Y-3196D01*
X3241Y-3196D02*
X5097Y-3196D01*
X0543Y-3147D02*
X1133Y-3147D01*
X3241Y-3147D02*
X5125Y-3147D01*
X0494Y-3097D02*
X1133Y-3097D01*
X3241Y-3097D02*
X5154Y-3097D01*
X0473Y-3048D02*
X1137Y-3048D01*
X3238Y-3048D02*
X5182Y-3048D01*
X0473Y-2998D02*
X1153Y-2998D01*
X3234Y-2998D02*
X5211Y-2998D01*
X0473Y-2949D02*
X1187Y-2949D01*
X4188Y-2949D02*
X4392Y-2949D01*
X4593Y-2949D02*
X5239Y-2949D01*
X0473Y-2899D02*
X1258Y-2899D01*
X4188Y-2899D02*
X4392Y-2899D01*
X4724Y-2899D02*
X5267Y-2899D01*
X0473Y-2850D02*
X1657Y-2850D01*
X4188Y-2850D02*
X4392Y-2850D01*
X4825Y-2850D02*
X5296Y-2850D01*
X0473Y-2800D02*
X1673Y-2800D01*
X4188Y-2800D02*
X4392Y-2800D01*
X4901Y-2800D02*
X5324Y-2800D01*
X0473Y-2751D02*
X1614Y-2751D01*
X4188Y-2751D02*
X4392Y-2751D01*
X4966Y-2751D02*
X5353Y-2751D01*
X0473Y-2701D02*
X1563Y-2701D01*
X5017Y-2701D02*
X5381Y-2701D01*
X0473Y-2652D02*
X1512Y-2652D01*
X5068Y-2652D02*
X5409Y-2652D01*
X0473Y-2602D02*
X1470Y-2602D01*
X5110Y-2602D02*
X5438Y-2602D01*
X0473Y-2553D02*
X1435Y-2553D01*
X5145Y-2553D02*
X5466Y-2553D01*
X0473Y-2503D02*
X1400Y-2503D01*
X5180Y-2503D02*
X5495Y-2503D01*
X0473Y-2453D02*
X1370Y-2453D01*
X5210Y-2453D02*
X5523Y-2453D01*
X0473Y-2404D02*
X1346Y-2404D01*
X5234Y-2404D02*
X5552Y-2404D01*
X0473Y-2354D02*
X1323Y-2354D01*
X5257Y-2354D02*
X5580Y-2354D01*
X0473Y-2305D02*
X1301Y-2305D01*
X5279Y-2305D02*
X5608Y-2305D01*
X0473Y-2255D02*
X1287Y-2255D01*
X5293Y-2255D02*
X5637Y-2255D01*
X0473Y-2206D02*
X1270Y-2206D01*
X5310Y-2206D02*
X5665Y-2206D01*
X0473Y-2156D02*
X1260Y-2156D01*
X5320Y-2156D02*
X5694Y-2156D01*
X0473Y-2107D02*
X1250Y-2107D01*
X5330Y-2107D02*
X5722Y-2107D01*
X0473Y-2057D02*
X1246Y-2057D01*
X5334Y-2057D02*
X5750Y-2057D01*
X0473Y-2008D02*
X1491Y-2008D01*
X5089Y-2008D02*
X5779Y-2008D01*
X0473Y-1958D02*
X1491Y-1958D01*
X5089Y-1958D02*
X5807Y-1958D01*
X0473Y-1909D02*
X1491Y-1909D01*
X5089Y-1909D02*
X5836Y-1909D01*
X0473Y-1859D02*
X1491Y-1859D01*
X5089Y-1859D02*
X5864Y-1859D01*
X0473Y-1810D02*
X1248Y-1810D01*
X5332Y-1810D02*
X5892Y-1810D01*
X0500Y-1760D02*
X1253Y-1760D01*
X5327Y-1760D02*
X5921Y-1760D01*
X0570Y-1711D02*
X1264Y-1711D01*
X5316Y-1711D02*
X5949Y-1711D01*
X0604Y-1661D02*
X1278Y-1661D01*
X5302Y-1661D02*
X5978Y-1661D01*
X0620Y-1611D02*
X1292Y-1611D01*
X5288Y-1611D02*
X6006Y-1611D01*
X0624Y-1562D02*
X1309Y-1562D01*
X5271Y-1562D02*
X6035Y-1562D01*
X0624Y-1512D02*
X1332Y-1512D01*
X5248Y-1512D02*
X6063Y-1512D01*
X0624Y-1463D02*
X1353Y-1463D01*
X5227Y-1463D02*
X6091Y-1463D01*
X0624Y-1413D02*
X1380Y-1413D01*
X5200Y-1413D02*
X6120Y-1413D01*
X0624Y-1364D02*
X1414Y-1364D01*
X5166Y-1364D02*
X6148Y-1364D01*
X0624Y-1314D02*
X1448Y-1314D01*
X5132Y-1314D02*
X6177Y-1314D01*
X0624Y-1265D02*
X1484Y-1265D01*
X5096Y-1265D02*
X6205Y-1265D01*
X0624Y-1215D02*
X1533Y-1215D01*
X5047Y-1215D02*
X6233Y-1215D01*
X0635Y-1166D02*
X1582Y-1166D01*
X4998Y-1166D02*
X6262Y-1166D01*
X0684Y-1116D02*
X1640Y-1116D01*
X2188Y-1116D02*
X2392Y-1116D01*
X3188Y-1116D02*
X3392Y-1116D01*
X4188Y-1116D02*
X4392Y-1116D01*
X4940Y-1116D02*
X6290Y-1116D01*
X0734Y-1067D02*
X1708Y-1067D01*
X2188Y-1067D02*
X2392Y-1067D01*
X3188Y-1067D02*
X3392Y-1067D01*
X4188Y-1067D02*
X4392Y-1067D01*
X4872Y-1067D02*
X6319Y-1067D01*
X0783Y-1017D02*
X1791Y-1017D01*
X2188Y-1017D02*
X2392Y-1017D01*
X3188Y-1017D02*
X3392Y-1017D01*
X4188Y-1017D02*
X4392Y-1017D01*
X4789Y-1017D02*
X6347Y-1017D01*
X0833Y-0968D02*
X1897Y-0968D01*
X2188Y-0968D02*
X2392Y-0968D01*
X3188Y-0968D02*
X3392Y-0968D01*
X4188Y-0968D02*
X4392Y-0968D01*
X4683Y-0968D02*
X6375Y-0968D01*
X0882Y-0918D02*
X2058Y-0918D01*
X2188Y-0918D02*
X2392Y-0918D01*
X3188Y-0918D02*
X3392Y-0918D01*
X4188Y-0918D02*
X4392Y-0918D01*
X4522Y-0918D02*
X6404Y-0918D01*
X0932Y-0869D02*
X6432Y-0869D01*
X0981Y-0819D02*
X6461Y-0819D01*
X1031Y-0769D02*
X6489Y-0769D01*
X1081Y-0720D02*
X6517Y-0720D01*
X1130Y-0670D02*
X6546Y-0670D01*
X1180Y-0621D02*
X6574Y-0621D01*
X1229Y-0571D02*
X6603Y-0571D01*
X1279Y-0522D02*
X6631Y-0522D01*
X1328Y-0472D02*
X6660Y-0472D01*
X1378Y-0423D02*
X6688Y-0423D01*
X1427Y-0373D02*
X6716Y-0373D01*
X1477Y-0324D02*
X6745Y-0324D01*
X1526Y-0274D02*
X6773Y-0274D01*
X1576Y-0225D02*
X6802Y-0225D01*
X1625Y-0175D02*
X6830Y-0175D01*
X1675Y-0126D02*
X6858Y-0126D01*
X1724Y-0076D02*
X6887Y-0076D01*
X1774Y-0026D02*
X6915Y-0026D01*
X1824Y0023D02*
X6944Y0023D01*
X1873Y0073D02*
X6972Y0073D01*
X1923Y0122D02*
X7000Y0122D01*
X1972Y0172D02*
X7029Y0172D01*
X2022Y0221D02*
X7057Y0221D01*
X2071Y0271D02*
X2881Y0271D01*
X3973Y0271D02*
X4781Y0271D01*
X5873Y0271D02*
X7086Y0271D01*
X2121Y0320D02*
X2788Y0320D01*
X4066Y0320D02*
X4688Y0320D01*
X5966Y0320D02*
X7114Y0320D01*
X2170Y0370D02*
X2749Y0370D01*
X4105Y0370D02*
X4649Y0370D01*
X6005Y0370D02*
X7143Y0370D01*
X2220Y0419D02*
X2730Y0419D01*
X4124Y0419D02*
X4630Y0419D01*
X6024Y0419D02*
X7171Y0419D01*
X2269Y0469D02*
X2723Y0469D01*
X4131Y0469D02*
X4623Y0469D01*
X6031Y0469D02*
X7199Y0469D01*
X2319Y0518D02*
X2723Y0518D01*
X4131Y0518D02*
X4623Y0518D01*
X6031Y0518D02*
X7228Y0518D01*
X2368Y0568D02*
X2723Y0568D01*
X4131Y0568D02*
X4623Y0568D01*
X6031Y0568D02*
X7256Y0568D01*
X2418Y0617D02*
X2723Y0617D01*
X4131Y0617D02*
X4623Y0617D01*
X6031Y0617D02*
X7285Y0617D01*
X2467Y0667D02*
X2723Y0667D01*
X4131Y0667D02*
X4623Y0667D01*
X6031Y0667D02*
X7313Y0667D01*
X2517Y0716D02*
X2723Y0716D01*
X4131Y0716D02*
X4623Y0716D01*
X6031Y0716D02*
X7341Y0716D01*
X2566Y0766D02*
X2723Y0766D01*
X4131Y0766D02*
X4623Y0766D01*
X6031Y0766D02*
X7370Y0766D01*
X2616Y0816D02*
X2713Y0816D01*
X4131Y0816D02*
X4623Y0816D01*
X6031Y0816D02*
X7398Y0816D01*
X4131Y0865D02*
X4623Y0865D01*
X6031Y0865D02*
X7427Y0865D01*
X4131Y0915D02*
X4623Y0915D01*
X6031Y0915D02*
X7455Y0915D01*
X4131Y0964D02*
X4623Y0964D01*
X6031Y0964D02*
X7483Y0964D01*
X4131Y1014D02*
X4623Y1014D01*
X6031Y1014D02*
X7512Y1014D01*
X4131Y1063D02*
X4623Y1063D01*
X6031Y1063D02*
X7540Y1063D01*
X4131Y1113D02*
X4623Y1113D01*
X6031Y1113D02*
X7569Y1113D01*
X4131Y1162D02*
X4623Y1162D01*
X6031Y1162D02*
X7597Y1162D01*
X4131Y1212D02*
X4623Y1212D01*
X6031Y1212D02*
X7626Y1212D01*
X4131Y1261D02*
X4623Y1261D01*
X6031Y1261D02*
X7654Y1261D01*
X4131Y1311D02*
X4623Y1311D01*
X6031Y1311D02*
X7682Y1311D01*
X4131Y1360D02*
X4623Y1360D01*
X6031Y1360D02*
X7711Y1360D01*
X4131Y1410D02*
X4623Y1410D01*
X6031Y1410D02*
X7739Y1410D01*
X1554Y1459D02*
X1678Y1459D01*
X4131Y1459D02*
X4604Y1459D01*
X6031Y1459D02*
X7768Y1459D01*
X1554Y1509D02*
X1728Y1509D01*
X4131Y1509D02*
X4555Y1509D01*
X6031Y1509D02*
X7796Y1509D01*
X1554Y1558D02*
X1778Y1558D01*
X4131Y1558D02*
X4505Y1558D01*
X6031Y1558D02*
X7824Y1558D01*
X1554Y1608D02*
X1829Y1608D01*
X4131Y1608D02*
X4456Y1608D01*
X6031Y1608D02*
X7853Y1608D01*
X1554Y1658D02*
X1879Y1658D01*
X4131Y1658D02*
X4406Y1658D01*
X6031Y1658D02*
X7881Y1658D01*
X1554Y1707D02*
X1929Y1707D01*
X4131Y1707D02*
X4356Y1707D01*
X6031Y1707D02*
X7910Y1707D01*
X1554Y1757D02*
X1979Y1757D01*
X4131Y1757D02*
X4307Y1757D01*
X6031Y1757D02*
X7938Y1757D01*
X1554Y1806D02*
X2029Y1806D01*
X4131Y1806D02*
X4257Y1806D01*
X6031Y1806D02*
X7966Y1806D01*
X1554Y1856D02*
X2080Y1856D01*
X6031Y1856D02*
X7995Y1856D01*
X1554Y1905D02*
X2130Y1905D01*
X6028Y1905D02*
X8023Y1905D01*
X1554Y1955D02*
X2179Y1955D01*
X6012Y1955D02*
X8052Y1955D01*
X1574Y2004D02*
X2229Y2004D01*
X5979Y2004D02*
X8080Y2004D01*
X1600Y2054D02*
X2278Y2054D01*
X5913Y2054D02*
X8108Y2054D01*
X1619Y2103D02*
X2328Y2103D01*
X4825Y2103D02*
X8137Y2103D01*
X1638Y2153D02*
X2377Y2153D01*
X4776Y2153D02*
X8165Y2153D01*
X1644Y2202D02*
X2427Y2202D01*
X4726Y2202D02*
X8194Y2202D01*
X1650Y2252D02*
X2476Y2252D01*
X4677Y2252D02*
X8222Y2252D01*
X1652Y2301D02*
X2526Y2301D01*
X4627Y2301D02*
X8251Y2301D01*
X1646Y2351D02*
X2575Y2351D01*
X4578Y2351D02*
X8279Y2351D01*
X1640Y2400D02*
X2625Y2400D01*
X4548Y2400D02*
X8307Y2400D01*
X1626Y2450D02*
X2675Y2450D01*
X4568Y2450D02*
X8336Y2450D01*
X1607Y2500D02*
X2725Y2500D01*
X4990Y2500D02*
X8364Y2500D01*
X1587Y2549D02*
X2790Y2549D01*
X5042Y2549D02*
X8393Y2549D01*
X1553Y2599D02*
X3678Y2599D01*
X5068Y2599D02*
X8421Y2599D01*
X1524Y2648D02*
X3674Y2648D01*
X5080Y2648D02*
X8449Y2648D01*
X1524Y2698D02*
X3673Y2698D01*
X5081Y2698D02*
X8478Y2698D01*
X1524Y2747D02*
X3673Y2747D01*
X5081Y2747D02*
X8506Y2747D01*
X1524Y2797D02*
X3673Y2797D01*
X5081Y2797D02*
X8535Y2797D01*
X1524Y2846D02*
X3673Y2846D01*
X5081Y2846D02*
X8563Y2846D01*
X1524Y2896D02*
X3673Y2896D01*
X5081Y2896D02*
X8426Y2896D01*
X1524Y2945D02*
X3673Y2945D01*
X5081Y2945D02*
X8347Y2945D01*
X1524Y2995D02*
X3673Y2995D01*
X5081Y2995D02*
X8311Y2995D01*
X1524Y3044D02*
X3673Y3044D01*
X5081Y3044D02*
X8283Y3044D01*
X1524Y3094D02*
X3673Y3094D01*
X5081Y3094D02*
X8254Y3094D01*
X1524Y3143D02*
X3673Y3143D01*
X5081Y3143D02*
X8225Y3143D01*
X1524Y3193D02*
X3673Y3193D01*
X5081Y3193D02*
X8197Y3193D01*
X1524Y3242D02*
X3673Y3242D01*
X5081Y3242D02*
X8168Y3242D01*
X1524Y3292D02*
X3928Y3292D01*
X4826Y3292D02*
X8140Y3292D01*
X1524Y3342D02*
X3928Y3342D01*
X4826Y3342D02*
X8111Y3342D01*
X1524Y3391D02*
X3928Y3391D01*
X4826Y3391D02*
X7268Y3391D01*
X7390Y3391D02*
X7594Y3391D01*
X7716Y3391D02*
X8082Y3391D01*
X1524Y3441D02*
X3928Y3441D01*
X4826Y3441D02*
X7059Y3441D01*
X7390Y3441D02*
X7594Y3441D01*
X7721Y3441D02*
X7924Y3441D01*
X7925Y3441D02*
X8054Y3441D01*
X1524Y3490D02*
X3673Y3490D01*
X5081Y3490D02*
X6917Y3490D01*
X7390Y3490D02*
X7594Y3490D01*
X7721Y3490D02*
X7924Y3490D01*
X1524Y3540D02*
X3673Y3540D01*
X5081Y3540D02*
X6814Y3540D01*
X7390Y3540D02*
X7594Y3540D01*
X7721Y3540D02*
X7924Y3540D01*
X1524Y3589D02*
X3673Y3589D01*
X5081Y3589D02*
X6735Y3589D01*
X7390Y3589D02*
X7594Y3589D01*
X7721Y3589D02*
X7924Y3589D01*
X1524Y3639D02*
X3673Y3639D01*
X5081Y3639D02*
X6656Y3639D01*
X7721Y3639D02*
X7924Y3639D01*
X1524Y3688D02*
X3673Y3688D01*
X5081Y3688D02*
X6580Y3688D01*
X7721Y3688D02*
X7924Y3688D01*
X1524Y3738D02*
X3673Y3738D01*
X5081Y3738D02*
X6531Y3738D01*
X7721Y3738D02*
X7924Y3738D01*
X1524Y3787D02*
X3673Y3787D01*
X5081Y3787D02*
X6481Y3787D01*
X7721Y3787D02*
X7924Y3787D01*
X1524Y3837D02*
X3673Y3837D01*
X5081Y3837D02*
X6432Y3837D01*
X7721Y3837D02*
X7924Y3837D01*
X1524Y3886D02*
X3673Y3886D01*
X5081Y3886D02*
X6382Y3886D01*
X7721Y3886D02*
X7924Y3886D01*
X1524Y3936D02*
X3673Y3936D01*
X5081Y3936D02*
X6341Y3936D01*
X7721Y3936D02*
X7924Y3936D01*
X1524Y3985D02*
X3673Y3985D01*
X5081Y3985D02*
X6310Y3985D01*
X7721Y3985D02*
X7924Y3985D01*
X1524Y4035D02*
X3673Y4035D01*
X4275Y4035D02*
X4479Y4035D01*
X5081Y4035D02*
X6279Y4035D01*
X7721Y4035D02*
X7924Y4035D01*
X1524Y4084D02*
X3674Y4084D01*
X4275Y4084D02*
X4479Y4084D01*
X5080Y4084D02*
X6248Y4084D01*
X7721Y4084D02*
X7924Y4084D01*
X1524Y4134D02*
X3684Y4134D01*
X4275Y4134D02*
X4479Y4134D01*
X5070Y4134D02*
X6216Y4134D01*
X7721Y4134D02*
X7924Y4134D01*
X1524Y4184D02*
X3708Y4184D01*
X4275Y4184D02*
X4479Y4184D01*
X5046Y4184D02*
X6185Y4184D01*
X7721Y4184D02*
X7924Y4184D01*
X1524Y4233D02*
X3756Y4233D01*
X4275Y4233D02*
X4479Y4233D01*
X4998Y4233D02*
X6166Y4233D01*
X7721Y4233D02*
X7924Y4233D01*
X1524Y4283D02*
X6149Y4283D01*
X7721Y4283D02*
X7924Y4283D01*
X1524Y4332D02*
X6132Y4332D01*
X7721Y4332D02*
X7924Y4332D01*
X1524Y4382D02*
X6114Y4382D01*
X7721Y4382D02*
X7924Y4382D01*
X1524Y4431D02*
X6097Y4431D01*
X7721Y4431D02*
X7924Y4431D01*
X1524Y4481D02*
X6080Y4481D01*
X1524Y4530D02*
X6070Y4530D01*
X1524Y4580D02*
X6065Y4580D01*
X1524Y4629D02*
X6059Y4629D01*
X1524Y4679D02*
X6054Y4679D01*
X1524Y4728D02*
X6293Y4728D01*
X1524Y4778D02*
X6293Y4778D01*
X1524Y4827D02*
X6293Y4827D01*
X1524Y4877D02*
X6293Y4877D01*
X1524Y4927D02*
X6050Y4927D01*
X1524Y4976D02*
X6055Y4976D01*
X1524Y5026D02*
X6061Y5026D01*
X1524Y5075D02*
X6067Y5075D01*
X1524Y5125D02*
X6072Y5125D01*
X1524Y5174D02*
X6085Y5174D01*
X1524Y5224D02*
X6102Y5224D01*
X1524Y5273D02*
X6120Y5273D01*
X1524Y5323D02*
X6137Y5323D01*
X1524Y5372D02*
X6154Y5372D01*
X1524Y5422D02*
X6172Y5422D01*
X1524Y5471D02*
X6195Y5471D01*
X1524Y5521D02*
X6226Y5521D01*
X1524Y5570D02*
X6257Y5570D01*
X1524Y5620D02*
X6288Y5620D01*
X1524Y5669D02*
X6319Y5669D01*
X1524Y5719D02*
X6350Y5719D01*
X1524Y5769D02*
X6397Y5769D01*
X1524Y5818D02*
X6446Y5818D01*
X1524Y5868D02*
X6496Y5868D01*
X1524Y5917D02*
X6545Y5917D01*
X1524Y5967D02*
X6595Y5967D01*
X1524Y6016D02*
X6567Y6016D01*
X1524Y6066D02*
X6538Y6066D01*
X1524Y6115D02*
X6510Y6115D01*
X1524Y6165D02*
X6481Y6165D01*
X1524Y6214D02*
X6452Y6214D01*
X1524Y6264D02*
X6424Y6264D01*
X1524Y6313D02*
X6395Y6313D01*
X1524Y6363D02*
X6367Y6363D01*
X1524Y6412D02*
X6338Y6412D01*
X1524Y6462D02*
X6310Y6462D01*
X1524Y6511D02*
X6293Y6511D01*
X1524Y6561D02*
X6289Y6561D01*
X1524Y6611D02*
X6297Y6611D01*
X1524Y6660D02*
X6315Y6660D01*
X1524Y6710D02*
X5370Y6710D01*
X-2177Y-8130D02*
X-2177Y-8130D01*
X-2177Y-8130*
X-2176Y-8129*
X-2176Y-8129*
X-2175Y-8128*
X-2175Y-8128*
X-2174Y-8127*
X-2174Y-8127*
X-2173Y-8126*
X-2173Y-8126*
X-2172Y-8125*
X-2172Y-8125*
X-2171Y-8124*
X-2171Y-8124*
X-2170Y-8123*
X-2170Y-8123*
X-2169Y-8121*
X-2169Y-8121*
X-2168Y-8120*
X-2168Y-8120*
X-2167Y-8119*
X-2167Y-8119*
X-2167Y-8118*
X-2166Y-8118*
X-2165Y-8117*
X-2165Y-8117*
X-2165Y-8116*
X-2165Y-8116*
X-2164Y-8115*
X-2163Y-8115*
X-2162Y-8114*
X-2162Y-8114*
X-2162Y-8113*
X-2161Y-8113*
X-2160Y-8112*
X-2160Y-8112*
X-2159Y-8111*
X-2159Y-8111*
X-2159Y-8110*
X-2158Y-8110*
X-2157Y-8109*
X-2157Y-8109*
X-2156Y-8108*
X-2156Y-8108*
X-2155Y-8107*
X-2155Y-8107*
X-2154Y-8106*
X-2154Y-8106*
X-2153Y-8105*
X-2153Y-8105*
X-2152Y-8104*
X-2152Y-8104*
X-2151Y-8103*
X-2151Y-8103*
X-2150Y-8102*
X-2150Y-8102*
X-2149Y-8102*
X-2149Y-8101*
X-2148Y-8101*
X-2148Y-8101*
X-2147Y-8100*
X-2147Y-8100*
X-2146Y-8099*
X-2146Y-8099*
X-2144Y-8098*
X-2144Y-8098*
X-2143Y-8097*
X-2143Y-8097*
X-2142Y-8096*
X-2142Y-8096*
X-2141Y-8095*
X-2141Y-8095*
X-2140Y-8094*
X-2140Y-8094*
X-2139Y-8093*
X-2139Y-8093*
X-2138Y-8093*
X-2138Y-8092*
X-2137Y-8092*
X-2137Y-8092*
X-2135Y-8091*
X-2135Y-8091*
X-2134Y-8090*
X-2134Y-8090*
X-2133Y-8089*
X-2133Y-8089*
X-2132Y-8088*
X-2132Y-8088*
X-2131Y-8087*
X-2131Y-8087*
X-2129Y-8087*
X-2129Y-8087*
X-2129Y-8086*
X-2128Y-8086*
X-2127Y-8085*
X-2127Y-8085*
X-2126Y-8084*
X-2126Y-8084*
X-2125Y-8084*
X-2125Y-8083*
X-2124Y-8083*
X-2124Y-8083*
X-2122Y-8082*
X-2122Y-8082*
X-2121Y-8081*
X-2121Y-8081*
X-2120Y-8080*
X-2120Y-8080*
X-2119Y-8080*
X-2119Y-8080*
X-2118Y-8079*
X-2117Y-8079*
X-2116Y-8078*
X-2116Y-8078*
X-2115Y-8077*
X-2115Y-8077*
X-2114Y-8077*
X-2114Y-8077*
X-2113Y-8076*
X-2113Y-8076*
X-2111Y-8075*
X-2111Y-8075*
X-2110Y-8075*
X-2110Y-8075*
X-2109Y-8074*
X-2109Y-8074*
X-2108Y-8073*
X-2107Y-8073*
X-2106Y-8073*
X-2106Y-8073*
X-2105Y-8072*
X-2105Y-8072*
X-2104Y-8071*
X-2104Y-8071*
X-2102Y-8071*
X-2102Y-8071*
X-2101Y-8070*
X-2101Y-8070*
X-2100Y-8069*
X-2100Y-8069*
X-2098Y-8069*
X-2098Y-8069*
X-2097Y-8068*
X-2097Y-8068*
X-2096Y-8067*
X-2096Y-8067*
X-2095Y-8067*
X-2095Y-8067*
X-2093Y-8066*
X-2093Y-8066*
X-2092Y-8066*
X-2092Y-8066*
X-2091Y-8065*
X-2091Y-8065*
X-2089Y-8065*
X-2089Y-8065*
X-2088Y-8064*
X-2088Y-8064*
X-2087Y-8063*
X-2087Y-8063*
X-2085Y-8063*
X-2085Y-8063*
X-2084Y-8062*
X-2084Y-8062*
X-2083Y-8062*
X-2083Y-8062*
X-2081Y-8061*
X-2081Y-8061*
X-2080Y-8061*
X-2080Y-8061*
X-2079Y-8060*
X-2079Y-8060*
X-2077Y-8060*
X-2077Y-8060*
X-2076Y-8059*
X-2076Y-8059*
X-2075Y-8059*
X-2075Y-8059*
X-2073Y-8058*
X-2073Y-8058*
X-2072Y-8058*
X-2072Y-8058*
X-2071Y-8058*
X-2071Y-8058*
X-2069Y-8057*
X-2069Y-8057*
X-2068Y-8057*
X-2068Y-8057*
X-2066Y-8056*
X-2066Y-8056*
X-2065Y-8056*
X-2065Y-8056*
X-2064Y-8055*
X-2064Y-8055*
X-2062Y-8055*
X-2062Y-8055*
X-2061Y-8055*
X-2061Y-8055*
X-2060Y-8054*
X-2059Y-8054*
X-2058Y-8054*
X-2058Y-8054*
X-2057Y-8054*
X-2057Y-8054*
X-2055Y-8053*
X-2055Y-8053*
X-2054Y-8053*
X-2054Y-8053*
X-2053Y-8053*
X-2053Y-8053*
X-2051Y-8052*
X-2051Y-8052*
X-2050Y-8052*
X-2050Y-8052*
X-2048Y-8052*
X-2048Y-8052*
X-2047Y-8051*
X-2047Y-8051*
X-2046Y-8051*
X-2046Y-8051*
X-2044Y-8051*
X-2044Y-8051*
X-2043Y-8050*
X-2043Y-8050*
X-2041Y-8050*
X-2041Y-8050*
X-2040Y-8050*
X-2040Y-8050*
X-2039Y-8050*
X-2038Y-8050*
X-2037Y-8049*
X-2037Y-8049*
X-2036Y-8049*
X-2036Y-8049*
X-2034Y-8049*
X-2034Y-8049*
X-2033Y-8049*
X-2033Y-8049*
X-2031Y-8049*
X-2031Y-8049*
X-2030Y-8048*
X-2030Y-8048*
X-2029Y-8048*
X-2029Y-8048*
X-2027Y-8048*
X-2027Y-8048*
X-2026Y-8048*
X-2026Y-8048*
X-2024Y-8048*
X-2024Y-8048*
X-2023Y-8048*
X-2023Y-8048*
X-2022Y-8047*
X-2022Y-8047*
X-2020Y-8047*
X-2020Y-8047*
X-2019Y-8047*
X-2018Y-8047*
X-2017Y-8047*
X-2017Y-8047*
X-2016Y-8047*
X-2016Y-8047*
X-2014Y-8047*
X-2014Y-8047*
X-2013Y-8047*
X-2013Y-8047*
X-2011Y-8047*
X-2011Y-8047*
X-2010Y-8047*
X-2010Y-8047*
X-2009Y-8047*
X-2008Y-8047*
X-2007Y-8047*
X-2007Y-8047*
X-2006Y-8046*
X-2006Y-8046*
X-2004Y-8046*
X-2004Y-8046*
X-2003Y-8046*
X-2003Y-8046*
X-2001Y-8046*
X-2001Y-8046*
X-2000Y-8046*
X-2000Y-8046*
X-1454Y-8046*
X-1443Y-7947*
X-1442Y-7944*
X-1334Y-7634*
X-1332Y-7632*
X-1158Y-7354*
X-1156Y-7351*
X-0924Y-7119*
X-0921Y-7117*
X-0643Y-6943*
X-0641Y-6941*
X-0311Y-6826*
X-0311Y-6747*
X-1035Y-6024*
X-1035Y-6023*
X-1075Y-5975*
X-1076Y-5973*
X-1106Y-5918*
X-1106Y-5916*
X-1125Y-5856*
X-1125Y-5853*
X-1131Y-5792*
X-1131Y-5791*
X-1131Y-5562*
X-2800Y-5562*
X-2800Y-5562*
X-2801Y-5562*
X-2801Y-5562*
X-2803Y-5562*
X-2803Y-5562*
X-2804Y-5562*
X-2804Y-5562*
X-2806Y-5562*
X-2806Y-5562*
X-2807Y-5561*
X-2807Y-5561*
X-2808Y-5561*
X-2809Y-5561*
X-2810Y-5561*
X-2810Y-5561*
X-2811Y-5561*
X-2811Y-5561*
X-2813Y-5561*
X-2813Y-5561*
X-2814Y-5561*
X-2814Y-5561*
X-2816Y-5561*
X-2816Y-5561*
X-2817Y-5561*
X-2817Y-5561*
X-2819Y-5561*
X-2819Y-5561*
X-2820Y-5561*
X-2820Y-5561*
X-2886Y-5555*
X-2929Y-5555*
X-2932Y-5555*
X-2954Y-5549*
X-2967Y-5548*
X-2968Y-5548*
X-2969Y-5548*
X-2969Y-5548*
X-2970Y-5548*
X-2970Y-5548*
X-2971Y-5547*
X-2972Y-5547*
X-2973Y-5547*
X-2973Y-5547*
X-2974Y-5547*
X-2974Y-5547*
X-2976Y-5547*
X-2976Y-5547*
X-2977Y-5547*
X-2977Y-5547*
X-2979Y-5547*
X-2979Y-5547*
X-2980Y-5546*
X-2980Y-5546*
X-2981Y-5546*
X-2982Y-5546*
X-2983Y-5546*
X-2983Y-5546*
X-2984Y-5546*
X-2984Y-5546*
X-2986Y-5545*
X-2986Y-5545*
X-2987Y-5545*
X-2987Y-5545*
X-2988Y-5545*
X-2989Y-5545*
X-2990Y-5545*
X-2990Y-5545*
X-2991Y-5544*
X-2991Y-5544*
X-2993Y-5544*
X-2993Y-5544*
X-2994Y-5544*
X-2994Y-5544*
X-2996Y-5544*
X-2996Y-5544*
X-2997Y-5543*
X-2997Y-5543*
X-2998Y-5543*
X-2998Y-5543*
X-3000Y-5543*
X-3000Y-5543*
X-3001Y-5542*
X-3001Y-5542*
X-3003Y-5542*
X-3003Y-5542*
X-3004Y-5542*
X-3004Y-5542*
X-3005Y-5541*
X-3006Y-5541*
X-3007Y-5541*
X-3007Y-5541*
X-3150Y-5503*
X-3150Y-5503*
X-3151Y-5502*
X-3151Y-5502*
X-3152Y-5502*
X-3152Y-5502*
X-3154Y-5501*
X-3154Y-5501*
X-3155Y-5501*
X-3155Y-5501*
X-3156Y-5501*
X-3157Y-5501*
X-3158Y-5500*
X-3158Y-5500*
X-3159Y-5500*
X-3159Y-5500*
X-3161Y-5499*
X-3161Y-5499*
X-3162Y-5499*
X-3162Y-5499*
X-3163Y-5498*
X-3163Y-5498*
X-3165Y-5498*
X-3165Y-5498*
X-3166Y-5498*
X-3166Y-5498*
X-3167Y-5497*
X-3167Y-5497*
X-3169Y-5497*
X-3169Y-5497*
X-3170Y-5496*
X-3170Y-5496*
X-3173Y-5495*
X-3181Y-5493*
X-3184Y-5492*
X-3211Y-5478*
X-3322Y-5426*
X-3322Y-5426*
X-3323Y-5426*
X-3323Y-5426*
X-3324Y-5425*
X-3324Y-5425*
X-3325Y-5425*
X-3325Y-5425*
X-3327Y-5424*
X-3327Y-5424*
X-3328Y-5423*
X-3328Y-5423*
X-3329Y-5423*
X-3329Y-5423*
X-3330Y-5422*
X-3330Y-5422*
X-3332Y-5421*
X-3332Y-5421*
X-3333Y-5421*
X-3333Y-5421*
X-3334Y-5420*
X-3334Y-5420*
X-3335Y-5419*
X-3335Y-5419*
X-3337Y-5419*
X-3337Y-5419*
X-3338Y-5418*
X-3338Y-5418*
X-3339Y-5417*
X-3339Y-5417*
X-3340Y-5416*
X-3340Y-5416*
X-3342Y-5416*
X-3342Y-5416*
X-3343Y-5415*
X-3343Y-5415*
X-3344Y-5414*
X-3344Y-5414*
X-3345Y-5413*
X-3345Y-5413*
X-3347Y-5413*
X-3347Y-5413*
X-3348Y-5412*
X-3348Y-5412*
X-3349Y-5411*
X-3349Y-5411*
X-3350Y-5411*
X-3350Y-5410*
X-3351Y-5410*
X-3351Y-5410*
X-3352Y-5409*
X-3353Y-5409*
X-3354Y-5408*
X-3354Y-5408*
X-3355Y-5407*
X-3355Y-5407*
X-3356Y-5406*
X-3356Y-5406*
X-3383Y-5388*
X-3412Y-5372*
X-3415Y-5371*
X-3442Y-5346*
X-3477Y-5321*
X-3477Y-5321*
X-3478Y-5321*
X-3478Y-5321*
X-3480Y-5320*
X-3480Y-5320*
X-3481Y-5319*
X-3481Y-5319*
X-3482Y-5318*
X-3482Y-5318*
X-3483Y-5317*
X-3483Y-5317*
X-3484Y-5316*
X-3484Y-5316*
X-3485Y-5316*
X-3485Y-5316*
X-3486Y-5315*
X-3486Y-5315*
X-3488Y-5314*
X-3488Y-5314*
X-3489Y-5313*
X-3489Y-5313*
X-3490Y-5312*
X-3490Y-5312*
X-3491Y-5311*
X-3491Y-5311*
X-3492Y-5310*
X-3492Y-5310*
X-3493Y-5309*
X-3493Y-5309*
X-3494Y-5308*
X-3494Y-5308*
X-3495Y-5308*
X-3495Y-5307*
X-3496Y-5307*
X-3497Y-5306*
X-3497Y-5306*
X-3498Y-5306*
X-3499Y-5305*
X-3499Y-5305*
X-3500Y-5304*
X-3500Y-5304*
X-3501Y-5303*
X-3501Y-5303*
X-3502Y-5302*
X-3502Y-5302*
X-3503Y-5301*
X-3503Y-5301*
X-3504Y-5300*
X-3504Y-5300*
X-3505Y-5299*
X-3505Y-5299*
X-3506Y-5298*
X-3506Y-5298*
X-3507Y-5297*
X-3507Y-5297*
X-3508Y-5296*
X-3508Y-5296*
X-3578Y-5226*
X-3607Y-5200*
X-3609Y-5198*
X-3616Y-5188*
X-3619Y-5185*
X-3619Y-5185*
X-3619Y-5184*
X-3619Y-5184*
X-3620Y-5183*
X-3621Y-5183*
X-3621Y-5182*
X-3622Y-5182*
X-3622Y-5181*
X-3623Y-5181*
X-3623Y-5180*
X-3623Y-5180*
X-3624Y-5179*
X-3624Y-5179*
X-3625Y-5177*
X-3625Y-5177*
X-3626Y-5177*
X-3626Y-5177*
X-3627Y-5175*
X-3627Y-5175*
X-3628Y-5174*
X-3628Y-5174*
X-3629Y-5173*
X-3629Y-5173*
X-3630Y-5172*
X-3630Y-5172*
X-3631Y-5171*
X-3631Y-5171*
X-3632Y-5170*
X-3632Y-5170*
X-3632Y-5169*
X-3632Y-5169*
X-3633Y-5168*
X-3633Y-5167*
X-3634Y-5166*
X-3634Y-5166*
X-3635Y-5165*
X-3635Y-5165*
X-3636Y-5164*
X-3636Y-5164*
X-3637Y-5163*
X-3637Y-5163*
X-3638Y-5162*
X-3638Y-5162*
X-3638Y-5161*
X-3638Y-5161*
X-3723Y-5039*
X-3723Y-5039*
X-3724Y-5038*
X-3724Y-5038*
X-3725Y-5037*
X-3725Y-5037*
X-3726Y-5036*
X-3726Y-5036*
X-3726Y-5035*
X-3726Y-5035*
X-3727Y-5033*
X-3727Y-5033*
X-3728Y-5032*
X-3728Y-5032*
X-3729Y-5031*
X-3729Y-5031*
X-3730Y-5030*
X-3730Y-5030*
X-3730Y-5029*
X-3730Y-5029*
X-3731Y-5027*
X-3731Y-5027*
X-3732Y-5026*
X-3732Y-5026*
X-3733Y-5025*
X-3733Y-5025*
X-3733Y-5024*
X-3733Y-5024*
X-3734Y-5022*
X-3734Y-5022*
X-3735Y-5021*
X-3735Y-5021*
X-3735Y-5020*
X-3736Y-5020*
X-3736Y-5019*
X-3736Y-5019*
X-3737Y-5018*
X-3737Y-5017*
X-3738Y-5016*
X-3738Y-5016*
X-3738Y-5015*
X-3738Y-5015*
X-3739Y-5014*
X-3739Y-5014*
X-3739Y-5012*
X-3740Y-5012*
X-3740Y-5011*
X-3740Y-5011*
X-3741Y-5010*
X-3741Y-5010*
X-3741Y-5009*
X-3741Y-5008*
X-3742Y-5007*
X-3742Y-5007*
X-3743Y-5006*
X-3743Y-5006*
X-3743Y-5005*
X-3743Y-5005*
X-3745Y-5001*
X-3755Y-4986*
X-3757Y-4983*
X-3772Y-4944*
X-3806Y-4870*
X-3806Y-4870*
X-3806Y-4869*
X-3806Y-4869*
X-3807Y-4868*
X-3807Y-4868*
X-3808Y-4867*
X-3808Y-4867*
X-3808Y-4865*
X-3808Y-4865*
X-3809Y-4864*
X-3809Y-4864*
X-3809Y-4863*
X-3809Y-4863*
X-3810Y-4861*
X-3810Y-4861*
X-3810Y-4860*
X-3810Y-4860*
X-3811Y-4859*
X-3811Y-4859*
X-3812Y-4857*
X-3812Y-4857*
X-3812Y-4856*
X-3812Y-4856*
X-3812Y-4855*
X-3812Y-4855*
X-3813Y-4853*
X-3813Y-4853*
X-3813Y-4852*
X-3813Y-4852*
X-3814Y-4851*
X-3814Y-4851*
X-3815Y-4849*
X-3815Y-4849*
X-3815Y-4848*
X-3815Y-4848*
X-3815Y-4847*
X-3815Y-4847*
X-3816Y-4845*
X-3816Y-4845*
X-3816Y-4844*
X-3816Y-4844*
X-3817Y-4843*
X-3817Y-4843*
X-3817Y-4841*
X-3817Y-4841*
X-3818Y-4840*
X-3818Y-4840*
X-3818Y-4838*
X-3818Y-4838*
X-3818Y-4837*
X-3818Y-4837*
X-3819Y-4836*
X-3819Y-4836*
X-3819Y-4834*
X-3819Y-4834*
X-3820Y-4833*
X-3820Y-4833*
X-3834Y-4780*
X-3848Y-4743*
X-3849Y-4740*
X-3852Y-4712*
X-3858Y-4690*
X-3858Y-4690*
X-3858Y-4689*
X-3858Y-4689*
X-3859Y-4687*
X-3859Y-4687*
X-3859Y-4686*
X-3859Y-4686*
X-3859Y-4684*
X-3859Y-4684*
X-3860Y-4683*
X-3860Y-4683*
X-3860Y-4682*
X-3860Y-4682*
X-3860Y-4680*
X-3860Y-4680*
X-3861Y-4679*
X-3861Y-4679*
X-3861Y-4678*
X-3861Y-4677*
X-3861Y-4676*
X-3861Y-4676*
X-3861Y-4675*
X-3861Y-4675*
X-3862Y-4673*
X-3862Y-4673*
X-3862Y-4672*
X-3862Y-4672*
X-3862Y-4670*
X-3862Y-4670*
X-3862Y-4669*
X-3862Y-4669*
X-3863Y-4668*
X-3863Y-4668*
X-3863Y-4666*
X-3863Y-4666*
X-3863Y-4665*
X-3863Y-4665*
X-3863Y-4663*
X-3863Y-4663*
X-3864Y-4662*
X-3864Y-4662*
X-3864Y-4660*
X-3864Y-4660*
X-3864Y-4659*
X-3864Y-4659*
X-3864Y-4658*
X-3864Y-4658*
X-3864Y-4656*
X-3864Y-4656*
X-3864Y-4655*
X-3864Y-4655*
X-3865Y-4653*
X-3865Y-4653*
X-3865Y-4652*
X-3865Y-4652*
X-3865Y-4650*
X-3865Y-4650*
X-3878Y-4503*
X-3878Y-4503*
X-3878Y-4502*
X-3878Y-4502*
X-3878Y-4500*
X-3878Y-4500*
X-3878Y-4499*
X-3878Y-4499*
X-3878Y-4497*
X-3878Y-4497*
X-3878Y-4496*
X-3880Y-4485*
X-3880Y-4481*
X-3878Y-4470*
X-3878Y-4469*
X-3878Y-4469*
X-3878Y-4467*
X-3878Y-4467*
X-3878Y-4466*
X-3878Y-4466*
X-3878Y-4464*
X-3878Y-4464*
X-3878Y-4463*
X-3878Y-4463*
X-3865Y-4316*
X-3865Y-4316*
X-3865Y-4314*
X-3865Y-4314*
X-3865Y-4313*
X-3865Y-4313*
X-3864Y-4312*
X-3864Y-4311*
X-3864Y-4310*
X-3864Y-4310*
X-3864Y-4309*
X-3864Y-4309*
X-3864Y-4307*
X-3864Y-4307*
X-3864Y-4306*
X-3864Y-4306*
X-3864Y-4305*
X-3864Y-4304*
X-3863Y-4303*
X-3863Y-4303*
X-3863Y-4302*
X-3863Y-4301*
X-3863Y-4300*
X-3863Y-4300*
X-3863Y-4299*
X-3863Y-4299*
X-3862Y-4297*
X-3862Y-4297*
X-3862Y-4296*
X-3862Y-4296*
X-3862Y-4295*
X-3862Y-4294*
X-3862Y-4293*
X-3862Y-4293*
X-3861Y-4292*
X-3861Y-4292*
X-3861Y-4290*
X-3861Y-4290*
X-3861Y-4289*
X-3861Y-4289*
X-3861Y-4287*
X-3861Y-4287*
X-3860Y-4286*
X-3860Y-4286*
X-3860Y-4285*
X-3860Y-4285*
X-3860Y-4283*
X-3860Y-4283*
X-3859Y-4282*
X-3859Y-4282*
X-3859Y-4280*
X-3859Y-4280*
X-3859Y-4279*
X-3859Y-4279*
X-3858Y-4278*
X-3858Y-4277*
X-3858Y-4276*
X-3858Y-4276*
X-3852Y-4254*
X-3849Y-4226*
X-3848Y-4223*
X-3834Y-4186*
X-3820Y-4133*
X-3820Y-4133*
X-3819Y-4132*
X-3819Y-4132*
X-3819Y-4131*
X-3819Y-4131*
X-3818Y-4129*
X-3818Y-4129*
X-3818Y-4128*
X-3818Y-4128*
X-3818Y-4127*
X-3818Y-4126*
X-3817Y-4125*
X-3817Y-4125*
X-3817Y-4124*
X-3817Y-4124*
X-3816Y-4122*
X-3816Y-4122*
X-3816Y-4121*
X-3816Y-4121*
X-3815Y-4120*
X-3815Y-4120*
X-3815Y-4118*
X-3815Y-4118*
X-3815Y-4117*
X-3815Y-4117*
X-3814Y-4116*
X-3814Y-4116*
X-3814Y-4114*
X-3814Y-4114*
X-3813Y-4113*
X-3813Y-4113*
X-3813Y-4112*
X-3813Y-4112*
X-3812Y-4110*
X-3812Y-4110*
X-3812Y-4109*
X-3812Y-4109*
X-3811Y-4107*
X-3811Y-4107*
X-3811Y-4106*
X-3810Y-4106*
X-3810Y-4105*
X-3810Y-4105*
X-3809Y-4104*
X-3809Y-4103*
X-3809Y-4102*
X-3809Y-4102*
X-3808Y-4101*
X-3808Y-4101*
X-3808Y-4100*
X-3808Y-4100*
X-3807Y-4098*
X-3807Y-4098*
X-3807Y-4097*
X-3806Y-4097*
X-3806Y-4096*
X-3806Y-4096*
X-3772Y-4022*
X-3757Y-3983*
X-3755Y-3980*
X-3745Y-3965*
X-3743Y-3961*
X-3743Y-3961*
X-3743Y-3960*
X-3743Y-3960*
X-3742Y-3959*
X-3742Y-3959*
X-3742Y-3958*
X-3742Y-3958*
X-3741Y-3956*
X-3741Y-3956*
X-3740Y-3955*
X-3740Y-3955*
X-3740Y-3954*
X-3740Y-3954*
X-3739Y-3953*
X-3739Y-3953*
X-3738Y-3951*
X-3738Y-3951*
X-3738Y-3950*
X-3738Y-3950*
X-3737Y-3949*
X-3737Y-3949*
X-3736Y-3948*
X-3736Y-3948*
X-3736Y-3946*
X-3736Y-3946*
X-3735Y-3945*
X-3735Y-3945*
X-3734Y-3944*
X-3734Y-3944*
X-3733Y-3943*
X-3733Y-3943*
X-3733Y-3941*
X-3733Y-3941*
X-3732Y-3940*
X-3732Y-3940*
X-3731Y-3939*
X-3731Y-3939*
X-3730Y-3938*
X-3730Y-3938*
X-3730Y-3936*
X-3730Y-3936*
X-3729Y-3935*
X-3729Y-3935*
X-3728Y-3934*
X-3728Y-3934*
X-3728Y-3933*
X-3727Y-3933*
X-3727Y-3932*
X-3727Y-3932*
X-3726Y-3931*
X-3726Y-3930*
X-3725Y-3929*
X-3725Y-3929*
X-3724Y-3928*
X-3724Y-3928*
X-3723Y-3927*
X-3723Y-3927*
X-3638Y-3805*
X-3638Y-3805*
X-3638Y-3805*
X-3638Y-3805*
X-3637Y-3803*
X-3637Y-3803*
X-3636Y-3802*
X-3636Y-3802*
X-3635Y-3801*
X-3635Y-3801*
X-3634Y-3800*
X-3634Y-3800*
X-3633Y-3799*
X-3633Y-3799*
X-3633Y-3798*
X-3633Y-3798*
X-3632Y-3797*
X-3632Y-3797*
X-3631Y-3795*
X-3631Y-3795*
X-3630Y-3794*
X-3630Y-3794*
X-3629Y-3793*
X-3629Y-3793*
X-3628Y-3792*
X-3628Y-3792*
X-3627Y-3791*
X-3627Y-3791*
X-3626Y-3790*
X-3626Y-3790*
X-3625Y-3789*
X-3625Y-3789*
X-3625Y-3788*
X-3624Y-3788*
X-3624Y-3787*
X-3623Y-3786*
X-3623Y-3786*
X-3623Y-3785*
X-3622Y-3784*
X-3622Y-3784*
X-3621Y-3783*
X-3621Y-3783*
X-3620Y-3782*
X-3620Y-3782*
X-3619Y-3781*
X-3619Y-3781*
X-3616Y-3778*
X-3609Y-3768*
X-3607Y-3766*
X-3578Y-3740*
X-3508Y-3670*
X-3508Y-3670*
X-3507Y-3669*
X-3507Y-3669*
X-3506Y-3668*
X-3506Y-3668*
X-3505Y-3667*
X-3505Y-3667*
X-3504Y-3666*
X-3504Y-3666*
X-3503Y-3665*
X-3503Y-3665*
X-3502Y-3664*
X-3502Y-3664*
X-3501Y-3664*
X-3501Y-3664*
X-3500Y-3663*
X-3500Y-3662*
X-3499Y-3662*
X-3499Y-3661*
X-3498Y-3661*
X-3498Y-3660*
X-3497Y-3660*
X-3497Y-3660*
X-3496Y-3659*
X-3496Y-3659*
X-3494Y-3658*
X-3494Y-3658*
X-3494Y-3657*
X-3494Y-3657*
X-3492Y-3656*
X-3492Y-3656*
X-3491Y-3655*
X-3491Y-3655*
X-3490Y-3654*
X-3490Y-3654*
X-3489Y-3653*
X-3489Y-3653*
X-3488Y-3652*
X-3488Y-3652*
X-3487Y-3651*
X-3487Y-3651*
X-3486Y-3651*
X-3486Y-3651*
X-3485Y-3650*
X-3484Y-3650*
X-3483Y-3649*
X-3483Y-3649*
X-3482Y-3648*
X-3482Y-3648*
X-3481Y-3647*
X-3481Y-3647*
X-3480Y-3646*
X-3480Y-3646*
X-3479Y-3645*
X-3479Y-3645*
X-3478Y-3645*
X-3478Y-3645*
X-3442Y-3620*
X-3415Y-3595*
X-3412Y-3594*
X-3383Y-3578*
X-3325Y-3538*
X-3444Y-3418*
X-4371Y-3418*
X-4372Y-3418*
X-4433Y-3412*
X-4436Y-3412*
X-4496Y-3393*
X-4498Y-3393*
X-4553Y-3363*
X-4555Y-3362*
X-4603Y-3322*
X-4604Y-3322*
X-5042Y-2884*
X-5042Y-2883*
X-5082Y-2835*
X-5083Y-2833*
X-5113Y-2778*
X-5113Y-2776*
X-5132Y-2716*
X-5132Y-2713*
X-5138Y-2652*
X-5138Y-2651*
X-5138Y-2607*
X-5160Y-2598*
X-5162Y-2597*
X-5191Y-2579*
X-5193Y-2578*
X-5219Y-2556*
X-5220Y-2555*
X-5242Y-2529*
X-5243Y-2527*
X-5261Y-2498*
X-5262Y-2496*
X-5275Y-2465*
X-5276Y-2463*
X-5284Y-2430*
X-5284Y-2428*
X-5287Y-2394*
X-5287Y-2393*
X-5287Y-1493*
X-5287Y-1492*
X-5284Y-1458*
X-5284Y-1456*
X-5276Y-1423*
X-5275Y-1421*
X-5262Y-1390*
X-5261Y-1388*
X-5243Y-1359*
X-5242Y-1357*
X-5220Y-1331*
X-5219Y-1330*
X-5193Y-1308*
X-5191Y-1307*
X-5162Y-1289*
X-5160Y-1288*
X-5129Y-1275*
X-5127Y-1274*
X-5094Y-1266*
X-5092Y-1266*
X-5059Y-1263*
X-5058Y-1263*
X-4556Y-1263*
X-4555Y-1263*
X-4522Y-1266*
X-4520Y-1266*
X-4487Y-1274*
X-4485Y-1275*
X-4454Y-1288*
X-4452Y-1289*
X-4423Y-1307*
X-4421Y-1308*
X-4395Y-1330*
X-4394Y-1331*
X-4372Y-1357*
X-4371Y-1359*
X-4353Y-1388*
X-4352Y-1390*
X-4339Y-1421*
X-4338Y-1423*
X-4330Y-1456*
X-4330Y-1458*
X-4327Y-1491*
X-4327Y-1492*
X-4327Y-2394*
X-4327Y-2395*
X-4330Y-2428*
X-4330Y-2430*
X-4338Y-2463*
X-4339Y-2465*
X-4352Y-2496*
X-4353Y-2498*
X-4371Y-2527*
X-4372Y-2529*
X-4412Y-2576*
X-4233Y-2756*
X-3306Y-2756*
X-3305Y-2756*
X-3244Y-2762*
X-3241Y-2762*
X-3181Y-2781*
X-3179Y-2781*
X-3124Y-2811*
X-3122Y-2812*
X-3074Y-2852*
X-3073Y-2852*
X-2565Y-3360*
X-2565Y-3361*
X-2529Y-3404*
X-0799Y-3404*
X-0799Y-3404*
X-0797Y-3404*
X-0797Y-3404*
X-0796Y-3404*
X-0796Y-3404*
X-0794Y-3404*
X-0794Y-3404*
X-0793Y-3405*
X-0793Y-3405*
X-0792Y-3405*
X-0791Y-3405*
X-0790Y-3405*
X-0790Y-3405*
X-0789Y-3405*
X-0789Y-3405*
X-0787Y-3405*
X-0787Y-3405*
X-0786Y-3405*
X-0786Y-3405*
X-0784Y-3405*
X-0784Y-3405*
X-0783Y-3405*
X-0783Y-3405*
X-0781Y-3405*
X-0781Y-3405*
X-0780Y-3405*
X-0780Y-3405*
X-0714Y-3411*
X-0671Y-3411*
X-0668Y-3411*
X-0646Y-3417*
X-0632Y-3418*
X-0632Y-3418*
X-0631Y-3418*
X-0631Y-3418*
X-0630Y-3418*
X-0630Y-3418*
X-0629Y-3419*
X-0628Y-3419*
X-0627Y-3419*
X-0627Y-3419*
X-0626Y-3419*
X-0626Y-3419*
X-0624Y-3419*
X-0624Y-3419*
X-0623Y-3419*
X-0623Y-3419*
X-0621Y-3419*
X-0621Y-3419*
X-0620Y-3420*
X-0620Y-3420*
X-0619Y-3420*
X-0618Y-3420*
X-0617Y-3420*
X-0617Y-3420*
X-0616Y-3420*
X-0616Y-3420*
X-0614Y-3421*
X-0614Y-3421*
X-0613Y-3421*
X-0613Y-3421*
X-0612Y-3421*
X-0611Y-3421*
X-0610Y-3421*
X-0610Y-3421*
X-0609Y-3422*
X-0609Y-3422*
X-0607Y-3422*
X-0607Y-3422*
X-0606Y-3422*
X-0606Y-3422*
X-0604Y-3422*
X-0604Y-3422*
X-0603Y-3423*
X-0603Y-3423*
X-0602Y-3423*
X-0602Y-3423*
X-0600Y-3423*
X-0600Y-3423*
X-0599Y-3424*
X-0599Y-3424*
X-0597Y-3424*
X-0597Y-3424*
X-0596Y-3424*
X-0596Y-3424*
X-0595Y-3425*
X-0594Y-3425*
X-0593Y-3425*
X-0593Y-3425*
X-0462Y-3460*
X-0430Y-3428*
X-0451Y-3360*
X-0452Y-3357*
X-0461Y-3267*
X-0461Y-3266*
X-0461Y-1788*
X-0485Y-1778*
X-0487Y-1777*
X-0516Y-1759*
X-0518Y-1758*
X-0544Y-1736*
X-0545Y-1735*
X-0567Y-1709*
X-0568Y-1707*
X-0586Y-1678*
X-0587Y-1676*
X-0600Y-1645*
X-0601Y-1643*
X-0609Y-1610*
X-0609Y-1608*
X-0612Y-1574*
X-0612Y-1573*
X-0612Y-0601*
X-0612Y-0600*
X-0607Y-0539*
X-0796Y-0539*
X-1250Y-0984*
X-1250Y-1574*
X-1250Y-1575*
X-1253Y-1608*
X-1253Y-1610*
X-1261Y-1643*
X-1262Y-1645*
X-1275Y-1676*
X-1276Y-1678*
X-1294Y-1707*
X-1295Y-1709*
X-1317Y-1735*
X-1318Y-1736*
X-1344Y-1758*
X-1346Y-1759*
X-1375Y-1777*
X-1377Y-1778*
X-1408Y-1791*
X-1410Y-1792*
X-1443Y-1800*
X-1445Y-1800*
X-1479Y-1803*
X-1480Y-1803*
X-2077Y-1803*
X-2452Y-2178*
X-2453Y-2178*
X-2501Y-2218*
X-2503Y-2219*
X-2558Y-2249*
X-2560Y-2249*
X-2620Y-2268*
X-2623Y-2268*
X-2684Y-2274*
X-2685Y-2274*
X-2827Y-2274*
X-2827Y-2394*
X-2827Y-2395*
X-2830Y-2428*
X-2830Y-2430*
X-2838Y-2463*
X-2839Y-2465*
X-2852Y-2496*
X-2853Y-2498*
X-2871Y-2527*
X-2872Y-2529*
X-2894Y-2555*
X-2895Y-2556*
X-2921Y-2578*
X-2923Y-2579*
X-2952Y-2597*
X-2954Y-2598*
X-2985Y-2611*
X-2987Y-2612*
X-3020Y-2620*
X-3022Y-2620*
X-3056Y-2623*
X-3057Y-2623*
X-3557Y-2623*
X-3558Y-2623*
X-3592Y-2620*
X-3594Y-2620*
X-3627Y-2612*
X-3629Y-2611*
X-3660Y-2598*
X-3662Y-2597*
X-3691Y-2579*
X-3693Y-2578*
X-3719Y-2556*
X-3720Y-2555*
X-3742Y-2529*
X-3743Y-2527*
X-3761Y-2498*
X-3762Y-2496*
X-3775Y-2465*
X-3776Y-2463*
X-3784Y-2430*
X-3784Y-2428*
X-3787Y-2394*
X-3787Y-2393*
X-3787Y-1493*
X-3787Y-1492*
X-3784Y-1458*
X-3784Y-1456*
X-3776Y-1423*
X-3775Y-1421*
X-3762Y-1390*
X-3761Y-1388*
X-3743Y-1359*
X-3742Y-1357*
X-3720Y-1331*
X-3719Y-1330*
X-3693Y-1308*
X-3691Y-1307*
X-3662Y-1289*
X-3660Y-1288*
X-3629Y-1275*
X-3627Y-1274*
X-3594Y-1266*
X-3592Y-1266*
X-3559Y-1263*
X-3558Y-1263*
X-3056Y-1263*
X-3055Y-1263*
X-3022Y-1266*
X-3020Y-1266*
X-2987Y-1274*
X-2985Y-1275*
X-2954Y-1288*
X-2952Y-1289*
X-2923Y-1307*
X-2921Y-1308*
X-2895Y-1330*
X-2894Y-1331*
X-2872Y-1357*
X-2871Y-1359*
X-2853Y-1388*
X-2852Y-1390*
X-2839Y-1421*
X-2838Y-1423*
X-2830Y-1456*
X-2830Y-1458*
X-2827Y-1491*
X-2827Y-1492*
X-2827Y-1549*
X-2780Y-1569*
X-2512Y-1300*
X-2512Y-0601*
X-2512Y-0600*
X-2509Y-0566*
X-2509Y-0564*
X-2501Y-0531*
X-2500Y-0529*
X-2487Y-0498*
X-2486Y-0496*
X-2468Y-0467*
X-2467Y-0465*
X-2445Y-0439*
X-2444Y-0438*
X-2418Y-0416*
X-2416Y-0415*
X-2387Y-0397*
X-2385Y-0396*
X-2354Y-0383*
X-2352Y-0382*
X-2319Y-0374*
X-2317Y-0374*
X-2284Y-0371*
X-2283Y-0371*
X-1571Y-0371*
X-1274Y-0080*
X-1293Y-0033*
X-1332Y-0033*
X-1333Y-0033*
X-1367Y-0030*
X-1369Y-0030*
X-1402Y-0022*
X-1404Y-0021*
X-1435Y-0008*
X-1437Y-0007*
X-1466Y0011*
X-1468Y0012*
X-1494Y0034*
X-1495Y0035*
X-1517Y0061*
X-1518Y0063*
X-1536Y0092*
X-1537Y0094*
X-1550Y0125*
X-1551Y0127*
X-1559Y0160*
X-1559Y0162*
X-1562Y0196*
X-1562Y0197*
X-1562Y1081*
X-1609Y1100*
X-2448Y0262*
X-2448Y0261*
X-2483Y0233*
X-2518Y0204*
X-2519Y0204*
X-2520Y0203*
X-2521Y0202*
X-2561Y0181*
X-2601Y0159*
X-2604Y0158*
X-2604Y0158*
X-2647Y0145*
X-2691Y0132*
X-2694Y0131*
X-2784Y0123*
X-2793Y0097*
X-2795Y0094*
X-2805Y0079*
X-2807Y0075*
X-2807Y0075*
X-2807Y0074*
X-2807Y0074*
X-2808Y0073*
X-2808Y0073*
X-2808Y0072*
X-2808Y0072*
X-2809Y0070*
X-2809Y0070*
X-2810Y0069*
X-2810Y0069*
X-2810Y0068*
X-2810Y0068*
X-2811Y0067*
X-2811Y0067*
X-2812Y0065*
X-2812Y0065*
X-2812Y0064*
X-2812Y0064*
X-2813Y0063*
X-2813Y0063*
X-2814Y0062*
X-2814Y0062*
X-2814Y0060*
X-2814Y0060*
X-2815Y0059*
X-2815Y0059*
X-2816Y0058*
X-2816Y0058*
X-2817Y0057*
X-2817Y0056*
X-2817Y0055*
X-2817Y0055*
X-2818Y0054*
X-2818Y0054*
X-2819Y0053*
X-2819Y0053*
X-2820Y0052*
X-2820Y0052*
X-2820Y0050*
X-2820Y0050*
X-2821Y0049*
X-2821Y0049*
X-2822Y0048*
X-2822Y0048*
X-2822Y0047*
X-2823Y0047*
X-2823Y0046*
X-2823Y0046*
X-2824Y0045*
X-2824Y0044*
X-2825Y0043*
X-2825Y0043*
X-2826Y0042*
X-2826Y0042*
X-2827Y0041*
X-2827Y0041*
X-2912Y-0081*
X-2912Y-0081*
X-2912Y-0081*
X-2912Y-0081*
X-2913Y-0083*
X-2913Y-0083*
X-2914Y-0084*
X-2914Y-0084*
X-2915Y-0085*
X-2915Y-0085*
X-2916Y-0086*
X-2916Y-0086*
X-2917Y-0087*
X-2917Y-0087*
X-2917Y-0088*
X-2917Y-0088*
X-2918Y-0089*
X-2918Y-0089*
X-2919Y-0091*
X-2919Y-0091*
X-2920Y-0092*
X-2920Y-0092*
X-2921Y-0093*
X-2921Y-0093*
X-2922Y-0094*
X-2922Y-0094*
X-2923Y-0095*
X-2923Y-0095*
X-2924Y-0096*
X-2924Y-0096*
X-2925Y-0097*
X-2925Y-0097*
X-2926Y-0098*
X-2926Y-0098*
X-2926Y-0099*
X-2927Y-0100*
X-2927Y-0101*
X-2927Y-0101*
X-2928Y-0102*
X-2928Y-0102*
X-2929Y-0103*
X-2929Y-0103*
X-2930Y-0104*
X-2930Y-0104*
X-2931Y-0105*
X-2931Y-0105*
X-2934Y-0108*
X-2941Y-0118*
X-2943Y-0120*
X-2972Y-0146*
X-3042Y-0216*
X-3042Y-0216*
X-3043Y-0217*
X-3043Y-0217*
X-3044Y-0218*
X-3044Y-0218*
X-3045Y-0219*
X-3045Y-0219*
X-3046Y-0220*
X-3046Y-0220*
X-3047Y-0221*
X-3047Y-0221*
X-3048Y-0222*
X-3048Y-0222*
X-3049Y-0222*
X-3049Y-0222*
X-3050Y-0224*
X-3050Y-0224*
X-3051Y-0224*
X-3051Y-0225*
X-3052Y-0225*
X-3052Y-0226*
X-3053Y-0226*
X-3053Y-0226*
X-3054Y-0227*
X-3054Y-0227*
X-3056Y-0228*
X-3056Y-0228*
X-3056Y-0229*
X-3056Y-0229*
X-3058Y-0230*
X-3058Y-0230*
X-3059Y-0231*
X-3059Y-0231*
X-3060Y-0232*
X-3060Y-0232*
X-3061Y-0233*
X-3061Y-0233*
X-3062Y-0234*
X-3062Y-0234*
X-3063Y-0235*
X-3063Y-0235*
X-3064Y-0235*
X-3064Y-0236*
X-3065Y-0236*
X-3066Y-0236*
X-3067Y-0237*
X-3067Y-0237*
X-3068Y-0238*
X-3068Y-0238*
X-3069Y-0239*
X-3069Y-0239*
X-3070Y-0240*
X-3070Y-0240*
X-3071Y-0241*
X-3071Y-0241*
X-3072Y-0241*
X-3072Y-0241*
X-3108Y-0266*
X-3135Y-0291*
X-3138Y-0292*
X-3167Y-0308*
X-3194Y-0326*
X-3194Y-0326*
X-3195Y-0327*
X-3195Y-0327*
X-3196Y-0328*
X-3196Y-0328*
X-3197Y-0329*
X-3197Y-0329*
X-3198Y-0329*
X-3198Y-0329*
X-3200Y-0330*
X-3200Y-0330*
X-3201Y-0331*
X-3201Y-0331*
X-3202Y-0332*
X-3202Y-0332*
X-3203Y-0333*
X-3203Y-0333*
X-3204Y-0333*
X-3204Y-0333*
X-3206Y-0334*
X-3206Y-0334*
X-3207Y-0335*
X-3207Y-0335*
X-3208Y-0336*
X-3208Y-0336*
X-3209Y-0336*
X-3209Y-0336*
X-3211Y-0337*
X-3211Y-0337*
X-3212Y-0338*
X-3212Y-0338*
X-3213Y-0338*
X-3213Y-0339*
X-3214Y-0339*
X-3214Y-0339*
X-3215Y-0340*
X-3216Y-0340*
X-3217Y-0341*
X-3217Y-0341*
X-3218Y-0341*
X-3218Y-0341*
X-3219Y-0342*
X-3219Y-0342*
X-3221Y-0343*
X-3221Y-0343*
X-3222Y-0343*
X-3222Y-0343*
X-3223Y-0344*
X-3223Y-0344*
X-3224Y-0344*
X-3225Y-0344*
X-3226Y-0345*
X-3226Y-0345*
X-3227Y-0346*
X-3227Y-0346*
X-3228Y-0346*
X-3228Y-0346*
X-3339Y-0398*
X-3366Y-0412*
X-3369Y-0413*
X-3377Y-0415*
X-3380Y-0416*
X-3380Y-0416*
X-3381Y-0416*
X-3381Y-0416*
X-3382Y-0417*
X-3382Y-0417*
X-3384Y-0417*
X-3384Y-0418*
X-3385Y-0418*
X-3385Y-0418*
X-3386Y-0418*
X-3386Y-0418*
X-3388Y-0419*
X-3388Y-0419*
X-3389Y-0419*
X-3389Y-0419*
X-3390Y-0420*
X-3390Y-0420*
X-3392Y-0420*
X-3392Y-0420*
X-3393Y-0421*
X-3393Y-0421*
X-3395Y-0421*
X-3395Y-0421*
X-3396Y-0421*
X-3396Y-0421*
X-3397Y-0422*
X-3397Y-0422*
X-3399Y-0422*
X-3399Y-0422*
X-3400Y-0423*
X-3400Y-0423*
X-3543Y-0461*
X-3543Y-0461*
X-3544Y-0461*
X-3544Y-0461*
X-3546Y-0462*
X-3546Y-0462*
X-3547Y-0462*
X-3547Y-0462*
X-3549Y-0462*
X-3549Y-0462*
X-3550Y-0463*
X-3550Y-0463*
X-3551Y-0463*
X-3551Y-0463*
X-3553Y-0463*
X-3553Y-0463*
X-3554Y-0464*
X-3554Y-0464*
X-3555Y-0464*
X-3556Y-0464*
X-3557Y-0464*
X-3557Y-0464*
X-3558Y-0464*
X-3558Y-0464*
X-3560Y-0465*
X-3560Y-0465*
X-3561Y-0465*
X-3561Y-0465*
X-3563Y-0465*
X-3563Y-0465*
X-3564Y-0465*
X-3564Y-0465*
X-3565Y-0466*
X-3565Y-0466*
X-3567Y-0466*
X-3567Y-0466*
X-3568Y-0466*
X-3568Y-0466*
X-3570Y-0466*
X-3570Y-0466*
X-3571Y-0467*
X-3571Y-0467*
X-3573Y-0467*
X-3573Y-0467*
X-3574Y-0467*
X-3574Y-0467*
X-3575Y-0467*
X-3575Y-0467*
X-3577Y-0467*
X-3577Y-0467*
X-3578Y-0467*
X-3578Y-0467*
X-3580Y-0468*
X-3580Y-0468*
X-3581Y-0468*
X-3581Y-0468*
X-3582Y-0468*
X-3583Y-0468*
X-3596Y-0469*
X-3618Y-0475*
X-3621Y-0475*
X-3664Y-0475*
X-3730Y-0481*
X-3730Y-0481*
X-3731Y-0481*
X-3731Y-0481*
X-3733Y-0481*
X-3733Y-0481*
X-3734Y-0481*
X-3734Y-0481*
X-3736Y-0481*
X-3736Y-0481*
X-3737Y-0481*
X-3737Y-0481*
X-3739Y-0481*
X-3739Y-0481*
X-3740Y-0481*
X-3740Y-0481*
X-3741Y-0481*
X-3742Y-0481*
X-3743Y-0481*
X-3743Y-0481*
X-3744Y-0482*
X-3744Y-0482*
X-3746Y-0482*
X-3746Y-0482*
X-3747Y-0482*
X-3747Y-0482*
X-3749Y-0482*
X-3749Y-0482*
X-3750Y-0482*
X-3750Y-0482*
X-5750Y-0482*
X-5750Y-0482*
X-5751Y-0482*
X-5751Y-0482*
X-5753Y-0482*
X-5753Y-0482*
X-5754Y-0482*
X-5754Y-0482*
X-5756Y-0482*
X-5756Y-0482*
X-5757Y-0481*
X-5757Y-0481*
X-5758Y-0481*
X-5759Y-0481*
X-5760Y-0481*
X-5760Y-0481*
X-5761Y-0481*
X-5761Y-0481*
X-5763Y-0481*
X-5763Y-0481*
X-5764Y-0481*
X-5764Y-0481*
X-5766Y-0481*
X-5766Y-0481*
X-5767Y-0481*
X-5767Y-0481*
X-5769Y-0481*
X-5769Y-0481*
X-5770Y-0481*
X-5770Y-0481*
X-5836Y-0475*
X-5879Y-0475*
X-5882Y-0475*
X-5904Y-0469*
X-5917Y-0468*
X-5918Y-0468*
X-5919Y-0468*
X-5919Y-0468*
X-5920Y-0468*
X-5920Y-0468*
X-5921Y-0467*
X-5922Y-0467*
X-5923Y-0467*
X-5923Y-0467*
X-5924Y-0467*
X-5924Y-0467*
X-5926Y-0467*
X-5926Y-0467*
X-5927Y-0467*
X-5927Y-0467*
X-5929Y-0467*
X-5929Y-0467*
X-5930Y-0466*
X-5930Y-0466*
X-5931Y-0466*
X-5932Y-0466*
X-5933Y-0466*
X-5933Y-0466*
X-5934Y-0466*
X-5934Y-0466*
X-5936Y-0465*
X-5936Y-0465*
X-5937Y-0465*
X-5937Y-0465*
X-5938Y-0465*
X-5939Y-0465*
X-5940Y-0465*
X-5940Y-0465*
X-5941Y-0464*
X-5941Y-0464*
X-5943Y-0464*
X-5943Y-0464*
X-5944Y-0464*
X-5944Y-0464*
X-5946Y-0464*
X-5946Y-0464*
X-5947Y-0463*
X-5947Y-0463*
X-5948Y-0463*
X-5948Y-0463*
X-5950Y-0463*
X-5950Y-0463*
X-5951Y-0462*
X-5951Y-0462*
X-5953Y-0462*
X-5953Y-0462*
X-5954Y-0462*
X-5954Y-0462*
X-5955Y-0461*
X-5956Y-0461*
X-5957Y-0461*
X-5957Y-0461*
X-6100Y-0423*
X-6100Y-0423*
X-6101Y-0422*
X-6101Y-0422*
X-6102Y-0422*
X-6102Y-0422*
X-6104Y-0421*
X-6104Y-0421*
X-6105Y-0421*
X-6105Y-0421*
X-6106Y-0421*
X-6107Y-0421*
X-6108Y-0420*
X-6108Y-0420*
X-6109Y-0420*
X-6109Y-0420*
X-6111Y-0419*
X-6111Y-0419*
X-6112Y-0419*
X-6112Y-0419*
X-6113Y-0418*
X-6113Y-0418*
X-6115Y-0418*
X-6115Y-0418*
X-6116Y-0418*
X-6116Y-0418*
X-6117Y-0417*
X-6117Y-0417*
X-6119Y-0417*
X-6119Y-0417*
X-6120Y-0416*
X-6120Y-0416*
X-6123Y-0415*
X-6131Y-0413*
X-6134Y-0412*
X-6161Y-0398*
X-6272Y-0346*
X-6272Y-0346*
X-6273Y-0346*
X-6273Y-0346*
X-6274Y-0345*
X-6274Y-0345*
X-6275Y-0345*
X-6275Y-0345*
X-6277Y-0344*
X-6277Y-0344*
X-6278Y-0343*
X-6278Y-0343*
X-6279Y-0343*
X-6279Y-0343*
X-6280Y-0342*
X-6280Y-0342*
X-6282Y-0341*
X-6282Y-0341*
X-6283Y-0341*
X-6283Y-0341*
X-6284Y-0340*
X-6284Y-0340*
X-6285Y-0339*
X-6285Y-0339*
X-6287Y-0339*
X-6287Y-0339*
X-6288Y-0338*
X-6288Y-0338*
X-6289Y-0337*
X-6289Y-0337*
X-6290Y-0336*
X-6290Y-0336*
X-6292Y-0336*
X-6292Y-0336*
X-6293Y-0335*
X-6293Y-0335*
X-6294Y-0334*
X-6294Y-0334*
X-6295Y-0333*
X-6295Y-0333*
X-6297Y-0333*
X-6297Y-0333*
X-6298Y-0332*
X-6298Y-0332*
X-6299Y-0331*
X-6299Y-0331*
X-6300Y-0331*
X-6300Y-0330*
X-6301Y-0330*
X-6301Y-0330*
X-6302Y-0329*
X-6303Y-0329*
X-6304Y-0328*
X-6304Y-0328*
X-6305Y-0327*
X-6305Y-0327*
X-6306Y-0326*
X-6306Y-0326*
X-6333Y-0308*
X-6362Y-0292*
X-6365Y-0291*
X-6392Y-0266*
X-6427Y-0241*
X-6427Y-0241*
X-6428Y-0241*
X-6428Y-0241*
X-6430Y-0240*
X-6430Y-0240*
X-6431Y-0239*
X-6431Y-0239*
X-6432Y-0238*
X-6432Y-0238*
X-6433Y-0237*
X-6433Y-0237*
X-6434Y-0236*
X-6434Y-0236*
X-6435Y-0236*
X-6435Y-0236*
X-6436Y-0235*
X-6436Y-0235*
X-6438Y-0234*
X-6438Y-0234*
X-6439Y-0233*
X-6439Y-0233*
X-6440Y-0232*
X-6440Y-0232*
X-6441Y-0231*
X-6441Y-0231*
X-6442Y-0230*
X-6442Y-0230*
X-6443Y-0229*
X-6443Y-0229*
X-6444Y-0228*
X-6444Y-0228*
X-6445Y-0228*
X-6445Y-0227*
X-6446Y-0227*
X-6447Y-0226*
X-6447Y-0226*
X-6448Y-0226*
X-6449Y-0225*
X-6449Y-0225*
X-6450Y-0224*
X-6450Y-0224*
X-6451Y-0223*
X-6451Y-0223*
X-6452Y-0222*
X-6452Y-0222*
X-6453Y-0221*
X-6453Y-0221*
X-6454Y-0220*
X-6454Y-0220*
X-6455Y-0219*
X-6455Y-0219*
X-6456Y-0218*
X-6456Y-0218*
X-6457Y-0217*
X-6457Y-0217*
X-6458Y-0216*
X-6458Y-0216*
X-6528Y-0146*
X-6557Y-0120*
X-6559Y-0118*
X-6566Y-0108*
X-6569Y-0105*
X-6569Y-0105*
X-6569Y-0104*
X-6569Y-0104*
X-6570Y-0103*
X-6571Y-0103*
X-6571Y-0102*
X-6572Y-0102*
X-6572Y-0101*
X-6572Y-0101*
X-6573Y-0100*
X-6573Y-0100*
X-6574Y-0099*
X-6574Y-0099*
X-6575Y-0098*
X-6575Y-0097*
X-6576Y-0097*
X-6576Y-0097*
X-6577Y-0095*
X-6577Y-0095*
X-6578Y-0094*
X-6578Y-0094*
X-6579Y-0093*
X-6579Y-0093*
X-6580Y-0092*
X-6580Y-0092*
X-6581Y-0091*
X-6581Y-0091*
X-6582Y-0090*
X-6582Y-0090*
X-6582Y-0089*
X-6582Y-0089*
X-6583Y-0088*
X-6583Y-0087*
X-6584Y-0086*
X-6584Y-0086*
X-6585Y-0085*
X-6585Y-0085*
X-6586Y-0084*
X-6586Y-0084*
X-6587Y-0083*
X-6587Y-0083*
X-6588Y-0082*
X-6588Y-0082*
X-6588Y-0081*
X-6588Y-0081*
X-6673Y0041*
X-6673Y0041*
X-6674Y0042*
X-6674Y0042*
X-6675Y0043*
X-6675Y0043*
X-6676Y0044*
X-6676Y0044*
X-6676Y0045*
X-6676Y0045*
X-6677Y0047*
X-6677Y0047*
X-6678Y0048*
X-6678Y0048*
X-6679Y0049*
X-6679Y0049*
X-6680Y0050*
X-6680Y0050*
X-6680Y0051*
X-6680Y0051*
X-6681Y0053*
X-6681Y0053*
X-6682Y0054*
X-6682Y0054*
X-6683Y0055*
X-6683Y0055*
X-6683Y0056*
X-6683Y0056*
X-6684Y0058*
X-6684Y0058*
X-6685Y0059*
X-6685Y0059*
X-6685Y0060*
X-6685Y0060*
X-6686Y0061*
X-6686Y0061*
X-6687Y0062*
X-6687Y0063*
X-6688Y0064*
X-6688Y0064*
X-6688Y0065*
X-6688Y0065*
X-6689Y0066*
X-6689Y0066*
X-6689Y0068*
X-6690Y0068*
X-6690Y0069*
X-6690Y0069*
X-6691Y0070*
X-6691Y0070*
X-6691Y0071*
X-6691Y0072*
X-6692Y0073*
X-6692Y0073*
X-6693Y0074*
X-6693Y0074*
X-6693Y0075*
X-6693Y0075*
X-6695Y0079*
X-6705Y0094*
X-6707Y0097*
X-6722Y0136*
X-6756Y0210*
X-6756Y0210*
X-6756Y0211*
X-6756Y0211*
X-6757Y0212*
X-6757Y0212*
X-6758Y0213*
X-6758Y0213*
X-6758Y0215*
X-6758Y0215*
X-6759Y0216*
X-6759Y0216*
X-6759Y0217*
X-6759Y0217*
X-6760Y0219*
X-6760Y0219*
X-6760Y0220*
X-6760Y0220*
X-6761Y0221*
X-6761Y0221*
X-6762Y0223*
X-6762Y0223*
X-6762Y0224*
X-6762Y0224*
X-6762Y0225*
X-6762Y0225*
X-6763Y0227*
X-6763Y0227*
X-6763Y0228*
X-6763Y0228*
X-6764Y0229*
X-6764Y0229*
X-6765Y0231*
X-6765Y0231*
X-6765Y0232*
X-6765Y0232*
X-6765Y0233*
X-6765Y0233*
X-6766Y0235*
X-6766Y0235*
X-6766Y0236*
X-6766Y0236*
X-6767Y0237*
X-6767Y0237*
X-6767Y0239*
X-6767Y0239*
X-6768Y0240*
X-6768Y0240*
X-6768Y0242*
X-6768Y0242*
X-6768Y0243*
X-6768Y0243*
X-6769Y0244*
X-6769Y0244*
X-6769Y0246*
X-6769Y0246*
X-6770Y0247*
X-6770Y0247*
X-6784Y0300*
X-6798Y0337*
X-6799Y0340*
X-6802Y0368*
X-6808Y0390*
X-6808Y0390*
X-6808Y0391*
X-6808Y0391*
X-6809Y0393*
X-6809Y0393*
X-6809Y0394*
X-6809Y0394*
X-6809Y0396*
X-6809Y0396*
X-6810Y0397*
X-6810Y0397*
X-6810Y0398*
X-6810Y0398*
X-6810Y0400*
X-6810Y0400*
X-6811Y0401*
X-6811Y0401*
X-6811Y0402*
X-6811Y0403*
X-6811Y0404*
X-6811Y0404*
X-6811Y0405*
X-6811Y0405*
X-6812Y0407*
X-6812Y0407*
X-6812Y0408*
X-6812Y0408*
X-6812Y0410*
X-6812Y0410*
X-6812Y0411*
X-6812Y0411*
X-6813Y0412*
X-6813Y0412*
X-6813Y0414*
X-6813Y0414*
X-6813Y0415*
X-6813Y0415*
X-6813Y0417*
X-6813Y0417*
X-6814Y0418*
X-6814Y0418*
X-6814Y0420*
X-6814Y0420*
X-6814Y0421*
X-6814Y0421*
X-6814Y0422*
X-6814Y0422*
X-6814Y0424*
X-6814Y0424*
X-6814Y0425*
X-6814Y0425*
X-6815Y0427*
X-6815Y0427*
X-6815Y0428*
X-6815Y0428*
X-6815Y0430*
X-6815Y0430*
X-6828Y0577*
X-6828Y0577*
X-6828Y0578*
X-6828Y0578*
X-6828Y0580*
X-6828Y0580*
X-6828Y0581*
X-6828Y0581*
X-6828Y0583*
X-6828Y0583*
X-6828Y0584*
X-6830Y0595*
X-6830Y0599*
X-6828Y0610*
X-6828Y0611*
X-6828Y0611*
X-6828Y0613*
X-6828Y0613*
X-6828Y0614*
X-6828Y0614*
X-6828Y0616*
X-6828Y0616*
X-6828Y0617*
X-6828Y0617*
X-6815Y0764*
X-6815Y0764*
X-6815Y0766*
X-6815Y0766*
X-6815Y0767*
X-6815Y0767*
X-6814Y0768*
X-6814Y0769*
X-6814Y0770*
X-6814Y0770*
X-6814Y0771*
X-6814Y0771*
X-6814Y0773*
X-6814Y0773*
X-6814Y0774*
X-6814Y0774*
X-6814Y0775*
X-6814Y0776*
X-6813Y0777*
X-6813Y0777*
X-6813Y0778*
X-6813Y0779*
X-6813Y0780*
X-6813Y0780*
X-6813Y0781*
X-6813Y0781*
X-6812Y0783*
X-6812Y0783*
X-6812Y0784*
X-6812Y0784*
X-6812Y0785*
X-6812Y0786*
X-6812Y0787*
X-6812Y0787*
X-6811Y0788*
X-6811Y0788*
X-6811Y0790*
X-6811Y0790*
X-6811Y0791*
X-6811Y0791*
X-6811Y0793*
X-6811Y0793*
X-6810Y0794*
X-6810Y0794*
X-6810Y0795*
X-6810Y0795*
X-6810Y0797*
X-6810Y0797*
X-6809Y0798*
X-6809Y0798*
X-6809Y0800*
X-6809Y0800*
X-6809Y0801*
X-6809Y0801*
X-6808Y0802*
X-6808Y0802*
X-6808Y0804*
X-6808Y0804*
X-6802Y0826*
X-6799Y0854*
X-6798Y0857*
X-6784Y0894*
X-6770Y0947*
X-6770Y0947*
X-6769Y0948*
X-6769Y0948*
X-6769Y0949*
X-6769Y0949*
X-6768Y0951*
X-6768Y0951*
X-6768Y0952*
X-6768Y0952*
X-6768Y0953*
X-6768Y0954*
X-6767Y0955*
X-6767Y0955*
X-6767Y0956*
X-6767Y0956*
X-6766Y0958*
X-6766Y0958*
X-6766Y0959*
X-6766Y0959*
X-6765Y0960*
X-6765Y0960*
X-6765Y0962*
X-6765Y0962*
X-6765Y0963*
X-6765Y0963*
X-6764Y0964*
X-6764Y0964*
X-6764Y0966*
X-6764Y0966*
X-6763Y0967*
X-6763Y0967*
X-6763Y0968*
X-6763Y0968*
X-6762Y0970*
X-6762Y0970*
X-6762Y0971*
X-6762Y0971*
X-6761Y0973*
X-6761Y0973*
X-6761Y0974*
X-6760Y0974*
X-6760Y0975*
X-6760Y0975*
X-6759Y0976*
X-6759Y0977*
X-6759Y0978*
X-6759Y0978*
X-6758Y0979*
X-6758Y0979*
X-6758Y0980*
X-6758Y0980*
X-6757Y0982*
X-6757Y0982*
X-6757Y0983*
X-6756Y0983*
X-6756Y0984*
X-6756Y0984*
X-6722Y1058*
X-6707Y1097*
X-6705Y1100*
X-6695Y1115*
X-6693Y1119*
X-6693Y1119*
X-6693Y1119*
X-6693Y1120*
X-6692Y1121*
X-6692Y1121*
X-6692Y1122*
X-6692Y1122*
X-6691Y1124*
X-6691Y1124*
X-6690Y1125*
X-6690Y1125*
X-6690Y1126*
X-6690Y1126*
X-6689Y1127*
X-6689Y1127*
X-6688Y1128*
X-6688Y1129*
X-6688Y1130*
X-6688Y1130*
X-6687Y1131*
X-6687Y1131*
X-6686Y1132*
X-6686Y1132*
X-6686Y1134*
X-6686Y1134*
X-6685Y1135*
X-6685Y1135*
X-6684Y1136*
X-6684Y1136*
X-6683Y1137*
X-6683Y1137*
X-6683Y1139*
X-6683Y1139*
X-6682Y1140*
X-6682Y1140*
X-6681Y1141*
X-6681Y1141*
X-6680Y1142*
X-6680Y1142*
X-6680Y1144*
X-6680Y1144*
X-6679Y1145*
X-6679Y1145*
X-6678Y1146*
X-6678Y1146*
X-6678Y1147*
X-6677Y1147*
X-6677Y1148*
X-6677Y1148*
X-6676Y1149*
X-6676Y1150*
X-6675Y1151*
X-6675Y1151*
X-6674Y1152*
X-6674Y1152*
X-6673Y1153*
X-6673Y1153*
X-6588Y1275*
X-6588Y1275*
X-6588Y1275*
X-6588Y1275*
X-6587Y1277*
X-6587Y1277*
X-6586Y1278*
X-6586Y1278*
X-6585Y1279*
X-6585Y1279*
X-6584Y1280*
X-6584Y1280*
X-6583Y1281*
X-6583Y1281*
X-6583Y1282*
X-6583Y1282*
X-6582Y1283*
X-6582Y1283*
X-6581Y1285*
X-6581Y1285*
X-6580Y1286*
X-6580Y1286*
X-6579Y1287*
X-6579Y1287*
X-6578Y1288*
X-6578Y1288*
X-6577Y1289*
X-6577Y1289*
X-6576Y1290*
X-6576Y1290*
X-6575Y1291*
X-6575Y1291*
X-6575Y1292*
X-6574Y1292*
X-6574Y1293*
X-6573Y1294*
X-6573Y1294*
X-6573Y1295*
X-6572Y1296*
X-6572Y1296*
X-6571Y1297*
X-6571Y1297*
X-6570Y1298*
X-6570Y1298*
X-6569Y1299*
X-6569Y1299*
X-6566Y1302*
X-6559Y1312*
X-6557Y1314*
X-6528Y1340*
X-6458Y1410*
X-6458Y1410*
X-6457Y1411*
X-6457Y1411*
X-6456Y1412*
X-6456Y1412*
X-6455Y1413*
X-6455Y1413*
X-6454Y1414*
X-6454Y1414*
X-6453Y1415*
X-6453Y1415*
X-6452Y1416*
X-6452Y1416*
X-6451Y1416*
X-6451Y1416*
X-6450Y1417*
X-6450Y1418*
X-6449Y1418*
X-6449Y1419*
X-6448Y1419*
X-6448Y1420*
X-6447Y1420*
X-6447Y1420*
X-6446Y1421*
X-6446Y1421*
X-6444Y1422*
X-6444Y1422*
X-6444Y1423*
X-6444Y1423*
X-6442Y1424*
X-6442Y1424*
X-6441Y1425*
X-6441Y1425*
X-6440Y1426*
X-6440Y1426*
X-6439Y1427*
X-6439Y1427*
X-6438Y1428*
X-6438Y1428*
X-6437Y1429*
X-6437Y1429*
X-6436Y1429*
X-6436Y1429*
X-6435Y1430*
X-6434Y1430*
X-6433Y1431*
X-6433Y1431*
X-6432Y1432*
X-6432Y1432*
X-6431Y1433*
X-6431Y1433*
X-6430Y1434*
X-6430Y1434*
X-6429Y1435*
X-6429Y1435*
X-6428Y1435*
X-6428Y1435*
X-6392Y1460*
X-6365Y1485*
X-6362Y1486*
X-6333Y1502*
X-6306Y1520*
X-6306Y1520*
X-6305Y1521*
X-6305Y1521*
X-6304Y1522*
X-6304Y1522*
X-6303Y1523*
X-6303Y1523*
X-6302Y1523*
X-6302Y1523*
X-6300Y1524*
X-6300Y1524*
X-6299Y1525*
X-6299Y1525*
X-6298Y1526*
X-6298Y1526*
X-6297Y1527*
X-6297Y1527*
X-6296Y1527*
X-6296Y1527*
X-6294Y1528*
X-6294Y1528*
X-6293Y1529*
X-6293Y1529*
X-6292Y1530*
X-6292Y1530*
X-6291Y1530*
X-6291Y1530*
X-6289Y1531*
X-6289Y1531*
X-6288Y1532*
X-6288Y1532*
X-6287Y1532*
X-6287Y1533*
X-6286Y1533*
X-6286Y1533*
X-6285Y1534*
X-6284Y1534*
X-6283Y1535*
X-6283Y1535*
X-6282Y1535*
X-6282Y1535*
X-6281Y1536*
X-6281Y1536*
X-6279Y1536*
X-6279Y1537*
X-6278Y1537*
X-6278Y1537*
X-6277Y1538*
X-6277Y1538*
X-6276Y1538*
X-6275Y1538*
X-6274Y1539*
X-6274Y1539*
X-6273Y1540*
X-6273Y1540*
X-6272Y1540*
X-6272Y1540*
X-6230Y1560*
X-6230Y2879*
X-6840Y3490*
X-7161Y3378*
X-7164Y3377*
X-7491Y3340*
X-7493Y3340*
X-7820Y3377*
X-7823Y3378*
X-8021Y3447*
X-8294Y2974*
X-8294Y2973*
X-8295Y2972*
X-8295Y2972*
X-8296Y2971*
X-8296Y2971*
X-8296Y2970*
X-8296Y2970*
X-8297Y2969*
X-8297Y2969*
X-8298Y2967*
X-8298Y2967*
X-8298Y2966*
X-8298Y2966*
X-8299Y2965*
X-8299Y2965*
X-8300Y2964*
X-8300Y2964*
X-8301Y2963*
X-8301Y2963*
X-8302Y2961*
X-8302Y2961*
X-8302Y2960*
X-8302Y2960*
X-8303Y2959*
X-8303Y2959*
X-8304Y2958*
X-8304Y2958*
X-8305Y2957*
X-8305Y2957*
X-8306Y2956*
X-8306Y2956*
X-8307Y2954*
X-8307Y2954*
X-8307Y2953*
X-8307Y2953*
X-8308Y2952*
X-8308Y2952*
X-8309Y2951*
X-8309Y2951*
X-8310Y2950*
X-8310Y2950*
X-8311Y2949*
X-8311Y2949*
X-8312Y2947*
X-8312Y2947*
X-8312Y2946*
X-8313Y2946*
X-8313Y2945*
X-8313Y2945*
X-8314Y2944*
X-8314Y2944*
X-8315Y2943*
X-8315Y2943*
X-8316Y2942*
X-8316Y2942*
X-8317Y2941*
X-8317Y2941*
X-8318Y2940*
X-8318Y2940*
X-8319Y2939*
X-8319Y2939*
X-8320Y2937*
X-8320Y2937*
X-8321Y2936*
X-8321Y2936*
X-8322Y2935*
X-8322Y2935*
X-8323Y2934*
X-8323Y2934*
X-8324Y2933*
X-8324Y2933*
X-8325Y2932*
X-8325Y2932*
X-8326Y2931*
X-8326Y2931*
X-8327Y2930*
X-8327Y2930*
X-8328Y2929*
X-8328Y2929*
X-8329Y2928*
X-8329Y2928*
X-8330Y2927*
X-8330Y2927*
X-8331Y2926*
X-8331Y2926*
X-8332Y2925*
X-8332Y2925*
X-8333Y2924*
X-8333Y2924*
X-8334Y2923*
X-8334Y2923*
X-8335Y2922*
X-8335Y2922*
X-8336Y2921*
X-8336Y2921*
X-8337Y2920*
X-8337Y2920*
X-8338Y2919*
X-8338Y2919*
X-8339Y2918*
X-8339Y2918*
X-8340Y2917*
X-8340Y2917*
X-8341Y2916*
X-8341Y2916*
X-8342Y2915*
X-8342Y2915*
X-8343Y2914*
X-8343Y2914*
X-8344Y2913*
X-8345Y2913*
X-8345Y2913*
X-8346Y2912*
X-8347Y2911*
X-8347Y2911*
X-8348Y2911*
X-8348Y2911*
X-8349Y2910*
X-8349Y2910*
X-8350Y2909*
X-8350Y2909*
X-8351Y2908*
X-8351Y2908*
X-8352Y2907*
X-8352Y2907*
X-8353Y2906*
X-8353Y2906*
X-8355Y2905*
X-8355Y2905*
X-8356Y2905*
X-8356Y2904*
X-8357Y2904*
X-8357Y2904*
X-8358Y2903*
X-8358Y2903*
X-8359Y2902*
X-8359Y2902*
X-8360Y2901*
X-8360Y2901*
X-8361Y2900*
X-8362Y2900*
X-8363Y2899*
X-8363Y2899*
X-8364Y2899*
X-8364Y2899*
X-8365Y2898*
X-8365Y2898*
X-8366Y2897*
X-8366Y2897*
X-8367Y2896*
X-8367Y2896*
X-8369Y2896*
X-8369Y2895*
X-8370Y2895*
X-8370Y2895*
X-8371Y2894*
X-8371Y2894*
X-8372Y2893*
X-8372Y2893*
X-8373Y2892*
X-8374Y2892*
X-8375Y2892*
X-8375Y2892*
X-8376Y2891*
X-8376Y2891*
X-8377Y2890*
X-8377Y2890*
X-8378Y2890*
X-8379Y2889*
X-8380Y2889*
X-8380Y2889*
X-8381Y2888*
X-8381Y2888*
X-8382Y2887*
X-8382Y2887*
X-8383Y2887*
X-8383Y2887*
X-8385Y2886*
X-8385Y2886*
X-8386Y2885*
X-8386Y2885*
X-8387Y2885*
X-8387Y2885*
X-8389Y2884*
X-8389Y2884*
X-8390Y2883*
X-8390Y2883*
X-8391Y2883*
X-8391Y2883*
X-8392Y2882*
X-8393Y2882*
X-8394Y2882*
X-8394Y2882*
X-8395Y2881*
X-8395Y2881*
X-8396Y2880*
X-8396Y2880*
X-8398Y2880*
X-8398Y2880*
X-8399Y2879*
X-8399Y2879*
X-8400Y2879*
X-8400Y2879*
X-8401Y2878*
X-8402Y2878*
X-8403Y2877*
X-8403Y2877*
X-8404Y2877*
X-8404Y2877*
X-8406Y2876*
X-8406Y2876*
X-8407Y2876*
X-8407Y2876*
X-8408Y2875*
X-8408Y2875*
X-8409Y2875*
X-8410Y2875*
X-8411Y2874*
X-8411Y2874*
X-8412Y2874*
X-8412Y2874*
X-8414Y2873*
X-8414Y2873*
X-8415Y2873*
X-8415Y2873*
X-8416Y2872*
X-8416Y2872*
X-8418Y2872*
X-8418Y2872*
X-8419Y2871*
X-8419Y2871*
X-8420Y2871*
X-8420Y2871*
X-8422Y2870*
X-8422Y2870*
X-8423Y2870*
X-8423Y2870*
X-8424Y2870*
X-8424Y2870*
X-8426Y2869*
X-8426Y2869*
X-8427Y2869*
X-8427Y2869*
X-8429Y2868*
X-8429Y2868*
X-8430Y2868*
X-8430Y2868*
X-8431Y2868*
X-8431Y2868*
X-8432Y2867*
X-8433Y2867*
X-8434Y2867*
X-8434Y2867*
X-8435Y2866*
X-8435Y2866*
X-8437Y2866*
X-8437Y2866*
X-8438Y2866*
X-8438Y2866*
X-8440Y2865*
X-8440Y2865*
X-8441Y2865*
X-8441Y2865*
X-8442Y2865*
X-8443Y2865*
X-8444Y2865*
X-8444Y2864*
X-8445Y2864*
X-8445Y2864*
X-8447Y2864*
X-8447Y2864*
X-8448Y2864*
X-8448Y2864*
X-8449Y2863*
X-8449Y2863*
X-8451Y2863*
X-8451Y2863*
X-8452Y2863*
X-8452Y2863*
X-8454Y2863*
X-8454Y2863*
X-8455Y2862*
X-8455Y2862*
X-8456Y2862*
X-8457Y2862*
X-8458Y2862*
X-8458Y2862*
X-8459Y2862*
X-8459Y2862*
X-8461Y2861*
X-8461Y2861*
X-8462Y2861*
X-8462Y2861*
X-8464Y2861*
X-8464Y2861*
X-8465Y2861*
X-8465Y2861*
X-8466Y2861*
X-8466Y2861*
X-8468Y2861*
X-8468Y2861*
X-8469Y2860*
X-8469Y2860*
X-8471Y2860*
X-8471Y2860*
X-8472Y2860*
X-8472Y2860*
X-8473Y2860*
X-8474Y2860*
X-8475Y2860*
X-8475Y2860*
X-8477Y2860*
X-8477Y2860*
X-8478Y2860*
X-8478Y2860*
X-8539Y2856*
X-2213Y-8174*
X-2177Y-8130*
X-2245Y-8169D02*
X-2176Y-8169D01*
X-2273Y-8120D02*
X-2131Y-8120D01*
X-2301Y-8070D02*
X-1431Y-8070D01*
X-2330Y-8021D02*
X-1426Y-8021D01*
X-2358Y-7971D02*
X-1420Y-7971D01*
X-2387Y-7922D02*
X-1407Y-7922D01*
X-2415Y-7872D02*
X-1390Y-7872D01*
X-2443Y-7822D02*
X-1373Y-7822D01*
X-2472Y-7773D02*
X-1355Y-7773D01*
X-2500Y-7723D02*
X-1338Y-7723D01*
X-2529Y-7674D02*
X-1321Y-7674D01*
X-2557Y-7624D02*
X-1298Y-7624D01*
X-2585Y-7575D02*
X-1267Y-7575D01*
X-2614Y-7525D02*
X-1236Y-7525D01*
X-2642Y-7476D02*
X-1204Y-7476D01*
X-2671Y-7426D02*
X-1173Y-7426D01*
X-2699Y-7377D02*
X-1142Y-7377D01*
X-2728Y-7327D02*
X-1096Y-7327D01*
X-2756Y-7278D02*
X-1046Y-7278D01*
X-2784Y-7228D02*
X-0997Y-7228D01*
X-2813Y-7179D02*
X-0947Y-7179D01*
X-2841Y-7129D02*
X-0892Y-7129D01*
X-2870Y-7080D02*
X-0813Y-7080D01*
X-2898Y-7030D02*
X-0735Y-7030D01*
X-2926Y-6980D02*
X-0656Y-6980D01*
X-2955Y-6931D02*
X-0534Y-6931D01*
X-2983Y-6881D02*
X-0393Y-6881D01*
X-3012Y-6832D02*
X-0286Y-6832D01*
X-3040Y-6782D02*
X-0286Y-6782D01*
X-3068Y-6733D02*
X-0290Y-6733D01*
X-3097Y-6683D02*
X-0339Y-6683D01*
X-3125Y-6634D02*
X-0389Y-6634D01*
X-3154Y-6584D02*
X-0438Y-6584D01*
X-3182Y-6535D02*
X-0488Y-6535D01*
X-3211Y-6485D02*
X-0537Y-6485D01*
X-3239Y-6436D02*
X-0587Y-6436D01*
X-3267Y-6386D02*
X-0636Y-6386D01*
X-3296Y-6337D02*
X-0686Y-6337D01*
X-3324Y-6287D02*
X-0735Y-6287D01*
X-3353Y-6237D02*
X-0785Y-6237D01*
X-3381Y-6188D02*
X-0835Y-6188D01*
X-3409Y-6138D02*
X-0884Y-6138D01*
X-3438Y-6089D02*
X-0934Y-6089D01*
X-3466Y-6039D02*
X-0983Y-6039D01*
X-3495Y-5990D02*
X-1030Y-5990D01*
X-3523Y-5940D02*
X-1065Y-5940D01*
X-3551Y-5891D02*
X-1087Y-5891D01*
X-3580Y-5841D02*
X-1101Y-5841D01*
X-3608Y-5792D02*
X-1106Y-5792D01*
X-3637Y-5742D02*
X-1106Y-5742D01*
X-3665Y-5693D02*
X-1106Y-5693D01*
X-3694Y-5643D02*
X-1106Y-5643D01*
X-3722Y-5594D02*
X-1106Y-5594D01*
X-3750Y-5544D02*
X-1106Y-5544D01*
X-3779Y-5495D02*
X-3082Y-5495D01*
X-3807Y-5445D02*
X-3221Y-5445D01*
X-3836Y-5395D02*
X-3326Y-5395D01*
X-3864Y-5346D02*
X-3404Y-5346D01*
X-3892Y-5296D02*
X-3469Y-5296D01*
X-3921Y-5247D02*
X-3521Y-5247D01*
X-3949Y-5197D02*
X-3572Y-5197D01*
X-3978Y-5148D02*
X-3616Y-5148D01*
X-4006Y-5098D02*
X-3651Y-5098D01*
X-4034Y-5049D02*
X-3686Y-5049D01*
X-4063Y-4999D02*
X-3718Y-4999D01*
X-4091Y-4950D02*
X-3742Y-4950D01*
X-4120Y-4900D02*
X-3764Y-4900D01*
X-4148Y-4851D02*
X-3787Y-4851D01*
X-4176Y-4801D02*
X-3802Y-4801D01*
X-4205Y-4752D02*
X-3817Y-4752D01*
X-4233Y-4702D02*
X-3828Y-4702D01*
X-4262Y-4653D02*
X-3839Y-4653D01*
X-4290Y-4603D02*
X-3843Y-4603D01*
X-4319Y-4553D02*
X-3848Y-4553D01*
X-4347Y-4504D02*
X-3852Y-4504D01*
X-4375Y-4454D02*
X-3851Y-4454D01*
X-4404Y-4405D02*
X-3847Y-4405D01*
X-4432Y-4355D02*
X-3843Y-4355D01*
X-4461Y-4306D02*
X-3838Y-4306D01*
X-4489Y-4256D02*
X-3827Y-4256D01*
X-4517Y-4207D02*
X-3814Y-4207D01*
X-4546Y-4157D02*
X-3800Y-4157D01*
X-4574Y-4108D02*
X-3784Y-4108D01*
X-4603Y-4058D02*
X-3760Y-4058D01*
X-4631Y-4009D02*
X-3739Y-4009D01*
X-4659Y-3959D02*
X-3714Y-3959D01*
X-4688Y-3910D02*
X-3680Y-3910D01*
X-4716Y-3860D02*
X-3646Y-3860D01*
X-4745Y-3811D02*
X-3610Y-3811D01*
X-4773Y-3761D02*
X-3563Y-3761D01*
X-4802Y-3711D02*
X-3513Y-3711D01*
X-4830Y-3662D02*
X-3458Y-3662D01*
X-4858Y-3612D02*
X-3393Y-3612D01*
X-4887Y-3563D02*
X-3316Y-3563D01*
X-4915Y-3513D02*
X-3313Y-3513D01*
X-4944Y-3464D02*
X-3363Y-3464D01*
X-0547Y-3464D02*
X-0430Y-3464D01*
X-4972Y-3414D02*
X-3412Y-3414D01*
X-2554Y-3414D02*
X-0408Y-3414D01*
X-5000Y-3365D02*
X-4496Y-3365D01*
X-2597Y-3365D02*
X-0423Y-3365D01*
X-5029Y-3315D02*
X-4572Y-3315D01*
X-2646Y-3315D02*
X-0430Y-3315D01*
X-5057Y-3266D02*
X-4624Y-3266D01*
X-2696Y-3266D02*
X-0435Y-3266D01*
X-5086Y-3216D02*
X-4673Y-3216D01*
X-2745Y-3216D02*
X-0435Y-3216D01*
X-5114Y-3167D02*
X-4723Y-3167D01*
X-2795Y-3167D02*
X-0435Y-3167D01*
X-5142Y-3117D02*
X-4772Y-3117D01*
X-2844Y-3117D02*
X-0435Y-3117D01*
X-5171Y-3068D02*
X-4822Y-3068D01*
X-2894Y-3068D02*
X-0435Y-3068D01*
X-5199Y-3018D02*
X-4871Y-3018D01*
X-2943Y-3018D02*
X-0435Y-3018D01*
X-5228Y-2969D02*
X-4921Y-2969D01*
X-2993Y-2969D02*
X-0435Y-2969D01*
X-5256Y-2919D02*
X-4970Y-2919D01*
X-3043Y-2919D02*
X-0435Y-2919D01*
X-5285Y-2869D02*
X-5020Y-2869D01*
X-3092Y-2869D02*
X-0435Y-2869D01*
X-5313Y-2820D02*
X-5061Y-2820D01*
X-3161Y-2820D02*
X-0435Y-2820D01*
X-5341Y-2770D02*
X-5088Y-2770D01*
X-4254Y-2770D02*
X-0435Y-2770D01*
X-5370Y-2721D02*
X-5104Y-2721D01*
X-4304Y-2721D02*
X-0435Y-2721D01*
X-5398Y-2671D02*
X-5111Y-2671D01*
X-4353Y-2671D02*
X-0435Y-2671D01*
X-5427Y-2622D02*
X-5113Y-2622D01*
X-4403Y-2622D02*
X-0435Y-2622D01*
X-5455Y-2572D02*
X-5154Y-2572D01*
X-4442Y-2572D02*
X-3654Y-2572D01*
X-2960Y-2572D02*
X-0435Y-2572D01*
X-5483Y-2523D02*
X-5214Y-2523D01*
X-4400Y-2523D02*
X-3714Y-2523D01*
X-2900Y-2523D02*
X-0435Y-2523D01*
X-5512Y-2473D02*
X-5244Y-2473D01*
X-4370Y-2473D02*
X-3744Y-2473D01*
X-2870Y-2473D02*
X-0435Y-2473D01*
X-5540Y-2424D02*
X-5259Y-2424D01*
X-4355Y-2424D02*
X-3759Y-2424D01*
X-2855Y-2424D02*
X-0435Y-2424D01*
X-5569Y-2374D02*
X-5261Y-2374D01*
X-4353Y-2374D02*
X-3761Y-2374D01*
X-2853Y-2374D02*
X-0435Y-2374D01*
X-5597Y-2325D02*
X-5261Y-2325D01*
X-4353Y-2325D02*
X-3761Y-2325D01*
X-2853Y-2325D02*
X-0435Y-2325D01*
X-5625Y-2275D02*
X-5261Y-2275D01*
X-4353Y-2275D02*
X-3761Y-2275D01*
X-2853Y-2275D02*
X-0435Y-2275D01*
X-5654Y-2226D02*
X-5261Y-2226D01*
X-4353Y-2226D02*
X-3761Y-2226D01*
X-2569Y-2226D02*
X-0435Y-2226D01*
X-5682Y-2176D02*
X-5261Y-2176D01*
X-4353Y-2176D02*
X-3761Y-2176D01*
X-2490Y-2176D02*
X-0435Y-2176D01*
X-5711Y-2127D02*
X-5261Y-2127D01*
X-4353Y-2127D02*
X-3761Y-2127D01*
X-2437Y-2127D02*
X-0435Y-2127D01*
X-5739Y-2077D02*
X-5261Y-2077D01*
X-4353Y-2077D02*
X-3761Y-2077D01*
X-2388Y-2077D02*
X-0435Y-2077D01*
X-5767Y-2027D02*
X-5261Y-2027D01*
X-4353Y-2027D02*
X-3761Y-2027D01*
X-2338Y-2027D02*
X-0435Y-2027D01*
X-5796Y-1978D02*
X-5261Y-1978D01*
X-4353Y-1978D02*
X-3761Y-1978D01*
X-2288Y-1978D02*
X-0435Y-1978D01*
X-5824Y-1928D02*
X-5261Y-1928D01*
X-4353Y-1928D02*
X-3761Y-1928D01*
X-2239Y-1928D02*
X-0435Y-1928D01*
X-5853Y-1879D02*
X-5261Y-1879D01*
X-4353Y-1879D02*
X-3761Y-1879D01*
X-2189Y-1879D02*
X-0435Y-1879D01*
X-5881Y-1829D02*
X-5261Y-1829D01*
X-4353Y-1829D02*
X-3761Y-1829D01*
X-2140Y-1829D02*
X-0435Y-1829D01*
X-5910Y-1780D02*
X-5261Y-1780D01*
X-4353Y-1780D02*
X-3761Y-1780D01*
X-2090Y-1780D02*
X-0435Y-1780D01*
X-5938Y-1730D02*
X-5261Y-1730D01*
X-4353Y-1730D02*
X-3761Y-1730D01*
X-1351Y-1730D02*
X-0511Y-1730D01*
X-5966Y-1681D02*
X-5261Y-1681D01*
X-4353Y-1681D02*
X-3761Y-1681D01*
X-1307Y-1681D02*
X-0555Y-1681D01*
X-5995Y-1631D02*
X-5261Y-1631D01*
X-4353Y-1631D02*
X-3761Y-1631D01*
X-1285Y-1631D02*
X-0577Y-1631D01*
X-6023Y-1582D02*
X-5261Y-1582D01*
X-4353Y-1582D02*
X-3761Y-1582D01*
X-2816Y-1582D02*
X-2757Y-1582D01*
X-1276Y-1582D02*
X-0586Y-1582D01*
X-6052Y-1532D02*
X-5261Y-1532D01*
X-4353Y-1532D02*
X-3761Y-1532D01*
X-2853Y-1532D02*
X-2708Y-1532D01*
X-1276Y-1532D02*
X-0586Y-1532D01*
X-6080Y-1483D02*
X-5260Y-1483D01*
X-4354Y-1483D02*
X-3760Y-1483D01*
X-2854Y-1483D02*
X-2658Y-1483D01*
X-1276Y-1483D02*
X-0586Y-1483D01*
X-6108Y-1433D02*
X-5252Y-1433D01*
X-4362Y-1433D02*
X-3752Y-1433D01*
X-2862Y-1433D02*
X-2609Y-1433D01*
X-1276Y-1433D02*
X-0586Y-1433D01*
X-6137Y-1384D02*
X-5229Y-1384D01*
X-4385Y-1384D02*
X-3729Y-1384D01*
X-2885Y-1384D02*
X-2559Y-1384D01*
X-1276Y-1384D02*
X-0586Y-1384D01*
X-6165Y-1334D02*
X-5184Y-1334D01*
X-4430Y-1334D02*
X-3684Y-1334D01*
X-2930Y-1334D02*
X-2509Y-1334D01*
X-1276Y-1334D02*
X-0586Y-1334D01*
X-6194Y-1284D02*
X-2486Y-1284D01*
X-1276Y-1284D02*
X-0586Y-1284D01*
X-6222Y-1235D02*
X-2486Y-1235D01*
X-1276Y-1235D02*
X-0586Y-1235D01*
X-6250Y-1185D02*
X-2486Y-1185D01*
X-1276Y-1185D02*
X-0586Y-1185D01*
X-6279Y-1136D02*
X-2486Y-1136D01*
X-1276Y-1136D02*
X-0586Y-1136D01*
X-6307Y-1086D02*
X-2486Y-1086D01*
X-1276Y-1086D02*
X-0586Y-1086D01*
X-6336Y-1037D02*
X-2486Y-1037D01*
X-1276Y-1037D02*
X-0586Y-1037D01*
X-6364Y-0987D02*
X-2486Y-0987D01*
X-1276Y-0987D02*
X-0586Y-0987D01*
X-6393Y-0938D02*
X-2486Y-0938D01*
X-1239Y-0938D02*
X-0586Y-0938D01*
X-6421Y-0888D02*
X-2486Y-0888D01*
X-1189Y-0888D02*
X-0586Y-0888D01*
X-6449Y-0839D02*
X-2486Y-0839D01*
X-1138Y-0839D02*
X-0586Y-0839D01*
X-6478Y-0789D02*
X-2486Y-0789D01*
X-1088Y-0789D02*
X-0586Y-0789D01*
X-6506Y-0740D02*
X-2486Y-0740D01*
X-1037Y-0740D02*
X-0586Y-0740D01*
X-6535Y-0690D02*
X-2486Y-0690D01*
X-0986Y-0690D02*
X-0586Y-0690D01*
X-6563Y-0641D02*
X-2486Y-0641D01*
X-0936Y-0641D02*
X-0586Y-0641D01*
X-6591Y-0591D02*
X-2485Y-0591D01*
X-0885Y-0591D02*
X-0585Y-0591D01*
X-6620Y-0542D02*
X-2477Y-0542D01*
X-0835Y-0542D02*
X-0582Y-0542D01*
X-6648Y-0492D02*
X-2454Y-0492D01*
X-6677Y-0442D02*
X-5916Y-0442D01*
X-3584Y-0442D02*
X-2410Y-0442D01*
X-6705Y-0393D02*
X-6109Y-0393D01*
X-3391Y-0393D02*
X-1557Y-0393D01*
X-6733Y-0343D02*
X-6218Y-0343D01*
X-3282Y-0343D02*
X-1507Y-0343D01*
X-6762Y-0294D02*
X-6308Y-0294D01*
X-3192Y-0294D02*
X-1456Y-0294D01*
X-6790Y-0244D02*
X-6379Y-0244D01*
X-3121Y-0244D02*
X-1405Y-0244D01*
X-6819Y-0195D02*
X-6443Y-0195D01*
X-3057Y-0195D02*
X-1355Y-0195D01*
X-6847Y-0145D02*
X-6493Y-0145D01*
X-3007Y-0145D02*
X-1304Y-0145D01*
X-6875Y-0096D02*
X-6543Y-0096D01*
X-2957Y-0096D02*
X-1254Y-0096D01*
X-6904Y-0046D02*
X-6581Y-0046D01*
X-2919Y-0046D02*
X-1260Y-0046D01*
X-6932Y0003D02*
X-6616Y0003D01*
X-2884Y0003D02*
X-1396Y0003D01*
X-6961Y0053D02*
X-6651Y0053D01*
X-2849Y0053D02*
X-1477Y0053D01*
X-6989Y0102D02*
X-6680Y0102D01*
X-2820Y0102D02*
X-1513Y0102D01*
X-7018Y0152D02*
X-6701Y0152D01*
X-2745Y0152D02*
X-1531Y0152D01*
X-7046Y0201D02*
X-6724Y0201D01*
X-2577Y0201D02*
X-1536Y0201D01*
X-7074Y0251D02*
X-6744Y0251D01*
X-2501Y0251D02*
X-1536Y0251D01*
X-7103Y0300D02*
X-6758Y0300D01*
X-2445Y0300D02*
X-1536Y0300D01*
X-7131Y0350D02*
X-6774Y0350D01*
X-2396Y0350D02*
X-1536Y0350D01*
X-7160Y0400D02*
X-6784Y0400D01*
X-2346Y0400D02*
X-1536Y0400D01*
X-7188Y0449D02*
X-6791Y0449D01*
X-2296Y0449D02*
X-1536Y0449D01*
X-7216Y0499D02*
X-6795Y0499D01*
X-2247Y0499D02*
X-1536Y0499D01*
X-7245Y0548D02*
X-6800Y0548D01*
X-2197Y0548D02*
X-1536Y0548D01*
X-7273Y0598D02*
X-6804Y0598D01*
X-2148Y0598D02*
X-1536Y0598D01*
X-7302Y0647D02*
X-6800Y0647D01*
X-2098Y0647D02*
X-1536Y0647D01*
X-7330Y0697D02*
X-6795Y0697D01*
X-2048Y0697D02*
X-1536Y0697D01*
X-7358Y0746D02*
X-6791Y0746D01*
X-1999Y0746D02*
X-1536Y0746D01*
X-7387Y0796D02*
X-6784Y0796D01*
X-1949Y0796D02*
X-1536Y0796D01*
X-7415Y0845D02*
X-6774Y0845D01*
X-1900Y0845D02*
X-1536Y0845D01*
X-7444Y0895D02*
X-6757Y0895D01*
X-1850Y0895D02*
X-1536Y0895D01*
X-7472Y0944D02*
X-6744Y0944D01*
X-1801Y0944D02*
X-1536Y0944D01*
X-7501Y0994D02*
X-6723Y0994D01*
X-1751Y0994D02*
X-1536Y0994D01*
X-7529Y1043D02*
X-6700Y1043D01*
X-1701Y1043D02*
X-1536Y1043D01*
X-7557Y1093D02*
X-6679Y1093D01*
X-1652Y1093D02*
X-1536Y1093D01*
X-7586Y1142D02*
X-6650Y1142D01*
X-7614Y1192D02*
X-6615Y1192D01*
X-7643Y1242D02*
X-6580Y1242D01*
X-7671Y1291D02*
X-6543Y1291D01*
X-7699Y1341D02*
X-6491Y1341D01*
X-7728Y1390D02*
X-6442Y1390D01*
X-7756Y1440D02*
X-6377Y1440D01*
X-7785Y1489D02*
X-6306Y1489D01*
X-7813Y1539D02*
X-6215Y1539D01*
X-7841Y1588D02*
X-6204Y1588D01*
X-7870Y1638D02*
X-6204Y1638D01*
X-7898Y1687D02*
X-6204Y1687D01*
X-7927Y1737D02*
X-6204Y1737D01*
X-7955Y1786D02*
X-6204Y1786D01*
X-7984Y1836D02*
X-6204Y1836D01*
X-8012Y1885D02*
X-6204Y1885D01*
X-8040Y1935D02*
X-6204Y1935D01*
X-8069Y1984D02*
X-6204Y1984D01*
X-8097Y2034D02*
X-6204Y2034D01*
X-8126Y2084D02*
X-6204Y2084D01*
X-8154Y2133D02*
X-6204Y2133D01*
X-8182Y2183D02*
X-6204Y2183D01*
X-8211Y2232D02*
X-6204Y2232D01*
X-8239Y2282D02*
X-6204Y2282D01*
X-8268Y2331D02*
X-6204Y2331D01*
X-8296Y2381D02*
X-6204Y2381D01*
X-8324Y2430D02*
X-6204Y2430D01*
X-8353Y2480D02*
X-6204Y2480D01*
X-8381Y2529D02*
X-6204Y2529D01*
X-8410Y2579D02*
X-6204Y2579D01*
X-8438Y2628D02*
X-6204Y2628D01*
X-8466Y2678D02*
X-6204Y2678D01*
X-8495Y2727D02*
X-6204Y2727D01*
X-8523Y2777D02*
X-6204Y2777D01*
X-8552Y2826D02*
X-6204Y2826D01*
X-8580Y2876D02*
X-6204Y2876D01*
X-8370Y2926D02*
X-6240Y2926D01*
X-8323Y2975D02*
X-6289Y2975D01*
X-8294Y3025D02*
X-6339Y3025D01*
X-8265Y3074D02*
X-6388Y3074D01*
X-8237Y3124D02*
X-6438Y3124D01*
X-8208Y3173D02*
X-6488Y3173D01*
X-8180Y3223D02*
X-6537Y3223D01*
X-8151Y3272D02*
X-6587Y3272D01*
X-8122Y3322D02*
X-6636Y3322D01*
X-8094Y3371D02*
X-7541Y3371D01*
X-7443Y3371D02*
X-6686Y3371D01*
X-8065Y3421D02*
X-7869Y3421D01*
X-7115Y3421D02*
X-6735Y3421D01*
X-8037Y3470D02*
X-8010Y3470D01*
X-6974Y3470D02*
X-6785Y3470D01*
X0620Y1621D02*
X0620Y1621D01*
X0620Y1675*
X0575Y1695*
X0473Y1604*
X0470Y1602*
X0296Y1511*
X0293Y1510*
X0102Y1463*
X0098Y1462*
X-0098Y1462*
X-0102Y1463*
X-0293Y1510*
X-0296Y1511*
X-0470Y1602*
X-0473Y1604*
X-0620Y1735*
X-0622Y1737*
X-0709Y1863*
X-0769Y1810*
X-0772Y1808*
X-0893Y1745*
X-0896Y1744*
X-0987Y1721*
X-1263Y1446*
X-1243Y1399*
X-0530Y1399*
X-0529Y1399*
X-0495Y1396*
X-0493Y1396*
X-0460Y1388*
X-0458Y1387*
X-0427Y1374*
X-0425Y1373*
X-0396Y1355*
X-0394Y1354*
X-0368Y1332*
X-0367Y1331*
X-0345Y1305*
X-0344Y1303*
X-0326Y1274*
X-0325Y1272*
X-0312Y1241*
X-0311Y1239*
X-0298Y1184*
X0179Y1184*
X0620Y1621*
X-0330Y1208D02*
X0239Y1208D01*
X-0346Y1257D02*
X0289Y1257D01*
X-0380Y1307D02*
X0339Y1307D01*
X-0450Y1356D02*
X0389Y1356D01*
X-1274Y1406D02*
X0439Y1406D01*
X-1289Y1455D02*
X0489Y1455D01*
X-1239Y1505D02*
X-0167Y1505D01*
X0167Y1505D02*
X0539Y1505D01*
X-1190Y1554D02*
X-0324Y1554D01*
X0324Y1554D02*
X0589Y1554D01*
X-1140Y1604D02*
X-0418Y1604D01*
X0418Y1604D02*
X0639Y1604D01*
X-1091Y1654D02*
X-0490Y1654D01*
X0490Y1654D02*
X0646Y1654D01*
X-1041Y1703D02*
X-0546Y1703D01*
X0546Y1703D02*
X0620Y1703D01*
X-0965Y1753D02*
X-0602Y1753D01*
X-0838Y1802D02*
X-0636Y1802D01*
X-0761Y1852D02*
X-0670Y1852D01*
X-0705Y1901D02*
X-0704Y1901D01*
X0343Y0177D02*
X0343Y0177D01*
X0323Y0224*
X-0298Y0224*
X-0306Y0123*
X0288Y0123*
X0343Y0177*
X-0330Y0147D02*
X0349Y0147D01*
X-0326Y0197D02*
X0362Y0197D01*
X-0322Y0246D02*
X0342Y0246D01*
X2819Y-7117D02*
X2819Y-7117D01*
X1337Y-7117*
X1336Y-7117*
X1302Y-7114*
X1300Y-7114*
X1267Y-7106*
X1265Y-7105*
X1234Y-7092*
X1232Y-7091*
X1203Y-7073*
X1201Y-7072*
X1175Y-7050*
X1174Y-7049*
X1152Y-7023*
X1151Y-7021*
X1133Y-6992*
X1132Y-6990*
X1119Y-6959*
X1118Y-6957*
X1110Y-6924*
X1110Y-6922*
X1107Y-6889*
X1107Y-6888*
X1107Y-5986*
X1107Y-5985*
X1110Y-5952*
X1110Y-5950*
X1118Y-5917*
X1119Y-5915*
X1132Y-5884*
X1133Y-5882*
X1151Y-5853*
X1152Y-5851*
X1174Y-5825*
X1175Y-5824*
X1201Y-5802*
X1203Y-5801*
X1232Y-5783*
X1234Y-5782*
X1265Y-5769*
X1267Y-5768*
X1300Y-5760*
X1302Y-5760*
X1335Y-5757*
X1336Y-5757*
X1707Y-5757*
X1707Y-5632*
X0303Y-4228*
X0253Y-4256*
X0260Y-4284*
X0260Y-4284*
X0260Y-4286*
X0260Y-4286*
X0261Y-4287*
X0261Y-4287*
X0261Y-4288*
X0261Y-4289*
X0261Y-4290*
X0261Y-4290*
X0261Y-4291*
X0261Y-4291*
X0262Y-4293*
X0262Y-4293*
X0262Y-4294*
X0262Y-4294*
X0262Y-4296*
X0262Y-4296*
X0262Y-4297*
X0262Y-4297*
X0263Y-4298*
X0263Y-4298*
X0263Y-4300*
X0263Y-4300*
X0263Y-4301*
X0263Y-4301*
X0263Y-4303*
X0263Y-4303*
X0264Y-4304*
X0264Y-4304*
X0264Y-4306*
X0264Y-4306*
X0264Y-4307*
X0264Y-4307*
X0264Y-4308*
X0264Y-4308*
X0264Y-4310*
X0264Y-4310*
X0264Y-4311*
X0264Y-4311*
X0265Y-4313*
X0265Y-4313*
X0265Y-4314*
X0265Y-4314*
X0265Y-4316*
X0265Y-4316*
X0278Y-4463*
X0278Y-4463*
X0278Y-4464*
X0278Y-4464*
X0278Y-4466*
X0278Y-4466*
X0278Y-4467*
X0278Y-4467*
X0278Y-4469*
X0278Y-4469*
X0278Y-4470*
X0280Y-4481*
X0280Y-4485*
X0278Y-4496*
X0278Y-4497*
X0278Y-4497*
X0278Y-4499*
X0278Y-4499*
X0278Y-4500*
X0278Y-4500*
X0278Y-4502*
X0278Y-4502*
X0278Y-4503*
X0278Y-4503*
X0265Y-4651*
X0265Y-4651*
X0265Y-4652*
X0265Y-4652*
X0265Y-4653*
X0265Y-4653*
X0264Y-4654*
X0264Y-4655*
X0264Y-4656*
X0264Y-4656*
X0264Y-4657*
X0264Y-4657*
X0264Y-4659*
X0264Y-4659*
X0264Y-4660*
X0264Y-4660*
X0264Y-4661*
X0264Y-4662*
X0263Y-4663*
X0263Y-4663*
X0263Y-4664*
X0263Y-4665*
X0263Y-4666*
X0263Y-4666*
X0263Y-4667*
X0263Y-4667*
X0262Y-4669*
X0262Y-4669*
X0262Y-4670*
X0262Y-4670*
X0262Y-4671*
X0262Y-4672*
X0262Y-4673*
X0262Y-4673*
X0261Y-4674*
X0261Y-4674*
X0261Y-4676*
X0261Y-4676*
X0261Y-4677*
X0261Y-4677*
X0261Y-4679*
X0261Y-4679*
X0260Y-4680*
X0260Y-4680*
X0260Y-4681*
X0260Y-4681*
X0260Y-4683*
X0260Y-4683*
X0259Y-4684*
X0259Y-4684*
X0259Y-4686*
X0259Y-4686*
X0259Y-4687*
X0259Y-4687*
X0258Y-4688*
X0258Y-4688*
X0258Y-4690*
X0258Y-4690*
X0252Y-4712*
X0249Y-4740*
X0248Y-4743*
X0234Y-4780*
X0220Y-4833*
X0220Y-4833*
X0219Y-4834*
X0219Y-4834*
X0219Y-4835*
X0219Y-4835*
X0218Y-4837*
X0218Y-4837*
X0218Y-4838*
X0218Y-4838*
X0218Y-4839*
X0218Y-4840*
X0217Y-4841*
X0217Y-4841*
X0217Y-4842*
X0217Y-4842*
X0216Y-4844*
X0216Y-4844*
X0216Y-4845*
X0216Y-4845*
X0215Y-4846*
X0215Y-4846*
X0215Y-4848*
X0215Y-4848*
X0215Y-4849*
X0214Y-4849*
X0214Y-4850*
X0214Y-4850*
X0214Y-4852*
X0214Y-4852*
X0213Y-4853*
X0213Y-4853*
X0213Y-4854*
X0213Y-4854*
X0212Y-4856*
X0212Y-4856*
X0212Y-4857*
X0212Y-4857*
X0211Y-4859*
X0211Y-4859*
X0211Y-4860*
X0210Y-4860*
X0210Y-4861*
X0210Y-4861*
X0209Y-4862*
X0209Y-4863*
X0209Y-4864*
X0209Y-4864*
X0208Y-4865*
X0208Y-4865*
X0208Y-4866*
X0208Y-4866*
X0207Y-4868*
X0207Y-4868*
X0207Y-4869*
X0206Y-4869*
X0206Y-4870*
X0206Y-4870*
X0172Y-4944*
X0157Y-4983*
X0155Y-4986*
X0145Y-5001*
X0143Y-5005*
X0143Y-5005*
X0143Y-5006*
X0143Y-5006*
X0142Y-5007*
X0142Y-5007*
X0142Y-5008*
X0142Y-5008*
X0141Y-5010*
X0141Y-5010*
X0140Y-5011*
X0140Y-5011*
X0140Y-5012*
X0140Y-5012*
X0139Y-5013*
X0139Y-5013*
X0138Y-5015*
X0138Y-5015*
X0138Y-5016*
X0138Y-5016*
X0137Y-5017*
X0137Y-5017*
X0136Y-5018*
X0136Y-5018*
X0136Y-5020*
X0136Y-5020*
X0135Y-5021*
X0135Y-5021*
X0134Y-5022*
X0134Y-5022*
X0133Y-5023*
X0133Y-5023*
X0133Y-5025*
X0133Y-5025*
X0132Y-5026*
X0132Y-5026*
X0131Y-5027*
X0131Y-5027*
X0130Y-5028*
X0130Y-5028*
X0130Y-5030*
X0130Y-5030*
X0129Y-5031*
X0129Y-5031*
X0128Y-5032*
X0128Y-5032*
X0128Y-5033*
X0127Y-5033*
X0127Y-5034*
X0127Y-5034*
X0126Y-5035*
X0126Y-5036*
X0125Y-5037*
X0125Y-5037*
X0124Y-5038*
X0124Y-5038*
X0123Y-5039*
X0123Y-5039*
X0038Y-5161*
X0038Y-5161*
X0038Y-5161*
X0038Y-5161*
X0037Y-5163*
X0037Y-5163*
X0036Y-5164*
X0036Y-5164*
X0035Y-5165*
X0035Y-5165*
X0034Y-5166*
X0034Y-5166*
X0033Y-5167*
X0033Y-5167*
X0033Y-5168*
X0033Y-5168*
X0032Y-5169*
X0032Y-5169*
X0031Y-5171*
X0031Y-5171*
X0030Y-5172*
X0030Y-5172*
X0029Y-5173*
X0029Y-5173*
X0028Y-5174*
X0028Y-5174*
X0027Y-5175*
X0027Y-5175*
X0026Y-5176*
X0026Y-5176*
X0025Y-5177*
X0025Y-5177*
X0025Y-5178*
X0024Y-5178*
X0024Y-5179*
X0023Y-5180*
X0023Y-5180*
X0023Y-5181*
X0022Y-5182*
X0022Y-5182*
X0021Y-5183*
X0021Y-5183*
X0020Y-5184*
X0020Y-5184*
X0019Y-5185*
X0019Y-5185*
X0016Y-5188*
X0009Y-5198*
X0007Y-5200*
X-0022Y-5226*
X-0092Y-5296*
X-0092Y-5296*
X-0093Y-5297*
X-0093Y-5297*
X-0094Y-5298*
X-0094Y-5298*
X-0095Y-5299*
X-0095Y-5299*
X-0096Y-5300*
X-0096Y-5300*
X-0097Y-5301*
X-0097Y-5301*
X-0098Y-5302*
X-0098Y-5302*
X-0099Y-5302*
X-0099Y-5302*
X-0100Y-5303*
X-0100Y-5304*
X-0101Y-5304*
X-0101Y-5305*
X-0102Y-5305*
X-0102Y-5306*
X-0103Y-5306*
X-0103Y-5306*
X-0104Y-5307*
X-0104Y-5307*
X-0106Y-5308*
X-0106Y-5308*
X-0106Y-5309*
X-0106Y-5309*
X-0108Y-5310*
X-0108Y-5310*
X-0109Y-5311*
X-0109Y-5311*
X-0110Y-5312*
X-0110Y-5312*
X-0111Y-5313*
X-0111Y-5313*
X-0112Y-5314*
X-0112Y-5314*
X-0113Y-5315*
X-0113Y-5315*
X-0114Y-5315*
X-0114Y-5315*
X-0115Y-5316*
X-0116Y-5316*
X-0117Y-5317*
X-0117Y-5317*
X-0118Y-5318*
X-0118Y-5318*
X-0119Y-5319*
X-0119Y-5319*
X-0120Y-5320*
X-0120Y-5320*
X-0121Y-5321*
X-0121Y-5321*
X-0122Y-5321*
X-0122Y-5321*
X-0158Y-5346*
X-0185Y-5371*
X-0188Y-5372*
X-0217Y-5388*
X-0244Y-5406*
X-0244Y-5406*
X-0245Y-5407*
X-0245Y-5407*
X-0246Y-5408*
X-0246Y-5408*
X-0247Y-5409*
X-0247Y-5409*
X-0248Y-5409*
X-0248Y-5409*
X-0250Y-5410*
X-0250Y-5410*
X-0251Y-5411*
X-0251Y-5411*
X-0252Y-5412*
X-0252Y-5412*
X-0253Y-5413*
X-0253Y-5413*
X-0254Y-5413*
X-0254Y-5413*
X-0256Y-5414*
X-0256Y-5414*
X-0257Y-5415*
X-0257Y-5415*
X-0258Y-5416*
X-0258Y-5416*
X-0259Y-5416*
X-0259Y-5416*
X-0261Y-5417*
X-0261Y-5417*
X-0262Y-5418*
X-0262Y-5418*
X-0263Y-5418*
X-0263Y-5419*
X-0264Y-5419*
X-0264Y-5419*
X-0265Y-5420*
X-0266Y-5420*
X-0267Y-5421*
X-0267Y-5421*
X-0268Y-5421*
X-0268Y-5421*
X-0269Y-5422*
X-0269Y-5422*
X-0271Y-5422*
X-0271Y-5423*
X-0272Y-5423*
X-0272Y-5423*
X-0273Y-5424*
X-0273Y-5424*
X-0274Y-5424*
X-0275Y-5424*
X-0276Y-5425*
X-0276Y-5425*
X-0277Y-5426*
X-0277Y-5426*
X-0278Y-5426*
X-0278Y-5426*
X-0389Y-5478*
X-0416Y-5492*
X-0419Y-5493*
X-0427Y-5495*
X-0430Y-5496*
X-0430Y-5496*
X-0431Y-5496*
X-0431Y-5496*
X-0432Y-5497*
X-0432Y-5497*
X-0434Y-5497*
X-0434Y-5498*
X-0435Y-5498*
X-0435Y-5498*
X-0436Y-5498*
X-0436Y-5498*
X-0438Y-5499*
X-0438Y-5499*
X-0439Y-5499*
X-0439Y-5499*
X-0440Y-5500*
X-0440Y-5500*
X-0442Y-5500*
X-0442Y-5500*
X-0469Y-5508*
X-0469Y-5653*
X0255Y-6376*
X0255Y-6377*
X0295Y-6425*
X0296Y-6427*
X0326Y-6482*
X0326Y-6484*
X0345Y-6544*
X0345Y-6547*
X0351Y-6608*
X0351Y-6609*
X0351Y-6840*
X0641Y-6941*
X0643Y-6943*
X0921Y-7117*
X0924Y-7119*
X1156Y-7351*
X1158Y-7354*
X1332Y-7632*
X1334Y-7634*
X1442Y-7944*
X1443Y-7947*
X1454Y-8046*
X2000Y-8046*
X2000Y-8046*
X2001Y-8046*
X2002Y-8046*
X2003Y-8046*
X2003Y-8046*
X2004Y-8046*
X2004Y-8046*
X2006Y-8046*
X2006Y-8046*
X2007Y-8047*
X2007Y-8047*
X2009Y-8047*
X2009Y-8047*
X2010Y-8047*
X2010Y-8047*
X2012Y-8047*
X2012Y-8047*
X2013Y-8047*
X2013Y-8047*
X2014Y-8047*
X2014Y-8047*
X2016Y-8047*
X2016Y-8047*
X2017Y-8047*
X2017Y-8047*
X2019Y-8047*
X2019Y-8047*
X2020Y-8047*
X2020Y-8047*
X2022Y-8047*
X2022Y-8047*
X2023Y-8048*
X2023Y-8048*
X2024Y-8048*
X2024Y-8048*
X2026Y-8048*
X2026Y-8048*
X2027Y-8048*
X2027Y-8048*
X2029Y-8048*
X2029Y-8048*
X2030Y-8048*
X2030Y-8048*
X2032Y-8049*
X2032Y-8049*
X2033Y-8049*
X2033Y-8049*
X2034Y-8049*
X2034Y-8049*
X2036Y-8049*
X2036Y-8049*
X2037Y-8049*
X2037Y-8049*
X2039Y-8050*
X2039Y-8050*
X2040Y-8050*
X2040Y-8050*
X2041Y-8050*
X2042Y-8050*
X2043Y-8050*
X2043Y-8050*
X2044Y-8051*
X2044Y-8051*
X2046Y-8051*
X2046Y-8051*
X2047Y-8051*
X2047Y-8051*
X2048Y-8052*
X2048Y-8052*
X2050Y-8052*
X2050Y-8052*
X2051Y-8052*
X2051Y-8052*
X2053Y-8053*
X2053Y-8053*
X2054Y-8053*
X2054Y-8053*
X2056Y-8053*
X2056Y-8053*
X2057Y-8054*
X2057Y-8054*
X2058Y-8054*
X2058Y-8054*
X2060Y-8054*
X2060Y-8054*
X2061Y-8055*
X2061Y-8055*
X2062Y-8055*
X2062Y-8055*
X2064Y-8055*
X2064Y-8055*
X2065Y-8056*
X2065Y-8056*
X2067Y-8056*
X2067Y-8056*
X2068Y-8057*
X2068Y-8057*
X2069Y-8057*
X2069Y-8057*
X2071Y-8058*
X2071Y-8058*
X2072Y-8058*
X2072Y-8058*
X2073Y-8059*
X2073Y-8059*
X2075Y-8059*
X2075Y-8059*
X2076Y-8059*
X2076Y-8059*
X2077Y-8060*
X2077Y-8060*
X2079Y-8060*
X2079Y-8060*
X2080Y-8061*
X2080Y-8061*
X2081Y-8061*
X2082Y-8061*
X2083Y-8062*
X2083Y-8062*
X2084Y-8062*
X2084Y-8062*
X2085Y-8063*
X2085Y-8063*
X2087Y-8064*
X2087Y-8064*
X2088Y-8064*
X2088Y-8064*
X2089Y-8065*
X2089Y-8065*
X2091Y-8065*
X2091Y-8065*
X2092Y-8066*
X2092Y-8066*
X2093Y-8066*
X2093Y-8066*
X2095Y-8067*
X2095Y-8067*
X2096Y-8067*
X2096Y-8068*
X2097Y-8068*
X2097Y-8068*
X2099Y-8069*
X2099Y-8069*
X2100Y-8069*
X2100Y-8069*
X2101Y-8070*
X2101Y-8070*
X2102Y-8071*
X2102Y-8071*
X2104Y-8071*
X2104Y-8071*
X2105Y-8072*
X2105Y-8072*
X2106Y-8073*
X2106Y-8073*
X2108Y-8073*
X2108Y-8073*
X2109Y-8074*
X2109Y-8074*
X2110Y-8075*
X2110Y-8075*
X2111Y-8075*
X2111Y-8075*
X2113Y-8076*
X2113Y-8076*
X2114Y-8077*
X2114Y-8077*
X2115Y-8077*
X2115Y-8077*
X2116Y-8078*
X2116Y-8078*
X2118Y-8079*
X2118Y-8079*
X2119Y-8080*
X2119Y-8080*
X2120Y-8080*
X2120Y-8080*
X2121Y-8081*
X2121Y-8081*
X2122Y-8082*
X2122Y-8082*
X2124Y-8083*
X2124Y-8083*
X2125Y-8083*
X2125Y-8084*
X2126Y-8084*
X2126Y-8084*
X2127Y-8085*
X2127Y-8085*
X2128Y-8086*
X2128Y-8086*
X2130Y-8087*
X2130Y-8087*
X2131Y-8087*
X2131Y-8087*
X2132Y-8088*
X2132Y-8088*
X2133Y-8089*
X2133Y-8089*
X2134Y-8090*
X2134Y-8090*
X2135Y-8091*
X2136Y-8091*
X2136Y-8092*
X2137Y-8092*
X2138Y-8093*
X2138Y-8093*
X2139Y-8093*
X2139Y-8093*
X2140Y-8094*
X2140Y-8094*
X2141Y-8095*
X2141Y-8095*
X2142Y-8096*
X2142Y-8096*
X2143Y-8097*
X2143Y-8097*
X2144Y-8098*
X2145Y-8098*
X2146Y-8099*
X2146Y-8099*
X2147Y-8100*
X2147Y-8100*
X2148Y-8101*
X2148Y-8101*
X2149Y-8101*
X2149Y-8102*
X2150Y-8102*
X2150Y-8103*
X2151Y-8103*
X2151Y-8103*
X2152Y-8104*
X2152Y-8105*
X2153Y-8105*
X2153Y-8105*
X2154Y-8106*
X2154Y-8106*
X2155Y-8107*
X2155Y-8107*
X2156Y-8108*
X2156Y-8108*
X2157Y-8109*
X2157Y-8109*
X2158Y-8110*
X2159Y-8110*
X2159Y-8111*
X2159Y-8111*
X2161Y-8112*
X2161Y-8112*
X2162Y-8113*
X2162Y-8113*
X2162Y-8114*
X2163Y-8114*
X2164Y-8115*
X2164Y-8115*
X2164Y-8116*
X2165Y-8116*
X2165Y-8117*
X2166Y-8117*
X2166Y-8118*
X2167Y-8118*
X2168Y-8119*
X2168Y-8120*
X2168Y-8120*
X2168Y-8120*
X2170Y-8122*
X2170Y-8122*
X2170Y-8122*
X2170Y-8123*
X2171Y-8124*
X2171Y-8124*
X2172Y-8125*
X2172Y-8125*
X2173Y-8126*
X2173Y-8126*
X2174Y-8127*
X2174Y-8127*
X2175Y-8128*
X2175Y-8128*
X2176Y-8129*
X2176Y-8129*
X2177Y-8130*
X2177Y-8130*
X2213Y-8174*
X2819Y-7117*
X2176Y-8169D02*
X2245Y-8169D01*
X2131Y-8120D02*
X2273Y-8120D01*
X1431Y-8070D02*
X2301Y-8070D01*
X1426Y-8021D02*
X2330Y-8021D01*
X1420Y-7971D02*
X2358Y-7971D01*
X1407Y-7922D02*
X2387Y-7922D01*
X1390Y-7872D02*
X2415Y-7872D01*
X1373Y-7822D02*
X2443Y-7822D01*
X1355Y-7773D02*
X2472Y-7773D01*
X1338Y-7723D02*
X2500Y-7723D01*
X1321Y-7674D02*
X2529Y-7674D01*
X1298Y-7624D02*
X2557Y-7624D01*
X1267Y-7575D02*
X2585Y-7575D01*
X1236Y-7525D02*
X2614Y-7525D01*
X1204Y-7476D02*
X2642Y-7476D01*
X1173Y-7426D02*
X2671Y-7426D01*
X1142Y-7377D02*
X2699Y-7377D01*
X1096Y-7327D02*
X2728Y-7327D01*
X1046Y-7278D02*
X2756Y-7278D01*
X0997Y-7228D02*
X2784Y-7228D01*
X0947Y-7179D02*
X2813Y-7179D01*
X0892Y-7129D02*
X2841Y-7129D01*
X0814Y-7080D02*
X1270Y-7080D01*
X0735Y-7030D02*
X1191Y-7030D01*
X0656Y-6980D02*
X1156Y-6980D01*
X0534Y-6931D02*
X1138Y-6931D01*
X0393Y-6881D02*
X1133Y-6881D01*
X0326Y-6832D02*
X1133Y-6832D01*
X0326Y-6782D02*
X1133Y-6782D01*
X0326Y-6733D02*
X1133Y-6733D01*
X0326Y-6683D02*
X1133Y-6683D01*
X0326Y-6634D02*
X1133Y-6634D01*
X0323Y-6584D02*
X1133Y-6584D01*
X0315Y-6535D02*
X1133Y-6535D01*
X0298Y-6485D02*
X1133Y-6485D01*
X0271Y-6436D02*
X1133Y-6436D01*
X0229Y-6386D02*
X1133Y-6386D01*
X0179Y-6337D02*
X1133Y-6337D01*
X0130Y-6287D02*
X1133Y-6287D01*
X0080Y-6238D02*
X1133Y-6238D01*
X0030Y-6188D02*
X1133Y-6188D01*
X-0019Y-6138D02*
X1133Y-6138D01*
X-0069Y-6089D02*
X1133Y-6089D01*
X-0118Y-6039D02*
X1133Y-6039D01*
X-0168Y-5990D02*
X1133Y-5990D01*
X-0217Y-5940D02*
X1139Y-5940D01*
X-0267Y-5891D02*
X1157Y-5891D01*
X-0316Y-5841D02*
X1194Y-5841D01*
X-0366Y-5792D02*
X1278Y-5792D01*
X-0415Y-5742D02*
X1733Y-5742D01*
X-0465Y-5693D02*
X1733Y-5693D01*
X-0494Y-5643D02*
X1733Y-5643D01*
X-0494Y-5594D02*
X1705Y-5594D01*
X-0494Y-5544D02*
X1656Y-5544D01*
X-0494Y-5495D02*
X1606Y-5495D01*
X-0379Y-5445D02*
X1557Y-5445D01*
X-0274Y-5396D02*
X1507Y-5396D01*
X-0196Y-5346D02*
X1458Y-5346D01*
X-0131Y-5296D02*
X1408Y-5296D01*
X-0079Y-5247D02*
X1359Y-5247D01*
X-0028Y-5197D02*
X1309Y-5197D01*
X0016Y-5148D02*
X1260Y-5148D01*
X0051Y-5098D02*
X1210Y-5098D01*
X0086Y-5049D02*
X1160Y-5049D01*
X0118Y-4999D02*
X1111Y-4999D01*
X0142Y-4950D02*
X1061Y-4950D01*
X0164Y-4900D02*
X1012Y-4900D01*
X0187Y-4851D02*
X0962Y-4851D01*
X0202Y-4801D02*
X0913Y-4801D01*
X0217Y-4752D02*
X0863Y-4752D01*
X0228Y-4702D02*
X0814Y-4702D01*
X0239Y-4653D02*
X0764Y-4653D01*
X0243Y-4603D02*
X0715Y-4603D01*
X0248Y-4554D02*
X0665Y-4554D01*
X0252Y-4504D02*
X0616Y-4504D01*
X0251Y-4454D02*
X0566Y-4454D01*
X0247Y-4405D02*
X0517Y-4405D01*
X0243Y-4355D02*
X0467Y-4355D01*
X0238Y-4306D02*
X0418Y-4306D01*
X0227Y-4256D02*
X0368Y-4256D01*
X0289Y-4207D02*
X0318Y-4207D01*
%LNtop copper_traces*%
D11*
X0020Y-6610D02*
X0020Y-8280D01*
X-2686Y-1943D02*
X-3307Y-1943D01*
X4210Y2286D02*
X2943Y2286D01*
D12*
X-1100Y2286D02*
X-2786Y0602D01*
X1100Y2286D02*
X1100Y1428D01*
X0019Y-3265D02*
X0019Y-1080D01*
D11*
X0424Y-0208D02*
X2340Y1683D01*
D12*
X2187Y-5433D02*
X0019Y-3265D01*
X-7492Y4820D02*
X-5750Y3078D01*
X0376Y0704D02*
X1100Y1421D01*
X-2786Y0602D02*
X-3760Y0602D01*
D11*
X-0931Y-0208D02*
X-1873Y-1130D01*
X-2800Y-4483D02*
X-2800Y-3594D01*
X-4370Y-3087D02*
X-4807Y-2650D01*
X0288Y-1080D02*
X2537Y1169D01*
X0424Y-0208D02*
X-0931Y-0208D01*
X-2800Y-3594D02*
X-3307Y-3087D01*
D12*
X2187Y-6437D02*
X2187Y-5433D01*
D11*
X-0800Y-4485D02*
X-0800Y-5790D01*
X2340Y1683D02*
X2927Y2270D01*
X-0800Y-5790D02*
X0020Y-6610D01*
D12*
X-0931Y0704D02*
X0376Y0704D01*
D11*
X0288Y-1080D02*
X0019Y-1080D01*
X2537Y1169D02*
X3427Y1169D01*
X-3307Y-3087D02*
X-4370Y-3087D01*
X-1873Y-1130D02*
X-2686Y-1943D01*
X-4807Y-2650D02*
X-4807Y-1943D01*
D12*
X-5750Y0597D02*
X-5750Y3078D01*
D11*
X5327Y1169D02*
X4210Y2286D01*
%LNtop copper component ee4f7c3a749b9ae5*%
D13*
X4290Y-1943D03*
X2290Y-1943D03*
G36*
X2290Y-1093D02*
X4290Y-1093D01*
G75*
G02*
X4290Y-2793I0J-0850D01*
G01*
X2290Y-2793D01*
G75*
G02*
X2290Y-1093I0J0850D01*
G01*
X2290Y-1093D01*
G37*
%LNtop copper component af7a60d08cf0a9d3*%
D14*
X-1881Y-1087D03*
X0019Y-1087D03*
X-0931Y0683D03*
%LNtop copper component f9ffbb3d02f459f2*%
D15*
X2187Y-3537D03*
X2187Y-6437D03*
%LNtop copper component 6959a6c919ed1c6a*%
D16*
X0Y2286D03*
D17*
X-1100Y2286D03*
X1100Y2286D03*
%LNtop copper component a4a91ddb9f96ce23*%
D18*
X0Y-8275D03*
G36*
X2000Y-8275D02*
X-2000Y-8275D01*
G75*
G03*
X2000Y-8275I2000J0450D01*
G01*
X2000Y-8275D01*
G37*
%LNtop copper component 1f3facd00bbf78ff*%
D19*
X3427Y1169D03*
X5327Y1169D03*
X4377Y3369D03*
%LNtop copper component 27f528e205d9f711*%
D13*
X-3750Y0597D03*
X-5750Y0597D03*
G36*
X-5750Y1447D02*
X-3750Y1447D01*
G75*
G02*
X-3750Y-0253I0J-0850D01*
G01*
X-5750Y-0253D01*
G75*
G02*
X-5750Y1447I0J0850D01*
G01*
X-5750Y1447D01*
G37*
%LNtop copper component eef1e1cbe215c51d*%
D20*
X-7492Y4820D03*
G36*
X-8492Y3088D02*
X-6492Y6552D01*
G75*
G03*
X-8492Y3088I-0610J-1957D01*
G01*
X-8492Y3088D01*
G37*
%LNtop copper component 397f7d45dedda475*%
D13*
X-0800Y-4483D03*
X-2800Y-4483D03*
G36*
X-2800Y-3633D02*
X-0800Y-3633D01*
G75*
G02*
X-0800Y-5333I0J-0850D01*
G01*
X-2800Y-5333D01*
G75*
G02*
X-2800Y-3633I0J0850D01*
G01*
X-2800Y-3633D01*
G37*
%LNtop copper component 316bbb3788b91dce*%
D21*
X-4807Y-1943D03*
X-3307Y-1943D03*
%LNtop copper component e0d137f8182de863*%
D22*
X7492Y4820D03*
G36*
X6492Y6552D02*
X8492Y3088D01*
G75*
G03*
X6492Y6552I-1390J1507D01*
G01*
X6492Y6552D01*
G37*
M02*