%FSLAX33Y33*%
%MOMM*%
%AMRect-W900000-H1700000-RO0.500*
21,1,0.9,1.7,0.,0.,270*%
%ADD10C,1.7*%
%ADD11R,0.802X0.972*%
%ADD12Rect-W900000-H1700000-RO0.500*%
%ADD13C,1.2*%
%ADD14C,0.7*%
%ADD15C,2.5*%
%ADD16R,1.X1.4*%
%ADD17C,2.5*%
%ADD18R,0.5X0.9*%
%ADD19C,2.5*%
D10*
%LNtop solder mask_traces*%
%LNtop solder mask component ee4f7c3a749b9ae5*%
G01*
X4290Y-1943D03*
X2290Y-1943D03*
G36*
X2290Y-1093D02*
X4290Y-1093D01*
G75*
G02*
X4290Y-2793I0J-0850D01*
G01*
X2290Y-2793D01*
G75*
G02*
X2290Y-1093I0J0850D01*
G01*
X2290Y-1093D01*
G37*
%LNtop solder mask component af7a60d08cf0a9d3*%
D11*
X-1881Y-1087D03*
X0019Y-1087D03*
X-0931Y0683D03*
%LNtop solder mask component f9ffbb3d02f459f2*%
D12*
X2187Y-3537D03*
X2187Y-6437D03*
%LNtop solder mask component 6959a6c919ed1c6a*%
D13*
X0Y2286D03*
D14*
X-1100Y2286D03*
X1100Y2286D03*
%LNtop solder mask component a4a91ddb9f96ce23*%
D15*
X0Y-8275D03*
G36*
X1500Y-8275D02*
X0Y-8275D01*
X1500Y-8275D01*
X1500Y-8275D01*
X2000Y-8275D02*
X-2000Y-8275D01*
G75*
G03*
X2000Y-8275I2000J0450D01*
G01*
X2000Y-8275D01*
G37*
%LNtop solder mask component 1f3facd00bbf78ff*%
D16*
X3427Y1169D03*
X5327Y1169D03*
X4377Y3369D03*
%LNtop solder mask component 27f528e205d9f711*%
D10*
X-3750Y0597D03*
X-5750Y0597D03*
G36*
X-5750Y1447D02*
X-3750Y1447D01*
G75*
G02*
X-3750Y-0253I0J-0850D01*
G01*
X-5750Y-0253D01*
G75*
G02*
X-5750Y1447I0J0850D01*
G01*
X-5750Y1447D01*
G37*
%LNtop solder mask component eef1e1cbe215c51d*%
D17*
X-7492Y4820D03*
G36*
X-8242Y3521D02*
X-7492Y4820D01*
X-8242Y3521D01*
X-8242Y3521D01*
X-8492Y3088D02*
X-6492Y6552D01*
G75*
G03*
X-8492Y3088I-0610J-1957D01*
G01*
X-8492Y3088D01*
G37*
%LNtop solder mask component 397f7d45dedda475*%
D10*
X-0800Y-4483D03*
X-2800Y-4483D03*
G36*
X-2800Y-3633D02*
X-0800Y-3633D01*
G75*
G02*
X-0800Y-5333I0J-0850D01*
G01*
X-2800Y-5333D01*
G75*
G02*
X-2800Y-3633I0J0850D01*
G01*
X-2800Y-3633D01*
G37*
%LNtop solder mask component 316bbb3788b91dce*%
D18*
X-4807Y-1943D03*
X-3307Y-1943D03*
%LNtop solder mask component e0d137f8182de863*%
D19*
X7492Y4820D03*
G36*
X6742Y6119D02*
X7492Y4820D01*
X6742Y6119D01*
X6742Y6119D01*
X6492Y6552D02*
X8492Y3088D01*
G75*
G03*
X6492Y6552I-1390J1507D01*
G01*
X6492Y6552D01*
G37*
M02*