%FSLAX33Y33*%
%MOMM*%
%ADD10C,0.1*%
%ADD11C,0.15*%
%ADD12C,0.5*%
D10*
%LNpath-0*%
G01*
X-1524Y6731D02*
X-1524Y2286D01*
X1524Y2286*
X1524Y6731*
X7060Y6700*
G75*
G02*
X7060Y6700D02*
X9000Y3608I0040J-2130D01*
G01*
X9000Y3608D02*
X1768Y-9000D01*
G75*
G02*
X1768Y-9000D02*
X-1768Y-9000I-1768J1188D01*
G01*
X-1768Y-9000D02*
X-9000Y3608D01*
G75*
G02*
X-9000Y3608D02*
X-7060Y6700I1900J0962D01*
G01*
X-7060Y6700D02*
X-1524Y6731D01*
%LNtop silkscreen_traces*%
%LNtop silkscreen component af7a60d08cf0a9d3*%
D11*
X-2391Y0448D02*
X-2091Y0448D01*
X-2391Y0448D02*
X-2391Y0148D01*
X0529Y0448D02*
X0229Y0448D01*
X0529Y0448D02*
X0529Y0148D01*
D12*
X-2791Y-0587D03*
G36*
X1485Y-0552D02*
X1517Y-0574D01*
X1548Y-0592D01*
X1578Y-0607D01*
X1606Y-0619D01*
X1578Y-0685D01*
X1540Y-0669D01*
X1501Y-0649D01*
X1463Y-0625D01*
X1425Y-0597D01*
X1384Y-0616D01*
X1341Y-0630D01*
X1296Y-0638D01*
X1281Y-0639D01*
X1276Y-0559D01*
X1301Y-0555D01*
X1324Y-0549D01*
X1347Y-0541D01*
X1324Y-0528D01*
X1301Y-0516D01*
X1278Y-0507D01*
X1253Y-0500D01*
X1276Y-0431D01*
X1276Y-0431D01*
X1315Y-0444D01*
X1351Y-0460D01*
X1383Y-0478D01*
X1411Y-0500D01*
X1448Y-0457D01*
X1474Y-0404D01*
X1490Y-0342D01*
X1495Y-0271D01*
X1493Y-0229D01*
X1487Y-0189D01*
X1478Y-0153D01*
X1465Y-0119D01*
X1449Y-0088D01*
X1429Y-0061D01*
X1406Y-0038D01*
X1379Y-0018D01*
X1350Y-0002D01*
X1319Y0009D01*
X1286Y0016D01*
X1251Y0018D01*
X1201Y0013D01*
X1154Y0D01*
X1113Y-0023D01*
X1075Y-0055D01*
X1045Y-0095D01*
X1023Y-0145D01*
X1010Y-0204D01*
X1006Y-0271D01*
X1010Y-0337D01*
X1023Y-0395D01*
X1044Y-0444D01*
X1075Y-0485D01*
X1112Y-0518D01*
X1153Y-0541D01*
X1200Y-0555D01*
X1251Y-0560D01*
X1276Y-0559D01*
X1281Y-0639D01*
X1249Y-0641D01*
X1201Y-0638D01*
X1156Y-0629D01*
X1113Y-0615D01*
X1073Y-0594D01*
X1035Y-0569D01*
X1003Y-0538D01*
X0974Y-0503D01*
X0951Y-0462D01*
X0932Y-0419D01*
X0919Y-0372D01*
X0911Y-0323D01*
X0908Y-0271D01*
X0911Y-0219D01*
X0919Y-0170D01*
X0932Y-0123D01*
X0951Y-0078D01*
X0975Y-0037D01*
X1003Y-0002D01*
X1036Y0029D01*
X1073Y0054D01*
X1114Y0074D01*
X1157Y0088D01*
X1203Y0097D01*
X1251Y0100D01*
X1299Y0097D01*
X1345Y0088D01*
X1388Y0073D01*
X1429Y0052D01*
X1467Y0026D01*
X1500Y-0004D01*
X1528Y-0039D01*
X1551Y-0079D01*
X1569Y-0123D01*
X1582Y-0170D01*
X1590Y-0219D01*
X1593Y-0271D01*
X1591Y-0314D01*
X1586Y-0355D01*
X1577Y-0393D01*
X1566Y-0430D01*
X1551Y-0464D01*
X1532Y-0496D01*
X1510Y-0525D01*
X1485Y-0552D01*
X1485Y-0552D01*
X2015Y-0629D02*
X1928Y-0629D01*
X1928Y-0069D01*
X1910Y-0084D01*
X1891Y-0099D01*
X1869Y-0114D01*
X1844Y-0129D01*
X1819Y-0144D01*
X1795Y-0156D01*
X1773Y-0166D01*
X1752Y-0175D01*
X1752Y-0090D01*
X1787Y-0072D01*
X1821Y-0052D01*
X1852Y-0030D01*
X1881Y-0006D01*
X1906Y0019D01*
X1928Y0043D01*
X1945Y0066D01*
X1959Y0090D01*
X2015Y0090D01*
X2015Y-0629D01*
X2015Y-0629D01*
G37*
%LNtop silkscreen component f9ffbb3d02f459f2*%
D11*
X2987Y-5612D02*
X2987Y-4362D01*
X1387Y-5612D02*
X1387Y-4362D01*
G36*
X1869Y-4375D02*
X2585Y-4375D01*
X2585Y-4692D01*
X2584Y-4737D01*
X2580Y-4777D01*
X2574Y-4810D01*
X2566Y-4838D01*
X2554Y-4862D01*
X2539Y-4883D01*
X2520Y-4901D01*
X2497Y-4917D01*
X2472Y-4930D01*
X2446Y-4940D01*
X2418Y-4945D01*
X2390Y-4947D01*
X2353Y-4944D01*
X2319Y-4935D01*
X2289Y-4919D01*
X2261Y-4898D01*
X2237Y-4870D01*
X2218Y-4835D01*
X2204Y-4794D01*
X2199Y-4770D01*
X2276Y-4755D01*
X2282Y-4775D01*
X2290Y-4792D01*
X2300Y-4807D01*
X2312Y-4820D01*
X2325Y-4831D01*
X2340Y-4839D01*
X2356Y-4845D01*
X2372Y-4848D01*
X2390Y-4850D01*
X2414Y-4847D01*
X2436Y-4840D01*
X2456Y-4829D01*
X2473Y-4813D01*
X2487Y-4792D01*
X2498Y-4765D01*
X2504Y-4733D01*
X2506Y-4696D01*
X2506Y-4470D01*
X2269Y-4470D01*
X2269Y-4470D01*
X2269Y-4673D01*
X2270Y-4704D01*
X2272Y-4731D01*
X2276Y-4755D01*
X2199Y-4770D01*
X2195Y-4746D01*
X2186Y-4763D01*
X2177Y-4779D01*
X2168Y-4792D01*
X2159Y-4803D01*
X2139Y-4823D01*
X2116Y-4843D01*
X2091Y-4862D01*
X2064Y-4881D01*
X1869Y-5006D01*
X1869Y-4887D01*
X2018Y-4792D01*
X2048Y-4772D01*
X2075Y-4754D01*
X2098Y-4738D01*
X2117Y-4724D01*
X2132Y-4711D01*
X2146Y-4698D01*
X2156Y-4686D01*
X2164Y-4676D01*
X2171Y-4665D01*
X2176Y-4654D01*
X2180Y-4643D01*
X2183Y-4632D01*
X2185Y-4623D01*
X2186Y-4611D01*
X2187Y-4597D01*
X2187Y-4580D01*
X2187Y-4470D01*
X1869Y-4470D01*
X1869Y-4375D01*
X1869Y-4375D01*
X1953Y-5522D02*
X1869Y-5522D01*
X1869Y-5049D01*
X1885Y-5049D01*
X1900Y-5051D01*
X1915Y-5054D01*
X1930Y-5059D01*
X1954Y-5069D01*
X1978Y-5083D01*
X2002Y-5098D01*
X2025Y-5117D01*
X2050Y-5139D01*
X2076Y-5166D01*
X2104Y-5197D01*
X2134Y-5232D01*
X2179Y-5286D01*
X2219Y-5330D01*
X2255Y-5364D01*
X2285Y-5390D01*
X2313Y-5408D01*
X2340Y-5420D01*
X2366Y-5428D01*
X2391Y-5431D01*
X2416Y-5428D01*
X2439Y-5421D01*
X2460Y-5410D01*
X2479Y-5393D01*
X2495Y-5373D01*
X2506Y-5350D01*
X2513Y-5324D01*
X2515Y-5296D01*
X2513Y-5266D01*
X2505Y-5239D01*
X2494Y-5215D01*
X2477Y-5194D01*
X2456Y-5178D01*
X2431Y-5166D01*
X2403Y-5158D01*
X2371Y-5156D01*
X2381Y-5065D01*
X2428Y-5073D01*
X2470Y-5088D01*
X2505Y-5108D01*
X2535Y-5135D01*
X2558Y-5168D01*
X2575Y-5206D01*
X2584Y-5249D01*
X2588Y-5298D01*
X2584Y-5347D01*
X2573Y-5390D01*
X2556Y-5428D01*
X2531Y-5461D01*
X2500Y-5487D01*
X2467Y-5506D01*
X2430Y-5517D01*
X2389Y-5521D01*
X2368Y-5520D01*
X2346Y-5517D01*
X2325Y-5511D01*
X2305Y-5503D01*
X2284Y-5493D01*
X2262Y-5480D01*
X2240Y-5464D01*
X2217Y-5445D01*
X2192Y-5421D01*
X2163Y-5391D01*
X2129Y-5354D01*
X2091Y-5310D01*
X2061Y-5274D01*
X2035Y-5245D01*
X2016Y-5223D01*
X2001Y-5208D01*
X1989Y-5197D01*
X1977Y-5187D01*
X1965Y-5179D01*
X1953Y-5171D01*
X1953Y-5522D01*
X1953Y-5522D01*
G37*
%LNtop silkscreen component 6959a6c919ed1c6a*%
X-1750Y1286D02*
X-1750Y3286D01*
X1750Y3286*
X1750Y1286*
X-1750Y1286*
D12*
X-1975Y1886D03*
G36*
X-2025Y2373D02*
X-2741Y2373D01*
X-2741Y2468D01*
X-2109Y2468D01*
X-2109Y2821D01*
X-2025Y2821D01*
X-2025Y2373D01*
X-2025Y2373D01*
X-2025Y2935D02*
X-2741Y2935D01*
X-2741Y3453D01*
X-2656Y3453D01*
X-2656Y3030D01*
X-2437Y3030D01*
X-2437Y3426D01*
X-2353Y3426D01*
X-2353Y3030D01*
X-2109Y3030D01*
X-2109Y3469D01*
X-2025Y3469D01*
X-2025Y2935D01*
X-2025Y2935D01*
X-2025Y3600D02*
X-2741Y3600D01*
X-2741Y3845D01*
X-2656Y3845D01*
X-2656Y3695D01*
X-2109Y3695D01*
X-2109Y3695D01*
X-2109Y3848D01*
X-2110Y3881D01*
X-2113Y3911D01*
X-2117Y3937D01*
X-2123Y3959D01*
X-2130Y3978D01*
X-2139Y3995D01*
X-2148Y4010D01*
X-2160Y4023D01*
X-2178Y4039D01*
X-2199Y4053D01*
X-2223Y4065D01*
X-2250Y4076D01*
X-2280Y4084D01*
X-2313Y4090D01*
X-2349Y4093D01*
X-2388Y4094D01*
X-2441Y4092D01*
X-2488Y4085D01*
X-2527Y4074D01*
X-2561Y4058D01*
X-2589Y4038D01*
X-2611Y4017D01*
X-2629Y3993D01*
X-2642Y3968D01*
X-2648Y3946D01*
X-2653Y3918D01*
X-2655Y3885D01*
X-2656Y3845D01*
X-2741Y3845D01*
X-2741Y3847D01*
X-2740Y3886D01*
X-2738Y3921D01*
X-2735Y3950D01*
X-2731Y3974D01*
X-2722Y4004D01*
X-2711Y4031D01*
X-2696Y4056D01*
X-2679Y4079D01*
X-2654Y4106D01*
X-2625Y4129D01*
X-2593Y4148D01*
X-2557Y4164D01*
X-2518Y4176D01*
X-2477Y4185D01*
X-2433Y4190D01*
X-2387Y4192D01*
X-2347Y4191D01*
X-2310Y4187D01*
X-2275Y4181D01*
X-2242Y4173D01*
X-2212Y4163D01*
X-2185Y4151D01*
X-2160Y4138D01*
X-2138Y4124D01*
X-2119Y4109D01*
X-2101Y4093D01*
X-2086Y4076D01*
X-2073Y4059D01*
X-2062Y4040D01*
X-2052Y4020D01*
X-2044Y3998D01*
X-2037Y3974D01*
X-2032Y3948D01*
X-2028Y3920D01*
X-2026Y3890D01*
X-2025Y3859D01*
X-2025Y3600D01*
X-2025Y3600D01*
G37*
%LNtop silkscreen component 1f3facd00bbf78ff*%
D11*
X2917Y2919D02*
X3477Y2919D01*
X5262Y2919D02*
X5837Y2919D01*
X2917Y2319D02*
X2917Y2919D01*
X5837Y2319D02*
X5837Y2919D01*
G36*
X6817Y2004D02*
X6849Y1982D01*
X6880Y1964D01*
X6910Y1949D01*
X6938Y1937D01*
X6910Y1871D01*
X6872Y1887D01*
X6833Y1907D01*
X6795Y1931D01*
X6757Y1959D01*
X6716Y1940D01*
X6673Y1926D01*
X6628Y1918D01*
X6613Y1917D01*
X6608Y1997D01*
X6633Y2001D01*
X6656Y2007D01*
X6679Y2015D01*
X6656Y2028D01*
X6633Y2040D01*
X6610Y2049D01*
X6585Y2056D01*
X6608Y2125D01*
X6608Y2125D01*
X6647Y2112D01*
X6683Y2096D01*
X6715Y2078D01*
X6743Y2056D01*
X6780Y2099D01*
X6806Y2152D01*
X6822Y2214D01*
X6827Y2285D01*
X6825Y2327D01*
X6819Y2367D01*
X6810Y2403D01*
X6797Y2437D01*
X6781Y2468D01*
X6761Y2495D01*
X6738Y2518D01*
X6711Y2538D01*
X6682Y2554D01*
X6651Y2565D01*
X6618Y2572D01*
X6583Y2574D01*
X6533Y2569D01*
X6486Y2556D01*
X6445Y2533D01*
X6407Y2501D01*
X6377Y2461D01*
X6355Y2411D01*
X6342Y2352D01*
X6338Y2285D01*
X6342Y2219D01*
X6355Y2161D01*
X6376Y2112D01*
X6407Y2071D01*
X6444Y2038D01*
X6485Y2015D01*
X6532Y2001D01*
X6583Y1996D01*
X6608Y1997D01*
X6613Y1917D01*
X6581Y1915D01*
X6533Y1918D01*
X6488Y1927D01*
X6445Y1941D01*
X6405Y1962D01*
X6367Y1987D01*
X6335Y2018D01*
X6306Y2053D01*
X6283Y2094D01*
X6264Y2137D01*
X6251Y2184D01*
X6243Y2233D01*
X6240Y2285D01*
X6243Y2337D01*
X6251Y2386D01*
X6264Y2433D01*
X6283Y2478D01*
X6307Y2519D01*
X6335Y2554D01*
X6368Y2585D01*
X6405Y2610D01*
X6446Y2630D01*
X6489Y2644D01*
X6535Y2653D01*
X6583Y2656D01*
X6631Y2653D01*
X6677Y2644D01*
X6720Y2629D01*
X6761Y2608D01*
X6799Y2582D01*
X6832Y2552D01*
X6860Y2517D01*
X6883Y2477D01*
X6901Y2433D01*
X6914Y2386D01*
X6922Y2337D01*
X6925Y2285D01*
X6923Y2242D01*
X6918Y2201D01*
X6909Y2163D01*
X6898Y2126D01*
X6883Y2092D01*
X6864Y2060D01*
X6842Y2031D01*
X6817Y2004D01*
X6817Y2004D01*
X7478Y2011D02*
X7478Y1927D01*
X7005Y1927D01*
X7005Y1943D01*
X7007Y1958D01*
X7011Y1973D01*
X7015Y1988D01*
X7026Y2012D01*
X7039Y2036D01*
X7055Y2060D01*
X7073Y2083D01*
X7095Y2108D01*
X7122Y2134D01*
X7153Y2162D01*
X7188Y2192D01*
X7242Y2237D01*
X7286Y2277D01*
X7321Y2313D01*
X7346Y2343D01*
X7364Y2371D01*
X7377Y2398D01*
X7384Y2424D01*
X7387Y2449D01*
X7385Y2474D01*
X7378Y2497D01*
X7366Y2518D01*
X7350Y2537D01*
X7330Y2553D01*
X7307Y2564D01*
X7281Y2571D01*
X7252Y2573D01*
X7222Y2571D01*
X7195Y2563D01*
X7171Y2552D01*
X7151Y2535D01*
X7134Y2514D01*
X7122Y2489D01*
X7115Y2461D01*
X7112Y2429D01*
X7022Y2439D01*
X7030Y2486D01*
X7044Y2528D01*
X7064Y2563D01*
X7092Y2593D01*
X7124Y2616D01*
X7162Y2633D01*
X7206Y2642D01*
X7254Y2646D01*
X7303Y2642D01*
X7346Y2631D01*
X7385Y2614D01*
X7417Y2589D01*
X7444Y2558D01*
X7462Y2525D01*
X7474Y2488D01*
X7477Y2447D01*
X7476Y2426D01*
X7473Y2404D01*
X7467Y2383D01*
X7460Y2363D01*
X7449Y2342D01*
X7436Y2320D01*
X7420Y2298D01*
X7401Y2275D01*
X7378Y2250D01*
X7347Y2221D01*
X7310Y2187D01*
X7266Y2149D01*
X7230Y2119D01*
X7201Y2093D01*
X7179Y2074D01*
X7164Y2059D01*
X7154Y2047D01*
X7144Y2035D01*
X7135Y2023D01*
X7127Y2011D01*
X7478Y2011D01*
X7478Y2011D01*
G37*
%LNtop silkscreen component 316bbb3788b91dce*%
X-5040Y-2768D02*
X-3074Y-2768D01*
X-5040Y-1118D02*
X-3074Y-1118D01*
G36*
X-4538Y-3675D02*
X-4538Y-2959D01*
X-4221Y-2959D01*
X-4176Y-2960D01*
X-4137Y-2964D01*
X-4103Y-2970D01*
X-4076Y-2978D01*
X-4052Y-2990D01*
X-4031Y-3005D01*
X-4012Y-3024D01*
X-3996Y-3047D01*
X-3983Y-3072D01*
X-3974Y-3098D01*
X-3968Y-3126D01*
X-3966Y-3154D01*
X-3969Y-3191D01*
X-3979Y-3225D01*
X-3994Y-3255D01*
X-4016Y-3283D01*
X-4044Y-3307D01*
X-4078Y-3326D01*
X-4120Y-3340D01*
X-4144Y-3345D01*
X-4159Y-3268D01*
X-4139Y-3262D01*
X-4121Y-3254D01*
X-4106Y-3244D01*
X-4094Y-3232D01*
X-4083Y-3219D01*
X-4075Y-3204D01*
X-4069Y-3188D01*
X-4065Y-3172D01*
X-4064Y-3154D01*
X-4066Y-3130D01*
X-4073Y-3108D01*
X-4085Y-3088D01*
X-4101Y-3071D01*
X-4122Y-3057D01*
X-4148Y-3046D01*
X-4180Y-3040D01*
X-4217Y-3038D01*
X-4444Y-3038D01*
X-4444Y-3275D01*
X-4444Y-3275D01*
X-4240Y-3275D01*
X-4209Y-3274D01*
X-4182Y-3272D01*
X-4159Y-3268D01*
X-4144Y-3345D01*
X-4168Y-3349D01*
X-4150Y-3358D01*
X-4135Y-3367D01*
X-4122Y-3376D01*
X-4111Y-3385D01*
X-4090Y-3405D01*
X-4070Y-3428D01*
X-4051Y-3453D01*
X-4032Y-3480D01*
X-3908Y-3675D01*
X-4027Y-3675D01*
X-4121Y-3526D01*
X-4141Y-3496D01*
X-4159Y-3469D01*
X-4175Y-3446D01*
X-4190Y-3427D01*
X-4203Y-3412D01*
X-4215Y-3398D01*
X-4227Y-3388D01*
X-4238Y-3380D01*
X-4249Y-3373D01*
X-4259Y-3368D01*
X-4270Y-3364D01*
X-4281Y-3361D01*
X-4290Y-3359D01*
X-4302Y-3358D01*
X-4317Y-3357D01*
X-4334Y-3357D01*
X-4444Y-3357D01*
X-4444Y-3675D01*
X-4538Y-3675D01*
X-4538Y-3675D01*
X-3522Y-3675D02*
X-3610Y-3675D01*
X-3610Y-3115D01*
X-3627Y-3130D01*
X-3647Y-3145D01*
X-3669Y-3160D01*
X-3693Y-3175D01*
X-3719Y-3190D01*
X-3742Y-3202D01*
X-3765Y-3212D01*
X-3786Y-3221D01*
X-3786Y-3136D01*
X-3750Y-3118D01*
X-3717Y-3098D01*
X-3686Y-3076D01*
X-3657Y-3052D01*
X-3632Y-3027D01*
X-3610Y-3003D01*
X-3592Y-2980D01*
X-3579Y-2956D01*
X-3522Y-2956D01*
X-3522Y-3675D01*
X-3522Y-3675D01*
G37*
%LNtext*%
G36*
X-5230Y4305D02*
X-5230Y4796D01*
X-5717Y4796D01*
X-5717Y5001D01*
X-5230Y5001D01*
X-5230Y5488D01*
X-5022Y5488D01*
X-5022Y5001D01*
X-4535Y5001D01*
X-4535Y4796D01*
X-5022Y4796D01*
X-5022Y4305D01*
X-5230Y4305D01*
X-5230Y4305D01*
X4322Y4584D02*
X4322Y4938D01*
X5402Y4938D01*
X5402Y4584D01*
X4322Y4584D01*
X4322Y4584D01*
X-1248Y-6750D02*
X-1248Y-6034D01*
X-0978Y-6034D01*
X-0944Y-6035D01*
X-0915Y-6036D01*
X-0890Y-6038D01*
X-0869Y-6041D01*
X-0844Y-6046D01*
X-0820Y-6054D01*
X-0799Y-6063D01*
X-0781Y-6074D01*
X-0764Y-6088D01*
X-0748Y-6104D01*
X-0735Y-6123D01*
X-0723Y-6144D01*
X-0714Y-6166D01*
X-0707Y-6190D01*
X-0703Y-6215D01*
X-0701Y-6241D01*
X-0705Y-6285D01*
X-0716Y-6326D01*
X-0734Y-6362D01*
X-0760Y-6396D01*
X-0794Y-6423D01*
X-0841Y-6443D01*
X-0899Y-6455D01*
X-0921Y-6456D01*
X-0925Y-6372D01*
X-0890Y-6366D01*
X-0860Y-6355D01*
X-0838Y-6340D01*
X-0821Y-6322D01*
X-0809Y-6299D01*
X-0802Y-6273D01*
X-0799Y-6244D01*
X-0801Y-6222D01*
X-0805Y-6202D01*
X-0812Y-6184D01*
X-0822Y-6167D01*
X-0834Y-6153D01*
X-0848Y-6141D01*
X-0864Y-6131D01*
X-0882Y-6125D01*
X-0896Y-6122D01*
X-0916Y-6120D01*
X-0940Y-6119D01*
X-0970Y-6119D01*
X-1153Y-6119D01*
X-1153Y-6375D01*
X-1153Y-6375D01*
X-0968Y-6375D01*
X-0925Y-6372D01*
X-0921Y-6456D01*
X-0970Y-6459D01*
X-1153Y-6459D01*
X-1153Y-6750D01*
X-1248Y-6750D01*
X-1248Y-6750D01*
X-0456Y-6750D02*
X-0646Y-6034D01*
X-0549Y-6034D01*
X-0440Y-6503D01*
X-0431Y-6540D01*
X-0423Y-6577D01*
X-0416Y-6613D01*
X-0409Y-6650D01*
X-0397Y-6599D01*
X-0388Y-6559D01*
X-0381Y-6532D01*
X-0377Y-6518D01*
X-0241Y-6034D01*
X-0127Y-6034D01*
X-0024Y-6396D01*
X-0006Y-6463D01*
X0009Y-6527D01*
X0022Y-6590D01*
X0031Y-6650D01*
X0039Y-6615D01*
X0047Y-6577D01*
X0057Y-6537D01*
X0067Y-6494D01*
X0179Y-6034D01*
X0275Y-6034D01*
X0078Y-6750D01*
X-0013Y-6750D01*
X-0164Y-6205D01*
X-0172Y-6174D01*
X-0179Y-6149D01*
X-0184Y-6132D01*
X-0186Y-6121D01*
X-0192Y-6144D01*
X-0197Y-6166D01*
X-0202Y-6186D01*
X-0207Y-6205D01*
X-0359Y-6750D01*
X-0456Y-6750D01*
X-0456Y-6750D01*
X0360Y-6750D02*
X0360Y-6034D01*
X0503Y-6034D01*
X0672Y-6541D01*
X0683Y-6574D01*
X0692Y-6603D01*
X0700Y-6627D01*
X0706Y-6647D01*
X0713Y-6625D01*
X0722Y-6599D01*
X0732Y-6568D01*
X0744Y-6532D01*
X0916Y-6034D01*
X1043Y-6034D01*
X1043Y-6750D01*
X0952Y-6750D01*
X0952Y-6151D01*
X0744Y-6750D01*
X0658Y-6750D01*
X0451Y-6141D01*
X0451Y-6750D01*
X0360Y-6750D01*
X0360Y-6750D01*
G37*
M02*